<svg width="25" height="25" viewBox="0 0 25 25" fill="none" xmlns="http://www.w3.org/2000/svg">
<path d="M7.00885 2.41324L8.73831 1.89181C9.30909 1.72 9.92288 1.76168 10.4652 2.0091C11.0075 2.25651 11.4413 2.69276 11.6856 3.23645L12.8981 5.93288C13.1086 6.40067 13.1672 6.92262 13.0659 7.42545C12.9645 7.92828 12.7082 8.38674 12.333 8.73645L10.4874 10.4561C10.2401 10.6909 10.4276 11.6061 11.3312 13.1722C12.2356 14.7391 12.9347 15.3588 13.2571 15.2623L15.6749 14.5231C16.165 14.3732 16.6897 14.3804 17.1755 14.5437C17.6613 14.707 18.0838 15.0182 18.3838 15.4338L20.1071 17.8222C20.4551 18.3045 20.6163 18.8967 20.5606 19.4889C20.5049 20.081 20.2362 20.6328 19.8044 21.0418L18.4722 22.3034C18.0422 22.7107 17.5118 22.9966 16.9352 23.1319C16.3586 23.2673 15.7564 23.2473 15.1901 23.074C12.399 22.2195 9.8142 19.6838 7.40081 15.5025C4.98206 11.315 4.06867 7.78288 4.70528 4.89717C4.83367 4.3157 5.11482 3.77899 5.51974 3.34237C5.92465 2.90575 6.43868 2.58502 7.00885 2.41324Z" fill="#979697"/>
</svg>
