<svg width="245" height="346" viewBox="0 0 245 346" fill="none" xmlns="http://www.w3.org/2000/svg">
<path d="M104.824 18.6994L103.631 19.5625C103.631 19.5625 96.9223 16.8089 85.3987 24.9462C73.8751 33.0835 62.3103 49.3582 62.3103 49.3582C62.3103 49.3582 50.6632 67.3178 48.9759 79.4415C47.2885 91.5653 51.404 108.21 53.2149 111.58C55.0257 114.909 56.6308 120.375 56.6308 120.375L57.5774 127.649L59.1825 133.772L64.5327 139.567L67.9075 143.965L69.6772 149.883L69.5126 153.787C69.5126 153.787 70.4591 157.856 73.0519 157.362C75.6448 156.869 76.9206 153.17 79.7192 153.335C82.5178 153.499 83.382 155.39 85.3987 154.691C87.4153 153.992 89.9669 149.554 91.3662 149.431C92.7655 149.307 102.478 149.842 104.454 148.65L104.824 147.992L101.326 140.307L100.174 131.471C100.174 131.471 89.967 125.717 85.8514 120.457C81.7358 115.196 76.3856 108.621 75.0686 104.84C73.7516 101.059 71.2411 95.7162 71.2411 95.7162C71.2411 95.7162 68.7718 81.8252 71.8584 75.5784C74.904 69.3316 81.2831 57.8243 81.2831 57.8243C81.2831 57.8243 96.7576 40.3989 108.199 38.0152C108.199 38.0152 128.118 45.906 136.308 54.8241C144.498 63.7423 151.207 89.3871 151.207 89.3871C151.207 89.3871 149.725 100.73 146.68 106.689C143.634 112.648 136.185 124.936 129.929 127.32C129.929 127.32 132.892 137.266 132.728 139.937C132.563 142.608 131.082 150.211 136.144 149.8C141.206 149.39 147.503 149.554 147.503 149.554C147.503 149.554 151.083 146.883 151.577 144.211C152.071 141.581 154.129 131.841 154.129 131.841L155.034 139.649L154.87 146.02L157.257 147.294L160.631 146.677L166.681 141.129L167.504 138.334L173.678 115.977C173.678 115.977 181.333 95.3463 176.394 81.6197C176.394 81.6197 170.468 58.8517 158.985 45.3717C147.585 31.9328 136.02 14.7951 104.824 18.6994Z" fill="#492A1D"/>
<path d="M69.138 152.266C69.138 152.266 57.3675 164.349 60.0014 170.596L63.4174 172.979C63.4174 172.979 74.0767 179.802 78.8096 178.158L78.3157 181.404L87.8227 177.706L87.6169 175.692C87.6169 175.692 92.926 160.239 104.655 162.376L110.129 162.828L117.702 165.089L119.924 164.185L140.132 157.445L146.675 157.732C146.675 157.732 153.425 162.828 154.001 166.075C154.577 169.322 156.306 172.24 156.306 172.24L164.002 167.431L182.934 159.582C182.934 159.582 173.468 139.033 167.5 138.334L166.842 141.54L161.491 145.978L156.306 147.006L154.865 146.061L154.372 133.649L152.561 141.252L149.886 148.074L146.799 149.677L135.358 149.8L132.724 148.526L132.435 139.937C132.435 139.937 123.916 152.513 118.278 152.883C112.64 153.253 103.791 144.828 103.791 144.828L104.861 148.485L101.733 149.431L92.1029 149.225C92.1029 149.225 88.1519 151.691 86.6703 154.034C85.1887 156.376 80.6616 153.376 80.6616 153.376C80.6616 153.376 77.5338 153.253 73.0066 157.321C73.0066 157.321 70.6608 157.239 69.8376 155.431C69.0557 153.664 69.138 152.266 69.138 152.266Z" fill="#539165"/>
<path d="M92.7175 200.761L97.3681 215.968L101.648 236.27L80.2061 235.366C80.2061 235.366 75.2263 236.557 74.8559 228.502C74.4855 220.447 74.1562 204.255 74.1562 204.255C74.1562 204.255 85.5564 205.241 92.7175 200.761Z" fill="#539165"/>
<path d="M113.672 236.516C113.672 236.516 119.969 207.419 127.5 208.611C134.991 209.803 136.637 224.845 136.637 224.845L138.9 236.146L128.899 236.968L113.672 236.516Z" fill="#539165"/>
<path d="M151.943 198.296C151.943 198.296 154.536 211.981 148.609 235.9L156.923 234.872L162.355 232.735C162.355 232.735 162.767 230.393 162.479 228.174C162.191 225.954 161.985 218.721 161.985 218.721L162.108 198.337L151.943 198.296Z" fill="#539165"/>
<path d="M105.727 169.075C105.727 169.075 106.262 171.336 105.85 172.61C105.439 173.884 103.875 175.363 103.875 175.363C103.875 175.363 105.727 175.528 106.468 176.267C107.209 177.007 109.266 178.939 109.266 178.939C109.266 178.939 108.608 175.733 109.39 174.911C110.172 174.089 110.871 172.897 110.871 172.897C110.871 172.897 108.773 171.829 108.155 171.048C107.538 170.267 105.727 169.075 105.727 169.075Z" fill="#F1E912"/>
<path d="M101.283 236.146L79.4297 235.242L80.8701 245.517L85.6854 273.216L94.9866 313.451L95.645 316.04L93.5461 319.821L86.2204 326.931L86.0969 328.205L87.8666 329.191L115.194 328.451L116.388 327.835L116.223 321.753L115.523 307.903L115.976 287.313C115.976 287.313 118.281 262.736 122.026 261.627L123.672 264.339L126.512 275.353L128.076 286.45L127.705 326.397C127.705 326.397 127.211 330.095 131.821 330.301C136.43 330.506 158.49 330.876 158.49 330.876C158.49 330.876 161.659 329.849 159.436 327.958C157.214 326.068 145.814 317.93 145.814 317.93L147.295 307.081L150.341 289.409L154.045 266.23L159.313 242.722L160.095 234.174L148.901 236.146C148.901 236.146 143.427 249.092 140.422 242.516L139.023 236.722L113.918 236.64C113.918 236.64 107.498 250.448 103.753 241.695C99.9252 232.859 101.283 236.146 101.283 236.146Z" fill="#3F497F"/>
<path d="M108.158 38.0565C108.158 38.0565 86.469 45.5363 76.5505 66.5371C66.6319 87.5379 70.7063 86.3461 72.4349 99.7439L75.7685 105.95C75.7685 105.95 89.8849 130.238 100.462 131.06C100.462 131.06 111.656 134.882 117.253 132.951C122.851 131.06 130.794 127.608 133.51 124.69C136.226 121.772 148.655 110.1 150.795 92.7573L151.166 87.2913L145.445 71.6332C145.445 71.6332 140.054 58.893 134.868 54.29C129.682 49.7282 118.653 40.6046 108.158 38.0565Z" fill="#FDEAE0"/>
<path d="M61.7358 172.487C61.7358 172.487 53.9985 189.419 58.3198 202.118L60.4188 203.351L80.2147 204.502L90.3802 202.529L97.5824 197.063L99.1875 193.446L99.599 182.884C99.599 182.884 100.504 175.363 94.2076 176.473C87.8697 177.583 78.3627 181.405 78.3627 181.405L78.8566 178.158C78.8154 178.158 69.9258 177.747 61.7358 172.487Z" fill="#FDEAE0"/>
<path d="M156.356 172.281C156.356 172.281 170.842 163.363 176.975 162.5L182.366 182.802C182.366 182.802 185.37 192.172 178.703 195.131C172.036 198.09 159.895 198.255 159.895 198.255L149.812 198.09C149.812 198.09 145.984 196.529 145.984 191.556C146.026 186.583 148.618 175.363 153.845 172.98L156.356 172.281Z" fill="#FDEAE0"/>
<path d="M134.947 81.8252C134.823 83.9623 131.654 87.7433 128.074 87.4967C124.493 87.2912 121.818 83.1814 121.942 81.0033C122.065 78.8662 125.111 77.3045 128.691 77.51C132.231 77.7566 135.07 79.6882 134.947 81.8252Z" fill="#33201B"/>
<path d="M98.5672 87.7844C98.4437 90.0448 95.1924 93.9901 91.4884 93.7435C87.7844 93.538 85.0681 89.2228 85.1915 86.9624C85.315 84.7021 88.4428 83.0582 92.1057 83.3048C95.8097 83.5102 98.6906 85.524 98.5672 87.7844Z" fill="#33201B"/>
<path d="M106.549 114.909L110.788 113.1L114.204 112.936L116.262 112.854L118.649 111.703L124.822 111.785L122.229 116.717C122.229 116.717 119.307 120.128 116.797 119.676C114.286 119.265 108.401 117.498 106.508 115.279L106.549 114.909Z" fill="#EC69A7"/>
<path d="M103.258 143.471L104.822 147.992L104.081 149.102L107.25 155.801L108.649 161.924L117.004 164.924L121.366 163.527L130.174 160.486L130.379 152.759L131.943 143.019V140.348L125.647 144.252L121.737 146.513L119.062 151.444L117.127 150.951L114.246 146.677L107.867 145.608L103.258 143.471Z" fill="#F8F5E4"/>
<path d="M118.69 219.173C118.69 219.173 125.192 203.145 130.254 209.762C130.254 209.762 129.143 235.9 134.617 236.763C134.617 236.763 117.867 237.462 116.344 236.475C117.702 236.722 120.871 223.776 118.69 219.173Z" fill="#F8F5E4"/>
<path d="M108.489 44.4264C108.489 44.4264 86.2651 58.4407 82.026 70.9343C77.787 83.4691 78.4866 102.127 85.977 112.813C93.4673 123.498 101.698 131.348 101.698 131.348C101.698 131.348 89.3517 127.238 79.639 112.196C69.9262 97.1546 70.7082 88.9351 70.6259 84.3321C70.5436 79.7292 76.0996 59.9613 94.167 45.906C94.167 45.906 106.431 37.6043 108.489 38.0974C110.547 38.5906 124.293 45.3717 124.293 45.3717C124.293 45.3717 136.887 53.098 141.537 63.2491C146.188 73.4002 148.616 79.4415 148.616 79.4415L151.703 91.031C151.703 91.031 149.768 104.429 142.648 113.594C142.648 113.594 146.517 100.483 145.612 88.1953C144.706 75.9071 138.039 55.5228 108.489 44.4264Z" fill="#E5D2CA"/>
<path d="M70.5439 82.7292C70.5439 82.7292 65.6464 108.456 100.258 131.348C100.258 131.348 102.892 146.389 104.991 148.403C107.09 150.417 93.0149 149.102 93.0149 149.102C93.0149 149.102 69.3092 130.69 68.4038 109.319C67.4161 87.8664 70.5439 82.7292 70.5439 82.7292Z" fill="#351E15"/>
<path d="M151.244 89.3049C151.244 89.3049 158.57 113.758 140.091 149.677L133.918 149.184C133.918 149.184 132.477 148.403 132.889 141.088C133.3 133.731 130.008 127.279 130.008 127.279C130.008 127.279 140.338 119.635 144.083 111.456C147.787 103.237 150.339 96.3326 151.244 89.3049Z" fill="#351E15"/>
<path d="M100.216 131.307C100.216 131.307 109.147 133.814 116.267 132.909C123.386 131.964 129.971 127.279 129.971 127.279C129.971 127.279 132.935 134.553 132.523 139.28C132.358 141.129 126.802 143.554 122.234 146.184C119.6 147.705 118.777 151.485 118.53 151.527C117.501 151.609 116.555 148.362 113.344 146.965C110.464 145.691 105.36 146.513 103.22 143.143C98.6107 135.992 100.216 131.307 100.216 131.307Z" fill="#E5D2CA"/>
<path d="M118.9 157.897C132.728 157.321 130.794 150.129 132.358 140.923L129.765 142.362C129.765 142.362 125.114 144.334 122.275 146.759C120.382 148.321 120.34 151.485 118.653 151.568C116.595 151.691 116.266 148.198 114.044 147.129C109.887 145.156 104.125 144.91 104.125 144.91L104.948 148.691C104.948 148.691 104.454 149.102 104.578 149.883C105.072 152.513 107.911 158.349 118.9 157.897Z" fill="#EAE6DE"/>
<path d="M79.1844 178.117C79.1844 178.117 71.2825 177.623 68.1135 175.856C64.9445 174.048 61.4874 172.24 61.4874 172.24C61.4874 172.24 59.0592 175.651 62.3517 176.843C65.6441 178.034 76.4269 182.719 77.7028 181.569C78.9786 180.459 79.1844 178.117 79.1844 178.117Z" fill="#E5D2CA"/>
<path d="M75.8076 183.131C75.8076 183.131 70.2104 184.24 69.2227 185.227C68.2349 186.213 67.988 188.555 69.305 188.638C70.6219 188.72 75.8076 183.131 75.8076 183.131Z" fill="#E5D2CA"/>
<path d="M156.023 172.034L177.26 161.965C177.26 161.965 177.918 164.801 174.091 166.445C170.304 168.089 160.551 172.856 160.139 173.514C159.769 174.212 156.023 172.034 156.023 172.034Z" fill="#E5D2CA"/>
<path d="M162.445 176.021C162.445 176.021 170.059 176.966 170.43 178.076C170.8 179.185 169.853 180.829 168.619 180.665C167.631 180.5 162.445 176.021 162.445 176.021Z" fill="#E5D2CA"/>
<path d="M74.3308 210.255C74.3308 210.255 82.0269 210.337 84.9489 209.556C87.8298 208.775 91.3281 206.597 92.4804 213.871C93.6328 221.146 96.2256 236.146 97.2134 236.187C98.2011 236.228 101.74 236.434 101.74 236.434C101.74 236.434 96.8841 209.022 92.5628 200.474C92.5628 200.474 87.0479 204.501 74.125 204.419L74.3308 210.255Z" fill="#467A54"/>
<path d="M161.62 201.501C161.62 201.501 156.146 200.433 156.023 205.57C155.899 210.707 155.405 235.571 152.195 235.941C148.985 236.311 148.82 236.064 148.82 236.064C148.82 236.064 152.03 222.543 152.113 214.776C152.195 207.008 152.154 198.254 152.154 198.254L161.826 198.213L161.62 201.501Z" fill="#467A54"/>
<path d="M130.383 215.392C131.864 216.543 136.103 230.187 136.803 236.639L139.026 236.475C139.026 236.475 136.392 216.05 130.589 209.762L130.383 215.392Z" fill="#467A54"/>
<path d="M119.146 225.379C119.146 225.379 116.1 233.557 116.059 236.434L113.672 236.146C113.672 236.146 116.018 222.379 118.899 218.844L119.146 225.379Z" fill="#467A54"/>
<path d="M118.938 218.844C118.938 218.844 124.123 204.46 130.626 209.762L130.42 215.392C130.42 215.392 126.099 202.241 119.226 224.433L118.938 218.844Z" fill="#E0DDCE"/>
<path d="M80.2539 240.585L97.1278 241.201C97.1278 241.201 100.42 240.42 102.066 246.996C103.713 253.572 110.298 249.462 113.755 244.612C117.212 239.763 132.275 241.941 134.415 242.475C136.555 243.01 140.177 255.133 145.568 247.941C150.959 240.749 152.606 241.037 158.903 241.653L160.014 233.968C160.014 233.968 153.635 236.311 148.902 236.105C148.902 236.105 143.963 248.311 140.753 243.256L139.107 236.475C139.107 236.475 127.377 237.585 122.891 237.256C118.405 236.927 113.755 236.146 113.755 236.146C113.755 236.146 110.75 244.941 106.717 244.695C102.684 244.448 101.82 236.516 101.82 236.516L93.3003 236.352L79.1016 235.365L80.2539 240.585Z" fill="#334066"/>
<path d="M167.465 141.006C167.177 144.54 162.815 152.513 156.271 152.636C149.727 152.759 129.725 158.719 130.59 150.376C131.454 142.033 132.277 142.074 132.524 146.8C132.73 151.568 143.636 150.006 143.636 150.006C143.636 150.006 148.863 151.65 151.085 145.362C153.308 139.074 154.172 132.745 154.172 132.745L154.995 140.06C154.995 140.06 153.555 147.335 157.094 147.17C160.633 147.047 163.514 145.033 165.078 142.978C166.642 140.923 167.465 141.006 167.465 141.006Z" fill="#467A54"/>
<path d="M69.2301 153.664C69.2301 153.664 68.1188 160.979 75.6092 160.732C83.0995 160.445 108.657 157.157 106.888 154.321C105.118 151.485 104.953 149.02 102.319 149.143C99.6853 149.307 91.4541 147.828 88.9436 151.65C86.4331 155.472 83.2642 155.143 81.7002 153.787C80.1363 152.39 75.9384 154.609 73.9218 157.034C71.8229 159.458 69.2301 153.664 69.2301 153.664Z" fill="#467A54"/>
<path opacity="0.1" d="M129.521 103.196C130.838 106.771 136.312 104.552 139.975 103.196C143.679 101.84 145.284 100.525 143.967 96.9491C142.65 93.3737 141.21 92.3462 137.506 93.7024C133.843 95.0998 128.245 99.6205 129.521 103.196Z" fill="#EC69A7"/>
<path opacity="0.1" d="M100.581 107.182C101.322 110.922 95.4776 111.868 91.6501 112.607C87.7815 113.347 85.7237 113.059 84.9829 109.361C84.2421 105.662 84.9829 104.018 88.8515 103.237C92.679 102.497 99.8401 103.484 100.581 107.182Z" fill="#EC69A7"/>
<path d="M98.8984 178.158C98.8984 178.158 105.031 193.569 101.08 197.638C97.1287 201.707 94.2066 203.638 94.2066 203.638L92.6016 200.515C92.6016 200.515 98.3222 198.254 99.1453 193.199C99.9684 188.144 99.4334 178.856 98.8984 178.158Z" fill="#EAEAEA"/>
<path d="M148.205 180.254C148.205 180.254 137.957 197.474 148.411 199.898L152.238 200.967L152.156 198.254C152.156 198.254 146.765 197.967 146.189 192.09C145.612 186.213 148.205 180.254 148.205 180.254Z" fill="#EAEAEA"/>
<path d="M105.233 20.3432C105.233 20.3432 91.1577 9.49342 63.0484 48.8648C34.939 88.2363 55.5992 110.182 56.7927 122.471C57.9862 134.759 61.6491 137.142 64.3653 139.32C67.0816 141.499 69.9625 146.019 69.5098 151.691C69.0571 157.362 73.2961 157.732 73.2961 157.732C73.2961 157.732 76.8767 153.17 80.128 153.376C83.3793 153.581 82.5973 155.184 85.2724 154.896C87.9476 154.609 88.8941 150.047 91.6927 149.389C94.4913 148.732 101.323 150.417 105.192 148.65C105.192 148.65 98.5657 135.622 100.459 131.594" stroke="#1B1A1A" stroke-width="1.23467" stroke-miterlimit="10" stroke-linecap="round" stroke-linejoin="round"/>
<path d="M107.868 38.796C106.181 39.3714 104.535 40.1522 102.929 40.9742C101.324 41.7961 99.7193 42.7414 98.1966 43.6866C95.1511 45.6593 92.2701 47.9196 89.595 50.3855C84.2448 55.3172 79.8411 61.2352 76.5487 67.6875C76.1371 68.5095 75.7667 69.3314 75.3963 70.1534C75.1905 70.5644 75.0259 70.9754 74.8201 71.3863L74.3263 72.6604L73.8324 73.9344C73.6678 74.3453 73.5031 74.7563 73.3385 75.2084L72.4743 77.7975C71.4042 81.2908 70.5399 84.8252 70.0049 88.4418L69.7991 89.798C69.7168 90.2501 69.6345 90.7022 69.5934 91.1542L69.3053 93.8667C69.2641 94.3187 69.1818 94.7708 69.1406 95.2229L69.0583 96.5791L68.8937 99.3326C68.8114 101.141 68.8525 102.99 68.7702 104.799L68.8937 110.306C68.8937 110.552 68.7291 110.758 68.4821 110.758C68.2352 110.758 68.0706 110.593 68.0294 110.347C67.2886 102.99 67.4121 95.5517 68.5233 88.1952C69.0172 84.4964 69.9226 80.8799 70.9926 77.3455L71.8981 74.7152C72.0215 74.2632 72.2273 73.8522 72.3919 73.4001L72.927 72.085L73.462 70.7699C73.6266 70.3589 73.8324 69.9068 74.0382 69.4958C74.4497 68.6739 74.8201 67.8108 75.2317 66.9889C78.6065 60.3311 83.1747 54.2898 88.6896 49.2759C91.447 46.7689 94.4103 44.5086 97.5792 42.5359C100.748 40.6043 104.041 38.8371 107.621 37.6042C107.95 37.4809 108.28 37.6453 108.403 37.974C108.403 38.3028 108.239 38.6727 107.868 38.796Z" fill="#1B1A1A"/>
<path d="M108.234 37.8096C108.234 37.8096 132.187 46.399 140.459 61.0297C148.732 75.6604 154.452 97.7708 152.971 107.429" stroke="#1B1A1A" stroke-width="1.23467" stroke-miterlimit="10" stroke-linecap="round" stroke-linejoin="round"/>
<path d="M104.492 18.8226C104.492 18.8226 130.503 11.0962 153.591 38.4672C176.679 65.8381 178.49 87.4554 177.667 98.675C176.844 109.895 167.749 132.128 167.214 140.759C167.214 140.759 162.234 147.129 158.612 147.088C154.99 147.047 154.579 147.704 154.784 140.841C154.99 133.978 154.126 127.608 154.126 127.608C154.126 127.608 154.003 150.088 146.018 149.883C138.034 149.677 132.972 151.239 132.725 147.006C132.478 142.773 133.178 136.978 130.503 128.594" stroke="#1B1A1A" stroke-width="1.23467" stroke-miterlimit="10" stroke-linecap="round" stroke-linejoin="round"/>
<path d="M76.0153 81.5373C76.1388 81.2908 76.2623 81.1264 76.3857 80.9209C76.5092 80.7565 76.6327 80.551 76.7973 80.3866L77.2089 79.8934L77.6616 79.4414C78.2789 78.866 78.9785 78.3317 79.6782 77.8386C81.0775 76.8933 82.6002 76.1125 84.1642 75.5371C84.9461 75.2083 85.7281 74.9617 86.5512 74.7152C87.3332 74.4686 88.1563 74.2631 88.9794 74.0576C89.8025 73.8932 90.6256 73.6877 91.4487 73.5644L93.9181 73.1535C94.7823 73.0302 95.6055 73.6055 95.7289 74.4686C95.8524 75.3316 95.2762 76.1536 94.4119 76.2769C94.3708 76.2769 94.2885 76.2769 94.2473 76.2769H94.165L91.778 76.4413C90.996 76.5234 90.2141 76.6056 89.4321 76.6878C88.6501 76.8111 87.8682 76.9344 87.1274 77.0577C86.3866 77.2221 85.6046 77.3865 84.8638 77.592C83.3411 78.003 81.9006 78.5783 80.5425 79.277C79.8428 79.6469 79.2255 80.0578 78.6081 80.5099L78.1554 80.8798L77.7439 81.2497C77.6204 81.373 77.4969 81.5373 77.3735 81.6606C77.25 81.7839 77.1265 81.9483 77.0854 82.0716L77.0442 82.1127C76.8384 82.4004 76.468 82.4826 76.18 82.2771C75.933 82.1538 75.8507 81.825 76.0153 81.5373Z" fill="#1B1A1A"/>
<path d="M117.333 69.8246C118.321 69.4548 119.185 69.1671 120.132 68.9205C121.078 68.6739 122.025 68.4273 122.972 68.2629C124.865 67.8931 126.799 67.6465 128.733 67.6465C129.721 67.6465 130.668 67.6465 131.655 67.7698C132.643 67.852 133.59 68.0164 134.536 68.2629C135.483 68.5095 136.43 68.8383 137.335 69.2082C138.24 69.6192 139.064 70.1123 139.887 70.6466C140.175 70.8521 140.216 71.222 140.051 71.5096C139.887 71.7562 139.516 71.8384 139.228 71.674C138.446 71.222 137.664 70.8521 136.8 70.5644C135.977 70.2767 135.113 70.0712 134.207 69.9068C133.343 69.7836 132.437 69.7014 131.532 69.6603C130.627 69.6603 129.762 69.7014 128.857 69.7836C127.087 69.9479 125.318 70.3178 123.548 70.811C122.684 71.0576 121.819 71.3453 120.996 71.6329C120.585 71.7973 120.173 71.9617 119.761 72.1261C119.35 72.2905 118.938 72.496 118.568 72.6604C117.827 73.0303 116.922 72.7015 116.551 71.9617C116.181 71.222 116.51 70.3178 117.251 69.9479C117.251 69.8657 117.292 69.8657 117.333 69.8246Z" fill="#1B1A1A"/>
<path d="M79.7165 95.3871C79.9634 94.072 80.3338 92.839 80.8277 91.6061C81.3216 90.3732 81.8978 89.1814 82.6386 88.0717C83.3794 86.921 84.2436 85.8525 85.2725 84.9483C86.3014 84.0031 87.5361 83.2633 88.8942 82.7702C90.2524 82.277 91.734 82.1126 93.1333 82.2359C93.5037 82.2359 93.8329 82.3181 94.1622 82.3592C94.4914 82.4414 94.8618 82.4825 95.1911 82.5647L96.1788 82.8524C96.508 82.9756 96.7961 83.0989 97.1254 83.2222C99.6359 84.2908 101.776 85.8936 103.628 87.7019C103.875 87.9484 103.875 88.3183 103.628 88.5649C103.422 88.7704 103.093 88.8115 102.846 88.6471C100.747 87.2909 98.607 85.9758 96.3434 85.236C94.121 84.4552 91.7751 84.2086 89.6762 84.9483C88.6061 85.3182 87.6596 85.8936 86.7541 86.6333C85.8487 87.3731 85.0667 88.2361 84.3259 89.2225C83.6263 90.2088 82.9678 91.2362 82.3916 92.3048C81.8154 93.3733 81.3216 94.524 80.8689 95.6748V95.7159C80.7454 96.0446 80.375 96.209 80.0869 96.0858C79.7988 95.9625 79.6342 95.6748 79.7165 95.3871Z" fill="#1B1A1A"/>
<path d="M85.681 86.6335C85.681 86.6335 84.7344 94.853 93.0479 93.3324C101.361 91.7707 97.2869 84.8663 97.2869 84.8663" stroke="#1B1A1A" stroke-width="1.23467" stroke-miterlimit="10" stroke-linecap="round" stroke-linejoin="round"/>
<path d="M116.631 86.9623C116.96 85.6061 117.495 84.3731 118.112 83.1402C118.771 81.9484 119.553 80.7977 120.541 79.7702C121.528 78.7428 122.681 77.8797 124.039 77.2633C125.356 76.6468 126.796 76.318 128.237 76.2769C128.607 76.2769 128.978 76.2358 129.307 76.2769L130.377 76.3591C131.076 76.4824 131.776 76.6057 132.435 76.8112C133.134 76.9756 133.752 77.2633 134.41 77.5099C134.739 77.6332 135.027 77.7975 135.357 77.9619C135.645 78.1263 135.974 78.2496 136.262 78.414C138.649 79.7291 140.789 81.4141 142.682 83.2635C142.929 83.5101 142.929 83.88 142.682 84.1266C142.477 84.332 142.106 84.3731 141.9 84.2087C139.801 82.7292 137.62 81.2908 135.357 80.2223C134.78 79.9757 134.204 79.7291 133.628 79.4825C133.052 79.277 132.476 79.0716 131.858 78.9072C131.282 78.7428 130.665 78.6606 130.089 78.5373L129.183 78.4551C128.895 78.414 128.607 78.4551 128.319 78.4551C125.973 78.5373 123.751 79.5236 121.981 81.1675C120.211 82.8114 118.812 84.9896 117.783 87.25V87.2911C117.66 87.6198 117.289 87.7431 116.96 87.6198C116.713 87.5376 116.548 87.25 116.631 86.9623Z" fill="#1B1A1A"/>
<path d="M121.982 80.3456C121.982 80.3456 121.529 87.9898 129.266 87.3733C137.003 86.7568 133.834 79.1538 133.834 79.1538" stroke="#1B1A1A" stroke-width="1.23467" stroke-miterlimit="10" stroke-linecap="round" stroke-linejoin="round"/>
<path d="M104.12 113.552C105.025 113.963 105.972 114.333 106.959 114.58C107.947 114.868 108.894 115.114 109.881 115.279C111.857 115.607 113.873 115.648 115.849 115.361C117.824 115.073 119.759 114.498 121.528 113.594C122.434 113.141 123.257 112.648 124.08 112.032C124.862 111.456 125.644 110.758 126.261 110.018L126.302 109.977C126.467 109.813 126.714 109.771 126.92 109.936C127.084 110.059 127.126 110.306 127.002 110.511C125.767 112.319 124.039 113.676 122.187 114.703C120.294 115.731 118.236 116.388 116.096 116.676C113.956 116.963 111.816 116.84 109.717 116.429C107.618 115.977 105.642 115.279 103.79 114.251C103.585 114.128 103.543 113.881 103.626 113.676C103.667 113.552 103.914 113.47 104.12 113.552Z" fill="#1B1A1A"/>
<path d="M71.1946 83.0579C71.3593 84.9484 71.4827 86.88 71.6062 88.7705C71.7297 90.661 71.812 92.5925 71.9766 94.483C72.2647 98.3051 72.6351 102.086 73.1701 105.867C73.4171 107.758 73.7051 109.648 74.0344 111.538C74.3636 113.429 74.7752 115.278 75.2279 117.128C75.6806 118.977 76.2568 120.785 76.9153 122.553C77.6149 124.279 78.4792 126.005 79.6727 127.361C79.8374 127.525 79.7962 127.813 79.6316 127.977C79.4669 128.142 79.1789 128.101 79.0142 127.936C77.6561 126.457 76.7095 124.69 75.9276 122.923C75.1456 121.114 74.5283 119.265 74.0344 117.415C73.0055 113.676 72.3059 109.895 71.6885 106.073C71.1123 102.25 70.7008 98.4284 70.3715 94.6063C70.2069 92.6747 70.0423 90.7842 69.96 88.8527C69.9188 87.9074 69.8777 86.9211 69.8777 85.9758C69.8365 85.0306 69.8777 84.0442 69.8777 83.099C69.8777 82.7702 70.1658 82.4825 70.5362 82.4825C70.9066 82.5236 71.1535 82.7702 71.1946 83.0579Z" fill="#1B1A1A"/>
<path d="M72.1406 97.7709C72.1406 97.7709 85.3105 135.375 113.461 133.156C144.451 130.731 152.477 90.3322 150.995 90.1678" stroke="#1B1A1A" stroke-width="1.23467" stroke-miterlimit="10" stroke-linecap="round" stroke-linejoin="round"/>
<path d="M103.547 143.718C103.547 143.718 107.539 146.102 113.589 146.759C114.988 146.923 116.758 151.567 118.363 151.485C119.762 151.403 120.915 146.512 122.232 146.102C127.952 144.252 132.397 139.814 132.397 139.814" stroke="#1B1A1A" stroke-width="1.23467" stroke-miterlimit="10" stroke-linecap="round" stroke-linejoin="round"/>
<path d="M167.752 138.54C167.752 138.54 171.868 136.978 182.815 159.623C182.815 159.623 156.928 170.185 156.188 172.486" stroke="#1B1A1A" stroke-width="1.23467" stroke-miterlimit="10" stroke-linecap="round" stroke-linejoin="round"/>
<path d="M177.092 162.541C177.092 162.541 183.471 184.117 183.018 188.884C182.565 193.651 177.297 196.199 174.993 196.734C172.729 197.268 161.864 199.117 151.699 198.131C141.533 197.145 148.324 178.692 150.258 176.637C152.192 174.582 153.715 170.061 159.518 174.212C165.362 178.404 168.284 180.377 168.284 180.377" stroke="#1B1A1A" stroke-width="1.23467" stroke-miterlimit="10" stroke-linecap="round" stroke-linejoin="round"/>
<path d="M162.025 198.871C162.025 198.871 161.284 224.516 162.766 230.064C164.247 235.571 148.938 236.105 148.938 236.105" stroke="#1B1A1A" stroke-width="1.23467" stroke-miterlimit="10" stroke-linecap="round" stroke-linejoin="round"/>
<path d="M138.899 236.516C138.899 236.516 129.927 237.009 125.935 237.133C121.943 237.256 114 236.352 114 236.352" stroke="#1B1A1A" stroke-width="1.23467" stroke-miterlimit="10" stroke-linecap="round" stroke-linejoin="round"/>
<path d="M101.448 236.269C101.448 236.269 81.9816 235.982 78.7714 235.242C75.5613 234.502 74.7381 232.53 74.6147 224.844C74.4501 216.954 74.2031 204.624 74.2031 204.624" stroke="#1B1A1A" stroke-width="1.23467" stroke-miterlimit="10" stroke-linecap="round" stroke-linejoin="round"/>
<path d="M69.056 151.937C69.056 151.937 54.6104 168.376 60.6603 171.705C66.7102 175.034 72.76 179.062 80.8266 177.911" stroke="#1B1A1A" stroke-width="1.23467" stroke-miterlimit="10" stroke-linecap="round" stroke-linejoin="round"/>
<path d="M61.4849 172.733C61.4849 172.733 57.8632 178.24 57.1636 190.24C56.4228 202.241 57.0812 203.35 63.5015 203.72C69.9218 204.09 84.9025 206.022 92.8456 200.638C100.789 195.254 99.5128 193.158 99.7186 185.103C99.9244 177.048 98.237 174.911 90.0058 177.254C81.7747 179.596 77.8237 180.418 69.7984 188.185" stroke="#1B1A1A" stroke-width="1.23467" stroke-miterlimit="10" stroke-linecap="round" stroke-linejoin="round"/>
<path d="M87.3281 177.295C87.3281 177.295 91.8964 155.965 113.256 163.815C134.616 171.664 137.291 169.404 137.291 169.404" stroke="#1B1A1A" stroke-width="1.23467" stroke-miterlimit="10" stroke-linecap="round" stroke-linejoin="round"/>
<path d="M155.816 171.911C155.816 171.911 153.223 153.622 137.748 158.061C122.274 162.458 123.097 163.938 117.047 164.554" stroke="#1B1A1A" stroke-width="1.23467" stroke-miterlimit="10" stroke-linecap="round" stroke-linejoin="round"/>
<path d="M93.0547 201.624C93.0547 201.624 97.4995 213.132 101.368 234.091C105.237 255.051 113.591 239.722 114.703 232.078C115.814 224.392 125.074 198.131 132.688 212.885C140.672 228.379 137.585 249.667 144.252 243.585C151.66 236.845 153.389 211.858 152.113 198.665" stroke="#1B1A1A" stroke-width="1.23467" stroke-miterlimit="10" stroke-linecap="round" stroke-linejoin="round"/>
<path d="M121.156 194.597C121.156 194.597 122.103 200.391 126.342 200.186C130.581 199.98 129.47 193.446 129.47 193.446" stroke="#1B1A1A" stroke-width="1.23467" stroke-miterlimit="10" stroke-linecap="round" stroke-linejoin="round"/>
<path d="M118.356 187.637C119.191 187.537 119.721 186.232 119.54 184.722C119.358 183.212 118.534 182.069 117.699 182.169C116.864 182.269 116.334 183.574 116.516 185.084C116.697 186.594 117.521 187.737 118.356 187.637Z" fill="#1B1A1A"/>
<path d="M131.573 185.779C132.476 185.67 133.064 184.395 132.887 182.93C132.709 181.465 131.834 180.366 130.931 180.475C130.029 180.584 129.441 181.86 129.618 183.324C129.795 184.789 130.671 185.888 131.573 185.779Z" fill="#1B1A1A"/>
<path d="M109.722 181.363C109.722 181.363 107.294 173.514 111.945 172.651C111.945 172.651 106.883 172.609 104.66 165.541C104.66 165.541 108.488 173.76 102.891 175.856C102.932 175.897 107.624 174.294 109.722 181.363Z" stroke="#1B1A1A" stroke-width="1.23467" stroke-miterlimit="10" stroke-linecap="round" stroke-linejoin="round"/>
<path d="M79.4297 235.735C79.4297 235.735 83.9157 263.928 85.9734 274.655C88.0312 285.381 94.4515 311.067 95.5216 314.273C96.5916 317.478 91.8176 321.958 88.3193 324.794C84.8211 327.629 84.9857 329.273 89.8421 329.109C94.6985 328.944 112.725 328.328 114.7 328.451C116.676 328.575 116.923 327.588 116.141 321.095C115.359 314.601 113.383 274.326 122.026 261.216C122.026 261.216 127.582 272.148 127.746 286.984C127.911 301.82 127.541 325.657 127.541 325.657C127.541 325.657 126.635 330.26 130.669 330.136C134.702 330.013 154.621 330.876 154.621 330.876C154.621 330.876 163.099 331.739 158.943 327.711C154.786 323.684 145.773 317.93 145.773 317.93" stroke="#1B1A1A" stroke-width="1.23467" stroke-miterlimit="10" stroke-linecap="round" stroke-linejoin="round"/>
<path d="M144.703 322.369C144.703 322.369 149.683 293.477 151.412 281.189C153.14 268.901 158.82 249.749 160.095 234.502" stroke="#1B1A1A" stroke-width="1.23467" stroke-miterlimit="10" stroke-linecap="round" stroke-linejoin="round"/>
<path d="M99.7632 101.922L87.9103 103.607C85.8937 103.895 83.8771 103.114 82.6012 101.511L77.6214 94.853C76.3456 93.2502 76.0163 91.0721 76.7571 89.1816L79.638 81.784C80.3788 79.8524 82.1485 78.4962 84.1651 78.2086L96.018 76.5235C98.0346 76.2359 100.051 77.0167 101.327 78.6195L106.348 84.8663C107.624 86.4692 107.953 88.6473 107.212 90.5378L104.29 98.3463C103.549 100.278 101.821 101.634 99.7632 101.922Z" stroke="#1B1A1A" stroke-width="1.23467" stroke-miterlimit="10" stroke-linecap="round" stroke-linejoin="round"/>
<path d="M125.405 97.3188L137.094 94.8119C139.069 94.4009 140.674 92.9625 141.333 91.0309L143.884 83.4279C144.543 81.4963 144.09 79.3592 142.732 77.7975L137.464 71.8795C136.106 70.3177 134.007 69.6602 131.949 70.0712L120.261 72.5781C118.285 72.9891 116.68 74.4275 116.022 76.3591L113.47 83.9621C112.812 85.8937 113.264 88.0308 114.622 89.5925L119.89 95.5516C121.29 97.0722 123.389 97.7709 125.405 97.3188Z" stroke="#1B1A1A" stroke-width="1.23467" stroke-miterlimit="10" stroke-linecap="round" stroke-linejoin="round"/>
<path d="M107.369 87.6197C107.575 87.0444 107.863 86.5923 108.316 86.1813C108.727 85.7703 109.304 85.4004 110.003 85.2361C110.374 85.1539 110.703 85.1539 110.991 85.195C111.32 85.2361 111.608 85.3183 111.896 85.4415C112.184 85.5648 112.431 85.7292 112.678 85.9347C112.925 86.1402 113.09 86.3457 113.296 86.6334C113.46 86.9211 113.378 87.2909 113.09 87.4553C112.925 87.5375 112.761 87.5786 112.596 87.5375L112.39 87.4553C112.226 87.4142 112.02 87.2909 111.855 87.2498C111.649 87.1676 111.485 87.1265 111.32 87.0854C111.156 87.0443 110.95 87.0444 110.785 87.0033C110.621 87.0033 110.415 87.0033 110.332 87.0033C110.086 87.0444 109.756 87.1676 109.427 87.4142C109.098 87.6197 108.769 87.9074 108.439 88.1951L108.357 88.2773C108.11 88.4828 107.699 88.4417 107.493 88.1951C107.328 88.0718 107.287 87.8252 107.369 87.6197Z" fill="#1B1A1A"/>
<path d="M143.512 79.8934C143.347 79.318 143.265 78.7015 143.1 78.1673C142.976 77.633 142.812 77.1398 142.647 76.7699C142.565 76.6056 142.441 76.4823 142.4 76.4001C142.318 76.3179 142.277 76.2357 142.153 76.1946C141.906 76.0302 141.413 75.9891 140.795 75.948H140.754C140.384 75.9069 140.096 75.6192 140.137 75.2493C140.137 75.0849 140.219 74.9206 140.343 74.7973C140.631 74.5507 140.919 74.3452 141.33 74.1808C141.701 74.0164 142.153 73.9753 142.647 74.0164C143.141 74.0575 143.676 74.3041 144.047 74.6329C144.417 74.9617 144.705 75.3726 144.87 75.7425C145.199 76.5234 145.281 77.2631 145.24 77.9618C145.199 78.6604 145.075 79.318 144.787 79.9756C144.664 80.3043 144.293 80.4687 143.964 80.3043C143.758 80.2221 143.635 80.0577 143.594 79.8934H143.512Z" fill="#1B1A1A"/>
<path d="M75.7263 92.4693C75.3559 91.7706 75.1501 91.0309 74.9443 90.25C74.7797 89.4692 74.6562 88.6883 74.6562 87.8663C74.6562 87.4554 74.6974 87.0033 74.8209 86.5512C74.9443 86.0992 75.109 85.6471 75.4382 85.195C75.7675 84.7429 76.2613 84.3731 76.7964 84.2498C77.3314 84.0854 77.8664 84.1676 78.278 84.332C78.6072 84.4552 78.7718 84.8251 78.6484 85.1539C78.566 85.3594 78.4426 85.4827 78.278 85.5238L78.1956 85.5649C77.8664 85.6882 77.6606 85.8115 77.496 85.9348C77.3314 86.0581 77.2491 86.1813 77.1668 86.3868C77.0021 86.7567 76.8375 87.3321 76.7964 87.9896C76.7552 88.6472 76.7552 89.3048 76.7964 90.0034C76.8375 90.7021 76.8787 91.4418 76.9198 92.1405V92.1816C76.9198 92.5104 76.6729 92.8391 76.3025 92.8391C76.0555 92.8391 75.8086 92.6748 75.7263 92.4693Z" fill="#1B1A1A"/>
<path d="M78.8085 178.61L78.2734 181.076" stroke="#1B1A1A" stroke-width="1.23467" stroke-miterlimit="10" stroke-linecap="round" stroke-linejoin="round"/>
<path d="M106.752 115.361C107.534 115.854 108.357 116.347 109.18 116.799C110.003 117.251 110.867 117.662 111.732 118.032C112.596 118.402 113.46 118.689 114.365 118.895C115.271 119.1 116.135 119.183 116.999 119.1C117.452 119.059 117.823 118.936 118.234 118.813L118.81 118.566C119.016 118.484 119.181 118.361 119.386 118.237C120.127 117.785 120.786 117.169 121.444 116.47C122.062 115.772 122.638 115.032 123.132 114.251C123.667 113.47 124.119 112.648 124.531 111.826C124.654 111.621 124.901 111.539 125.107 111.621C125.313 111.703 125.395 111.95 125.313 112.155C124.572 114.004 123.626 115.689 122.309 117.21C121.65 117.95 120.909 118.648 120.045 119.224C119.839 119.347 119.592 119.511 119.386 119.635L118.687 119.964C118.193 120.128 117.658 120.292 117.123 120.292C116.094 120.375 115.065 120.251 114.077 120.005C113.131 119.758 112.184 119.429 111.279 118.977C109.509 118.155 107.863 117.128 106.34 115.895C106.175 115.772 106.175 115.566 106.299 115.402C106.381 115.278 106.587 115.237 106.752 115.361Z" fill="#1B1A1A"/>
<path d="M106.261 114.251C107.742 113.593 109.183 113.018 110.747 112.566C111.117 112.443 111.529 112.319 111.94 112.237C112.146 112.196 112.393 112.155 112.64 112.155C112.846 112.155 113.093 112.155 113.298 112.155C113.751 112.196 114.163 112.278 114.533 112.361C114.903 112.443 115.233 112.484 115.562 112.484C115.891 112.484 116.138 112.443 116.344 112.278C116.591 112.155 116.797 111.867 117.167 111.539C117.373 111.374 117.62 111.21 117.908 111.128C118.031 111.087 118.196 111.087 118.278 111.045C118.402 111.045 118.484 111.004 118.607 111.004C119.019 110.963 119.431 110.963 119.842 111.004C121.447 111.045 123.011 111.21 124.616 111.374C124.781 111.374 124.904 111.539 124.863 111.703C124.863 111.867 124.74 111.95 124.575 111.991C122.97 112.073 121.406 112.114 119.842 112.155C119.472 112.196 119.06 112.196 118.69 112.237L118.443 112.278C118.361 112.278 118.319 112.319 118.237 112.319C118.155 112.361 118.072 112.402 117.949 112.525C117.743 112.689 117.455 113.1 117.002 113.388C116.55 113.676 115.973 113.799 115.562 113.799C115.109 113.799 114.615 113.758 114.204 113.635C113.792 113.552 113.463 113.47 113.134 113.429C112.969 113.429 112.805 113.388 112.64 113.388C112.475 113.388 112.352 113.388 112.146 113.429C111.776 113.47 111.405 113.552 111.035 113.676C109.512 114.046 108.03 114.498 106.508 114.909C106.302 114.95 106.096 114.826 106.055 114.662C105.973 114.498 106.055 114.333 106.261 114.251Z" fill="#1B1A1A"/>
<path d="M104.203 149.513C107.578 155.184 107.454 156.705 108.607 161.883" stroke="#1B1A1A" stroke-width="1.23467" stroke-miterlimit="10" stroke-linecap="round" stroke-linejoin="round"/>
<path d="M131.939 141.005C131.939 141.005 129.387 155.061 130.21 160.609" stroke="#1B1A1A" stroke-width="1.23467" stroke-miterlimit="10" stroke-linecap="round" stroke-linejoin="round"/>
<path d="M119.022 218.885C119.022 218.885 120.627 236.886 114.289 236.311" stroke="#1B1A1A" stroke-width="1.23467" stroke-miterlimit="10" stroke-linecap="round" stroke-linejoin="round"/>
<path d="M130.297 209.474C130.832 222.789 129.186 236.763 135.359 236.763" stroke="#1B1A1A" stroke-width="1.23467" stroke-miterlimit="10" stroke-linecap="round" stroke-linejoin="round"/>
<path d="M118.32 151.485L119.349 163.28" stroke="#1B1A1A" stroke-width="1.23467" stroke-miterlimit="10" stroke-linecap="round" stroke-linejoin="round"/>
<path d="M124.492 210.09L125.315 236.393" stroke="#1B1A1A" stroke-width="1.23467" stroke-miterlimit="10" stroke-linecap="round" stroke-linejoin="round"/>
<path d="M87.944 227.351C87.944 227.351 83.4992 226.118 85.6804 222.132C87.8617 218.146 89.5079 214.324 90.6191 212.433C91.7303 210.543 93.4589 210.83 94.6524 211.775" stroke="#1B1A1A" stroke-width="1.23467" stroke-miterlimit="10" stroke-linecap="round" stroke-linejoin="round"/>
<path d="M151.656 228.461C151.656 228.461 156.225 227.762 154.537 223.57C152.85 219.378 152.973 219.789 152.109 217.776" stroke="#1B1A1A" stroke-width="1.23467" stroke-miterlimit="10" stroke-linecap="round" stroke-linejoin="round"/>
<path d="M143.508 75.4139L146.101 74.5098" stroke="#1B1A1A" stroke-width="2.37128" stroke-miterlimit="10" stroke-linecap="round" stroke-linejoin="round"/>
<path d="M74.7332 87.7024L71.0703 87.4143" stroke="#1B1A1A" stroke-width="2.37128" stroke-miterlimit="10" stroke-linecap="round" stroke-linejoin="round"/>
</svg>
