<svg width="245" height="346" viewBox="0 0 245 346" fill="none" xmlns="http://www.w3.org/2000/svg">
<path d="M95.0716 28.9737L91.4087 32.7136L85.7704 41.9605L81.9017 50.5499L78.28 60.5777L76.0165 71.0165L74.6172 83.1403L75.1934 99.1272L76.1399 101.634L77.992 103.607L83.5068 110.141L89.7213 116.429L97.7879 122.265L102.48 124.813L109.023 126.991L113.756 127.279L123.222 125.594L132.112 120.662L138.12 114.744L145.446 105.374L148.327 100.935L147.874 87.7843L146.434 75.8249L143.882 64.8519L142.606 60.7832L132.235 53.3446L121.576 46.9333L113.674 37.9741L111.081 34.152L105.114 30.8642L95.0716 28.9737Z" fill="#F8DABB"/>
<path d="M84.6172 77.6332L93.301 77.5099L96.3466 78.0853L96.0996 81.9074L94.1242 84.4143L92.4368 84.8253L88.7739 84.7431L86.7573 83.7978L84.9464 80.921L84.6172 77.6332Z" fill="#473326"/>
<path d="M127.125 72.1261L132.311 71.7973L137.661 71.7563L137.002 74.0988L136.632 76.277L135.438 78.7017L131.076 79.2771L128.401 77.7565L127.578 75.0852L127.125 72.1261Z" fill="#473326"/>
<path d="M94.6591 16.3568L92.3955 14.7951L87.0041 15.2472L81.2835 19.1925L75.4394 25.6038L69.8834 35.1795L64.5743 47.3032L61.9403 56.5091L61.1172 65.4272L61.323 78.9072L62.1872 93.6612L62.7223 108.415L63.5454 125.142L65.6032 137.964L69.6364 152.636L71.365 157.034L76.0567 160.527L82.1478 161.513L84.2467 160.363L84.329 156.951L81.7774 146.677L81.16 141.047L81.7774 137.389L84.2055 144.992L88.0742 156.417L89.8439 160.28L93.589 160.691L98.4866 158.472L101.82 156.253L102.52 152.554L99.8447 143.019L98.322 133.937L97.9104 125.923L98.4043 122.799L92.0663 118.443L83.8351 110.347L76.8798 101.757L75.1924 99.1272L74.6574 90.2091L74.6163 77.551L76.921 61.6874L80.9954 51.9062L85.7695 41.9606L92.2309 31.1108L95.0707 28.9737L97.1284 29.0148L101.203 29.7546L105.895 31.2341L110.586 33.4534L112.85 36.7823L117.254 42.988L124.291 48.7417L135.403 55.3995L143.676 62.0573L143.387 63.9477L145.898 73.6057L148.162 90.9488L148.532 101.716L147.091 102.703L144.869 106.566L138.449 114.58L131.576 120.498L129.106 122.512L131.699 125.964L134.662 130.197L138.49 136.115L139.972 138.293L140.754 141.581L141.782 144.992L142.235 148.444L144.087 150.951L147.503 152.266L150.425 153.088L152.483 150.869L156.763 144.54L159.15 138.786L161.661 131.348L163.595 122.265L165.2 108.415L166.064 93.4147L166.887 82.195L166.64 68.5507L164.418 53.2213L161.043 41.9606L154.376 29.4669L147.462 20.8775L139.725 14.5896L131.329 10.521L124.332 8.67157L114.249 8.42499L106.924 9.9456L100.627 11.9183L96.1819 14.6307L94.6591 16.3568Z" fill="#473326"/>
<path d="M66.2171 142.691L62.9658 147.869L58.9737 154.527L56.4632 159.171L55.8047 161.472L56.957 163.774L60.373 166.075L64.9824 169.198L70.2092 172.116L74.6129 173.884L78.2757 175.075L81.1978 175.486L78.605 198.337L77.6584 208.775L78.7696 213.008L79.8808 213.789L80.4981 232.982L81.0743 254.106L82.062 263.805L84.6137 278.436L87.9062 294.751L91.6925 303.341L93.2564 306.3L90.6636 309.752L82.6794 317.766L80.21 321.506L80.1277 323.52L83.4613 324.835L93.0506 325.369L105.068 323.972L110.377 321.999L111.9 320.191L112.476 309.547L114.904 277.408L117.456 260.558L119.966 254.435L122.024 252.873L123.629 253.859L125.193 257.27L127.457 270.052L127.663 280.778L128.321 295.573L128.65 318.711L128.733 321.752L130.461 324.177L135.153 325.287L145.977 325.78L159.97 324.342L162.192 323.191L162.275 321.424L158.488 317.478L149.228 305.396L147.088 301.861L147.788 298.039L150.586 282.258L156.019 247.654L157.212 239.146L157.377 225.666L156.842 214.529L155.484 210.419L154.373 200.967L153.138 174.048L153.673 171.993L157.048 170.801L161.822 166.938L166.884 162.006L170.917 156.828L172.028 153.129L170.547 148.937L159.147 138.786L157.871 142.485L155.36 146.965L150.422 153.088L146.306 152.225L142.314 149.307L141.861 144.211L138.98 136.279L134.165 129.745L131.819 137.636L128.28 144.376L124.288 149.184L120.09 150.622L115.151 149.472L108.607 145.567L99.0593 137.184L99.5532 141.499L102.105 151.979L102.228 155.225L100.5 157.732L94.2441 160.609L91.3221 160.691L89.3878 159.664L85.6014 149.636L82.1032 138.416L81.3624 139.814L81.5682 145.485L83.2967 153.581L84.4491 158.842L84.2433 160.363L82.1444 161.513L76.0533 160.527L71.4439 157.486L68.316 149.554L66.2171 142.691Z" fill="#4F6F81"/>
<path d="M48.1159 234.626L51.2437 238.777L55.6474 240.379L60.9153 241.407L65.4013 240.79L68.3233 238.489L73.1797 239.064L80.8758 239.968L80.7935 243.421L81.0816 254.106L81.5755 261.339L84.086 276.258L87.1726 290.765L82.9748 292.532L74.2498 295.162L65.5247 295.984L58.981 294.217L52.8899 289.162L47.2104 285.011L41.3252 283.491L34.4522 284.6L30.3778 287.642L28.8138 290.806L27.8261 292.82L25.5214 291.34L23.6694 284.97L23.2578 276.011L24.904 264.175L27.7438 252.832L30.9128 243.462L33.2587 237.585L35.1107 234.174L45.1115 235.16L48.1159 234.626Z" fill="#2E3840"/>
<path d="M114.125 285.381L117.788 287.395L124.332 289.409H128.036L127.83 280.244L126.677 264.915L124.332 254.681L122.027 252.873L120.792 253.572L118.57 256.777L116.759 265.367L114.125 285.381Z" fill="#2E3840"/>
<path d="M149.648 288.217L155.739 248.517L157.221 236.516L157.591 222.995L159.69 224.968L163.271 224.844L171.502 220.324L172.161 218.515L169.774 214.447L166.934 211.611L167.263 208.816L172.408 200.268L175.7 194.186L176.811 199.528L178.211 211.036L178.828 228.708L178.951 250.078L180.104 268.613L180.927 280.943L182.408 286.532L178.704 284.765L173.519 286.655L167.675 287.806L164.794 287.683L161.172 288.957L155.575 289.203L149.648 288.217Z" fill="#2E3840"/>
<path d="M92.5156 197.761L92.5979 179.432L94.3265 164.924L95.3142 163.65L108.854 162.458L110.83 162.5L112.97 166.938L118.156 173.473L118.979 173.432L120.46 170.966L121.901 163.445L122.395 160.65L124.699 160.321L141.203 162.089L143.796 163.116L144.043 165.459L144.495 180.172L144.948 192.336L145.483 199.981L145.318 201.789L144.084 202.898L142.108 202.816L134.577 201.912L133.466 200.186L131.284 190.24L130.132 189.131L129.144 189.829L127.91 191.597L126.716 196.158L125.728 201.172L123.835 202.94L117.909 203.679L113.299 203.186L111.447 201.008L109.184 191.514L107.99 188.761L106.92 190.281L106.673 195.624L106.509 202.035L105.685 203.474L103.587 204.46L98.1951 204.707L94.9027 203.761L92.9272 202.364L92.5156 197.761Z" fill="#ED2124"/>
<path d="M154.086 172.034L157.461 170.308L163.675 165.171L169.272 159.335L172.441 162.911L178.656 170.76L180.508 175.856L181.29 178.692L179.314 186.213L170.631 203.761L166.968 210.501L166.927 211.899L168.408 213.584L171.948 217.735L172.071 219.666L169.807 221.762L161.494 225.255L159.354 224.968L158.16 223.817L157.173 221.228L156.432 213.214L155.197 209.803L154.168 197.638L156.02 195.665L159.601 187.281L160.918 182.062L154.086 172.034Z" fill="#F8DABB"/>
<path d="M75.106 174.623C75.106 174.623 67.3687 171.911 61.1542 166.527C61.1542 166.527 59.8372 183.665 60.7427 186.007C61.7304 188.638 59.9607 203.926 59.0141 203.844C59.0141 203.844 55.2689 216.625 53.8285 220.036L49.3014 228.05L47.9844 234.502L50.783 238.612C50.783 238.612 55.3512 240.092 56.7505 240.914C58.1498 241.736 61.4834 240.996 61.4834 240.996C61.4834 240.996 63.9116 241.612 65.3932 240.914C66.8748 240.215 68.6445 237.42 68.6445 237.42L71.155 222.379L73.9125 212.022C73.9125 212.022 78.275 197.432 79.1393 190.61L79.4685 186.912C79.4685 186.912 80.7855 177.747 81.2382 176.185C81.6909 174.623 75.106 174.623 75.106 174.623Z" fill="#F8DABB"/>
<path d="M49.3011 228.379L38.3125 226.776L40.4526 222.091L42.3046 213.296L47.7783 212.474L56.0095 213.419L54.5279 218.269L49.3011 228.379Z" fill="#2E3840"/>
<path d="M72.5173 216.337L69.7188 231.05L80.3781 232.283L80.0077 218.187L72.5173 216.337Z" fill="#2E3840"/>
<path d="M78.0698 193.117L73.625 212.68L79.3868 214.077L77.6994 210.995L78.0698 193.117Z" fill="#2E3840"/>
<path d="M58.4009 164.883C58.4009 164.883 41.1567 195.706 42.7617 209.351C42.7617 209.351 55.9316 209.063 57.0839 210.337C57.0839 210.337 60.4998 198.172 60.6233 195.213C60.7468 192.254 61.1995 166.609 61.1995 166.609L58.4009 164.883Z" fill="#2E3840"/>
<path d="M57.0846 210.337C57.0846 210.337 43.4209 206.392 34.7782 211.734C26.1355 217.077 26.9586 219.748 26.9586 219.748L28.646 223.981L30.6214 224.968C30.6214 224.968 33.5846 212.885 42.6389 213.008C51.6932 213.132 56.0145 213.091 56.0145 213.091L57.0846 210.337Z" fill="#232323"/>
<path d="M73.3366 213.05L72.5547 216.789C72.5547 216.789 80.7035 216.995 85.5599 221.475C90.4163 225.995 93.0091 228.338 92.5975 233.311C92.186 238.283 96.9189 237.297 92.8033 223.612C92.8445 223.612 86.383 213.337 73.3366 213.05Z" fill="#232323"/>
<path d="M26.7895 221.639C26.7895 221.639 25.3079 231.913 27.3657 232.735C29.4234 233.557 46.0504 235.324 46.0504 235.324L48.3551 234.42L49.0959 228.625L42.8402 227.557C42.8402 227.598 25.9252 225.009 26.7895 221.639Z" fill="#4991CE"/>
<path d="M69.5931 230.845L91.8995 233.269C91.8995 233.269 95.6447 238.571 91.0764 241.284L68.0703 238.448L69.5931 230.845Z" fill="#4991CE"/>
<path opacity="0.81" d="M27.3674 232.735C27.3674 232.735 13.9918 278.682 24.2807 289.696C34.5285 300.669 46.3402 300.546 46.3402 300.546L69.7166 302.396C69.7166 302.396 89.0187 302.437 89.7183 294.053C90.3768 285.669 92.5169 240.626 92.5169 240.626L90.7472 241.119L68.1116 238.407C68.1116 238.407 66.5065 242.886 57.1642 240.873C47.8218 238.859 48.0276 234.749 48.0276 234.749L45.1467 235.119L27.3674 232.735Z" fill="#E2F4FD"/>
<path d="M98.5257 122.964L97.8672 126.005L98.9784 137.019C98.9784 137.019 111.325 150.499 120.009 150.376C128.693 150.253 133.755 132.005 134.084 129.663L128.652 122.594C128.652 122.594 120.297 127.32 116.675 127.402C113.054 127.484 107.58 127.074 105.687 126.169C103.835 125.265 98.5257 122.964 98.5257 122.964Z" fill="#E5C8AE"/>
<path d="M163.055 142.567C163.055 142.567 156.388 154.568 153.919 155.924C151.573 157.198 151.161 159.006 145.934 155.76C140.708 152.513 137.621 148.321 136.88 148.485C135.522 148.773 128.237 155.554 119.389 155.061C110.541 154.568 107.907 149.184 106.26 149.677C104.614 150.17 107.166 157.116 104.984 158.472C102.803 159.828 80.4557 170.637 71.6072 162.582C62.7587 154.527 63.4584 147.622 63.4584 147.622L66.1335 143.019L67.327 145.773L69.2613 153.006L71.8953 158.02L76.9163 160.856L82.39 161.76L84.5301 159.91L83.3366 151.938C83.3366 151.938 80.0441 140.143 81.7315 138.129L83.7893 143.225L88.4399 157.609L90.3742 160.568L94.7779 160.363L100.704 157.568L102.309 154.075L99.0169 136.978L100.951 138.786C100.951 138.786 113.257 150.746 120.047 150.335C126.838 149.924 130.131 142.403 134.123 129.622L137.991 134.635C137.991 134.635 142.436 142.978 141.86 145.526C141.284 148.074 143.753 151.116 143.753 151.116L150.215 153.129L152.684 150.705C152.684 150.705 158.734 142.732 159.145 139.403L163.055 142.567Z" fill="#44606C"/>
<path d="M147.956 102.004C147.956 102.004 140.342 114.909 129.312 122.594L129.518 123.868L132.605 127.69L137.955 134.677L141.083 141.745C141.124 141.745 149.396 118.525 147.956 102.004Z" fill="#33241E"/>
<path d="M98.5293 122.964C98.5293 122.964 78.8569 107.717 76.4699 101.388L76.1406 103.566C76.1406 103.566 85.8945 131.594 99.5171 141.745C99.5582 141.786 97.13 124.567 98.5293 122.964Z" fill="#33241E"/>
<path d="M148.409 99.4149C148.409 99.4149 152.113 91.483 152.977 85.8116C153.676 81.4142 149.767 68.9616 149.767 68.9616L143.141 62.0572L144.499 67.03L147.503 83.6334L148.409 99.4149Z" fill="#33241E"/>
<path d="M80.9089 106.443C80.9089 106.443 79.1803 54.2898 94.7783 32.5081C94.7783 32.5081 96.4246 29.3025 105.067 36.2069C113.71 43.1113 111.858 49.1526 123.258 54.1254C134.617 59.1393 139.556 64.6464 140.914 66.7423C142.272 68.8383 146.141 100.935 144.618 106.525L147.91 102.004L148.116 92.7571L146.923 79.9758L143.589 63.8244L143.095 62.0572L131.119 52.8103L121.818 47.0566L111.776 35.3438L107.578 31.8917L99.717 29.2203L95.1487 29.0148L92.7205 30.782L87.9876 37.7275L84.654 43.9743L79.0157 56.3447L76.8344 64.4409L74.5297 78.2497L74.4062 92.0995L75.6821 101.264L80.9089 106.443Z" fill="#E5C8AE"/>
<path d="M169.228 159.088C169.228 159.088 172.026 161.513 170.421 163.486C168.816 165.459 159.433 174.706 156.058 174.952L154 172.075C154 172.075 159.391 170.062 164.618 164.226C169.886 158.39 169.228 159.088 169.228 159.088Z" fill="#E5C8AE"/>
<path d="M61.6133 167.308C61.6133 167.308 58.6913 171.746 64.5354 173.431C70.3795 175.116 81.1211 182.021 81.3681 175.98C81.3681 175.98 72.5608 173.185 68.7744 171.623C64.9881 170.103 61.6133 167.308 61.6133 167.308Z" fill="#E5C8AE"/>
<path d="M155.367 210.337C155.367 210.337 144.995 219.296 118.779 219.42C92.563 219.543 98.4894 218.968 79.8047 213.83C80.3397 212.639 87.6654 219.502 91.2871 221.516C95.4439 223.817 94.8265 236.886 93.6742 239.393C93.098 240.667 97.5428 238.53 97.5016 236.105C97.5016 235.735 99.6829 225.995 100.341 224.803C101.247 223.159 126.599 222.79 134.295 222.502C140.262 222.255 156.807 219.173 156.313 213.296L155.367 210.337Z" fill="#44606C"/>
<path d="M107.992 322.451C107.992 322.451 110.05 244.489 123.343 246.339C136.637 248.188 134.661 325.122 134.661 325.122L131.039 324.424L128.817 322.328L128.488 306.464L127.582 273.257L125.648 258.873L123.673 253.654L122.191 252.709L120.38 253.983L117.87 259.86L115.318 274.285L113.342 295.738L111.943 319.451L111.161 321.711L108.075 323.068L107.992 322.451Z" fill="#44606C"/>
<path d="M156.476 195.172C156.476 195.172 156.929 205.899 159.069 210.789C161.209 215.721 160.057 224.927 160.057 224.927L157.34 223.242L156.888 216.337L155.735 211.077L154.583 206.515L154.336 197.268L156.476 195.172Z" fill="#E5C8AE"/>
<path d="M153.472 172.157L153.102 176.144L154.089 197.843L156.476 195.172L161.127 182.473L157.588 176.76L153.472 172.157Z" fill="#21282D"/>
<path d="M80.8298 240.503L81.3648 258.298L83.3403 270.298L86.8797 290.888L80.8709 292.943C78.5662 289.902 74.533 267.997 73.2571 251.846C72.7221 244.941 54.6136 244.489 49.5103 243.297C37.3694 240.42 32.4307 238.201 34.5708 234.379C34.7354 234.05 39.4271 234.461 46.5471 235.283C49.5514 235.653 53.7905 240.79 56.7125 241.119C62.9682 241.818 68.1538 239.393 68.1127 238.9C68.0715 237.955 75.2738 240.092 75.2326 239.475L80.8298 240.503Z" fill="#495357"/>
<path d="M117.748 287.436C117.748 287.436 119.189 261.709 123.098 261.997C127.008 262.284 126.267 289.409 126.267 289.409H128.119C128.119 289.409 127.255 253.531 122.481 253.037C117.707 252.544 114.291 278.97 114.25 285.504L117.748 287.436Z" fill="#21282D"/>
<path d="M171.58 210.378C171.456 208.734 174.708 204.172 175.942 202.611C177.177 201.049 175.86 194.761 175.86 194.761L175.531 194.021C175.531 194.021 172.115 200.391 168.987 205.981C165.859 211.57 166.394 210.912 169.934 214.611C173.473 218.31 171.498 220.57 171.498 220.57L162.237 225.255L159.398 224.927L157.422 222.831C157.422 222.831 157.34 229.242 157.546 229.735C157.546 229.735 157.546 229.735 157.587 229.776C157.381 232.735 156.64 244.078 156.023 248.311C155.323 253.161 152.895 268.161 152.895 268.161L149.273 288.299L156.435 288.957C156.435 288.957 164.913 235.119 164.089 227.557C167.547 226.119 171.58 224.269 174.049 222.872C178.988 220.036 171.703 212.022 171.58 210.378Z" fill="#21282D"/>
<path d="M79.8047 220.981C79.8047 220.981 88.7766 224.927 90.4229 232.9L93.0157 233.393C93.0157 233.393 94.0446 224.927 80.0516 218.269L79.8047 220.981Z" fill="#44606C"/>
<path d="M72.3116 216.502L69.7188 231.132L80.1723 231.79L80.09 218.146L72.3116 216.502Z" fill="#21282D"/>
<path d="M73.4609 212.885L80.1282 214.036C80.1282 214.036 76.383 213.378 77.4942 205.734C78.6466 198.09 79.017 192.994 79.017 192.994L77.5765 196.076L73.4609 212.885Z" fill="#21282D"/>
<path d="M57.58 165.828C57.58 165.828 54.5757 185.268 54.9872 189.254C55.3988 193.241 51.8594 209.063 51.8594 209.063L57.3331 209.967L60.0082 199.693C60.0082 199.693 61.4487 177.87 60.9548 175.527C60.4609 173.185 61.2429 166.692 61.2429 166.692L58.0739 164.678L57.58 165.828Z" fill="#21282D"/>
<path d="M42.0625 215.926C42.0625 215.926 46.2192 214.94 50.4583 215.721C51.2402 215.844 51.6518 216.666 51.3637 217.406C50.129 220.365 47.1658 227.269 46.0135 227.968L48.8944 228.42L51.0344 225.297L56.2612 213.666C56.2612 213.666 50.7875 210.83 42.3506 212.967L42.0625 215.926Z" fill="#21282D"/>
<path d="M94.0785 16.4801C94.0785 16.439 94.0373 16.3568 93.955 16.1924C93.8727 16.0691 93.7081 15.9458 93.5434 15.8225C93.173 15.6171 92.7615 15.4527 92.3088 15.3705C91.4033 15.165 90.4156 15.2061 89.469 15.3705C87.5347 15.6993 85.7239 16.6034 84.0776 17.713C82.4314 18.8227 80.9498 20.22 79.5505 21.6995C78.1924 23.179 76.9165 24.7818 75.7642 26.4668C74.6118 28.1518 73.5418 29.8779 72.554 31.6862C71.5663 33.4945 70.5786 35.3028 69.6731 37.1522C67.8623 40.8509 66.2984 44.6319 65.0225 48.4951C63.7879 52.3993 62.8824 56.3858 62.3886 60.4134C61.8947 64.4409 61.8535 68.5507 61.8535 72.6604C61.8947 76.7702 62.1416 80.8799 62.3474 84.9897L63.0471 97.36C63.294 101.47 63.4998 105.621 63.6232 109.771C63.6644 110.799 63.6644 111.867 63.7055 112.895V116.018C63.7055 118.073 63.829 120.087 63.9936 122.142C64.3229 126.21 64.9402 130.32 65.6399 134.348C66.3807 138.375 67.2449 142.403 68.315 146.389C68.85 148.362 69.4262 150.335 70.1258 152.266C70.4551 153.212 70.8255 154.157 71.237 155.061C71.4428 155.513 71.6898 155.965 71.8955 156.376C72.019 156.582 72.1425 156.787 72.2659 156.951C72.3482 157.034 72.3894 157.116 72.4717 157.198C72.554 157.28 72.6363 157.362 72.7186 157.445C74.0768 158.801 75.8465 159.746 77.7396 160.28C78.6862 160.527 79.6328 160.691 80.6205 160.691C81.5671 160.691 82.5549 160.568 83.3368 160.198C83.5838 160.075 83.5426 160.075 83.6249 159.993C83.6661 159.91 83.7484 159.746 83.7484 159.541C83.7895 159.13 83.7484 158.636 83.7072 158.184C83.5838 157.198 83.3368 156.212 83.0899 155.225C82.596 153.253 82.0198 151.239 81.5671 149.184C81.1144 147.129 80.744 145.074 80.5794 142.978C80.4148 140.882 80.4971 138.704 80.9909 136.608C81.0733 136.279 81.4025 136.074 81.7318 136.156C81.9375 136.197 82.1433 136.362 82.1845 136.567C83.9542 142.239 85.7239 147.91 87.5759 153.54L87.9463 154.568C88.0697 154.897 88.1932 155.266 88.3167 155.513C88.4401 155.801 88.4813 155.965 88.5224 156.171L88.6459 156.705C88.7282 157.034 88.8517 157.404 88.9752 157.691C89.2221 158.308 89.5513 158.883 90.004 159.335C90.4568 159.746 91.0329 159.993 91.6503 160.075C92.2676 160.157 92.9673 160.075 93.6258 159.91C93.955 159.828 94.2842 159.705 94.6546 159.623C94.9839 159.499 95.3543 159.376 95.6835 159.253C97.0417 158.76 98.3998 158.143 99.5522 157.362C100.128 156.951 100.622 156.499 100.951 155.965C101.322 155.431 101.528 154.814 101.569 154.157C101.651 153.499 101.569 152.801 101.404 152.143C101.281 151.444 101.034 150.787 100.828 150.047C100.005 147.129 99.4287 144.211 98.8937 141.293C98.3587 138.375 97.9059 135.416 97.5355 132.457C97.3709 130.978 97.2063 129.498 97.1651 127.978C97.124 127.238 97.124 126.457 97.124 125.717C97.124 125.347 97.1651 124.936 97.2063 124.567C97.2475 124.156 97.3298 123.786 97.4944 123.334C97.6179 123.005 97.9883 122.84 98.2764 122.964C98.6056 123.087 98.7702 123.457 98.6468 123.745V123.786C98.441 124.32 98.3998 125.06 98.3587 125.758C98.3175 126.457 98.3587 127.197 98.3998 127.937C98.4821 129.416 98.6056 130.854 98.7702 132.334C99.0995 135.252 99.5933 138.211 100.128 141.088C100.663 144.006 101.281 146.924 102.063 149.718C102.268 150.417 102.515 151.157 102.68 151.896C102.845 152.677 102.927 153.458 102.845 154.28C102.762 155.102 102.474 155.924 102.022 156.664C101.569 157.362 100.951 157.938 100.293 158.39C98.976 159.294 97.5767 159.91 96.1774 160.445C94.8193 160.938 93.2554 161.554 91.568 161.349C90.7449 161.267 89.8806 160.897 89.2221 160.321C88.5636 159.746 88.152 158.965 87.864 158.225C87.6993 157.856 87.617 157.486 87.4936 157.116L87.3701 156.582C87.3289 156.417 87.2466 156.212 87.2466 156.171C87.0408 155.76 86.9174 155.431 86.7939 155.061L86.4235 153.992C84.5303 148.321 82.8018 142.649 81.0321 136.978L82.2256 136.937C81.7729 138.869 81.7318 140.882 81.8964 142.896C82.061 144.91 82.4314 146.924 82.8841 148.896C83.3368 150.91 83.913 152.883 84.448 154.897C84.695 155.924 84.9419 156.91 85.1065 157.979C85.1888 158.513 85.23 159.089 85.1888 159.705C85.1477 160.034 85.0654 160.363 84.8596 160.732C84.7773 160.897 84.6127 161.061 84.4069 161.226C84.2011 161.39 84.0776 161.431 83.9542 161.472C82.8841 161.965 81.7317 162.13 80.6205 162.13C79.5093 162.13 78.4393 161.965 77.3692 161.678C75.2703 161.102 73.2948 160.034 71.6898 158.472C71.6074 158.39 71.484 158.267 71.4017 158.184C71.2782 158.061 71.1959 157.938 71.1136 157.814C70.949 157.568 70.7843 157.321 70.6197 157.116C70.3316 156.623 70.0847 156.171 69.8789 155.677C69.4262 154.691 69.0558 153.746 68.6854 152.759C67.9857 150.787 67.3684 148.773 66.8334 146.8C65.7222 142.773 64.8579 138.745 64.1171 134.635C63.3763 130.567 62.8001 126.416 62.4297 122.306C62.2651 120.251 62.1416 118.155 62.1005 116.059V112.977C62.0593 111.95 62.0593 110.922 62.0182 109.895C61.8947 105.785 61.6478 101.675 61.4008 97.5244L60.66 85.1541C60.4131 81.0032 60.1662 76.8935 60.125 72.7426C60.125 71.6741 60.125 70.6466 60.125 69.6192C60.125 68.5918 60.1662 67.5232 60.1662 66.4958C60.2485 64.3998 60.3719 62.3038 60.6189 60.249C61.1127 56.0981 62.0593 51.9884 63.3351 48.0019C64.611 44.0154 66.2572 40.1523 68.1092 36.4124C69.0146 34.563 70.0435 32.7136 71.0724 30.9053C72.1013 29.097 73.2125 27.3298 74.406 25.6038C76.8342 22.1927 79.6328 18.946 83.1722 16.5623C84.9419 15.3705 86.9585 14.4252 89.1398 14.0554C90.2098 13.891 91.3622 13.8499 92.4734 14.0964C93.0496 14.2197 93.5846 14.4252 94.1196 14.754C94.3666 14.9184 94.6546 15.1239 94.8604 15.4116C95.0662 15.6993 95.272 16.0691 95.2308 16.5623C95.1897 16.8911 94.9016 17.1377 94.5723 17.1377C94.2431 17.0966 93.9962 16.85 93.9962 16.5212L94.0785 16.4801Z" fill="black"/>
<path d="M95.1909 29.8779C94.9028 29.919 94.5736 30.1245 94.2443 30.4122C93.9151 30.6588 93.627 30.9875 93.2977 31.3163C92.7216 31.9739 92.1454 32.7136 91.6515 33.4534C90.6226 34.974 89.676 36.5768 88.7706 38.1796C87.8652 39.8235 87.0421 41.4674 86.219 43.1524C85.3958 44.8374 84.6139 46.5224 83.8319 48.2074C82.3092 51.6185 80.8687 55.0707 79.634 58.5229C79.3048 59.3859 79.0167 60.2901 78.7286 61.1531C78.4405 62.0162 78.1936 62.9203 77.9878 63.7423C77.6174 65.5506 77.247 67.3999 76.9589 69.2082C75.7654 76.5236 75.1892 83.9622 75.5596 91.3598C75.93 98.7162 77.1647 106.114 80.1279 112.936C80.2102 113.1 80.1279 113.306 79.9221 113.388C79.7575 113.47 79.5517 113.388 79.4694 113.224C78.5228 111.58 77.6997 109.854 77.0001 108.086C76.3004 106.319 75.7243 104.511 75.2304 102.662C74.2838 98.9628 73.7488 95.1819 73.5018 91.4009C73.2549 87.6199 73.2961 83.7979 73.543 80.058C73.7899 76.277 74.2015 72.5371 74.86 68.7973C75.1892 66.9479 75.5185 65.0574 75.93 63.2491C76.3827 61.3175 77.0001 59.5503 77.6586 57.742C79.0167 54.2076 80.4983 50.7554 82.1034 47.3444C83.7085 43.9333 85.3958 40.5633 87.3302 37.3166C88.2767 35.6727 89.3056 34.0699 90.4168 32.5492C90.993 31.7684 91.5692 31.0286 92.2688 30.33C92.5981 29.9601 92.9685 29.6313 93.3801 29.3436C93.7916 29.056 94.2855 28.7272 94.944 28.645C95.2732 28.6039 95.6025 28.8094 95.6436 29.1382C95.6848 29.4669 95.479 29.7546 95.1497 29.8368L95.1909 29.8779Z" fill="black"/>
<path d="M98.6106 69.4548C96.9232 70.1946 95.2358 69.948 93.5896 70.1124C91.9022 70.2357 90.256 70.359 88.5686 70.6055C86.9224 70.8521 85.2761 71.1398 83.6711 71.5919C82.066 72.044 80.5021 72.5782 79.0205 73.318C78.7324 73.4824 78.362 73.3591 78.1973 73.0303C78.0739 72.7426 78.1562 72.4138 78.4031 72.2494C79.8436 71.222 81.4898 70.4412 83.136 69.8247C84.7823 69.2082 86.5108 68.7973 88.2393 68.4685C89.9679 68.1397 91.6964 67.9342 93.4661 67.8109C94.3304 67.7287 95.1947 67.6876 96.1001 67.6876C96.9644 67.6876 97.8698 67.8109 98.7341 68.2219C99.0633 68.3863 99.1868 68.7973 99.0221 69.126C98.8987 69.2904 98.7752 69.4137 98.6106 69.4548Z" fill="black"/>
<path d="M120.297 66.2081C120.627 65.7149 120.997 65.5916 121.367 65.5505L122.52 65.345C123.302 65.2217 124.084 65.0984 124.866 65.0162C126.43 64.8519 127.994 64.7286 129.557 64.6875C131.121 64.6464 132.726 64.6875 134.29 64.8519C135.854 65.0573 137.459 65.345 138.941 65.8793C139.27 66.0026 139.435 66.3314 139.311 66.6601C139.188 66.9478 138.9 67.1122 138.612 67.0711C137.171 66.7834 135.648 66.5779 134.167 66.5368L133.056 66.4958C132.685 66.4958 132.315 66.4958 131.944 66.4958C131.574 66.4958 131.204 66.4958 130.792 66.5368C130.422 66.5368 130.051 66.5779 129.64 66.5779C128.117 66.6601 126.635 66.8245 125.113 67.03C124.372 67.1122 123.59 67.2355 122.849 67.3588L121.738 67.5643C121.367 67.6465 120.997 67.6876 120.544 67.3588L120.503 67.3177C120.133 67.1122 120.05 66.619 120.297 66.2081Z" fill="black"/>
<path d="M77.6154 79.8936C78.3151 79.1538 79.0559 78.6196 79.9201 78.1675C80.7433 77.7154 81.6487 77.3866 82.5541 77.099C84.365 76.6058 86.2581 76.3592 88.1101 76.4825C89.921 76.5647 91.7318 76.7702 93.5427 77.099C94.4481 77.2634 95.3124 77.4688 96.2178 77.7154C97.1232 77.962 97.9464 78.2086 98.8518 78.5785C99.181 78.7018 99.3045 79.0716 99.181 79.4004C99.0576 79.6881 98.7283 79.8525 98.3991 79.7703H98.3579C96.7528 79.236 94.9831 78.8662 93.2958 78.5785C91.5672 78.2908 89.7975 78.1675 88.069 78.0853C86.3404 78.0031 84.6531 78.2497 83.0068 78.7018C82.1837 78.9483 81.4018 79.2771 80.661 79.6059C80.2905 79.7703 79.9201 79.9758 79.5497 80.1813C79.1793 80.3868 78.8089 80.6333 78.5209 80.8388L78.4797 80.8799C78.1916 81.0854 77.8212 81.0032 77.6154 80.7155C77.3685 80.4279 77.4097 80.0991 77.6154 79.8936Z" fill="black"/>
<path d="M121.115 77.1811C121.197 76.8934 121.28 76.6879 121.403 76.4414C121.526 76.2359 121.609 75.9893 121.732 75.7838C121.979 75.3728 122.267 74.9619 122.555 74.592C123.173 73.8522 123.914 73.1947 124.695 72.6604C125.519 72.1261 126.383 71.7151 127.288 71.3864C127.741 71.222 128.194 71.0987 128.688 70.9754C129.14 70.8521 129.634 70.7699 130.087 70.7288C131.939 70.4822 133.791 70.4822 135.643 70.5644C137.454 70.6877 139.306 70.8521 141.075 71.4686C141.405 71.5919 141.569 71.9617 141.446 72.2494C141.364 72.496 141.117 72.6604 140.829 72.6604H140.787C139.018 72.6193 137.289 72.3727 135.519 72.2494C133.75 72.1261 132.021 72.1261 130.293 72.3316C129.428 72.4549 128.605 72.5782 127.823 72.8248C127.041 73.0714 126.259 73.4412 125.56 73.8522C124.86 74.3043 124.202 74.7975 123.625 75.4139C123.337 75.7016 123.09 76.0304 122.843 76.4003C122.72 76.5647 122.638 76.729 122.514 76.9345C122.432 77.0989 122.308 77.3044 122.267 77.4277V77.4688C122.144 77.7976 121.773 77.962 121.485 77.8387C121.197 77.8387 121.033 77.5099 121.115 77.1811Z" fill="black"/>
<path d="M127.254 73.0303C127.254 73.0303 126.637 79.8114 132.275 79.6059C137.914 79.4004 137.502 72.7015 137.173 72.5782" stroke="black" stroke-width="1.23467" stroke-miterlimit="10" stroke-linecap="round" stroke-linejoin="round"/>
<path d="M84.8152 78.0853C84.8152 78.0853 82.922 84.4965 89.8362 85.0719C96.7503 85.6472 96.2564 79.2771 96.2564 79.2771" stroke="black" stroke-width="1.23467" stroke-miterlimit="10" stroke-linecap="round" stroke-linejoin="round"/>
<path d="M103.874 107.223C106.137 107.922 108.565 108.415 110.952 108.662C113.34 108.908 115.768 108.908 118.072 108.539C119.225 108.333 120.377 108.045 121.447 107.634C122.517 107.223 123.546 106.689 124.534 106.073C125.48 105.456 126.345 104.634 127.127 103.812C127.909 102.99 128.567 102.045 129.431 101.141L129.473 101.1C129.719 100.853 130.09 100.812 130.378 101.059C130.543 101.223 130.625 101.47 130.543 101.716C130.46 102.045 130.337 102.333 130.213 102.621C130.09 102.908 129.966 103.237 129.761 103.484C129.596 103.771 129.431 104.059 129.267 104.306C129.061 104.552 128.855 104.84 128.649 105.086C127.785 106.073 126.797 106.977 125.686 107.675C124.575 108.415 123.423 108.991 122.188 109.443C120.953 109.854 119.678 110.182 118.402 110.347C115.85 110.717 113.298 110.593 110.788 110.265C109.553 110.1 108.319 109.813 107.084 109.525C105.849 109.196 104.656 108.826 103.462 108.374C103.133 108.251 103.009 107.881 103.133 107.552C103.215 107.265 103.544 107.1 103.874 107.223Z" fill="black"/>
<path d="M95.5597 28.3984C95.642 28.3573 95.7655 28.3162 95.8478 28.3162L96.0948 28.2751C96.2594 28.234 96.3829 28.234 96.5063 28.234C96.7533 28.234 97.0413 28.234 97.2883 28.2751C97.7821 28.3162 98.276 28.3984 98.7699 28.4806C99.7165 28.645 100.663 28.8504 101.61 29.097C103.503 29.5902 105.314 30.2478 107.083 31.0697C107.989 31.4807 108.853 31.9328 109.676 32.467C110.499 33.0013 111.322 33.6178 112.022 34.3575C112.392 34.7274 112.681 35.1384 112.969 35.5904C113.216 36.0014 113.462 36.3713 113.709 36.7412C114.244 37.522 114.779 38.2618 115.397 39.0015C117.743 41.9195 120.418 44.6319 123.299 47.0155C124.739 48.2074 126.262 49.317 127.867 50.0979C129.637 50.9198 131.324 51.9472 132.929 52.9747C136.139 55.0707 139.226 57.3721 142.189 59.838C143.671 61.0709 145.07 62.386 146.428 63.7422C147.786 65.1396 149.062 66.6191 150.091 68.3452L150.461 69.0027C150.585 69.2493 150.667 69.4548 150.791 69.7014C150.873 69.948 150.955 70.2356 151.038 70.4411L151.243 71.1398L151.984 73.8933C152.478 75.7427 152.931 77.5921 153.301 79.4826C153.713 81.3731 154.001 83.2636 154.165 85.1951C154.248 86.1404 154.289 87.1267 154.289 88.1131C154.289 89.0994 154.165 90.0446 154.001 91.031C153.96 91.2365 153.754 91.4009 153.548 91.3598C153.342 91.3187 153.178 91.1543 153.219 90.9488C153.384 89.0994 153.219 87.25 153.013 85.3595C152.766 83.5101 152.355 81.6608 151.943 79.8114C151.532 77.962 151.038 76.1537 150.544 74.3043L149.803 71.5508L149.597 70.8521C149.515 70.6466 149.474 70.4411 149.391 70.2356C149.309 70.0302 149.227 69.8247 149.144 69.6603L148.815 69.0849C147.91 67.5643 146.634 66.1259 145.358 64.8108C144.041 63.4957 142.642 62.2216 141.201 60.9887C138.321 58.5639 135.234 56.3036 132.106 54.2487C130.501 53.2213 128.937 52.2349 127.25 51.4541C125.439 50.5499 123.875 49.3581 122.393 48.1252C120.912 46.8923 119.512 45.5771 118.154 44.1798C116.796 42.7825 115.52 41.3852 114.327 39.8646C113.709 39.1248 113.133 38.344 112.598 37.522C112.31 37.111 112.063 36.7001 111.816 36.2891C111.61 35.9192 111.364 35.5904 111.034 35.2617C109.841 33.9876 108.236 33.0013 106.548 32.2204C104.861 31.4396 103.091 30.782 101.322 30.2889C100.416 30.0423 99.5107 29.8368 98.6053 29.6724C98.1525 29.5902 97.6998 29.508 97.2471 29.4669C97.0413 29.4669 96.7944 29.4258 96.5886 29.4258C96.5063 29.4258 96.3829 29.4258 96.3005 29.4258H96.1771H96.1359H95.8478C95.5186 29.4258 95.2716 29.1792 95.2716 28.8504C95.1893 28.7271 95.354 28.4806 95.5597 28.3984Z" fill="black"/>
<path d="M94.7813 15.1239C95.0282 14.7951 95.234 14.6307 95.4398 14.4252C95.6455 14.2608 95.8925 14.0965 96.0982 13.9321C96.551 13.6444 97.0037 13.3567 97.4564 13.069C98.3618 12.5347 99.3084 12.0827 100.255 11.6306C102.148 10.7676 104.124 10.0689 106.14 9.49353C110.132 8.3428 114.33 7.72634 118.487 7.76743C122.685 7.76743 126.842 8.46609 130.834 9.78121C134.826 11.0963 138.53 13.1101 141.905 15.576C145.279 18.0418 148.284 20.9597 150.959 24.1653C153.634 27.3299 155.98 30.782 157.996 34.4397C160.013 38.0563 161.659 41.9195 162.976 45.8237C164.293 49.7691 165.24 53.7967 165.898 57.9064C167.256 66.0848 167.503 74.3865 167.256 82.606C167.01 90.8255 166.269 99.045 165.61 107.223C165.446 109.278 165.281 111.292 165.158 113.347L164.911 116.429C164.787 117.457 164.705 118.484 164.581 119.512C164.088 123.621 163.347 127.69 162.277 131.676C161.207 135.663 159.807 139.608 157.996 143.348C157.091 145.198 156.062 147.047 154.91 148.773C154.334 149.636 153.716 150.499 153.058 151.321C152.399 152.143 151.741 152.924 150.918 153.705C150.959 153.705 151 153.746 151 153.828C151 153.869 150.959 153.91 150.877 153.91L150.424 153.869C149.56 153.787 148.736 153.664 147.913 153.458C147.09 153.253 146.308 153.006 145.526 152.677C144.744 152.349 144.004 151.896 143.304 151.321C142.645 150.746 142.028 150.006 141.699 149.143C141.534 148.732 141.411 148.28 141.37 147.828C141.328 147.335 141.328 147.006 141.287 146.595C141.287 146.184 141.246 145.814 141.205 145.403C141.164 145.033 141.123 144.622 141.04 144.252C140.793 142.732 140.258 141.211 139.641 139.773C139.312 139.033 138.941 138.334 138.612 137.636C138.201 136.937 137.83 136.238 137.419 135.581L136.801 134.553L136.143 133.567C135.69 132.909 135.237 132.252 134.785 131.594C132.933 128.964 130.957 126.416 128.941 123.909C128.735 123.662 128.776 123.251 129.023 123.046C129.27 122.84 129.681 122.882 129.887 123.128C131.904 125.676 133.879 128.224 135.772 130.896C136.225 131.553 136.719 132.211 137.172 132.909L137.83 133.937L138.489 134.964C138.941 135.663 139.312 136.362 139.723 137.101C140.094 137.841 140.505 138.54 140.835 139.321C141.493 140.841 142.028 142.403 142.316 144.088C142.398 144.499 142.44 144.91 142.481 145.321C142.522 145.732 142.563 146.143 142.563 146.554C142.604 147.417 142.563 148.074 142.851 148.732C143.345 150.047 144.621 150.992 146.02 151.568C147.419 152.184 148.983 152.513 150.506 152.677L150.053 152.842C150.753 152.184 151.412 151.403 152.029 150.622C152.646 149.842 153.222 149.02 153.799 148.157C154.91 146.472 155.898 144.704 156.762 142.855C158.531 139.197 159.89 135.334 160.919 131.43C161.947 127.485 162.688 123.457 163.182 119.429C163.306 118.402 163.388 117.416 163.511 116.388L163.717 113.347C163.841 111.292 164.005 109.237 164.17 107.182C164.828 99.0039 165.528 90.8255 165.775 82.6471C165.981 74.4687 165.734 66.2903 164.376 58.2352C163.059 50.2212 160.589 42.3304 156.679 35.2206C154.745 31.6451 152.44 28.3162 149.806 25.1928C147.214 22.0694 144.292 19.2336 141.04 16.85C137.789 14.4663 134.167 12.5347 130.34 11.2607C126.512 9.9456 122.479 9.28804 118.446 9.28804C114.413 9.24694 110.338 9.82231 106.469 10.9319C104.535 11.4662 102.601 12.1649 100.749 12.9868C99.8434 13.3978 98.938 13.8499 98.0326 14.343C97.5799 14.5896 97.1683 14.8362 96.7567 15.1239C96.551 15.2472 96.3452 15.4116 96.1806 15.5349C96.0159 15.6582 95.8102 15.8636 95.769 15.9458L95.7279 15.9869C95.5221 16.2746 95.1517 16.3157 94.8636 16.1513C94.6578 15.7814 94.6166 15.4116 94.7813 15.1239Z" fill="black"/>
<path d="M143.63 62.6326C144.618 65.4272 145.359 68.263 146.058 71.0987C146.717 73.9755 147.252 76.8113 147.705 79.7292C148.157 82.606 148.487 85.5239 148.734 88.4419L149.022 92.8393C149.063 94.3188 149.104 95.7572 149.145 97.2367C149.186 103.073 148.939 108.95 148.157 114.744L147.869 116.922C147.828 117.292 147.787 117.662 147.746 117.991L147.54 119.06L146.758 123.375C146.511 124.813 146.141 126.21 145.812 127.649L144.783 131.923C144.741 132.129 144.536 132.252 144.289 132.211C144.083 132.17 143.96 131.964 144.001 131.759V131.718L144.865 127.443C145.153 126.005 145.482 124.608 145.647 123.169L146.305 118.854L146.47 117.785C146.511 117.416 146.552 117.046 146.593 116.717L146.799 114.539C147.458 108.785 147.622 102.99 147.54 97.1956C147.499 91.4009 146.923 85.6472 146.141 79.8936C145.729 77.0167 145.194 74.181 144.618 71.3453C144.001 68.5096 143.301 65.7149 142.396 63.0025V62.9614C142.272 62.6326 142.478 62.3038 142.807 62.1805C143.178 62.1805 143.507 62.3449 143.63 62.6326Z" fill="black"/>
<path d="M76.6328 101.593C76.6328 101.593 93.4655 127.074 113.591 127.361C133.716 127.649 147.668 102.168 147.668 102.168" stroke="black" stroke-width="1.23467" stroke-miterlimit="10" stroke-linecap="round" stroke-linejoin="round"/>
<path d="M99.2656 137.184C99.2656 137.184 112.806 151.979 121.243 150.499C129.68 149.02 133.96 129.58 133.96 129.58" stroke="black" stroke-width="1.23467" stroke-miterlimit="10" stroke-linecap="round" stroke-linejoin="round"/>
<path d="M159.638 139.321C159.638 139.321 170.38 148.896 171.121 150.499C171.738 151.814 172.931 153.458 171.121 156.623C170.75 157.28 170.256 157.979 169.598 158.76C165.729 163.322 157.58 171.253 154.617 171.705" stroke="black" stroke-width="1.23467" stroke-miterlimit="10" stroke-linecap="round" stroke-linejoin="round"/>
<path d="M169.766 159.376C169.766 159.376 173.305 164.061 176.762 168.089C180.219 172.116 180.137 174.911 180.466 176.185C180.796 177.418 183.347 177.048 177.462 189.871C171.577 202.693 167.626 208.94 167.626 208.94C167.626 208.94 165.856 211.282 167.79 212.844C169.725 214.406 173.511 218.762 171.577 220.324C169.642 221.885 162.934 225.338 160.588 225.297C158.242 225.256 157.625 222.749 157.625 222.749" stroke="black" stroke-width="1.23467" stroke-miterlimit="10" stroke-linecap="round" stroke-linejoin="round"/>
<path d="M154.454 171.747L156.594 174.747L158.693 177.747C159.392 178.733 160.092 179.761 160.792 180.747C161.162 181.24 161.491 181.733 161.862 182.226L162.356 182.966C162.438 183.089 162.52 183.213 162.602 183.336C162.685 183.459 162.767 183.542 162.808 183.665L162.891 183.788C163.014 183.952 162.932 184.199 162.767 184.281C162.644 184.363 162.479 184.363 162.356 184.281C162.232 184.158 162.026 184.035 161.944 183.952C161.82 183.829 161.697 183.747 161.615 183.624C161.409 183.377 161.203 183.172 160.997 182.925C160.586 182.473 160.215 181.98 159.845 181.487C159.104 180.5 158.363 179.514 157.664 178.528C156.923 177.541 156.264 176.514 155.524 175.528C154.824 174.541 154.124 173.514 153.466 172.486C153.26 172.199 153.342 171.829 153.63 171.623C153.877 171.418 154.248 171.5 154.454 171.747Z" fill="black"/>
<path d="M160.791 182.884C160.791 182.884 157.005 194.926 155.07 197.104" stroke="black" stroke-width="1.23467" stroke-miterlimit="10" stroke-linecap="round" stroke-linejoin="round"/>
<path d="M152.148 159.047C153.754 162.13 153.054 173.76 153.054 173.76C153.054 173.76 153.918 206.762 155.4 209.885" stroke="black" stroke-width="1.23467" stroke-miterlimit="10" stroke-linecap="round" stroke-linejoin="round"/>
<path d="M65.8078 142.978C65.8078 142.978 57.9059 156.006 56.7535 158.225C55.6012 160.486 55.0662 162.417 57.3709 163.856C59.6756 165.294 70.3349 174.295 80.665 175.404" stroke="black" stroke-width="1.23467" stroke-miterlimit="10" stroke-linecap="round" stroke-linejoin="round"/>
<path d="M82.7598 167.185C82.7598 167.185 79.7554 185.555 79.3027 190.569C78.85 195.583 77.3684 207.625 77.5742 209.474C77.78 211.282 78.068 213.296 81.484 214.488C84.8999 215.68 95.3946 218.803 102.309 219.337C109.223 219.872 144.987 219.913 155.4 210.46" stroke="black" stroke-width="1.23467" stroke-miterlimit="10" stroke-linecap="round" stroke-linejoin="round"/>
<path d="M80.5772 240.462C80.8653 249.339 81.2769 258.216 81.7296 261.545C82.7173 269.107 87.903 297.464 90.3723 301.204C92.8417 304.944 93.9117 306.3 93.0063 307.574C92.1008 308.848 80.7419 318.177 79.9599 322.205C79.178 326.232 93.8294 325.081 93.8294 325.081C93.8294 325.081 111.032 324.794 111.732 320.191C112.432 315.588 114.037 253.448 122.021 252.914C130.005 252.339 127.865 318.752 128.647 321.588C129.429 324.424 131.816 325.081 136.59 325.369C141.323 325.698 165.934 326.561 161.819 321.177C157.744 315.834 146.838 304.163 147.208 301.163C147.579 298.204 154.699 258.997 156.551 242.311C157.744 231.461 157.333 214.241 155.645 210.46" stroke="black" stroke-width="1.23467" stroke-miterlimit="10" stroke-linecap="round" stroke-linejoin="round"/>
<path d="M80 218.146C80 218.146 80.1235 224.064 80.3292 231.626" stroke="black" stroke-width="1.23467" stroke-miterlimit="10" stroke-linecap="round" stroke-linejoin="round"/>
<path d="M110.832 162.417C110.832 162.417 95.687 162.828 94.5758 164.308C93.4646 165.828 90.666 201.213 93.9584 203.309C97.2509 205.405 106.264 205.693 106.593 202.035C106.922 198.378 106.141 189.583 107.828 188.679C109.515 187.775 109.968 202.529 113.631 203.309C117.294 204.09 125.36 203.844 125.936 200.761C126.471 197.679 127.871 189.254 130.217 189.377C132.521 189.501 132.11 201.953 135.402 202.159C138.695 202.364 145.938 205.077 145.691 199.981C145.444 194.884 144.415 179.884 144.498 172.034C144.58 164.185 144.95 162.13 139.641 161.842C134.332 161.554 126.266 160.773 124.29 160.527C122.726 160.363 122.15 160.363 121.656 164.801C121.121 169.651 119.763 173.637 118.693 173.719C117.582 173.76 110.915 164.308 110.832 162.417Z" stroke="black" stroke-width="1.23467" stroke-miterlimit="10" stroke-linecap="round" stroke-linejoin="round"/>
<path d="M86.7944 290.724C86.7944 290.724 65.5581 302.519 54.4049 290.518C43.2517 278.518 30.1642 285.011 28.9706 290.107C27.7771 295.203 26.1309 291.751 26.1309 291.751C17.9409 278.6 29.0118 245.886 34.9794 234.256" stroke="black" stroke-width="1.23467" stroke-miterlimit="10" stroke-linecap="round" stroke-linejoin="round"/>
<path d="M115.07 285.833C115.07 285.833 119.968 289.491 126.512 289.409" stroke="black" stroke-width="1.23467" stroke-miterlimit="10" stroke-linecap="round" stroke-linejoin="round"/>
<path d="M150.582 288.053C152.27 288.34 153.998 288.505 155.727 288.587C157.455 288.628 159.184 288.587 160.871 288.34C161.694 288.217 162.559 288.052 163.34 287.806C164.122 287.559 164.904 287.231 165.563 286.778C166.221 286.326 166.798 285.751 167.168 285.052C167.538 284.354 167.744 283.573 167.744 282.792C167.785 282.587 167.744 282.381 167.744 282.176C167.744 281.97 167.703 281.765 167.703 281.559L167.538 280.244L167.168 277.655L166.427 272.477C166.18 270.75 165.974 268.983 165.892 267.216C165.851 266.312 165.851 265.449 165.933 264.545C166.057 263.641 166.263 262.736 166.798 261.956C166.88 261.873 167.003 261.832 167.086 261.914C167.168 261.956 167.209 262.079 167.168 262.161C166.921 262.983 166.798 263.805 166.715 264.627C166.633 265.449 166.633 266.312 166.715 267.175C166.839 268.901 167.086 270.627 167.333 272.353L168.156 277.532L168.567 280.121L168.773 281.436C168.814 281.641 168.814 281.888 168.855 282.134C168.897 282.381 168.897 282.587 168.897 282.833C168.897 283.778 168.691 284.724 168.238 285.587C167.785 286.45 167.127 287.189 166.345 287.724C165.563 288.258 164.699 288.669 163.834 288.957C162.97 289.244 162.065 289.45 161.2 289.573C159.431 289.861 157.62 289.902 155.85 289.861C154.08 289.779 152.311 289.655 150.541 289.327C150.212 289.285 149.965 288.957 150.047 288.628C150.13 288.299 150.212 288.011 150.582 288.053Z" fill="black"/>
<path d="M167.25 287.683C167.25 287.683 172.024 288.135 176.51 285.628C180.955 283.121 182.971 288.628 182.971 288.628C182.971 288.628 180.955 284.23 180.873 279.792C180.79 275.353 178.239 246.873 178.856 235.694C179.473 224.475 177.333 198.254 175.769 194.597" stroke="black" stroke-width="1.23467" stroke-miterlimit="10" stroke-linecap="round" stroke-linejoin="round"/>
<path d="M36.2578 269.97C36.2578 269.189 36.3401 268.408 36.5047 267.627C36.6282 266.846 36.7928 266.106 36.9575 265.326C37.2867 263.805 37.616 262.284 37.9864 260.805C38.7272 257.805 39.5091 254.805 40.4557 251.846C41.3611 248.887 42.39 245.969 43.5012 243.051C44.6536 240.174 45.9294 237.338 47.3287 234.585C47.411 234.42 47.6168 234.338 47.7814 234.42C47.8637 234.461 47.946 234.544 47.946 234.667C48.6457 238.037 49.1807 241.448 49.6334 244.9C50.045 248.311 50.3742 251.763 50.5388 255.216C50.6212 256.942 50.7035 258.668 50.7035 260.394C50.7035 262.12 50.7035 263.846 50.6212 265.572C50.58 267.298 50.4565 269.024 50.2919 270.75C50.2096 271.613 50.1273 272.477 50.0038 273.34C49.8804 274.203 49.8392 275.066 49.3865 275.888C49.263 276.093 49.0161 276.175 48.8103 276.052C48.6868 276.011 48.6045 275.888 48.6045 275.764C48.3988 274.86 48.6457 274.038 48.728 273.175C48.8515 272.312 48.9338 271.49 49.0161 270.627C49.1807 268.942 49.3042 267.216 49.3865 265.531C49.5511 262.12 49.51 258.668 49.3865 255.257C49.263 251.846 49.0161 248.393 48.6457 244.982C48.2753 241.571 47.8637 238.16 47.2464 234.79L47.8637 234.872C46.5467 237.667 45.3121 240.462 44.242 243.379C43.1308 246.256 42.1842 249.174 41.2788 252.133C40.4145 255.092 39.6326 258.051 38.9329 261.051C38.6037 262.531 38.2744 264.052 37.9864 265.572C37.6571 267.093 37.4925 268.613 37.0398 270.093C36.9575 270.298 36.7517 270.422 36.5459 270.339C36.3401 270.298 36.2578 270.134 36.2578 269.97Z" fill="black"/>
<path d="M92.1406 240.503C93.2518 240.79 96.1739 231.338 94.1161 228.379" stroke="black" stroke-width="1.23467" stroke-miterlimit="10" stroke-linecap="round" stroke-linejoin="round"/>
<path d="M74.4062 213.173C82.8432 213.543 97.9473 221.844 93.1733 233.722" stroke="black" stroke-width="1.23467" stroke-miterlimit="10" stroke-linecap="round" stroke-linejoin="round"/>
<path d="M56.9126 210.008C47.5291 208.529 41.8084 209.145 37.0755 210.871C28.1036 214.2 25.84 219.79 27.692 222.625C29.9556 226.077 42.3023 227.598 48.9695 228.379" stroke="black" stroke-width="1.23467" stroke-miterlimit="10" stroke-linecap="round" stroke-linejoin="round"/>
<path d="M73.6641 216.584C82.1833 216.995 94.1185 225.461 92.7192 233.886" stroke="black" stroke-width="1.23467" stroke-miterlimit="10" stroke-linecap="round" stroke-linejoin="round"/>
<path d="M30.7422 223.899C31.7711 224.064 32.265 209.227 55.4768 213.296" stroke="black" stroke-width="1.23467" stroke-miterlimit="10" stroke-linecap="round" stroke-linejoin="round"/>
<path d="M26.8658 221.022C26.8658 221.022 24.6846 232.653 27.7301 232.982C30.7756 233.311 46.6617 236.105 47.7318 234.955" stroke="black" stroke-width="1.23467" stroke-miterlimit="10" stroke-linecap="round" stroke-linejoin="round"/>
<path d="M61.1484 166.733C61.1484 166.733 60.778 189.501 60.7369 194.638C60.1195 200.022 58.3087 207.748 55.6335 215.474C54.1931 219.666 51.2299 224.557 50.5714 225.708C49.1309 228.297 48.6782 229.653 48.102 232.448C47.9786 233.105 46.5381 239.557 59.1318 241.284C59.1318 241.284 67.2806 242.845 68.5564 237.05C69.8323 231.256 70.82 220.611 72.0547 217.981C72.0547 217.981 74.8533 207.789 76.0879 202.734C76.4172 201.419 81.397 175.158 81.397 175.158" stroke="black" stroke-width="1.23467" stroke-miterlimit="10" stroke-linecap="round" stroke-linejoin="round"/>
<path d="M70.2451 231.05L91.893 233.064C91.893 233.064 93.4158 234.091 93.1689 237.092C92.8808 240.092 91.7696 241.366 90.7407 241.242C89.7118 241.119 68.8047 238.53 68.8047 238.53" stroke="black" stroke-width="1.23467" stroke-miterlimit="10" stroke-linecap="round" stroke-linejoin="round"/>
<path d="M27.405 232.365C27.405 232.365 15.3463 272.682 22.5898 286.655C29.8332 300.628 48.806 300.957 55.5966 301.45C62.3873 301.943 88.7682 305.19 89.9205 292.655C91.0729 280.162 92.7603 244.571 92.6368 239.722" stroke="black" stroke-width="1.23467" stroke-miterlimit="10" stroke-linecap="round" stroke-linejoin="round"/>
<path d="M58.4012 164.883C58.4012 164.883 44.2436 187.775 42.6797 208.816" stroke="black" stroke-width="1.23467" stroke-miterlimit="10" stroke-linecap="round" stroke-linejoin="round"/>
<path d="M42.3848 213.255C42.3437 216.214 40.2036 224.516 38.3516 226.571" stroke="black" stroke-width="1.23467" stroke-miterlimit="10" stroke-linecap="round" stroke-linejoin="round"/>
</svg>
