<svg width="245" height="346" viewBox="0 0 245 346" fill="none" xmlns="http://www.w3.org/2000/svg">
<path d="M85.6905 127.156L77.2947 136.731L69.3105 145.444L64.2484 155.76L60.1328 166.527L60.8736 169.281L64.1249 172.24L73.6319 174.829L87.1721 174.993L92.4401 172.486L93.5924 174.541L98.2842 176.596L105.98 178.034L108.902 180.541L110.055 184.774L109.355 189.049L105.322 192.542L96.6791 195.09L86.5136 195.789L77.3771 194.473L75.3604 193.693L75.4839 210.501L76.1012 230.886L76.5128 232.776L78.2413 231.708L80.4226 231.79L82.4392 236.27L86.1432 237.667L94.4978 238.653L117.175 235.735L138.534 234.913L165.45 232.817L178.085 231.215L183.394 229.899L182.406 225.913L183.929 223.57L185.699 223.653L185.123 217.529L181.336 195.994L177.92 198.295L172.447 196.61L170.512 195.871L164.998 199.076L158.66 197.186L153.886 191.843L152.486 188.103L154.05 183.418L149.564 179.761L148.165 176.884L148.906 174.377L151.91 174.336L157.137 177.623L161.87 171.746L168.167 170.555L181.378 167.472L188.374 162.047L189.033 158.102L181.954 145.855L174.998 137.882L159.977 127.443L155.491 131.635L146.971 135.786L140.839 137.389L137.012 148.896L132.814 151.362L127.587 151.691L118.204 149.184L109.314 143.923L105.445 139.444L104.005 134.101L96.3498 132.087L85.6905 127.156Z" fill="#B05A7A"/>
<path d="M68.9775 96.9079L64.2857 91.9351L60.0878 91.3186L59.6351 92.4694L56.3015 92.9625L54.4083 97.771L54.3672 102.127L56.5073 104.881L59.5528 106.895L65.1088 108.539L68.4836 107.593L69.8829 110.306L77.7848 120.703L83.4231 124.649L88.6087 129.005L93.8355 131.43L99.7619 132.704L103.26 133.649C105.194 134.224 104.001 136.115 105.565 138.54C107.211 141.088 109.763 143.677 110.133 143.8C110.339 143.882 118.776 149.8 123.344 150.622C126.801 151.239 131.781 152.924 138.284 148.321C141.782 145.855 144.292 142.937 145.568 141.047C147.667 137.841 148.079 135.293 148.079 135.293L156.022 131.265L160.425 126.95L163.348 120.95L165.364 114.662L168.574 101.552L170.015 91.6063L170.509 82.8937L170.879 70.3178L169.974 62.6326L166.105 54.3309L161.331 47.221L153.758 44.5908L143.14 43.1935L136.72 42.8236L135.403 42.1249L131.987 41.6728L129.6 41.5906L125.608 41.5085L120.834 42.0016L118.405 42.8236L99.8031 49.6047L87.6622 57.2488L85.7278 53.8377L84.5343 53.2212L81.2007 58.2762L77.2498 68.0985L75.4389 82.8115L76.0974 94.2777L75.9739 95.9216L71.8172 97.4833L68.9775 96.9079Z" fill="#E8D2A6"/>
<path d="M60.0472 91.9351L58.8125 69.989L60.0472 54.9885L61.1995 48.5361L64.8624 39.9879L68.4018 34.4397L69.7599 36.0836L70.4596 38.5905L72.7231 38.1385L77.7853 32.5081L86.7161 24.0831L95.8526 18.3295L101.368 16.028L102.355 18.9459L102.479 22.8091L103.425 23.5078L108.117 21.3296L117.418 18.0007L124.991 15.5348L133.304 14.2608L138.12 15.0828L139.848 15.7403L138.696 20.261L136.473 23.5078L131.905 27.412L127.789 30.6587L121.493 32.8369L118.406 35.5082L117.83 39.7413L118.365 42.8647L103.919 47.8375L90.667 54.7008L87.6627 57.2488L85.4403 53.0158L83.8763 53.5911L82.0655 56.7556L77.8676 66.167L76.1802 76.3181L75.2748 85.976L75.8921 92.8393L76.3448 94.812L74.534 96.3737L70.295 97.4833L67.661 95.5928L65.274 92.4283L62.2284 91.442L60.0472 91.9351Z" fill="#4C341F"/>
<path d="M118.365 42.8647L117.789 38.9193L119.271 34.3164L123.551 32.3026L128.572 30.3711L130.959 27.9052L136.021 24.4119L138.943 19.6035L139.849 16.439L140.63 18.5761L140.795 22.768L140.095 28.1518L140.178 29.6724L141.618 29.3025L146.598 26.0969L150.672 22.4392L151.866 24.6996L152.319 28.1518L153.018 29.097L154.582 27.7819L156.805 24.3297L157.792 20.672L158.451 17.0966L160.303 22.2338L162.566 27.0422L164.707 31.193L166.641 37.8919L165.571 46.769L163.554 49.6047L159.727 46.8101L152.73 44.5908L140.384 43.0291L136.062 42.6592C135.939 42.0017 124.456 40.6865 118.365 42.8647Z" fill="#4C341F"/>
<path d="M108.9 88.0554C109.082 83.5649 107.517 79.8554 105.405 79.7701C103.293 79.6847 101.433 83.2558 101.251 87.7463C101.069 92.2369 102.634 95.9463 104.746 96.0317C106.858 96.117 108.718 92.5459 108.9 88.0554Z" fill="#4C341F"/>
<path d="M150.519 83.4025C150.701 78.912 149.302 75.2092 147.394 75.1321C145.487 75.055 143.793 78.6328 143.611 83.1234C143.429 87.6139 144.828 91.3166 146.736 91.3937C148.643 91.4708 150.337 87.893 150.519 83.4025Z" fill="#4C341F"/>
<path d="M63.8302 171.746L73.6253 174.829L86.1366 174.952L91.528 172.938L92.4334 172.486L94.0385 175.363L97.4956 176.473L104.862 177.747L108.896 181.076L110.377 185.72L108.566 190.24L103.422 193.405L94.7793 195.336L83.3792 195.665L73.3372 192.994L67.4519 187.816L65.106 182.884L63.7891 177.623L63.8302 171.746Z" fill="#E8D2A6"/>
<path d="M162.566 171.253L157.627 177.87L153.635 184.199L152.977 189.09L154.211 193.035L159.232 197.556L163.759 199.405L168.698 197.309L177.053 190.199L181.744 185.802L187.506 175.61L190.058 168.623L189.276 163.609L188.041 162.664L183.596 166.445L179.481 167.966L173.061 169.938L162.566 171.253Z" fill="#E8D2A6"/>
<path d="M82.5625 236.927L85.4022 244.037L89.0239 266.353L92.0695 282.34L95.8558 297.423L99.9302 313.533L100.342 318.752L97.0905 322.574L93.9626 325.41L94.7857 326.314L101.124 327.917L112.277 328.41L121.66 326.849L124.418 325.04L125.941 311.478L131.291 280.408L135.036 270.504L138.411 268.161L141.909 268.778L147.095 273.792L151.951 283.491L153.885 291.751L156.766 318.958L157.96 325.698L163.104 329.027L174.093 330.794L183.188 329.725L184.999 328.328L183.065 324.383L179.32 320.191L179.525 307.451L181.665 283.696L183.312 252.832L183.394 229.9L175.574 231.831L157.795 233.598L100.712 237.42L94.4977 238.653L82.5625 236.927Z" fill="#B05A7A"/>
<path d="M177.055 190.199L179.318 188.227L180.306 189.295L181.006 192.83L178.824 191.802L177.055 190.199Z" fill="#B05A7A"/>
<path d="M84.698 241.407L79.8004 242.763L75.8906 242.968V247.613L78.4423 255.174L81.1586 261.38L83.4633 263.065L88.3197 262.695L85.3976 243.914L84.698 241.407Z" fill="#85CFC3"/>
<path d="M182.773 230.146L184.173 230.516L185.572 232.653L191.54 233.105L191.992 242.311L191.169 252.051L190.14 253.942L186.395 253.859L183.144 251.476L182.773 230.146Z" fill="#85CFC3"/>
<path d="M75.8903 242.969L71.0339 236.639L70.8281 234.379L73.2152 232.735L76.6311 236.187L79.6354 240.914L77.2073 232.653L79.6354 231.502L81.7755 234.626L84.5741 241.078L81.899 242.475L75.8903 242.969Z" fill="#F7C6DC"/>
<path d="M186.027 232.817L182.734 227.105L183.228 224.721L185.451 224.064L186.809 230.31L188.578 227.105L190.019 224.187L191.583 224.639L192.036 227.804L189.319 232.037L194.217 226.982L195.904 228.872L195.369 230.721L191.789 233.393L186.027 232.817Z" fill="#F7C6DC"/>
<path d="M171.453 195.583L177.174 190.528L181.495 194.391L179.725 197.597L177.174 198.748L171.453 195.583Z" fill="#85CFC3"/>
<path d="M154.007 183.048L148.492 178.61L148.904 174.377H152.814L157.341 177.829L154.007 183.048Z" fill="#85CFC3"/>
<path d="M102.352 193.446L108.648 190.734L108.607 200.104L106.714 201.008L103.01 200.515L102.352 193.446Z" fill="#85CFC3"/>
<path d="M102.148 177.089L102.725 170.514L105.729 168.418L107.993 170.637L108.363 175.815L108.116 179.35L102.148 177.089Z" fill="#85CFC3"/>
<path d="M112.766 158.677C114.039 158.677 115.07 157.647 115.07 156.376C115.07 155.105 114.039 154.075 112.766 154.075C111.493 154.075 110.461 155.105 110.461 156.376C110.461 157.647 111.493 158.677 112.766 158.677Z" fill="white"/>
<path d="M85.8499 126.827C85.8499 126.827 77.9068 134.266 78.483 135.005C86.0557 144.088 113.424 157.856 128.693 156.91C140.669 156.171 164.169 141.334 171.001 135.005C171.083 134.923 160.342 127.731 160.342 127.731L155.527 131.759L148.118 135.334L143.303 144.047L134.084 151.362L126.635 151.896L111.778 145.978L104.411 136.69L104.205 134.348L94.3691 131.265L88.3604 128.348L85.8499 126.827Z" fill="#9F496C"/>
<path d="M104.203 134.307L117.496 136.32H119.225C125.892 137.43 133.341 137.718 141.202 137.43L148.116 135.293C148.116 135.293 146.758 140.307 143.301 144.006C139.844 147.663 137.375 149.102 135.44 150.294C133.547 151.444 127.785 152.02 127.785 152.02L117.743 149.184L109.018 143.965L104.985 138.293L104.203 134.307Z" fill="#D6BF9A"/>
<path d="M82.2734 236.763L84.7839 241.407L85.5247 244.119C85.5247 244.119 121.454 237.872 136.969 238.037C152.485 238.16 174.833 236.722 182.529 238.325L183.023 229.9L173.639 232.283L157.218 233.886L134.541 235.407L112.07 236.681L90.7927 238.612L84.002 237.297L82.2734 236.763Z" fill="#9F496C"/>
<path d="M75.2734 193.98L75.3558 201.09C75.3558 201.09 86.7559 203.515 94.2874 203.803C101.819 204.09 102.56 207.584 102.477 208.899C102.436 210.255 102.395 211.529 105.111 211.652C107.828 211.776 109.474 210.954 109.474 208.282C109.474 205.652 112.149 201.296 111.943 197.761C111.737 194.227 110.379 186.377 110.379 186.377L108.815 189.912L108.898 194.597L108.857 200.268L106.963 201.008L103.63 200.638L102.601 199.898L102.395 193.898L96.3452 195.172L87.9906 195.747L78.2778 195.008L75.2734 193.98Z" fill="#9F496C"/>
<path d="M102.391 193.857L105.477 192.871L108.811 189.953L108.893 194.638C108.893 194.638 105.395 197.186 103.008 197.104L102.391 193.857Z" fill="#7EBDB0"/>
<path d="M177.258 190.24L180.056 187.651L181.373 193.528L177.258 190.24Z" fill="#9F496C"/>
<path d="M180.792 196.282L182.562 200.145C182.562 200.145 175.812 209.926 170.338 209.392C164.865 208.858 160.214 205.734 159.761 204.337C159.391 202.898 160.05 198.46 160.05 198.46L164.988 199.076L167.746 198.049L171.162 195.706L174.495 198.008L178.035 198.707L180.792 196.282Z" fill="#9F496C"/>
<path d="M171.211 195.665L176.767 190.528L179.73 192.46C179.73 192.46 175.45 197.268 174.256 197.227C173.104 197.227 171.211 195.665 171.211 195.665Z" fill="#7EBDB0"/>
<path d="M120.381 326.766C120.381 326.766 118.694 261.298 138.037 260.394C157.38 259.49 165.776 309.341 166.27 329.356L162.607 328.575L158.491 325.903L156.886 320.643L154.252 295.162L152.441 284.313L146.721 273.299L142.029 268.613L138.613 268.49L135.321 269.887L133.427 274.901L130.011 286.244L127.542 303.3L124.743 321.958L123.715 325.492L120.381 326.766Z" fill="#9F496C"/>
<path d="M113.302 44.5086C113.302 44.5086 108.857 34.4808 116.965 31.5218C123.591 29.0971 130.628 24.2476 132.974 22.5215C133.468 22.1927 133.962 21.8639 134.538 21.6584C136.061 21.042 139.353 19.3159 139.477 15.6171L138.53 20.9598L136.76 23.2201L133.715 25.8504L130.134 29.2615L126.101 31.0697L121.451 33.0835L118.446 35.385L117.952 38.5906L118.446 42.6181L113.302 44.5086Z" fill="#382619"/>
<path d="M150.958 22.6448L152.275 25.7682L152.357 28.7683C152.357 28.7683 150.67 43.0702 137.582 42.7825C137.582 42.7825 136.595 42.2894 134.29 42.0017C131.985 41.714 128.116 41.5085 126.923 41.6318C125.729 41.6729 151.575 31.8506 150.711 26.2202L150.958 22.6448Z" fill="#382619"/>
<path d="M119.277 136.649C114.215 136.197 109.235 135.499 104.255 134.471C101.786 133.937 99.3164 133.361 96.8882 132.622C96.2708 132.457 95.6947 132.252 95.0773 132.005L94.1719 131.718L93.2665 131.389C92.6492 131.142 92.073 130.937 91.4968 130.649L89.7683 129.827C87.4635 128.635 85.4469 127.156 83.3891 125.594C81.3725 124.032 79.4382 122.347 77.6273 120.58C75.8165 118.813 74.0879 116.964 72.4828 114.95C72.1124 114.457 71.7009 113.963 71.3305 113.429C71.0012 112.895 70.5897 112.402 70.2604 111.867C69.5608 110.799 68.8611 109.689 68.3673 108.497C68.2438 108.169 68.3673 107.799 68.6965 107.634C69.0258 107.47 69.3962 107.634 69.5608 107.963C70.0135 109.032 70.6308 110.141 71.3305 111.169C71.6597 111.703 72.0301 112.196 72.3594 112.689C72.7298 113.183 73.1002 113.676 73.4706 114.169C74.9933 116.1 76.6807 117.991 78.4504 119.758C80.2201 121.525 82.0721 123.169 84.0476 124.731C85.9819 126.252 88.0397 127.772 90.221 128.923L91.9083 129.745C92.4845 129.991 93.0607 130.238 93.6369 130.485L94.5012 130.813L95.3654 131.101C95.9828 131.307 96.5178 131.553 97.1351 131.718C99.5222 132.457 101.95 133.115 104.42 133.608C109.317 134.635 114.297 135.416 119.318 135.91C119.483 135.91 119.606 136.074 119.606 136.238C119.606 136.567 119.442 136.649 119.277 136.649Z" fill="black"/>
<path d="M69.2292 106.36C69.2292 106.36 67.7475 109.114 63.4674 108.128C58.611 107.018 56.3063 104.922 54.5366 101.511C53.5077 99.5382 54.3308 91.3187 60.5865 92.3873" stroke="black" stroke-width="1.29991" stroke-miterlimit="10" stroke-linecap="round"/>
<path d="M60.9563 104.141C60.5859 103.936 60.2567 103.689 59.9686 103.442C59.6805 103.196 59.3924 102.867 59.1866 102.497C58.6928 101.799 58.3635 100.853 58.487 99.867C58.5281 99.3327 58.7339 98.8806 59.022 98.4697C59.2689 98.0998 59.5982 97.7299 59.9274 97.4833C60.6271 96.9491 61.3679 96.6203 62.1087 96.497C62.4379 96.4148 62.8083 96.6203 62.8906 97.0313C62.9318 97.2778 62.8495 97.5655 62.6849 97.6888C62.1498 98.1409 61.656 98.5108 61.2856 98.9628C60.9152 99.4149 60.7094 99.7848 60.6682 100.155C60.6271 100.525 60.7505 101.018 60.9563 101.593C61.1621 102.127 61.5325 102.662 61.8206 103.237L61.8617 103.319C62.0264 103.607 61.9029 104.059 61.6148 104.223C61.3679 104.223 61.1621 104.223 60.9563 104.141Z" fill="black"/>
<path d="M63.943 99.7992C63.9632 99.3003 63.6298 98.8817 63.1983 98.8643C62.7668 98.8468 62.4006 99.2372 62.3804 99.7361C62.3601 100.235 62.6936 100.654 63.1251 100.671C63.5566 100.689 63.9228 100.298 63.943 99.7992Z" fill="black"/>
<path d="M121.25 42.0428C121.25 42.0428 104.046 47.4677 101.083 49.1116C98.1612 50.7555 89.5596 54.9063 88.2426 56.7146C86.9257 58.564 86.6376 52.5637 84.7444 53.1802C82.8101 53.7967 77.1717 66.2081 76.8425 70.4001C76.8425 70.4001 73.8793 89.3049 76.3075 93.7024C76.3075 93.7024 77.1717 95.2641 74.9905 96.2504C72.8092 97.2367 70.5868 97.771 69.4345 97.1546C68.3233 96.5381 65.4835 91.8941 63.9196 91.7708C63.9196 91.7708 61.121 91.1954 60.0098 91.4009C60.0098 91.4009 58.8986 72.4549 58.9809 69.8658C59.0632 67.3178 59.804 52.3994 60.7506 49.6869C61.6972 47.0567 65.6893 36.8645 67.5825 34.7685C69.4756 32.6314 69.6814 37.0289 69.6814 37.0289C69.6814 37.0289 69.846 40.5633 73.0973 37.2755C76.3486 33.9877 81.3285 27.9052 84.4975 25.4394C87.6665 22.9735 98.2846 16.6034 99.8897 16.2335C101.536 15.8637 102.4 16.3157 102.194 20.0556C101.989 23.7955 102.4 23.9599 104.746 22.8502C107.092 21.7817 124.377 13.8499 133.72 14.4252" stroke="black" stroke-width="1.29991" stroke-miterlimit="10" stroke-linecap="round"/>
<path d="M118.451 42.2894C118.451 42.2894 116.105 36.0015 120.756 33.4534C125.406 30.9054 127.176 32.0561 129.81 29.1382C132.444 26.1791 138.494 25.1106 139.77 15.8637C139.77 15.8637 141.786 18.5761 140.84 23.7133C139.893 28.8505 138.658 31.193 142.939 28.6861C147.219 26.1381 150.676 22.2338 150.676 22.2338C150.676 22.2338 152.569 24.8229 152.281 27.9052C151.993 30.9876 157.302 26.0559 157.755 20.9187C158.125 15.8226 157.467 13.1101 157.467 13.1101C157.467 13.1101 160.306 25.0695 163.681 29.0971C168.373 34.7274 166.233 46.8923 164.01 48.865" stroke="black" stroke-width="1.29991" stroke-miterlimit="10" stroke-linecap="round" stroke-linejoin="round"/>
<path d="M136.238 42.0839C140.519 42.125 144.799 42.4127 149.079 43.0702C151.219 43.399 153.318 43.81 155.417 44.4264C156.446 44.7141 157.516 45.084 158.504 45.495C159.491 45.9059 160.479 46.3991 161.467 47.0567C161.961 47.3444 162.372 47.7142 162.784 48.1252C162.99 48.2896 163.154 48.5773 163.36 48.7828C163.566 48.9883 163.689 49.2348 163.854 49.4403C164.471 50.3034 165.047 51.2075 165.624 52.1528C166.735 54.0022 167.764 55.9337 168.628 57.8653C169.492 59.838 170.274 61.8518 170.809 63.9478C170.85 64.1943 170.933 64.482 170.974 64.7697C171.015 65.0163 171.015 65.3451 171.056 65.5917L171.138 67.1945C171.18 68.263 171.221 69.3315 171.262 70.4001C171.344 74.6742 171.303 78.9072 171.138 83.2225C171.056 85.3596 170.892 87.4555 170.768 89.6337C170.686 90.7022 170.562 91.7708 170.48 92.8393L170.315 94.4421L170.11 96.0449C169.616 100.278 168.834 104.47 167.928 108.662L167.146 111.785C167.023 112.32 166.899 112.813 166.694 113.347L166.2 114.868C165.624 116.964 164.759 118.895 164.019 120.909V120.95C163.484 121.977 163.113 123.21 162.578 124.32C162.043 125.43 161.385 126.539 160.644 127.567C159.08 129.539 157.146 131.142 155.005 132.498L153.4 133.444C152.865 133.731 152.289 134.019 151.713 134.266C150.602 134.841 149.408 135.252 148.297 135.704C147.145 136.156 145.951 136.485 144.799 136.855L141.218 137.841C141.054 137.882 140.848 137.8 140.766 137.595C140.724 137.43 140.807 137.225 141.013 137.142L144.552 136.156C145.704 135.786 146.898 135.375 148.009 135.005C149.12 134.512 150.314 134.142 151.384 133.567C151.96 133.32 152.495 133.033 153.03 132.745L154.594 131.841C156.611 130.526 158.545 129.005 160.026 127.074C160.726 126.128 161.385 125.101 161.837 123.95C162.372 122.882 162.702 121.69 163.278 120.539V120.58C164.019 118.607 164.842 116.635 165.418 114.621L165.912 113.1C166.076 112.566 166.2 112.114 166.364 111.58L167.105 108.497C168.011 104.347 168.751 100.196 169.245 95.9627L169.41 94.401L169.533 92.7982C169.616 91.7708 169.739 90.6611 169.822 89.6337C169.945 87.4966 170.11 85.4007 170.151 83.2636C170.315 79.0305 170.357 74.7975 170.233 70.5234C170.192 69.4959 170.151 68.3863 170.11 67.3588L170.027 65.7971C169.986 65.5506 169.986 65.2629 169.945 65.0574C169.904 64.8108 169.863 64.5642 169.78 64.3176C169.286 62.345 168.505 60.3312 167.64 58.4407C166.776 56.5502 165.788 54.6597 164.677 52.8514C164.101 51.9473 163.566 51.0842 162.949 50.2212C162.825 50.0157 162.66 49.7691 162.455 49.6047C162.29 49.4403 162.167 49.2348 161.961 49.0705C161.632 48.7417 161.22 48.4129 160.808 48.1252C159.985 47.5498 159.039 47.0978 158.092 46.6868C157.146 46.3169 156.158 45.947 155.129 45.7005C153.153 45.1251 151.054 44.7552 148.914 44.4264C144.758 43.81 140.519 43.5223 136.28 43.5223C135.95 43.5223 135.621 43.2346 135.621 42.8647C135.58 42.4127 135.868 42.0839 136.238 42.0839Z" fill="black"/>
<path d="M91.163 75.6195C91.5334 74.9619 91.945 74.4687 92.3565 73.8934C92.8092 73.3591 93.2619 72.8659 93.7558 72.3728C94.7436 71.4275 95.8548 70.5645 97.0483 69.8658C98.2418 69.1672 99.5176 68.5507 100.876 68.1808C101.205 68.0986 101.534 67.9753 101.863 67.8931L102.892 67.6877C103.592 67.5644 104.292 67.4411 105.032 67.8109C105.403 68.0164 105.568 68.5096 105.321 68.8795C105.279 68.9206 105.238 69.0028 105.197 69.0439L105.115 69.085C104.827 69.3727 104.497 69.537 104.209 69.5781C103.921 69.6603 103.592 69.6603 103.304 69.7014L102.399 69.8658C102.11 69.9069 101.781 70.0302 101.493 70.1124C100.876 70.2768 100.341 70.4823 99.7234 70.7289C99.4353 70.8522 99.1472 70.9755 98.8591 71.0987C98.571 71.222 98.2829 71.3453 98.036 71.5508C96.966 72.1673 95.8548 72.8659 94.9082 73.6879L94.1674 74.3044C93.9616 74.5098 93.6735 74.7564 93.4677 74.9619C93.015 75.414 92.6035 75.9072 92.1919 76.3592L92.1507 76.4003C91.945 76.6469 91.4923 76.688 91.2453 76.4825C90.9984 76.2359 90.9572 75.9072 91.163 75.6195Z" fill="black"/>
<path d="M139.849 59.9613C140.549 59.3859 141.208 59.4681 141.866 59.5092C142.195 59.5092 142.525 59.5503 142.854 59.5914L143.842 59.7147C145.2 59.9202 146.476 60.3312 147.71 60.7832C148.369 61.0298 148.904 61.3586 149.521 61.6463C149.809 61.8107 150.097 61.9751 150.385 62.1805C150.509 62.2627 150.673 62.3449 150.838 62.4271L151.208 62.7148C152.278 63.4957 153.225 64.482 154.131 65.4683C154.336 65.7149 154.295 66.167 154.048 66.3725C153.801 66.578 153.431 66.5369 153.225 66.3725L153.184 66.3314C152.237 65.5505 151.332 64.7286 150.262 64.1532L149.891 63.9477C149.768 63.8655 149.645 63.8244 149.521 63.7423L148.698 63.3724C148.122 63.1669 147.628 62.8792 147.011 62.7148C145.899 62.3449 144.706 62.0162 143.512 61.8518L142.607 61.7285C142.319 61.6874 141.99 61.6874 141.701 61.6463C141.413 61.6052 141.084 61.6463 140.796 61.5641C140.508 61.523 140.179 61.3997 139.891 61.1942L139.767 61.112C139.438 60.8654 139.397 60.3312 139.685 60.0435C139.808 60.0435 139.808 60.0024 139.849 59.9613Z" fill="black"/>
<path d="M109.284 88.1206C109.478 83.3352 107.702 79.3778 105.317 79.2815C102.932 79.1851 100.842 82.9863 100.648 87.7717C100.454 92.557 102.23 96.5144 104.615 96.6108C106.999 96.7071 109.09 92.9059 109.284 88.1206Z" stroke="black" stroke-width="1.29995" stroke-miterlimit="10.0002" stroke-linecap="round"/>
<path d="M150.113 83.3027C150.291 78.9029 149 75.2781 147.228 75.2065C145.457 75.1349 143.876 78.6437 143.698 83.0435C143.52 87.4433 144.811 91.068 146.583 91.1396C148.354 91.2112 149.935 87.7025 150.113 83.3027Z" stroke="black" stroke-width="1.29995" stroke-miterlimit="10.0002" stroke-linecap="round"/>
<path d="M120.961 111.744C122.442 113.265 124.13 114.662 125.899 115.566C126.352 115.772 126.805 116.018 127.299 116.142C127.793 116.306 128.204 116.388 128.698 116.429C129.192 116.47 129.603 116.47 130.097 116.429C130.591 116.388 130.962 116.265 131.497 116.1C133.431 115.484 135.242 114.498 136.476 112.977C136.806 112.648 137.094 112.196 137.341 111.785C137.588 111.333 137.835 110.922 138.04 110.429C138.411 109.484 138.699 108.497 138.864 107.388C138.905 107.223 139.028 107.1 139.234 107.141C139.357 107.182 139.481 107.265 139.481 107.388C139.81 109.648 139.357 112.114 137.917 114.087C137.217 115.073 136.312 115.936 135.324 116.594C134.336 117.292 133.225 117.744 132.114 118.114C131.579 118.279 130.962 118.443 130.303 118.484C129.645 118.566 128.986 118.525 128.41 118.402C127.134 118.196 126.023 117.703 125.035 117.046C124.047 116.429 123.142 115.648 122.36 114.826C121.578 114.005 120.878 113.1 120.261 112.114C120.138 111.909 120.22 111.58 120.426 111.456C120.508 111.539 120.796 111.58 120.961 111.744Z" fill="black"/>
<path d="M85.3227 127.443C85.3227 127.443 68.4489 145.485 66.8438 149.842C65.2387 154.198 59.4769 163.404 60.4647 168.664C61.4524 173.925 87.7921 177.993 92.4427 172.486C92.4427 172.486 92.7308 176.349 101.703 177.171C110.634 177.993 110.098 184.774 110.098 184.774C110.098 184.774 111.374 192.336 99.6449 194.597C87.9567 196.898 77.7501 195.378 72.6056 192.419C67.4611 189.46 63.2221 181.528 63.8395 172.692" stroke="black" stroke-width="1.29991" stroke-miterlimit="10" stroke-linecap="round"/>
<path d="M102.195 176.103C102.195 176.103 102.36 171.993 102.648 171.294C102.895 170.596 104.788 168.294 105.694 168.335C106.558 168.377 108.081 169.815 108.163 171.911C108.245 174.048 108.081 178.528 108.081 178.528" stroke="black" stroke-width="1.29991" stroke-miterlimit="10" stroke-linecap="round"/>
<path d="M108.658 190.651L108.782 199.035C108.782 199.035 109.234 201.131 106.107 200.926C102.979 200.72 102.649 200.309 102.691 198.83C102.732 197.35 102.773 194.227 102.773 194.227" stroke="black" stroke-width="1.29991" stroke-miterlimit="10" stroke-linecap="round"/>
<path d="M105.114 167.842L105.319 165.171C105.36 164.719 105.36 164.226 105.525 163.691C105.649 163.198 105.854 162.746 106.184 162.294C106.266 162.212 106.348 162.089 106.431 162.006L106.677 161.76C106.842 161.595 106.966 161.472 107.13 161.267C107.418 160.979 107.748 160.609 108.036 160.28L108.9 159.253L109.353 158.719C109.476 158.554 109.641 158.39 109.641 158.102C109.682 157.65 110.093 157.404 110.505 157.445C110.958 157.486 111.205 157.897 111.163 158.308C111.122 158.595 110.958 158.842 110.67 158.924C110.423 159.006 110.299 159.171 110.135 159.376L109.682 159.91L108.818 160.938C108.529 161.267 108.2 161.637 107.912 161.965C107.748 162.13 107.624 162.294 107.418 162.5C107.336 162.582 107.254 162.664 107.213 162.705C107.171 162.787 107.089 162.828 107.048 162.911C106.842 163.198 106.719 163.609 106.554 163.938C106.472 164.308 106.472 164.678 106.431 165.13L106.348 167.842C106.348 168.171 106.06 168.5 105.69 168.5C105.36 168.5 105.031 168.212 105.031 167.842C105.114 167.842 105.114 167.842 105.114 167.842Z" fill="black"/>
<path d="M115.192 156.617C115.25 155.188 114.174 153.985 112.788 153.929C111.403 153.873 110.233 154.986 110.175 156.415C110.117 157.843 111.193 159.047 112.579 159.103C113.964 159.159 115.134 158.046 115.192 156.617Z" stroke="black" stroke-width="1.29995" stroke-miterlimit="10.0002" stroke-linecap="round"/>
<path d="M104.953 134.923C104.953 135.046 104.953 135.252 104.995 135.457C105.036 135.622 105.036 135.827 105.077 136.033C105.159 136.403 105.242 136.814 105.365 137.142C105.488 137.512 105.612 137.882 105.859 138.252C106.023 138.622 106.229 138.992 106.435 139.321C107.258 140.718 108.369 141.951 109.604 143.061C112.073 145.321 115.078 146.924 118.082 148.321C119.605 149.061 121.21 149.636 122.774 150.17C124.379 150.664 126.025 151.033 127.671 151.239C129.318 151.403 131.005 151.403 132.61 150.992C134.215 150.622 135.656 149.801 136.767 148.609C136.89 148.485 137.137 148.444 137.302 148.609C137.425 148.732 137.466 148.979 137.302 149.143C136.108 150.458 134.503 151.362 132.816 151.814C131.128 152.307 129.359 152.349 127.63 152.143C125.902 151.979 124.214 151.568 122.568 151.116C120.922 150.581 119.317 150.006 117.753 149.307C114.625 147.91 111.497 146.266 108.904 143.965C107.587 142.814 106.394 141.499 105.447 139.978C105.242 139.608 104.953 139.197 104.789 138.827C104.583 138.458 104.46 138.006 104.254 137.636C104.13 137.184 103.966 136.773 103.883 136.321C103.801 135.827 103.719 135.457 103.719 134.882C103.719 134.553 104.007 134.225 104.377 134.225C104.665 134.266 104.953 134.553 104.953 134.923C104.953 134.882 104.953 134.882 104.953 134.923Z" fill="black"/>
<path d="M160.635 128.101C160.635 128.101 170.265 133.074 177.179 140.677C184.176 148.28 189.444 157.239 189.197 159.828C188.95 162.417 184.217 166.979 178.249 168.5C172.282 170.02 166.767 171.541 158.906 171.418" stroke="black" stroke-width="1.29991" stroke-miterlimit="10" stroke-linecap="round"/>
<path d="M188.497 162.911C188.497 162.911 191.255 166.486 189.567 171.048C187.88 175.61 183.6 183.459 181.46 185.843C179.32 188.227 170.224 197.063 166.314 198.707C162.363 200.35 158.618 197.556 156.931 195.912C155.243 194.309 151.169 191.186 153.68 184.939C156.149 178.651 162.322 172.034 162.322 172.034" stroke="black" stroke-width="1.29991" stroke-miterlimit="10" stroke-linecap="round"/>
<path d="M177.425 190.816L180.759 193.487C180.759 193.487 182.652 194.515 180.182 196.857C177.713 199.2 177.013 198.994 174.174 197.35C171.334 195.706 171.375 195.706 171.375 195.706" stroke="black" stroke-width="1.29991" stroke-miterlimit="10" stroke-linecap="round"/>
<path d="M156.89 177.582C156.89 177.582 153.433 174.664 152.569 174.5C151.704 174.336 149.893 173.678 149.194 174.5C148.494 175.322 148 177.788 148.906 178.898C149.811 180.007 153.639 182.678 153.639 182.678" stroke="black" stroke-width="1.29991" stroke-miterlimit="10" stroke-linecap="round"/>
<path d="M134.621 168.089L136.514 163.363L136.473 163.445C136.514 163.28 136.555 163.198 136.638 163.075C136.72 162.952 136.802 162.869 136.926 162.787C137.131 162.623 137.502 162.541 137.749 162.541C138.284 162.541 138.654 162.746 139.025 162.911C139.724 163.28 140.342 163.815 140.835 164.267C141.947 165.13 143.14 165.952 144.292 166.897C144.869 167.39 145.445 167.842 145.98 168.459C146.227 168.746 146.515 169.116 146.721 169.527C146.762 169.651 146.803 169.733 146.844 169.856C146.885 169.979 146.885 170.144 146.885 170.308V170.514C146.885 170.596 146.926 170.637 146.926 170.719C147.132 171.788 147.997 172.979 149.025 173.514C149.478 173.76 149.602 174.295 149.313 174.706C149.067 175.158 148.532 175.281 148.12 174.993H148.079C147.338 174.5 146.762 173.925 146.309 173.226C145.815 172.527 145.486 171.747 145.363 170.883C145.363 170.76 145.321 170.678 145.321 170.555C145.321 170.473 145.321 170.308 145.321 170.267C145.321 170.226 145.321 170.185 145.321 170.185L145.28 170.062C145.198 169.856 145.033 169.568 144.828 169.363C144.457 168.87 143.922 168.377 143.387 167.924C142.317 166.979 141.165 166.116 140.053 165.171C139.477 164.678 139.025 164.226 138.448 163.856C138.201 163.691 137.872 163.568 137.666 163.568C137.584 163.568 137.502 163.568 137.461 163.609C137.419 163.609 137.419 163.65 137.378 163.691C137.378 163.733 137.337 163.774 137.337 163.774L137.296 163.856L135.156 168.5C135.074 168.664 134.868 168.746 134.662 168.664C134.662 168.459 134.58 168.253 134.621 168.089Z" fill="black"/>
<path d="M75.2791 194.474C75.2791 194.474 75.1145 230.228 76.555 233.064" stroke="black" stroke-width="1.29991" stroke-miterlimit="10" stroke-linecap="round"/>
<path d="M82.5625 236.64C82.5625 236.64 89.312 239.146 94.9504 238.53C100.589 237.914 116.392 235.776 120.92 235.694C125.447 235.612 164.915 233.516 174.504 232.119C177.797 231.626 183.435 230.105 183.435 230.105" stroke="black" stroke-width="1.29991" stroke-miterlimit="10" stroke-linecap="round"/>
<path d="M180.141 188.473L181.128 193.035" stroke="black" stroke-width="1.29991" stroke-miterlimit="10" stroke-linecap="round"/>
<path d="M181.664 196.98C181.664 196.98 185.286 213.707 185.533 222.091" stroke="black" stroke-width="1.29991" stroke-miterlimit="10" stroke-linecap="round"/>
<path d="M98.6571 238.53C98.6571 238.53 89.109 242.681 86.3516 243.174" stroke="black" stroke-width="1.29991" stroke-miterlimit="10" stroke-linecap="round"/>
<path d="M85.1953 244.078C85.1953 244.078 90.4221 279.052 92.8914 286.943C95.3608 294.875 100.423 313.204 100.176 317.067C99.9291 320.972 96.1016 323.355 96.1016 323.355C96.1016 323.355 91.3275 326.479 96.8012 327.095C102.275 327.712 106.102 328.698 110.794 328.41C115.486 328.123 123.635 326.807 124.087 324.958C124.581 323.109 129.89 284.23 131.413 280.614C132.936 276.997 134.212 267.833 139.644 268.244C145.077 268.654 153.02 280.491 154.378 295.902C155.736 311.314 157.506 324.301 157.506 324.301C157.506 324.301 157.753 327.506 164.585 329.52C171.375 331.534 183.763 330.917 184.751 328.616C185.698 326.314 181.623 324.383 180.594 322.533C179.565 320.684 178.207 322.081 179.401 308.231C180.553 294.34 183.022 270.545 183.064 260.188C183.105 249.832 182.94 231.379 182.94 231.379" stroke="black" stroke-width="1.29991" stroke-miterlimit="10" stroke-linecap="round"/>
<path d="M183.724 251.599C183.724 251.599 184.342 254.229 187.799 254.188C191.256 254.147 191.75 253.037 191.997 246.339C192.244 239.64 191.667 233.146 191.667 233.146C191.667 233.146 192.943 232.9 195.289 231.009C197.635 229.16 194.137 226.858 194.137 226.858L189.363 232.201C189.363 232.201 189.815 231.708 191.05 229.283C192.367 226.817 192.779 225.831 191.297 224.434C189.857 223.036 189.116 225.502 189.116 225.502L187.099 230.475C187.058 230.598 186.893 230.557 186.852 230.434C186.852 229.776 186.77 228.543 186.482 226.447C185.988 222.913 184.671 223.283 183.025 225.05C181.378 226.776 185.782 232.694 185.782 232.694" stroke="black" stroke-width="1.29991" stroke-miterlimit="10" stroke-linecap="round" stroke-linejoin="round"/>
<path d="M192.57 250.613C192.57 250.613 198.126 250.983 196.645 246.544C195.163 242.064 195.904 240.996 192.611 242.927" stroke="black" stroke-width="1.29991" stroke-miterlimit="10" stroke-linecap="round"/>
<path d="M195.862 242.475C196.356 242.229 196.768 242.023 197.261 241.9C197.755 241.777 198.249 241.653 198.784 241.653C199.319 241.653 199.937 241.736 200.472 242.188C201.007 242.558 201.212 243.215 201.336 243.749C201.418 244.284 201.418 244.777 201.377 245.27C201.336 245.763 201.295 246.215 201.212 246.667C201.089 247.571 200.883 248.476 200.636 249.38C200.389 250.284 200.266 251.147 200.101 252.01C200.019 252.873 200.019 253.736 200.225 254.517L200.307 254.805C200.348 254.887 200.389 254.969 200.43 255.051L200.554 255.298L200.718 255.544L200.883 255.791L201.089 256.079C201.212 256.243 201.336 256.449 201.459 256.695C201.953 257.517 202.365 258.462 202.406 259.449C202.488 260.435 202.324 261.421 202.035 262.284C201.747 263.189 201.336 264.011 200.924 264.832C200.101 266.476 199.196 268.038 198.496 269.723C198.167 270.545 197.838 271.408 197.673 272.271C197.467 273.134 197.385 273.997 197.426 274.86C197.467 276.627 198.29 278.271 199.443 279.586C199.525 279.71 199.525 279.874 199.401 279.956C199.278 280.039 199.113 280.039 199.031 279.956C197.755 278.559 196.809 276.792 196.726 274.901C196.644 273.956 196.726 273.011 196.932 272.107C197.097 271.203 197.426 270.298 197.755 269.435C198.414 267.709 199.319 266.065 200.101 264.463C200.472 263.641 200.842 262.819 201.13 261.997C201.377 261.175 201.5 260.312 201.418 259.49C201.336 258.668 200.965 257.887 200.554 257.147C200.43 256.983 200.348 256.818 200.225 256.572L200.06 256.325L199.854 256.038L199.648 255.75L199.484 255.421C199.443 255.298 199.36 255.216 199.319 255.092L199.196 254.764C198.908 253.818 198.908 252.791 198.99 251.846C199.072 250.9 199.278 249.996 199.484 249.133C199.648 248.229 199.854 247.366 200.019 246.503C200.06 246.051 200.142 245.64 200.142 245.188C200.183 244.736 200.183 244.366 200.101 243.996C199.937 243.256 199.525 242.969 198.743 242.969C198.002 243.01 197.138 243.297 196.438 243.708H196.397C196.109 243.873 195.697 243.749 195.533 243.462C195.451 243.051 195.574 242.64 195.862 242.475Z" fill="black"/>
<path d="M87.1735 262.901C87.1735 262.901 81.6998 266.065 79.1481 257.394C76.5964 248.763 73.2217 242.352 78.078 242.558C82.9344 242.763 84.4983 241.53 84.4983 241.53" stroke="black" stroke-width="1.29991" stroke-miterlimit="10" stroke-linecap="round"/>
<path d="M75.6102 242.516C75.6102 242.516 69.3133 235.818 71.2065 234.215C73.0585 232.612 73.2231 231.79 76.104 236.023C78.0795 238.982 79.1496 240.379 79.5611 240.996C79.6023 241.078 79.7257 240.996 79.6846 240.914L76.9683 232.612C76.9683 232.612 79.5611 229.365 81.2073 233.516C82.8536 237.667 84.3352 240.297 84.3352 240.297" stroke="black" stroke-width="1.29991" stroke-miterlimit="10" stroke-linecap="round"/>
</svg>
