<svg width="245" height="346" viewBox="0 0 245 346" fill="none" xmlns="http://www.w3.org/2000/svg">
<path d="M80.3332 184.24L87.2473 181.528L88.1116 178.651L90.4163 177.993L93.3795 175.692L98.524 172.075L101.899 171.294L105.232 173.226L110.459 179.308L112.188 183.213L111.9 186.213L108.689 191.309L103.092 196.816L94.038 202.118L84.9837 206.227L80.5389 207.501L76.8761 207.09L73.2955 203.679L71.032 197.926L70.25 186.501L71.7728 185.884L80.3332 184.24Z" fill="#FAEACA"/>
<path d="M153.057 173.678L161.987 177.459L167.008 179.76L165.239 186.624L161.987 194.021L157.913 197.638L153.139 198.295L136.388 199.569L127.828 197.35L120.996 192.46L119.227 188.144L120.873 181.815L125.482 174.171L129.351 171.829L131.861 172.157L134.248 173.514L137.5 178.158L139.557 179.062L149.188 176.843L152.48 175.363L153.057 173.678Z" fill="#FAEACA"/>
<path d="M105.065 44.4264L100.208 45.0428L95.0226 49.5636L90.5367 57.0022L87.4911 66.619L85.8037 79.7702L83.2109 98.3874L87.7792 109.073L93.2118 119.84L98.2328 124.978L109.057 130.649L118.317 132.293L125.642 132.211L132.804 129.622L141.241 123.827L150.871 112.278L151.283 107.182L150.789 96.4558L148.072 78.9483L141.858 64.9751L131.898 51.1664L125.889 44.3442L121.856 42.7825L117.946 42.8236L114.53 44.9195L112.39 47.1799L110.868 47.221L108.81 46.0292L105.065 44.4264Z" fill="#FAEACA"/>
<path d="M88.9325 138.252L93.6242 133.115L99.5507 127.854L101.032 127.649L103.214 131.224L108.975 137.307L114.902 141.54L119.799 142.814L126.137 142.896L131.693 139.526L137.249 132.581L139.636 127.032L142.558 127.772L146.221 130.649L144.534 135.046L143.917 139.074L145.151 142.28L149.061 148.321L149.596 151.65L145.11 149.677L137.702 146.43L134.615 146.225L131.117 147.787L124.738 152.842L114.367 152.39L113.05 157.239L110.992 180.007L104.572 172.322L99.3037 171.829L96.4228 172.897L89.7556 178.528L88.1094 178.651L89.7144 173.144L94.365 171.418L96.2582 171.829L97.4106 170.062L98.9333 168.171L97.2871 163.116L93.1304 153.129L90.2906 149.883L89.2617 145.28L88.9325 138.252Z" fill="#AEA3CF"/>
<path d="M169.393 148.855L171.78 155.225L172.48 167.596L171.862 177.623L170.833 180.788L168.899 181.117L164.989 178.404L151.531 172.815L149.515 171.747L149.227 166.938L151.079 167.678L154.412 169.281L161.491 169.527L164.495 168.089L166.265 163.609L167.006 155.308L169.393 148.855Z" fill="#AEA3CF"/>
<path d="M83.5 206.515L83.5823 217.283L85.5166 226.776L87.739 232.571L90.4553 234.914L96.3406 236.516L106.341 236.023L128.895 233.64L155.399 229.941L158.362 228.297L159.926 225.215L160.214 220.694L156.963 201.871L155.769 197.844L148.073 198.707L149.555 201.871L150.79 204.049L150.419 205.323L146.962 205.652L143.711 206.967L146.88 214.118L146.921 217.201L145.481 218.803L137.579 221.393L127.084 224.146L124.08 222.913L122.228 220.488L119.594 211.241L116.548 200.803L113.955 200.351L106.959 192.748L102.39 197.474L95.1059 201.83L83.5 206.515Z" fill="#AEA3CF"/>
<path d="M107.169 28.3984C107.169 28.3984 100.543 21.494 73.3802 48.7006C46.2174 75.9071 70.0877 104.675 69.5939 115.073C69.1 125.471 58.3995 149.759 65.8487 154.198C73.339 158.636 60.2104 169.157 64.4082 175.815C64.4082 175.815 68.8942 179.473 68.6884 181.528C68.4827 183.583 68.1123 186.665 72.9686 186.172C76.755 185.802 83.381 183.295 86.0562 182.226C86.797 181.98 87.2908 181.322 87.4555 180.583C87.9905 177.911 89.5132 171.623 91.1183 171.582C93.1761 171.582 99.1437 171.253 98.444 168.13C97.7444 165.007 95.4808 155.76 93.0938 153.047C90.7068 150.335 88.8136 149.307 89.4721 142.65C90.0894 136.033 85.6446 132.17 83.5457 129.498C81.4467 126.827 76.8373 124.32 80.7059 108.662C84.5746 93.0037 85.9327 78.4141 86.1385 74.2632C86.8381 60.66 97.6621 35.796 109.885 46.8512C110.75 47.6321 112.149 47.5499 112.89 46.6457C115.524 43.4401 121.82 38.3851 130.216 48.865C141.411 62.8381 147.666 72.907 149.354 85.4829C151.041 98.0587 152.687 112.443 150.177 121.279C147.666 130.115 141.575 137.266 145.732 142.773C149.848 148.28 150.341 151.362 149.354 157.856C148.366 164.349 148.777 167.76 153.716 168.829C158.614 169.897 166.351 171.664 166.639 161.349C166.927 150.992 169.973 148.157 171.125 146.184C172.236 144.211 174.706 140.43 171.742 134.8C168.779 129.17 172.319 116.47 173.43 109.895C174.541 103.319 175.035 69.948 155.404 47.9197C138.242 28.6039 130.093 23.7133 119.722 26.097C117.54 26.5901 115.318 27.0422 113.754 28.6039C111.902 30.3711 109.968 30.6177 107.169 28.3984Z" fill="#AAA17A"/>
<path d="M152.273 46.9746L153.714 42.5361L155.689 37.3989L157.089 35.7139L158.323 36.7413L158.9 38.9195L157.994 41.7552L155.977 44.5498L152.273 46.9746Z" fill="#61BC50"/>
<path d="M168.494 46.6869L166.93 43.1114L167.3 40.4401L168.905 38.4674L171.375 37.6865L173.062 38.3441L173.803 40.0702L173.762 41.4675L173.679 43.5224L175.202 43.1525L176.313 43.7279L177.548 46.1937L177.795 48.7007L176.972 50.0158L174.914 50.2624L176.396 52.1529L175.819 53.3036L173.926 54.3721L170.634 54.5365L167.835 53.1392L167.629 51.1665L169.234 48.4952L168.494 46.6869Z" fill="#F0D2E5"/>
<path d="M98.1956 160.568L96.9609 157.732L98.3602 156.088L100.048 156.746L101.241 156.664L99.6361 152.759L99.7595 151.115L101.2 150.869L104.04 151.979L105.192 154.074L104.204 155.718L104.122 156.458L106.097 156.335L107.703 157.157L107.991 159.212L107.414 160.691L105.686 160.486L104.739 159.746L104.945 161.02L104.04 162.171L102.435 163.28L100.83 163.609L100.212 162.705L100.253 160.157L100.295 158.472L99.5537 159.047L98.1956 160.568Z" fill="#F0D2E5"/>
<path d="M74.3661 170.883L71.5264 171.993L70.1682 171.459L70.0859 169.157L71.2795 166.938L74.2015 165.746L76.3828 165.212L75.3127 163.363L74.325 160.321L75.1892 158.431L76.9589 157.568L77.7821 158.02L79.3048 159.828L79.1402 161.965L77.9055 164.102L77.4117 165.048L78.8109 165.787L80.663 167.596L80.951 169.774L79.5929 169.979L78.2348 168.541L77.7409 166.897L76.5062 168.746L74.3661 170.883Z" fill="#F0D2E5"/>
<path d="M87.7445 187.281L88.4853 185.021L89.3496 184.24L90.7489 184.569L92.2716 185.761L93.1771 187.076L93.2182 188.186L91.4485 188.884L90.8312 189.254L91.9424 190.158L92.2716 190.898L92.0658 191.884L90.2138 193.487L88.7734 194.186L87.7857 193.898L87.1272 192.008L87.0449 191.062L86.0571 192.09L84.9048 193.364L83.8347 193.857L83.1351 193.282L82.6 190.693L82.4766 188.227L83.4231 186.829L85.9336 186.912L87.7445 187.281Z" fill="#F0D2E5"/>
<path d="M106.855 96.0614C107.144 93.0337 104.92 90.3452 101.888 90.0567C98.856 89.7681 96.1637 91.9887 95.8748 95.0165C95.5858 98.0443 97.8095 100.733 100.842 101.021C103.874 101.31 106.566 99.0892 106.855 96.0614Z" fill="#B7DDB5"/>
<path d="M136.101 94.2365C139.147 94.2365 141.616 91.7709 141.616 88.7295C141.616 85.688 139.147 83.2224 136.101 83.2224C133.055 83.2224 130.586 85.688 130.586 88.7295C130.586 91.7709 133.055 94.2365 136.101 94.2365Z" fill="#B7DDB5"/>
<path d="M98.0688 236.557L93.5417 236.064L93.3359 240.503L93.6652 254.229L94.8175 269.764L96.9988 280.573L102.843 300.012L103.131 303.67L102.143 306.834L97.04 314.971L95.2703 318.67L95.3114 320.643L98.2335 322.492L112.638 325.41L119.881 325.903L125.767 324.383L127.495 321.999L128.236 324.054L130.211 325.451L139.183 325.123L147.497 324.342L151.407 324.259L152.641 323.027L150.419 317.561L145.398 307.04L144.616 300.752L144.945 294.669L148.073 283.039L151.777 264.422L154.123 252.051L150.378 248.188L154.658 247.243L155.152 235.489L155.399 229.941L112.062 235.694L98.0688 236.557Z" fill="#F8B2B4"/>
<path d="M150.957 247.9L168.86 245.763L175.321 245.969L177.626 246.626L179.19 250.9L182.194 262.942L182.935 270.298L181.289 278.764L177.543 288.258L175.198 292.573L170.465 292.738L158.2 291.381L148.734 289.984L152.521 286.984L157.418 280.943L160.381 273.792L161.287 266.723L158.612 257.846L152.973 250.489L150.957 247.9Z" fill="#F4F4D5"/>
<path d="M152.397 310.451L156.018 309.218L179.765 307.697L194.622 308.478L197.709 310.451L198.285 314.15L197.915 317.931L194.417 321.054L189.313 323.397L191.083 325.123L190.013 329.273L184.663 339.836L180.959 344.069L178.531 344.644L173.304 342.548L146.594 330.917L149.557 324.177L152.067 324.26L151.491 319.944L150.421 317.561L152.397 310.451Z" fill="#F4F4D5"/>
<path d="M102.846 305.601L99.3478 301.573L96.4258 301.45L91.1578 302.724L63.1719 316.204L45.1046 316.985L39.6309 328.328L39.0547 331.657L40.7832 333.26H46.792L65.3943 331.246L83.8733 329.725L86.2603 328.739L87.3303 327.712L88.4004 328.862L106.962 325.492L107.167 324.424L96.2611 321.67L94.9853 319.656L95.8496 316.697L102.846 305.601Z" fill="#F4F4D5"/>
<path d="M153.055 173.678L151.82 175.733L139.556 179.062L137.498 178.158L134.247 173.514L131.119 171.87L127.291 172.774L124.122 176.062L120.542 182.679L119.225 188.144L120.994 192.46L123.464 195.09L129.473 197.638L137.045 199.487L148.075 198.707L150.874 203.433L150.421 205.323L147.705 205.529L143.712 206.967L146.676 213.378L146.881 216.625L145.482 218.803L129.555 223.242L124.781 223.653L122.147 219.379L116.55 200.803L113.957 200.35L107.125 192.295L111.323 186.994L112.146 183.994L110.994 180.007L113.71 153.212L115.192 152.102L124.74 152.842L131.119 147.787L135.399 146.143L139.926 147.252L149.392 152.061L148.857 163.609L149.227 166.938L149.598 171.253L153.055 173.678Z" fill="#F9F9FA"/>
<path d="M86.0939 105.086C86.0939 105.086 93.0904 36.4946 110.993 53.0158C110.993 53.0158 123.463 37.4399 137.991 65.7561C152.519 94.0723 146.881 117.292 146.881 117.292L151.038 110.347C151.038 110.347 150.215 78.5374 145.646 72.907C145.646 72.907 134.74 49.3171 124.945 44.0977C115.15 38.8783 114.08 47.9608 110.87 47.18C107.66 46.3991 103.667 40.7277 97.1648 46.9745C90.6622 53.2213 86.5878 67.7698 86.382 69.6603C86.2174 71.5097 83.1719 98.3875 83.1719 98.3875L86.0939 105.086Z" fill="#F2E4CE"/>
<path d="M101.125 126.622L109.438 130.937L117.67 132.088L125.283 132.375L133.638 128.923L138.536 125.512L139.564 126.909L138.494 129.581L135.819 134.964L132.568 139.156L126.148 142.444L120.098 143.266L114.953 141.787L110.22 138.622L104.788 133.608L101.125 126.622Z" fill="#D7D0AC"/>
<path d="M83.139 98.4697L90.8351 116.059L94.6626 122.019L101.124 126.622L98.8605 128.882L89.1066 137.759L85.8964 131.677L82.069 128.019L79.4762 122.841L79.0234 118.361L80.3404 108.621L83.139 98.4697Z" fill="#766E5A"/>
<path d="M151.005 111.128L150.963 116.224L150.058 122.101L146.601 130.608L144.543 129.046L138.164 125.964L141.909 123.046L146.107 118.402L151.005 111.128Z" fill="#766E5A"/>
<path d="M100.675 127.402L95.4898 130.772L89.0695 137.677L89.481 142.321L89.4399 146.554L91.3331 150.992L94.4609 156.294L96.9302 159.335L97.0537 156.294L99.1526 156.335L101.416 156.582L99.5642 152.472L99.7288 150.91L100.717 150.787L102.98 151.403L104.544 152.225L104.997 153.335L104.626 155.225L104.091 156.253L106.149 156.129L107.548 156.705L107.96 158.102L108.001 159.828L107.466 160.732L105.943 160.486L104.585 159.828L104.832 160.691L104.174 162.006L102.651 163.28L101.252 163.65L100.14 162.869L100.223 160.116L100.511 158.02L98.5353 160.609L96.8068 160.198L97.918 164.719L98.3295 169.24L95.7367 171.089L90.7157 172.363L88.1641 178.199L89.1106 178.733L93.5966 175.651L97.6299 172.527L101.169 171.746C101.169 171.746 101.334 167.719 105.984 164.596C110.635 161.472 107.713 156.253 107.548 155.965C107.384 155.677 102.075 148.362 101.992 146.965C101.91 145.608 99.1115 141.417 110.265 147.417C121.418 153.417 128.003 148.855 131.542 146.554C135.123 144.252 145.453 149.8 145.453 149.8L149.28 151.568L148.828 147.458L144.136 140.06L145.453 132.005L146.605 130.567L142.901 128.019L139.526 126.827L135.699 135.211L131.048 140.225L123.023 142.937L117.014 142.403L110.923 139.279L103.515 131.8L100.675 127.402Z" fill="#9F97BE"/>
<path d="M107.302 191.884L113.146 199.57L115.286 200.802L116.726 201.378L117.796 205.981L121.871 218.392L123.887 222.913L127.386 224.064L143.889 219.543L146.811 217.652L146.935 213.255L143.519 206.638L150.639 204.953L149.486 201.378L148.252 198.83L156.195 198.172L156.935 202.816C156.935 202.816 153.149 203.268 153.725 206.104C154.301 208.981 151.009 208.282 149.857 209.556C148.704 210.83 156.236 222.584 148.169 224.064C140.144 225.502 130.267 227.927 130.267 227.927C130.267 227.927 121.665 231.256 118.537 223.488C115.409 215.762 116.15 209.31 113.475 208.652C110.759 207.995 106.725 210.625 105.408 205.241C104.05 199.857 99.0293 204.172 95.778 205.816C92.5267 207.46 84.7483 209.885 84.0898 209.885C83.4725 209.885 83.6371 206.515 83.6371 206.515L95.0372 202.323L103.145 197.186L107.302 191.884Z" fill="#9F97BE"/>
<path d="M149.725 166.322L149.602 171.459C149.602 171.459 167.381 176.678 167.792 170.226C168.204 163.733 169.315 157.198 171.126 154.773L169.603 148.814L167.792 152.225L166.805 157.815L165.982 164.924L164.047 168.541L160.714 169.61L156.022 169.24L151.165 168.13L149.725 166.322Z" fill="#9F97BE"/>
<path d="M152.939 173.596L157.014 175.199L167.056 179.966L166.027 183.829C166.027 183.829 163.64 181.651 158.166 180.172C154.462 179.185 151.828 176.062 151.828 176.062L152.939 173.596Z" fill="#F2E4CE"/>
<path d="M70.1328 186.295V190.323C70.1328 190.323 85.7308 185.884 87.0067 184.98C88.2825 184.076 89.8053 183.007 89.8464 178.528L88.2413 178.692L86.842 181.651L78.117 184.857L70.1328 186.295Z" fill="#F2E4CE"/>
<path d="M82.4026 190.61C82.4026 190.61 81.8676 197.556 84.9543 195.624C88.041 193.734 86.8886 193.652 86.8886 193.652C86.8886 193.652 87.259 197.104 91.0453 194.638C94.8317 192.131 94.7082 189.747 93.9262 189.583C93.9262 189.583 96.3956 187.857 93.6793 185.144C91.0042 182.514 88.6995 184.816 88.6995 184.816L89.7695 184.322L90.6749 184.569L91.6627 185.103L93.1031 186.542L93.2678 188.144L91.1688 188.843L90.963 189.172L91.7861 189.788L92.2389 190.734L92.1565 191.638L90.963 192.994L89.4403 193.939L88.1644 194.062L87.3825 192.994L87.1356 191.186L86.0655 192.501L84.4193 193.816L83.5138 193.652L83.02 192.46L82.4026 190.61Z" fill="#D7D0AC"/>
<path d="M70.1755 168.623C70.1755 168.623 67.6238 173.267 69.3112 173.843C70.9986 174.418 77.46 172.856 77.3366 170.637C77.3366 170.637 78.7359 174.541 80.9994 172.527C83.3042 170.514 81.0406 165.911 79.7648 165.705C78.4478 165.5 79.9706 167.144 79.9706 167.144L80.9994 169.651L79.9294 170.349L77.7893 168.336L77.4189 167.555L76.4312 169.24L74.7438 170.637L72.2744 171.829L70.7517 171.664L69.8462 170.308L70.1755 168.623Z" fill="#938C6C"/>
<path d="M93.3462 235.571C93.3462 235.571 91.4942 243.051 96.8856 243.791C102.318 244.571 151.047 238.407 151.047 238.407C151.047 238.407 155.121 238.9 155.244 232.982C155.368 227.064 155.533 229.817 155.533 229.817L105.528 235.653L97.8733 236.516L93.3462 235.571Z" fill="#E8AAAF"/>
<path d="M119.605 185.925C119.605 185.925 113.925 200.392 132.116 202.2C150.307 203.967 148.661 200.515 148.661 200.515L147.261 198.83C147.261 198.83 135.409 201.994 126.807 196.405C118.164 190.816 120.016 190.734 119.605 185.925Z" fill="#E5E5E5"/>
<path d="M99.5938 11.1376C100.088 9.24715 100.911 7.43886 102.022 5.75387C102.598 4.93192 103.257 4.15106 104.08 3.5346C104.944 2.91814 105.973 2.46606 107.043 2.46606C108.154 2.46606 109.183 2.83594 110.088 3.32911C110.994 3.86338 111.817 4.47984 112.517 5.2196C113.957 6.61691 115.109 8.26081 116.18 9.94581C117.25 11.6308 118.196 13.398 118.896 15.3707C119.06 15.8639 119.225 16.357 119.348 16.8502C119.39 17.0968 119.472 17.3434 119.513 17.5899L119.595 18.3708C119.719 19.3982 119.678 20.549 119.39 21.6586C119.102 22.7271 118.608 23.7957 117.867 24.6998C117.167 25.5629 116.262 26.2615 115.356 26.8369C114.451 27.4123 113.463 27.8232 112.434 28.1109C111.447 28.4397 110.418 28.6452 109.265 28.1109C108.895 27.9465 108.771 27.5355 108.936 27.1657C108.977 27.0835 109.018 27.0013 109.101 26.9191L109.183 26.8369C110.006 26.1382 110.87 25.9327 111.735 25.7273C112.599 25.4807 113.422 25.1519 114.163 24.782C114.904 24.371 115.562 23.8368 116.138 23.2203C116.632 22.6038 117.044 21.9052 117.291 21.0832C117.496 20.2613 117.579 19.3982 117.538 18.5352L117.496 17.8776C117.455 17.6721 117.414 17.4667 117.414 17.2201C117.332 16.768 117.208 16.3159 117.085 15.905C116.55 14.1789 115.727 12.4117 114.821 10.7678C113.875 9.12386 112.805 7.52106 111.57 6.12374C110.994 5.42509 110.253 4.80862 109.512 4.31545C108.771 3.82228 107.948 3.4524 107.084 3.41131C106.22 3.37021 105.356 3.61679 104.574 4.10997C103.792 4.60314 103.092 5.2607 102.516 6.04155C101.898 6.7813 101.405 7.60325 100.952 8.4663C100.499 9.32935 100.088 10.1924 99.7172 11.0965C99.6761 11.1376 99.6349 11.1787 99.5938 11.1376Z" fill="black"/>
<path d="M107.043 28.0696C107.043 28.0696 100.499 21.4529 73.3776 48.7006C46.256 75.9482 70.0852 104.675 69.5913 115.073C69.0974 125.471 58.397 149.759 65.8461 154.198C73.3365 158.636 60.2078 169.157 64.4057 175.815C64.4057 175.815 68.8917 179.473 68.6859 181.528C68.4801 183.624 68.1097 186.665 72.9661 186.172C76.7524 185.802 83.3785 183.295 86.0536 182.226C86.7944 181.98 87.2883 181.322 87.4529 180.583C87.9879 177.911 89.5107 171.623 91.1158 171.582C93.1735 171.582 99.1411 171.253 98.4415 168.13C97.7418 165.007 95.4783 155.76 93.0912 153.047C90.7042 150.335 88.811 149.307 89.4695 142.65C90.0869 136.033 85.642 132.17 83.5431 129.498C81.4442 126.827 76.8347 124.32 80.7034 108.662C84.572 93.0037 85.9301 78.4141 86.1359 74.2632C86.8356 60.66 97.6595 35.796 109.883 46.8512C110.747 47.632 112.146 47.5498 112.887 46.6457C115.521 43.4401 121.818 38.3851 130.214 48.865C141.408 62.8381 147.664 72.907 149.351 85.4829C150.997 98.0587 152.685 112.443 150.174 121.279C147.664 130.115 141.573 137.266 145.729 142.773C149.845 148.28 150.339 151.362 149.351 157.856C148.363 164.349 148.775 167.76 153.714 168.829C158.611 169.897 166.348 171.664 166.636 161.349C166.925 150.992 169.97 148.157 171.122 146.184C172.234 144.211 174.703 140.43 171.74 134.8C168.818 129.211 172.316 116.47 173.427 109.895C174.497 103.319 175.032 69.948 155.401 47.9197C138.239 28.6039 130.419 23.3023 120.048 25.686C117.085 26.3435 115.727 27.7819 113.669 28.7683C111.57 29.7135 109.677 29.7135 107.043 28.0696Z" stroke="black" stroke-width="1.23467" stroke-miterlimit="10" stroke-linecap="round" stroke-linejoin="round"/>
<path d="M87.8202 86.2228C88.2318 84.8665 88.808 83.6336 89.5076 82.4007C90.2073 81.1678 91.0715 80.017 92.1416 79.0718C92.6766 78.5786 93.2939 78.1676 93.9524 77.7567C94.6521 77.4279 95.3929 77.1402 96.1337 77.0169C97.6976 76.7292 99.3027 77.0169 100.702 77.5923C101.319 77.8389 101.649 78.5375 101.36 79.1951C101.114 79.8115 100.414 80.1403 99.7554 79.8526C99.7142 79.8526 99.7142 79.8526 99.6731 79.8115C98.603 79.2773 97.533 79.0307 96.4218 79.1129C95.8867 79.1951 95.3106 79.3184 94.8167 79.5239C94.2817 79.7704 93.7878 80.0992 93.3351 80.4691C92.3885 81.2089 91.5654 82.1541 90.8246 83.2637C90.1249 84.2912 89.5076 85.483 89.0137 86.6337V86.6748C88.8903 87.0036 88.5199 87.1269 88.1906 87.0036C87.9025 86.8392 87.7791 86.5104 87.8202 86.2228Z" fill="black"/>
<path d="M122.35 71.2221C122.556 70.8522 122.72 70.6467 122.926 70.3591C123.132 70.0714 123.338 69.8659 123.543 69.5782C123.955 69.085 124.449 68.633 124.943 68.222C125.972 67.4 127.165 66.7014 128.523 66.4137C129.182 66.2904 129.922 66.2082 130.581 66.2904C131.281 66.3726 131.939 66.4959 132.515 66.7425C133.75 67.2356 134.779 67.9343 135.767 68.7974C136.014 69.0439 136.055 69.4138 135.808 69.6604C135.561 69.8659 135.232 69.9481 134.985 69.7426C134.038 69.085 133.091 68.5097 132.063 68.2631C131.075 67.9754 129.964 67.9754 129.058 68.3042C128.112 68.633 127.247 69.2083 126.507 69.9481C126.136 70.318 125.766 70.7289 125.478 71.181C125.313 71.4276 125.19 71.592 125.025 71.8386C124.86 72.0852 124.737 72.2906 124.655 72.4961C124.366 73.1126 123.585 73.4414 122.926 73.1126C122.268 72.7838 121.979 72.0441 122.309 71.3865C122.309 71.3043 122.35 71.2632 122.35 71.2221Z" fill="black"/>
<path d="M90.9055 100.196C90.1235 99.6616 90.4939 99.2507 90.4939 98.7986C90.5762 98.3465 90.6585 97.9355 90.782 97.5246C91.0289 96.6615 91.317 95.8396 91.7286 95.0587C92.5105 93.497 93.6218 91.9764 95.1034 90.9079C96.585 89.7982 98.3135 89.1818 100.083 88.9763C101.853 88.7708 103.581 88.8941 105.187 89.3051C105.516 89.3873 105.722 89.716 105.639 90.0448C105.557 90.3325 105.31 90.538 105.022 90.538C103.458 90.4147 101.894 90.4969 100.412 90.7846C100.042 90.8257 99.7128 90.949 99.3012 91.0312C98.972 91.1544 98.6016 91.2366 98.2723 91.4421C97.6139 91.7709 96.9554 92.0997 96.4203 92.5929C95.3091 93.5381 94.4449 94.6888 93.8275 96.004C93.4983 96.6615 93.2925 97.4013 93.0867 98.0999C93.0044 98.4698 92.8809 98.8397 92.8398 99.2096C92.7163 99.5794 92.9633 99.9493 92.1401 100.237L91.8932 100.319C91.564 100.401 91.1936 100.36 90.9055 100.196Z" fill="black"/>
<path d="M125.682 91.36C125.97 90.4147 126.381 89.5517 126.793 88.6886C127.246 87.8256 127.739 87.0036 128.316 86.2228C128.892 85.4419 129.591 84.7433 130.373 84.1268C131.196 83.5103 132.061 83.0172 133.048 82.6884C134.036 82.3596 135.106 82.3185 136.135 82.4007C137.164 82.4829 138.152 82.8117 139.057 83.2226C140.868 84.0035 142.473 85.1953 143.872 86.4693C144.284 86.8392 144.325 87.4557 143.955 87.8667C143.584 88.2776 142.967 88.3187 142.555 87.9489C142.555 87.9489 142.555 87.9489 142.514 87.9489C141.238 86.7159 139.839 85.6063 138.316 84.8665C136.794 84.0857 135.106 83.798 133.542 84.2501C131.978 84.6611 130.579 85.7707 129.468 87.168C128.398 88.5242 127.492 90.1681 126.834 91.7298V91.7709C126.711 92.0997 126.381 92.2641 126.052 92.0997C125.723 91.9764 125.558 91.6476 125.682 91.36Z" fill="black"/>
<path d="M141.921 89.3016C142.205 86.319 139.85 83.655 136.659 83.3514C133.469 83.0478 130.652 85.2195 130.367 88.2021C130.082 91.1847 132.438 93.8487 135.628 94.1523C138.819 94.4559 141.636 92.2842 141.921 89.3016Z" stroke="black" stroke-width="1.23467" stroke-miterlimit="10" stroke-linecap="round" stroke-linejoin="round"/>
<path d="M107.257 96.0624C107.541 93.0798 105.186 90.4158 101.995 90.1121C98.8047 89.8085 95.9876 91.9802 95.7029 94.9628C95.4183 97.9454 97.7739 100.609 100.964 100.913C104.155 101.217 106.972 99.045 107.257 96.0624Z" stroke="black" stroke-width="1.23467" stroke-miterlimit="10" stroke-linecap="round" stroke-linejoin="round"/>
<path d="M119.548 113.347C120.248 114.087 121.03 114.868 121.73 115.402C122.1 115.689 122.47 115.936 122.841 116.1C123.005 116.142 123.17 116.224 123.293 116.224C123.417 116.224 123.458 116.183 123.54 116.224C123.54 116.224 123.582 116.224 123.582 116.183C123.623 116.183 123.623 116.142 123.664 116.142C123.705 116.1 123.746 116.059 123.787 116.018C123.828 115.977 123.87 115.936 123.911 115.895C123.952 115.854 123.993 115.772 124.034 115.731C124.24 115.484 124.364 115.155 124.487 114.744C124.734 113.881 124.857 112.936 125.022 111.867V111.826C125.063 111.456 125.392 111.251 125.722 111.292C125.927 111.292 126.133 111.456 126.174 111.621C126.709 112.689 126.956 113.881 126.792 115.196C126.668 115.854 126.504 116.511 126.051 117.21C125.804 117.498 125.557 117.827 125.228 118.073C125.063 118.196 124.857 118.32 124.693 118.402L124.405 118.525C124.322 118.566 124.199 118.607 124.075 118.607C123.623 118.731 123.17 118.731 122.717 118.649C122.306 118.566 121.935 118.402 121.647 118.196C121.03 117.868 120.577 117.374 120.166 116.922C119.384 115.977 118.807 115.032 118.396 113.922C118.272 113.594 118.478 113.224 118.766 113.141C119.096 113.059 119.343 113.141 119.548 113.347Z" fill="black"/>
<path d="M83.1719 98.7576C83.1719 98.7576 91.1561 118.32 94.4897 121.69C97.4118 124.649 105.602 129.951 110.911 130.937C116.179 131.923 124.41 133.937 130.089 131.142C138.938 126.745 147.416 119.306 151.12 110.429" stroke="black" stroke-width="1.23467" stroke-miterlimit="10" stroke-linecap="round" stroke-linejoin="round"/>
<path d="M89.7969 137.348C89.7969 137.348 94.2829 130.608 100.868 127.238" stroke="black" stroke-width="1.23467" stroke-miterlimit="10" stroke-linecap="round" stroke-linejoin="round"/>
<path d="M138.195 126.293C138.195 126.293 142.887 127.238 145.85 130.238" stroke="black" stroke-width="1.23467" stroke-miterlimit="10" stroke-linecap="round" stroke-linejoin="round"/>
<path d="M101.32 128.183C101.32 128.183 110.086 143.389 121.734 143.061C133.381 142.732 136.961 133.115 139.184 127.485" stroke="black" stroke-width="1.23467" stroke-miterlimit="10" stroke-linecap="round" stroke-linejoin="round"/>
<path d="M70.2046 186.418C70.2046 186.418 69.9576 196.939 72.0154 200.802C74.0732 204.666 75.3079 209.597 82.7982 206.967C90.2886 204.337 101.524 199.898 106.051 193.775C110.619 187.651 115.394 185.802 109.261 177.87C103.129 169.938 100.577 169.445 92.7579 175.938C92.7579 175.938 88.3954 180.254 88.4365 178.322" stroke="black" stroke-width="1.23467" stroke-miterlimit="10" stroke-linecap="round" stroke-linejoin="round"/>
<path d="M169.761 149.39C169.761 149.39 172.683 155.102 172.354 167.966C172.23 172.24 172.107 178.898 171.284 180.048C170.502 181.199 169.391 181.774 168.279 180.706C167.168 179.637 164.04 177.747 160.295 176.678C156.55 175.61 152.311 172.815 151.2 172.733C150.089 172.651 148.772 171.706 149.224 166.979" stroke="black" stroke-width="1.23467" stroke-miterlimit="10" stroke-linecap="round" stroke-linejoin="round"/>
<path d="M166.8 180.418C166.8 180.418 163.754 196.981 156.47 197.844C149.185 198.707 136.674 201.131 128.607 197.474C120.582 193.816 117.043 190.076 121.529 180.542C126.015 171.007 132.064 169.733 135.439 175.281C138.773 180.87 139.102 179.103 145.152 177.706C151.202 176.309 152.766 176.309 152.766 173.719" stroke="black" stroke-width="1.23467" stroke-miterlimit="10" stroke-linecap="round" stroke-linejoin="round"/>
<path d="M83.7079 206.762C83.7079 206.762 83.1729 219.091 85.313 225.215C87.4531 231.338 87.0003 235.859 97.1247 236.27C107.249 236.681 152.932 231.215 155.813 229.941C158.735 228.667 161.945 227.639 158.899 212.721C155.854 197.802 155.854 197.802 155.854 197.802" stroke="black" stroke-width="1.23467" stroke-miterlimit="10" stroke-linecap="round" stroke-linejoin="round"/>
<path d="M93.2539 236.393C93.2539 236.393 92.7189 266.024 96.3817 278.189C100.086 290.354 104.407 301.697 102.802 305.725C101.238 309.752 91.4842 319.903 96.6698 321.917C101.855 323.89 113.503 326.232 118.112 325.945C121.981 325.698 126.384 325.575 127.249 321.588C127.413 320.807 127.454 319.862 127.331 318.794C126.631 312.054 122.886 291.258 122.968 287.683C123.051 284.107 124.944 256.531 124.944 256.531" stroke="black" stroke-width="1.23467" stroke-miterlimit="10" stroke-linecap="round" stroke-linejoin="round"/>
<path d="M155.765 229.941L154.242 246.996" stroke="black" stroke-width="1.23467" stroke-miterlimit="10" stroke-linecap="round" stroke-linejoin="round"/>
<path d="M153.832 253.202C153.832 253.202 147.412 287.231 145.313 293.395C143.255 299.56 144.243 305.889 148.606 314.519C152.968 323.15 153.709 325.04 149.141 324.465C144.531 323.89 140.827 325.164 136.094 325.287C131.279 325.451 127.493 325.492 127.328 321.465" stroke="black" stroke-width="1.23467" stroke-miterlimit="10" stroke-linecap="round" stroke-linejoin="round"/>
<path d="M150.254 248.229C150.254 248.229 162.559 258.175 160.913 270.833C159.225 283.45 148.648 289.984 148.648 289.984C148.648 289.984 173.301 293.436 174.782 292.82C176.305 292.162 182.355 279.011 182.643 270.709C182.931 262.449 179.227 249.462 177.087 246.708C175.029 243.832 150.254 248.229 150.254 248.229Z" stroke="black" stroke-width="1.23467" stroke-miterlimit="10" stroke-linecap="round" stroke-linejoin="round"/>
<path d="M150.578 318.177C150.578 318.177 150.907 309.999 153.335 310.41C155.764 310.821 191.487 322.821 191.116 325.287C190.787 327.753 188.441 333.712 183.873 340.863C179.305 347.973 175.477 343.411 175.477 343.411L146.586 330.959L149.138 324.506" stroke="black" stroke-width="1.23467" stroke-miterlimit="10" stroke-linecap="round" stroke-linejoin="round"/>
<path d="M154.492 309.629C154.492 309.629 161.983 308.273 165.851 308.437C169.72 308.601 196.8 305.807 197.788 310.738C198.735 315.67 199.558 319.205 193.919 321.588C188.281 323.972 189.475 323.355 189.475 323.355" stroke="black" stroke-width="1.23467" stroke-miterlimit="10" stroke-linecap="round" stroke-linejoin="round"/>
<path d="M45.4303 317.026L83.2113 315.054C83.2113 315.054 87.9442 314.561 87.9442 318.999C87.9853 323.438 88.6438 328.862 84.8163 329.643C81.03 330.424 44.3191 333.26 44.3191 333.26C44.3191 333.26 35.841 335.274 40.7797 326.15C46.0888 316.369 45.4303 317.026 45.4303 317.026Z" stroke="black" stroke-width="1.23467" stroke-miterlimit="10" stroke-linecap="round" stroke-linejoin="round"/>
<path d="M66.1328 314.602C66.1328 314.602 76.9156 308.684 87.9453 303.957C98.9751 299.272 99.7982 302.313 102.226 305.026" stroke="black" stroke-width="1.23467" stroke-miterlimit="10" stroke-linecap="round" stroke-linejoin="round"/>
<path d="M88.3516 328.903C88.3516 328.903 106.049 326.355 107.324 325.41" stroke="black" stroke-width="1.23467" stroke-miterlimit="10" stroke-linecap="round" stroke-linejoin="round"/>
<path d="M125.312 152.349L130.663 148.075C130.663 148.075 134.573 144.129 142.186 148.157C149.8 152.184 149.183 151.897 149.183 151.897" stroke="black" stroke-width="1.23467" stroke-miterlimit="10" stroke-linecap="round" stroke-linejoin="round"/>
<path d="M142.68 176.843C142.68 176.843 145.519 170.39 148.606 169.692" stroke="black" stroke-width="1.23467" stroke-miterlimit="10" stroke-linecap="round" stroke-linejoin="round"/>
<path d="M111.234 179.432C111.234 179.432 113.909 171.952 116.379 168.171C118.848 164.349 120.289 159.335 126.997 161.185C133.705 163.034 135.887 163.568 139.056 164.349C143.83 165.541 145.106 163.568 142.183 177.459" stroke="black" stroke-width="1.23467" stroke-miterlimit="10" stroke-linecap="round" stroke-linejoin="round"/>
<path d="M133.75 199.775L132.392 203.022C132.392 203.022 132.227 204.584 127.536 203.474C122.844 202.364 120.004 203.145 115.312 200.433" stroke="black" stroke-width="1.23467" stroke-miterlimit="10" stroke-linecap="round" stroke-linejoin="round"/>
<path d="M111.484 178.363C111.484 178.363 112.925 157.773 113.419 155.266C113.954 152.76 113.666 151.897 117.575 152.349C117.575 152.349 135.067 154.321 137.824 154.568C140.581 154.814 141.528 154.198 141.116 158.636C140.705 163.116 140.499 163.527 140.499 163.527" stroke="black" stroke-width="1.23467" stroke-miterlimit="10" stroke-linecap="round" stroke-linejoin="round"/>
<path d="M116.797 201.789C116.797 201.789 121.983 220.324 122.847 221.187C123.752 222.05 122.847 224.598 129.185 223.529C135.523 222.461 141.408 219.625 144.454 219.05C147.499 218.474 147.376 214.981 146.264 212.515C145.194 210.049 143.754 207.501 143.754 207.501" stroke="black" stroke-width="1.23467" stroke-miterlimit="10" stroke-linecap="round" stroke-linejoin="round"/>
<path d="M131.484 204.419C131.484 204.419 132.678 210.913 136.67 209.433C140.662 207.912 146.506 205.488 148.358 205.57C150.21 205.611 151.527 204.953 150.581 203.392C149.675 201.83 147.864 199.405 147.864 199.405" stroke="black" stroke-width="1.23467" stroke-miterlimit="10" stroke-linecap="round" stroke-linejoin="round"/>
<path d="M107.617 206.721L104.037 196.076C103.954 195.748 104.119 195.419 104.448 195.296C104.736 195.213 105.065 195.337 105.189 195.624L109.798 205.858C110.086 206.474 109.798 207.132 109.181 207.419C108.564 207.707 107.905 207.419 107.617 206.803C107.658 206.803 107.658 206.762 107.617 206.721Z" fill="black"/>
<path d="M107.454 193.734C107.742 194.515 108.03 195.337 108.4 196.076C108.73 196.857 109.059 197.638 109.47 198.378C109.841 199.118 110.252 199.857 110.664 200.556C111.076 201.255 111.528 201.912 112.063 202.446C112.475 202.899 112.393 203.556 111.981 203.967C111.528 204.378 110.87 204.296 110.458 203.885C110.417 203.844 110.417 203.844 110.376 203.803C109.8 203.063 109.388 202.241 108.935 201.419C108.565 200.638 108.236 199.816 107.865 198.994C107.536 198.172 107.289 197.35 107.001 196.569C106.754 195.748 106.507 194.926 106.26 194.104C106.178 193.775 106.384 193.446 106.713 193.364C107.001 193.241 107.33 193.446 107.454 193.734Z" fill="black"/>
<path d="M108.36 192.624L114.904 200.227C115.233 200.638 115.233 201.255 114.822 201.625C114.41 201.953 113.793 201.953 113.422 201.542L113.381 201.501L107.414 193.446C107.208 193.159 107.29 192.789 107.537 192.583C107.784 192.337 108.154 192.378 108.36 192.624Z" fill="black"/>
<path d="M101.276 158.184C100.988 158.225 100.659 158.431 100.412 158.595C100.165 158.76 99.9182 159.006 99.6712 159.212C99.4655 159.5 99.2597 159.705 99.0951 159.993C98.8893 160.28 98.7247 160.527 98.56 160.815C97.9015 161.965 97.4488 163.157 97.1196 164.39C96.955 165.048 96.8315 165.623 96.7903 166.281C96.7492 166.609 96.6669 166.938 96.708 167.267V168.212C96.708 168.377 96.6669 168.541 96.708 168.705L96.7492 169.199L96.8315 170.144C96.9138 170.76 97.0373 171.418 97.1607 172.034V172.075C97.2019 172.404 96.9961 172.733 96.6669 172.815C96.3376 172.897 96.0084 172.651 95.9261 172.322C95.9261 172.281 95.9261 172.24 95.9261 172.24C95.9261 171.582 95.8438 170.884 95.8438 170.226V169.199C95.8438 168.87 95.8849 168.541 95.8849 168.171L95.9672 167.144C96.0084 166.815 96.0907 166.486 96.1318 166.157C96.2553 165.5 96.4199 164.883 96.5846 164.185C96.955 162.911 97.5311 161.678 98.2308 160.486C98.56 159.91 98.9716 159.376 99.3831 158.842C99.5889 158.554 99.7535 158.308 100 158.02C100.206 157.691 100.371 157.445 100.577 157.075L100.618 157.034C100.824 156.664 101.235 156.582 101.606 156.787C101.976 156.993 102.058 157.404 101.852 157.773C101.647 158.061 101.482 158.143 101.276 158.184Z" fill="black"/>
<path d="M78.4785 164.431C80.2482 164.226 81.9356 164.226 83.6641 164.349C85.3927 164.472 87.0801 164.76 88.7674 165.335C90.4137 165.87 92.0187 166.692 93.418 167.842C94.1177 168.459 94.6939 169.116 95.2289 169.856C95.7228 170.596 96.0932 171.418 96.4224 172.281C96.5047 172.61 96.3401 172.938 96.052 173.062C95.7639 173.185 95.3935 172.98 95.2701 172.692V172.651C95.0231 171.87 94.6939 171.171 94.2823 170.473C93.8296 169.815 93.3357 169.199 92.7595 168.623C91.566 167.555 90.1256 166.774 88.5617 166.24C86.9977 165.664 85.3927 165.418 83.7053 165.253C82.0591 165.089 80.3305 165.048 78.7255 165.212C78.5197 165.253 78.2727 165.048 78.2727 164.842C78.067 164.637 78.2727 164.472 78.4785 164.431Z" fill="black"/>
<path d="M87.1199 185.679C87.4491 184.857 87.4491 184.035 87.5314 183.213C87.5726 182.391 87.6549 181.569 87.7784 180.747C87.9841 179.103 88.2722 177.459 88.7661 175.856C89.013 175.035 89.3423 174.254 89.795 173.514C90.2477 172.774 90.8239 172.034 91.647 171.582C92.4701 171.089 93.5402 171.007 94.4044 171.212C95.3099 171.418 96.0918 171.87 96.8326 172.281C97.1619 172.486 97.2442 172.815 97.0384 173.144C96.8326 173.473 96.5034 173.555 96.1741 173.35C96.1741 173.35 96.133 173.35 96.133 173.308H96.0918C95.4745 172.897 94.816 172.445 94.0752 172.24C93.3755 172.034 92.6347 172.075 92.0174 172.363C91.4001 172.692 90.865 173.267 90.4535 173.925C90.0008 174.582 89.7127 175.281 89.4657 176.062C88.9307 177.583 88.6426 179.185 88.4368 180.788C88.3134 181.61 88.2311 182.432 88.1899 183.254C88.1076 184.076 88.0664 184.898 88.3957 185.72C88.5192 186.049 88.3545 186.46 88.0253 186.583C87.696 186.706 87.2845 186.542 87.161 186.213C87.0376 186.008 87.0376 185.843 87.1199 185.679Z" fill="black"/>
<path d="M76.9542 166.034C75.3903 165.788 73.5794 165.952 72.2213 166.856C71.5628 167.308 70.9866 167.925 70.6985 168.705C70.5339 169.075 70.4104 169.445 70.3693 169.856C70.3281 170.267 70.287 170.678 70.3693 171.007C70.4516 171.336 70.7397 171.582 71.0689 171.664C71.4393 171.747 71.8097 171.664 72.1801 171.582C72.9621 171.336 73.7029 170.884 74.3614 170.39C75.0199 169.856 75.6372 169.281 76.0488 168.582C76.2545 168.212 76.4603 167.884 76.5015 167.555C76.5838 167.226 76.5015 166.938 76.378 166.774C76.1722 166.486 76.1722 166.116 76.4192 165.911C76.6661 165.705 77.0777 165.705 77.2834 165.952C77.3246 165.993 77.3657 166.034 77.4069 166.116C77.4892 166.24 77.5304 166.404 77.5715 166.568C77.6127 166.733 77.6127 166.856 77.6127 167.02C77.6127 167.185 77.6127 167.308 77.5715 167.473C77.5715 167.596 77.4892 167.76 77.4481 167.884C77.2834 168.377 76.9953 168.788 76.7072 169.116C76.0899 169.856 75.4314 170.432 74.6906 170.966C73.9498 171.5 73.1679 171.952 72.2624 172.199C71.8509 172.322 71.3159 172.404 70.8631 172.322C70.7397 172.322 70.6162 172.24 70.4927 172.199C70.3693 172.158 70.2458 172.034 70.1635 171.952C70.04 171.87 69.9577 171.747 69.9166 171.623C69.8342 171.5 69.8342 171.377 69.7519 171.295C69.5873 170.801 69.6285 170.349 69.6696 169.897C69.7108 169.445 69.8342 168.993 69.9989 168.582C70.3281 167.719 70.9454 166.938 71.6863 166.404C72.4271 165.87 73.2913 165.5 74.1968 165.294C75.1022 165.048 75.9664 164.966 76.9542 164.966C77.2834 164.966 77.5715 165.212 77.5715 165.582C77.5715 165.911 77.3246 166.199 76.9542 166.199C76.913 166.199 76.913 166.199 76.8719 166.199L76.9542 166.034Z" fill="black"/>
<path d="M77.6531 165.623C77.6531 165.623 79.4639 166.281 80.2047 167.39C80.9455 168.5 80.6986 170.226 80.6986 170.226C80.6986 170.226 77.2827 170.514 77.6531 165.623Z" stroke="black" stroke-width="1.23467" stroke-miterlimit="10" stroke-linecap="round" stroke-linejoin="round"/>
<path d="M76.8268 165.418C76.7445 165.418 76.621 165.377 76.5387 165.294C76.4564 165.212 76.3329 165.171 76.3741 165.171L76.3329 165.13L76.2094 165.007C76.1271 164.924 76.0448 164.883 76.0037 164.801C75.839 164.678 75.7567 164.472 75.5921 164.349C75.3452 164.02 75.0982 163.692 74.8925 163.322C74.4809 162.623 74.1105 161.842 73.987 161.02C73.987 160.897 73.9459 160.815 73.987 160.691L74.0282 160.363C73.987 160.157 74.0694 159.911 74.1517 159.705C74.1517 159.5 74.2751 159.294 74.3574 159.089C74.3986 158.883 74.5632 158.719 74.6867 158.554C74.9336 158.226 75.2217 157.897 75.551 157.65C75.9214 157.404 76.3741 157.239 76.8268 157.239C77.3207 157.239 77.7734 157.445 78.1026 157.732C78.4319 158.02 78.7199 158.308 78.9257 158.678C79.3373 159.376 79.6665 160.157 79.7077 161.02C79.7488 161.965 79.3373 162.746 78.8434 163.404C78.5965 163.733 78.3495 164.061 78.1026 164.349C77.9791 164.514 77.8145 164.637 77.6911 164.801L77.4441 165.007L77.3207 165.13L77.3618 165.212L77.3207 165.253L77.2795 165.294C77.2383 165.335 77.1972 165.335 77.156 165.377C76.9914 165.459 76.9091 165.459 76.8268 165.418ZM76.8679 164.185C76.7856 164.185 76.7033 164.185 76.621 164.185C76.5798 164.185 76.5387 164.226 76.5387 164.267C76.5387 164.267 76.4975 164.308 76.4975 164.267H76.5387L76.5799 164.226L76.7033 164.144L76.9091 163.979C77.0326 163.856 77.1972 163.774 77.3207 163.65C77.6087 163.445 77.8557 163.157 78.1026 162.911C78.5553 162.376 78.9257 161.719 78.9257 161.102C78.9669 160.445 78.6788 159.705 78.3495 159.089C77.9791 158.472 77.4441 157.979 76.8679 157.897C76.2918 157.897 75.6744 158.349 75.2629 158.924C74.8925 159.5 74.6867 160.157 74.8513 160.815C74.9336 161.472 75.304 162.13 75.7567 162.705C75.9625 163.034 76.2095 163.281 76.4564 163.527C76.5799 163.65 76.7033 163.815 76.8268 163.897C76.9091 163.938 76.9914 164.02 77.0326 164.061L77.156 164.144L77.1972 164.185C77.2383 164.226 77.156 164.144 77.0737 164.144C77.0326 164.226 76.9503 164.226 76.8679 164.185Z" fill="black"/>
<path d="M101.078 157.445C101.16 157.65 101.119 157.527 101.119 157.527L101.078 157.445L100.996 157.321L100.872 157.075L100.584 156.499C100.42 156.171 100.255 155.76 100.09 155.39C99.7611 154.65 99.4319 153.869 99.2672 153.088C99.1849 152.677 99.1026 152.266 99.1438 151.814C99.1849 151.568 99.2261 151.321 99.3907 151.116C99.5553 150.869 99.7611 150.746 100.008 150.622C100.461 150.499 100.913 150.54 101.325 150.622C101.737 150.746 102.107 150.828 102.477 150.951C103.218 151.239 104.041 151.568 104.617 152.184C104.906 152.513 105.194 152.842 105.276 153.335C105.399 153.746 105.399 154.239 105.276 154.691C105.029 155.595 104.453 156.253 103.877 156.828C103.589 157.116 103.3 157.404 102.93 157.691C102.765 157.856 102.56 157.938 102.272 158.061C102.148 158.102 101.942 158.143 101.613 158.061C101.448 158.02 101.284 157.897 101.243 157.732C101.202 157.65 101.16 157.609 101.119 157.527C101.119 157.486 101.119 157.445 101.078 157.445L101.037 157.362C101.119 157.362 101.119 157.404 101.078 157.445ZM102.272 157.034C102.272 157.075 102.313 157.116 102.313 157.157V157.116C102.272 157.075 102.272 157.075 102.272 157.034C102.189 156.993 102.107 156.952 102.066 156.91C101.942 156.869 101.942 156.91 101.984 156.91C102.066 156.91 102.23 156.869 102.354 156.746C102.642 156.582 102.971 156.335 103.3 156.13C103.424 156.006 103.63 155.883 103.753 155.76L103.918 155.554L104.082 155.349C104.329 155.102 104.494 154.773 104.617 154.445C104.864 153.828 104.659 153.088 104.165 152.554C103.671 152.02 102.971 151.691 102.23 151.403C101.49 151.157 100.667 150.91 100.09 151.075C99.5553 151.239 99.5965 152.143 99.8434 152.842C100.049 153.582 100.42 154.239 100.79 154.897C100.996 155.267 101.202 155.554 101.407 155.883L101.737 156.376L101.942 156.582L102.025 156.705L102.066 156.746C102.189 156.869 102.189 156.828 102.272 157.034Z" fill="black"/>
<path d="M101.322 158.554C101.076 159.089 100.87 159.746 100.705 160.363C100.582 160.979 100.458 161.637 100.499 162.253C100.541 162.87 100.746 163.445 101.281 163.404C101.569 163.404 101.858 163.281 102.146 163.157C102.434 163.034 102.722 162.87 102.969 162.705C103.504 162.335 103.998 161.924 104.286 161.39C104.615 160.897 104.697 160.28 104.409 159.787C104.121 159.294 103.627 158.924 103.051 158.678C102.516 158.431 101.899 158.267 101.322 158.267C100.993 158.267 100.705 158.02 100.705 157.65C100.746 157.28 100.952 157.034 101.322 157.034C101.364 157.034 101.446 157.034 101.487 157.034C102.228 157.239 102.845 157.527 103.463 157.938C104.039 158.308 104.615 158.842 104.944 159.541C105.109 159.869 105.15 160.321 105.109 160.691C105.068 161.061 104.903 161.431 104.697 161.719C104.286 162.294 103.792 162.746 103.216 163.116C102.969 163.281 102.639 163.486 102.351 163.65C102.063 163.774 101.693 163.938 101.322 163.979C101.117 164.02 100.911 163.938 100.705 163.897C100.499 163.815 100.376 163.65 100.252 163.486C100.047 163.116 99.9644 162.787 99.882 162.417C99.7997 161.719 99.7997 161.061 99.882 160.363C99.9644 159.664 100.047 159.006 100.129 158.308C100.17 157.979 100.499 157.732 100.829 157.815C101.158 157.897 101.405 158.184 101.322 158.513C101.322 158.472 101.322 158.513 101.322 158.554Z" fill="black"/>
<path d="M102.223 156.582C102.882 156.294 103.499 156.089 104.199 155.924C104.898 155.76 105.598 155.678 106.298 155.842C106.668 155.924 107.038 156.089 107.327 156.294C107.615 156.541 107.862 156.828 107.985 157.198C108.314 157.856 108.355 158.554 108.355 159.212C108.355 159.541 108.273 159.911 108.15 160.281C108.026 160.65 107.615 160.979 107.203 161.02C106.791 161.103 106.421 161.02 106.092 160.938C105.721 160.815 105.392 160.692 105.145 160.527C104.569 160.198 104.034 159.787 103.499 159.335C103.005 158.883 102.511 158.349 102.182 157.65C102.059 157.363 102.182 156.993 102.47 156.828C102.758 156.705 103.129 156.828 103.293 157.116C103.334 157.157 103.334 157.198 103.334 157.239C103.458 157.733 103.787 158.267 104.158 158.719C104.528 159.171 104.981 159.582 105.516 159.911C106.01 160.239 106.627 160.486 107.08 160.404C107.327 160.404 107.45 160.239 107.615 159.993C107.738 159.746 107.779 159.459 107.779 159.171C107.779 158.596 107.697 157.938 107.45 157.445C107.203 156.911 106.75 156.582 106.215 156.541C105.104 156.376 103.869 156.993 102.882 157.609L102.841 157.65C102.594 157.815 102.182 157.733 101.976 157.486C101.812 157.239 101.894 156.828 102.141 156.623C102.141 156.623 102.182 156.623 102.223 156.582Z" fill="black"/>
<path d="M100.705 157.609C100.129 157.321 99.4705 156.992 98.8532 156.869C98.524 156.787 98.2359 156.787 97.9889 156.787C97.742 156.828 97.6185 156.91 97.4951 157.075C97.4127 157.28 97.3716 157.527 97.4127 157.856C97.4127 158.184 97.4539 158.513 97.5362 158.801C97.6185 159.088 97.742 159.417 97.8655 159.623C97.9478 159.705 98.0301 159.787 98.0712 159.91C98.1124 159.952 98.1536 159.952 98.1947 159.952H98.2359C98.5651 159.993 98.812 160.239 98.812 160.609C98.812 160.979 98.524 161.184 98.1536 161.184C97.9889 161.184 97.9478 161.184 97.8655 161.102C97.7832 161.102 97.742 161.061 97.6597 161.02C97.5362 160.979 97.4127 160.856 97.3304 160.773C97.1247 160.609 96.96 160.404 96.8366 160.239C96.5896 159.828 96.4662 159.417 96.3839 159.047C96.3015 158.677 96.2604 158.267 96.2604 157.897C96.2604 157.527 96.2192 157.034 96.4662 156.54C96.5896 156.294 96.7954 156.088 97.0012 155.924C97.207 155.76 97.4951 155.677 97.742 155.677C98.1947 155.595 98.6063 155.677 99.0178 155.76C99.4294 155.842 99.7998 155.965 100.129 156.088C100.499 156.212 100.829 156.376 101.199 156.54C101.528 156.705 101.652 157.075 101.487 157.362C101.323 157.691 100.952 157.814 100.664 157.65C100.746 157.609 100.746 157.609 100.705 157.609Z" fill="black"/>
<path d="M87.0823 186.624C87.2058 186.254 87.3293 186.008 87.4939 185.72C87.6585 185.432 87.8231 185.186 88.0289 184.898C88.2758 184.651 88.4816 184.405 88.8109 184.24C89.1401 184.076 89.5105 184.035 89.8397 184.035C90.5394 184.117 91.0744 184.446 91.5271 184.775C91.9798 185.145 92.4326 185.514 92.8441 186.008C93.0499 186.213 93.2145 186.501 93.338 186.788C93.4615 187.076 93.5849 187.446 93.4615 187.775C93.3791 188.145 93.1322 188.391 92.8441 188.638C92.5972 188.802 92.2679 188.967 91.9798 189.049C91.3625 189.254 90.7452 189.254 90.0867 189.254C89.4693 189.254 88.8109 189.09 88.1935 188.843C87.8643 188.72 87.7408 188.35 87.8643 188.021C87.9877 187.693 88.3581 187.569 88.6874 187.693C88.7285 187.693 88.8109 187.734 88.852 187.775C89.634 188.391 90.8275 188.638 91.8564 188.432C92.3502 188.35 92.8853 188.104 93.0087 187.693C93.1322 187.241 92.8441 186.747 92.5149 186.336C92.1856 185.884 91.7329 185.514 91.3214 185.186C90.8686 184.857 90.3336 184.651 89.8397 184.651C89.3459 184.651 88.9343 184.98 88.6874 185.391C88.4405 185.802 88.317 186.377 88.317 186.871C88.317 187.199 88.0701 187.487 87.6585 187.528C87.3292 187.528 87.0412 187.282 87 186.871C87.0412 186.788 87.0823 186.706 87.0823 186.624Z" fill="black"/>
<path d="M87.2438 187.98C86.7088 187.651 86.0503 187.364 85.433 187.24C84.7745 187.076 84.116 187.076 83.6221 187.364C83.0871 187.651 82.8402 188.268 82.7579 188.925C82.7167 189.254 82.7167 189.583 82.7579 189.953C82.7579 190.282 82.799 190.651 82.8402 190.98C82.8813 191.679 83.0048 192.377 83.2106 192.994C83.2929 193.282 83.5398 193.569 83.7045 193.61C83.9102 193.651 84.1572 193.528 84.4453 193.364C84.9391 192.953 85.3918 192.419 85.8034 191.884C86.1738 191.309 86.5854 190.734 86.9146 190.117C87.0792 189.788 87.4496 189.706 87.7789 189.871C88.1081 190.035 88.1904 190.405 88.0258 190.734C88.0258 190.775 87.9846 190.816 87.9435 190.857C87.4496 191.391 86.9558 191.925 86.4619 192.46C86.215 192.706 85.968 192.994 85.6799 193.199C85.3918 193.446 85.1449 193.693 84.8157 193.898C84.651 194.021 84.4453 194.104 84.2806 194.186C84.0749 194.268 83.8279 194.309 83.581 194.186C83.3341 194.104 83.1694 193.939 83.046 193.775C82.9225 193.61 82.8402 193.405 82.799 193.241C82.5932 192.501 82.4698 191.802 82.4286 191.103C82.3875 190.405 82.264 189.706 82.3052 188.925C82.3463 188.555 82.3875 188.186 82.5521 187.775C82.7167 187.405 83.0048 187.076 83.2929 186.829C83.9925 186.377 84.8157 186.336 85.5565 186.418C86.3384 186.501 87.0381 186.665 87.7789 186.911C88.1081 187.035 88.2727 187.364 88.1493 187.692C88.0258 188.021 87.6966 188.186 87.3673 188.062C87.3262 188.021 87.285 187.98 87.2438 187.98Z" fill="black"/>
<path d="M87.818 187.898C88.5588 188.103 89.1761 188.309 89.8346 188.556C90.4519 188.802 91.1516 189.09 91.7277 189.542C91.9747 189.788 92.3039 190.035 92.4274 190.446C92.592 190.816 92.5097 191.268 92.3451 191.597C92.0158 192.254 91.4397 192.748 90.9458 193.158C90.4108 193.569 89.8346 194.022 89.0938 194.186C88.7645 194.268 88.353 194.309 87.9826 194.104C87.6122 193.939 87.3241 193.611 87.2006 193.282C87.036 192.953 86.9537 192.583 86.8714 192.213C86.8302 191.843 86.8302 191.515 86.7891 191.145C86.7891 190.446 86.8714 189.706 86.9948 189.008C87.036 188.679 87.3241 188.432 87.6945 188.514C88.0649 188.597 88.2707 188.843 88.1884 189.213C88.1884 189.295 88.1884 189.336 88.1472 189.419C87.8591 189.994 87.6122 190.61 87.5299 191.268C87.4476 191.884 87.3652 192.583 87.6122 193.117C87.6945 193.405 87.9003 193.652 88.1472 193.734C88.3941 193.898 88.7234 193.857 89.0115 193.816C89.5877 193.652 90.1638 193.323 90.6989 192.871C91.1927 192.419 91.6866 191.967 91.9335 191.432C92.057 191.145 92.0158 190.857 91.9335 190.61C91.8512 190.364 91.6043 190.158 91.3162 189.994C90.8223 189.665 90.1638 189.46 89.5053 189.336C88.8469 189.172 88.1884 189.131 87.571 189.131C87.2418 189.131 86.9537 188.884 86.9537 188.514C86.9537 188.186 87.2006 187.898 87.571 187.898C87.6945 187.857 87.7768 187.857 87.818 187.898Z" fill="black"/>
<path d="M138.893 16.2335C138.646 17.2609 138.399 18.3706 138.193 19.4802C137.987 20.5898 137.864 21.6584 137.782 22.768C137.617 24.9873 137.617 27.2065 137.864 29.4258C137.987 30.4943 138.193 31.604 138.44 32.7136C138.728 33.7821 139.016 34.8507 139.469 35.8781C139.922 36.8644 140.416 37.8508 140.992 38.796C141.28 39.2892 141.609 39.7002 141.938 40.1111C142.144 40.3166 142.309 40.5221 142.514 40.7276C142.72 40.9331 142.885 41.1386 143.091 41.303L143.708 41.8372C143.914 42.0016 144.12 42.166 144.366 42.3715C144.778 42.7414 145.272 43.0291 145.725 43.3168C146.177 43.6044 146.712 43.851 147.165 44.1387L147.906 44.5497C148.153 44.7141 148.4 44.8374 148.647 44.9607L150.169 45.7004L150.581 45.9059L150.993 46.0703L151.775 46.3991C152.803 46.81 153.915 47.1388 154.985 47.5087C157.166 48.0841 159.388 48.4539 161.652 48.5361C162.228 48.5361 162.763 48.5361 163.339 48.5361C163.874 48.495 164.45 48.495 164.986 48.4128C165.521 48.3307 166.097 48.2896 166.673 48.1663C166.92 48.1252 167.208 48.043 167.496 47.9608C167.743 47.8786 168.031 47.7142 168.196 47.5087C168.443 47.1799 168.895 47.0977 169.225 47.3032C169.554 47.5498 169.636 48.0019 169.43 48.3307C169.266 48.5772 169.019 48.6594 168.731 48.6183H168.648C168.278 48.5772 167.99 48.5772 167.702 48.6594L166.838 48.8649C166.261 48.9882 165.685 49.0704 165.109 49.1526C164.533 49.2759 163.957 49.2759 163.339 49.317C162.763 49.3581 162.187 49.3581 161.611 49.3581C159.306 49.3581 156.96 49.0293 154.697 48.495C153.585 48.1663 152.433 47.9197 151.363 47.4676L150.54 47.1799L150.128 47.0155L149.717 46.8511L148.112 46.1525C147.824 46.0292 147.618 45.9059 147.33 45.7826L146.548 45.3716C146.054 45.084 145.519 44.8785 145.025 44.5086C144.531 44.1798 143.996 43.8921 143.543 43.4811C143.296 43.2757 143.05 43.1524 142.844 42.9058L142.144 42.2893C141.897 42.0838 141.733 41.8783 141.486 41.6318C141.28 41.4263 141.074 41.2208 140.868 41.0153C140.498 40.5632 140.086 40.1111 139.757 39.5769C139.057 38.5905 138.522 37.5631 137.987 36.4946C137.452 35.426 137.123 34.2753 136.794 33.1657C136.506 32.0149 136.218 30.8642 136.094 29.7135C135.724 27.3709 135.683 25.0284 135.724 22.6447C135.765 21.4529 135.847 20.3021 136.012 19.1103C136.177 17.9185 136.3 16.7678 136.588 15.5759C136.753 14.9184 137.411 14.5074 138.029 14.6307C138.687 14.7951 139.099 15.4526 138.975 16.0691C138.893 16.1513 138.893 16.1513 138.893 16.2335Z" fill="black"/>
<path d="M168.237 47.2212C167.744 46.3993 167.332 45.5773 167.044 44.6732C166.756 43.769 166.55 42.8649 166.591 41.9197C166.632 40.9744 167.003 39.9881 167.62 39.2483C167.949 38.9195 168.32 38.5908 168.69 38.3031C169.102 38.0565 169.472 37.851 169.966 37.6866C170.378 37.5222 170.913 37.3989 171.406 37.3989C171.9 37.3989 172.435 37.5222 172.847 37.8099C173.258 38.0976 173.547 38.5497 173.752 38.9606C173.958 39.4127 174.082 39.8648 174.164 40.3168C174.287 41.221 174.246 42.2073 173.958 43.1526C173.711 44.0978 173.258 45.002 172.394 45.7006C172.106 45.9061 171.736 45.8239 171.53 45.5773C171.324 45.2896 171.406 44.9198 171.653 44.7143C171.694 44.6732 171.736 44.6732 171.736 44.6321C172.353 44.3033 172.847 43.6047 173.135 42.8649C173.423 42.1251 173.547 41.2621 173.505 40.4401C173.423 39.6182 173.135 38.7962 172.518 38.3031C171.9 37.8099 171.036 37.8921 170.254 38.2209C169.472 38.5086 168.731 39.0017 168.237 39.6182C167.744 40.2347 167.455 41.0155 167.455 41.8375C167.455 42.6594 167.661 43.4814 168.032 44.2622C168.361 45.0431 168.855 45.7828 169.349 46.3993C169.554 46.687 169.554 47.0568 169.266 47.2623C168.978 47.4678 168.608 47.4678 168.402 47.1801C168.279 47.2623 168.279 47.2623 168.237 47.2212Z" fill="black"/>
<path d="M170.21 45.7006C170.91 45.043 171.568 44.4265 172.35 43.8923C172.762 43.6457 173.132 43.3991 173.626 43.2347C174.038 43.0703 174.573 42.947 175.067 42.947C175.561 42.9881 176.054 43.2347 176.425 43.5635C176.754 43.9334 177.001 44.3032 177.166 44.7553C177.536 45.6184 177.742 46.5225 177.865 47.4267C177.906 47.6321 177.906 47.8787 177.906 48.1253C177.865 48.3719 177.906 48.5774 177.865 48.824C177.824 49.276 177.701 49.8103 177.289 50.1802C176.878 50.5501 176.301 50.6323 175.849 50.5912C175.355 50.5501 174.902 50.4268 174.49 50.2624C173.626 49.9336 172.844 49.4815 172.021 49.0295C171.239 48.5774 170.457 48.0431 169.716 47.5499C169.428 47.3445 169.346 46.9746 169.552 46.6869C169.758 46.3992 170.128 46.317 170.416 46.5225C170.457 46.5225 170.457 46.5636 170.498 46.5636C171.116 47.139 171.774 47.7554 172.474 48.2486C172.803 48.5363 173.174 48.7829 173.544 48.9884C173.914 49.2349 174.285 49.4404 174.696 49.6048C175.108 49.7692 175.478 49.9336 175.89 49.9747C176.301 50.0569 176.672 49.9747 176.96 49.7281C177.248 49.5226 177.371 49.1116 177.413 48.7007C177.454 48.4952 177.454 48.2897 177.413 48.0842C177.371 47.8787 177.371 47.6732 177.371 47.4267C177.248 46.5636 177.083 45.6595 176.754 44.8786C176.589 44.5087 176.384 44.1388 176.054 43.8512C175.766 43.5635 175.396 43.3991 175.026 43.4402C174.244 43.4402 173.503 43.9334 172.844 44.4676C172.227 45.043 171.61 45.7006 171.157 46.3992C170.951 46.6869 170.581 46.7691 170.293 46.6047C170.087 46.317 170.005 45.9471 170.21 45.7006C170.169 45.6595 170.128 45.7006 170.21 45.7006Z" fill="black"/>
<path d="M169.472 47.0979C170.418 47.4678 171.324 47.8787 172.229 48.3719C173.135 48.824 174.04 49.2761 174.863 49.8925C175.275 50.1802 175.728 50.509 176.098 50.92C176.304 51.0844 176.468 51.3309 176.633 51.5775C176.715 51.7008 176.756 51.8241 176.839 51.9885C176.88 52.1529 176.921 52.2762 176.921 52.4817C176.962 52.6461 176.88 52.8104 176.88 53.0159C176.839 53.1803 176.756 53.3447 176.674 53.468C176.592 53.5913 176.468 53.7557 176.386 53.7968L176.221 53.9612L176.057 54.0845C175.604 54.4133 175.11 54.6598 174.616 54.8242C173.587 55.153 172.559 55.2352 171.53 55.1941C170.501 55.153 169.431 54.9064 168.525 54.3311C168.073 54.0434 167.62 53.6324 167.373 53.0981C167.085 52.5228 167.044 51.9063 167.167 51.3309C167.414 50.1802 168.031 49.3172 168.69 48.4541C168.896 48.1664 169.307 48.1253 169.554 48.3308C169.842 48.5363 169.883 48.9473 169.678 49.1939C169.678 49.1939 169.678 49.235 169.637 49.235L169.595 49.2761C169.472 49.4815 169.266 49.6048 169.143 49.8103C169.019 50.0158 168.855 50.1391 168.731 50.3446C168.484 50.7145 168.278 51.1254 168.196 51.5364C168.114 51.9474 168.114 52.3173 168.278 52.6872C168.443 53.0159 168.731 53.3447 169.101 53.5913C169.842 54.0845 170.789 54.29 171.694 54.3722C172.641 54.4133 173.587 54.3311 174.452 54.0434C174.863 53.879 175.316 53.7146 175.645 53.468C175.975 53.2214 176.221 52.8926 176.18 52.605C176.18 52.3173 175.933 51.9063 175.604 51.6186C175.316 51.2898 174.904 51.0022 174.493 50.7556C172.888 49.7281 171.036 48.9884 169.225 48.413C168.896 48.2897 168.731 47.9609 168.855 47.6322C168.978 47.3034 169.307 47.139 169.637 47.2623C169.431 47.0568 169.431 47.0568 169.472 47.0979Z" fill="black"/>
<path d="M151.565 46.4815C151.524 46.3582 151.565 46.2349 151.565 46.1116C151.606 45.9472 151.606 45.9883 151.606 45.9472L151.647 45.865L151.73 45.6596L151.936 45.2897L152.306 44.5499C152.512 44.0157 152.759 43.5636 153.006 43.0293C153.417 42.0019 153.87 41.0155 154.24 39.9881C154.405 39.4538 154.57 38.9607 154.775 38.4264C154.858 38.1798 154.899 37.8921 154.981 37.6455C154.981 37.5223 155.063 37.3579 155.105 37.1935C155.146 37.0291 155.228 36.8647 155.31 36.7414C155.598 36.166 156.257 35.6729 156.957 35.5907C157.656 35.5085 158.438 35.8373 158.809 36.3715C159.261 36.9058 159.385 37.5633 159.426 38.2209C159.467 38.8785 159.344 39.4538 159.179 40.0292C158.85 41.1388 158.315 42.1663 157.739 43.1526C157.162 44.139 156.463 45.0842 155.557 45.865C155.105 46.276 154.57 46.6459 153.993 46.8103C153.705 46.8925 153.335 47.0158 152.964 47.0158C152.8 47.0569 152.594 47.0158 152.429 47.0158C152.347 47.0158 152.265 47.0158 152.141 46.9336C152.1 46.9336 152.059 46.9336 151.977 46.8925L151.894 46.8514C151.853 46.8514 151.853 46.8103 151.812 46.8103C151.689 46.7281 151.606 46.6048 151.565 46.4815ZM152.718 46.1116C152.676 45.9883 152.594 45.9061 152.512 45.7829C152.471 45.7829 152.471 45.7418 152.429 45.7418H152.471H152.512C152.553 45.7418 152.594 45.7418 152.635 45.7829C152.718 45.7829 152.841 45.7829 152.923 45.8239C153.129 45.8239 153.335 45.7829 153.541 45.7007C153.952 45.5774 154.405 45.2897 154.816 45.002C155.598 44.3444 156.257 43.4814 156.833 42.5772C157.08 42.1252 157.409 41.632 157.615 41.1799C157.862 40.7279 158.068 40.2347 158.191 39.7004C158.315 39.2072 158.397 38.673 158.438 38.1798C158.479 37.6866 158.315 37.2346 158.068 36.8647C157.821 36.4948 157.409 36.3304 156.998 36.3715C156.586 36.4126 156.216 36.7003 156.01 37.0702C155.969 37.1524 155.928 37.2757 155.845 37.399C155.845 37.5223 155.804 37.6044 155.722 37.7688C155.64 38.0565 155.598 38.3442 155.516 38.6319C155.393 39.2072 155.146 39.7004 154.981 40.2347C154.611 41.3032 154.24 42.3718 153.829 43.3992L153.211 44.9609L152.882 45.7418L152.718 46.1527L152.676 46.3582L152.635 46.4404C152.635 46.4404 152.635 46.5226 152.635 46.3993C152.8 46.276 152.759 46.1527 152.718 46.1116Z" fill="black"/>
<path d="M140.828 84.8666C140.828 84.8666 143.009 84.2913 143.092 83.0583" stroke="black" stroke-width="0.823116" stroke-miterlimit="10" stroke-linecap="round" stroke-linejoin="round"/>
<path d="M145.399 86.0173C145.399 86.0173 144.452 87.127 142.93 86.7571" stroke="black" stroke-width="0.823116" stroke-miterlimit="10" stroke-linecap="round" stroke-linejoin="round"/>
<path d="M87.6953 95.9216C87.6953 95.9216 90.5762 97.6477 92.1401 96.4148" stroke="black" stroke-width="0.823116" stroke-miterlimit="10" stroke-linecap="round" stroke-linejoin="round"/>
<path d="M87.4062 99.0863C87.4062 99.0863 90.4929 99.5794 91.3984 98.3054" stroke="black" stroke-width="0.823116" stroke-miterlimit="10" stroke-linecap="round" stroke-linejoin="round"/>
</svg>
