<svg width="170" height="55" viewBox="0 0 170 55" fill="none" xmlns="http://www.w3.org/2000/svg">
<path d="M43.7127 43.3096C43.6343 43.7019 43.3204 44.0157 42.8497 44.0157C29.3547 42.525 17.5858 45.6633 9.81828 49.194C9.81828 49.194 9.73982 49.194 9.73982 49.2725C5.50302 51.2339 2.52156 53.2739 1.26621 54.7646C1.10929 54.9215 0.873915 55 0.716996 55C0.560077 55 0.324699 54.9215 0.24624 54.8431C-0.0675977 54.5292 -0.0675972 54.0585 0.16778 53.7447C1.50159 52.2539 4.48304 50.1355 8.79831 48.0956V33.6591C3.93383 33.2668 0.0108615 28.7946 0.0108615 23.4593C-0.0675986 19.0656 5.50301 6.27675 7.93525 1.01997C8.24909 0.392297 8.79831 0 9.50444 0C10.2106 0 10.7598 0.392297 11.0736 1.01997C13.4274 6.27675 18.998 19.0656 18.998 23.3809C18.998 28.7946 15.1535 33.1883 10.2106 33.5806V47.311C15.6243 44.9572 22.7641 42.8388 30.9238 42.2111V31.8545C27.1578 31.4622 24.2548 28.0884 24.2548 23.9301C24.2548 20.7917 27.9424 12.0827 30.1392 7.21826C30.4531 6.59058 31.0023 6.19829 31.7084 6.19829C32.4146 6.19829 32.9638 6.59058 33.2776 7.21826C35.4745 12.0827 39.1621 20.7917 39.1621 23.9301C39.1621 28.0884 36.1806 31.4622 32.493 31.8545V42.1327C35.8668 41.9757 39.3974 41.9757 43.0066 42.368C43.4773 42.4465 43.7912 42.8388 43.7127 43.3096ZM31.7084 30.4422C35.0037 30.4422 37.6713 27.5392 37.6713 23.9301C37.6713 21.8902 35.5529 15.8488 31.8653 7.84593C31.8653 7.76747 31.7869 7.76747 31.7084 7.76747C31.63 7.76747 31.5515 7.76747 31.5515 7.84593C27.9424 15.8488 25.7455 21.8902 25.7455 23.9301C25.824 27.4608 28.4916 30.4422 31.7084 30.4422ZM9.50444 32.1683C13.8982 32.1683 17.5073 28.2454 17.5073 23.3809C17.5073 19.2225 11.5444 5.64907 9.66136 1.64764C9.66136 1.56919 9.5829 1.56919 9.50444 1.56919C9.42598 1.56919 9.34752 1.56919 9.34752 1.64765C7.54296 5.72753 1.50159 19.2225 1.50159 23.3809C1.50159 28.1669 5.11072 32.1683 9.50444 32.1683ZM59.8753 37.0328H61.6014V32.9529H65.8382V31.5407H61.6014V28.873H66.0736V27.4608H59.8753C59.8753 27.4608 59.8753 37.0328 59.8753 37.0328ZM71.2519 37.0328H72.7427V33.0314C72.7427 32.7175 72.6642 32.4037 72.5857 32.0899C72.5073 31.776 72.3504 31.4622 72.115 31.2268C71.8796 30.9914 71.5658 30.7561 71.2519 30.5991C70.8596 30.4422 70.3889 30.3638 69.8397 30.3638C69.3689 30.3638 68.8197 30.4422 68.3489 30.5991C67.8782 30.7561 67.4074 30.9914 67.0936 31.3837L67.9566 32.4037C68.192 32.1683 68.4274 32.0114 68.7412 31.8545C69.0551 31.6976 69.3689 31.6191 69.7612 31.6191C70.1535 31.6191 70.5458 31.6976 70.7812 31.933C71.095 32.0899 71.2519 32.4037 71.2519 32.8745V32.9529C70.7812 32.9529 70.232 32.9529 69.6828 33.0314C69.1335 33.1098 68.6628 33.1883 68.2705 33.3452C67.7997 33.5021 67.4859 33.7375 67.1721 33.9729C66.8582 34.2867 66.7798 34.679 66.7798 35.1498C66.7798 35.5421 66.8582 35.8559 67.0151 36.0913C67.1721 36.3267 67.4074 36.562 67.6428 36.719C67.8782 36.8759 68.1136 36.9543 68.4274 37.0328C68.7412 37.1113 68.9766 37.1113 69.212 37.1113C69.6828 37.1113 70.0751 37.0328 70.4673 36.7974C70.8596 36.6405 71.095 36.4051 71.2519 36.0913H71.3304V37.0328H71.2519V37.0328ZM71.2519 34.2867C71.2519 34.8359 71.095 35.2282 70.7812 35.5421C70.4673 35.8559 70.0751 36.0128 69.5258 36.0128C69.3689 36.0128 69.2905 36.0128 69.1335 35.9344C68.9766 35.9344 68.8982 35.8559 68.7412 35.7775C68.6628 35.699 68.5059 35.6205 68.5059 35.5421C68.5059 35.4636 68.3489 35.3067 68.3489 35.1498C68.3489 34.9144 68.4274 34.679 68.5843 34.6006C68.7412 34.5221 68.9766 34.3652 69.212 34.2867C69.4474 34.2083 69.7612 34.1298 69.9966 34.1298C70.3104 34.1298 70.5458 34.1298 70.8596 34.1298H71.2519C71.2519 34.1298 71.2519 34.2867 71.2519 34.2867ZM81.4517 30.6776C81.0594 30.913 80.824 31.2268 80.5886 31.6191C80.4317 31.2268 80.1178 30.913 79.804 30.7561C79.4902 30.5991 79.0194 30.4422 78.5487 30.4422C78.3133 30.4422 78.0779 30.4422 77.8425 30.5207C77.6071 30.5991 77.4502 30.6776 77.2933 30.8345C77.1364 30.9914 76.9795 31.0699 76.8226 31.2268C76.6656 31.3837 76.5872 31.5407 76.5087 31.6976V30.6776H74.9395V37.1897H76.5872V33.5806C76.5872 33.3452 76.5872 33.1098 76.6656 32.9529C76.7441 32.7175 76.8225 32.5606 76.901 32.4037C76.9795 32.2468 77.1364 32.0899 77.3718 32.0114C77.5287 31.9329 77.7641 31.8545 77.9994 31.8545C78.3917 31.8545 78.7056 32.0114 78.941 32.2468C79.1763 32.4822 79.2548 32.8745 79.2548 33.2668V37.1897H80.9024V33.6591C80.9024 33.4237 80.9024 33.2668 80.9809 33.0314C81.0594 32.796 81.1378 32.6391 81.2163 32.4822C81.2947 32.3252 81.4517 32.1683 81.687 32.0899C81.9224 32.0114 82.0793 31.9329 82.3147 31.9329C82.5501 31.9329 82.7855 32.0114 82.9424 32.0899C83.0993 32.1683 83.2562 32.3252 83.3347 32.4822C83.4131 32.6391 83.4916 32.8745 83.4916 33.0314C83.4916 33.2668 83.5701 33.4237 83.5701 33.6591V37.2682H85.2177V32.9529C85.2177 32.6391 85.1392 32.3252 85.0608 32.0114C84.9823 31.6976 84.8254 31.3837 84.6685 31.1484C84.5116 30.913 84.1977 30.6776 83.8839 30.5207C83.5701 30.3638 83.1778 30.2853 82.7855 30.2853C82.2362 30.3638 81.7655 30.4422 81.4517 30.6776ZM87.4146 29.03C87.5715 29.1869 87.8853 29.3438 88.1207 29.3438C88.4345 29.3438 88.6699 29.2653 88.9053 29.03C89.1407 28.873 89.2191 28.6377 89.2191 28.3238C89.2191 28.01 89.1407 27.7746 88.9053 27.6177C88.6699 27.4608 88.4345 27.3038 88.1207 27.3038C87.8069 27.3038 87.5715 27.3823 87.4146 27.6177C87.2576 27.8531 87.1007 28.01 87.1007 28.3238C87.1007 28.5592 87.1792 28.7946 87.4146 29.03ZM87.3361 37.0328H88.9837V30.5207H87.3361V37.0328ZM91.2591 37.0328H92.9067V26.7546H91.2591V37.0328ZM96.9081 37.0328L96.5943 37.8959C96.5158 38.0528 96.4374 38.2097 96.3589 38.3666C96.2805 38.5235 96.202 38.602 96.1235 38.6805C96.0451 38.7589 95.9666 38.8374 95.8097 38.8374C95.6528 38.8374 95.5743 38.9158 95.339 38.9158C95.2605 38.9158 95.182 38.9158 95.0251 38.9158C94.9467 38.9158 94.7897 38.9158 94.7113 38.8374L94.5544 40.2496C94.7113 40.2496 94.8682 40.3281 94.9467 40.3281C95.1036 40.3281 95.2605 40.3281 95.339 40.3281C95.7313 40.3281 96.0451 40.2496 96.2805 40.1712C96.5159 40.0927 96.7512 39.9358 96.9866 39.7789C97.222 39.622 97.3789 39.465 97.4574 39.2297C97.6143 38.9943 97.6927 38.7589 97.8497 38.4451L100.91 30.5207H99.1835L97.5358 35.2282L95.7312 30.5207H93.9267L96.9081 37.0328ZM106.088 37.0328H109.462C110.089 37.0328 110.717 36.9543 111.345 36.719C111.972 36.562 112.522 36.2482 113.071 35.8559C113.542 35.4636 114.012 34.9929 114.326 34.3652C114.64 33.7375 114.797 33.0314 114.797 32.1683C114.797 31.2268 114.64 30.5207 114.326 29.893C114.012 29.2653 113.62 28.7946 113.071 28.4023C112.6 28.01 111.972 27.7746 111.345 27.6177C110.717 27.4608 110.089 27.3823 109.462 27.3823H106.088V37.0328ZM107.814 35.5421V28.873H109.226C109.697 28.873 110.089 28.9515 110.56 29.03C111.031 29.1084 111.423 29.2653 111.737 29.5007C112.129 29.7361 112.365 30.0499 112.6 30.5207C112.835 30.9914 112.914 31.5406 112.914 32.1683C112.914 32.796 112.835 33.3452 112.6 33.816C112.365 34.2083 112.051 34.6006 111.737 34.8359C111.345 35.0713 110.952 35.2282 110.56 35.3852C110.089 35.4636 109.697 35.5421 109.226 35.5421C109.226 35.5421 107.814 35.5421 107.814 35.5421ZM122.643 32.3252C122.486 31.8545 122.251 31.5407 122.015 31.2268C121.701 30.913 121.387 30.6776 120.995 30.5991C120.603 30.4422 120.211 30.3638 119.74 30.3638C119.269 30.3638 118.798 30.4422 118.406 30.5991C118.014 30.7561 117.621 30.9914 117.308 31.3053C116.994 31.6191 116.758 32.0114 116.601 32.4037C116.445 32.796 116.366 33.3452 116.366 33.816C116.366 34.3652 116.445 34.8359 116.601 35.2282C116.758 35.6205 116.994 36.0128 117.308 36.3267C117.621 36.6405 118.014 36.8759 118.406 37.0328C118.798 37.1897 119.269 37.2682 119.818 37.2682C121.074 37.2682 121.937 36.7974 122.643 35.9344L121.544 35.0713C121.387 35.3067 121.152 35.5421 120.838 35.699C120.524 35.8559 120.211 35.9344 119.818 35.9344C119.583 35.9344 119.348 35.8559 119.112 35.7775C118.877 35.699 118.72 35.6205 118.563 35.4636C118.406 35.3067 118.249 35.1498 118.171 34.9929C118.092 34.8359 118.014 34.6006 118.014 34.3652H122.957C122.957 34.2867 122.957 34.2083 122.957 34.1298C122.957 34.0514 122.957 33.9729 122.957 33.8944C122.878 33.2668 122.8 32.796 122.643 32.3252ZM117.857 33.1098C117.857 32.6391 118.092 32.2468 118.406 32.0114C118.72 31.776 119.191 31.5407 119.661 31.5407C119.897 31.5407 120.132 31.6191 120.367 31.6976C120.524 31.776 120.76 31.9329 120.838 32.0114C120.995 32.1683 121.074 32.3253 121.152 32.4822C121.231 32.6391 121.231 32.8745 121.231 33.1098H117.857ZM124.683 37.0328H126.33V33.4237C126.33 33.1883 126.33 32.9529 126.409 32.796C126.487 32.5606 126.566 32.4037 126.723 32.2468C126.88 32.0899 127.037 31.9329 127.193 31.8545C127.35 31.776 127.586 31.6976 127.9 31.6976C128.213 31.6976 128.37 31.776 128.527 31.8545C128.684 31.9329 128.841 32.0899 128.92 32.2468C128.998 32.4037 129.076 32.6391 129.076 32.796C129.076 33.0314 129.155 33.1883 129.155 33.4237V37.0328H130.803V32.9529C130.803 32.6391 130.724 32.3252 130.646 32.0114C130.567 31.6976 130.41 31.3837 130.253 31.1484C130.096 30.913 129.783 30.6776 129.469 30.5207C129.155 30.3638 128.841 30.2853 128.37 30.2853C127.9 30.2853 127.429 30.4422 127.115 30.6776C126.723 30.913 126.487 31.2268 126.33 31.5407V30.5207H124.761V37.0328H124.683ZM133.078 31.8545V34.9144C133.078 35.2282 133.078 35.5421 133.156 35.7775C133.235 36.0913 133.313 36.3267 133.47 36.4836C133.627 36.719 133.862 36.8759 134.098 36.9543C134.333 37.1113 134.726 37.1113 135.118 37.1113C135.275 37.1113 135.51 37.1113 135.667 37.0328C135.824 36.9543 136.059 36.9543 136.216 36.8759L136.138 35.6205C136.059 35.699 135.902 35.699 135.824 35.699C135.667 35.699 135.589 35.699 135.51 35.699C135.118 35.699 134.882 35.6205 134.804 35.3852C134.726 35.2282 134.647 34.9929 134.647 34.679V31.6191H136.295V30.2853H134.647V28.4023H133.078V30.2853H131.901V31.6191H133.078V31.8545ZM141.787 37.0328H143.278V33.0314C143.278 32.7175 143.199 32.4037 143.121 32.0899C143.042 31.776 142.885 31.4622 142.65 31.2268C142.415 30.9914 142.101 30.7561 141.787 30.5991C141.395 30.4422 140.924 30.3638 140.375 30.3638C139.904 30.3638 139.355 30.4422 138.884 30.5991C138.413 30.7561 137.942 30.9914 137.629 31.3837L138.492 32.4037C138.727 32.1683 138.962 32.0114 139.276 31.8545C139.59 31.6976 139.904 31.6191 140.296 31.6191C140.688 31.6191 141.081 31.6976 141.316 31.933C141.63 32.0899 141.787 32.4037 141.787 32.8745V32.9529C141.316 32.9529 140.767 32.9529 140.218 33.0314C139.668 33.1098 139.198 33.1883 138.805 33.3452C138.335 33.5021 138.021 33.7375 137.707 33.9729C137.393 34.2083 137.315 34.679 137.315 35.1498C137.315 35.5421 137.393 35.8559 137.55 36.0913C137.707 36.3267 137.942 36.562 138.178 36.719C138.413 36.8759 138.649 36.9543 138.962 37.0328C139.276 37.1113 139.512 37.1113 139.747 37.1113C140.218 37.1113 140.61 37.0328 141.002 36.7974C141.395 36.6405 141.63 36.4051 141.787 36.0913H141.865V37.0328H141.787V37.0328ZM141.787 34.2867C141.787 34.8359 141.63 35.2282 141.316 35.5421C141.002 35.8559 140.61 36.0128 140.061 36.0128C139.904 36.0128 139.825 36.0128 139.668 35.9344C139.512 35.9344 139.433 35.8559 139.276 35.7775C139.198 35.699 139.041 35.6205 139.041 35.5421C138.962 35.4636 138.962 35.3067 138.962 35.1498C138.962 34.9144 139.041 34.679 139.198 34.6006C139.355 34.4436 139.59 34.3652 139.825 34.2867C140.061 34.2083 140.375 34.1298 140.61 34.1298C140.924 34.1298 141.159 34.1298 141.473 34.1298H141.865L141.787 34.2867ZM145.553 37.0328H147.201V26.7546H145.553V37.0328ZM52.8925 10.1997C52.6571 9.80742 52.3432 9.41512 51.9509 9.17974C51.5587 8.94436 51.0879 8.78745 50.6171 8.63053C50.1464 8.47361 49.6756 8.47361 49.2049 8.47361H45.5957V21.7332H45.988V15.2211H49.4402C49.9895 15.2211 50.4602 15.1427 50.931 14.9857C51.4017 14.8288 51.794 14.5934 52.1863 14.3581C52.5002 14.0442 52.814 13.7304 53.0494 13.2596C53.2848 12.8673 53.3632 12.3181 53.3632 11.7689C53.2848 11.1412 53.2063 10.592 52.8925 10.1997ZM52.5786 13.1812C52.3432 13.5735 52.1079 13.8873 51.794 14.1227C51.4802 14.3581 51.0879 14.515 50.6956 14.6719C50.3033 14.8288 49.911 14.9073 49.4402 14.9073H45.988V8.8659H49.3618C49.7541 8.8659 50.2248 8.94436 50.6171 9.02282C51.0094 9.10128 51.4017 9.2582 51.7156 9.49358C52.0294 9.72896 52.3432 10.0428 52.5002 10.3566C52.7355 10.7489 52.814 11.2197 52.814 11.7689C52.8925 12.3181 52.814 12.7889 52.5786 13.1812ZM46.2234 15.4565H49.4402C49.9895 15.4565 50.4602 15.378 51.0094 15.2211C51.4802 15.0642 51.9509 14.8288 52.2648 14.515C52.6571 14.2011 52.8925 13.8088 53.1278 13.3381C53.3632 12.8673 53.4417 12.3181 53.4417 11.7689C53.4417 11.1412 53.2848 10.5136 53.0494 10.1213C52.814 9.6505 52.4217 9.33666 52.0294 9.02283C51.6371 8.78745 51.1663 8.55207 50.6171 8.47361C50.1464 8.39515 49.5972 8.31669 49.1264 8.31669H45.3603V21.9686H46.1449V15.4565H46.2234ZM45.7527 8.70899L45.8311 21.5763H45.7527V8.70899ZM46.2234 9.02282H49.3618C49.7541 9.02282 50.1464 9.10128 50.5387 9.17974C50.931 9.2582 51.3233 9.41512 51.6371 9.6505C51.9509 9.88588 52.1863 10.1213 52.4217 10.5136C52.6571 10.8274 52.7355 11.2981 52.7355 11.8474C52.7355 12.3966 52.6571 12.7889 52.4217 13.1812C52.2648 13.5735 51.951 13.8873 51.7156 14.1227C51.4017 14.3581 51.0879 14.515 50.6956 14.6719C50.3033 14.7504 49.911 14.8288 49.5187 14.8288H46.2234V9.02282ZM51.8725 9.33666C52.2648 9.57204 52.5786 9.88588 52.814 10.2782C53.0494 10.6705 53.1278 11.1412 53.1278 11.7689C53.1278 12.3181 53.0494 12.7889 52.814 13.1812C52.6571 13.5735 52.3432 13.9658 52.0294 14.2011C51.8725 14.2796 51.794 14.4365 51.6371 14.515C51.7156 14.4365 51.794 14.3581 51.8725 14.3581C52.1863 14.1227 52.5002 13.7304 52.7355 13.3381C52.9709 12.9458 53.0494 12.3966 53.0494 11.8474C53.0494 11.2197 52.9709 10.7489 52.7355 10.3566C52.5002 9.88588 52.1863 9.57204 51.8725 9.33666C51.794 9.2582 51.6371 9.2582 51.5586 9.17974C51.6371 9.2582 51.794 9.2582 51.8725 9.33666ZM65.9952 21.7332L60.503 8.47361H59.9538L54.2263 21.7332H54.697L56.3447 17.9672H64.0337L65.6029 21.7332H65.9952ZM63.8768 17.5749H56.5016L60.2676 8.70899L63.8768 17.5749ZM60.6599 8.39515L60.5815 8.31669H60.1892H59.7969L53.9124 21.9686H54.7755L56.4231 18.2026H63.8768L65.4459 21.9686H66.309L60.6599 8.39515ZM64.1121 17.8103L60.4246 8.78745L65.7598 21.5763H65.6813L64.1121 17.8103ZM58.0708 13.2596L56.1877 17.7318L54.5401 21.4979H54.4616L58.0708 13.2596ZM60.1892 9.2582L63.5629 17.418H56.6585L60.1892 9.2582ZM79.7255 20.164L79.4117 19.8502C78.8625 20.4779 78.2348 20.9486 77.4502 21.2625C76.6656 21.5763 75.8026 21.7332 75.018 21.7332C74.0765 21.7332 73.2134 21.5763 72.4288 21.184C71.6442 20.8702 71.0166 20.3994 70.3889 19.7718C69.8397 19.1441 69.3689 18.4379 69.1335 17.6534C68.8197 16.8688 68.6628 16.0057 68.6628 15.0642C68.6628 14.1227 68.8197 13.2596 69.1335 12.475C69.4474 11.6904 69.8397 10.9843 70.3889 10.3566C70.9381 9.72896 71.6442 9.2582 72.4288 8.94436C73.2134 8.63053 74.0765 8.39515 75.018 8.39515C75.3318 8.39515 75.7241 8.39515 76.1164 8.47361C76.5087 8.55207 76.901 8.63053 77.2149 8.78745C77.6071 8.94436 77.921 9.10128 78.2348 9.33666C78.5487 9.57204 78.8625 9.80742 79.0979 10.0428L79.3333 9.72896C78.784 9.17974 78.1564 8.70899 77.3718 8.47361C76.5872 8.15977 75.8026 8.08131 74.9395 8.08131C73.9196 8.08131 73.0565 8.23823 72.1935 8.63053C71.3304 8.94436 70.6243 9.49358 70.0751 10.0428C69.4474 10.6705 68.9766 11.3766 68.6628 12.2397C68.349 13.1027 68.192 14.0442 68.192 15.0642C68.192 16.0842 68.349 17.0257 68.6628 17.8887C68.9766 18.7518 69.4474 19.4579 70.0751 20.0856C70.7027 20.7133 71.4089 21.184 72.1935 21.4979C73.0565 21.8117 73.9196 22.0471 74.9395 22.0471C75.8026 22.0471 76.6656 21.8902 77.5287 21.5763C78.4702 21.3409 79.1763 20.7917 79.7255 20.164ZM77.6856 21.8117C78.5487 21.4979 79.3333 20.9486 79.8825 20.2425L79.9609 20.0856L79.4117 19.5364L79.2548 19.6933C78.784 20.321 78.0779 20.7917 77.3718 21.1056C76.5872 21.4194 75.8026 21.5763 75.018 21.5763C74.0765 21.5763 73.2134 21.4194 72.5073 21.1056C71.7227 20.7917 71.095 20.321 70.5458 19.7717C69.9966 19.2225 69.6043 18.5164 69.2905 17.7318C68.9766 16.9472 68.8197 16.0842 68.8197 15.2211C68.8197 14.3581 68.9766 13.495 69.2905 12.7104C69.6043 11.9258 69.9966 11.2197 70.5458 10.6705C71.095 10.1213 71.7227 9.65049 72.5073 9.33666C73.2919 9.02282 74.0765 8.8659 75.018 8.8659C75.3318 8.8659 75.7241 8.8659 76.038 8.94436C76.4303 9.02282 76.7441 9.10128 77.1364 9.2582C77.5287 9.41512 77.8425 9.57203 78.1564 9.72895C78.4702 9.96433 78.784 10.1213 79.0194 10.4351L79.1763 10.592L79.6471 10.0428L79.5686 9.88587C79.0194 9.2582 78.3133 8.8659 77.5287 8.55206C76.7441 8.23823 75.8811 8.08131 75.0965 8.08131C74.0765 8.08131 73.135 8.23823 72.2719 8.63052C71.4089 9.02282 70.7027 9.49358 70.0751 10.1212C69.4474 10.7489 68.9766 11.5335 68.6628 12.3966C68.349 13.2596 68.192 14.2011 68.192 15.2996C68.192 16.3195 68.349 17.261 68.6628 18.2026C68.9766 19.0656 69.4474 19.8502 70.0751 20.4779C70.7027 21.1056 71.4089 21.5763 72.2719 21.9686C73.135 22.3609 74.0765 22.5178 75.0965 22.5178C75.9595 22.2825 76.8226 22.1255 77.6856 21.8117ZM77.3718 8.70899C78.0779 8.94437 78.7056 9.33666 79.1763 9.80742C78.941 9.57204 78.7056 9.33666 78.3917 9.17974C78.0779 8.94436 77.6856 8.78745 77.2933 8.63053C76.901 8.47361 76.5087 8.39515 76.1164 8.31669C74.7041 8.08131 73.4488 8.23823 72.3504 8.78745C71.5658 9.10128 70.8596 9.6505 70.3104 10.2782C69.7612 10.9058 69.2905 11.612 68.9766 12.475C68.6628 13.2596 68.5059 14.2011 68.5059 15.1427C68.5059 16.0842 68.6628 16.9472 68.9766 17.8103C69.2905 18.6733 69.7612 19.3795 70.3104 20.0071C70.8596 20.6348 71.5658 21.1056 72.3504 21.4979C73.135 21.8117 74.0765 22.0471 75.018 22.0471C75.881 22.0471 76.7441 21.8902 77.5287 21.5763C78.3133 21.2625 78.9409 20.7917 79.4902 20.2425C78.9409 20.7917 78.3133 21.2625 77.5287 21.5763C76.6656 21.8902 75.8026 22.0471 75.018 22.0471C74.0765 22.0471 73.135 21.8902 72.3504 21.5763C71.5658 21.2625 70.8596 20.7917 70.3104 20.164C69.7612 19.5364 69.2905 18.8302 68.9766 17.9672C68.6628 17.1041 68.5059 16.2411 68.5059 15.2211C68.5059 14.2011 68.6628 13.3381 68.9766 12.475C69.2905 11.612 69.7612 10.9058 70.3104 10.2782C70.8596 9.6505 71.5658 9.17974 72.4288 8.86591C73.2134 8.55207 74.1549 8.39515 75.0964 8.39515C75.8026 8.31669 76.5872 8.47361 77.3718 8.70899ZM83.727 21.7332V8.47361H83.3347V21.7332H83.727ZM83.9623 8.31669H83.1778V21.9686H83.9623V8.31669ZM83.4916 8.70899L83.5701 21.5763H83.4916V8.70899ZM96.202 8.8659V8.47361H88.6699V21.7332H89.0622V15.0642H95.7312V14.6719H89.0622V8.86591C89.0622 8.8659 96.202 8.8659 96.202 8.8659ZM89.2191 15.2211H95.8882V14.515H89.2191V9.02282H96.3589V8.31669H88.4345V21.9686H89.2191L89.2191 15.2211ZM88.8268 8.70899H96.0451H88.8268L88.9053 14.9073H95.5743H88.9053V21.5763H88.8268V8.70899ZM100.439 21.7332V8.47361H100.047V21.7332H100.439ZM100.596 8.31669H99.8111V21.9686H100.596V8.31669ZM100.203 8.70899L100.282 21.5763H100.203V8.70899ZM116.131 20.164L115.817 19.8502C115.268 20.4779 114.64 20.9486 113.855 21.2625C113.071 21.5763 112.208 21.7332 111.423 21.7332C110.482 21.7332 109.619 21.5763 108.834 21.184C108.049 20.8702 107.422 20.3994 106.794 19.7718C106.245 19.1441 105.774 18.4379 105.539 17.6534C105.225 16.8688 105.068 16.0057 105.068 15.0642C105.068 14.1227 105.225 13.2596 105.539 12.475C105.852 11.6904 106.245 10.9843 106.794 10.3566C107.343 9.72896 108.049 9.2582 108.834 8.94436C109.619 8.63053 110.482 8.39515 111.423 8.39515C111.737 8.39515 112.129 8.39515 112.522 8.47361C112.914 8.55207 113.306 8.63053 113.62 8.78745C114.012 8.94436 114.326 9.10128 114.64 9.33666C114.954 9.57204 115.268 9.80742 115.503 10.0428L115.738 9.72896C115.189 9.17974 114.561 8.70899 113.777 8.47361C112.992 8.15977 112.208 8.08131 111.345 8.08131C110.325 8.08131 109.462 8.23823 108.599 8.63053C107.736 8.94436 107.029 9.49358 106.48 10.0428C105.853 10.6705 105.382 11.3766 105.068 12.2397C104.754 13.1027 104.597 14.0442 104.597 15.0642C104.597 16.0842 104.754 17.0257 105.068 17.8887C105.382 18.7518 105.853 19.4579 106.48 20.0856C107.108 20.7133 107.814 21.184 108.599 21.4979C109.462 21.8117 110.325 22.0471 111.345 22.0471C112.208 22.0471 113.071 21.8902 113.934 21.5763C114.875 21.3409 115.581 20.7917 116.131 20.164ZM114.091 21.8117C114.954 21.4979 115.738 20.9486 116.288 20.2425L116.366 20.0856L115.817 19.5364L115.66 19.6933C115.189 20.321 114.483 20.7917 113.777 21.1056C112.992 21.4194 112.208 21.5763 111.423 21.5763C110.482 21.5763 109.619 21.4194 108.912 21.1056C108.128 20.7917 107.5 20.321 106.951 19.7717C106.402 19.2225 106.009 18.5164 105.696 17.7318C105.382 16.9472 105.225 16.0842 105.225 15.2211C105.225 14.3581 105.382 13.495 105.696 12.7104C106.009 11.9258 106.402 11.2197 106.951 10.6705C107.5 10.1213 108.128 9.65049 108.912 9.33666C109.697 9.02282 110.482 8.8659 111.423 8.8659C111.737 8.8659 112.129 8.8659 112.443 8.94436C112.835 9.02282 113.149 9.10128 113.542 9.2582C113.934 9.41512 114.248 9.57203 114.562 9.72895C114.875 9.96433 115.189 10.1213 115.425 10.4351L115.581 10.592L116.052 10.0428L115.974 9.88587C115.425 9.2582 114.718 8.8659 113.934 8.55206C113.149 8.23823 112.286 8.08131 111.502 8.08131C110.482 8.08131 109.54 8.23823 108.677 8.63052C107.814 9.02282 107.108 9.49358 106.48 10.1212C105.853 10.7489 105.382 11.5335 105.068 12.3966C104.754 13.2596 104.597 14.2011 104.597 15.2996C104.597 16.3195 104.754 17.261 105.068 18.2026C105.382 19.0656 105.853 19.8502 106.48 20.4779C107.108 21.1056 107.814 21.5763 108.677 21.9686C109.54 22.3609 110.482 22.5178 111.502 22.5178C112.286 22.2825 113.228 22.1255 114.091 21.8117ZM113.777 8.70899C114.483 8.94437 115.111 9.33666 115.581 9.80742C115.346 9.57204 115.111 9.33666 114.797 9.17974C114.483 8.94436 114.091 8.78745 113.698 8.63053C113.306 8.47361 112.914 8.39515 112.522 8.31669C111.109 8.08131 109.854 8.23823 108.756 8.78745C107.971 9.10128 107.265 9.6505 106.716 10.2782C106.166 10.9058 105.696 11.612 105.382 12.475C105.068 13.2596 104.911 14.2011 104.911 15.1427C104.911 16.0842 105.068 16.9472 105.382 17.8103C105.696 18.6733 106.166 19.3795 106.716 20.0071C107.265 20.6348 107.971 21.1056 108.756 21.4979C109.54 21.8117 110.482 22.0471 111.423 22.0471C112.286 22.0471 113.149 21.8902 113.934 21.5763C114.718 21.2625 115.346 20.7917 115.895 20.2425C115.346 20.7917 114.718 21.2625 113.934 21.5763C113.071 21.8902 112.208 22.0471 111.423 22.0471C110.482 22.0471 109.54 21.8902 108.756 21.5763C107.971 21.2625 107.265 20.7917 106.716 20.164C106.166 19.5364 105.696 18.8302 105.382 17.9672C105.068 17.1041 104.911 16.2411 104.911 15.2211C104.911 14.2011 105.068 13.3381 105.382 12.475C105.696 11.612 106.166 10.9058 106.716 10.2782C107.265 9.6505 107.971 9.17974 108.834 8.86591C109.619 8.55207 110.56 8.39515 111.502 8.39515C112.208 8.31669 112.992 8.47361 113.777 8.70899ZM132.607 10.1997C132.372 9.80742 132.058 9.41512 131.666 9.17974C131.273 8.94436 130.803 8.78745 130.332 8.63053C129.861 8.55207 129.39 8.47361 128.92 8.47361H125.31V21.7332H125.703V15.2211H129.155C129.704 15.2211 130.175 15.1427 130.646 14.9857C131.116 14.8288 131.509 14.5934 131.901 14.3581C132.215 14.0442 132.529 13.7304 132.764 13.2596C132.999 12.8673 133.078 12.3181 133.078 11.7689C132.999 11.1412 132.921 10.592 132.607 10.1997ZM132.293 13.1812C132.058 13.5735 131.823 13.8873 131.509 14.1227C131.195 14.3581 130.803 14.515 130.41 14.6719C130.018 14.7504 129.547 14.8288 129.155 14.8288H125.703V8.78745H129.076C129.469 8.78745 129.94 8.86591 130.332 8.94437C130.724 9.02282 131.116 9.17974 131.43 9.41512C131.744 9.6505 132.058 9.96434 132.215 10.2782C132.45 10.6705 132.529 11.1412 132.529 11.6904C132.607 12.3181 132.529 12.7889 132.293 13.1812ZM125.938 15.4565H129.155C129.704 15.4565 130.175 15.378 130.724 15.2211C131.195 15.0642 131.666 14.8288 131.979 14.515C132.372 14.2011 132.607 13.8088 132.843 13.3381C133.078 12.8673 133.156 12.3181 133.156 11.7689C133.156 11.1412 132.999 10.5136 132.764 10.1213C132.529 9.6505 132.136 9.33666 131.744 9.02283C131.352 8.78745 130.881 8.55207 130.332 8.47361C129.861 8.39515 129.312 8.31669 128.841 8.31669H125.075V21.9686H125.86L125.938 15.4565ZM125.467 8.70899L125.546 21.5763H125.467V8.70899ZM125.938 9.02282H129.076C129.469 9.02282 129.861 9.10128 130.253 9.17974C130.646 9.2582 131.038 9.41512 131.352 9.6505C131.666 9.88588 131.901 10.1213 132.136 10.5136C132.372 10.8274 132.45 11.2981 132.45 11.8474C132.45 12.3966 132.372 12.7889 132.136 13.1812C131.979 13.5735 131.666 13.8873 131.43 14.1227C131.116 14.3581 130.803 14.515 130.41 14.6719C130.018 14.7504 129.626 14.8288 129.233 14.8288H125.938V9.02282ZM131.587 9.33666C131.979 9.57204 132.293 9.88588 132.529 10.2782C132.764 10.6705 132.843 11.1412 132.843 11.7689C132.843 12.3181 132.764 12.7889 132.529 13.1812C132.372 13.5735 132.058 13.9658 131.744 14.2011C131.587 14.2796 131.509 14.4365 131.352 14.515C131.43 14.4365 131.509 14.3581 131.587 14.3581C131.901 14.1227 132.215 13.7304 132.45 13.3381C132.686 12.9458 132.764 12.3966 132.764 11.8474C132.764 11.2197 132.686 10.7489 132.45 10.3566C132.215 9.88588 131.901 9.57204 131.587 9.33666C131.509 9.2582 131.352 9.2582 131.273 9.17974C131.352 9.2582 131.509 9.2582 131.587 9.33666ZM145.71 21.7332L140.218 8.47361H139.668L133.941 21.7332H134.412L136.059 17.9672H143.748L145.318 21.7332H145.71ZM143.591 17.5749H136.216L139.982 8.70899L143.591 17.5749ZM140.375 8.39515L140.296 8.31669H139.904H139.512L133.627 21.9686H134.49L136.138 18.2026H143.591L145.161 21.9686H146.024L140.375 8.39515ZM143.827 17.8103L140.139 8.78745L145.474 21.5763H145.396L143.827 17.8103ZM137.785 13.2596L135.902 17.7318L134.255 21.4979H134.176L137.785 13.2596ZM139.904 9.2582L143.278 17.418H136.373L139.904 9.2582ZM156.93 21.7332L152.928 15.0642C153.399 15.0642 153.791 14.9857 154.262 14.9073C154.733 14.8288 155.125 14.5934 155.517 14.3581C155.91 14.1227 156.223 13.7304 156.459 13.3381C156.694 12.9458 156.851 12.3966 156.851 11.7689C156.851 11.0628 156.694 10.5136 156.459 10.1213C156.223 9.72896 155.91 9.33666 155.517 9.10128C155.125 8.8659 154.654 8.70899 154.183 8.63053C153.713 8.55207 153.163 8.47361 152.693 8.47361H149.005V21.7332H149.397V15.0642H152.536L156.537 21.7332C156.537 21.7332 156.93 21.7332 156.93 21.7332ZM155.36 13.9658C154.733 14.515 153.791 14.7504 152.536 14.7504H149.319V8.8659H152.379C152.85 8.8659 153.399 8.94436 153.87 9.02282C154.34 9.10128 154.811 9.2582 155.125 9.49358C155.517 9.72896 155.753 10.0428 155.988 10.3566C156.223 10.7489 156.302 11.2197 156.302 11.7689C156.38 12.7104 156.066 13.4165 155.36 13.9658ZM153.242 15.2211C153.556 15.2211 153.948 15.1427 154.34 15.0642C154.811 14.9857 155.282 14.7504 155.674 14.515C156.066 14.2796 156.38 13.8873 156.616 13.4165C156.851 12.9458 157.008 12.3966 157.008 11.7689C157.008 11.0628 156.851 10.5135 156.616 10.0428C156.38 9.57204 155.988 9.2582 155.596 8.94436C155.203 8.70898 154.733 8.55207 154.183 8.39515C153.713 8.31669 153.163 8.23823 152.693 8.23823H148.848V21.9686H149.633V15.2996H152.457L156.38 21.8902L156.459 21.9686H157.322L153.242 15.2211ZM152.536 14.9073C152.614 14.9073 152.614 14.9073 152.536 14.9073L156.616 21.5763H156.537L152.536 14.9073ZM149.084 8.70899L149.162 21.5763H149.084V8.70899ZM154.027 8.78745C154.497 8.8659 154.968 9.02282 155.282 9.2582C155.674 9.49358 155.988 9.80742 156.223 10.1997C156.459 10.592 156.537 11.1412 156.537 11.7689C156.537 12.3966 156.459 12.8673 156.223 13.2596C155.988 13.6519 155.674 13.9658 155.36 14.2011C155.047 14.4365 154.654 14.5934 154.183 14.7504C154.654 14.5934 155.125 14.4365 155.439 14.1227C156.145 13.5735 156.459 12.7889 156.459 11.8474C156.459 11.2197 156.302 10.7489 156.066 10.3566C155.831 9.96434 155.517 9.6505 155.125 9.41512C154.733 9.17974 154.262 9.02283 153.791 8.94437C153.399 8.86591 153.007 8.86591 152.536 8.78745C153.085 8.70899 153.556 8.70899 154.027 8.78745ZM149.554 9.02282H152.379C152.85 9.02282 153.32 9.10128 153.791 9.17974C154.262 9.2582 154.654 9.41512 154.968 9.6505C155.282 9.88588 155.596 10.1213 155.831 10.5136C156.066 10.8274 156.145 11.2981 156.145 11.8474C156.145 12.7104 155.831 13.4165 155.282 13.8873C154.654 14.3581 153.791 14.5934 152.614 14.5934H149.554L149.554 9.02282ZM161.402 14.5934V8.47361H160.931V21.7332H161.323V14.5934H161.402L168.463 21.7332H169.012L161.951 14.5934L168.698 8.47361H168.071L161.402 14.5934ZM162.186 14.5934L169.169 8.31669H167.992L161.559 14.2011V8.31669H160.774V21.9686H161.559V15.0642L168.306 21.9686H169.405L162.186 14.5934ZM161.637 14.5934L168.542 21.5763H168.463L161.637 14.5934ZM161.166 8.70899L161.245 21.5763H161.166V8.70899ZM168.149 8.70899L162.579 13.7304L168.149 8.70899Z" fill="#979597"/>
</svg>
