<svg width="245" height="346" viewBox="0 0 245 346" fill="none" xmlns="http://www.w3.org/2000/svg">
<path d="M81.7275 40.3168C76.6242 42.3717 71.6032 44.8786 66.5822 47.9609C66.5822 47.9609 58.4333 54.6598 57.2398 57.2901C56.0875 59.8381 49.9964 67.4822 49.9964 67.4822L46.6216 74.6332L41.4772 95.1409C41.4772 95.1409 37.9378 114.909 43.4115 127.115C48.8852 139.321 57.7748 143.554 57.7748 143.554L58.2687 141.17L60.5323 140.882L64.1128 141.869L65.6767 140.841L68.8869 142.321L72.6732 142.526L74.9368 139.855L80.6163 139.649L79.1758 138.047C79.1758 138.047 69.8335 129.375 68.393 126.622C66.9526 123.868 61.6846 115.279 61.6846 115.279L58.5979 109.607L59.4211 100.36L64.4009 87.6611L73.0024 73.4003C73.0024 73.4003 84.6495 57.8243 89.3413 56.2215C89.3413 56.2215 92.9218 52.1118 98.6836 52.8104C104.363 53.468 104.569 55.2763 104.569 55.2763L108.273 53.3036C108.273 53.3036 114.323 53.0981 115.269 54.2488C116.216 55.3996 123.953 63.989 123.953 63.989L130.332 72.7838C130.332 72.7838 138.275 86.2638 139.345 90.6612C139.345 90.6612 138.934 99.9082 137.37 103.812C135.847 107.717 132.884 120.498 130.744 122.799C128.563 125.101 126.176 130.32 126.176 130.32L126.546 131.142L126.217 134.389L121.566 142.608L121.772 143.841L126.423 143.143L126.793 145.362L129.715 146.143L134.901 144.376L139.551 139.649L142.514 133.362L144.778 128.841L146.671 122.306L147.083 116.224L147.659 110.265L148.153 100.771L145.642 83.6747C144.696 77.4278 142.432 70.8522 139.345 64.1122C137.288 55.8516 131.402 49.3171 123.953 43.5224C120.414 41.0154 116.545 39.988 112.347 40.5634C110.084 38.5907 107.656 37.1934 105.104 36.207L94.3623 36.5769L81.7275 40.3168Z" fill="#604734"/>
<path d="M136.918 141.951C142.227 140.924 147.372 138.458 152.31 134.718L170.913 114.991L183.959 105.785L185.482 107.676L187.951 121.567C187.951 121.567 187.54 138.088 187.293 140.8C187.046 143.513 175.028 152.595 175.028 152.595C175.028 152.595 166.015 159.952 157.249 165.007C145.561 171.747 143.832 177.829 140.128 199.981L139.47 188.309L136.671 160.075L135.395 157.691L132.144 156.458L122.555 163.568L123.707 160.157L128.522 152.143L133.337 145.074L136.918 141.951Z" fill="#E2D0E6"/>
<path d="M60.987 143.513C60.987 143.513 41.973 166.075 39.1333 177.5C36.2935 189.008 34.9766 190.61 34.9766 190.61L36.0055 192.912L56.7479 200.844C56.7479 200.844 55.966 236.927 57.9003 247.325C59.1761 254.024 98.4387 250.243 98.4387 250.243C98.4387 250.243 116.3 252.175 136.508 246.215L146.015 241.695L146.22 236.229C146.22 236.229 142.352 215.351 141.076 213.831L137.578 215.885L106.917 228.79L101.731 229.776L97.2863 228.79L65.7199 219.009L65.5141 204.337C74.8976 207.584 85.0631 209.228 95.8459 209.844C95.8459 209.844 97.9448 194.063 96.7925 190.652L90.7014 190.364C90.866 189.706 84.8573 189.008 83.993 187.199L64.7321 178.61C64.7321 178.61 62.304 165.007 63.7856 161.596C65.2672 158.226 66.3784 158.637 66.3784 158.637L72.9221 161.431L72.881 156.952L60.987 143.513Z" fill="#E2D0E6"/>
<path d="M57.9844 249.257L64.0343 251.024C63.9931 252.175 86.1349 251.599 97.8643 250.449C109.964 249.298 128.114 250.818 144.494 242.352C144.494 242.352 139.925 279.833 136.839 285.957C133.752 292.121 128.525 314.191 129.101 316.04C129.719 317.89 134.781 324.999 136.139 326.027C137.497 327.013 139.102 329.89 133.67 330.342C128.196 330.753 112.886 329.685 112.886 329.685L111.528 327.383C111.528 327.383 111.24 299.437 110.623 293.889C110.005 288.299 109.306 273.915 104.531 273.011C99.7986 272.107 97.0412 290.354 97.0412 290.354L93.9545 322.328C93.9545 322.328 94.0779 328.205 88.4396 329.315C82.8013 330.424 70.2076 328.657 70.2076 328.657C70.2076 328.657 67.6971 328.246 69.5903 325.739C71.5246 323.273 77.698 318.711 77.698 318.711C77.698 318.711 78.8092 315.629 78.3153 313.451C77.8214 311.355 69.6314 287.683 69.6314 287.683L57.9844 249.257Z" fill="#FFF5D2"/>
<path d="M64.7734 142.732V141.54L66.0493 140.965L69.7944 142.362L72.2638 142.485L74.5273 140.636L76.2559 139.855L78.6841 140.102L80.0422 142.362L84.7751 148.403L89.1788 153.499L94.0352 158.184L97.163 160.609L96.381 162.952L93.8294 165.911L88.438 157.815L87.903 164.555L78.8075 157.815L73.2104 152.924L64.7734 142.732Z" fill="#EDF2FA"/>
<path d="M115.644 141.622L115.809 143.43L113.051 149.472L106.631 157.321L102.062 161.143L107.948 162.787L110.788 164.267L113.998 165.335L118.978 162.13L123.422 155.184L127.949 145.978L126.715 144.951L126.921 143.225L121.982 143.554L121.817 142.28L122.846 140.882L116.344 141.293L115.644 141.622Z" fill="#EDF2FA"/>
<path d="M104.238 55.3585L100.699 52.9749L95.1016 53.468L86.2942 58.112L77.24 68.0987L68.0623 80.7568L62.7532 91.5243C62.7532 91.5243 57.156 104.018 59.1726 110.018L64.0702 118.895C64.0702 118.895 75.923 146.061 102.016 144.91C128.067 143.759 135.023 111.416 135.023 111.416C135.023 111.416 140.867 91.6887 138.727 87.9077C136.545 84.1268 127.656 67.3179 123.787 62.9205C119.754 58.6874 113.704 48.9062 104.238 55.3585Z" fill="#FCD9BD"/>
<path d="M189.681 123.868L187.5 124.526C187.5 124.526 187.706 141.088 187.829 141.129C188.405 141.376 189.681 123.868 189.681 123.868Z" fill="#271653"/>
<path d="M185.938 106.936C185.938 106.936 194.333 94.4423 200.959 94.73C207.585 95.0177 208.038 109.566 208.038 109.566C208.038 109.566 208.532 116.183 204.128 118.567L201.659 114.046L197.873 115.608L197.132 116.512L198.49 122.348L188.901 124.402L185.938 106.936Z" fill="#FCD9BD"/>
<path d="M97.8658 193.693C97.8658 193.693 117.086 175.815 117.662 189.377C118.279 202.981 115.769 200.351 115.769 200.351L109.348 204.46L100.5 205.611L97.125 204.584L97.8658 193.693Z" fill="#FCD9BD"/>
<path d="M93.0469 125.348L96.0512 122.43L101.443 122.635L104.365 121.484L110.126 122.224L111.073 123.704L109.921 126.745L107.493 128.265L103.336 128.594L98.6852 129.375L94.94 127.197L93.0469 125.348Z" fill="#C4504B"/>
<path d="M124.171 97.574C124.291 94.9437 122.106 92.7077 119.29 92.5797C116.475 92.4517 114.095 94.4802 113.975 97.1105C113.855 99.7408 116.04 101.977 118.856 102.105C121.672 102.233 124.051 100.204 124.171 97.574Z" fill="#4C5B43"/>
<path d="M85.4335 103.032C84.6927 105.538 82.5938 107.223 79.9186 106.443C77.2435 105.703 76.585 103.073 76.3381 100.483C76.0088 97.8121 80.3302 96.2915 83.0465 97.0724C87.6148 98.2231 86.092 100.401 85.4335 103.032Z" fill="#4C5B43"/>
<path d="M116.345 141.293L115.769 145.033C115.769 145.033 107.867 160.322 100.541 161.226C93.2155 162.13 78.6875 140.102 78.6875 140.102L81.8565 139.485C81.8565 139.485 92.31 145.732 101.405 145.157C110.501 144.581 116.345 141.293 116.345 141.293Z" fill="#E1C2AF"/>
<path d="M99.3059 205.159C99.3059 205.159 98.4005 205.981 98.1535 210.584C98.1124 211.611 74.9829 207.707 74.7359 207.501C74.0363 206.721 64.6939 203.268 65.5582 205.611C65.9698 206.844 64.8997 217.776 66.299 218.968C67.3279 219.79 83.4609 223.817 84.7368 224.434C90.7867 227.393 97.9889 228.42 97.742 229.242C97.7008 229.447 106.055 229.078 106.055 229.078L140.914 214.2C140.914 214.2 140.338 164.061 136.223 158.02L134.165 158.39L103.175 180.911L98.812 180.624C98.812 179.678 72.637 165.376 63.9531 162.006C63.9531 162.006 64.447 170.02 64.5705 178.445L71.4846 181.405C71.4846 181.405 82.7613 187.199 93.1737 190.364L97.1658 191.062L98.1124 193.61L103.38 189.665L111.241 184.775L115.686 184.281L117.25 187.24L118.238 196.734L116.468 200.72L111.694 203.762L103.298 205.364L99.3059 205.159Z" fill="#968A63"/>
<path d="M135.601 157.65L132.597 156.335L109.22 172.856L109.179 160.938L102.347 177.747L100.454 178.98C100.454 178.98 99.4663 164.801 98.1905 162.788C96.8735 160.733 97.2439 172.569 97.2439 172.569L88.5189 158.39L87.9427 164.596L73.0032 156.952L73.1678 162.007C73.1678 162.007 69.1345 158.965 66.7475 159.13C64.3605 159.294 63.7431 161.924 63.9078 162.007C66.8298 163.157 99.0136 179.637 99.5898 181.035L103.006 181.199L135.601 157.65Z" fill="#EDF2FA"/>
<path d="M129.718 214.899L127.331 213.543L123.75 203.926L126.178 202.036L129.388 202.611L132.969 201.46L135.191 204.543L134.574 210.337L134.368 213.461L132.228 211.282L130.541 209.433L129.388 211.693L129.718 214.899Z" fill="#FEDE14"/>
<path d="M96.6288 203.885L99.2627 205.446L96.7934 210.543L96.0938 207.542L96.6288 203.885Z" fill="#271653"/>
<path d="M93.417 206.171C93.4449 205.559 92.8049 205.032 91.9874 204.995C91.17 204.958 90.4847 205.424 90.4568 206.036C90.4289 206.648 91.0689 207.175 91.8864 207.212C92.7038 207.249 93.3891 206.783 93.417 206.171Z" fill="#271653"/>
<path d="M87.5577 205.097C87.5856 204.485 86.9455 203.958 86.1281 203.921C85.3106 203.884 84.6253 204.35 84.5974 204.962C84.5695 205.574 85.2096 206.101 86.027 206.138C86.8445 206.175 87.5298 205.709 87.5577 205.097Z" fill="#271653"/>
<path d="M183.136 139.647C183.164 139.035 182.524 138.509 181.706 138.472C180.889 138.434 180.203 138.901 180.176 139.513C180.148 140.125 180.788 140.651 181.605 140.689C182.423 140.726 183.108 140.26 183.136 139.647Z" fill="#271653"/>
<path d="M178.386 143.511C178.414 142.898 177.774 142.372 176.956 142.335C176.139 142.298 175.453 142.764 175.426 143.376C175.398 143.988 176.038 144.515 176.855 144.552C177.673 144.589 178.358 144.123 178.386 143.511Z" fill="#271653"/>
<path d="M190.539 90.2503L191.65 89.5516L193.297 90.0448L195.149 87.7844L197.7 95.3875L192.391 98.9218L190.539 90.2503Z" fill="#E8C460"/>
<path d="M197.453 115.854L197.659 119.799L200.293 125.224L203.297 124.937L204.943 123.622L201.61 114.087L197.453 115.854Z" fill="#E8C460"/>
<path d="M132.311 145.938L127.414 145.896L125.233 151.979L120.253 159.335C120.253 159.335 116.343 165.212 113.791 165.13C111.24 165.007 109.141 163.815 109.141 163.815L109.182 172.487L123.01 162.829C122.804 160.404 128.072 152.678 132.311 145.938Z" fill="#CCCCCB"/>
<path d="M98.3203 161.39L101.119 161.226L107.704 163.281L102.312 177.583L101.284 178.528L100.46 176.843L98.3203 161.39Z" fill="#CCCCCB"/>
<path d="M96.8342 163.034L93.3359 166.445L96.5872 171.295L96.8342 163.034Z" fill="#CCCCCB"/>
<path d="M62.675 141.91L60.6172 144.211C60.6172 144.211 72.2231 153.664 72.47 157.815L73.6224 156.911L79.9192 159.705L72.9227 152.554L63.9096 141.869L62.675 141.91Z" fill="#CCCCCB"/>
<path d="M58.4768 109.155C58.4768 109.155 56.7894 131.717 60.0407 140.8C60.0407 140.8 64.362 142.855 65.5144 140.759C65.5144 140.759 70.2885 143.718 72.1405 142.485C73.9102 141.211 74.7744 138.745 80.2893 139.649L81.4005 139.32C81.3594 139.32 68.4776 130.69 58.4768 109.155Z" fill="#3D2D22"/>
<path d="M139.641 91.4417L142.316 99.7845L144.044 112.155C145.402 112.525 138.447 147.745 127.706 145.608L126.594 144.334L126.635 143.512L122.149 143.677L122.438 141.17L115.523 141.909L122.849 134.882L128.364 127.525C128.364 127.525 139.311 103.278 138.982 95.8391C138.529 88.1128 139.641 91.4417 139.641 91.4417Z" fill="#3D2D22"/>
<path d="M58.8438 146.143C58.8438 146.143 61.3542 158.225 66.3341 158.924L68.3096 159.623L72.9602 161.883L72.5898 157.198L67.6099 150.417L60.5723 144.17L58.8438 146.143Z" fill="#C3B5C6"/>
<path d="M144.001 139.978C144.001 139.978 139.433 153.17 131.037 157.321L122.93 163.075L124.288 158.308L133.671 144.951L139.474 141.211L144.001 139.978Z" fill="#C3B5C6"/>
<path d="M191.942 99.4146C191.942 99.4146 191.324 110.346 197.21 115.401L198.239 122.388C198.239 122.388 194 124.895 192.971 117.497C192.971 117.497 190.049 114.58 189.184 111.374C188.361 108.168 187.332 103.894 189.884 102.045C192.353 100.154 191.942 99.4146 191.942 99.4146Z" fill="#E1C2AF"/>
<path d="M104.946 188.514C104.946 188.514 102.477 193.61 103.053 197.145C103.67 200.679 108.239 204.665 108.239 204.665L103.135 205.775L97.25 204.501L97.8673 193.898L104.946 188.514Z" fill="#E1C2AF"/>
<path d="M77.1601 135.909C71.0691 136.526 61.9325 95.5926 76.2547 75.9891C90.4534 56.55 111.319 60.5364 117.41 63.9064C124.777 67.934 132.473 80.6331 132.885 92.9213C133.297 105.209 129.263 123.498 125.888 130.608C125.888 130.608 139.717 107.963 139.305 91.2363C139.305 91.2363 132.679 71.6738 122.678 62.0981C112.719 52.4813 113.459 51.3717 104.734 54.9061C104.734 54.9061 96.421 48.3304 83.5804 60.7008C71.2748 72.578 63.9491 87.0443 60.6155 97.3187C57.1173 108.086 59.2574 109.812 59.2574 109.812C59.2574 109.812 71.7687 135.046 77.1601 135.909Z" fill="#E1C2AF"/>
<path d="M65.4291 219.296C65.4291 219.296 63.4947 226.242 70.5735 228.255C77.8169 230.351 93.95 235.653 101.152 235.735C107.984 235.776 143.954 227.31 142.226 217.323L140.909 213.707L137.987 216.008L106.873 228.995L101.564 229.57L91.8099 227.516L72.1786 220.94L65.4291 219.296Z" fill="#C3B5C6"/>
<path d="M117.782 198.09C118.441 198.049 115.93 207.419 109.181 208.611C105.765 209.268 102.637 215.638 91.6485 215.803C83.9113 215.926 69.4656 209.926 65.6381 209.638L65.2266 204.378C75.6801 207.46 86.3394 209.556 97.1222 210.748L100.332 205.282L106.958 205.405L112.761 203.145C115.107 201.583 116.959 199.939 117.782 198.09Z" fill="#7A6F52"/>
<path d="M143.794 242.105C143.794 242.105 145.729 249.092 139.349 251.558C133.547 253.818 116.549 256.366 101.61 257.722C85.2709 259.202 67.08 257.558 65.8042 257.065C57.5319 254.024 57.8612 248.105 57.8612 248.105C61.8533 250.654 66.4627 252.01 71.813 251.845C71.4837 251.147 108.853 251.27 125.151 248.434C141.078 245.557 143.794 242.105 143.794 242.105Z" fill="#E8DEC4"/>
<path d="M86.75 328.944C86.75 328.944 90.1248 268.243 105.64 268.654C114.654 268.86 117.37 329.807 117.37 329.807C117.37 329.807 111.238 331.78 111.69 326.026C112.143 320.273 111.69 273.134 104.612 272.805C96.5451 272.476 94.3227 319.533 93.6642 325.862L90.1659 328.903L86.75 328.944Z" fill="#E8DEC4"/>
<path d="M65.31 209.433C65.31 209.433 58.5193 207.255 57.3669 208.446C56.2146 209.597 56.6261 200.926 56.6261 200.926L65.5158 204.008L65.31 209.433Z" fill="#C3B5C6"/>
<path d="M81.2787 139.197C81.2787 139.321 81.2787 139.403 81.1553 139.567C81.1141 139.732 80.9906 139.855 80.8672 139.896C80.6614 140.101 80.3733 140.101 80.1675 140.101C79.756 140.143 79.3856 140.101 79.0152 140.101C78.2744 140.06 77.5747 139.978 76.9162 139.937C76.1754 139.937 75.5581 139.937 75.1465 140.225C74.9407 140.389 74.8173 140.595 74.5703 140.923C74.3646 141.211 74.1999 141.581 73.8707 141.91C73.5826 142.197 73.1711 142.526 72.7595 142.649C72.3891 142.814 71.9775 142.855 71.6071 142.937C70.8252 143.06 70.0844 142.978 69.3024 142.896C68.5204 142.732 67.7796 142.567 67.08 142.197C66.7508 141.992 66.3804 141.869 66.0511 141.581C65.7219 141.375 65.3926 141.17 65.1045 140.8L66.2569 140.43C66.2569 140.636 66.2157 140.759 66.1334 141.006C66.0923 141.17 66.01 141.293 65.9276 141.417C65.763 141.704 65.5161 141.992 65.228 142.156C64.6107 142.485 63.9933 142.526 63.4583 142.526C62.8821 142.485 62.4294 142.362 61.9355 142.239C61.7298 142.115 61.4417 142.074 61.2359 142.033L60.5774 141.828C60.207 141.663 59.7954 141.622 59.425 141.54C59.2604 141.54 59.1369 141.54 59.0546 141.581C58.9312 141.622 58.89 141.704 58.8489 141.745C58.7254 141.951 58.6842 142.321 58.6842 142.691C58.7254 143.06 58.8077 143.513 58.89 143.841C59.0135 144.211 58.7665 144.622 58.3961 144.787C58.1904 144.828 57.9846 144.828 57.7788 144.663C56.9968 144.17 56.3384 143.677 55.721 143.143C55.0625 142.567 54.4452 141.992 53.8279 141.417C52.6755 140.266 51.5231 138.951 50.4531 137.636C48.3953 135.005 46.6668 132.046 45.2675 129.005C42.4277 122.882 40.9461 116.306 40.4111 109.607C39.9172 102.99 40.2053 96.2504 41.3577 89.6748C42.51 83.0992 44.5678 76.688 47.5722 70.7288C49.0538 67.7287 50.7823 64.893 52.7167 62.0984C54.651 59.427 56.7499 56.7968 59.0958 54.372C61.4005 51.9473 63.8699 49.6869 66.5038 47.632C67.1623 47.1389 67.8208 46.6046 68.5616 46.1114L69.5905 45.3717C69.9197 45.1662 70.2901 44.8785 70.7017 44.673C72.1422 43.7689 73.6238 42.988 75.1465 42.2483C78.1509 40.8099 81.2787 39.5769 84.4066 38.5084C87.5756 37.3988 90.7857 36.5357 94.0782 35.9603C97.3706 35.3028 100.704 35.0151 104.12 35.3439C105.808 35.5494 107.536 35.9192 109.182 36.659C110.746 37.3988 112.228 38.6317 113.174 40.1523C113.38 40.4811 113.298 40.9331 112.969 41.1797C112.639 41.3852 112.187 41.303 111.94 40.9742C111.158 39.7002 109.964 38.7139 108.565 38.0152C107.207 37.3577 105.602 36.9878 104.038 36.8645C100.828 36.5357 97.5764 36.8645 94.3662 37.481C91.1561 38.0974 87.9871 38.9605 84.9004 39.9879C81.8138 41.0153 78.7271 42.2483 75.8462 43.6867C74.3646 44.3853 72.9241 45.1662 71.5248 45.9881C71.1956 46.1936 70.8252 46.3991 70.5371 46.6868L69.5493 47.4266C68.8909 47.9197 68.2324 48.4129 67.5739 48.9061C65.0222 50.9609 62.594 53.1391 60.3305 55.5228C58.0669 57.9064 56.0091 60.4134 54.116 63.0847C52.2228 65.756 50.5766 68.5918 49.1361 71.5097C46.2141 77.3455 44.2386 83.5924 43.0862 90.0858C41.9339 96.5381 41.6458 103.114 42.1396 109.648C42.6335 116.183 44.1974 122.635 46.8314 128.512C48.1895 131.471 49.8358 134.266 51.8112 136.855C52.799 138.129 53.869 139.362 55.0214 140.471C55.6387 141.047 56.1737 141.622 56.7911 142.074C57.4084 142.526 58.0669 143.102 58.6842 143.513L57.573 144.335C57.4084 143.759 57.3673 143.307 57.2849 142.773C57.2849 142.197 57.2849 141.622 57.6142 141.006C57.82 140.718 58.1081 140.389 58.5196 140.266C58.8489 140.101 59.2193 140.101 59.5074 140.101C60.1247 140.143 60.6597 140.307 61.0713 140.471L61.7298 140.759C61.9355 140.882 62.1002 140.923 62.3471 140.965C62.7175 141.129 63.1702 141.17 63.5818 141.17C63.9522 141.211 64.3226 141.17 64.5284 141.006C64.6518 140.965 64.7341 140.841 64.8164 140.8C64.8576 140.759 64.8576 140.677 64.9399 140.595C64.9399 140.554 64.9399 140.554 64.9811 140.471C64.9811 140.471 64.9811 140.348 64.9811 140.43L66.1334 140.06C66.298 140.266 66.545 140.471 66.8331 140.677C67.0388 140.882 67.4092 141.006 67.6562 141.252C68.2735 141.54 68.8909 141.745 69.5493 141.91C70.2078 142.074 70.8663 142.074 71.5248 142.033C72.1833 141.992 72.7595 141.828 73.1299 141.375C73.3357 141.17 73.5003 140.965 73.7472 140.595C73.953 140.307 74.1588 139.896 74.5703 139.649C74.9407 139.444 75.3935 139.279 75.805 139.279C76.2166 139.238 76.587 139.279 76.9574 139.279C77.6982 139.321 78.439 139.444 79.1386 139.485C79.4679 139.526 79.8383 139.608 80.1264 139.526C80.291 139.526 80.4145 139.485 80.4556 139.485C80.4968 139.485 80.4968 139.444 80.5791 139.279V139.238C80.5791 139.033 80.7849 138.91 80.9495 138.951C81.1553 138.91 81.3199 139.115 81.2787 139.197Z" fill="black"/>
<path d="M103.707 55.3584C103.543 55.2351 103.378 55.0708 103.09 54.9475C102.884 54.7831 102.678 54.742 102.39 54.5776C101.979 54.3721 101.444 54.2077 100.909 54.0022C99.9209 53.7145 98.8508 53.6734 97.8219 53.7145C95.723 53.8789 93.624 54.6598 91.6897 55.7694C89.7554 56.879 88.068 58.2353 86.4218 59.7559C84.8167 61.2765 83.3351 62.9204 81.7712 64.6054C78.7668 68.0165 75.8859 71.4276 73.1696 75.1263C71.8527 76.9757 70.5768 78.7429 69.301 80.7156C68.1486 82.6472 66.9963 84.5788 65.9262 86.5515C64.8973 88.6063 63.9508 90.579 63.0865 92.675C62.3045 94.7299 61.5226 96.8669 60.9052 99.0451C59.6706 103.36 58.9298 107.84 58.5182 112.279C58.1478 116.758 58.189 121.279 58.5182 125.758C58.8063 130.238 59.5471 134.718 59.9998 139.238C60.041 139.444 59.8352 139.732 59.5882 139.732C59.3825 139.732 59.1767 139.567 59.0944 139.403C57.8186 135.047 57.2424 130.444 56.872 125.882C56.5427 121.32 56.5016 116.717 56.872 112.114C57.6128 102.949 60.0821 93.8668 64.3623 85.7295C65.4735 83.6746 66.5847 81.7019 67.7782 79.7704C69.0129 77.8388 70.3299 75.9072 71.688 74.0989C74.4866 70.4001 77.3675 66.9479 80.413 63.4957C83.3763 60.0847 86.6687 56.6736 90.8254 54.331C92.8832 53.1803 95.1468 52.2761 97.575 52.1528C98.8097 52.1117 100.044 52.1939 101.197 52.5227C101.814 52.6871 102.349 52.8926 102.925 53.2214C103.213 53.3858 103.501 53.509 103.707 53.6323C103.913 53.8378 104.201 53.9611 104.489 54.2488C104.777 54.5365 104.818 54.9886 104.53 55.2762C104.489 55.605 104.078 55.6872 103.707 55.3584Z" fill="black"/>
<path d="M50.3767 130.649C48.4012 128.224 47.0019 125.512 45.7261 122.717C44.5737 119.882 43.6271 116.964 42.8863 113.922C42.5982 112.402 42.2278 110.922 42.0632 109.402C41.9397 108.662 41.8574 107.881 41.7751 107.141L41.5693 104.881C41.4459 104.141 41.4459 103.36 41.4047 102.579L41.2812 100.278C41.2812 98.7574 41.3224 97.2368 41.4047 95.7162C41.4047 95.3463 41.734 94.9764 42.1455 95.0175C42.5159 95.0175 42.8452 95.3463 42.8452 95.7573V95.7984C42.8452 97.2779 42.8452 98.7985 42.8452 100.278L42.9686 102.538C43.0098 103.278 43.0098 104.018 43.1333 104.799C43.2979 106.278 43.339 107.799 43.6271 109.278C43.7917 110.758 44.121 112.237 44.3679 113.717C45.0264 116.635 45.7261 119.512 46.8373 122.347C47.0431 123.046 47.3311 123.786 47.6192 124.402L48.0308 125.43L48.5247 126.457C49.1831 127.772 49.8416 129.128 50.7059 130.402C50.8294 130.567 50.7471 130.69 50.5824 130.772C50.6236 130.813 50.459 130.731 50.3767 130.649Z" fill="black"/>
<path d="M126.841 131.019C127.047 133.197 124.742 137.8 122.15 141.622C119.598 145.362 126.142 142.649 126.718 142.978C127.335 143.307 125.771 144.951 127.747 145.814C129.722 146.636 146.102 146.389 144.374 112.895C142.645 79.4004 116.47 55.6871 116.47 55.6871C116.47 55.6871 110.955 50.0157 104.617 55.0707" stroke="black" stroke-width="1.4798" stroke-miterlimit="10" stroke-linecap="round" stroke-linejoin="round"/>
<path d="M143.343 131.8C145.401 125.594 146.718 119.101 147.253 112.525C147.747 105.95 147.541 99.3739 146.677 92.8805C145.854 86.346 144.414 79.8937 142.479 73.6058C141.533 70.4413 140.421 67.359 139.228 64.2766C137.993 61.2354 136.717 58.1531 135.195 55.3174L135.236 55.3585C133.919 53.5091 132.396 51.783 130.914 50.098C129.351 48.413 127.704 46.8513 125.935 45.454C124.165 44.0978 122.231 42.8648 120.173 42.0429C118.115 41.2209 115.851 40.8922 113.794 41.3442C113.423 41.4675 113.012 41.1798 112.888 40.7689C112.765 40.399 113.053 39.988 113.464 39.8647C114.699 39.577 115.934 39.577 117.168 39.7003C118.403 39.8647 119.597 40.1935 120.708 40.6456C122.971 41.5497 124.947 42.8648 126.84 44.2622C128.733 45.7417 130.379 47.3445 131.984 49.0706C133.548 50.7967 135.03 52.5639 136.429 54.5365L136.47 54.5776C138.034 57.5778 139.351 60.619 140.586 63.6602C141.821 66.7425 142.891 69.907 143.837 73.0715C145.772 79.4416 147.212 86.0172 148.035 92.5928C148.858 99.2095 149.064 105.908 148.529 112.525C148.035 119.142 146.636 125.759 144.537 132.088C144.414 132.375 144.125 132.581 143.755 132.457C143.343 132.457 143.22 132.129 143.343 131.8Z" fill="black"/>
<path d="M65.6916 90.0858C67.5847 89.5105 69.4367 89.0995 71.3299 88.7707C73.2231 88.4008 75.1162 88.0721 77.0094 87.8666C77.9971 87.7433 78.9437 87.7022 79.9314 87.6611C80.9192 87.6611 81.9069 87.62 82.8947 87.6611C84.8701 87.7844 86.8868 87.9899 88.9445 88.8118C89.603 89.0173 89.8911 89.7982 89.6442 90.4146C89.4384 91.0722 88.6565 91.3599 88.0391 91.1133H87.998C86.4752 90.4146 84.6644 90.0858 82.8535 89.9625C81.9481 89.8393 81.0015 89.8393 80.0549 89.7982C79.1083 89.7982 78.1618 89.7982 77.2152 89.9215C75.322 90.0447 73.47 90.2502 71.5768 90.5379C69.6837 90.8256 67.8317 91.1955 65.9797 91.6475C65.6093 91.7708 65.1977 91.4832 65.0742 91.0722C65.0331 90.579 65.3212 90.2091 65.6916 90.0858Z" fill="black"/>
<path d="M108.283 86.8391C108.448 86.7158 108.571 86.6336 108.654 86.6336C108.818 86.5103 108.86 86.4692 109.024 86.4281C109.23 86.2637 109.518 86.2226 109.765 86.0582C110.259 85.8527 110.794 85.565 111.288 85.3596C111.864 85.1541 112.317 84.9897 112.852 84.7842L113.634 84.5787L114.416 84.3732C116.515 83.88 118.737 83.6746 120.877 83.6746C121.988 83.7157 123.058 83.7157 124.087 83.88C124.663 84.0033 125.198 84.0033 125.651 84.0855L127.215 84.4143C127.791 84.5376 128.244 84.6198 128.738 84.7842L130.261 85.1952C131.248 85.5239 132.236 85.9349 133.265 86.3048C133.635 86.4692 133.882 86.8802 133.676 87.25C133.512 87.6199 133.1 87.8665 132.771 87.661H132.812C131.824 87.3733 130.878 87.0035 129.89 86.7569L128.409 86.4281C127.915 86.3048 127.421 86.2226 126.927 86.1404L125.445 85.9349C124.951 85.8116 124.458 85.8116 123.923 85.7705C122.935 85.6472 121.865 85.7294 120.918 85.7294C118.86 85.8527 116.926 86.0993 115.074 86.6747L114.374 86.8802L113.675 87.0856C113.263 87.25 112.769 87.4144 112.317 87.661C111.905 87.8665 111.411 88.0309 111.041 88.3186C110.835 88.4419 110.67 88.5241 110.423 88.6474C110.3 88.6885 110.218 88.7706 110.135 88.8528C110.012 88.8939 109.93 89.0172 109.93 89.0172C109.312 89.5104 108.448 89.3871 107.995 88.8117C107.501 88.1953 107.625 87.3322 108.201 86.8802C108.16 86.8802 108.201 86.8802 108.283 86.8391Z" fill="black"/>
<path d="M67.826 103.402C69.1018 101.799 70.6658 100.484 72.2708 99.2918C73.094 98.6753 73.9994 98.1821 74.8636 97.73C75.7691 97.2369 76.7568 96.8259 77.7445 96.4971C79.72 95.8396 81.9424 95.5519 84.0414 96.0861C85.1526 96.2916 86.0992 96.7848 87.0046 97.4013C87.91 98.0177 88.6097 98.7575 89.3093 99.5794C89.5151 99.8671 89.5151 100.36 89.1858 100.607C88.8977 100.812 88.4862 100.812 88.1981 100.566L88.1569 100.525C87.4985 99.8671 86.84 99.2918 86.058 98.8397C85.276 98.4287 84.4941 98.0999 83.6298 97.9355C81.9013 97.6479 80.1316 97.9355 78.3619 98.552C76.6333 99.2096 74.9871 100.073 73.4644 101.1C71.9004 102.127 70.3777 103.278 68.8138 104.429H68.7314C68.4022 104.634 67.9495 104.634 67.7026 104.265C67.6614 104.059 67.6614 103.607 67.826 103.402Z" fill="black"/>
<path d="M76.1027 99.8259C76.1027 99.8259 75.0738 105.58 81.2884 105.908C87.5029 106.196 85.9801 97.771 85.9801 97.771" stroke="black" stroke-width="1.4798" stroke-miterlimit="10" stroke-linecap="round" stroke-linejoin="round"/>
<path d="M109.393 96.1683C109.516 95.9628 109.558 95.8806 109.599 95.7984C109.64 95.6752 109.763 95.593 109.804 95.4697C109.969 95.2642 110.134 95.0587 110.298 94.8121C110.628 94.4422 111.08 94.0723 111.451 93.7847C112.274 93.1682 113.303 92.7983 114.29 92.5106C115.278 92.223 116.266 92.0997 117.254 92.0175C118.241 91.9764 119.229 91.9764 120.217 92.0586C122.151 92.2641 124.086 92.5517 125.896 93.2093C126.843 93.5381 127.79 93.9902 128.571 94.5655C128.777 94.7299 128.942 94.8532 129.189 95.0587C129.395 95.2231 129.559 95.3875 129.806 95.6341C130.053 95.8806 130.135 96.0039 130.3 96.2916C130.423 96.4149 130.465 96.4971 130.506 96.6615C130.547 96.8259 130.629 96.867 130.712 97.1547C130.876 97.5245 130.67 97.9355 130.3 98.0999C129.93 98.2643 129.518 98.0588 129.353 97.6889C129.353 97.6889 129.23 97.5656 129.189 97.5245C129.148 97.4834 129.065 97.3602 128.983 97.3191C128.818 97.1547 128.695 97.1136 128.571 96.9492C128.242 96.7437 127.913 96.5382 127.543 96.2916C126.802 95.9217 126.02 95.593 125.238 95.3053C123.633 94.7299 121.822 94.4011 120.052 94.1956C119.147 94.0723 118.283 94.0313 117.459 94.0313C116.554 94.0313 115.731 94.1545 114.908 94.3189C114.044 94.5244 113.303 94.8121 112.603 95.2231C112.274 95.4286 111.903 95.6341 111.615 95.9217C111.451 96.0861 111.327 96.2094 111.204 96.2916C111.163 96.3327 111.039 96.456 110.998 96.4971L110.833 96.7026L110.71 96.867C110.504 97.1958 110.01 97.2369 109.681 97.0314C109.352 96.7848 109.228 96.456 109.393 96.1683Z" fill="black"/>
<path d="M114.543 94.1132C114.543 94.1132 111.621 99.7436 117.053 101.963C122.527 104.141 125.902 98.9627 122.938 94.031" stroke="black" stroke-width="1.4798" stroke-miterlimit="10" stroke-linecap="round" stroke-linejoin="round"/>
<path d="M89.1822 123.457C89.1822 123.457 89.3057 123.498 89.388 123.58C89.5115 123.621 89.5938 123.704 89.7172 123.786C89.923 123.909 90.1288 123.991 90.4169 124.073C90.9108 124.279 91.4046 124.402 91.9397 124.567C92.9685 124.854 93.9974 125.142 95.1086 125.265C97.2076 125.553 99.3477 125.676 101.488 125.553C103.587 125.389 105.727 124.978 107.702 124.32C108.69 123.991 109.678 123.58 110.624 123.087C111.571 122.676 112.518 122.06 113.423 121.484C113.629 121.32 114.081 121.361 114.205 121.69C114.37 121.895 114.328 122.306 114.04 122.43C112.312 123.868 110.295 124.936 108.196 125.758C107.085 126.128 106.015 126.457 104.945 126.663C103.875 126.868 102.722 126.991 101.57 127.032C99.3065 127.156 97.0841 126.991 94.8617 126.457C93.7505 126.252 92.6805 125.882 91.6104 125.553C91.0342 125.347 90.5815 125.183 90.0465 124.895C89.8407 124.731 89.5526 124.69 89.3057 124.526C89.1411 124.484 89.0999 124.361 88.9353 124.32C88.8118 124.197 88.7295 124.115 88.5649 123.909C88.4414 123.704 88.5649 123.539 88.7707 123.416C88.8941 123.169 89.0999 123.251 89.1822 123.457Z" fill="black"/>
<path d="M92.847 124.731C92.8058 124.731 92.8881 124.69 92.9704 124.69C93.0116 124.649 93.1351 124.567 93.1762 124.526C93.3408 124.402 93.4643 124.32 93.5878 124.197L94.5755 123.457C95.2752 122.964 95.9336 122.512 96.7568 122.142C97.1272 121.936 97.5799 121.813 98.0737 121.731C98.4853 121.608 99.0615 121.566 99.5553 121.731L100.173 121.895C100.378 121.936 100.502 121.936 100.667 121.936C100.996 121.977 101.325 121.936 101.613 121.895C101.901 121.854 102.23 121.69 102.56 121.566C102.889 121.443 103.301 121.156 103.877 120.95C104.041 120.909 104.165 120.909 104.288 120.909C104.453 120.909 104.494 120.909 104.659 120.909C104.864 120.909 105.07 120.95 105.317 121.032C105.688 121.073 106.14 121.197 106.552 121.238C108.157 121.566 109.721 122.019 111.285 122.512C111.449 122.553 111.491 122.717 111.491 122.882C111.449 123.046 111.326 123.087 111.202 123.087C109.597 122.964 107.951 122.799 106.387 122.594L105.235 122.471C104.864 122.43 104.453 122.43 104.288 122.471C103.918 122.512 103.136 123.251 102.066 123.457C101.572 123.58 101.078 123.621 100.584 123.58C100.378 123.58 100.173 123.539 99.8846 123.457L99.2673 123.293C98.6911 123.128 98.0326 123.293 97.3329 123.498C96.6333 123.704 95.8925 124.115 95.234 124.443C94.9047 124.649 94.4932 124.772 94.1228 125.019C93.917 125.142 93.7524 125.183 93.5055 125.224C93.382 125.265 93.2997 125.265 93.1762 125.347C93.0116 125.347 92.8881 125.389 92.6823 125.347C92.5177 125.306 92.4766 125.142 92.4766 124.978C92.4766 124.731 92.7235 124.608 92.847 124.731Z" fill="black"/>
<path d="M93.3422 125.635C94.7826 126.581 96.3054 127.361 97.8693 127.896C99.4332 128.471 101.079 128.718 102.643 128.594C104.207 128.43 105.812 127.937 107.212 127.115C108.57 126.293 109.804 125.183 110.628 123.704C110.751 123.498 110.998 123.416 111.245 123.539C111.451 123.663 111.451 123.827 111.451 124.033C110.875 125.882 109.599 127.361 108.035 128.348C106.471 129.334 104.66 130.033 102.767 130.197C100.833 130.32 99.0217 129.868 97.3343 129.088C95.6469 128.307 94.1653 127.32 92.8895 126.046C92.766 125.923 92.766 125.759 92.8895 125.676C93.0953 125.594 93.2187 125.553 93.3422 125.635Z" fill="black"/>
<path d="M139.193 90.5378C140.139 100.36 128.739 142.814 106.062 144.91C81.1631 147.17 68.8987 129.868 59.0625 109.484" stroke="black" stroke-width="1.4798" stroke-miterlimit="10" stroke-linecap="round" stroke-linejoin="round"/>
<path d="M78.2812 140.225C78.2812 140.225 93.5912 161.39 99.6411 161.349C105.691 161.308 115.033 147.417 115.898 143.471" stroke="black" stroke-width="1.4798" stroke-miterlimit="10" stroke-linecap="round" stroke-linejoin="round"/>
<path d="M127.663 146.348C127.663 146.348 122.148 161.76 113.876 165.212C113.876 165.212 109.061 163.897 108.484 162.828" stroke="black" stroke-width="1.4798" stroke-miterlimit="10" stroke-linecap="round" stroke-linejoin="round"/>
<path d="M64.5312 142.526C64.5312 142.526 73.0093 155.184 87.208 164.185" stroke="black" stroke-width="1.4798" stroke-miterlimit="10" stroke-linecap="round" stroke-linejoin="round"/>
<path d="M93.7578 165.911C93.7578 165.911 97.1326 162.828 97.0091 161.76" stroke="black" stroke-width="1.4798" stroke-miterlimit="10" stroke-linecap="round" stroke-linejoin="round"/>
<path d="M99.759 179.432C92.5568 164.965 73.1313 156.623 73.1313 156.623L73.0078 161.061" stroke="black" stroke-width="1.4798" stroke-miterlimit="10" stroke-linecap="round" stroke-linejoin="round"/>
<path d="M99.6804 179.021C98.9808 174.253 88.1568 157.691 88.1568 157.691L87.9922 164.596" stroke="black" stroke-width="1.4798" stroke-miterlimit="10" stroke-linecap="round" stroke-linejoin="round"/>
<path d="M100.42 179.391C101.202 172.938 97.2094 157.773 97.2094 157.773L97.0859 171.336" stroke="black" stroke-width="1.4798" stroke-miterlimit="10" stroke-linecap="round" stroke-linejoin="round"/>
<path d="M101.242 179.062C104.658 173.801 109.391 158.349 109.391 158.349L108.815 171.377" stroke="black" stroke-width="1.4798" stroke-miterlimit="10" stroke-linecap="round" stroke-linejoin="round"/>
<path d="M132.237 156.828C132.237 156.828 107.79 172.774 101.164 179.391" stroke="black" stroke-width="1.4798" stroke-miterlimit="10" stroke-linecap="round" stroke-linejoin="round"/>
<path d="M64.5341 177.87L63.7109 162.13C63.7109 162.13 80.8317 169.486 84.6592 172.281C88.569 175.075 97.1294 180.13 98.1994 180.582C99.3106 180.993 102.233 181.404 103.097 181.075C103.92 180.747 134.046 158.677 134.046 158.677C134.046 158.677 136.022 156.17 136.721 160.445C137.462 164.76 141.454 203.474 140.466 209.351L140.672 212.967C140.672 212.967 141.989 214.323 137.75 215.967C133.511 217.652 124.539 220.652 120.753 222.707C117.049 224.762 109.065 227.762 108.118 228.543C107.13 229.324 100.957 230.434 97.3352 228.749L65.8099 218.926L65.2337 204.296" stroke="black" stroke-width="1.4798" stroke-miterlimit="10" stroke-linecap="round" stroke-linejoin="round"/>
<path d="M97.1698 191.514C97.1698 191.514 98.281 195.706 95.7294 210.378C95.7294 210.378 80.7075 210.008 63.134 202.981C46.3836 196.323 35.642 193.61 35.1893 192.172C34.7366 190.734 35.3951 188.802 36.7121 185.555C39.0991 179.35 40.3338 166.856 60.9939 143.841L62.5167 142.156" stroke="black" stroke-width="1.4798" stroke-miterlimit="10" stroke-linecap="round" stroke-linejoin="round"/>
<path d="M138.82 141.375C138.82 141.869 150.179 139.814 161.291 125.676C168.205 116.799 178.412 108.415 183.022 107.182C183.022 107.182 184.133 103.073 186.561 111.415C189.113 120.21 186.767 152.307 188.166 138.293C188.66 133.526 188.825 134.389 190.018 124.115" stroke="black" stroke-width="1.4798" stroke-miterlimit="10" stroke-linecap="round" stroke-linejoin="round"/>
<path d="M185.82 107.306C185.82 107.306 193.681 94.4832 200.76 94.7298C207.839 94.9353 208.785 111.415 207.016 115.032C205.246 118.607 204.176 119.018 204.176 119.018" stroke="black" stroke-width="1.4798" stroke-miterlimit="10" stroke-linecap="round" stroke-linejoin="round"/>
<path d="M192.237 99.9492C192.237 99.9492 191.126 104.675 193.184 109.772C195.159 114.909 196.805 117.703 201.826 113.881L204.625 121.114C204.625 121.114 206.312 123.786 203.843 124.731C201.374 125.676 200.098 126.211 198.699 122.471C197.34 118.731 197.093 117.21 197.135 115.936" stroke="black" stroke-width="1.4798" stroke-miterlimit="10" stroke-linecap="round" stroke-linejoin="round"/>
<path d="M198.043 122.429C196.356 123.786 189.935 123.95 189.935 123.95L187.672 123.827" stroke="black" stroke-width="1.4798" stroke-miterlimit="10" stroke-linecap="round" stroke-linejoin="round"/>
<path d="M187.427 141.663C183.64 147.335 160.264 162.582 152.115 168.089C143.843 173.678 143.267 182.555 141.25 207.46" stroke="black" stroke-width="1.4798" stroke-miterlimit="10" stroke-linecap="round" stroke-linejoin="round"/>
<path d="M99.0234 181.446L99.2704 191.967" stroke="black" stroke-width="1.4798" stroke-miterlimit="10" stroke-linecap="round" stroke-linejoin="round"/>
<path d="M102.891 181.487L103.055 188.514" stroke="black" stroke-width="1.4798" stroke-miterlimit="10" stroke-linecap="round" stroke-linejoin="round"/>
<path d="M98.4428 193.939C98.4428 193.939 104.575 187.775 108.649 186.048C112.765 184.322 117.251 181.281 117.621 189.912C117.992 198.542 119.391 199.282 112.93 202.94C106.468 206.638 99.554 205.405 98.0312 204.666" stroke="black" stroke-width="1.4798" stroke-miterlimit="10" stroke-linecap="round" stroke-linejoin="round"/>
<path d="M99.4758 205.734C99.4758 205.734 96.2656 214.365 96.2656 209.433" stroke="black" stroke-width="1.4798" stroke-miterlimit="10" stroke-linecap="round" stroke-linejoin="round"/>
<path d="M103.219 206.72L105.194 227.968" stroke="black" stroke-width="1.4798" stroke-miterlimit="10" stroke-linecap="round" stroke-linejoin="round"/>
<path d="M99.4297 207.542L100.911 228.215" stroke="black" stroke-width="1.4798" stroke-miterlimit="10" stroke-linecap="round" stroke-linejoin="round"/>
<path d="M129.561 203.309C129.561 203.309 130.302 201.213 132.73 201.419C135.158 201.624 136.105 205.734 134.418 207.995C134.418 207.995 135.776 212.721 133.594 214.611C133.594 214.611 132.689 209.022 130.631 209.556C128.573 210.132 130.425 215.022 130.425 215.022C130.425 215.022 126.104 215.392 126.104 209.186C126.104 209.186 123.676 206.351 124.046 204.008C124.334 201.624 127.874 201.46 129.561 203.309Z" stroke="black" stroke-width="1.4798" stroke-miterlimit="10" stroke-linecap="round" stroke-linejoin="round"/>
<path d="M131.78 199.035C131.986 198.46 132.274 198.008 132.604 197.515C132.933 197.104 133.303 196.611 133.756 196.282C134.085 196.076 134.579 196.117 134.867 196.487C135.032 196.693 135.073 196.898 134.991 197.186C134.785 197.802 134.497 198.213 134.167 198.706C133.838 199.117 133.427 199.611 133.015 199.939C132.686 200.145 132.192 200.145 131.904 199.775C131.698 199.528 131.657 199.2 131.78 199.035Z" fill="black"/>
<path d="M125.118 196.405C125.489 196.693 125.736 197.104 125.941 197.556C126.147 197.926 126.312 198.378 126.435 198.83C126.559 199.2 126.271 199.652 125.859 199.775C125.571 199.816 125.283 199.775 125.118 199.57C124.789 199.241 124.501 198.83 124.295 198.419C124.089 198.049 123.884 197.638 123.801 197.145C123.76 196.734 124.007 196.323 124.46 196.241C124.748 196.2 125.036 196.241 125.118 196.405Z" fill="black"/>
<path d="M120.429 198.09C120.922 198.419 121.375 198.83 121.787 199.241C121.992 199.446 122.198 199.611 122.445 199.898C122.651 200.104 122.816 200.309 123.021 200.597C123.227 200.926 123.186 201.378 122.816 201.625C122.61 201.83 122.198 201.83 121.992 201.625C121.787 201.46 121.499 201.296 121.293 201.049C121.087 200.844 120.881 200.679 120.634 200.433C120.223 200.063 119.811 199.611 119.482 199.118C119.276 198.789 119.276 198.337 119.647 198.09C119.811 197.885 120.182 197.885 120.429 198.09Z" fill="black"/>
<path d="M56.75 201.254C56.75 201.254 57.5731 234.05 57.5731 245.804C57.5731 255.955 94.5721 249.708 111.158 250.037C130.048 250.366 144.7 242.845 146.181 241.612C147.663 240.379 141.325 219.173 141.366 208.816" stroke="black" stroke-width="1.4798" stroke-miterlimit="10" stroke-linecap="round" stroke-linejoin="round"/>
<path d="M57.9062 246.215C57.9062 246.215 70.1707 290.066 72.9281 297.669C75.6032 305.314 80.5831 315.629 77.7845 318.752C74.9859 321.835 63.9561 328.41 71.6111 328.739C79.2661 329.068 92.5182 331.986 93.794 324.218C95.0699 316.451 96.1811 272.477 104.495 273.011C112.808 273.586 111.903 326.89 111.903 326.89C111.903 326.89 110.544 329.767 116.224 329.849C121.903 329.972 141.329 331.78 137.378 326.972C133.427 322.205 127.583 319.122 129.106 311.848C130.67 304.533 137.79 283.08 138.777 278.066C139.765 273.011 144.457 251.435 144.416 242.681" stroke="black" stroke-width="1.4798" stroke-miterlimit="10" stroke-linecap="round" stroke-linejoin="round"/>
<path d="M101.164 161.226L106.967 162.911" stroke="black" stroke-width="1.4798" stroke-miterlimit="10" stroke-linecap="round" stroke-linejoin="round"/>
<path d="M122.278 141.17L116.352 142.28" stroke="black" stroke-width="1.4798" stroke-miterlimit="10" stroke-linecap="round" stroke-linejoin="round"/>
<path d="M53.0938 180.336C53.0938 180.336 60.0902 176.719 67.2102 179.514C74.2889 182.35 88.4877 190.651 92.7679 190.405C97.0069 190.117 97.4596 191.309 97.4596 191.309" stroke="black" stroke-width="1.4798" stroke-miterlimit="10" stroke-linecap="round" stroke-linejoin="round"/>
<path d="M57.9062 182.596C57.9062 182.596 59.2644 178.856 64.1619 179.185" stroke="black" stroke-width="1.4798" stroke-miterlimit="10" stroke-linecap="round" stroke-linejoin="round"/>
<path d="M63.5859 161.513L65.6849 159.417C65.6849 159.417 66.508 157.855 71.2821 160.938C76.015 164.102 100.173 178.815 99.4326 179.719" stroke="black" stroke-width="1.4798" stroke-miterlimit="10" stroke-linecap="round" stroke-linejoin="round"/>
<path d="M101.164 231.215L102.893 249.791" stroke="black" stroke-width="1.4798" stroke-miterlimit="10" stroke-linecap="round" stroke-linejoin="round"/>
<path d="M119.104 229.612C119.104 229.612 132.727 227.228 134.373 226.653C134.373 226.653 136.678 230.968 133.879 231.543C131.039 232.201 126.101 232.324 124.372 233.27C122.644 234.215 119.598 234.544 119.228 232.365C118.898 230.187 118.898 229.447 118.898 229.447" stroke="black" stroke-width="1.4798" stroke-miterlimit="10" stroke-linecap="round" stroke-linejoin="round"/>
<path d="M70.9141 229.735C70.9141 229.735 85.2774 228.831 86.7179 231.79C88.1583 234.79 86.5121 234.461 83.0138 234.338C79.5156 234.174 72.8484 234.708 71.9018 235.242C71.0375 235.735 70.9141 229.735 70.9141 229.735Z" stroke="black" stroke-width="1.4798" stroke-miterlimit="10" stroke-linecap="round" stroke-linejoin="round"/>
<path d="M183.471 139.731C183.43 140.718 182.648 141.211 181.619 141.17C180.59 141.129 179.89 140.512 179.931 139.608C179.973 138.622 180.837 138.088 181.783 138.129C182.73 138.17 183.512 138.745 183.471 139.731Z" stroke="black" stroke-width="1.4798" stroke-miterlimit="10" stroke-linecap="round" stroke-linejoin="round"/>
<path d="M178.619 143.471C178.578 144.458 177.796 144.951 176.767 144.91C175.779 144.869 175.039 144.252 175.08 143.348C175.121 142.362 175.985 141.828 176.932 141.869C177.961 141.828 178.66 142.485 178.619 143.471Z" stroke="black" stroke-width="1.4798" stroke-miterlimit="10" stroke-linecap="round" stroke-linejoin="round"/>
<path d="M93.7103 206.556C93.5045 207.378 92.5991 207.789 91.6525 207.666C90.7059 207.501 90.0474 206.679 90.2944 205.775C90.5002 204.994 91.241 204.542 92.1464 204.624C93.093 204.624 93.9572 205.57 93.7103 206.556Z" stroke="black" stroke-width="1.4798" stroke-miterlimit="10" stroke-linecap="round" stroke-linejoin="round"/>
<path d="M87.7025 205.488C87.4967 206.31 86.5913 206.72 85.6447 206.597C84.6981 206.433 84.0396 205.611 84.2866 204.707C84.4923 203.926 85.2332 203.474 86.1386 203.556C87.0852 203.597 87.9083 204.501 87.7025 205.488Z" stroke="black" stroke-width="1.4798" stroke-miterlimit="10" stroke-linecap="round" stroke-linejoin="round"/>
<path d="M133.505 145.198C133.505 145.198 122.887 159.746 122.805 162.541" stroke="black" stroke-width="1.4798" stroke-miterlimit="10" stroke-linecap="round" stroke-linejoin="round"/>
<path d="M60.7891 144.458C60.7891 144.458 72.6008 153.499 72.4361 158.801" stroke="black" stroke-width="1.4798" stroke-miterlimit="10" stroke-linecap="round" stroke-linejoin="round"/>
<path d="M192.036 98.4286L190.102 90.3735L190.925 82.5649L195.287 87.6199L197.304 94.3188" stroke="black" stroke-width="1.4798" stroke-miterlimit="10" stroke-linecap="round" stroke-linejoin="round"/>
<path d="M190.508 91.1543L191.66 89.3871L193.389 90.0035L194.665 88.113" stroke="black" stroke-width="1.4798" stroke-miterlimit="10" stroke-linecap="round" stroke-linejoin="round"/>
<path d="M191.743 85.0723L191.578 84.6196" stroke="black" stroke-width="1.4798" stroke-miterlimit="10" stroke-linecap="round" stroke-linejoin="round"/>
<path d="M183.512 41.5907C183.306 40.2755 183.224 39.0015 183.347 37.6453C183.512 36.3302 183.841 35.0151 184.499 33.741C185.158 32.5081 186.022 31.3574 187.133 30.4943C188.286 29.5902 189.562 29.0148 190.879 28.6449C192.196 28.2751 193.554 28.1518 194.912 28.0696C196.229 28.0696 197.546 28.1107 198.863 28.2751C199.192 28.3162 199.521 28.3984 199.851 28.4395L200.797 28.6449C201.085 28.686 201.456 28.8093 201.744 28.8504C202.073 28.8915 202.402 29.0148 202.731 29.0559C204.007 29.3436 205.242 29.6724 206.518 30.0834C208.987 30.9053 211.415 32.0149 213.597 33.6177C214.708 34.4397 215.695 35.4671 216.519 36.659C217.301 37.8097 217.836 39.2892 217.877 40.8098C217.918 42.2893 217.671 43.7277 217.095 44.9607C216.601 46.1114 216.066 47.3443 215.407 48.4539C215.119 49.0704 214.749 49.6047 214.378 50.1389C214.008 50.7143 213.597 51.2486 213.062 51.7007C212.856 51.9061 212.485 52.1938 212.115 52.3993C211.786 52.6048 211.333 52.7281 210.839 52.6048C210.345 52.5637 209.934 52.276 209.687 51.9472C209.481 51.6596 209.275 51.2897 209.069 50.9609L209.975 51.002C209.687 51.4952 209.357 51.9061 208.946 52.276C208.576 52.6459 208.041 52.9747 207.505 53.1802C206.929 53.3856 206.353 53.3856 205.777 53.3035C205.489 53.2624 205.201 53.098 204.995 53.098C204.789 52.9336 204.501 52.8925 204.295 52.7281L203.637 52.2349L203.02 51.6596C202.69 51.2897 202.279 50.8787 202.073 50.3033C202.032 50.1389 201.949 50.0157 201.908 49.8924C201.867 49.728 201.867 49.5636 201.908 49.3992C201.908 49.1937 202.032 49.0704 202.073 48.906C202.196 48.7416 202.238 48.6183 202.361 48.5361C202.773 48.043 203.349 47.8375 203.884 47.632C204.09 47.5909 204.46 47.7553 204.501 47.9608C204.542 48.1663 204.378 48.5361 204.172 48.5772H204.131C203.76 48.7005 203.349 48.8649 203.102 49.1526C202.896 49.3581 202.896 49.6458 202.978 50.0568C203.02 50.2622 203.184 50.3855 203.266 50.6321C203.431 50.8376 203.555 50.9609 203.678 51.1253L204.172 51.6185L204.748 51.9883C205.489 52.5637 206.353 52.7281 207.135 52.4815C207.917 52.276 208.617 51.4952 209.028 50.7965C209.193 50.591 209.44 50.4677 209.728 50.591C209.851 50.6321 209.893 50.7554 209.934 50.7965C210.057 51.002 210.222 51.2075 210.345 51.413C210.551 51.5774 210.674 51.6185 210.839 51.6185C211.004 51.6185 211.127 51.5774 211.333 51.413C211.539 51.2486 211.703 51.1253 211.909 50.9198C212.609 50.0978 213.185 48.9882 213.679 47.8786C214.173 46.7279 214.625 45.6182 214.996 44.4675C215.366 43.3579 215.572 42.2893 215.407 41.2208C215.202 39.1248 213.802 37.3165 211.909 35.9603C210.016 34.6452 207.794 33.6588 205.489 32.9191C204.336 32.5492 203.184 32.2204 201.991 31.9327C201.703 31.8916 201.373 31.7684 201.085 31.7273C200.756 31.6862 200.468 31.5629 200.139 31.5218L199.233 31.3163C198.945 31.2752 198.616 31.193 198.328 31.1519C197.175 30.9464 195.941 30.8642 194.788 30.8231C193.636 30.8231 192.484 30.9464 191.372 31.1519C189.15 31.5629 187.175 32.878 185.981 34.7685C184.829 36.7001 184.294 39.207 184.376 41.5496V41.5907C184.376 41.8783 184.17 42.0838 183.882 42.0838C183.759 42.0016 183.553 41.7961 183.512 41.5907Z" fill="#FEDE14"/>
<path d="M230.846 32.097C231.998 32.6724 233.068 33.2478 234.097 33.9875C235.126 34.7273 236.073 35.5492 236.937 36.5356C237.801 37.563 238.501 38.6315 238.995 39.9467C239.2 40.6042 239.365 41.2618 239.406 42.0015C239.447 42.7002 239.447 43.3577 239.365 44.0564C239.159 45.2071 238.995 46.4812 238.624 47.6319C238.336 48.7826 237.883 50.0566 237.307 51.2074C236.69 52.3581 235.826 53.4677 234.715 54.2486C233.603 55.0294 232.286 55.4815 231.01 55.687L231.299 54.3719C233.027 55.6048 234.468 57.1665 235.496 59.057C236.073 60.0022 236.402 61.1119 236.443 62.3037C236.484 63.4544 236.155 64.7285 235.496 65.7148C234.838 66.7011 233.933 67.482 232.945 68.0163C231.957 68.5916 230.887 68.8382 229.899 69.0437C228.87 69.2492 227.842 69.3314 226.73 69.3314C226.154 69.3314 225.701 69.2903 225.166 69.2081C224.961 69.167 224.59 69.167 224.384 69.0437C224.096 69.0026 223.808 68.9204 223.561 68.8382C223.191 68.6738 222.985 68.2217 223.191 67.893C223.356 67.5642 223.767 67.3176 224.096 67.482H224.137C224.302 67.5231 224.508 67.6053 224.755 67.6053C224.961 67.6464 225.166 67.6464 225.454 67.6464C225.866 67.6464 226.401 67.6464 226.813 67.6464C227.759 67.6053 228.706 67.482 229.611 67.2765C231.381 66.8655 233.109 66.0436 233.933 64.6874C234.838 63.3311 234.715 61.605 233.933 60.0022C233.562 59.2214 233.027 58.4405 232.451 57.7008C231.875 56.961 231.216 56.2624 230.517 55.6459C230.187 55.4404 230.105 54.9883 230.311 54.7007C230.434 54.5363 230.517 54.4952 230.681 54.413L230.846 54.3719C231.957 54.0431 232.904 53.5499 233.686 52.8924C234.468 52.1937 235.044 51.3718 235.538 50.3854C236.484 48.4127 236.855 46.0702 237.266 43.8098C237.431 42.8235 237.39 41.7549 237.06 40.8097C236.731 39.8234 236.237 38.8781 235.538 38.0151C234.221 36.289 232.327 34.7684 230.434 33.5765H230.352C230.023 33.371 229.94 32.8779 230.146 32.5491C230.146 32.097 230.599 31.9737 230.846 32.097Z" fill="#FEDE14"/>
<path d="M167.26 29.1382L163.68 35.5494L167.631 39.9057L171.87 35.9604L167.26 29.1382Z" fill="#FEDE14"/>
<path d="M221.253 93.5378L218.578 98.2641L221.541 101.552L224.669 98.6339L221.253 93.5378Z" fill="#FEDE14"/>
<path d="M215.577 6.37012L213.602 9.9045L215.824 12.4115L218.17 10.1922L215.577 6.37012Z" fill="#FEDE14"/>
<path d="M188.037 61.9751C186.926 62.0984 185.98 62.0984 184.951 62.1395C183.922 62.1805 182.893 62.2627 181.946 62.3449C179.971 62.5504 177.995 63.0436 176.267 63.8245C174.497 64.6053 172.892 65.756 171.699 67.2355C170.464 68.7151 169.6 70.4412 168.776 72.3727C168.776 72.4138 168.735 72.496 168.653 72.5371L168.53 72.5782C167.377 73.318 166.266 74.2632 165.731 75.2496C165.525 75.8249 165.402 76.277 165.443 76.8113C165.566 77.3866 165.772 77.8387 166.143 78.3319L166.431 78.7018L166.719 79.0305C166.924 79.236 167.13 79.5237 167.418 79.7703C167.912 80.2635 168.365 80.7155 168.9 81.0854C169.394 81.4553 169.929 81.7841 170.464 81.9074C170.752 81.9485 171.04 82.0306 171.287 81.9485C171.493 81.9074 171.863 81.7841 172.069 81.6608L172.11 81.6197C172.275 81.4964 172.439 81.5786 172.522 81.743C172.563 81.8663 172.563 81.9485 172.522 82.0717C172.11 82.8937 171.164 83.2225 170.258 83.2225C169.353 83.1814 168.571 82.8937 167.871 82.4827C167.13 82.1128 166.595 81.5786 166.019 81.1265C165.731 80.921 165.443 80.5511 165.237 80.3457L164.867 79.9347L164.537 79.4415C164.126 78.7429 163.714 77.962 163.632 77.0579C163.591 76.6469 163.632 76.1126 163.797 75.7427C163.961 75.3318 164.126 74.9208 164.373 74.592C164.867 73.8933 165.484 73.3591 166.101 72.9892C166.76 72.6193 167.418 72.2905 168.159 72.085L167.953 72.2905C168.118 70.1946 168.859 68.0575 170.176 66.2492C171.493 64.4409 173.386 63.1669 175.444 62.3449C177.502 61.523 179.6 61.1942 181.699 61.0709C183.798 60.9476 185.897 61.1942 187.914 61.3586C188.12 61.3586 188.243 61.5641 188.202 61.7285C188.367 61.8929 188.202 61.9751 188.037 61.9751Z" fill="#FEDE14"/>
<path d="M179.569 42.0426C178.911 41.2618 178.581 40.3576 178.335 39.4535C178.129 38.5082 178.129 37.563 178.17 36.6177C178.211 35.6725 178.458 34.7684 178.787 33.9464C179.034 33.0834 179.528 32.2614 179.94 31.4395C180.927 29.8778 182.203 28.5215 183.726 27.453C185.208 26.3434 186.895 25.6036 188.582 25.0282C190.311 24.4529 192.081 24.2063 193.85 24.0419C195.62 23.8775 197.39 23.9186 199.118 24.083C200.024 24.2063 200.847 24.2474 201.711 24.3707L202.987 24.5762L204.263 24.7817C205.086 24.9461 205.95 25.1515 206.773 25.3981C207.596 25.6447 208.461 25.8091 209.284 26.1379C212.617 27.2886 215.91 28.9325 218.544 31.5628C219.82 32.8779 220.931 34.4807 221.63 36.2068C222.371 37.9329 222.742 39.7823 222.742 41.6727C222.742 45.3715 221.507 48.9059 219.49 51.8649C218.461 53.3444 217.227 54.7007 215.622 55.7281C214.84 56.2213 214.017 56.6733 213.029 56.8788C212.041 57.0843 210.971 57.0021 210.024 56.5089L211.012 56.2213C210.107 57.9063 208.214 58.4816 206.691 58.3172C205.086 58.1939 203.645 57.6186 202.37 56.8788C201.135 56.1391 199.859 55.3582 198.954 53.9198C198.83 53.7143 198.748 53.5499 198.666 53.3033C198.542 53.0978 198.46 52.8924 198.46 52.6047C198.419 52.3992 198.336 52.1115 198.419 51.8649C198.419 51.7005 198.419 51.6594 198.46 51.495L198.583 51.1252C198.912 50.1388 199.694 49.5635 200.312 49.1936C200.641 48.9881 201.135 49.1525 201.299 49.4813C201.464 49.769 201.423 50.1799 201.135 50.3854C200.723 50.7964 200.394 51.2074 200.353 51.6183C200.312 51.9471 200.394 52.317 200.723 52.728C201.053 53.0979 201.464 53.5088 201.958 53.8787C202.452 54.2486 202.987 54.5774 203.522 54.9061C204.633 55.5637 205.785 56.0569 206.897 56.2213C207.473 56.3446 208.008 56.3446 208.461 56.1802C208.666 56.1391 208.954 56.0158 209.16 55.8925C209.284 55.8514 209.366 55.7281 209.448 55.687C209.531 55.6459 209.654 55.4815 209.654 55.4815L210.148 55.1938C210.313 55.0705 210.477 55.0705 210.642 55.1938C211.876 55.687 213.276 55.0705 214.51 54.1664C215.663 53.2211 216.692 51.9882 217.515 50.6731C219.12 48.0429 220.025 44.8783 219.902 41.796C219.778 40.2754 219.531 38.7959 218.873 37.4808C218.256 36.1246 217.391 34.9327 216.321 33.8642C214.222 31.7682 211.259 30.2887 208.296 29.3024C207.555 29.0969 206.773 28.8092 205.991 28.6037C205.209 28.4393 204.427 28.1928 203.604 27.9873L202.452 27.7818L201.299 27.5763C200.518 27.4119 199.736 27.3708 198.871 27.2475C195.661 26.9187 192.451 27.042 189.405 27.8229C187.924 28.1928 186.483 28.8503 185.166 29.6723C183.891 30.4942 182.738 31.5628 181.833 32.7546C180.927 33.9875 180.31 35.3848 180.063 36.9054C179.857 38.3849 179.898 39.9466 180.68 41.1385C180.886 41.4673 180.845 41.9193 180.475 42.1659C180.228 42.3714 179.775 42.3303 179.569 42.0426Z" fill="black"/>
<path d="M227.592 27.6995C229.156 28.0283 230.638 28.5215 232.119 29.1791C233.601 29.7955 235 30.4942 236.317 31.3983C237.017 31.8093 237.634 32.3436 238.251 32.8367C238.91 33.4121 239.404 33.9464 239.98 34.5628C241.091 35.7958 241.914 37.2342 242.449 38.8781C242.573 39.2479 242.655 39.6589 242.737 40.111C242.778 40.3165 242.861 40.4809 242.861 40.7275L242.902 41.3439C242.943 41.7138 243.025 42.1248 243.067 42.4947L243.108 43.6454C243.108 45.2482 242.984 46.8921 242.614 48.4538C242.243 50.0155 241.585 51.6183 240.556 52.9334C240.35 53.2622 240.062 53.6321 239.774 53.9198C239.568 54.2485 239.157 54.5362 238.827 54.8239C238.498 55.0294 238.128 55.3171 237.716 55.5637C237.346 55.7691 236.893 55.9335 236.358 55.9746L236.852 54.8239C237.552 55.7691 238.128 56.7555 238.622 57.7829C239.116 58.8104 239.527 59.8789 239.774 61.0296C239.98 62.1804 240.144 63.4133 239.98 64.6462C239.774 65.9202 239.28 67.071 238.622 68.0573C237.922 69.0847 237.099 69.9889 236.111 70.6464C235.123 71.3862 234.053 71.9205 232.901 72.2493C231.749 72.578 230.596 72.8246 229.403 72.8246C228.25 72.7835 227.016 72.6191 225.987 72.2493C225.617 72.126 225.37 71.6739 225.493 71.304C225.617 70.9752 225.905 70.7286 226.316 70.8108H226.357C227.386 70.9752 228.415 71.0163 229.403 70.9752C230.391 70.8519 231.378 70.6464 232.325 70.2766C234.218 69.5779 235.741 68.3039 236.852 66.7422C237.346 65.9613 237.757 65.0572 237.881 64.1941C238.046 63.29 238.004 62.3036 237.84 61.3173C237.511 59.3446 236.687 57.3309 235.782 55.5226L235.741 55.4815C235.535 55.1116 235.7 54.6595 236.07 54.454C236.111 54.4129 236.235 54.4129 236.276 54.4129C236.77 54.2485 237.305 53.8376 237.799 53.3855C238.292 52.8923 238.745 52.3581 239.074 51.7827C239.856 50.632 240.391 49.2757 240.762 47.8784C241.091 46.5222 241.256 45.0016 241.256 43.5632L241.215 42.4536C241.173 42.1248 241.091 41.7138 241.091 41.3439L241.05 40.7686C241.009 40.5631 241.009 40.4398 240.926 40.2754C240.885 39.9466 240.762 39.5767 240.721 39.2479C240.309 37.9328 239.568 36.6999 238.663 35.6314C238.251 35.056 237.675 34.5217 237.14 34.1108C236.564 33.6176 235.988 33.1655 235.412 32.7956C232.983 31.1106 230.144 29.8777 227.345 29.0969H227.263C226.892 28.9736 226.604 28.5215 226.769 28.1927C226.728 27.8639 227.222 27.6584 227.592 27.6995Z" fill="black"/>
<path d="M160.836 35.796C160.836 35.796 167.38 36.2891 167.544 24.001C167.544 24.001 167.256 36.0015 174.5 36.0015C174.5 36.0015 167.009 34.6452 167.009 45.084C167.05 45.1662 169.232 35.2617 160.836 35.796Z" stroke="black" stroke-width="1.4798" stroke-miterlimit="10" stroke-linecap="round" stroke-linejoin="round"/>
<path d="M216.148 98.7162C216.148 98.7162 221.211 99.0861 221.334 89.7158C221.334 89.7158 221.128 98.8806 226.643 98.8806C226.643 98.8806 220.964 97.7709 220.964 105.867C220.881 105.867 222.569 98.2641 216.148 98.7162Z" stroke="black" stroke-width="1.4798" stroke-miterlimit="10" stroke-linecap="round" stroke-linejoin="round"/>
<path d="M211.539 10.0689C211.539 10.0689 215.572 10.3565 215.696 2.83569C215.696 2.83569 215.49 10.1921 219.935 10.1921C219.935 10.1921 215.367 9.3702 215.367 15.8225C215.367 15.7814 216.725 9.74008 211.539 10.0689Z" stroke="black" stroke-width="1.4798" stroke-miterlimit="10" stroke-linecap="round" stroke-linejoin="round"/>
<path d="M185.617 15.7402L189.362 19.9733" stroke="black" stroke-width="1.4798" stroke-miterlimit="10" stroke-linecap="round" stroke-linejoin="round"/>
<path d="M185.367 16.398C185.367 16.398 189.318 12.8636 190.759 14.6308C192.199 16.398 188.372 21.453 188.372 21.453" stroke="black" stroke-width="1.4798" stroke-miterlimit="10" stroke-linecap="round" stroke-linejoin="round"/>
<path d="M191.586 11.6716L194.878 16.7266" stroke="black" stroke-width="1.4798" stroke-miterlimit="10" stroke-linecap="round" stroke-linejoin="round"/>
<path d="M196.273 9.78125C196.273 9.78125 191.623 12.7403 196.561 12.4115C201.541 12.1238 198.619 16.2747 196.438 14.6719" stroke="black" stroke-width="1.4798" stroke-miterlimit="10" stroke-linecap="round" stroke-linejoin="round"/>
<path d="M198.781 9.20581L201.58 14.2608" stroke="black" stroke-width="1.4798" stroke-miterlimit="10" stroke-linecap="round" stroke-linejoin="round"/>
<path d="M210.844 75.0029V78.5373" stroke="black" stroke-width="1.4798" stroke-miterlimit="10" stroke-linecap="round" stroke-linejoin="round"/>
<path d="M210.142 75.1262C210.142 75.1262 213.187 75.1673 213.187 76.9756C213.187 78.7428 209.195 78.9072 209.195 78.9072" stroke="black" stroke-width="1.4798" stroke-miterlimit="10" stroke-linecap="round" stroke-linejoin="round"/>
<path d="M215.984 77.5099C215.984 77.5099 213.926 77.7153 214.42 76.4824C214.832 75.2084 217.26 75.3317 216.807 76.9756C216.396 78.5784 215.573 80.7155 215.573 80.7155" stroke="black" stroke-width="1.4798" stroke-miterlimit="10" stroke-linecap="round" stroke-linejoin="round"/>
<path d="M219.564 76.77C219.564 76.77 218 78.455 218.206 80.0989C218.412 81.7017 219.729 82.2771 220.182 82.2771C220.634 82.2771 221.869 81.9072 221.663 80.5099C221.457 79.1537 219.482 79.4003 219.153 80.2222" stroke="black" stroke-width="1.4798" stroke-miterlimit="10" stroke-linecap="round" stroke-linejoin="round"/>
<path d="M224.013 78.2908L222.984 82.8937" stroke="black" stroke-width="1.4798" stroke-miterlimit="10" stroke-linecap="round" stroke-linejoin="round"/>
<path d="M225.533 78.7428C225.533 78.7428 229.032 78.3729 226.357 81.1675C226.357 81.1675 228.332 80.4689 228.209 82.3182C228.044 84.1676 225.163 85.154 224.875 83.4279" stroke="black" stroke-width="1.4798" stroke-miterlimit="10" stroke-linecap="round" stroke-linejoin="round"/>
<path d="M172.362 85.9759C172.238 86.1403 172.156 86.1814 172.033 86.3457C171.909 86.5101 171.827 86.5512 171.703 86.6745L171.292 86.9622C171.127 87.0855 171.004 87.1266 170.798 87.1677C170.139 87.4554 169.44 87.4965 168.74 87.4965C167.423 87.3732 166.23 86.88 165.201 86.3457C163.143 85.1128 161.497 83.3867 160.303 81.3729C159.686 80.3455 159.192 79.277 158.945 78.003C158.657 76.8522 158.575 75.4549 158.986 74.0987C159.11 73.7699 159.192 73.4411 159.398 73.1534C159.562 72.8247 159.768 72.537 160.015 72.3315C160.221 72.0438 160.509 71.8383 160.756 71.6328C160.962 71.4273 161.332 71.3041 161.579 71.0575C162.731 70.441 163.884 70.2766 165.077 70.2355L164.46 70.8931C164.501 69.578 164.748 68.3861 165.16 67.1532C165.53 66.0025 166.065 64.7696 166.724 63.7421C168.041 61.5639 170.098 59.7146 172.403 58.4816C173.555 57.8652 174.831 57.4953 176.025 57.2076C176.313 57.1665 176.683 57.0843 176.971 57.0432C177.259 57.0021 177.63 56.9199 177.918 56.9199L178.865 56.7966H179.811C182.322 56.7966 184.791 57.2076 187.054 58.0296C187.425 58.1939 187.672 58.6049 187.548 58.9748C187.425 59.3036 187.137 59.5502 186.766 59.468C184.462 59.1803 182.116 59.057 179.935 59.2625L179.111 59.3036L178.288 59.468L177.918 59.5091L177.548 59.6324C177.342 59.6735 176.971 59.7557 176.766 59.8379C175.737 60.1255 174.708 60.5365 173.761 60.9886C171.868 61.9749 170.345 63.4544 168.987 65.1805C167.711 66.9066 166.724 68.9615 165.983 71.0575C165.983 71.263 165.818 71.4684 165.654 71.6328L165.365 71.7561C164.419 72.0849 163.472 72.4959 162.855 73.0301C162.155 73.6055 161.744 74.1809 161.62 74.9617C161.332 76.4412 161.991 78.3317 162.937 79.8523C163.925 81.4551 165.242 83.0168 166.724 84.1676C167.464 84.7429 168.287 85.195 169.111 85.4005C169.934 85.606 170.592 85.5238 171.333 85.0306L171.456 84.9895C171.786 84.784 172.238 84.8251 172.485 85.195C172.609 85.4005 172.568 85.7293 172.362 85.9759Z" fill="black"/>
</svg>
