<svg width="245" height="346" viewBox="0 0 245 346" fill="none" xmlns="http://www.w3.org/2000/svg">
<path d="M129.307 31.1108C129.307 31.1108 104.038 30.2066 92.5553 55.646C81.1963 80.7977 100.293 114.58 109.141 115.689C109.141 115.689 119.471 123.745 128.731 123.128C137.95 122.512 153.26 108.908 158.487 96.7024C158.487 96.7024 159.063 66.2081 154.124 54.9063C149.103 43.6455 144.411 31.7684 129.307 31.1108Z" fill="#FEDAC0"/>
<path d="M72.6761 107.1L58.3128 87.1268C58.3128 87.1268 42.4267 65.1807 30.7796 61.523C19.1325 57.8653 16.1282 61.7285 16.1282 61.7285C16.1282 61.7285 8.88477 66.167 15.3462 73.3591C21.6842 80.51 28.1045 84.6609 32.5082 89.9214C36.9118 95.1408 61.0291 128.306 61.0291 128.306L73.5816 110.963L72.6761 107.1Z" fill="#FEDAC0"/>
<path d="M179.597 153.91L186.758 155.39L185.153 174.664C185.153 174.664 173.629 176.432 166.016 168.664C166.016 168.664 175.564 161.924 179.597 153.91Z" fill="#FEDAC0"/>
<path d="M202.275 147.91C202.275 147.91 209.641 147.17 207.666 162.294C205.69 177.418 197.418 175.61 197.418 175.61C197.418 175.61 192.521 176.185 192.315 167.431C192.109 158.677 192.521 148.773 203.262 152.883L201.41 151.691L202.275 147.91Z" fill="#FEDAC0"/>
<path d="M128.28 30.7408C128.28 30.7408 99.8005 33.2067 91.1166 58.1529C86.713 70.8931 88.6473 85.4827 93.2567 96.5379C97.5781 106.977 104.286 114.21 107.373 114.867C113.876 116.1 112.024 127.772 112.024 127.772C112.024 127.772 109.472 144.704 97.3723 147.006C97.3723 147.006 101.57 146.471 99.4712 152.883C97.3723 159.294 95.8084 158.842 95.8084 158.842L93.9564 165.171C93.9564 165.171 101.406 171.664 96.5903 180.829C91.734 189.953 94.0387 188.72 94.0387 188.72C94.0387 188.72 98.4835 193.076 95.0676 201.501C95.0676 201.501 100.665 207.296 96.3845 218.063C96.3845 218.063 104.821 222.954 104.821 229.447C104.821 235.859 100.336 246.873 100.336 246.873L89.635 231.42C89.635 231.42 88.8942 223.159 92.8863 219.502C92.8863 219.502 83.1324 218.556 84.9021 207.378C84.9021 207.378 81.8566 200.391 86.6306 194.391C86.6306 194.391 73.4608 189.665 83.544 173.103C83.544 173.103 79.3461 168.294 80.128 161.472C80.128 161.472 78.3172 158.225 82.227 151.937C82.227 151.937 74.6132 141.869 84.7786 130.115C84.7786 130.115 74.8601 124.608 71.5676 97.5654C68.1929 70.441 69.4275 42.207 95.8495 24.4529C122.271 6.69877 151.41 20.0966 155.361 23.3022C159.312 26.5489 167.296 35.3437 167.296 35.3437C167.296 35.3437 186.639 59.1803 173.469 81.6606L171.823 85.4005L169.518 98.7161L165.073 115.484L164.374 124.361L161.164 119.347L158.818 111.251L157.624 108.415L158.9 89.4692C158.9 89.4692 160.423 44.7551 137.581 33.4122L128.28 30.7408Z" fill="#5B1A1E"/>
<path d="M109.064 81.4552C109.064 83.5923 107.006 85.4006 104.414 85.4006C101.821 85.4006 99.9688 82.4415 99.9688 80.3045C99.9688 78.1674 101.821 77.592 104.414 77.592C107.006 77.592 109.064 79.3181 109.064 81.4552Z" fill="#3A291F"/>
<path d="M146.427 79.1126C146.427 81.2497 144.369 83.058 141.776 83.058C139.183 83.058 137.578 80.9209 137.578 78.7017C137.578 76.5646 138.525 75.2084 141.118 74.8796C144.657 74.4686 146.427 76.9756 146.427 79.1126Z" fill="#3A291F"/>
<path d="M146.297 114.415C146.297 114.415 147.202 127.978 131.687 129.95C131.687 129.95 121.151 132.622 112.097 120.375L112.302 125.43C112.302 125.43 109.751 141.088 98.8033 146.636C98.8033 146.636 103.125 152.225 96.9513 158.842L95.9224 159.212L94.2762 164.842C94.2762 164.842 100.367 172.938 96.622 180.295C92.8769 187.651 93.453 187.939 93.453 187.939C93.453 187.939 98.3094 193.693 95.9224 198.871C93.5765 204.049 94.6466 201.583 94.6466 201.583L95.9635 202.282C95.9635 202.282 98.8856 208.159 97.8979 210.871C96.869 213.502 96.3751 218.063 96.3751 218.063L101.19 222.05C101.19 222.05 106.17 225.79 104.647 233.146C103.125 240.503 100.491 246.297 100.491 246.297L93.7411 238.324L89.214 230.228C89.214 230.228 88.9259 223.036 92.2595 219.831L86.8681 217.2L85.3454 229.201L84.7692 306.587C84.7692 306.587 84.8927 312.875 77.6081 319.492C70.3647 326.15 69.9531 329.027 69.9531 329.027C69.9531 329.027 70.0766 331.164 73.2044 330.876C76.3734 330.588 99.2972 329.725 99.2972 329.725C99.2972 329.725 104.318 328.246 106.664 321.547C109.051 314.848 118.023 270.422 123.497 259.325C129.012 248.229 126.871 248.681 128.394 254.229L129.3 282.134L133.827 323.109C133.827 323.109 133.127 328.657 138.189 328.616C143.251 328.575 167.41 327.095 167.41 327.095C167.41 327.095 170.497 326.479 166.504 323.109C162.512 319.698 154.487 312.999 154.487 312.999C154.487 312.999 153.582 313.615 154.734 307.368C155.886 301.08 160.907 277.531 160.907 277.531L164.364 254.846L165.764 233.187C165.764 233.187 165.887 211.406 165.599 206.844C165.352 202.323 164.858 176.062 164.858 176.062L165.023 169.733C165.023 169.733 179.757 158.76 181.485 149.389L178.975 143.43C178.975 143.43 174.489 129.252 164.694 121.402L164.529 124.114L161.772 120.58L146.297 114.415Z" fill="#5D256B"/>
<path d="M79.3406 156.705L82.0981 151.485C82.0981 151.485 77.4063 146.225 79.5875 138.827C81.7688 131.43 84.6909 130.197 84.6909 130.197C84.6909 130.197 76.2539 122.224 73.9904 111.251L72.838 111.95L60.4913 128.717L57.9808 131.265C57.9808 131.265 56.9519 133.197 60.5325 135.17C64.1953 137.06 79.3406 156.705 79.3406 156.705Z" fill="#5D256B"/>
<path d="M198.367 36.3301C198.367 36.3301 213.842 18.3294 217.422 19.439L216.188 22.4803L208.039 29.1381L215.776 25.8503C215.776 25.8503 220.632 23.7543 221.661 26.59C222.731 29.4257 223.678 31.8916 220.221 33.33C216.805 34.7684 215.694 36.2479 215.694 36.2479H220.591C220.591 36.2479 223.884 34.2341 223.884 40.9741C223.884 47.7141 224.583 60.8653 224.583 60.8653L221.538 60.9886L223.184 63.3723L224.131 66.2902L223.843 87.2089L225.859 92.0584L223.184 94.7297L217.669 95.6338L202.853 93.9899L198.367 36.3301Z" fill="#F0EFEF"/>
<path d="M195.901 31.0286L186.229 35.3849L182.237 39.5358L182.813 44.6318L185.324 74.3453L186.764 100.072L187.711 121.813L187.834 144.129L186.065 165.376L183.678 195.83L183.39 225.379L182.813 250.284L182.114 285.093L181.702 314.93L181.414 324.424L184.46 326.068L191.826 326.109L194.913 323.437L196.93 316.78L197.3 297.875L199.77 186.418L200.716 175.445L195.613 175.281L192.567 171.664L191.868 163.404L193.061 156.376C193.061 156.376 193.761 151.527 202.033 151.896L202.28 145.197L203.227 122.676L202.362 92.0584L198.988 49.1526L197.753 33.33L195.901 31.0286Z" fill="#4D80C2"/>
<path d="M145.888 114.128C145.888 114.128 147.082 128.142 132.225 129.991C117.408 131.841 110.453 117.539 110.453 117.539L111.852 117.21C111.852 117.21 121.647 123.334 128.644 123.005C135.64 122.635 145.888 114.128 145.888 114.128Z" fill="#DAC0AD"/>
<path d="M162.143 121.279C162.143 121.279 149.714 138.868 133.457 138.992C125.021 139.033 120.493 136.403 118.312 135.046C117.201 134.348 115.761 134.635 114.896 135.581C112.345 138.622 107.488 144.622 104.978 148.444C102.385 152.431 99.5863 161.267 99.5863 165.335C99.5863 169.404 101.932 175.034 98.5163 182.432C95.0592 189.829 101.274 206.515 100.574 210.871C99.8744 215.269 110.986 220.036 104.895 237.913C100.903 249.75 101.109 251.722 96.7466 244.53C92.3841 237.297 85.0172 231.913 85.223 228.214C85.4287 224.557 87.0338 217.241 87.0338 217.241L92.2194 219.378C92.2194 219.378 87.9392 226.16 89.8736 231.297C91.8079 236.475 100.286 245.928 100.286 245.928L102.755 239.105C102.755 239.105 105.307 231.79 104.772 227.393C104.237 222.995 96.5408 218.187 96.5408 218.187L97.8578 210.666C97.8578 210.666 98.0636 204.419 95.1415 201.337C95.1415 201.337 98.434 191.925 93.2072 187.651C93.2072 187.651 98.434 177.993 98.1047 173.966C97.8166 169.979 94.1126 164.924 94.1126 164.924L96.2939 158.595C96.2939 158.595 99.6686 155.513 99.8333 151.773C100.039 148.033 98.8867 146.348 98.8867 146.348C98.8867 146.348 104.772 143.965 108.558 136.485C112.345 129.005 112.633 121.731 112.633 121.731C112.633 121.731 121.975 131.841 132.223 130.032C142.471 128.265 146.298 119.512 146.504 114.333L162.143 121.279Z" fill="#50215B"/>
<path d="M73.4959 111.374L71.2734 114.21C71.2734 114.21 75.1009 123.58 77.1175 126.868C80.9039 133.115 73.5782 136.238 75.2655 140.882C77.1999 146.102 71.7261 146.266 74.2366 149.143C76.7883 152.02 79.628 156.746 79.628 156.746L81.727 151.938L80.6158 149.431C80.6158 149.431 77.9407 143.554 79.9984 137.964C82.0151 132.375 84.4844 130.197 84.4844 130.197L80.41 124.895C80.41 124.895 76.0887 118.731 75.4302 116.265C74.854 113.758 73.4959 111.374 73.4959 111.374Z" fill="#50215B"/>
<path d="M154.406 154.362C154.406 154.362 150.579 151.321 150.867 159.047C151.155 167.39 156.835 179.843 159.839 178.445C162.802 177.007 164.572 175.527 164.654 170.925L160.086 171.459L156.999 168.377L154.406 154.362Z" fill="#50215B"/>
<path d="M127.577 249.708C127.577 249.708 118.934 270.463 112.843 296.93C106.752 323.396 106.176 325.739 99.92 329.438L97.0391 329.849C98.8499 329.849 118.81 241.612 128.647 241.612C137.084 241.612 138.154 327.383 142.228 328.164L137.331 328.78C137.331 328.78 133.832 329.808 133.009 321.136C132.186 312.506 129.84 290.765 129.84 290.765L128.811 273.298L127.577 249.708Z" fill="#50215B"/>
<path d="M179.558 153.499C179.558 153.499 175.936 162.171 166.594 168.253V168.829C166.594 168.829 169.845 172.979 172.438 169.24C175.031 165.5 184.003 155.513 180.669 154.033C177.253 152.595 179.558 153.499 179.558 153.499Z" fill="#DAC0AD"/>
<path d="M186.762 155.472L185.116 174.87C185.116 174.87 182.523 174.87 182.523 170.883C182.523 166.897 183.264 155.225 185.734 155.431C188.121 155.636 186.762 155.472 186.762 155.472Z" fill="#DAC0AD"/>
<path d="M72.7972 112.032L73.8261 110.922C73.8261 110.922 74.1142 104.141 70.4513 108.169C66.7885 112.196 57.6519 122.881 60.327 127.115L61.1501 128.142L72.7972 112.032Z" fill="#DAC0AD"/>
<path d="M113.748 117.868C113.748 117.868 95.2282 95.5928 94.9813 75.5783C94.7343 55.6049 97.9445 43.5633 117.946 37.6453C137.948 31.7273 145.685 41.1386 147.702 46.81C149.718 52.5226 157.044 88.6062 151.241 107.634L158.32 95.6339V78.0031C158.32 78.0031 156.386 54.5775 150.583 46.9744C144.78 39.3714 140.047 30.782 128.77 30.5765C116.218 30.3299 92.5531 48.9471 90.3718 62.386C90.3718 62.386 87.6144 82.0306 91.2361 91.5652C94.8166 101.1 104.406 115.279 113.748 117.868Z" fill="#DAC0AD"/>
<path d="M161.284 120.621L158.691 112.237L157.209 110.676L157.95 98.1819L154.946 102.538L146.18 113.552L152.271 116.429L161.284 120.621Z" fill="#3C1419"/>
<path d="M172.144 84.4143L165.189 95.5517L158.562 110.881C158.562 110.881 161.732 122.635 163.666 124.156L164.9 117.662L166.547 109.196L170.004 94.9353L172.144 84.4143Z" fill="#3C1419"/>
<path d="M91.5683 93.7434C90.2925 96.0449 101.569 148.773 108.813 136.074C115.974 123.539 110.582 115.279 109.224 115.689L99.429 107.84L92.9676 96.4147L91.5683 93.7434Z" fill="#481821"/>
<path d="M92.6853 133.32C91.9445 133.361 91.0391 133.279 90.2983 133.115C89.4752 132.95 88.6932 132.704 87.9936 132.416C86.512 131.8 85.1127 130.937 83.878 129.868C82.6433 128.841 81.5321 127.69 80.5032 126.416C80.0094 125.8 79.5566 125.183 79.1039 124.484C78.857 124.156 78.6924 123.786 78.4043 123.457L77.787 122.43C76.1819 119.717 74.9472 116.799 73.9595 113.799C72.9306 110.84 72.1486 107.799 71.5724 104.716C70.3378 98.5929 69.7204 92.305 69.4323 86.1404C69.3912 84.5376 69.2677 83.0581 69.2677 81.4553C69.2677 79.8525 69.2266 78.373 69.2266 76.7702L69.3912 72.085L69.7616 67.3999C69.9674 65.7971 70.1731 64.3176 70.3789 62.7559C70.667 61.2353 70.9963 59.7147 71.2843 58.1119L71.9017 55.8104L72.1898 54.6597C72.3132 54.2898 72.3956 53.9199 72.519 53.509L73.2598 51.2897L73.6302 50.1801L74.0418 49.0704L74.9472 46.8923C75.2765 46.1936 75.6469 45.4539 75.9761 44.7552C76.5934 43.3168 77.4577 42.0017 78.1985 40.6043C78.5689 39.9057 79.0628 39.2892 79.4743 38.5906L80.174 37.5631C80.4209 37.2344 80.6679 36.9467 80.8736 36.6179C81.3675 36.0014 81.8202 35.3439 82.3141 34.7685L83.8368 32.9602C85.9358 30.6177 88.2405 28.4395 90.7098 26.5079C93.1792 24.5763 95.8955 22.8913 98.6529 21.4118C101.41 19.9323 104.374 18.6994 107.337 17.6719C110.382 16.7267 113.346 15.9047 116.556 15.5349H116.432C118.037 15.2472 119.519 15.0417 121.124 14.9184C122.729 14.7951 124.211 14.6718 125.816 14.6718C128.902 14.6307 132.113 14.7951 135.199 15.165C141.455 15.9869 147.628 17.7952 153.061 21.0419C155.777 22.6858 158.288 24.6174 160.51 26.8778C161.662 27.9874 162.65 29.2203 163.679 30.4122L165.078 32.3437C165.325 32.6725 165.49 33.0424 165.696 33.3712L166.313 34.3986L166.93 35.4261L167.465 36.4946C167.795 37.1933 168.165 37.8919 168.535 38.5906C169.112 40.0701 169.77 41.5085 170.182 42.988C170.428 43.7278 170.717 44.4675 170.881 45.2073L171.499 47.4265C171.704 48.1663 171.869 48.9471 172.075 49.728L172.61 52.0295C173.186 55.0707 173.68 58.1941 173.927 61.3175C174.174 64.3998 174.297 67.5643 174.256 70.6877C174.132 73.77 173.927 76.9346 173.556 80.0169C173.186 83.0992 172.651 86.1815 171.951 89.2227C170.717 95.3462 168.906 101.264 167.383 107.223C166.642 110.182 165.86 113.183 165.325 116.224C164.79 119.265 164.584 122.306 164.914 125.265C164.955 125.635 164.667 126.005 164.296 126.005C164.008 126.046 163.761 125.882 163.597 125.676C162.897 124.567 162.28 123.498 161.662 122.306C161.086 121.155 160.51 120.005 160.016 118.813C159.481 117.621 159.111 116.429 158.74 115.196C158.37 113.963 158.041 112.648 157.876 111.415C157.835 111.046 158.082 110.676 158.452 110.593C158.823 110.552 159.193 110.799 159.275 111.169C159.481 112.361 159.769 113.635 160.098 114.744C160.469 115.936 160.839 117.087 161.333 118.238C161.827 119.388 162.362 120.539 162.938 121.649C163.514 122.758 164.132 123.827 164.79 124.895L163.514 125.389C163.185 122.224 163.391 119.06 163.926 115.895C164.461 112.813 165.161 109.771 165.984 106.771C167.589 100.812 169.276 94.8531 170.511 88.7706C171.128 85.7294 171.663 82.7704 172.034 79.6881C172.404 76.6469 172.61 73.5646 172.733 70.5233C172.774 67.4821 172.61 64.3998 172.404 61.3586C172.116 58.3174 171.663 55.2762 171.087 52.276L170.593 50.0568C170.428 49.317 170.264 48.5773 170.058 47.8375L169.482 45.6593C169.276 44.9607 168.988 44.2209 168.782 43.4812C168.371 42.0017 167.712 40.6043 167.136 39.207C166.848 38.5084 166.436 37.8919 166.107 37.1522L165.572 36.1247L164.996 35.1795L164.42 34.2342C164.214 33.9055 164.049 33.5356 163.802 33.289L162.485 31.4396C161.539 30.2478 160.551 29.097 159.44 28.0285C157.3 25.8914 154.913 24.042 152.279 22.4392C147.258 19.4391 141.29 17.6719 135.24 16.85C132.195 16.4801 129.149 16.2746 126.104 16.3568C124.581 16.3568 123.058 16.4801 121.535 16.6034C120.013 16.7678 118.49 16.9322 117.05 17.2199C117.008 17.2199 117.008 17.2199 116.926 17.2199C115.444 17.3843 113.881 17.713 112.44 18.0418C110.958 18.3706 109.477 18.7816 108.036 19.2747C105.114 20.22 102.275 21.4118 99.5583 22.8502C96.8421 24.2886 94.2492 25.9325 91.7799 27.823C89.3929 29.7546 87.1293 31.8095 85.0715 34.1109L83.5899 35.837C83.096 36.4535 82.6845 37.07 82.1906 37.6453C81.9437 37.933 81.6967 38.2618 81.491 38.5495L80.8736 39.4947C80.4621 40.1112 80.0094 40.7687 79.639 41.4263C78.8982 42.7414 78.0339 44.0565 77.4577 45.495C77.1285 46.1936 76.7581 46.8923 76.4288 47.5498L75.5645 49.6869L75.153 50.7554L74.7826 51.8651L74.0829 54.0432C73.9183 54.4131 73.836 54.7419 73.7537 55.1529L73.4656 56.2625L72.8894 58.4818C72.6013 60.0024 72.2721 61.523 71.984 63.0025C71.7782 64.5231 71.5724 66.0437 71.3667 67.5643L70.9963 72.1261L70.8316 76.7702C70.8316 78.2908 70.8316 79.8525 70.8728 81.4142C70.8728 82.9348 70.9963 84.4965 71.0374 86.0582C71.3255 92.2228 71.9017 98.3875 73.1364 104.47C73.7125 107.511 74.4533 110.47 75.4822 113.429C76.4288 116.347 77.6223 119.183 79.1451 121.772L79.7213 122.799C79.9271 123.128 80.1328 123.416 80.3386 123.745C80.7502 124.361 81.2029 124.978 81.6556 125.553C82.6022 126.745 83.6311 127.854 84.7423 128.8C87.047 130.731 89.6398 132.293 92.7265 132.786C92.8911 132.786 92.9734 132.95 92.9323 133.074C92.9734 133.279 92.8911 133.32 92.6853 133.32Z" fill="black"/>
<path d="M83.0848 71.5919C82.7144 68.3863 82.7967 65.1396 83.2495 61.934C83.661 58.7284 84.443 55.605 85.5542 52.5227C87.6943 46.4402 90.9456 40.6866 95.2258 35.796C97.3247 33.3301 99.7117 31.0698 102.387 29.1382C105.021 27.2066 107.984 25.6449 111.194 24.6996C114.404 23.7544 117.903 23.5489 121.154 24.4531C122.8 24.864 124.364 25.6038 125.722 26.4668C127.163 27.371 128.438 28.4395 129.55 29.6314C129.838 29.919 129.797 30.3711 129.508 30.6588C129.262 30.9054 128.809 30.9054 128.562 30.6588C127.368 29.6314 126.175 28.7272 124.817 28.0285C123.5 27.3299 122.1 26.7545 120.619 26.3846C117.697 25.686 114.651 25.8093 111.647 26.6723C108.725 27.4943 105.926 28.8916 103.416 30.741C100.864 32.5082 98.5594 34.6863 96.5016 37.0289C92.386 41.714 89.0524 47.1389 86.7888 53.0569C84.5253 58.9339 83.3318 65.2629 83.8256 71.5508C83.8256 71.7563 83.661 71.9207 83.4964 71.9618C83.2495 71.9618 83.0848 71.7974 83.0848 71.5919Z" fill="black"/>
<path d="M172.683 84.3732C170.708 87.4144 168.897 90.4967 167.168 93.579C165.44 96.7436 163.794 99.9081 162.312 103.155C160.83 106.401 159.555 109.771 158.402 113.141C157.867 114.868 157.373 116.594 157.085 118.32C156.756 120.046 156.468 121.813 156.386 123.58L154.945 123.416C155.645 119.059 156.18 114.662 156.591 110.265C157.003 105.867 157.291 101.47 157.497 97.0723C157.826 88.2775 157.661 79.4004 156.468 70.6466C155.892 66.2903 155.069 61.9751 153.875 57.742C152.682 53.5501 151.159 49.4403 148.978 45.6593C146.838 41.8784 144.08 38.4673 140.541 35.9603C138.812 34.7274 136.919 33.6589 134.902 32.878C132.886 32.1383 130.787 31.604 128.606 31.2752H128.811C127.33 31.4807 125.766 31.8095 124.243 32.1383C122.72 32.5081 121.197 32.9602 119.757 33.4123C116.794 34.3575 113.872 35.5493 111.114 37.0289C105.599 39.9468 100.578 43.8921 96.9156 48.9471C93.2528 53.961 91.0715 59.9613 90.3719 66.167C90.0426 69.2493 89.8368 72.4549 89.8368 75.5372C89.878 78.7017 90.1249 81.8252 90.5776 84.9075C91.5242 91.0721 93.6232 97.1134 96.9156 102.415C97.7387 103.73 98.5618 105.045 99.5496 106.319C100.496 107.552 101.525 108.785 102.595 109.854C104.735 112.155 107.081 114.169 109.633 116.142C109.921 116.388 110.25 116.635 110.579 116.964C110.909 117.292 111.197 117.662 111.444 118.032C111.937 118.772 112.267 119.635 112.514 120.416C112.925 122.06 112.925 123.786 112.802 125.389C112.472 128.635 111.485 131.8 110.085 134.718C108.686 137.636 106.916 140.43 104.694 142.773C103.542 143.965 102.307 144.992 100.908 145.937C100.208 146.348 99.4673 146.8 98.7265 147.088C97.9857 147.335 97.0802 147.499 96.216 147.458C96.0513 147.458 95.9279 147.294 95.969 147.17C95.969 147.047 96.0102 147.006 96.0925 146.965C96.3806 146.718 96.7098 146.554 97.1214 146.389C97.4918 146.225 97.8622 146.143 98.3149 146.143C98.7676 146.143 99.2203 146.266 99.6319 146.513C100.043 146.8 100.332 147.211 100.537 147.622C100.908 148.485 100.908 149.266 100.908 150.006C100.908 150.746 100.743 151.485 100.62 152.184C100.332 153.581 99.92 154.938 99.3438 156.294C99.0557 156.993 98.6442 157.609 98.1503 158.225C97.9034 158.513 97.6153 158.801 97.286 159.088C97.0802 159.253 96.9568 159.335 96.7098 159.417C96.5864 159.458 96.5041 159.541 96.3806 159.582C96.216 159.623 96.1748 159.705 95.969 159.705C95.5986 159.746 95.2282 159.458 95.1459 159.088C95.1048 158.719 95.3929 158.349 95.7633 158.267C95.7221 158.267 95.8044 158.267 95.8044 158.225C95.8456 158.184 95.9279 158.184 95.969 158.102C96.0925 158.061 96.1748 157.938 96.2571 157.856C96.4629 157.65 96.6275 157.486 96.8333 157.239C97.1626 156.746 97.4506 156.171 97.7387 155.595C98.2738 154.403 98.603 153.129 98.8911 151.814C99.0557 151.116 99.138 150.54 99.1792 149.883C99.2615 149.225 99.1792 148.65 99.0146 148.239C98.8911 147.992 98.8088 147.869 98.6853 147.704C98.5618 147.54 98.3561 147.458 98.1091 147.417C97.6153 147.252 96.9568 147.294 96.2983 147.376L96.0925 146.883C96.7921 146.472 97.4095 146.143 98.1091 145.732C98.8088 145.403 99.4261 145.033 100.085 144.622C101.36 143.8 102.554 142.814 103.583 141.663C105.682 139.444 107.41 136.773 108.768 133.937C110.044 131.101 111.073 128.142 111.361 125.101C111.526 123.58 111.526 122.06 111.114 120.662C110.909 119.964 110.62 119.265 110.25 118.69C110.044 118.402 109.839 118.155 109.55 117.95C109.303 117.744 108.974 117.457 108.686 117.251C106.134 115.279 103.706 113.183 101.484 110.84C100.373 109.689 99.3438 108.456 98.3149 107.182C97.286 105.908 96.3806 104.593 95.5986 103.196C92.1827 97.6888 90.0426 91.4831 89.0549 85.1952C88.5198 82.0306 88.3141 78.8661 88.2318 75.6194C88.1906 72.4138 88.3964 69.2082 88.7668 66.0437C89.4664 59.6325 91.8123 53.3035 95.5986 48.043C99.385 42.7825 104.529 38.755 110.25 35.7548C113.131 34.2753 116.094 33.0424 119.14 32.015C120.662 31.5218 122.185 31.0697 123.79 30.7409C125.395 30.3711 126.877 30.0423 128.606 29.8368C128.647 29.8368 128.77 29.8368 128.811 29.8368C131.034 30.1245 133.297 30.6998 135.437 31.4807C137.577 32.3026 139.594 33.4123 141.405 34.7685C145.15 37.4398 148.072 41.0975 150.295 45.0018C152.517 48.9471 154.204 53.1802 155.357 57.4543C156.55 61.7696 157.373 66.1259 157.95 70.6055C159.061 79.4415 159.225 88.4008 158.855 97.2778C158.649 101.716 158.32 106.155 157.908 110.593C157.497 115.032 156.88 119.429 156.18 123.868C156.139 124.238 155.768 124.567 155.357 124.443C154.986 124.402 154.739 124.073 154.781 123.704C154.904 121.854 155.151 120.046 155.48 118.279C155.851 116.47 156.303 114.703 156.88 112.977C157.991 109.484 159.349 106.114 160.83 102.785C162.312 99.456 163.917 96.2504 165.728 93.0859C167.539 89.9214 169.309 86.7569 171.284 83.7156C171.531 83.3869 171.984 83.3047 172.313 83.5102C172.56 83.6334 172.889 84.0033 172.683 84.3732Z" fill="black"/>
<path d="M90.7463 147.417C92.0222 148.526 93.0922 149.759 94.0388 151.075C94.5327 151.773 94.9442 152.472 95.2735 153.212C95.6027 153.951 95.9731 154.732 96.1377 155.595C96.6316 157.239 96.7139 159.006 96.4258 160.691C96.2612 161.554 96.0554 162.335 95.7262 163.198C95.3969 164.061 94.9854 164.719 94.4915 165.418C94.2446 165.746 93.7919 165.829 93.4626 165.623C93.1334 165.418 93.0511 165.007 93.2157 164.678C93.9565 163.363 94.615 161.965 94.8619 160.486C95.0265 159.787 95.0677 159.006 95.0677 158.267C95.0677 157.527 94.9442 156.746 94.8208 156.047C94.4915 154.568 93.9153 153.088 93.0922 151.732C92.3514 150.417 91.3637 149.061 90.3348 147.91C90.2113 147.787 90.2113 147.622 90.3348 147.54C90.5406 147.335 90.664 147.335 90.7463 147.417Z" fill="black"/>
<path d="M91.7717 162.993C93.0887 163.322 94.1587 164.144 95.0641 165.089C95.9696 166.034 96.7927 167.103 97.41 168.294C98.6447 170.678 99.0562 173.514 98.5624 176.144C98.3977 176.76 98.2743 177.418 98.0685 178.076C97.8627 178.692 97.6981 179.267 97.4512 179.884C97.0396 181.076 96.5457 182.268 96.0107 183.459C95.4757 184.61 94.8995 185.802 94.241 186.912C93.9118 187.446 93.5414 188.021 93.0475 188.514C92.5536 189.008 92.1421 189.46 91.4424 189.747C91.2778 189.871 91.1132 189.747 91.0309 189.583C90.9897 189.46 90.9897 189.336 91.0309 189.254L91.072 189.213C92.3067 187.199 93.6237 185.103 94.5703 182.802C95.0641 181.651 95.4757 180.5 95.8872 179.35C96.093 178.774 96.2576 178.158 96.4634 177.582C96.6692 177.007 96.7515 176.432 96.875 175.856C97.3688 173.555 97.0396 171.13 96.0107 169.034C95.5168 167.966 94.8172 166.979 93.9941 166.116C93.171 165.253 92.3478 164.39 91.4424 163.445C91.319 163.322 91.319 163.198 91.4424 163.116C91.607 162.993 91.7305 162.993 91.7717 162.993Z" fill="black"/>
<path d="M93.7988 187.035C94.0457 187.24 94.1692 187.405 94.3749 187.61C94.5807 187.816 94.7042 187.98 94.8688 188.186C95.0334 188.391 95.1569 188.555 95.2804 188.802C95.445 189.007 95.5685 189.213 95.6508 189.418L95.98 190.117C96.1035 190.364 96.1858 190.61 96.2681 190.816C96.4739 191.227 96.5562 191.761 96.6797 192.213C96.9266 193.158 97.0089 194.145 97.0089 195.131C97.0501 195.624 96.9677 196.076 96.8854 196.569C96.8443 196.816 96.8443 197.063 96.762 197.268L96.5973 197.967L96.3916 198.665C96.3504 198.912 96.2681 199.159 96.1858 199.364L95.6919 200.679C95.5273 201.172 95.3215 201.542 95.0746 201.953C94.8688 202.364 94.663 202.816 94.3749 203.186C93.8399 203.926 93.3049 204.789 92.7699 205.488C92.1937 206.186 91.5764 206.926 90.959 207.584C90.8355 207.707 90.7121 207.707 90.6298 207.584C90.5063 207.46 90.5063 207.378 90.5886 207.296C91.0825 206.474 91.5352 205.693 92.0291 204.953C92.4406 204.214 92.8933 203.351 93.3049 202.57C94.0045 200.926 94.7865 199.323 95.0746 197.597C95.4038 195.871 95.445 194.145 95.0334 192.501C94.91 192.09 94.8277 191.679 94.663 191.309C94.5396 191.103 94.4984 190.939 94.4161 190.734L94.128 190.158C94.0045 189.953 93.9222 189.788 93.7988 189.624C93.6753 189.418 93.5518 189.254 93.4695 189.09C93.3049 188.884 93.2226 188.761 93.0991 188.596C92.9756 188.432 92.811 188.268 92.7287 188.186L92.6876 188.144C92.3995 187.857 92.3995 187.446 92.6876 187.117C93.058 186.788 93.4695 186.747 93.7988 187.035Z" fill="black"/>
<path d="M95.0698 201.419C95.0698 201.419 96.9218 202.57 97.251 205.2C97.7449 208.734 98.4857 211.365 95.9341 219.666C95.9341 219.666 90.5015 219.954 86.8386 216.42C83.1758 212.885 84.822 207.419 84.822 207.419" stroke="black" stroke-width="1.43621" stroke-miterlimit="10" stroke-linecap="round" stroke-linejoin="round"/>
<path d="M89.9214 191.103C88.7691 192.706 87.699 194.186 86.6701 195.789C86.1763 196.611 85.7647 197.432 85.4355 198.296C85.1062 199.159 84.8181 200.022 84.6947 200.926C84.4066 202.693 84.6535 204.501 85.5589 206.022C86.4644 207.625 87.7813 208.899 89.2218 210.173C89.3453 210.296 89.3453 210.419 89.2218 210.502C89.1806 210.625 89.016 210.625 88.9749 210.543C87.1229 209.844 85.4355 208.529 84.2831 206.721C83.7069 205.857 83.3365 204.789 83.0896 203.762C82.8838 202.693 82.8838 201.624 83.0484 200.597C83.3777 198.501 84.2831 196.611 85.3943 194.967C85.9705 194.104 86.5878 193.323 87.2463 192.624C87.9048 191.925 88.6868 191.227 89.551 190.651C89.7157 190.528 89.8803 190.61 89.9214 190.775C89.9626 190.816 89.9626 190.98 89.9214 191.103Z" fill="black"/>
<path d="M87.9441 185.679C87.7383 186.583 87.6971 187.61 87.7383 188.514C87.7795 188.925 87.9029 189.418 88.0264 189.706C88.2322 189.994 88.3556 190.076 88.6437 190.076C89.0141 190.076 89.3434 190.405 89.3434 190.775C89.3434 191.145 89.0141 191.473 88.6437 191.473C88.6026 191.473 88.6026 191.473 88.5203 191.473C88.191 191.432 87.8206 191.268 87.4502 191.062C87.1621 190.816 86.9563 190.487 86.8329 190.199C86.5859 189.583 86.5859 189.049 86.5859 188.555C86.5859 188.062 86.7094 187.487 86.7917 187.035C86.9152 186.501 87.0387 186.007 87.1621 185.555C87.2033 185.35 87.4091 185.268 87.5737 185.309C87.8618 185.35 87.9852 185.514 87.9441 185.679Z" fill="black"/>
<path d="M83.6231 172.445C83.8701 172.938 83.8289 173.185 83.6643 173.39C83.4997 173.637 83.3762 173.801 83.2939 174.089C83.0469 174.582 82.7589 174.993 82.5531 175.486C82.0592 176.432 81.6888 177.418 81.3184 178.404C80.6188 180.377 80.2072 182.391 80.2484 184.405C80.3718 186.418 80.9892 188.391 82.265 189.912C83.4585 191.514 85.2282 192.665 87.1214 193.651H87.1625C87.4918 193.857 87.6564 194.268 87.4506 194.597C87.2448 194.925 86.8333 195.09 86.504 194.925C85.969 194.679 85.434 194.432 84.9813 194.227C84.4874 193.939 83.9524 193.651 83.5408 193.323C82.5942 192.706 81.73 191.884 80.948 190.98C80.2072 190.076 79.631 189.007 79.1783 187.939C78.7667 186.829 78.561 185.637 78.4787 184.487C78.3552 182.144 78.8902 179.925 79.6722 177.747C80.0426 176.678 80.5364 175.692 81.0715 174.706C81.3184 174.212 81.6065 173.76 81.8946 173.267C82.0592 173.021 82.1827 172.774 82.3061 172.568C82.4708 172.322 82.6765 172.157 83.2527 172.199C83.4585 172.199 83.5408 172.281 83.6231 172.445Z" fill="black"/>
<path d="M82.4736 157.527C81.7739 159.294 81.1566 161.102 80.8273 162.952C80.5392 164.76 80.5804 166.692 81.1566 168.377C81.7739 170.144 82.9674 171.623 84.449 172.815C85.9306 174.007 87.6592 174.952 89.47 175.692C89.6347 175.733 89.6758 175.897 89.6347 176.021C89.5935 176.185 89.4289 176.226 89.3054 176.185C87.4534 175.486 85.6426 174.664 83.9963 173.473C82.3501 172.281 80.9508 170.719 80.0865 168.788C79.2223 166.856 79.0165 164.678 79.3869 162.664C79.7573 160.65 80.6216 158.719 81.9797 157.157C82.1032 157.034 82.2678 156.993 82.3501 157.116C82.5559 157.28 82.5559 157.404 82.4736 157.527Z" fill="black"/>
<path d="M86.553 155.308C84.166 154.445 82.1082 152.76 80.6266 150.664C79.9269 149.595 79.3507 148.444 78.9803 147.17C78.6099 145.937 78.4453 144.622 78.4453 143.348C78.4453 142.732 78.4865 142.074 78.5688 141.417C78.6922 140.8 78.7746 140.184 78.9392 139.567C79.2273 138.334 79.68 137.101 80.1739 135.992C81.2027 133.69 82.5197 131.594 84.0013 129.581C84.2483 129.252 84.701 129.211 85.0302 129.416C85.3595 129.663 85.4006 130.115 85.1948 130.444C83.8779 132.416 82.602 134.43 81.6555 136.608C81.2439 137.718 80.7912 138.786 80.5031 139.978C80.215 141.129 80.0915 142.28 80.0092 143.43C79.9681 145.732 80.5854 147.992 81.8612 149.924C83.1371 151.855 84.9068 153.417 86.8822 154.732H86.9234C87.1292 154.855 87.1703 155.061 87.0469 155.266C86.8822 155.308 86.7176 155.349 86.553 155.308Z" fill="black"/>
<path d="M81.8979 151.855C81.8979 151.855 78.0704 159.047 79.7578 161.965" stroke="black" stroke-width="1.43621" stroke-miterlimit="10" stroke-linecap="round" stroke-linejoin="round"/>
<path d="M92.6752 219.79C92.6752 219.79 86.1314 226.447 91.6052 234.749C97.12 243.051 100.124 244.818 100.289 247.571C100.289 247.571 102.964 238.982 103.499 237.05C103.787 235.982 106.586 227.968 102.676 223.488C99.6305 219.995 96.5027 218.803 96.7496 217.529" stroke="black" stroke-width="1.43621" stroke-miterlimit="10" stroke-linecap="round" stroke-linejoin="round"/>
<path d="M165.527 31.604C167.503 33.0013 168.778 34.974 170.013 36.8645C171.248 38.8372 172.4 40.8099 173.429 42.8236C175.487 46.9334 177.051 51.2897 177.956 55.8105C178.08 56.3858 178.203 56.9612 178.244 57.5366L178.491 59.2627C178.615 60.4134 178.738 61.5641 178.738 62.7148C178.779 63.8656 178.738 65.0163 178.697 66.167C178.574 67.3178 178.491 68.4685 178.327 69.6192C178.162 70.77 177.915 71.8385 177.627 73.0303L177.133 74.6742C177.01 74.9619 176.968 75.2496 176.886 75.4962L176.598 76.3181C175.898 78.4963 174.787 80.5101 173.676 82.5649C173.511 82.8115 173.264 82.8937 172.976 82.7704C172.729 82.606 172.647 82.3595 172.771 82.0718C174.746 78.0853 176.186 73.8523 176.598 69.4548C176.763 68.3452 176.804 67.2767 176.845 66.167C176.845 65.0574 176.845 63.9889 176.721 62.8792C176.68 61.7696 176.516 60.7011 176.392 59.5914L176.104 57.9475C175.981 57.4133 175.857 56.8379 175.775 56.3036C175.281 54.1666 174.664 52.0295 173.841 49.9746C173.1 47.9197 172.194 45.906 171.165 43.9744C170.137 42.0017 169.067 40.0701 167.791 38.2207C167.173 37.3166 166.556 36.4124 165.939 35.5083C165.321 34.6041 164.745 33.6589 164.292 32.6315V32.5904C164.087 32.2205 164.292 31.7684 164.663 31.6451C165.033 31.3985 165.363 31.4396 165.527 31.604Z" fill="black"/>
<path d="M93.2098 56.2214C93.6213 58.8106 93.4979 61.2764 93.3744 63.7834C93.2509 66.3314 93.3332 68.7973 93.4156 71.3453C93.5802 73.8934 93.7448 76.3592 94.1152 78.8662C94.4856 81.3731 94.856 83.839 95.4322 86.2637C95.9672 88.7296 96.6669 91.1543 97.49 93.4969C98.3131 95.8805 99.3008 98.182 100.412 100.401C101.523 102.621 102.799 104.799 104.24 106.895L105.351 108.415C105.721 108.95 106.174 109.361 106.544 109.895L107.12 110.593C107.326 110.84 107.532 111.087 107.738 111.292L109.014 112.689C109.219 112.895 109.219 113.224 108.972 113.388C108.767 113.594 108.479 113.594 108.273 113.388C104.363 109.936 101.194 105.785 98.6835 101.264C96.1318 96.7436 94.321 91.7708 92.9628 86.798C91.687 81.7841 90.9051 76.6058 90.617 71.4686C90.4523 68.8795 90.4112 66.2903 90.4523 63.7012C90.4935 61.112 90.6581 58.4818 91.7282 55.9749C91.8928 55.605 92.3455 55.4406 92.6748 55.605C93.004 55.6872 93.1686 55.9338 93.2098 56.2214Z" fill="black"/>
<path d="M93.1719 96.5381C99.9626 109.361 116.137 124.772 130.13 122.882C143.464 121.156 157.745 99.867 158.116 95.675" stroke="black" stroke-width="1.43621" stroke-miterlimit="10" stroke-linecap="round" stroke-linejoin="round"/>
<path d="M93.0873 74.7564C93.5812 73.9345 94.1162 73.2769 94.6924 72.6605C94.9805 72.3317 95.2686 72.044 95.5978 71.7152C95.9271 71.4275 96.2151 71.1399 96.5444 70.8522C97.8614 69.7425 99.4253 68.7973 101.03 68.1808C102.677 67.5644 104.446 67.1123 106.216 67.0712C107.121 66.9479 107.986 67.0712 108.85 67.1123C109.097 67.1123 109.262 67.1534 109.55 67.2356L110.249 67.3589L111.525 67.5644C112.225 67.6877 112.677 68.3041 112.595 69.0028C112.472 69.7014 111.854 70.1535 111.155 70.0713H111.114L110.949 70.0302L109.797 69.7836L109.22 69.6193C109.015 69.5782 108.85 69.496 108.644 69.496C107.903 69.4549 107.121 69.2494 106.339 69.3316C105.969 69.3316 105.599 69.3316 105.187 69.3316L104.117 69.4549C103.747 69.496 103.376 69.6193 102.965 69.7015C102.594 69.8247 102.224 69.8658 101.853 70.0302C100.372 70.5234 98.9726 71.2221 97.7379 72.1673C97.4087 72.4139 97.1206 72.6605 96.8325 72.866C96.5444 73.1536 96.2563 73.4002 95.9682 73.6879C95.4332 74.2633 94.8982 74.8797 94.4866 75.4551L94.4454 75.4962C94.1985 75.825 93.7458 75.9072 93.4166 75.7017C93.005 75.4962 92.9227 75.0441 93.0873 74.7564Z" fill="black"/>
<path d="M131.937 64.9342C132.472 64.7698 132.884 64.6876 133.377 64.6054C133.871 64.4821 134.324 64.3999 134.818 64.3588C135.312 64.2355 135.764 64.2355 136.258 64.1944L137.699 64.0711C139.633 64.03 141.485 64.1944 143.337 64.5643C144.284 64.7287 145.148 64.9753 146.053 65.2629C146.918 65.5917 147.823 65.8794 148.687 66.3726C150.416 67.1123 151.939 68.3042 153.379 69.4549C153.667 69.7015 153.708 70.1535 153.503 70.4823C153.256 70.77 152.803 70.8111 152.556 70.6467L152.515 70.6056C151.074 69.5782 149.634 68.6329 148.029 68.0165C147.288 67.6466 146.383 67.4411 145.56 67.1945C144.695 66.989 143.913 66.8246 143.008 66.7014C141.279 66.4548 139.551 66.4548 137.905 66.5781L136.629 66.7424C136.217 66.8657 135.764 66.9068 135.394 66.989C134.982 67.1123 134.571 67.1945 134.159 67.2767C133.789 67.4 133.336 67.5233 133.007 67.6466H132.966C132.225 67.9343 131.361 67.5233 131.155 66.7835C130.867 66.0438 131.278 65.1807 132.019 64.9753C131.855 64.9342 131.937 64.9342 131.937 64.9342Z" fill="black"/>
<path d="M131.49 78.5374C132.89 77.2223 134.412 76.1538 136.182 75.2907C137.911 74.4277 139.804 73.8934 141.779 73.8523C142.808 73.8523 143.796 73.9756 144.743 74.2222C145.689 74.5099 146.595 74.9208 147.459 75.4551C149.105 76.5647 150.422 78.0442 151.451 79.647C151.657 79.9758 151.574 80.3868 151.204 80.6745C150.916 80.88 150.504 80.7978 150.299 80.5101C149.187 79.195 147.912 77.962 146.512 77.1401C145.813 76.7291 145.031 76.4414 144.29 76.236C143.549 76.0305 142.685 75.9483 141.903 75.9483C140.257 75.9483 138.61 76.3592 137.005 77.0579C136.182 77.3867 135.4 77.7566 134.701 78.2086C133.96 78.6196 133.219 79.1128 132.56 79.647L132.519 79.6881C132.19 79.9347 131.779 79.8936 131.49 79.5238C131.243 79.1539 131.285 78.7429 131.49 78.5374Z" fill="black"/>
<path d="M96.0501 81.2909C96.297 80.88 96.4617 80.5923 96.7498 80.2224C96.9967 79.8936 97.2848 79.6059 97.5729 79.2771C98.1491 78.7018 98.7664 78.1675 99.5072 77.7565C100.906 76.8524 102.553 76.3592 104.199 76.277C105.022 76.2359 105.845 76.277 106.668 76.4414C107.039 76.5647 107.491 76.6058 107.862 76.688C108.232 76.7702 108.603 76.9346 109.014 77.0579C109.385 77.2223 109.714 77.3456 110.125 77.4689L111.195 78.0031L112.224 78.5785C112.554 78.784 112.924 78.9895 113.171 79.2771C113.5 79.5237 113.582 79.9758 113.377 80.3046C113.171 80.5923 112.8 80.6745 112.471 80.5512H112.348C112.019 80.3868 111.648 80.2224 111.319 80.058L110.29 79.647L109.261 79.2771C108.932 79.1539 108.561 79.0306 108.232 78.9484C106.915 78.5785 105.516 78.3319 104.117 78.373C102.8 78.4141 101.442 78.784 100.207 79.4826C99.5895 79.8114 99.0545 80.1813 98.5606 80.6745C98.0256 81.0854 97.5317 81.7019 97.1613 82.154L97.1202 82.1951C96.8732 82.5239 96.4205 82.5649 96.0913 82.3595C95.9266 81.9485 95.8855 81.5786 96.0501 81.2909Z" fill="black"/>
<path d="M99.7583 79.1538C99.7583 79.1538 99.5937 85.4417 105.067 85.4417C110.5 85.4417 109.183 78.2497 107.002 78.0442" stroke="black" stroke-width="1.43621" stroke-miterlimit="10" stroke-linecap="round" stroke-linejoin="round"/>
<path d="M138.079 76.1948C138.079 76.1948 135.362 83.1814 141.7 83.1814C148.038 83.1814 145.857 76.3592 144.787 75.825" stroke="black" stroke-width="1.43621" stroke-miterlimit="10" stroke-linecap="round" stroke-linejoin="round"/>
<path d="M116.756 103.689C117.127 103.936 117.62 104.223 118.032 104.429C118.526 104.675 118.979 104.84 119.473 105.045C120.501 105.374 121.489 105.662 122.518 105.785C124.576 106.073 126.675 106.032 128.774 105.58C130.79 105.169 132.766 104.429 134.33 103.196C135.071 102.621 135.811 101.922 136.346 101.141C136.634 100.771 136.881 100.319 137.046 99.9492C137.169 99.7437 137.252 99.5383 137.293 99.3328C137.334 99.1273 137.416 98.9629 137.416 98.8396V98.7163C137.54 97.8944 138.24 97.4012 139.063 97.4834C139.886 97.6067 140.38 98.3053 140.297 99.1273V99.1684C140.256 99.5794 140.092 99.9903 140.009 100.278C139.845 100.607 139.721 100.894 139.598 101.182C139.268 101.758 138.898 102.292 138.528 102.785C137.787 103.73 136.799 104.593 135.811 105.292C134.782 105.991 133.712 106.484 132.601 106.895C132.313 107.018 132.025 107.1 131.737 107.182L130.873 107.429C130.296 107.593 129.72 107.676 129.144 107.758C126.839 108.128 124.494 108.045 122.23 107.593C121.078 107.347 120.008 107.018 118.937 106.525C117.867 106.032 116.88 105.497 115.892 104.758C115.563 104.511 115.522 104.059 115.727 103.73C115.974 103.443 116.427 103.36 116.674 103.566L116.756 103.689Z" fill="black"/>
<path d="M110.5 117.251C110.706 121.073 119.472 130.402 130.296 130.197C140.009 130.033 146.717 121.895 146.388 114.703" stroke="black" stroke-width="1.43621" stroke-miterlimit="10" stroke-linecap="round" stroke-linejoin="round"/>
<path d="M146.469 114.251C146.469 114.251 160.05 119.676 161.285 120.786" stroke="black" stroke-width="1.43621" stroke-miterlimit="10" stroke-linecap="round" stroke-linejoin="round"/>
<path d="M154.578 154.732C154.578 154.732 155.401 172.281 161.122 171.418C164.167 171.007 169.559 166.692 173.962 161.76C179.518 155.595 181.7 148.65 181.7 148.65C181.7 148.65 180.753 149.184 176.144 137.553C171.534 125.923 164.949 121.731 164.949 121.731" stroke="black" stroke-width="1.43621" stroke-miterlimit="10" stroke-linecap="round" stroke-linejoin="round"/>
<path d="M164.658 170.473C164.658 170.473 164.823 196.241 165.522 208.323C165.522 208.323 162.888 215.146 142.228 215.557C121.527 215.967 122.967 217.611 98.1094 211.94" stroke="black" stroke-width="1.43621" stroke-miterlimit="10" stroke-linecap="round" stroke-linejoin="round"/>
<path d="M165.686 208.899C165.686 208.899 166.592 235.324 163.752 258.134C160.583 283.943 153.093 310.327 154.204 312.67C158.361 316.451 172.271 326.355 167.168 326.931C162.847 327.465 142.804 328.369 138.153 328.575C133.503 328.78 133.997 324.095 133.132 315.834C132.309 307.615 129.181 290.601 128.687 268.983C128.194 247.366 127.947 249.215 127.947 249.215C126.877 247.982 119.098 270.792 113.748 291.176C109.056 309.053 108.521 329.52 97.3268 329.766C86.1324 330.013 73.5799 330.383 73.5799 330.383C73.5799 330.383 66.5011 331.493 71.8514 325.533C77.2016 319.615 83.1692 315.834 84.6508 306.957C86.1324 297.998 82.84 224.351 87.0378 217.159" stroke="black" stroke-width="1.43621" stroke-miterlimit="10" stroke-linecap="round" stroke-linejoin="round"/>
<path d="M180.016 154.033C180.016 154.033 184.214 156.047 185.901 155.307" stroke="black" stroke-width="1.43621" stroke-miterlimit="10" stroke-linecap="round" stroke-linejoin="round"/>
<path d="M166.477 169.198C166.477 169.198 175.613 175.98 184.462 174.829" stroke="black" stroke-width="1.43621" stroke-miterlimit="10" stroke-linecap="round" stroke-linejoin="round"/>
<path d="M202.48 148.115C202.48 148.115 208.9 145.567 207.707 161.061C206.513 176.555 199.229 175.774 197.5 175.61C195.771 175.445 191.574 176.514 192.273 161.924C192.973 147.335 203.262 152.965 203.262 152.965" stroke="black" stroke-width="1.43621" stroke-miterlimit="10" stroke-linecap="round" stroke-linejoin="round"/>
<path d="M72.7988 111.785C72.7988 111.785 62.9214 126.95 59.4232 129.909C55.8838 132.951 60.0405 134.471 60.8225 135.17C61.5633 135.786 79.7541 154.239 79.3837 156.993" stroke="black" stroke-width="1.43621" stroke-miterlimit="10" stroke-linecap="round" stroke-linejoin="round"/>
<path d="M72.3078 106.813C72.3078 106.813 50.5364 74.1811 37.1197 64.852C30.4113 60.1668 21.2747 57.0434 15.0602 62.5916C8.80453 68.1809 15.801 74.4277 17.8176 75.8661C19.7931 77.3045 32.5514 88.4419 43.293 103.443C50.0014 112.772 60.7431 127.813 60.7431 127.813" stroke="black" stroke-width="1.43621" stroke-miterlimit="10" stroke-linecap="round" stroke-linejoin="round"/>
<path d="M201.823 151.198C201.823 151.198 205.239 123.416 201.082 74.0578C196.926 24.6997 200.053 29.3848 190.752 33.3301C181.41 37.2755 182.109 40.851 182.109 40.851C182.109 40.851 190.258 112.689 186.966 154.116C183.591 195.542 183.92 196.446 183.303 223.858C182.686 251.27 181.492 320.766 181.492 320.766C181.492 320.766 179.681 326.15 184.373 326.027C189.065 325.862 196.144 329.808 196.72 314.396C197.337 299.026 199.313 179.473 200.506 176.144" stroke="black" stroke-width="1.43621" stroke-miterlimit="10" stroke-linecap="round" stroke-linejoin="round"/>
<path d="M198.406 36.8234C198.612 36.4124 211.905 19.7679 216.885 19.3159C221.824 18.9049 206.679 29.5903 206.596 30.6999C206.473 31.8095 219.478 21.9461 221.001 25.7271C222.523 29.5081 224.046 32.1383 220.754 33.289C217.503 34.4398 209.642 39.5358 209.642 39.5358C209.642 39.5358 223.635 33.0013 223.84 37.8919C224.046 42.7826 224.746 62.0162 224.746 62.0162C224.746 62.0162 223.635 59.5503 220.013 61.4408C220.013 61.4408 223.923 61.1942 224.005 67.3178C224.129 73.4413 221.906 87.9076 226.186 92.3462C226.186 92.3462 222.112 95.8805 217.214 95.8805C212.317 95.8805 202.563 93.7024 202.563 93.7024" stroke="black" stroke-width="1.43621" stroke-miterlimit="10" stroke-linecap="round" stroke-linejoin="round"/>
<path d="M224.624 96.8258C223.43 97.1545 222.237 97.36 221.043 97.5244C219.85 97.6888 218.574 97.6888 217.421 97.6477C216.228 97.6066 214.952 97.4011 213.8 97.1545C212.606 96.9079 211.413 96.4559 210.301 95.9627C209.931 95.7983 209.766 95.3873 209.931 95.0175C210.096 94.6476 210.507 94.4832 210.878 94.6476C210.878 94.6476 210.878 94.6476 210.919 94.6476H210.96C211.989 95.1408 213.018 95.5928 214.17 95.9216C215.281 96.2504 216.392 96.4559 217.586 96.6203C218.738 96.7847 219.932 96.7847 221.084 96.7436C222.237 96.7025 223.43 96.5381 224.582 96.3326C224.788 96.2915 224.912 96.4559 224.953 96.5792C224.912 96.6614 224.829 96.8258 224.624 96.8258Z" fill="black"/>
<path d="M202.979 37.2344C205.16 35.385 207.382 33.6178 209.728 31.8506C210.881 30.9876 212.033 30.2067 213.268 29.3848C213.885 29.0149 214.502 28.645 215.12 28.2752C215.819 27.9464 216.396 27.5765 217.219 27.4532C217.383 27.4121 217.507 27.5765 217.548 27.6998C217.589 27.8642 217.507 27.9875 217.301 28.0286H217.26C216.643 28.193 216.025 28.5217 215.408 28.8505C214.791 29.1793 214.214 29.5903 213.638 30.0013C212.486 30.8232 211.416 31.7274 210.263 32.5904C208.082 34.3987 205.942 36.2481 203.925 38.1797C203.637 38.4673 203.185 38.4263 202.897 38.1386C202.65 37.9331 202.691 37.5221 202.979 37.2344Z" fill="black"/>
<path d="M209.889 33.8644C210.713 33.3301 211.495 32.8369 212.277 32.3849C213.1 31.8917 213.923 31.4396 214.787 30.9876C215.651 30.5766 216.433 30.1656 217.38 29.8368C217.791 29.6724 218.285 29.5491 218.779 29.4669C219.273 29.3437 219.726 29.3026 220.261 29.4669C220.384 29.508 220.425 29.6313 220.425 29.7135C220.384 29.8368 220.261 29.8779 220.178 29.8779C219.808 29.7546 219.314 29.8779 218.944 30.0423C218.532 30.2067 218.079 30.33 217.709 30.5355C216.886 30.9054 216.063 31.3985 215.322 31.8506C214.581 32.3438 213.799 32.878 213.017 33.4534C212.277 33.9877 211.536 34.563 210.836 35.0973C210.548 35.3439 210.095 35.3028 209.807 34.974C209.56 34.6863 209.601 34.2343 209.931 33.9466C209.889 33.9055 209.889 33.9055 209.889 33.8644Z" fill="black"/>
<path d="M211.05 42.166C211.874 41.7961 212.697 41.4262 213.561 41.0563C214.384 40.7276 215.207 40.3577 216.113 40.1111C216.977 39.8234 217.841 39.5768 218.747 39.4124C219.158 39.2891 219.652 39.248 220.146 39.248C220.64 39.248 221.092 39.2891 221.586 39.4946C221.751 39.5357 221.792 39.7412 221.71 39.8234C221.669 39.9878 221.504 40.0289 221.38 39.9878C221.051 39.8234 220.64 39.8234 220.228 39.8645C219.817 39.9056 219.405 40.0289 218.993 40.1111C218.17 40.3577 217.347 40.6454 216.524 40.9741C215.701 41.3029 214.919 41.6728 214.178 42.0838C213.437 42.4948 212.655 42.9057 211.874 43.3167C211.544 43.5222 211.133 43.44 210.845 43.0701C210.639 42.7413 210.721 42.3304 211.092 42.0427C211.009 42.166 211.05 42.166 211.05 42.166Z" fill="black"/>
<path d="M214.418 44.1798C215.118 43.8099 215.735 43.44 216.435 43.0702C217.134 42.7414 217.834 42.3715 218.493 42.0427C219.192 41.755 219.933 41.4263 220.633 41.2208C221.003 41.0975 221.374 41.0153 221.785 40.9742C221.991 40.9331 222.155 40.9331 222.402 40.9742C222.608 41.0153 222.814 41.0975 223.02 41.2619C223.061 41.303 223.061 41.4263 223.02 41.4674C222.979 41.5085 222.896 41.5085 222.814 41.4674C222.567 41.2619 222.197 41.303 221.867 41.4263C221.538 41.5496 221.168 41.6728 220.838 41.7961C220.139 42.0838 219.522 42.4948 218.863 42.8647C217.587 43.6044 216.311 44.5086 215.2 45.4127C214.871 45.6593 214.459 45.6182 214.171 45.2483C213.924 44.9195 213.965 44.5086 214.336 44.2209C214.377 44.2209 214.418 44.2209 214.418 44.1798Z" fill="black"/>
<path d="M217.631 45.4539L221.952 45.1251C222.158 45.1251 222.281 45.2895 222.281 45.4128C222.281 45.5772 222.158 45.7005 222.034 45.7416L217.878 46.8512C217.507 46.9745 217.137 46.6868 217.013 46.3169C216.89 45.9471 217.178 45.5772 217.548 45.4539C217.507 45.495 217.59 45.495 217.631 45.4539Z" fill="black"/>
<path d="M207.218 67.8931C209.852 67.5644 212.528 67.1945 215.161 66.8246L223.105 65.715C223.269 65.715 223.351 65.8383 223.393 65.9205C223.393 66.0848 223.351 66.167 223.187 66.2081L215.326 67.9342C212.692 68.5096 210.099 69.085 207.465 69.7014C206.972 69.8247 206.436 69.4959 206.354 69.0028C206.231 68.5096 206.56 67.9753 207.054 67.8931C207.177 67.8931 207.177 67.8931 207.218 67.8931Z" fill="black"/>
<path d="M212.562 69.4138C213.385 69.3727 214.208 69.2494 214.949 69.1261C215.772 69.0028 216.554 68.8384 217.336 68.7151C218.941 68.4274 220.505 68.0987 222.069 67.7699C222.233 67.7288 222.357 67.811 222.357 67.9754C222.398 68.1398 222.316 68.263 222.151 68.263C220.546 68.5918 218.982 68.9617 217.459 69.4138C216.718 69.6193 215.854 69.8247 215.113 70.0302C214.373 70.2768 213.591 70.5234 212.809 70.77C212.438 70.9344 211.986 70.7289 211.862 70.359C211.697 69.9891 211.903 69.5371 212.274 69.4138C212.438 69.4138 212.479 69.4138 212.562 69.4138Z" fill="black"/>
<path d="M216.028 72.9892C217.263 72.7837 218.497 72.5782 219.691 72.2905C220.308 72.1262 220.884 72.0029 221.461 71.7974C221.749 71.6741 222.037 71.5919 222.325 71.4686C222.49 71.4275 222.613 71.3042 222.695 71.2631C222.819 71.1398 222.901 71.0576 222.942 71.0165V70.9754C222.942 70.8521 223.107 70.811 223.189 70.811C223.271 70.811 223.354 70.9343 223.354 71.0165C223.313 71.3042 223.148 71.3864 223.066 71.5508C222.901 71.7152 222.778 71.7974 222.654 71.8796C222.366 72.0851 222.078 72.2084 221.79 72.3727C221.214 72.6604 220.596 72.907 220.02 73.1125C218.827 73.6057 217.633 73.9755 216.398 74.3454C216.028 74.4687 215.658 74.2221 215.493 73.8522C215.37 73.4824 215.617 73.1125 215.987 72.9481C215.905 73.0303 215.987 72.9892 216.028 72.9892Z" fill="black"/>
<path d="M207.915 82.6882C210.507 82.0717 213.018 81.4142 215.569 80.6333C216.804 80.2634 218.121 79.8114 219.315 79.3593C219.932 79.1127 220.508 78.825 221.084 78.5373C221.372 78.3729 221.661 78.2086 221.907 78.0031C222.154 77.7976 222.401 77.5921 222.442 77.3044C222.442 77.1811 222.566 77.14 222.607 77.14C222.731 77.14 222.772 77.1811 222.772 77.3044C222.772 77.551 222.648 77.6743 222.566 77.8387C222.442 78.0031 222.319 78.1264 222.196 78.2086C221.949 78.4551 221.661 78.6195 221.372 78.825C220.796 79.1949 220.22 79.5237 219.603 79.7703C218.409 80.3456 217.133 80.8799 215.94 81.3731C213.429 82.3183 210.919 83.1813 208.367 84.0033C207.997 84.1266 207.626 83.88 207.462 83.5101C207.338 83.1403 207.585 82.7704 207.956 82.606C207.873 82.6882 207.915 82.6882 207.915 82.6882Z" fill="black"/>
<path d="M185.985 224.434C186.314 227.968 186.52 231.502 186.725 235.037C186.849 236.804 186.931 238.571 187.014 240.338C187.137 242.106 187.178 243.873 187.26 245.64C187.507 252.709 187.631 259.86 187.59 266.928C187.59 268.696 187.549 270.463 187.466 272.23C187.425 273.997 187.425 275.764 187.302 277.532L187.055 282.833C186.931 284.6 186.808 286.368 186.725 288.135C186.19 295.204 185.491 302.355 184.05 309.341C184.009 309.67 183.68 309.875 183.351 309.834C183.021 309.793 182.816 309.464 182.857 309.136L183.598 303.875C183.845 302.108 183.968 300.382 184.174 298.615C184.421 296.847 184.503 295.08 184.668 293.354C184.832 291.587 184.956 289.82 184.997 288.053C185.408 280.984 185.614 273.874 185.697 266.805C185.82 259.736 185.697 252.627 185.573 245.558C185.573 243.791 185.532 242.023 185.45 240.256C185.408 238.489 185.326 236.722 185.285 234.955C185.162 231.42 185.038 227.886 184.915 224.351C184.915 224.064 185.12 223.817 185.408 223.817C185.697 223.94 185.943 224.105 185.985 224.434Z" fill="black"/>
<path d="M185.202 44.9607C186.972 52.6049 188.453 60.249 189.688 67.9753C190.923 75.7017 192.034 83.4691 192.857 91.1954C193.228 95.0997 193.598 98.9629 193.886 102.908C194.174 106.854 194.298 110.758 194.38 114.662C194.421 118.607 194.38 122.512 194.092 126.416C193.927 128.389 193.721 130.361 193.392 132.293L193.269 132.992L193.104 133.69L192.816 135.129C192.61 136.074 192.322 137.06 192.116 138.006C191.993 138.293 191.746 138.499 191.417 138.375C191.129 138.334 190.923 138.047 191.046 137.759V137.718C191.787 133.937 192.158 130.074 192.24 126.252C192.363 122.347 192.24 118.525 192.075 114.621C191.746 106.895 191.005 99.1273 190.141 91.4009C189.729 87.4967 189.277 83.6746 188.742 79.8525C188.248 75.9483 187.713 72.1262 187.219 68.3041L185.573 56.7557C185.038 52.8515 184.42 49.0294 183.926 45.2073C183.885 44.8785 184.132 44.5087 184.461 44.5087C184.873 44.4676 185.161 44.7142 185.202 44.9607Z" fill="black"/>
</svg>
