<svg width="245" height="346" viewBox="0 0 245 346" fill="none" xmlns="http://www.w3.org/2000/svg">
<path d="M68.7383 51.5363L60.4248 62.4683L58.9844 66.4958L60.1367 78.4963L62.0711 86.4692L71.2899 96.1271V102.004L66.7628 105.374L65.1577 107.141L71.0842 117.909L83.0605 129.211L89.0692 129.827L91.4151 124.895L94.0079 125.183L98.1646 131.266L101.416 138.951L106.396 144.869L113.598 150.253L116.273 150.581L122.982 144.869L124.834 134.307L134.793 116.101L137.962 109.196L139.732 96.1271L137.016 89.6337L135.863 79.8936L132.2 77.3456L127.756 66.4958L122.652 52.8926L115.327 40.2756L104.75 31.7684L93.0613 30.2067L81.2085 33.5767L75.9405 36.0426L68.7383 51.5363Z" fill="#FFF2DD"/>
<path d="M82.7711 145.896L84.2115 151.444L82.6888 152.924L72.2764 154.773L65.1564 155.924L61.1232 154.979L59.0654 156.951L58.7773 159.952L56.0199 160.732L54.1679 162.13V165.787L51.3281 168.377V171.829L53.1801 174.336L53.7563 178.939L55.8553 182.966L58.695 183.542L60.3001 185.514L61.4936 189.336L64.9507 188.555L66.3088 188.802L69.4366 191.679L67.7493 197.556V203.474L68.8193 209.392L70.4244 216.584L73.5111 218.516L85.117 221.269L96.4348 221.886L118.906 220.242L131.006 217.2L147.056 211.693L156.275 204.09L155.493 198.337L156.604 196.569V191.884L156.275 189.501L158.95 189.994L163.766 187.569L165.864 189.213L169.116 188.925L173.478 185.638L175.001 181.98L177.676 181.61L179.117 181.035L179.981 174.336L181.956 171.5L181.298 166.322L183.644 162.5L180.269 156.294L180.104 153.992L175.33 152.76L166.893 155.636L150.431 156.54L149.443 160.732L145.245 162.5L140.183 161.267L134.216 156.623L132.775 157.897L133.146 161.143L130.429 161.472L124.009 154.773L122.98 143.965L118 149.472L116.272 150.581L113.597 150.253L108.946 147.211L102.197 140.06L101.127 140.923L99.4392 144.869L86.4751 145.896H82.7711Z" fill="#EEEEEE"/>
<path d="M73.5116 218.516L72.9766 234.256L76.3102 252.791L90.6324 289.861L94.9126 303.423L97.2996 315.547L96.1472 318.999L89.0273 324.588L88.6569 326.931L93.8837 329.767L101.045 330.383L110.222 328.246L120.306 327.712L120.841 322.492L118.124 301.204L118.001 283.326L119.894 267.709L121.746 264.298L125.121 264.421L128.166 267.422L130.183 273.997L131.788 288.833L133.764 313.492L134.463 323.931L137.632 326.931L150.596 328.534L162.202 328.862L164.054 326.931L162.079 323.355L153.066 314.191L155.535 301.697L159.815 276.956L163.025 256.942L164.054 242.27L162.243 226.776L156.276 204.871L144.052 212.68L118.083 220.611L91.2497 221.886L73.5116 218.516Z" fill="#3998B9"/>
<path d="M150.841 152.266L162.529 151.732L170.596 149.718L175.987 147.335L176.193 152.266L170.02 154.773L160.76 156.047L150.43 156.54L150.841 152.266Z" fill="#E8D5C4"/>
<path d="M60.5859 151.938L74.0027 151.239L83.057 147.417L83.8389 151.814L80.7111 153.253L67.6236 155.924L61.121 154.979L60.5859 151.938Z" fill="#E8D5C4"/>
<path d="M46.4287 100.483L49.1862 106.73L54.4541 117.909L64.4961 131.594L60.1336 135.868L59.0635 143.307L60.2982 150.54L61.1213 154.979L59.0635 156.951L58.7754 159.952L54.166 162.13H52.2728L49.9681 160.774L49.5566 162.171L44.9883 158.76L38.1976 148.568L35.2344 136.69L37.2099 124.567L42.3955 111.046L46.4287 100.483Z" fill="#7F5E5E"/>
<path d="M49.1875 96.1271L55.9371 86.3048L62.3162 87.7021L59.2295 75.9893L58.4064 65.1396L64.909 56.8379L73.4282 40.6455L78.655 34.3986L87.38 31.6862L91.4133 30.2067L99.1917 30.4944L106.435 33.0835L110.921 35.6727L115.325 40.2756L121.292 49.3992L132.199 77.3456L135.861 79.8936L136.191 86.4692L138.372 93.4969L139.73 96.1271L137.96 109.196L131.17 122.841L124.832 134.307L123.309 142.115L122.98 150.253L124.009 154.773L130.429 161.472L133.145 161.143L133.022 156.54L136.685 158.184L141.5 161.595L146.315 162.459L150.389 159.253L150.842 152.266L144.71 153.006L139.565 150.664L129.277 143.307L126.272 139.608V134.8L130.47 132.622L135.903 135.375L139.936 131.923L143.228 123.005L146.315 116.388L143.969 104.881L144.175 102.004L158.333 96.6203L157.962 73.6879L153.558 54.4542L148.743 39.9057L140.553 27.9052L127.754 19.0693L116.395 14.7129L100.097 12.6992L89.0674 14.5896L76.9265 19.8501L67.5018 23.5078L56.9248 35.9604L49.8872 51.3308L46.8828 77.3456L47.5825 92.1407L47.8294 96.1271H49.1875Z" fill="#7F5E5E"/>
<path d="M81.2086 64.1533L75.9407 67.3178L72.8128 70.1124L69.2734 73.8523L71.002 74.2222L78.3688 70.1946L84.7891 66.0848L86.0238 64.1533H81.2086Z" fill="#7F5E5E"/>
<path d="M112.937 60.9887L112.484 63.1258L113.225 65.0163L127.753 66.4958L126.272 62.1395L117.752 60.3312L112.937 60.9887Z" fill="#7F5E5E"/>
<path d="M83.8405 80.469L80.2188 82.0307L81.2065 86.4692L84.2109 89.9625L88.1618 90.579L91.4131 87.9898L90.3431 83.3047L87.956 79.647L83.8405 80.469Z" fill="#98D09D"/>
<path d="M121.085 75.2085L120.426 75.4139L116.805 76.6058V80.2635L120.097 84.4965H123.307L125.694 80.4689L124.501 75.1674L121.085 75.2085Z" fill="#98D09D"/>
<path d="M119.603 112.813L119.932 107.182L117.916 105.415L114.376 107.429L110.467 107.306L106.516 109.566L100.219 115.073L103.676 117.991L108.45 120.498L113.759 119.881L116.805 117.909L119.603 112.813Z" fill="#E69EC6"/>
<path d="M60.5853 151.938L59.0625 144.869L60.1326 137.225L64.4951 132.704L70.5861 131.348L75.6071 133.197L80.2165 139.321L83.0563 147.417L77.8295 149.636L74.002 151.239L60.5853 151.938Z" fill="#FFF2DD"/>
<path d="M150.922 151.28L153.185 143.759L158.33 137.553L164.791 134.307L169.812 138.293L175.986 147.335L166.314 151.732L158.33 152.266L150.922 151.28Z" fill="#FFF2DD"/>
<path d="M135.904 135.375L130.471 132.622L126.273 134.8V139.608L129.278 143.307L142.777 152.266H150.843L153.189 143.759L158.334 137.553L163.561 134.307L166.4 134.553L175.99 145.896L179.282 144.006L180.27 141.252L184.468 126.745L185.373 116.101L183.645 100.689L180.64 93.7024L172.327 93.2092L152.901 98.3875L144.176 102.004L144.505 108.045L145.658 115.895L143.188 126.704L137.303 135.088L135.904 135.375Z" fill="white"/>
<path d="M37.5 327.506L81.9482 327.876L88.6566 326.931L89.027 324.588L96.6819 317.602L95.4884 310.41L73.6759 312.629L77.7091 310.41L75.816 306.218L71.33 303.628L68.7784 303.423L43.7557 315.67L41.5333 317.437V319.944L45.4019 325.04L37.5 327.506Z" fill="#EEEEEE"/>
<path d="M203.151 323.355C208.947 323.355 213.646 318.939 213.646 313.492C213.646 308.045 208.947 303.629 203.151 303.629C197.355 303.629 192.656 308.045 192.656 313.492C192.656 318.939 197.355 323.355 203.151 323.355Z" fill="#EEEEEE"/>
<path d="M64.6641 106.237L67.9977 105.374L69.8085 104.716L73.1421 111.744L77.5046 118.443L84.213 123.416L89.0694 127.608L86.2297 130.238L81.0029 127.854L73.636 120.909L66.228 110.758L64.6641 106.237Z" fill="#7F5E5E"/>
<path d="M139.557 177.5C139.557 177.5 135.277 208.94 150.792 208.364L156.595 204.296L155.196 197.638L157.213 195.131L155.484 186.583L148.117 185.185L146.677 182.966L143.508 183.336L141.368 181.035L139.557 177.5Z" fill="#E2E2E2"/>
<path d="M68.6398 191.514L72.2203 192.377L74.6074 190.775H78.9287L81.8096 191.597L84.1555 190.775C84.1555 190.775 88.6415 217.118 80.9865 220.324L71.0268 217.283L69.3806 215.145L68.7221 208.159L67.7344 201.871L68.6398 191.514Z" fill="#E2E2E2"/>
<path d="M100.499 137.266C100.499 137.266 108.36 148.403 115.562 148.157C122.847 147.91 127.292 129.95 127.292 129.95L130.749 123.416L121.242 130.197L112.682 132.992L103.71 133.444L98.3594 132.211L100.499 137.266Z" fill="#EFE4D3"/>
<path d="M79.3393 119.676L74.8122 114.046L71.3139 109.032L70.4497 104.141L72.3017 99.2916L68.1449 92.9625L62.1774 87.7432L59.5022 79.8935L58.8438 66.5368L62.5478 60.3722L70.0381 48.5361L74.6064 38.7549L80.1624 33.289L91.3568 30.7409H100.617L107.613 33.8232L113.169 38.4672L119.548 46.81L123.582 55.5227L127.656 66.5368L131.484 74.7563L135.805 80.921L137.533 92.1406L139.55 96.1271L138.85 104.141L133.871 117.498C133.871 117.498 131.484 116.265 132.636 110.799C133.747 105.333 135.928 92.9214 133.871 91.4008C131.813 89.9213 124.487 71.222 124.487 71.222C124.487 71.222 113.581 43.44 107.572 40.8509C101.563 38.3028 99.341 34.9329 91.8095 36.5768C84.278 38.2617 80.2447 42.7003 78.7631 46.0292C77.2815 49.3581 72.5486 57.2077 67.4453 62.2216C62.342 67.1944 64.3998 77.14 65.4698 78.5784C66.4987 80.0168 71.8901 89.5925 72.137 90.7844C72.4251 92.0173 72.8367 99.5792 74.6064 105.456C76.3761 111.333 91.8506 123.457 91.8506 123.457L88.5582 126.991L85.1011 125.265L79.3393 119.676Z" fill="#EFE4D3"/>
<path d="M86.2188 30.9053L93.2975 26.6723L94.9438 25.7271H104.657L116.88 28.2751L127.868 37.2755L135.194 51.9473L136.305 65.1396V79.7703L134.165 78.1264C134.165 78.1264 133.301 58.0708 132.025 54.783C130.79 51.4952 123.547 37.522 120.213 35.9192C116.839 34.3164 113.67 27.8641 96.7546 27.2888C93.8737 27.0833 90.0051 29.1792 86.2188 30.9053Z" fill="#6B5151"/>
<path d="M140.175 96.1271L147.048 100.072L144.455 102.579L139.805 99.867L140.175 96.1271Z" fill="black"/>
<path d="M58.5634 64.2765L54.8594 70.6466L55.1886 81.2909L57.0818 85.2773L58.9749 86.3048C58.9749 86.3048 56.876 77.4277 56.9995 75.2495C57.2052 73.1125 58.5634 64.2765 58.5634 64.2765Z" fill="#6B5151"/>
<path d="M125.814 137.389C125.814 137.389 124.621 149.184 127.79 150.622C131.164 152.102 146.31 161.184 147.38 160.116C147.668 159.828 149.273 160.568 149.849 159.13C150.796 156.623 150.796 153.006 150.796 153.006H148.614L142.441 151.979L134.251 147.458L127.131 140.636L125.814 137.389Z" fill="#6B5151"/>
<path d="M46.8724 100.483L48.1071 105.867L64.4871 132.786L60.5361 135.581C59.3015 136.279 45.8024 117.251 46.0905 113.881C46.3374 110.676 46.3786 100.401 46.8724 100.483Z" fill="#6B5151"/>
<path d="M84.203 151.444L82.5156 144.828L100.213 145.65L104.863 149.636C104.863 149.636 102.641 152.677 96.1382 154.773C89.6767 156.828 84.203 151.444 84.203 151.444Z" fill="#E2E2E2"/>
<path d="M142.193 315.547C139.723 311.56 137.871 277.984 137.871 272.148C137.871 266.271 128.2 258.503 122.15 258.339C119.434 258.216 118.446 260.969 118.117 263.969C116.717 268.408 114.454 275.97 114.413 280.203C114.207 286.491 115.647 319.698 110.215 323.273C104.741 326.849 104.823 329.15 108.404 328.657C111.984 328.164 120.38 327.712 120.38 327.712L120.833 321.547L118.611 303.464L117.623 288.135L118.322 279.175L120.421 267.38L121.615 264.668L124.619 264.216L127.788 266.682L130.628 273.381L132.068 291.957L133.715 316.574L135.196 325.246C135.196 325.246 143.057 327.753 148.737 327.876C154.416 328.04 144.621 319.574 142.193 315.547Z" fill="#3689A0"/>
<path d="M73.7924 218.721L72.8047 225.255C72.8047 225.255 102.601 230.804 119.475 227.762C136.308 224.68 155.98 212.639 155.98 212.639L157.421 208.693L155.733 205.2L146.35 212.063L126.966 218.885L107.622 221.105L86.2215 221.475L73.7924 218.721Z" fill="#3689A0"/>
<path d="M120.133 60.9887L122.314 65.756L127.747 66.167L125.648 61.8929L120.133 60.9887Z" fill="#644C4C"/>
<path d="M122.56 144.992C122.56 144.992 121.695 163.198 128.404 164.513C135.112 165.87 150.587 170.678 149.722 161.226C149.722 161.226 144.002 163.774 140.668 161.02C137.335 158.308 134.618 156.828 134.618 156.828L132.725 157.938L132.931 161.226C132.931 161.226 129.268 161.349 127.745 159.13C126.223 156.951 123.753 154.486 123.753 154.486L122.56 144.992Z" fill="#E2E2E2"/>
<path d="M199.638 308.396C200.115 308.396 200.502 308.009 200.502 307.533C200.502 307.056 200.115 306.67 199.638 306.67C199.16 306.67 198.773 307.056 198.773 307.533C198.773 308.009 199.16 308.396 199.638 308.396Z" fill="#F69892"/>
<path d="M203.802 307.697C204.279 307.697 204.666 307.311 204.666 306.834C204.666 306.357 204.279 305.971 203.802 305.971C203.324 305.971 202.938 306.357 202.938 306.834C202.938 307.311 203.324 307.697 203.802 307.697Z" fill="#F69892"/>
<path d="M207.216 308.889C207.785 308.889 208.245 308.429 208.245 307.861C208.245 307.294 207.785 306.834 207.216 306.834C206.648 306.834 206.188 307.294 206.188 307.861C206.188 308.429 206.648 308.889 207.216 308.889Z" fill="#F69892"/>
<path d="M195.98 312.834C196.525 312.834 196.968 312.393 196.968 311.848C196.968 311.303 196.525 310.862 195.98 310.862C195.434 310.862 194.992 311.303 194.992 311.848C194.992 312.393 195.434 312.834 195.98 312.834Z" fill="#F69892"/>
<path d="M195.98 316.697C196.525 316.697 196.968 316.256 196.968 315.711C196.968 315.166 196.525 314.725 195.98 314.725C195.434 314.725 194.992 315.166 194.992 315.711C194.992 316.256 195.434 316.697 195.98 316.697Z" fill="#F69892"/>
<path d="M198.325 319.246C198.803 319.246 199.189 318.859 199.189 318.382C199.189 317.906 198.803 317.519 198.325 317.519C197.848 317.519 197.461 317.906 197.461 318.382C197.461 318.859 197.848 319.246 198.325 319.246Z" fill="#F69892"/>
<path d="M202.808 320.355C203.354 320.355 203.796 319.914 203.796 319.369C203.796 318.824 203.354 318.382 202.808 318.382C202.263 318.382 201.82 318.824 201.82 319.369C201.82 319.914 202.263 320.355 202.808 320.355Z" fill="#F69892"/>
<path d="M192.113 300.053L183.141 309.793" stroke="#F69892" stroke-width="1.49433" stroke-miterlimit="10" stroke-linecap="round"/>
<path d="M197.831 299.067L181.492 314.725" stroke="#F69892" stroke-width="1.49433" stroke-miterlimit="10" stroke-linecap="round"/>
<path d="M206.846 298.204L200.508 303.916" stroke="#F69892" stroke-width="1.49433" stroke-miterlimit="10" stroke-linecap="round"/>
<path d="M192.441 312.053L180.383 323.766" stroke="#F69892" stroke-width="1.49433" stroke-miterlimit="10" stroke-linecap="round"/>
<path d="M202.813 298.861L180.383 317.889" stroke="#F69892" stroke-width="1.49433" stroke-miterlimit="10" stroke-linecap="round"/>
<path d="M210.382 298.491L205.484 303.217" stroke="#F69892" stroke-width="1.49433" stroke-miterlimit="10" stroke-linecap="round"/>
<path d="M214.003 299.067L208.57 303.916" stroke="#F69892" stroke-width="1.49433" stroke-miterlimit="10" stroke-linecap="round"/>
<path d="M216.35 300.299L210.383 305.642" stroke="#F69892" stroke-width="1.49433" stroke-miterlimit="10" stroke-linecap="round"/>
<path d="M192.684 316.697L181.078 326.191" stroke="#F69892" stroke-width="1.49433" stroke-miterlimit="10" stroke-linecap="round"/>
<path d="M193.635 318.876L182.523 328.616" stroke="#F69892" stroke-width="1.49433" stroke-miterlimit="10" stroke-linecap="round"/>
<path d="M194.99 320.396L185.977 329.52" stroke="#F69892" stroke-width="1.49433" stroke-miterlimit="10" stroke-linecap="round"/>
<path d="M220.222 302.519L213.391 309.546" stroke="#F69892" stroke-width="1.49433" stroke-miterlimit="10" stroke-linecap="round"/>
<path d="M197.826 322.369L190.953 329.52" stroke="#F69892" stroke-width="1.49433" stroke-miterlimit="10" stroke-linecap="round"/>
<path d="M222.358 306.053L211.328 325.205" stroke="#F69892" stroke-width="1.49433" stroke-miterlimit="10" stroke-linecap="round"/>
<path d="M224.619 311.396L209.68 328.616" stroke="#F69892" stroke-width="1.49433" stroke-miterlimit="10" stroke-linecap="round"/>
<path d="M209.681 321.752L204.125 329.191" stroke="#F69892" stroke-width="1.49433" stroke-miterlimit="10" stroke-linecap="round"/>
<path d="M204.127 323.561L199.641 329.191" stroke="#F69892" stroke-width="1.49433" stroke-miterlimit="10" stroke-linecap="round"/>
<path d="M199.972 323.355L194.992 329.52" stroke="#F69892" stroke-width="1.49433" stroke-miterlimit="10" stroke-linecap="round"/>
<path d="M226.272 317.15L217.383 328.369" stroke="#F69892" stroke-width="1.49433" stroke-miterlimit="10" stroke-linecap="round"/>
<path d="M227.548 321.752L222.156 327.876" stroke="#F69892" stroke-width="1.49433" stroke-miterlimit="10" stroke-linecap="round"/>
<path d="M222.359 305.149C222.359 305.149 226.228 305.971 226.557 305.149C226.845 304.327 225.94 301.45 227.792 301.574C229.644 301.738 230.961 304.122 230.138 306.094C229.315 308.067 227.051 308.19 225.652 308.437C224.253 308.683 224.17 308.437 224.17 308.437" fill="#F69892"/>
<path d="M182.23 309.094C182.23 309.094 178.402 310.697 176.18 308.231C173.998 305.724 177.867 302.272 178.896 302.354C179.925 302.437 181.365 303.218 181.777 306.177C181.777 306.177 183.135 307.286 183.423 306.505" fill="#F69892"/>
<path d="M61.9325 168.089C62.3871 168.089 62.7556 167.721 62.7556 167.267C62.7556 166.813 62.3871 166.445 61.9325 166.445C61.4779 166.445 61.1094 166.813 61.1094 167.267C61.1094 167.721 61.4779 168.089 61.9325 168.089Z" fill="black"/>
<path d="M69.7923 164.308C69.9968 164.308 70.1627 164.142 70.1627 163.938C70.1627 163.734 69.9968 163.568 69.7923 163.568C69.5877 163.568 69.4219 163.734 69.4219 163.938C69.4219 164.142 69.5877 164.308 69.7923 164.308Z" fill="black"/>
<path d="M79.794 165.212C80.2713 165.212 80.6582 164.826 80.6582 164.349C80.6582 163.872 80.2713 163.486 79.794 163.486C79.3166 163.486 78.9297 163.872 78.9297 164.349C78.9297 164.826 79.3166 165.212 79.794 165.212Z" fill="black"/>
<path d="M85.6436 168.089C86.4391 168.089 87.084 167.445 87.084 166.65C87.084 165.856 86.4391 165.212 85.6436 165.212C84.848 165.212 84.2031 165.856 84.2031 166.65C84.2031 167.445 84.848 168.089 85.6436 168.089Z" fill="black"/>
<path d="M81.8498 182.226C82.5089 182.226 83.0433 181.325 83.0433 180.213C83.0433 179.1 82.5089 178.199 81.8498 178.199C81.1906 178.199 80.6562 179.1 80.6562 180.213C80.6562 181.325 81.1906 182.226 81.8498 182.226Z" fill="black"/>
<path d="M78.2721 175.98C78.6812 175.98 79.0129 175.648 79.0129 175.24C79.0129 174.831 78.6812 174.5 78.2721 174.5C77.8629 174.5 77.5312 174.831 77.5312 175.24C77.5312 175.648 77.8629 175.98 78.2721 175.98Z" fill="black"/>
<path d="M68.6392 177.5C69.0484 177.5 69.38 177.169 69.38 176.76C69.38 176.352 69.0484 176.021 68.6392 176.021C68.2301 176.021 67.8984 176.352 67.8984 176.76C67.8984 177.169 68.2301 177.5 68.6392 177.5Z" fill="black"/>
<path d="M152.85 166.239C153.259 166.239 153.591 165.908 153.591 165.5C153.591 165.091 153.259 164.76 152.85 164.76C152.441 164.76 152.109 165.091 152.109 165.5C152.109 165.908 152.441 166.239 152.85 166.239Z" fill="black"/>
<path d="M168.939 162.746C169.212 162.746 169.433 162.525 169.433 162.253C169.433 161.981 169.212 161.76 168.939 161.76C168.666 161.76 168.445 161.981 168.445 162.253C168.445 162.525 168.666 162.746 168.939 162.746Z" fill="black"/>
<path d="M177.091 161.102C177.568 161.102 177.955 160.716 177.955 160.239C177.955 159.763 177.568 159.376 177.091 159.376C176.613 159.376 176.227 159.763 176.227 160.239C176.227 160.716 176.613 161.102 177.091 161.102Z" fill="black"/>
<path d="M168.897 173.021C169.306 173.021 169.638 172.689 169.638 172.281C169.638 171.872 169.306 171.541 168.897 171.541C168.488 171.541 168.156 171.872 168.156 172.281C168.156 172.689 168.488 173.021 168.897 173.021Z" fill="black"/>
<path d="M160.669 177.295C161.146 177.295 161.533 176.908 161.533 176.432C161.533 175.955 161.146 175.569 160.669 175.569C160.192 175.569 159.805 175.955 159.805 176.432C159.805 176.908 160.192 177.295 160.669 177.295Z" fill="black"/>
<path d="M59.6339 87.9897L50.7031 105.374" stroke="#F69892" stroke-width="1.49433" stroke-miterlimit="10" stroke-linecap="round"/>
<path d="M62.6316 89.7158L52.6719 111.744" stroke="#F69892" stroke-width="1.49433" stroke-miterlimit="10" stroke-linecap="round"/>
<path d="M65.1483 92.1406L54.8594 116.1" stroke="#F69892" stroke-width="1.49433" stroke-miterlimit="10" stroke-linecap="round"/>
<path d="M67.4925 94.812L63.9531 104.716" stroke="#F69892" stroke-width="1.49433" stroke-miterlimit="10" stroke-linecap="round"/>
<path d="M62.6362 107.1L57.0391 120.498" stroke="#F69892" stroke-width="1.49433" stroke-miterlimit="10" stroke-linecap="round"/>
<path d="M70.1245 97.1956L67.9844 104.141" stroke="#F69892" stroke-width="1.49433" stroke-miterlimit="10" stroke-linecap="round"/>
<path d="M65.146 110.758L60.125 126.046" stroke="#F69892" stroke-width="1.49433" stroke-miterlimit="10" stroke-linecap="round"/>
<path d="M67.49 114.826L63.5391 129.128" stroke="#F69892" stroke-width="1.49433" stroke-miterlimit="10" stroke-linecap="round"/>
<path d="M71.4829 119.347L69.0547 130.238" stroke="#F69892" stroke-width="1.49433" stroke-miterlimit="10" stroke-linecap="round"/>
<path d="M75.5978 125.06L73.8281 130.238" stroke="#F69892" stroke-width="1.49433" stroke-miterlimit="10" stroke-linecap="round"/>
<path d="M79.5043 128.101L78.8047 135.499" stroke="#F69892" stroke-width="1.49433" stroke-miterlimit="10" stroke-linecap="round"/>
<path d="M84.1992 130.937L83.0469 143.389" stroke="#F69892" stroke-width="1.49433" stroke-miterlimit="10" stroke-linecap="round"/>
<path d="M88.7259 129.745L87.2031 144.581" stroke="#F69892" stroke-width="1.49433" stroke-miterlimit="10" stroke-linecap="round"/>
<path d="M93.049 126.046L90.7031 143.718" stroke="#F69892" stroke-width="1.49433" stroke-miterlimit="10" stroke-linecap="round"/>
<path d="M96.5077 130.238L94.8203 144.581" stroke="#F69892" stroke-width="1.49433" stroke-miterlimit="10" stroke-linecap="round"/>
<path d="M76.2178 309.012L54.5287 318.917C54.5287 318.917 51.4009 313.286 45.5156 315.588" stroke="#B1E3FA" stroke-width="0.996218" stroke-miterlimit="10" stroke-linecap="round"/>
<path d="M44.4844 321.752L48.3942 318.876" stroke="#B1E3FA" stroke-width="0.996218" stroke-miterlimit="10" stroke-linecap="round"/>
<path d="M46.5 323.109L50.8625 320.355" stroke="#B1E3FA" stroke-width="0.996218" stroke-miterlimit="10" stroke-linecap="round"/>
<path d="M49.2578 324.588L52.7149 321.752" stroke="#B1E3FA" stroke-width="0.996218" stroke-miterlimit="10" stroke-linecap="round"/>
<path d="M51.7734 325.657L73.6683 313.985" stroke="#B1E3FA" stroke-width="0.996218" stroke-miterlimit="10" stroke-linecap="round"/>
<path d="M55.6406 325.657L76.2185 314.848" stroke="#B1E3FA" stroke-width="0.996218" stroke-miterlimit="10" stroke-linecap="round"/>
<path d="M60.2109 326.396L82.3116 314.273" stroke="#B1E3FA" stroke-width="0.996218" stroke-miterlimit="10" stroke-linecap="round"/>
<path d="M68.2344 325.657L89.5119 313.245" stroke="#B1E3FA" stroke-width="0.996218" stroke-miterlimit="10" stroke-linecap="round"/>
<path d="M73.6641 324.917L85.4758 318.218" stroke="#B1E3FA" stroke-width="0.996218" stroke-miterlimit="10" stroke-linecap="round"/>
<path d="M70.2422 105.497C70.2422 105.497 73.9051 114.21 78.2264 118.525C86.0871 126.416 89.0915 127.156 89.0915 127.156" stroke="black" stroke-width="1.49433" stroke-miterlimit="10" stroke-linecap="round"/>
<path d="M99.4297 132.087C99.4297 132.087 114.452 136.896 127.045 125.8C139.721 114.744 139.762 97.8943 139.762 97.8943" stroke="black" stroke-width="1.49433" stroke-miterlimit="10" stroke-linecap="round"/>
<path d="M100.496 136.69C99.5497 138.17 112.061 152.349 116.259 150.581C119.099 149.389 122.309 144.458 122.309 144.458" stroke="black" stroke-width="1.49433" stroke-miterlimit="10" stroke-linecap="round"/>
<path d="M61.9355 86.4692C61.9355 84.8664 57.4084 73.1125 58.643 68.0575C59.8777 63.0436 59.5073 63.3724 59.5073 63.3724" stroke="black" stroke-width="1.99244" stroke-miterlimit="10" stroke-linecap="round"/>
<path d="M52.9602 162.746L50.4908 160.568C50.2851 160.363 49.997 160.527 49.997 160.815V161.924C49.997 162.171 49.75 162.294 49.5443 162.212C48.3919 161.554 45.2641 159.664 43.0005 156.376C40.1608 152.225 35.9629 146.718 35.7983 137.8C35.6336 134.677 36.2098 124.936 39.9138 116.594C43.7002 108.21 47.898 99.7026 47.5688 92.716C47.2395 85.7294 46.5811 66.0026 48.5154 57.6187C50.4908 48.9882 50.6143 46.3991 55.0591 39.1248C59.8744 31.3163 64.9777 25.2339 70.081 22.3982C75.1431 19.5624 78.1063 19.9323 78.1063 19.9323C78.1063 19.9323 85.7201 14.8362 92.8401 13.8499C99.96 12.8635 112.801 13.2334 120.332 15.8636C127.864 18.4939 137.947 24.6174 141.404 28.8916C144.861 33.1657 149.553 40.029 151.075 45.5361C152.598 51.002 156.631 65.5506 157.784 72.7426C158.936 79.9347 157.784 96.0038 157.784 96.0038" stroke="black" stroke-width="1.99244" stroke-miterlimit="10" stroke-linecap="round"/>
<path d="M78.6424 25.7271C78.1485 26.7545 78.7659 32.7547 80.1652 33.289C80.1652 33.289 74.6091 36.659 72.469 42.6592C70.329 48.6184 64.8141 58.564 58.5584 64.3176C52.2616 70.0302 55.554 84.4143 57.118 85.3185" stroke="black" stroke-width="1.99244" stroke-miterlimit="10" stroke-linecap="round"/>
<path d="M80.2031 33.289C80.2031 33.289 81.5201 34.6041 83.0429 33.289C84.5656 31.9739 94.5665 23.9188 106.049 25.1517C117.573 26.3846 125.392 34.4808 128.973 39.1659C132.183 43.4401 135.475 51.5363 135.969 55.8104C136.34 59.1393 136.257 80.6744 135.969 80.921C135.969 80.921 135.228 92.9215 141.525 97.0724C141.525 97.0724 145.476 99.2505 146.34 99.3738" stroke="black" stroke-width="1.99244" stroke-miterlimit="10" stroke-linecap="round"/>
<path d="M81.1953 33.8643C81.1953 33.8643 92.8012 28.9737 99.1804 30.5354C105.518 32.1382 110.745 34.2342 117.207 43.4401C123.668 52.6459 128.73 68.5506 129.8 70.8932C129.8 70.8932 132.969 78.4552 133.998 78.7428" stroke="black" stroke-width="1.99244" stroke-miterlimit="10" stroke-linecap="round"/>
<path d="M69.0895 192.378C67.9371 196.734 67.6079 201.008 68.3487 204.912" stroke="black" stroke-width="1.99244" stroke-miterlimit="10" stroke-linecap="round"/>
<path d="M158.078 286.655C158.078 286.655 162.523 262.038 163.058 255.75C163.058 255.75 164.005 245.434 164.005 242.27C164.005 239.105 162.029 226.077 162.029 226.077" stroke="black" stroke-width="1.99244" stroke-miterlimit="10" stroke-linecap="round"/>
<path d="M179.435 316.903C179.435 316.903 175.855 315.506 174.209 315.711C172.562 315.876 168.653 315.711 167.541 317.848C166.43 319.985 167.665 320.232 168.159 320.15C168.653 320.026 171.986 317.191 167.541 314.766C163.055 312.259 157.664 318.218 157.664 318.218" stroke="#F69892" stroke-width="2.98865" stroke-miterlimit="10" stroke-linecap="round"/>
<path d="M83.5374 144.869C83.5374 144.869 99.0531 147.951 100.411 143.718C101.769 139.526 96.9541 128.594 95.1021 126.252C93.5794 124.361 91.11 123.251 89.9577 127.402C88.8053 131.471 85.4717 131.759 78.7221 126.046C71.9726 120.334 66.7047 111.867 65.8404 110.224C65.0173 108.785 62.5479 105.21 67.2397 105.415C71.9315 105.621 74.5654 98.9217 70.2029 94.8531C65.8404 90.7844 59.3378 82.2773 53.9876 88.7296C48.6373 95.1408 46.703 103.073 50.6951 110.922C54.6872 118.772 57.7739 124.895 64.6057 131.841" stroke="#F69892" stroke-width="2.98865" stroke-miterlimit="10" stroke-linecap="round"/>
<path d="M204.825 329.397C219.476 327.876 230.835 330.876 227.749 320.931C224.662 311.026 223.674 296.765 205.854 297.998C188.033 299.272 186.264 302.313 184.123 306.053C181.983 309.793 179.555 318.095 180.049 323.15C180.543 328.205 180.79 329.479 190.461 329.684C200.133 330.013 204.825 329.397 204.825 329.397Z" stroke="#F69892" stroke-width="2.98865" stroke-miterlimit="10" stroke-linecap="round"/>
<path d="M72.4689 232.941C72.4689 232.941 68.6414 235.9 65.8428 232.941C63.0442 229.982 61.398 226.941 63.0031 224.187C64.6081 221.475 69.2999 223.981 67.0775 225.872C64.8551 227.762 62.715 229.571 60.1633 228.584C57.6117 227.598 54.6896 223.283 55.1012 220.94C55.4716 218.557 58.1055 211.282 61.6449 217.118C65.1843 222.995 51.4383 219.954 53.99 216.42C56.5416 212.885 71.6046 204.748 73.045 202.405C74.4855 200.063 76.2552 193.241 71.8927 195.09C67.5302 196.939 72.5512 200.392 76.2552 200.227C79.9592 200.063 86.6264 195.665 86.5853 190.528C86.5441 185.391 84.1983 185.679 83.4574 186.213C82.7578 186.747 82.0993 190.734 88.6019 190.651C95.1045 190.61 98.1089 183.542 97.6562 181.692C97.2035 179.843 96.9154 176.349 93.9522 176.555C90.9478 176.76 94.1579 183.254 99.0966 182.103C103.994 180.952 105.311 173.103 104.447 171.705C103.583 170.308 101.731 167.061 99.5905 168.993C97.4504 170.883 104.406 173.843 105.517 171.007C106.628 168.171 106.916 163.157 104.159 162.13C101.442 161.102 97.6562 162.582 99.5082 164.431C101.36 166.281 105.311 164.472 105.805 160.774C106.299 157.075 104.365 155.143 103.665 155.102C102.965 154.979 99.714 154.28 99.5905 157.445C99.4259 160.568 107.822 162.993 108.48 156.294C109.18 149.595 99.5905 144.787 99.5905 144.787" stroke="#F69892" stroke-width="2.98865" stroke-miterlimit="10" stroke-linecap="round"/>
<path d="M158.695 215.022L159.601 218.762" stroke="black" stroke-width="1.49433" stroke-miterlimit="10" stroke-linecap="round"/>
<path d="M69.8311 74.6742C69.3372 74.8797 68.8845 74.3043 69.2138 73.8523C71.8889 70.7288 78.4738 63.7012 83.7006 63.7012C90.3678 63.7012 80.1612 69.0438 80.1612 69.0438C76.2102 71.633 72.7943 73.4824 69.8311 74.6742Z" stroke="black" stroke-width="1.49433" stroke-miterlimit="10" stroke-linecap="round"/>
<path d="M126.752 62.6737C126.752 62.6737 119.385 60.3311 115.599 60.6599C111.812 60.9476 112.512 62.6737 112.512 62.6737C112.512 62.6737 112.141 65.0574 114.529 65.0574C116.998 65.0574 127.739 66.4547 127.739 66.4547" stroke="black" stroke-width="1.49433" stroke-miterlimit="10" stroke-linecap="round"/>
<path d="M89.2227 81.1676C87.4942 81.332 85.7245 81.4553 84.0371 81.6197C83.6667 81.6608 83.1728 81.743 82.8024 81.7841L82.5555 81.8252H82.5143C82.3909 81.8663 82.2674 81.9896 82.1439 82.0718C81.5266 82.5239 80.9093 83.0581 80.2919 83.6746C79.6746 84.2911 79.0984 84.8664 78.5634 85.524C78.0284 86.1815 77.5345 86.8391 77.1229 87.4967C76.9995 87.6611 76.9583 87.7843 76.876 87.9487C76.8349 88.1131 76.8349 88.1542 76.7525 88.3186C76.7114 88.6474 76.7525 89.0584 76.7525 89.4693C76.7937 90.2913 76.9583 91.1543 77.0818 91.9763C77.2053 92.3462 76.876 92.7982 76.4645 92.8393C76.0529 92.8804 75.7236 92.675 75.6002 92.3051C75.3532 91.442 75.1475 90.579 74.9828 89.6748C74.9417 89.2228 74.8594 88.7296 74.8594 88.2364C74.8594 87.9898 74.9005 87.62 75.024 87.3734C75.1475 87.1268 75.2298 86.8802 75.3121 86.6336C75.7648 85.7706 76.2587 84.9897 76.7937 84.25C77.3287 83.5102 77.9461 82.8115 78.5222 82.154C79.1396 81.4553 79.7569 80.7978 80.4977 80.1813C80.7035 80.0169 80.8681 79.8936 81.1974 79.6881C81.2385 79.647 81.362 79.5648 81.4443 79.5237C81.5678 79.4826 81.6912 79.4005 81.7735 79.3594L82.1439 79.2361C82.6378 79.1128 83.0082 79.0306 83.5021 78.9484C85.2306 78.6196 87.0003 78.3319 88.7289 78.0853C89.5931 77.9209 90.3339 78.5374 90.4574 79.4005C90.5809 80.2635 90.0047 81.0033 89.1404 81.1265C89.305 81.1265 89.305 81.1265 89.2227 81.1676Z" fill="black"/>
<path d="M80.9875 82.606C80.7405 83.0992 80.329 86.798 82.4279 88.7295C84.4034 90.62 87.6547 92.1817 90.7414 88.935C93.6223 85.8938 88.4366 81.2909 88.4366 81.2909" stroke="black" stroke-width="1.49433" stroke-miterlimit="10" stroke-linecap="round"/>
<path d="M114.898 77.0579C114.898 76.3592 115.269 76.2359 115.598 76.0304C115.886 75.825 116.257 75.5784 116.586 75.414C117.285 75.0441 117.985 74.7153 118.767 74.4687C118.973 74.4276 119.137 74.3454 119.384 74.3043C119.631 74.2632 119.755 74.1811 120.002 74.1811C120.208 74.14 120.372 74.14 120.66 74.14C120.866 74.14 121.113 74.14 121.278 74.14C121.977 74.14 122.718 74.14 123.459 74.1811C124.2 74.2222 124.982 74.3454 125.764 74.5098C126.504 74.7153 127.245 75.003 127.945 75.3729C129.303 76.0715 130.496 76.9757 131.649 77.9209C131.937 78.2086 131.978 78.6607 131.69 78.9484C131.443 79.2361 130.99 79.2771 130.702 79.0717C129.55 78.2497 128.356 77.5511 127.163 77.0579C125.928 76.5647 124.652 76.2359 123.377 76.2359C122.718 76.2359 122.018 76.2359 121.278 76.277C121.072 76.277 120.948 76.277 120.784 76.3181C120.619 76.3181 120.496 76.3592 120.331 76.3592C120.166 76.3592 120.043 76.4003 119.878 76.4825C119.714 76.5236 119.59 76.5236 119.426 76.6058C118.808 76.8113 118.232 77.0579 117.697 77.3456C117.409 77.51 117.162 77.6743 116.874 77.8387C116.586 78.0031 116.421 78.3319 115.886 78.1264L115.598 78.0031C115.228 77.8387 114.898 77.4689 114.898 77.0579Z" fill="black"/>
<path d="M117.046 77.3455C117.046 77.3455 116.511 79.3182 117.91 81.9073C119.145 84.291 120.709 84.9075 121.614 84.7842C122.725 84.6198 124.454 83.4691 125.112 82.1128C125.771 80.7155 126.306 78.2908 125.071 77.4277" stroke="black" stroke-width="1.49433" stroke-miterlimit="10" stroke-linecap="round"/>
<path d="M61.4397 155.143C61.4397 155.143 59.4642 155.883 59.0526 156.951C58.5999 157.979 58.353 159.335 58.353 160.075C58.353 160.075 55.0605 160.732 54.402 161.595C53.7847 162.458 53.4555 164.226 53.7436 165.87C53.7436 165.87 50.7392 168.089 50.698 169.856C50.5746 171.582 50.5746 173.062 52.9204 174.048C52.9204 174.048 53.9082 176.021 53.6612 178.199C53.4143 180.336 56.2129 183.583 56.2129 183.583C56.2129 183.583 59.5054 183.048 59.7111 184.692C59.9169 186.336 60.5754 189.583 62.0982 189.747C63.6209 189.871 64.9791 188.144 65.761 188.391C66.5018 188.638 68.3127 192.542 70.7409 192.46C73.2102 192.419 73.7041 190.487 76.0911 190.61C78.4781 190.775 78.6016 191.966 80.9886 191.843C83.4168 191.72 83.7049 190.816 83.7049 190.816" stroke="black" stroke-width="1.99244" stroke-miterlimit="10" stroke-linecap="round"/>
<path d="M123.663 209.556C123.663 209.556 104.238 212.269 93.6196 211.94C83.0837 211.611 72.589 208.406 69.42 209.556C69.42 209.556 69.2554 215.474 70.6547 216.954C72.054 218.433 85.1827 221.762 93.9488 221.803C105.267 221.844 116.667 220.653 123.704 219.296C128.849 218.31 141.813 214.406 146.422 211.652C151.073 208.94 155.641 205.652 156.259 203.474C156.876 201.337 154.036 196.816 154.036 196.816C154.036 196.816 147.122 200.679 146.134 200.844" stroke="black" stroke-width="1.99244" stroke-miterlimit="10" stroke-linecap="round"/>
<path d="M154.532 197.885C154.532 197.885 157.207 197.022 157.207 195.172C157.207 193.323 156.178 189.295 153.133 186.87" stroke="black" stroke-width="1.99244" stroke-miterlimit="10" stroke-linecap="round"/>
<path d="M139.555 177.5C139.555 177.5 141.695 182.637 142.888 182.637C144.082 182.637 146.387 182.185 146.963 183.295C147.58 184.446 148.197 186.172 150.132 185.802C152.107 185.432 154.412 185.637 155.523 186.624C156.634 187.569 157.334 190.692 159.227 189.994C161.203 189.295 163.013 187.446 164.042 187.651C165.154 187.857 164.989 189.624 166.594 189.501C168.24 189.377 170.668 188.638 171.492 187.857C172.356 187.158 174.661 184.322 174.949 182.678C175.196 181.035 178.735 182.966 178.982 181.076C179.229 179.185 179.105 174.048 180.875 172.733C182.686 171.377 180.34 167.842 181.163 166.322C182.027 164.842 183.509 163.856 183.468 162.376C183.427 160.897 179.887 156.582 179.887 155.76C179.887 154.897 180.217 153.787 179.517 153.581C178.776 153.376 176.883 153.869 176.142 153.088" stroke="black" stroke-width="1.99244" stroke-miterlimit="10" stroke-linecap="round"/>
<path d="M175.98 147.335C175.98 147.335 168.942 134.266 165.074 134.266C161.864 134.266 156.843 137.964 153.879 142.485C150.916 147.047 150.875 152.184 150.875 152.184C150.875 152.184 157.789 152.924 165.197 151.691C170.918 150.787 175.98 147.335 175.98 147.335Z" stroke="black" stroke-width="1.99244" stroke-miterlimit="10" stroke-linecap="round"/>
<path d="M150.375 156.047C150.375 156.047 163.051 156.212 167.99 155.102C173.011 153.992 176.015 152.759 176.385 151.896C176.756 151.033 176.591 147.417 175.892 147.376C175.192 147.335 171.159 150.951 165.068 151.732C159.429 152.554 151.98 152.431 150.745 152.225L150.375 156.047Z" stroke="black" stroke-width="1.99244" stroke-miterlimit="10" stroke-linecap="round"/>
<path d="M176.18 146.759C176.18 146.759 179.266 144.663 179.719 143.307" stroke="black" stroke-width="1.49433" stroke-miterlimit="10" stroke-linecap="round"/>
<path d="M177.336 142.896C177.336 142.896 180.794 141.293 181.987 137.841C183.181 134.348 185.65 122.512 185.362 117.786C185.115 113.059 184.415 98.0587 180.629 94.1133C176.801 90.168 156.1 97.2778 156.1 97.2778C156.1 97.2778 144.741 100.936 144.124 103.114C143.589 105.292 144.576 107.47 144.576 107.47C144.576 107.47 146.017 110.799 145.317 115.525C144.618 120.251 144.947 121.361 142.519 127.197C140.049 133.074 134.946 137.718 134.946 137.718C134.946 137.718 131.448 140.8 130.213 141.663C128.978 142.526 126.386 141.417 126.344 139.649C126.303 137.841 126.345 134.759 128.032 133.731C129.719 132.704 130.584 132.293 131.407 132.909C132.23 133.567 135.728 135.91 135.728 135.91" stroke="black" stroke-width="1.99244" stroke-miterlimit="10" stroke-linecap="round"/>
<path d="M127.95 141.745C127.95 141.745 139.761 152.801 145.688 152.965C151.614 153.17 150.215 152.965 150.215 152.965C150.215 152.965 151.408 159.993 148.404 161.76C145.4 163.527 140.173 161.637 139.597 160.773C138.979 159.91 135.358 156.787 134.247 156.91C133.135 157.034 132.271 157.403 133.135 159.91C134 162.417 130.913 162.089 129.678 161.02C128.485 159.91 124.287 157.075 123.34 153.006C122.394 148.937 123.217 136.814 125.439 132.909C127.62 129.046 136.675 113.552 137.951 109.196C139.185 104.84 140.132 97.2367 139.761 96.1271" stroke="black" stroke-width="1.99244" stroke-miterlimit="10" stroke-linecap="round"/>
<path d="M119.595 112.813C119.595 112.813 118.772 117.991 113.216 120.087C107.66 122.183 100.376 115.566 100.376 115.566C100.376 115.566 109.059 110.429 110.623 110.429C112.187 110.429 118.196 109.032 119.184 107.922C120.171 106.812 119.143 105.127 117.867 105.374C116.632 105.58 114.574 107.347 113.998 107.593C113.381 107.84 111.117 106.936 110.459 107.265C109.8 107.552 101.569 112.073 100.211 115.114" stroke="black" stroke-width="1.49433" stroke-miterlimit="10" stroke-linecap="round"/>
<path d="M115.931 154.732C117.044 154.732 117.947 153.959 117.947 153.006C117.947 152.053 117.044 151.28 115.931 151.28C114.817 151.28 113.914 152.053 113.914 153.006C113.914 153.959 114.817 154.732 115.931 154.732Z" stroke="black" stroke-width="1.49433" stroke-miterlimit="10" stroke-linecap="round"/>
<path d="M130.172 273.997C130.172 273.997 131.53 279.381 131.983 292.738C131.983 292.738 132.435 302.354 132.847 303.587" stroke="black" stroke-width="1.99244" stroke-miterlimit="10" stroke-linecap="round"/>
<path d="M133.668 307.081C133.668 307.081 133.545 322.574 134.656 324.588C135.685 326.602 144.039 328.082 149.554 328.41C155.069 328.78 162.889 329.273 163.259 328.41C163.63 327.547 164.7 325.78 162.066 323.273C159.432 320.766 155.234 317.15 155.234 317.15C155.234 317.15 152.888 315.177 153.217 311.93C153.505 308.725 157.456 294.34 157.456 294.34" stroke="black" stroke-width="1.99244" stroke-miterlimit="10" stroke-linecap="round"/>
<path d="M157.251 210.049C157.251 210.049 155.276 204.214 156.305 202.857" stroke="black" stroke-width="1.99244" stroke-miterlimit="10" stroke-linecap="round"/>
<path d="M73.8675 218.516C72.0155 218.721 72.7152 246.051 77.695 256.613C82.5102 266.805 95.4331 301.327 95.4331 306.752C95.4331 312.136 99.5899 316.739 95.4331 319.492C91.2764 322.205 85.5558 325.903 89.8771 327.876C94.1985 329.849 99.5899 330.342 101.03 330.342C102.471 330.342 109.056 327.794 114.612 328.04C120.168 328.328 120.991 328.164 121.114 325.492C121.238 322.821 117.534 300.217 117.781 296.067C117.986 291.916 117.246 264.052 122.678 263.969C128.152 263.846 129.181 270.381 129.181 270.381" stroke="black" stroke-width="1.99244" stroke-miterlimit="10" stroke-linecap="round"/>
<path d="M203.143 323.355C208.939 323.355 213.638 318.939 213.638 313.492C213.638 308.044 208.939 303.628 203.143 303.628C197.347 303.628 192.648 308.044 192.648 313.492C192.648 318.939 197.347 323.355 203.143 323.355Z" stroke="#F69892" stroke-width="1.49433" stroke-miterlimit="10"/>
<path d="M202.896 314.191C204.055 314.191 204.995 313.455 204.995 312.547C204.995 311.639 204.055 310.903 202.896 310.903C201.737 310.903 200.797 311.639 200.797 312.547C200.797 313.455 201.737 314.191 202.896 314.191Z" fill="#F69892"/>
<path d="M45.7218 325.657C45.7218 325.657 39.178 326.52 36.9556 327.671C34.7743 328.862 88.2356 327.671 88.2356 327.671" stroke="black" stroke-width="1.49433" stroke-miterlimit="10" stroke-linecap="round"/>
<path d="M94.8989 310.821C94.8989 310.821 78.5189 312.834 74.6503 312.423C74.6503 312.423 78.2308 310.985 77.7781 309.916C77.3254 308.848 76.8316 304.081 68.765 303.423C68.765 303.423 48.8457 312.793 46.7467 314.067C44.6066 315.3 40.9026 316.369 41.6023 319.451C42.2607 322.533 47.1583 327.753 59.4638 327.753C71.7694 327.753 82.4699 324.547 82.4699 324.547" stroke="black" stroke-width="1.49433" stroke-miterlimit="10" stroke-linecap="round"/>
<path d="M42.2188 319.78C42.2188 319.78 44.3588 316.656 47.8982 317.437C51.4376 318.218 53.4543 321.136 53.4543 321.136C53.4543 321.136 66.6652 316.985 73.6617 312.506" stroke="black" stroke-width="1.49433" stroke-miterlimit="10" stroke-linecap="round"/>
<path d="M60.4497 151.239C60.4497 151.239 58.5977 145.444 59.0915 141.992C59.5854 138.499 60.2028 135.211 62.5486 133.814C64.8533 132.416 68.4751 130.526 72.8787 131.594C77.2824 132.663 82.0976 142.732 82.2622 143.8C82.468 144.91 83.003 147.458 83.003 147.458" stroke="black" stroke-width="1.99244" stroke-miterlimit="10" stroke-linecap="round"/>
<path d="M84.2021 151.444L83.5025 148.485C83.379 148.115 82.9675 147.869 82.6382 148.033C80.992 148.855 76.753 150.664 73.584 151.157C70.4561 151.65 60.9903 151.896 60.5788 151.855C60.2084 151.732 60.0437 154.362 61.1138 154.938C62.225 155.554 65.4763 156.253 67.6164 155.801C70.9912 155.102 75.3537 153.828 78.4403 153.705C80.992 153.664 82.7617 152.842 82.7617 152.842" stroke="black" stroke-width="1.99244" stroke-miterlimit="10" stroke-linecap="round"/>
<path d="M132.801 313.492C132.801 313.492 129.097 312.095 130.126 308.683C131.114 305.231 136.258 302.848 136.258 302.848C136.258 302.848 140.538 300.711 143.378 301.409C146.218 302.108 144.407 303.793 143.378 303.628C142.349 303.464 140.744 299.478 144.242 296.724C147.782 293.888 151.609 293.025 153.255 293.149C154.902 293.272 155.395 292.039 155.972 290.642C156.589 289.244 158.112 288.833 159.429 288.833C160.746 288.833 161.404 291.628 159.429 293.025C157.453 294.423 157.453 294.423 157.453 294.423" stroke="#F69892" stroke-width="2.98865" stroke-miterlimit="10" stroke-linecap="round"/>
<path d="M130.173 278.353C128.444 280.737 127.127 280.902 126.345 278.806C125.481 276.71 126.51 273.422 131.531 269.435C136.552 265.408 136.922 270.298 135.235 270.833C133.506 271.285 130.708 272.23 130.214 267.339C129.72 262.531 137.128 256.366 140.955 256.449C144.783 256.531 145.112 257.928 142.807 259.983C140.503 261.997 135.77 258.586 135.605 254.846C135.399 251.106 139.433 247.366 145.853 246.832C152.273 246.297 148.405 252.503 145.853 251.188C145.853 251.188 138.116 248.558 146.182 238.859C154.29 229.16 157.253 231.379 157.706 231.954C157.706 231.954 161.986 235.982 154.208 235.982C146.429 235.982 150.01 220.118 159.887 220.776C169.764 221.433 161.204 229.078 158.158 224.475C155.113 219.913 154.084 217.981 157.294 214.324C160.504 210.666 164.579 205.159 166.472 207.83C168.365 210.502 167.213 213.748 163.509 213.502C159.805 213.255 158.447 213.296 156.636 210.995" stroke="#F69892" stroke-width="2.98865" stroke-miterlimit="10" stroke-linecap="round"/>
</svg>
