<svg width="245" height="346" viewBox="0 0 245 346" fill="none" xmlns="http://www.w3.org/2000/svg">
<path d="M89.4709 52.8926L94.8623 46.4814L101.241 43.1936L107.95 41.4675L113.588 42.8237L115.029 44.5087L119.103 43.9745L125.029 43.7279L130.133 46.6047L133.878 53.3036L139.516 63.578L142.356 71.3454L142.932 80.0992L142.891 90.8256L142.726 100.237L140.504 106.813L137.376 114.991L132.808 121.567L125.194 127.731L118.115 130.896L108.238 131.183L98.3194 128.512L90.4175 122.389L82.5156 113.594L77.9884 104.223L76.2188 98.7575L76.7538 84.7843L79.0585 71.592L81.7336 64.4821L89.4709 52.8926Z" fill="#FFEFCD"/>
<path d="M61.2739 146.883L59.1339 149.842L57.4465 155.349L55.1417 158.596L54.8125 160.733L56.4176 164.39L59.9981 168.788L64.6487 172.445L69.6286 174.418L74.5261 174.048L74.1145 171.048L72.2625 166.856L64.5664 147.992L62.5909 146.431L61.2739 146.883Z" fill="#3C60AC"/>
<path d="M81.3191 126.457L80.8253 127.649L82.4303 138.869L83.2946 161.02L81.9776 176.432L80.0433 181.405L78.6029 182.555L84.7351 185.391L86.7928 187.939L87.0809 190.405L85.3936 197.597L82.7184 201.214L80.2902 203.104L75.3516 202.94L76.1747 207.748L78.6852 212.721L83.5827 216.625L89.8795 219.338L100.539 221.023L120.006 220.982L137.661 219.42L150.79 216.749L156.922 213.625L153.836 204.255L152.272 190.857L151.366 176.267L149.061 175.651L155.153 161.678L160.585 153.705L163.137 151.65L163.425 150.294L159.844 149.801L155.276 149.883L151.531 152.061L148.485 156.746L146.222 161.637L143.547 173.144L143.423 185.432L145.687 194.145L144.575 194.556L136.427 186.377L133.463 176.309L133.71 155.554L137.414 130.444L135.274 130.403L133.669 129.827L134.245 127.567L137.538 119.799L134.657 119.101L131.9 124.896L128.936 130.485L124.039 136.115L119.265 138.663L113.503 139.115L106.548 136.978L100.498 133.279L95.2298 128.759L91.4846 124.854L91.1142 122.923L88.6449 121.402L87.4513 122.142L88.7272 128.389L88.9741 132.252L88.3156 133.156L85.8874 131.718L81.5661 126.334L81.3191 126.457Z" fill="#3C60AC"/>
<path d="M79.8785 214.488L76.6683 238.202L74.734 274.573L74.3225 302.93L73.4993 311.232L72.5116 315.177L68.2314 320.602L62.2227 326.931L61.0703 329.397L61.7288 330.918L64.692 331.534L82.2244 331.616L95.8469 329.274L97.1227 327.26L98.4809 320.273L104.572 290.436L110.21 275.148L114.202 268.778L118.153 267.422L121.528 268.984L125.232 276.093L130.829 298.779L134.739 322.945L136.715 328L139.801 331.37L144.575 333.055L153.835 332.233L163.63 330.465L167.334 328.739L167.993 327.178L165.77 324.671L159.186 320.766L156.963 316.081L156.387 302.725L154.453 252.627L151.613 216.913L150.337 216.543L143.053 218.68L121.281 221.105L98.3574 220.694L88.8916 219.091L79.8785 214.488Z" fill="#3C60AC"/>
<path d="M87.4556 122.142L88.7314 128.389L89.143 131.43L88.3199 133.156L86.2209 132.211L82.8873 128.594L81.5703 126.334L82.8461 124.279L87.4556 122.142Z" fill="#FFC947"/>
<path d="M137.539 119.799L135.399 124.854L134 129.005L134.247 130.485L137.416 130.444L139.35 120.745L137.539 119.799Z" fill="#FFC947"/>
<path d="M152.322 192.419L153.516 190.282L161.129 191.227L164.216 191.103L166.15 184.898L173.682 181.898L178.044 174.582L177.756 179.596L179.608 187.199L183.724 193.939L194.754 205.159L219.776 226.16L221.176 229.036L220.723 236.393L218.254 241.777L213.48 244.982L204.466 248.27L205.66 245.27L207.059 242.064L205.989 238.941L203.561 236.187L199.857 235.16L194.589 235.776L189.115 237.297L173.97 244.407L165.245 251.147L154.791 261.791L152.363 226.16L151.211 216.05L156.932 213.625L153.433 201.419L152.322 192.419Z" fill="#FFC947"/>
<path d="M109.266 276.956L112.558 270.668L116.427 267.75L119.76 267.792L122.97 271.696L125.234 276.093L124.205 277.203L117.579 278.806L109.266 276.956Z" fill="#FFC947"/>
<path d="M58.8098 149.472L61.2791 146.883L62.5961 146.43L64.7362 148.526L69.3045 158.472L73.7904 171.459L75.3955 174.5L75.6013 177.952L75.8071 181.281L78.6057 182.555L80.8692 180.089L82.4743 171.952L82.9682 153.951L82.0216 135.745L79.4288 120.95L76.0129 101.675L77.1241 80.3457L80.9927 65.8794L90.9935 49.9335L100.459 42.8237L106.592 42.0017L110.213 43.2346L112.189 44.5498L119.144 42.0017L125.811 43.5634L129.227 46.1526L134.824 54.2488L140.586 65.5095L142.809 73.8934V93.8257L142.356 105.251L139.105 121.731L133.837 154.321L133.425 173.637L134.783 182.185L137.5 187.569L144.126 193.939L145.607 194.761L145.072 191.309L142.973 182.062L144.084 169.363L146.718 159.582L151.534 152.061L155.814 149.677L160.752 149.472L163.428 150.294L163.757 110.84L164.58 89.757L163.716 72.4139L157.83 53.3035L150.34 37.6043L143.097 30.3711L130.668 23.3434L119.803 22.2749L103.011 24.6997L88.4419 31.1109L77.8649 39.7002L67.5759 54.4132L60.7852 76.4003L56.1758 104.223L55.0234 124.978L56.6285 140.143L58.8098 149.472Z" fill="#2D251E"/>
<path d="M150.956 171.336L149.062 175.651L151.367 176.267L152.478 191.515L154.125 190.158L162.027 191.227L164.208 191.104L165.854 187.035L166.142 184.898L161.656 183.172L151.985 171.664L150.956 171.336Z" fill="#2D251E"/>
<path d="M82.6797 84.7842L86.8364 83.2636L90.5404 83.1814L90.3758 86.5103L88.9354 90.9899L86.5895 92.0585L84.6552 90.2091L83.5851 86.8391L82.6797 84.7842Z" fill="#2D251E"/>
<path d="M121.82 83.6334L124.989 81.0854L129.023 80.3867L129.475 83.0992L128.693 87.3322L126.8 89.2638L124.002 88.524L122.726 85.8116L121.82 83.6334Z" fill="#2D251E"/>
<path d="M56.0125 164.02L53.3785 171.664L51.7734 178.199L52.2261 185.309L56.0125 191.638L62.9266 196.898L74.0387 202.652L80.2944 203.104L84.5334 199.118L86.9204 193.076L87.1674 188.514L84.7392 185.391L75.9318 181.651L74.2033 180.295L74.3268 174.5L70.2524 174.254L63.9144 172.486L57.9056 166.24L56.0125 164.02Z" fill="#FFEFCD"/>
<path d="M163.14 151.65L159.477 155.308L155.156 161.678L151.863 169.897L151.328 170.966L153.386 173.39L156.555 177.623L161.658 183.172L167.008 184.857L172.276 182.72L176.762 177.213L180.343 169.075L184.129 160.774L187.092 156.458L194.789 155.02L201.62 151.28L204.625 147.54L205.036 141.293L202.238 137.225L196.106 135.252L188.409 135.581L181.001 137.882L172.606 142.691L165.897 150.581L164.786 152.883L163.14 151.65Z" fill="#FFEFCD"/>
<path d="M78.7734 220.077C78.7734 220.077 90.297 228.091 103.631 227.886C117.007 227.721 141.289 227.639 151.701 220.57L151.249 216.091L134.786 220.201L105.401 221.475L91.2025 219.338L83.5475 216.666L79.8435 214.488L78.7734 220.077Z" fill="#314C7D"/>
<path d="M89.9297 330.013C89.9297 330.013 95.6092 258.01 117.751 258.216C139.893 258.462 147.26 333.054 147.26 333.054L141.58 332.52L137.465 328.986L134.542 322.04L128.493 287.724L124.418 273.216L121.537 268.942L118.163 267.381L113.965 269.353L110.178 274.531L106.269 285.587L101.124 305.149L96.6381 328.205L94.1687 329.643L89.9297 330.013Z" fill="#314C7D"/>
<path d="M163.43 150.294C163.43 150.294 149.067 155.431 147.709 175.569C146.351 195.706 146.186 194.391 146.186 194.391L143.758 188.268L143.141 178.199L144.787 165.048L148.45 156.705L152.442 151.609L156.64 149.431L163.43 150.294Z" fill="#314C7D"/>
<path d="M58.5234 151.403C58.5234 151.403 61.1574 149.924 62.3098 151.527C63.4621 153.129 70.7467 173.801 70.7467 173.801L75.1092 173.966L69.0593 158.39L64.738 148.485C64.738 148.485 62.6802 144.622 60.5812 146.8L58.5234 151.403Z" fill="#314C7D"/>
<path d="M75.8934 207.995C75.8934 207.995 80.2148 210.543 82.0668 209.515C84.6596 208.077 91.4091 196.487 90.6272 192.994C90.2156 191.021 87.4993 190.569 87.4993 190.569L83.6719 200.72L79.0213 203.433L75.0703 203.145L75.8934 207.995Z" fill="#314C7D"/>
<path d="M91.9062 124.978L95.6514 126.211L100.919 129.252L110.879 131.677L122.403 130.115L129.399 125.882L134.214 120.745L132.115 126.786L128.946 131.594L124.46 136.238L118.657 139.28L113.925 139.239L108.369 137.923L103.059 134.964L97.2976 130.197L91.9062 124.978Z" fill="#E5D4B5"/>
<path d="M87.9106 122.265L89.1041 121.484L92.3143 124.279L92.6847 126.211L97.7468 130.69L106.966 137.06L113.304 139.28L119.724 138.786L125.856 135.129L130.877 128.224L134.458 119.923L136.515 119.183L138.038 119.964L135.24 126.868L134.17 129.909C134.17 129.909 138.738 130.115 137.009 132.663C133.511 137.677 121.658 146.759 115.238 146.759C108.735 146.718 87.8694 137.677 82.0253 133.156C81.4903 132.704 80.7907 126.293 81.2022 126.745C90.5446 137.266 89.7214 130.937 89.7214 130.937L87.9106 122.265Z" fill="#314C7D"/>
<path d="M81.9062 125.717L86.063 122.553H87.4211L88.4089 127.813L88.985 132.334L87.915 133.074L83.0586 129.087L81.9062 125.717Z" fill="#DBAA3D"/>
<path d="M137.421 119.881L139.19 121.402L137.626 130.032L134.663 130.69L133.758 129.539L137.421 119.881Z" fill="#DBAA3D"/>
<path d="M163.022 151.814L159.441 155.102L155.984 160.404L150.922 170.966L153.474 173.678C153.474 173.678 158.248 163.815 159.729 162.253C161.211 160.691 162.157 159.623 162.157 159.623L164.421 152.636L163.022 151.814Z" fill="#E2D4B7"/>
<path d="M55.8955 164.349L57.871 166.65L64.9909 172.856L73.3044 174.459L74.2098 174.253V177.336L74.2509 179.062C74.2509 179.062 64.8674 177.993 63.3858 177.007C61.9042 176.021 55.5251 171.171 54.6197 168.418C53.7554 165.664 55.8955 164.349 55.8955 164.349Z" fill="#E2D4B7"/>
<path d="M112.728 277.86C112.728 277.86 113.963 272.024 117.296 271.983C120.671 271.942 122.07 278.025 122.07 278.025L125.445 276.833L122.688 270.422L118.243 267.38L115.033 268.572L110.835 273.422L109.477 276.833L112.728 277.86Z" fill="#DBAA3D"/>
<path d="M165.043 251.352L155.001 261.38L153.19 235.53L151.297 215.885L156.729 213.625L152.902 198.419L152.449 191.473L154.877 190.281L161.462 191.268L164.384 190.528L166.236 184.815L173.151 182.144L177.513 176.021L178.748 185.843C178.748 185.843 176.443 201.172 174.385 203.515C172.286 205.898 166.113 215.022 167.471 227.064C168.829 239.105 168.335 248.722 168.335 248.722L165.043 251.352Z" fill="#DBAA3D"/>
<path d="M193.312 235.694L200.227 235.119L204.671 237.091L206.523 241.201L206.071 245.064C206.071 245.064 214.178 235.448 207.552 233.352C200.926 231.256 193.312 235.694 193.312 235.694Z" fill="#DBAA3D"/>
<path d="M85.6913 116.758C85.6913 116.758 81.3699 99.5793 81.5345 91.7707C81.6992 83.9622 88.2841 62.4682 90.383 58.6461C92.3585 54.8652 96.7621 41.5085 112.319 46.8922C112.319 46.8922 129.687 37.4398 139.029 73.8933C139.029 73.8933 140.922 95.7161 135.654 117.128L138.371 112.689L141.992 102.785L142.527 97.4011L142.898 74.7153L140.017 64.2354L131.168 47.9608L127.629 44.3031L119.439 41.7961L112.36 44.3853L109.315 43.1524L104.088 41.9194L95.1982 45.6182L87.5844 53.8377L80.4233 67.1944L76.8016 82.9348L76.5547 96.2093L76.5958 101.963L79.6414 108.867L85.6913 116.758Z" fill="#E2D4B7"/>
<path d="M76.6412 101.922L76.4766 104.1L77.0116 108.128L78.699 116.635L79.7279 122.388L80.551 127.197L82.938 124.69L85.4485 122.923L89.1114 121.525L86.3951 118.32L80.7156 110.224L76.6412 101.922Z" fill="#171412"/>
<path d="M141.578 104.552L140.014 107.963L138.079 113.059L134.828 119.059L137.215 119.553L139.191 120.786L140.59 114.415L142.154 106.032L141.578 104.552Z" fill="#171412"/>
<path d="M168.409 185.309L177.134 192.747C177.299 192.871 177.34 193.158 177.175 193.323C177.052 193.487 176.805 193.528 176.64 193.364L167.627 186.295C167.339 186.09 167.298 185.679 167.504 185.391C167.751 185.144 168.121 185.103 168.409 185.309Z" fill="#FCB017"/>
<path d="M167.222 188.186L174.918 194.72C175 194.802 175 194.926 174.959 195.008C174.877 195.09 174.753 195.09 174.671 195.049L166.44 189.172C166.151 188.966 166.11 188.597 166.316 188.268C166.522 187.939 166.892 187.898 167.222 188.186C167.222 188.103 167.18 188.103 167.222 188.186Z" fill="#FCB017"/>
<path d="M164.71 191.514C166.644 193.117 168.661 194.679 170.637 196.241C171.665 197.022 172.694 197.72 173.723 198.46C174.217 198.789 174.793 199.159 175.328 199.487C175.575 199.652 175.863 199.775 176.151 199.898C176.398 200.022 176.686 200.145 176.975 200.145C177.098 200.145 177.18 200.268 177.18 200.392C177.18 200.515 177.057 200.597 176.933 200.597C176.563 200.556 176.234 200.433 175.904 200.35C175.616 200.227 175.328 200.104 174.999 199.939C174.423 199.652 173.847 199.364 173.312 198.994C172.2 198.378 171.13 197.638 170.101 196.898C167.961 195.46 165.945 194.021 163.846 192.501C163.558 192.295 163.517 191.925 163.722 191.597C164.052 191.309 164.422 191.268 164.71 191.514C164.71 191.473 164.71 191.473 164.71 191.514Z" fill="#FCB017"/>
<path d="M158.736 192.912C162.276 195.378 165.774 197.844 169.231 200.392C170.96 201.666 172.688 202.94 174.376 204.296C174.787 204.625 175.24 204.995 175.651 205.323C176.063 205.652 176.516 206.022 176.886 206.351C177.298 206.68 177.709 207.049 178.08 207.46C178.285 207.666 178.45 207.83 178.656 208.036L179.191 208.652C179.314 208.775 179.273 208.981 179.15 209.063C179.026 209.186 178.862 209.145 178.738 209.022L178.697 208.981L178.203 208.447C178.038 208.282 177.833 208.118 177.627 207.912C177.256 207.584 176.804 207.214 176.433 206.885C176.022 206.556 175.569 206.186 175.199 205.899C174.787 205.57 174.334 205.282 173.923 204.912C172.235 203.638 170.466 202.405 168.696 201.172C165.157 198.707 161.658 196.323 158.037 194.021C157.749 193.816 157.666 193.446 157.872 193.117C158.037 192.789 158.448 192.706 158.736 192.912Z" fill="#FCB017"/>
<path d="M154.699 196.364C160.255 200.227 165.77 204.131 171.326 208.036C174.084 209.967 176.841 211.94 179.599 213.912C180.957 214.899 182.356 215.885 183.714 216.913C184.414 217.406 185.072 217.94 185.772 218.433L186.266 218.844L186.513 219.05C186.595 219.132 186.719 219.255 186.76 219.337L187.377 220.447C187.459 220.611 187.418 220.817 187.254 220.899C187.089 220.981 186.924 220.94 186.801 220.776L186.184 219.666C186.101 219.584 186.101 219.584 186.019 219.502L185.813 219.296L185.319 218.926C184.62 218.433 183.961 217.899 183.261 217.447C181.903 216.461 180.504 215.515 179.105 214.529C176.347 212.597 173.549 210.666 170.75 208.775C165.194 204.953 159.597 201.131 153.959 197.35C153.671 197.145 153.588 196.775 153.794 196.446C153.959 196.241 154.411 196.117 154.699 196.364Z" fill="#FCB017"/>
<path d="M154.99 201.994C158.406 204.501 161.781 207.008 165.156 209.556C166.843 210.83 168.531 212.104 170.177 213.419C171.041 214.036 171.823 214.734 172.646 215.392C173.058 215.721 173.469 216.091 173.881 216.419L174.457 216.954L175.033 217.529C175.157 217.693 175.157 217.899 175.033 218.063C174.91 218.187 174.663 218.187 174.498 218.063L174.457 218.022L173.922 217.529L173.346 217.036C172.975 216.707 172.523 216.337 172.111 216.05C171.288 215.433 170.465 214.734 169.601 214.118C167.913 212.844 166.185 211.611 164.497 210.337C161.081 207.871 157.665 205.405 154.167 203.022C153.879 202.816 153.838 202.446 154.003 202.117C154.332 201.83 154.702 201.789 154.99 201.994Z" fill="#FCB017"/>
<path d="M159.315 211.447L168.081 218.557C168.246 218.68 168.287 218.926 168.123 219.091C167.999 219.255 167.752 219.296 167.588 219.173L158.533 212.392C158.245 212.186 158.204 211.817 158.41 211.488C158.616 211.159 158.986 211.241 159.315 211.447C159.274 211.447 159.274 211.447 159.315 211.447Z" fill="#FCB017"/>
<path d="M157.003 214.365L169.267 224.516C169.35 224.598 169.391 224.721 169.308 224.803C169.226 224.885 169.103 224.885 169.02 224.844L156.221 215.392C155.933 215.186 155.892 214.817 156.097 214.488C156.303 214.2 156.674 214.159 157.003 214.365Z" fill="#FCB017"/>
<path d="M153.022 216.132L175.904 234.872C176.11 235.037 176.151 235.324 175.986 235.571C175.822 235.818 175.534 235.818 175.287 235.653L152.198 217.118C151.952 216.913 151.91 216.502 152.116 216.214C152.322 215.926 152.692 215.885 153.022 216.132Z" fill="#FCB017"/>
<path d="M153.67 225.214L175.03 241.366C175.195 241.489 175.195 241.694 175.113 241.859C174.989 242.023 174.783 242.023 174.66 241.941L152.971 226.242C152.683 226.036 152.642 225.666 152.847 225.338C152.971 225.091 153.382 225.009 153.67 225.214Z" fill="#FCB017"/>
<path d="M153.918 231.502L171.368 244.366C171.492 244.448 171.492 244.613 171.409 244.736C171.327 244.859 171.162 244.859 171.039 244.777L153.177 232.53C152.889 232.324 152.807 231.955 153.013 231.626C153.26 231.379 153.63 231.297 153.918 231.502Z" fill="#FCB017"/>
<path d="M154.34 236.105L169.074 246.421C169.28 246.544 169.321 246.791 169.156 246.996C169.033 247.161 168.786 247.243 168.58 247.119L153.599 237.174C153.311 236.968 153.229 236.599 153.435 236.27C153.599 235.982 154.011 235.9 154.34 236.105Z" fill="#FCB017"/>
<path d="M154.626 241.119L165.574 248.845C165.697 248.928 165.697 249.051 165.615 249.174C165.533 249.297 165.409 249.297 165.286 249.256L153.844 242.188C153.556 242.023 153.474 241.612 153.639 241.283C153.886 241.037 154.297 240.955 154.626 241.119Z" fill="#FCB017"/>
<path d="M154.498 245.845L163.387 251.517C163.552 251.64 163.634 251.887 163.511 252.051C163.387 252.215 163.182 252.298 162.976 252.174L153.839 246.873C153.551 246.708 153.428 246.338 153.633 245.969C153.757 245.763 154.127 245.681 154.498 245.845C154.457 245.845 154.457 245.845 154.498 245.845Z" fill="#FCB017"/>
<path d="M154.953 251.229L160.674 254.804" stroke="#FCB017" stroke-width="1.27386" stroke-miterlimit="10" stroke-linecap="round"/>
<path d="M108.486 23.9188C108.486 23.9188 95.6457 24.5353 82.229 36.0426C68.8122 47.5499 63.9147 60.7011 60.0872 81.4964C56.2597 102.292 54.9839 110.552 55.0662 123.169C55.1485 135.827 58.9348 150.622 58.9348 150.622C58.9348 150.622 61.4865 140.43 66.2194 151.485C70.9935 162.5 72.4751 169.157 74.2859 172.281C76.0968 175.363 75.6029 178.199 75.6029 178.199C75.6029 178.199 74.6975 181.487 77.208 182.144C77.208 182.144 80.7474 184.487 81.9409 174.747C83.1344 165.007 83.2167 146.595 81.982 136.238C80.7474 125.882 76.0145 106.073 76.1379 101.84C76.2614 97.6066 75.3971 77.4689 81.1589 65.9616C86.8796 54.4543 88.6493 52.7282 92.1887 49.1116C95.7692 45.4539 104.206 38.4262 112.108 44.3032C112.108 44.3032 122.603 37.5632 130.299 47.3444C130.299 47.3444 143.263 64.8108 142.851 77.0168C142.481 89.2228 143.057 104.306 140.67 113.963C138.283 123.58 133.386 152.595 133.427 160.856C133.468 169.116 132.233 180.665 137.295 187.117C140.3 190.98 143.057 193.364 144.827 194.597C145.321 194.967 146.02 194.432 145.815 193.816C144.621 190.775 142.646 184.322 143.345 175.939C144.374 164.061 149.025 144.951 163.306 150.294C163.306 150.294 162.894 126.128 163.758 114.827C164.664 103.607 164.993 76.3592 163.141 71.0166C161.289 65.6739 155.898 39.7413 143.386 30.7821C130.916 21.8639 128.817 23.179 122.685 22.3982C119.187 21.9872 108.486 23.9188 108.486 23.9188Z" stroke="black" stroke-width="1.27386" stroke-miterlimit="10" stroke-linecap="round"/>
<path d="M72.7236 122.923C71.4477 118.525 70.6246 114.046 70.1307 109.525C69.6369 105.004 69.5134 100.401 69.8015 95.8806C70.0896 91.3599 70.9127 86.757 72.312 82.4006C73.0116 80.1814 73.8759 78.0854 74.9048 76.0305C75.9337 73.9346 77.1684 72.003 78.5265 70.1536C78.7323 69.8659 79.1027 69.8248 79.4319 70.0303C79.72 70.2358 79.7612 70.6057 79.5554 70.9344C78.2384 72.7016 77.0037 74.6332 75.9749 76.5648C74.946 78.5375 74.0817 80.5923 73.3409 82.7705C71.9004 87.0036 71.0773 91.4832 70.7069 95.9628C70.3777 100.442 70.4188 105.004 70.8304 109.484C71.2419 113.964 72.0239 118.484 73.2174 122.799C73.2586 122.923 73.1763 123.087 73.0528 123.128C72.8882 123.128 72.7647 123.087 72.7236 122.923Z" fill="black"/>
<path d="M176.841 129.457C175.648 128.43 174.701 127.279 173.796 126.046C172.849 124.854 172.067 123.539 171.285 122.265C169.763 119.635 168.569 116.881 167.54 114.005L166.799 111.826L166.223 109.648L165.935 108.539C165.853 108.169 165.771 107.799 165.688 107.429L165.194 105.21C164.906 103.73 164.701 102.251 164.412 100.771L163.919 96.2916C163.877 95.9628 164.124 95.5929 164.454 95.5518C164.783 95.5107 165.153 95.7573 165.194 96.0861V96.1272L165.606 100.566C165.812 102.045 166.017 103.525 166.306 104.963L166.717 107.182C166.799 107.552 166.841 107.922 166.923 108.292L167.211 109.361L167.746 111.539L168.446 113.676C169.392 116.512 170.503 119.265 171.944 121.854C172.685 123.169 173.426 124.443 174.331 125.635C175.195 126.827 176.142 128.019 177.212 129.005C177.294 129.087 177.294 129.252 177.212 129.334C177.088 129.498 176.965 129.539 176.841 129.457Z" fill="black"/>
<path d="M76.3438 100.073C76.3438 100.073 85.398 130.361 110.503 131.43C136.266 132.581 141.699 102.292 141.699 102.292" stroke="black" stroke-width="1.27386" stroke-miterlimit="10" stroke-linecap="round"/>
<path d="M98.1514 109.443C98.1514 109.484 98.1514 109.484 98.1514 109.525C98.1514 109.566 98.1514 109.607 98.1925 109.648C98.2337 109.689 98.2337 109.73 98.2337 109.771C98.2749 109.813 98.2749 109.854 98.316 109.895C98.3572 109.977 98.4806 110.059 98.5218 110.141L98.8099 110.388C99.2626 110.676 99.8388 110.922 100.415 111.087C100.991 111.251 101.65 111.333 102.267 111.456C102.967 111.498 103.584 111.621 104.242 111.621C104.942 111.662 105.559 111.662 106.218 111.662C106.918 111.662 107.576 111.662 108.276 111.621L110.333 111.539L112.391 111.374L113.42 111.292L114.449 111.169C115.149 111.087 115.807 111.045 116.425 110.922C117.124 110.799 117.783 110.758 118.4 110.635L119.388 110.429C119.717 110.388 120.005 110.306 120.375 110.224L121.363 109.977C121.692 109.895 121.981 109.771 122.31 109.689L122.763 109.525L123.174 109.36C123.462 109.237 123.75 109.114 124.038 108.991L124.45 108.785C124.573 108.703 124.697 108.621 124.82 108.539C125.067 108.374 125.273 108.169 125.438 108.004C125.52 107.922 125.602 107.799 125.685 107.717C125.726 107.593 125.808 107.511 125.849 107.388C125.89 107.264 125.931 107.182 125.931 107.059C125.931 107.018 125.931 106.977 125.931 106.895C125.931 106.854 125.931 106.854 125.931 106.812C125.931 106.771 125.931 106.771 125.931 106.771C125.808 106.443 125.973 106.073 126.261 105.949C126.549 105.826 126.96 105.99 127.084 106.278C127.125 106.36 127.125 106.443 127.166 106.484C127.166 106.566 127.207 106.607 127.207 106.648C127.207 106.771 127.248 106.895 127.248 106.977C127.248 107.223 127.207 107.429 127.166 107.675C127.125 107.922 127.002 108.086 126.919 108.292L126.59 108.826C126.343 109.114 126.096 109.443 125.767 109.73C125.602 109.854 125.479 109.977 125.314 110.1L124.861 110.388C123.586 111.21 122.227 111.703 120.828 112.073C118.071 112.895 115.313 113.265 112.515 113.511L110.416 113.676L108.317 113.758C107.617 113.799 106.918 113.758 106.177 113.758C105.436 113.758 104.777 113.676 104.037 113.635C103.296 113.594 102.596 113.47 101.897 113.347C101.156 113.183 100.456 113.059 99.7565 112.772C99.5918 112.689 99.4272 112.648 99.2626 112.566L98.7687 112.319L98.5218 112.196L98.2749 112.032C98.1102 111.909 97.9456 111.826 97.781 111.662C97.6164 111.498 97.4929 111.374 97.3283 111.21C97.2048 111.004 97.0813 110.881 96.9579 110.635L96.8344 110.306C96.7933 110.182 96.7933 110.059 96.7521 109.977C96.7109 109.854 96.7521 109.73 96.7109 109.607C96.7109 109.566 96.7109 109.484 96.7109 109.402V109.319C96.7109 109.278 96.7109 109.237 96.7521 109.196C96.8344 108.867 97.2048 108.662 97.5341 108.785C97.8221 108.703 98.2337 109.073 98.1514 109.443Z" fill="black"/>
<path d="M117.215 78.7018C117.545 78.373 117.915 78.1264 118.244 77.7976C118.574 77.4688 118.944 77.2633 119.273 76.9757C119.973 76.4825 120.672 75.9482 121.372 75.4961C122.813 74.5509 124.294 73.729 125.858 72.9892C127.422 72.2494 129.027 71.7152 130.714 71.3453C132.361 70.9343 134.13 70.811 135.818 70.811C136.147 70.811 136.435 71.0987 136.435 71.4275C136.435 71.7563 136.188 72.0029 135.859 72.044H135.818C134.254 72.1673 132.649 72.4138 131.167 72.9892C129.686 73.4824 128.204 74.1399 126.805 74.8797C125.405 75.6194 124.088 76.5236 122.813 77.551C122.195 78.0442 121.578 78.5785 121.002 79.0716C120.714 79.3182 120.426 79.6059 120.137 79.8936C119.849 80.1813 119.602 80.4278 119.314 80.7155C118.779 81.2909 117.833 81.332 117.215 80.8388C116.639 80.3046 116.598 79.3593 117.092 78.7429C117.133 78.7429 117.174 78.7018 117.215 78.7018Z" fill="black"/>
<path d="M120.508 84.3732C120.961 83.5923 121.455 83.0581 122.031 82.4827C122.319 82.2361 122.566 81.9484 122.936 81.6607L123.389 81.2909C123.554 81.1676 123.718 81.0854 123.883 80.9621C125.241 80.0579 126.764 79.5237 128.328 79.1949L129.521 79.0305C129.892 78.9894 130.344 78.9894 130.715 78.9483C131.538 78.8661 132.32 78.9894 133.102 79.0305L133.39 79.0716L133.678 79.1127L134.254 79.1949L135.448 79.4004L137.752 79.9757C138.575 80.1812 139.028 81.0032 138.822 81.784C138.617 82.606 137.794 83.0581 137.012 82.8526C136.97 82.8526 136.929 82.8115 136.888 82.8115L136.765 82.7704L134.83 82.0306L133.801 81.784L133.308 81.6607L133.061 81.5785L132.814 81.5374C132.114 81.4552 131.456 81.2909 130.756 81.2909C130.427 81.2909 130.056 81.2498 129.727 81.2498L128.698 81.2909C127.34 81.4553 126.023 81.784 124.788 82.4416C124.624 82.5238 124.5 82.606 124.336 82.6882L123.924 82.9759C123.636 83.1402 123.389 83.3457 123.06 83.5512C122.813 83.7567 122.566 84.0033 122.278 84.291C122.031 84.5376 121.825 84.7841 121.66 85.0718L121.619 85.1129C121.414 85.4006 121.043 85.4417 120.714 85.2362C120.385 84.9485 120.343 84.6198 120.508 84.3732Z" fill="black"/>
<path d="M122.359 84.0444C122.359 84.0444 122.689 89.3871 126.269 89.3049C129.85 89.2227 129.232 81.4963 129.232 81.4963" stroke="black" stroke-width="1.27386" stroke-miterlimit="10" stroke-linecap="round"/>
<path d="M95.5594 85.6883C95.3947 85.5239 95.1478 85.3595 94.8597 85.1951C94.7363 85.1129 94.6128 85.0307 94.4893 84.9485C94.3659 84.8663 94.2424 84.7841 94.1189 84.7431C93.872 84.6198 93.5839 84.4965 93.2547 84.3732C92.9666 84.2499 92.6785 84.1677 92.3492 84.0855C91.1557 83.7567 89.921 83.7156 88.6864 83.7978L87.7398 83.88C87.4517 83.9211 87.1636 84.0033 86.7932 84.0444L86.3405 84.1266C86.1759 84.1677 86.0524 84.2088 85.8878 84.2499L84.9824 84.4965C84.4062 84.702 83.7888 84.9485 83.2538 85.1951L81.5664 86.0582L81.5253 86.1815C81.0314 86.4281 80.4141 86.2226 80.1671 85.7294C79.9202 85.2362 80.126 84.6198 80.6198 84.3732C80.6198 84.3732 80.661 84.3732 80.661 84.3321L82.513 83.469C83.1303 83.2635 83.83 83.017 84.4473 82.7704L85.4762 82.5238C85.6408 82.4827 85.8055 82.4416 85.9701 82.4005L86.464 82.3183C86.7932 82.2772 87.1636 82.195 87.4929 82.1539L88.5629 82.1128C89.9622 82.0717 91.3615 82.2361 92.7196 82.6471C93.0489 82.7704 93.4193 82.8526 93.7074 83.017C94.0366 83.1403 94.3247 83.3046 94.6539 83.469C94.8186 83.5512 94.942 83.6334 95.1067 83.7156C95.2713 83.7978 95.3948 83.88 95.5182 84.0033C95.6417 84.0855 95.8063 84.2088 95.9298 84.3321C96.0532 84.4554 96.1767 84.5376 96.3413 84.702C96.5883 84.9485 96.5883 85.3184 96.3413 85.6061C96.0944 85.8527 95.724 85.8527 95.4771 85.6472L95.5594 85.6883Z" fill="black"/>
<path d="M83.0547 85.1131C83.0547 85.1131 84.2482 92.0174 87.4995 91.8119C90.7508 91.6065 90.3804 84.0034 90.3804 84.0034" stroke="black" stroke-width="1.27386" stroke-miterlimit="10" stroke-linecap="round"/>
<path d="M95.652 77.3866L91.6598 76.8934C90.3429 76.729 88.9847 76.6057 87.6677 76.4825C86.3919 76.3592 85.1161 76.4003 83.7579 76.4825C83.1406 76.5235 82.441 76.5646 81.8236 76.6468C81.4944 76.6879 81.2063 76.729 80.877 76.7701C80.7124 76.8112 80.589 76.8112 80.4243 76.8523L80.2186 76.8934C80.1774 76.8934 80.1362 76.9345 80.0951 76.9345L79.8893 76.9756C79.5601 77.0578 79.1897 76.8523 79.1485 76.5235C79.1074 76.277 79.2308 75.9893 79.4366 75.8249C79.8893 75.5372 80.2186 75.4961 80.589 75.3728C80.9182 75.2906 81.2886 75.2084 81.6179 75.1262C82.3175 75.0029 82.976 74.8796 83.6756 74.7563C84.3753 74.6742 85.0338 74.5509 85.7334 74.5098C86.4331 74.4276 87.1327 74.3865 87.8324 74.3865C89.1905 74.3865 90.5486 74.3865 91.9068 74.4276L95.94 74.5098C96.7632 74.5098 97.3805 75.2084 97.3393 75.9893C97.3393 76.8112 96.6397 77.4277 95.8577 77.3866C95.7343 77.3866 95.6931 77.3866 95.652 77.3866Z" fill="black"/>
<path d="M88.3215 121.854C83.8356 122.429 81.0781 126.95 81.0781 126.95" stroke="black" stroke-width="1.27386" stroke-miterlimit="10" stroke-linecap="round"/>
<path d="M135.156 119.101C135.156 119.101 137.79 119.183 138.778 120.827" stroke="black" stroke-width="1.27386" stroke-miterlimit="10" stroke-linecap="round"/>
<path d="M91.0781 124.649C91.0781 124.649 104.289 139.731 116.018 139.197C127.748 138.663 133.798 120.621 133.798 120.621" stroke="black" stroke-width="1.27386" stroke-miterlimit="10" stroke-linecap="round"/>
<path d="M58.9726 150.581C58.9726 150.581 57.8614 156.006 55.1451 158.801C52.3877 161.595 62.7178 173.76 69.385 174.089C76.0522 174.418 75.0233 173.678 75.0233 173.678" stroke="black" stroke-width="1.27386" stroke-miterlimit="10" stroke-linecap="round"/>
<path d="M55.7634 164.513C55.7634 164.513 48.4377 180.007 53.3352 187.775C58.2739 195.583 75.4358 204.953 80.4156 202.899C85.4778 200.844 87.124 192.706 87.2887 190.323C87.6591 184.487 77.864 182.925 75.6004 181.774C73.378 180.583 74.5304 174.13 74.5304 174.13" stroke="black" stroke-width="1.27386" stroke-miterlimit="10" stroke-linecap="round"/>
<path d="M157.172 213.748C157.172 213.748 151.904 204.337 151.575 176.226L149.023 175.897C149.023 175.897 156.185 155.883 163.181 151.855L164.539 153.047" stroke="black" stroke-width="1.27386" stroke-miterlimit="10" stroke-linecap="round"/>
<path d="M161.908 164.39C161.908 164.39 160.756 155.307 170.715 144.663C180.634 134.019 203.187 131.553 204.751 141.663C206.315 151.773 198.166 154.691 186.807 156.54" stroke="black" stroke-width="1.27386" stroke-miterlimit="10" stroke-linecap="round"/>
<path d="M189.074 152.636C189.074 152.636 183.6 161.431 182.407 164.308C181.213 167.185 176.069 180.665 172.612 182.432C169.114 184.158 165.451 186.583 160.965 182.309C156.561 178.035 151.828 171.377 151.828 171.377" stroke="black" stroke-width="1.27386" stroke-miterlimit="10" stroke-linecap="round"/>
<path d="M152.605 192.049C152.4 188.391 160.548 191.638 162.277 191.432C165.199 191.062 165.734 188.925 165.858 186.007" stroke="black" stroke-width="1.27386" stroke-miterlimit="10" stroke-linecap="round"/>
<path d="M75.3987 203.761C75.3987 203.761 75.1106 216.543 92.8488 219.79C110.587 223.036 144.87 220.899 156.558 213.83" stroke="black" stroke-width="1.27386" stroke-miterlimit="10" stroke-linecap="round"/>
<path d="M79.9258 214.118C79.9258 214.118 75.9749 232.612 75.0283 270.093C74.0817 307.574 74.5756 312.464 71.7358 316.821C68.8961 321.177 57.6606 328.862 62.1465 330.999C66.6325 333.136 95.2357 331.081 96.5939 328.616C97.9109 326.15 105.237 267.421 118.077 267.421C128.983 267.421 132.893 319.821 135.774 326.15C138.49 332.068 142.524 333.629 149.232 332.89C155.899 332.15 172.938 330.136 166.847 325.574C160.756 321.013 157.34 322.328 156.764 312.588C156.187 302.847 154.788 261.997 154.582 255.873C154.418 249.708 152.113 219.666 151.331 216.625" stroke="black" stroke-width="1.27386" stroke-miterlimit="10" stroke-linecap="round"/>
<path d="M123.097 163.897C123.097 163.897 123.056 153.746 115.318 153.992C107.622 154.157 107.663 160.404 107.581 161.678C107.458 162.952 108.157 170.185 116.142 177.747C124.126 185.268 124.414 191.473 124.208 193.693C124.002 195.912 121.739 201.583 114.578 201.008C107.417 200.433 106.676 193.939 107.663 191.309" stroke="#FFC947" stroke-width="5.0162" stroke-miterlimit="10" stroke-linecap="round"/>
<path d="M109.727 277.244C109.727 277.244 113.801 279.011 117.546 278.723C121.291 278.436 124.872 276.956 124.872 276.956" stroke="black" stroke-width="1.27386" stroke-miterlimit="10" stroke-linecap="round"/>
<path d="M156.188 260.435C156.188 260.435 167.917 247.284 177.383 242.64C186.849 237.996 200.142 231.543 204.998 237.667C208.538 242.105 205.986 245.969 204.381 247.736C204.134 248.023 204.381 248.517 204.751 248.352C207.797 247.53 214.711 245.516 217.633 242.393C221.378 238.324 222.489 229.324 219.979 226.488C217.427 223.612 196.644 208.077 185.943 196.61C175.243 185.103 178.247 174.993 178.247 174.993" stroke="black" stroke-width="1.27386" stroke-miterlimit="10" stroke-linecap="round"/>
<path d="M49.2262 143.348C49.1851 143.225 49.0616 143.06 48.9793 142.937L48.6912 142.485C48.4854 142.197 48.2797 141.869 48.0739 141.54C47.6623 140.923 47.1685 140.307 46.7158 139.731C45.728 138.54 44.7403 137.43 43.6291 136.485C42.5179 135.498 41.2832 134.676 40.0074 134.06C39.39 133.772 38.6904 133.526 38.073 133.32C37.9084 133.279 37.7438 133.238 37.5792 133.197C37.4146 133.156 37.2499 133.156 37.0442 133.115L35.8095 132.95C32.5582 132.457 29.348 131.8 26.179 131.142C23.0101 130.485 19.7999 129.745 16.6721 129.005L15.2316 128.8L16.4663 127.813C18.3183 126.375 20.1703 124.813 21.94 123.251C23.7097 121.69 25.4382 120.046 27.1256 118.361C28.7719 116.676 30.3769 114.909 31.8997 113.182C33.3813 111.415 34.7806 109.525 36.0564 107.675L35.9741 110.511C33.6282 106.607 31.1589 102.662 28.7307 98.7983C26.2614 94.9352 23.7097 91.072 21.1169 87.291C19.8411 85.4006 18.4829 83.5101 17.1659 81.6607C15.8078 79.8113 14.4497 77.9208 13.0504 76.1536C11.6511 74.3453 10.2106 72.537 8.77017 70.7698L6.50661 68.1807L4.11958 65.7148L2.84375 64.4819L4.61345 64.6052C10.5399 64.9751 16.5486 65.3039 22.475 65.5094C25.4382 65.5915 28.4015 65.6737 31.4058 65.6737C32.8874 65.6737 34.369 65.6327 35.8095 65.5916C36.5503 65.5505 37.2499 65.5094 37.9496 65.4272L38.4435 65.3861L38.8962 65.3039C39.0608 65.2628 39.1431 65.2217 39.2666 65.2217L39.3489 65.1806C39.3489 65.1806 39.3489 65.1806 39.39 65.1806H39.4312L38.8139 67.3176C38.5258 66.7012 38.2788 66.1258 37.9907 65.5505C37.7438 64.9751 37.4969 64.3586 37.2499 63.7833C36.7561 62.5914 36.3034 61.3996 35.8918 60.2078C35.4802 59.0159 35.0275 57.783 34.6571 56.5912C34.2867 55.3583 33.8752 54.1664 33.5459 52.9335C32.1055 48.0429 30.9943 43.1112 30.2535 38.0973C29.8007 35.5904 29.5538 33.0423 29.2657 30.5354L28.9776 26.7133C28.9365 26.0968 28.8953 25.4393 28.8542 24.8228L28.813 22.8912C28.813 21.6172 28.7719 20.3432 28.7719 19.0692L28.9365 15.2471C28.9776 14.6306 28.9776 13.9731 29.0188 13.3566L29.2246 11.4661L29.595 7.68516L29.7184 6.41113L30.665 7.31528C32.6405 9.04137 34.8629 10.6853 37.0853 12.1648C39.3489 13.6443 41.6124 15.0005 43.9995 16.1512C46.3865 17.302 48.8558 18.2883 51.4075 18.8637C52.6833 19.1514 53.918 19.3979 55.1938 19.4801C56.4697 19.5623 57.7043 19.5623 58.939 19.439C59.8033 19.3568 60.5852 19.9322 60.6675 20.8364C60.7499 21.6994 60.1737 22.4803 59.2682 22.5625C59.2271 22.5625 59.2271 22.5625 59.1859 22.5625C57.7043 22.6447 56.2639 22.5625 54.8234 22.3981C53.383 22.1926 52.0248 21.8638 50.6667 21.4528C47.9504 20.5898 45.3988 19.4801 42.9706 18.0828C40.5424 16.7266 38.2377 15.206 36.0564 13.5621C33.8752 11.9182 31.7762 10.151 29.7596 8.21942L30.8296 7.84955L30.5827 11.5894L30.4592 13.4388C30.2123 14.0142 30.2123 14.6306 30.2123 15.2471L30.1712 18.987C30.1712 20.2199 30.2946 21.4939 30.3358 22.7268L30.4181 24.5762C30.4592 25.1927 30.5416 25.8092 30.5827 26.4256L30.9531 30.1655C31.3235 32.6313 31.6528 35.0972 32.1466 37.5631C33.0932 42.4537 34.3279 47.2621 35.8918 52.0294C36.2622 53.2212 36.7149 54.3719 37.1265 55.5638C37.538 56.7145 38.0319 57.9063 38.4435 59.057C38.8962 60.2078 39.39 61.3585 39.8839 62.5092C40.3778 63.66 40.9128 64.7696 41.4478 65.797L42.2298 67.2766L40.8305 67.893C40.6659 67.9752 40.5424 68.0163 40.3778 68.0985L40.1308 68.1807L39.9662 68.2218C39.7604 68.2629 39.4723 68.3451 39.2666 68.3451L38.6492 68.4273L38.073 68.4684C37.2499 68.5095 36.5091 68.5095 35.7272 68.5095C34.2044 68.5095 32.6817 68.4273 31.2 68.3862C28.1957 68.2218 25.2325 68.0163 22.1869 67.7697C16.2194 67.2766 10.2518 66.619 4.32536 65.9203L4.77807 64.8107L7.37088 67.1533L9.84022 69.6191C11.4453 71.3041 13.0092 73.0302 14.5731 74.7563C16.137 76.4824 17.5775 78.2907 19.1003 80.0579C20.5407 81.8251 22.0223 83.6745 23.4628 85.4827C26.3437 89.1404 29.1423 92.7981 31.8997 96.538C34.6571 100.278 37.3734 104.018 40.0074 107.84L40.9951 109.237L39.9251 110.676C38.2788 112.566 36.5091 114.374 34.6983 116.018C32.8874 117.662 30.9943 119.224 29.0599 120.744C27.1668 122.224 25.1502 123.662 23.1747 125.019C21.1992 126.375 19.1414 127.69 17.0425 128.923L16.8367 127.772C20.0057 128.224 23.257 128.676 26.4671 129.046C29.6773 129.416 32.8874 129.786 36.0976 129.991L37.2911 130.074C37.4557 130.074 37.7026 130.115 37.9907 130.115C38.2377 130.115 38.4435 130.156 38.6904 130.197C39.637 130.32 40.5012 130.567 41.3655 130.896C43.094 131.512 44.6168 132.416 46.0984 133.444C47.58 134.471 48.8147 135.663 50.0494 136.896C50.6255 137.512 51.2429 138.17 51.7779 138.786C52.066 139.115 52.3129 139.485 52.601 139.814L52.9714 140.307C53.0949 140.471 53.2184 140.636 53.383 140.841L53.4241 140.882C54.2061 141.992 53.8768 143.471 52.8068 144.252C51.6956 145.033 50.214 144.704 49.432 143.636C49.3086 143.471 49.2262 143.43 49.2262 143.348Z" fill="#FFC947"/>
<path d="M212.075 139.937C215.161 140.553 218.289 141.129 221.417 141.622C222.981 141.827 224.545 142.074 226.15 142.197C226.932 142.279 227.714 142.321 228.496 142.362C229.278 142.403 230.06 142.362 230.8 142.279H230.842C231.006 142.238 231.171 142.362 231.171 142.567C231.171 142.731 231.089 142.896 230.924 142.896C230.101 143.06 229.319 143.142 228.496 143.142C227.673 143.184 226.891 143.184 226.068 143.142C224.462 143.101 222.899 143.019 221.252 142.896C218.083 142.649 214.873 142.321 211.704 141.91C211.169 141.827 210.716 141.334 210.799 140.759C210.881 140.225 211.375 139.772 211.951 139.855C211.992 139.896 212.033 139.937 212.075 139.937Z" fill="#FFC947"/>
<path d="M195.571 167.554C200.55 167.678 205.448 167.801 210.428 168.006C212.897 168.089 215.367 168.171 217.877 168.294C219.112 168.335 220.346 168.417 221.581 168.5C222.198 168.541 222.816 168.582 223.433 168.623L224.38 168.705L225.326 168.828C225.532 168.869 225.697 169.034 225.655 169.28C225.614 169.486 225.45 169.65 225.244 169.609H225.203L224.297 169.527L223.351 169.486C222.775 169.445 222.116 169.445 221.54 169.445C220.305 169.445 219.071 169.445 217.836 169.445C215.367 169.445 212.897 169.486 210.387 169.527C205.448 169.609 200.509 169.733 195.571 169.856C194.953 169.856 194.377 169.363 194.336 168.705C194.336 168.089 194.83 167.513 195.488 167.472C195.529 167.554 195.571 167.554 195.571 167.554Z" fill="#FFC947"/>
<path d="M186.564 180.377C190.268 180.665 193.972 180.87 197.594 181.117C201.298 181.322 205.002 181.487 208.665 181.61C212.369 181.733 216.073 181.816 219.736 181.774C221.547 181.733 223.44 181.692 225.251 181.569C225.703 181.528 226.197 181.487 226.609 181.446C227.062 181.405 227.514 181.363 227.967 181.281C228.872 181.158 229.778 180.994 230.56 180.583C230.683 180.5 230.848 180.583 230.889 180.706C230.93 180.829 230.889 180.952 230.807 181.035C229.901 181.487 228.996 181.651 228.09 181.898C227.638 181.98 227.144 182.062 226.691 182.103C226.238 182.185 225.745 182.226 225.292 182.268C223.44 182.473 221.588 182.555 219.736 182.637C216.032 182.802 212.287 182.843 208.624 182.802C204.92 182.802 201.175 182.72 197.512 182.637C193.808 182.555 190.104 182.432 186.4 182.268C185.906 182.226 185.453 181.816 185.453 181.24C185.535 180.747 185.947 180.336 186.564 180.377C186.523 180.377 186.523 180.377 186.564 180.377Z" fill="#FFC947"/>
<path d="M186.52 288.915C192.323 289.368 198.208 289.861 204.011 290.272C206.933 290.477 209.855 290.642 212.777 290.806C214.217 290.888 215.699 290.97 217.139 291.011C217.88 291.053 218.58 291.053 219.321 291.053C219.691 291.053 220.061 291.053 220.432 291.053C220.596 291.053 220.802 291.053 220.967 291.011L221.214 290.97C221.296 290.97 221.337 290.929 221.42 290.929H221.543C221.667 290.929 221.79 291.011 221.831 291.135C221.831 291.258 221.79 291.381 221.667 291.422C221.543 291.463 221.42 291.505 221.337 291.505L221.049 291.546C220.843 291.587 220.679 291.587 220.514 291.587C220.144 291.628 219.773 291.628 219.403 291.628C218.662 291.669 217.921 291.669 217.181 291.669C215.699 291.669 214.259 291.669 212.777 291.669C209.855 291.628 206.933 291.587 203.97 291.505C198.125 291.34 192.24 291.176 186.396 290.97C185.82 290.929 185.367 290.477 185.367 289.861C185.408 289.285 185.861 288.833 186.478 288.833C186.478 288.874 186.52 288.874 186.52 288.915Z" fill="#FFC947"/>
<path d="M181.621 304.985C190.881 305.149 200.183 305.355 209.443 305.683C214.052 305.807 218.703 305.971 223.312 306.176C225.658 306.259 227.922 306.382 230.267 306.505C231.42 306.587 232.613 306.629 233.766 306.752L235.494 306.916L237.223 307.163C237.305 307.163 237.387 307.245 237.346 307.327C237.346 307.409 237.264 307.45 237.182 307.45L235.494 307.286L233.766 307.204C232.613 307.122 231.461 307.122 230.267 307.081C227.963 307.04 225.658 306.998 223.312 306.957C218.703 306.916 214.052 306.916 209.443 306.916C200.183 306.957 190.923 307.04 181.621 307.163C181.045 307.163 180.51 306.711 180.51 306.053C180.469 305.478 180.963 304.985 181.621 304.985C181.58 304.985 181.58 304.985 181.621 304.985Z" fill="#FFC947"/>
<path d="M183.431 319.163C191.291 319.451 199.193 319.78 207.054 320.191C211.005 320.396 214.915 320.561 218.866 320.807C220.8 320.931 222.817 321.054 224.751 321.177C225.739 321.259 226.685 321.341 227.673 321.424C228.167 321.465 228.661 321.506 229.155 321.588C229.401 321.629 229.648 321.629 229.937 321.67C230.06 321.711 230.183 321.711 230.307 321.752L230.677 321.835C230.842 321.876 230.924 322.04 230.883 322.205C230.842 322.369 230.677 322.451 230.513 322.41H230.472L230.183 322.328L229.854 322.287C229.607 322.246 229.401 322.246 229.113 322.205C228.661 322.163 228.126 322.163 227.673 322.122C226.685 322.081 225.739 322.04 224.751 321.999C222.817 321.958 220.841 321.917 218.866 321.876C214.915 321.835 211.005 321.794 207.054 321.794C199.193 321.752 191.291 321.794 183.431 321.835C182.649 321.835 182.031 321.218 182.031 320.437C182.031 319.657 182.649 319.04 183.431 319.04C183.389 319.163 183.431 319.163 183.431 319.163Z" fill="#FFC947"/>
<path d="M175.36 327.629C183.056 328.328 190.711 328.944 198.408 329.479C202.276 329.725 206.104 329.972 209.972 330.177C211.865 330.26 213.841 330.342 215.734 330.383C216.722 330.383 217.627 330.424 218.615 330.383C219.562 330.342 220.508 330.342 221.414 330.136H221.455C221.578 330.095 221.743 330.177 221.743 330.342C221.784 330.465 221.702 330.588 221.578 330.629C220.591 330.876 219.644 330.958 218.656 330.999C217.668 331.082 216.722 331.082 215.775 331.123C213.841 331.164 211.907 331.164 209.972 331.164C206.104 331.164 202.235 331.082 198.366 330.999C190.629 330.794 182.933 330.506 175.237 330.136C174.496 330.095 173.961 329.52 174.002 328.78C174.043 328.04 174.62 327.506 175.36 327.547C175.319 327.629 175.36 327.629 175.36 327.629Z" fill="#FFC947"/>
<path d="M211.257 236.64C211.051 235.818 210.639 235.037 210.022 234.42C209.446 233.845 208.664 233.352 207.8 233.146C207.388 233.064 206.935 232.941 206.524 232.9C206.318 232.9 206.112 232.859 205.906 232.859H205.207C205.001 232.859 204.795 232.9 204.507 232.9L203.807 232.982C203.396 233.023 202.902 233.146 202.449 233.188C200.68 233.516 198.869 233.968 197.181 234.503C195.453 234.996 193.724 235.653 192.119 236.393H192.078C191.749 236.558 191.378 236.393 191.214 236.105C191.049 235.777 191.214 235.407 191.502 235.242C193.23 234.462 195 233.927 196.811 233.475C198.581 233.023 200.433 232.571 202.244 232.324C202.696 232.283 203.149 232.201 203.602 232.16L204.343 232.119C204.589 232.078 204.795 232.078 205.083 232.078H205.824C206.071 232.078 206.277 232.119 206.565 232.16C207.018 232.201 207.511 232.324 207.964 232.448C208.911 232.735 209.734 233.311 210.434 234.009C211.051 234.749 211.586 235.571 211.751 236.599C211.792 236.763 211.668 236.886 211.545 236.927C211.462 236.886 211.298 236.804 211.257 236.64Z" fill="black"/>
<path d="M81.6094 126.539C81.6094 126.539 84.8607 132.17 87.865 133.074C90.8283 133.978 87.3712 122.018 87.2477 121.813" stroke="black" stroke-width="1.27386" stroke-miterlimit="10" stroke-linecap="round"/>
<path d="M137.5 119.84C137.5 119.84 133.014 129.128 134.001 130.115C135.03 131.06 137.212 130.279 137.212 130.279" stroke="black" stroke-width="1.27386" stroke-miterlimit="10" stroke-linecap="round"/>
</svg>
