<svg width="245" height="346" viewBox="0 0 245 346" fill="none" xmlns="http://www.w3.org/2000/svg">
<path d="M106.594 23.4256L102.602 25.8092L99.227 31.0697L96.1814 39.1248L93.8356 48.2074L92.0659 62.0983L91.0781 87.9076L91.2016 93.0448L93.6709 97.771L97.0457 103.278L102.561 109.525L108.816 114.868L116.265 118.484L123.385 119.306L130.423 117.868L137.954 113.265L143.099 108.497L148.696 100.689L152.112 93.4557L155.158 85.4828L156.433 79.2771L153.017 62.5093L148.49 50.3444L141.041 37.522L132.275 28.5628L122.398 22.8502L115.072 21.3296L106.594 23.4256Z" fill="#FFF3DD"/>
<path d="M75.3999 106.401L74.8237 100.73L72.8071 100.319L71.0785 98.5107L67.4568 98.6751L62.9708 100.894L55.357 107.018L50.8299 113.429L47.3728 121.279L44.245 134.677L43.4219 142.362L44.3685 148.321L45.6031 151.691L48.0313 154.116L51.8588 156.047L56.1801 156.664L63.012 156.006L72.1897 153.253L72.6836 142.691L75.1529 131.265L71.4901 132.416L64.6582 135.375L63.1766 135.581L63.9997 132.416L66.716 124.361L69.3911 125.101L71.4901 125.142L74.7825 123.128L77.9104 120.046L76.0995 110.018L75.3999 106.401Z" fill="#FFF3DD"/>
<path d="M164.258 182.473L164.546 194.925L175.658 208.364L177.963 210.707L182.243 213.419L187.881 213.46L193.437 210.132L195.372 205.282L194.754 197.227L191.832 190.692L186.358 183.131L180.761 176.637L174.753 178.404L171.789 178.199L170.719 180.089L164.258 182.473Z" fill="#FFF3DD"/>
<path d="M103.875 9.41134C103.875 9.41134 125.029 -3.0823 148.118 11.9183C171.206 26.9189 178.161 38.0563 180.342 52.6459C182.524 67.2356 180.919 92.8804 179.561 103.319C178.202 113.758 175.692 152.266 186.063 170.966C186.063 170.966 189.026 173.432 184.952 174.87C180.878 176.308 175.157 178.815 171.494 177.665C171.494 177.665 171.288 179.719 169.354 180.336C167.42 180.952 163.757 181.774 163.757 181.774C163.757 181.774 160.3 183.418 159.312 178.445C158.324 173.473 157.419 168.541 156.678 166.445C155.896 164.349 154.908 161.102 153.509 166.938C152.151 172.774 152.398 181.651 152.398 181.651C152.398 181.651 152.892 184.98 150.546 184.774C148.2 184.569 145.113 182.596 144.907 179.021C144.702 175.404 145.195 159.623 147.171 150.828C149.146 142.074 154.785 111.251 155.443 104.141C156.102 97.0724 159.723 86.798 152.768 61.3997C145.772 36.0014 125.194 15.6993 107.168 22.5215C89.1414 29.3436 91.1992 86.7158 90.9523 99.1683C90.7053 111.621 97.0433 136.608 97.3725 141.17C97.6606 145.732 95.4382 160.321 93.4628 162.212C91.4873 164.102 85.602 145.198 82.433 135.17C79.264 125.142 72.8437 101.675 73.9961 81.2087C75.1485 60.7422 77.0828 45.495 81.7334 34.6863C86.384 23.8777 95.1913 13.1101 103.875 9.41134Z" fill="#3E3116"/>
<path d="M156.554 82.5649L157.007 91.9352L155.319 103.155L153.179 117.58L149.804 116.306L146.1 114.046L141.45 113.594L138.445 113.306L141.779 109.977L146.018 104.511L149.475 98.8807L153.014 91.4009L156.554 82.5649Z" fill="#302615"/>
<path d="M91.2001 93.0448L93.6694 97.771L97.0442 103.278L102.559 109.525L103.382 110.265L101.036 112.114L92.5994 116.265L91.5293 108.045L90.9531 99.1683L91.2001 93.0448Z" fill="#302615"/>
<path d="M105.238 69.7014C105.197 71.1398 104.086 72.2495 102.687 72.2084C101.328 72.1673 100.094 70.2768 100.094 68.8384C100.135 67.4 101.37 67.0301 102.769 67.0712C104.168 67.1123 105.279 68.263 105.238 69.7014Z" fill="#3E3116"/>
<path d="M133.919 64.3998C134.987 64.3998 135.853 63.535 135.853 62.4683C135.853 61.4015 134.987 60.5367 133.919 60.5367C132.85 60.5367 131.984 61.4015 131.984 62.4683C131.984 63.535 132.85 64.3998 133.919 64.3998Z" fill="#3E3116"/>
<path d="M104.125 94.7298L124.744 87.3734L134.416 84.1267L141.536 84.0034L142.359 86.8391V88.8118L140.054 87.3734L137.585 86.6336L136.062 86.4692L135.362 88.1953L133.839 89.757L126.843 91.8119L117.295 95.0175L109.846 98.5108L107.171 99.7437L104.125 94.7298Z" fill="white"/>
<path d="M107.172 99.7437L119.395 94.1955L133.841 89.757L135.364 88.1953L135.693 86.4281L138.45 86.7158L140.055 87.3733L142.031 88.6474L140.138 97.0724L136.927 102.127L132.112 105.991L126.35 107.922L119.189 107.881L113.304 105.744L107.172 99.7437Z" fill="#DA7FB4"/>
<path d="M114.289 105.908C114.289 105.908 119.845 100.072 126.265 97.9353C132.645 95.7983 140.135 97.0312 140.135 97.0312L137.254 101.881L132.933 105.538L127.665 107.593L122.232 108.415L116.511 107.141L114.289 105.908Z" fill="#A13D7A"/>
<path d="M78.9349 124.279L76.8772 125.553L75.1486 131.265L73.2966 140.184L72.2266 149.431L72.9262 155.472L74.1609 159.089L76.2598 160.65L80.3342 160.732L88.0715 159.993L86.2195 176.843L82.2686 211.447L80.7458 222.831L81.4866 230.968L83.4621 233.311L88.7712 232.694L105.192 231.256L116.798 230.927L131.491 232.037L149.599 233.434L158.571 231.996L161.699 230.639L163.428 223.776L164.086 212.639L164.251 182.473L160.958 181.98L158.654 177.171L156.678 166.404L155.361 164.102L154.044 165.253L152.933 171.952L152.439 181.61L151.986 184.487L150.464 185.227L147.007 183.87L144.866 181.076L144.825 170.267L145.731 158.554L152.151 124.895L153.18 117.58L150.464 116.265L144.825 114.046L138.446 113.306L136.882 121.402L134.166 128.759L129.474 133.115L123.877 134.142L119.226 132.827L113.053 126.334L107.991 117.827L106.509 113.018L103.381 110.265L101.036 112.114L92.5986 116.265L96.6319 137.882L97.4962 143.266L96.3438 153.705L93.4629 162.212L92.681 162.746L89.0593 156.294L83.4209 138.499L78.9349 124.279Z" fill="#6BBE45"/>
<path d="M88.7734 232.694L110.668 231.05L116.8 230.927L135.197 232.489L149.602 233.434L157.339 232.242L158.285 245.352L158.615 264.134L157.339 274.614L154.828 282.093L141.659 281.806L136.267 281.189L136.432 279.504L130.876 258.216L127.871 255.133L125.772 255.996L123.262 262.161L120.916 279.011L115.936 280.038L107.252 280.203L101.737 279.997L99.227 267.422L88.7734 232.694Z" fill="#6BBE45"/>
<path d="M95.8952 278.312L100.463 280.08L110.053 280.45L120.301 279.176L124.005 278.025L125.404 281.929L128.079 309.916L129.231 321.383L129.355 325.739L126.68 329.068L119.642 331.246L104.126 332.274L90.0922 333.26L87.7875 332.397L87.6641 330.424L103.097 317.766L104.497 315.177V313.245L102.192 308.725L97.8707 292.286L95.8952 278.312Z" fill="#F7EC13"/>
<path d="M131.492 277.285L130.01 278.929L129.969 284.847L136.471 321.711L138.406 324.794L141.822 326.602L150.67 326.479L168.12 322.328L169.766 320.437L167.914 317.109L160.012 312.588L154.086 309.958L153.139 307.615L159.93 287.683L162.564 280.08L158.49 281.559L143.139 282.052L135.731 280.902L132.273 279.669L131.492 277.285Z" fill="#F7EC13"/>
<path d="M134.5 274.285L132.936 275.436L131.742 277.573L131.866 279.504L134.541 280.449L136.599 281.148L135.652 277.655L134.5 274.285Z" fill="#CBC62C"/>
<path d="M157.339 274.614L159.973 275.805L162.318 277.737L162.565 280.08L159.643 281.107L154.828 282.093L157.339 274.614Z" fill="#CBC62C"/>
<path d="M121.284 274.573L123.054 275.847L123.795 277.203L122.56 278.6L120.914 279.011L121.284 274.573Z" fill="#CBC62C"/>
<path d="M100.705 273.792L101.775 280.08L96.4662 278.559L96.0547 277.203L100.705 273.792Z" fill="#CBC62C"/>
<path d="M193.844 196.282L198.042 193.323L200.717 194.104L201.746 196.364L199.317 199.57L195.161 203.186L193.844 196.282Z" fill="#7CD2EF"/>
<path d="M178.53 211.036L177.377 214.324L176.719 216.091L178.9 220.118L180.176 220.283L183.592 217.283L185.773 213.872L180.176 212.762L178.53 211.036Z" fill="#6EBACE"/>
<path d="M92.4297 162.911C92.4297 162.911 97.0391 169.979 98.5207 162.911C100.002 155.842 102.225 139.321 104.529 136.855C106.834 134.389 114.942 146.019 122.556 145.814C130.169 145.567 140.335 129.211 140.788 138.457C141.24 147.663 137.989 179.76 141.57 182.555C145.15 185.35 150.994 185.35 150.994 185.35L147.578 183.911L144.862 181.035L145.438 160.773L148.648 141.992L153.34 117.539L146.508 114.374L138.359 113.265L137.289 121.114L134.162 128.224L130.746 132.334L125.313 134.389L119.222 132.827L113.872 127.156L106.505 114.415L106.135 112.525L103.748 110.511L92.8824 116.018L94.6109 127.279L97.2449 141.047L96.2572 151.157L94.6933 159.294L93.6232 162.253L92.4297 162.911Z" fill="#63A043"/>
<path d="M107 113.758L114.038 117.539L120.211 119.059L126.919 118.566L131.817 117.457L138.361 113.306L137.332 119.018L135.151 126.416L130.788 132.375L125.355 134.43L120.705 133.608L114.861 128.676L110.251 121.731L107 113.758Z" fill="#E2D3BD"/>
<path d="M152.477 182.103C152.477 182.103 155.316 165.623 159.061 178.61L157.168 168.13L155.275 164.061L153.752 166.239L152.477 175.322V182.103Z" fill="#63A043"/>
<path d="M89.1777 233.845L90.2889 237.092C90.7417 238.407 92.0586 239.27 93.4579 239.105C98.5201 238.571 110.208 237.461 116.094 237.749C123.666 238.119 147.866 242.27 153.586 242.064C158.072 241.941 157.702 239.229 157.743 237.708C157.784 236.722 157.208 234.461 156.961 233.187C156.879 232.653 156.344 232.283 155.809 232.324L146.713 233.187C146.631 233.187 146.59 233.187 146.508 233.187L134.943 232.283L121.238 231.091C121.197 231.091 121.197 231.091 121.156 231.091L113.624 230.927C113.583 230.927 113.583 230.927 113.542 230.927L97.3266 231.79L90.042 232.448C89.3835 232.489 88.9308 233.187 89.1777 233.845Z" fill="#63A043"/>
<path d="M93.4139 205.2C93.4139 205.2 92.4262 202.405 96.0067 202.118C99.5461 201.83 109.3 198.706 110.041 204.748C110.782 210.789 109.3 209.351 109.3 209.351L108.107 205.611L105.308 203.515L98.8465 203.885L93.4139 205.2Z" fill="#63A043"/>
<path d="M138.031 206.433C138.031 206.433 137.455 202.693 140.048 202.652C142.641 202.611 157.745 199.241 158.362 209.145C158.362 209.145 158.65 215.228 157.086 213.337L155.893 209.433L152.806 206.556L147.085 205.2L138.031 206.433Z" fill="#63A043"/>
<path d="M70.2457 153.91L72.4269 153.335L72.3858 145.567L74.9374 131.594L71.3157 132.416C71.2746 132.416 66.089 153.54 70.2457 153.91Z" fill="#E2D3BD"/>
<path d="M164.413 195.419L164.289 182.35L169.269 180.624L171.574 178.199L174.66 178.24L180.875 176.637L183.056 179.925C183.056 179.925 168.405 183.172 168.487 198.871L164.413 195.419Z" fill="#E2D3BD"/>
<path d="M101.852 279.956L101.234 275.929C101.234 275.929 108.395 276.833 111.853 276.627C115.31 276.422 120.989 274.737 120.989 274.737L120.948 279.258L111.112 280.162L101.852 279.956Z" fill="#63A043"/>
<path d="M135.562 276.627C135.562 276.627 140.748 278.6 145.851 278.6C150.955 278.6 156.799 276.915 156.799 276.915L154.823 282.217L143.423 282.052L136.427 281.148L135.562 276.627Z" fill="#63A043"/>
<path d="M98.7232 46.4813C102.715 31.3985 113.58 7.39753 137.986 40.8098C160.621 71.7562 152.802 91.9762 152.802 91.9762L156.506 81.7018L154.407 67.1944L151.032 56.0159L143.171 40.9331L136.051 31.9738L125.227 24.0009L116.132 21.3296L106.255 23.2612L101.728 26.5079L96.2538 37.6042L92.6733 54.372L91.3152 69.8658L91.1094 93.0859L93.2906 97.1134C93.2906 97.1545 94.7311 61.5641 98.7232 46.4813Z" fill="#E2D3BD"/>
<path d="M104.9 96.2504C104.9 96.2504 121.568 89.3871 125.478 88.4419C129.388 87.4966 133.997 84.5376 142.517 85.113L141.693 82.4417L137.66 82.6882L131.816 84.9075L120.539 88.7707L103.789 94.812L104.9 96.2504Z" fill="#E2E2E2"/>
<path d="M74.3202 100.648L71.8509 99.2505L70.3281 98.7573C70.3281 98.7573 71.8509 123.662 75.1022 122.758C78.3535 121.854 77.7362 117.005 77.7362 117.005L75.8018 109.689L74.3202 100.648Z" fill="#E2D3BD"/>
<path d="M103.836 9.82229C103.836 9.82229 124.99 -2.67135 148.078 12.3292C171.167 27.3298 178.122 38.4673 180.303 53.0569C182.485 67.6465 180.88 93.2914 179.521 103.73C178.163 114.169 175.612 152.677 185.983 171.377C185.983 171.377 188.946 173.843 184.872 175.281C180.797 176.719 175.077 179.226 171.414 178.076C171.414 178.076 171.208 180.13 169.274 180.747C167.381 181.322 163.677 182.185 163.677 182.185C163.677 182.185 160.219 183.829 159.232 178.856C158.244 173.884 157.339 168.952 156.598 166.856C155.816 164.76 154.828 161.513 153.429 167.349C152.071 173.185 152.318 182.062 152.318 182.062C152.318 182.062 152.811 185.391 150.466 185.185C148.12 184.98 145.033 183.007 144.827 179.432C144.621 175.815 145.115 160.034 147.091 151.239C149.066 142.485 154.705 111.662 155.363 104.552C156.022 97.4833 159.643 87.2089 152.688 61.8107C145.691 36.4124 125.114 16.1102 107.087 22.9324C89.0612 29.7546 91.1601 87.1678 90.9132 99.6204C90.6663 112.073 97.0042 137.06 97.3335 141.622C97.6216 146.184 95.3992 160.773 93.4237 162.664C91.4482 164.554 85.563 145.65 82.394 135.622C79.225 125.594 72.8047 102.127 73.957 81.6608C75.1094 61.1942 77.0437 45.947 81.6943 35.1384C86.3449 24.3297 95.1522 13.5211 103.836 9.82229Z" stroke="black" stroke-width="1.23467" stroke-miterlimit="10" stroke-linecap="round" stroke-linejoin="round"/>
<path d="M92.7667 57.8241C93.3018 57.2487 93.8779 56.7556 94.4541 56.2624C95.0303 55.7692 95.6476 55.2761 96.3473 54.8651C97.0058 54.4541 97.7054 54.0431 98.4874 53.7555C99.2693 53.4678 100.092 53.2212 101.039 53.2212C101.615 53.2212 102.068 53.6733 102.109 54.2486C102.15 54.824 101.656 55.2761 101.08 55.3172C101.039 55.3172 100.998 55.3172 100.998 55.3172C100.422 55.2761 99.8044 55.3583 99.1459 55.5637C98.4874 55.7281 97.87 56.0569 97.2527 56.3446C96.6354 56.6734 96.018 57.0433 95.4007 57.4542C94.8245 57.8652 94.2072 58.3173 93.6722 58.7694C93.4252 58.9748 93.0137 58.9748 92.8079 58.6872C92.561 58.3995 92.5609 58.0296 92.7667 57.8241Z" fill="black"/>
<path d="M127.26 49.4404C127.795 49.3582 128.248 49.3171 128.701 49.276C129.153 49.2349 129.647 49.2349 130.1 49.2349C131.046 49.2349 131.952 49.3171 132.898 49.4404C133.804 49.5636 134.75 49.8102 135.615 50.0979C136.52 50.3856 137.343 50.7966 138.166 51.2486C138.454 51.413 138.578 51.7829 138.413 52.0706C138.249 52.3583 137.919 52.4816 137.631 52.3583H137.59C136.808 52.0295 136.026 51.7007 135.203 51.5363C134.38 51.3308 133.557 51.2075 132.693 51.1664C131.87 51.1253 131.005 51.1253 130.182 51.2075C129.771 51.2486 129.359 51.2897 128.947 51.3719C128.536 51.4541 128.124 51.5363 127.754 51.6185H127.713C127.137 51.7829 126.519 51.4541 126.355 50.8377C126.19 50.2623 126.519 49.6458 127.137 49.4814C127.219 49.4404 127.219 49.4404 127.26 49.4404Z" fill="black"/>
<path d="M94.6637 73.7289C95.0752 72.6604 95.6514 71.7151 96.3099 70.811C96.9684 69.9069 97.7504 69.0849 98.6558 68.3862C99.0673 68.0164 99.5612 67.7287 100.055 67.3999C100.549 67.1533 101.043 66.8656 101.619 66.6601C102.689 66.2081 103.8 66.0026 104.953 65.8382C105.405 65.756 105.817 66.0848 105.899 66.5369C105.981 66.9889 105.652 67.3999 105.2 67.4821H105.158H105.076C104.088 67.5643 103.059 67.6465 102.113 67.9753C101.619 68.0986 101.166 68.3451 100.714 68.5095C100.261 68.7561 99.8081 68.9616 99.3966 69.2904C98.5323 69.8658 97.7504 70.5644 97.0919 71.3453C96.4334 72.1261 95.816 73.0303 95.3633 73.9344V73.9755C95.281 74.1399 95.0752 74.2221 94.9106 74.1399C94.6637 74.0577 94.5814 73.8933 94.6637 73.7289Z" fill="black"/>
<path d="M124.091 63.0435C124.914 62.3038 125.819 61.6873 126.807 61.1941C127.754 60.701 128.782 60.29 129.853 60.0023C130.923 59.7146 131.993 59.5091 133.104 59.5091C134.215 59.4269 135.326 59.5502 136.437 59.7146C136.808 59.7557 137.055 60.1256 137.014 60.4544C136.972 60.7832 136.602 61.0708 136.273 61.0297C136.273 61.0297 136.273 61.0297 136.232 61.0297H136.19C135.203 60.8243 134.174 60.6599 133.186 60.6599C132.157 60.6188 131.128 60.7421 130.141 60.9886C129.153 61.1941 128.165 61.5229 127.219 61.975C126.272 62.386 125.367 62.9613 124.585 63.5778H124.543C124.379 63.7011 124.173 63.66 124.05 63.5367C123.967 63.3723 123.967 63.1668 124.091 63.0435Z" fill="black"/>
<path d="M100.422 69.3315C100.422 69.3315 101.533 73.5234 104.126 72.085C106.719 70.6877 104.291 67.03 102.562 67.6876" stroke="black" stroke-width="1.23467" stroke-miterlimit="10" stroke-linecap="round" stroke-linejoin="round"/>
<path d="M132.772 60.6599C132.772 60.6599 131.167 62.1394 131.949 63.2902C132.772 64.3998 134.048 64.9752 135.036 64.3998C136.024 63.8244 136.188 62.5504 135.694 61.8518C135.242 61.1531 134.213 60.2901 133.719 60.4133" stroke="black" stroke-width="1.23467" stroke-miterlimit="10" stroke-linecap="round" stroke-linejoin="round"/>
<path d="M104.047 94.7298L130.551 85.2362C130.551 85.2362 138.535 81.7018 141.581 82.5649C144.626 83.4279 140.881 94.9763 140.264 96.7435C139.4 99.2094 136.313 103.977 131.004 106.648C128.205 108.045 121.209 108.949 116.599 107.265C111.949 105.538 106.352 100.237 104.047 94.7298Z" stroke="black" stroke-width="1.23467" stroke-miterlimit="10" stroke-linecap="round" stroke-linejoin="round"/>
<path d="M107.461 99.5381C107.461 99.5381 117.215 94.6064 122.359 93.0858C127.504 91.5652 132.895 89.8391 132.895 89.8391C132.895 89.8391 135.159 89.5925 135.282 87.8253C135.406 86.0582 136.558 85.7294 140.262 87.4966" stroke="black" stroke-width="1.23467" stroke-miterlimit="10" stroke-linecap="round" stroke-linejoin="round"/>
<path d="M91.25 93.2913C91.25 93.2913 104.79 122.882 126.644 118.772C148.456 114.662 156.029 82.3183 156.029 82.3183" stroke="black" stroke-width="1.23467" stroke-miterlimit="10" stroke-linecap="round" stroke-linejoin="round"/>
<path d="M93.2656 115.895C93.2656 115.895 100.632 111.744 102.731 111.21" stroke="black" stroke-width="1.23467" stroke-miterlimit="10" stroke-linecap="round" stroke-linejoin="round"/>
<path d="M139.312 113.265C139.312 113.265 147.461 113.635 152.153 117.375" stroke="black" stroke-width="1.23467" stroke-miterlimit="10" stroke-linecap="round" stroke-linejoin="round"/>
<path d="M106.758 114.169C106.758 114.169 114.742 134.841 124.578 134.224C134.414 133.649 136.225 124.854 138.324 114.415" stroke="black" stroke-width="1.23467" stroke-miterlimit="10" stroke-linecap="round" stroke-linejoin="round"/>
<path d="M73.3436 100.442C73.3436 100.442 70.0923 93.9078 57.2929 105.251C44.4934 116.594 41.2833 144.828 45.3166 150.992C49.3498 157.157 56.8813 158.678 70.1335 153.91" stroke="black" stroke-width="1.23467" stroke-miterlimit="10" stroke-linecap="round" stroke-linejoin="round"/>
<path d="M77.2084 120.621C77.2084 120.621 70.3354 131.307 61.8984 119.717" stroke="black" stroke-width="1.23467" stroke-miterlimit="10" stroke-linecap="round" stroke-linejoin="round"/>
<path d="M66.4684 124.895L63.5875 133.937C63.5875 133.937 61.7767 137.553 66.1804 134.923C70.584 132.334 73.7942 131.676 73.7942 131.676" stroke="black" stroke-width="1.23467" stroke-miterlimit="10" stroke-linecap="round" stroke-linejoin="round"/>
<path d="M76.6745 125.799C76.6745 125.799 68.6491 149.883 74.3697 158.965C74.9459 159.869 75.8925 160.486 76.9626 160.691C79.0615 161.061 83.1771 161.39 88.8977 159.705" stroke="black" stroke-width="1.23467" stroke-miterlimit="10" stroke-linecap="round" stroke-linejoin="round"/>
<path d="M181.093 177.336C181.093 177.336 191.876 188.884 193.646 194.72C195.415 200.556 196.609 208.323 192.164 211.2C187.719 214.077 181.958 216.091 175.62 208.036C169.24 199.98 165.742 195.871 165.742 195.871" stroke="black" stroke-width="1.23467" stroke-miterlimit="10" stroke-linecap="round" stroke-linejoin="round"/>
<path d="M164.173 182.925C164.173 182.925 165.778 224.475 161.786 230.393C157.794 236.27 121.576 230.721 115.65 230.927C109.724 231.132 90.5451 231.872 85.6887 233.393C80.8323 234.913 80.7912 226.858 81.1616 220.694C81.5731 214.529 87.623 168.048 87.7465 161.308" stroke="black" stroke-width="1.23467" stroke-miterlimit="10" stroke-linecap="round" stroke-linejoin="round"/>
<path d="M93.7969 205.323C93.7969 205.323 109.395 199.076 109.313 209.392" stroke="black" stroke-width="1.23467" stroke-miterlimit="10" stroke-linecap="round" stroke-linejoin="round"/>
<path d="M138.328 206.351C138.328 206.351 156.478 201.83 157.013 213.255" stroke="black" stroke-width="1.23467" stroke-miterlimit="10" stroke-linecap="round" stroke-linejoin="round"/>
<path d="M89.1484 233.845C89.1484 233.845 100.425 268.12 101.701 278.806" stroke="black" stroke-width="1.23467" stroke-miterlimit="10" stroke-linecap="round" stroke-linejoin="round"/>
<path d="M121 277.326C121 277.326 122.358 256.12 127.297 255.298C132.236 254.476 134.54 275.805 136.433 279.915" stroke="black" stroke-width="1.23467" stroke-miterlimit="10" stroke-linecap="round" stroke-linejoin="round"/>
<path d="M157.342 233.269C157.342 233.269 161.787 270.257 155.078 280.778" stroke="black" stroke-width="1.23467" stroke-miterlimit="10" stroke-linecap="round" stroke-linejoin="round"/>
<path d="M100.01 274.12C100.01 274.12 86.4702 280.778 109.641 280.285C132.812 279.792 121.288 274.449 121.288 274.449" stroke="black" stroke-width="1.23467" stroke-miterlimit="10" stroke-linecap="round" stroke-linejoin="round"/>
<path d="M133.714 274.737C133.714 274.737 123.837 281.354 145.732 282.093C167.627 282.833 164.252 277.203 158.325 275.23" stroke="black" stroke-width="1.23467" stroke-miterlimit="10" stroke-linecap="round" stroke-linejoin="round"/>
<path d="M95.5274 278.559C95.5274 278.559 100.384 306.505 103.018 310.656C105.652 314.807 106.475 316.78 93.6343 325.492C80.8349 334.205 90.3418 334.287 101.824 332.561C113.307 330.835 130.633 334.082 129.481 322.41C128.329 310.738 125.859 280.162 124.378 278.395C122.896 276.627 122.896 276.627 122.896 276.627" stroke="black" stroke-width="1.23467" stroke-miterlimit="10" stroke-linecap="round" stroke-linejoin="round"/>
<path d="M162.524 280.285C162.524 280.285 154.417 302.806 154.046 305.396C153.676 307.985 151.042 309.546 158.903 312.382C166.722 315.218 175.735 321.547 163.965 323.479C151.742 325.492 137.131 331.451 135.732 318.711C134.415 306.793 131.946 296.519 131.946 296.519C131.946 296.519 128.283 279.627 130.793 277.285" stroke="black" stroke-width="1.23467" stroke-miterlimit="10" stroke-linecap="round" stroke-linejoin="round"/>
<path d="M178.047 211.899C178.047 211.899 175.907 214.94 177.059 217.036C178.212 219.132 179.035 222.338 182.08 218.803C185.126 215.31 185.455 214.324 185.455 214.324" stroke="black" stroke-width="1.23467" stroke-miterlimit="10" stroke-linecap="round" stroke-linejoin="round"/>
<path d="M194.914 195.789C194.914 195.789 197.96 191.966 200.388 194.021C202.816 196.035 201.376 197.926 196.025 202.775" stroke="black" stroke-width="1.23467" stroke-miterlimit="10" stroke-linecap="round" stroke-linejoin="round"/>
<path d="M200.593 193.364C201.128 192.46 201.663 191.638 202.28 190.857C202.898 190.076 203.556 189.295 204.338 188.638C205.12 187.98 205.984 187.364 207.054 187.158C207.589 187.035 208.165 187.076 208.659 187.24C209.194 187.405 209.606 187.733 210.017 188.062C210.141 188.144 210.141 188.35 210.017 188.432C209.935 188.555 209.771 188.555 209.647 188.473C209.277 188.186 208.906 187.939 208.495 187.816C208.083 187.692 207.63 187.692 207.219 187.816C206.355 188.021 205.614 188.638 204.914 189.254C204.256 189.912 203.638 190.651 203.103 191.432C202.568 192.213 202.074 193.076 201.663 193.898C201.498 194.186 201.128 194.309 200.84 194.186C200.51 194.062 200.387 193.693 200.593 193.364C200.552 193.364 200.552 193.364 200.593 193.364Z" fill="black"/>
<path d="M171.337 219.872C171.173 219.954 170.967 220.2 170.843 220.447C170.679 220.694 170.555 220.94 170.432 221.228C170.185 221.762 170.02 222.338 169.897 222.872C169.856 223.159 169.856 223.447 169.897 223.653C169.938 223.735 169.979 223.817 170.02 223.817C170.02 223.817 170.061 223.817 170.103 223.858C170.144 223.858 170.185 223.858 170.226 223.858C170.432 223.817 170.679 223.735 170.926 223.57C171.049 223.488 171.173 223.447 171.296 223.365C171.42 223.283 171.543 223.201 171.625 223.118C172.078 222.79 172.531 222.379 172.984 221.968L174.301 220.735C175.165 219.913 176.029 219.091 176.811 218.228C177.058 217.981 177.428 217.981 177.675 218.187C177.922 218.433 177.922 218.803 177.716 219.05C177.716 219.05 177.716 219.05 177.675 219.091C176.77 219.954 175.864 220.735 174.918 221.516L173.519 222.666C173.066 223.036 172.572 223.447 172.037 223.776C171.913 223.858 171.79 223.94 171.625 224.023C171.502 224.105 171.337 224.187 171.214 224.269C170.926 224.392 170.638 224.557 170.226 224.598C170.144 224.598 170.02 224.598 169.897 224.557C169.773 224.516 169.65 224.475 169.568 224.392C169.362 224.228 169.279 224.023 169.238 223.817C169.156 223.447 169.238 223.118 169.28 222.79C169.403 222.173 169.65 221.598 169.938 221.022C170.103 220.735 170.226 220.488 170.432 220.242C170.638 219.995 170.802 219.707 171.173 219.543C171.255 219.502 171.378 219.543 171.42 219.625C171.461 219.707 171.42 219.831 171.337 219.872Z" fill="black"/>
</svg>
