<?xml version="1.0" encoding="utf-8"?><svg viewBox="0 0 30 30" xmlns="http://www.w3.org/2000/svg" xmlns:xlink="http://www.w3.org/1999/xlink"><style>:root>svg{display:none}:root>svg:target{display:block}</style><svg viewBox="0 0 7 12" id="arrow-nav" xmlns="http://www.w3.org/2000/svg"><g clip-path="url(#aclip0_2168_56)"><path d="M.987 11.732l-.972-.961 5.057-5.002L.015.768l.972-.962 5.057 5.001.973.962-6.03 5.963z"/></g><defs><clipPath id="aclip0_2168_56"><path transform="rotate(180 3.5 6)" d="M0 0h7v12H0z"/></clipPath></defs></svg><svg viewBox="0 0 25 25" id="social1" xmlns="http://www.w3.org/2000/svg"><path d="M7.009 2.413l1.73-.521a2.455 2.455 0 012.947 1.344l1.212 2.697a2.455 2.455 0 01-.565 2.803l-1.846 1.72c-.247.235-.06 1.15.844 2.716.905 1.567 1.604 2.187 1.926 2.09l2.418-.739a2.456 2.456 0 012.709.91l1.723 2.39a2.455 2.455 0 01-.303 3.219l-1.332 1.261a3.347 3.347 0 01-3.282.771c-2.791-.855-5.376-3.39-7.79-7.572-2.418-4.187-3.331-7.72-2.695-10.605A3.348 3.348 0 017.01 2.413z"/></svg><svg viewBox="0 0 30 30" id="social2" xmlns="http://www.w3.org/2000/svg"><path d="M16.746 26.247V16.002h3.457l.513-4.012h-3.97V9.435c0-1.157.323-1.95 1.984-1.95h2.105V3.91a27.92 27.92 0 00-3.084-.159c-3.055 0-5.152 1.865-5.152 5.289v2.944H9.165v4.011h3.441v10.253h4.14z"/></svg><svg viewBox="0 0 25 25" id="social3" xmlns="http://www.w3.org/2000/svg"><path fill-rule="evenodd" clip-rule="evenodd" d="M7.776 1.11c1.222-.056 1.612-.069 4.724-.069 3.113 0 3.502.014 4.723.07 1.22.054 2.054.25 2.783.532.764.288 1.457.74 2.03 1.322a5.597 5.597 0 011.32 2.029c.284.729.477 1.562.534 2.78.056 1.225.068 1.614.068 4.726s-.013 3.502-.068 4.724c-.056 1.218-.25 2.052-.534 2.781a5.621 5.621 0 01-1.32 2.03 5.618 5.618 0 01-2.03 1.321c-.729.283-1.562.477-2.78.533-1.224.057-1.613.07-4.726.07-3.112 0-3.502-.014-4.724-.07-1.219-.055-2.052-.25-2.781-.533a5.623 5.623 0 01-2.03-1.32 5.618 5.618 0 01-1.322-2.03c-.282-.73-.476-1.562-.532-2.781C1.054 16 1.04 15.61 1.04 12.5c0-3.113.014-3.502.07-4.723.055-1.22.25-2.054.532-2.783a5.62 5.62 0 011.323-2.03 5.617 5.617 0 012.028-1.321c.729-.283 1.562-.476 2.781-.533h.001zm9.354 2.063c-1.208-.055-1.57-.067-4.63-.067-3.06 0-3.422.012-4.63.067-1.118.05-1.724.237-2.128.395a3.558 3.558 0 00-1.318.856c-.38.37-.673.82-.856 1.317-.158.405-.344 1.01-.395 2.129-.055 1.208-.067 1.57-.067 4.63 0 3.06.012 3.422.067 4.63.051 1.118.237 1.724.395 2.128.183.497.476.948.856 1.318.37.38.82.673 1.318.856.404.157 1.01.344 2.128.395 1.208.055 1.57.067 4.63.067 3.06 0 3.422-.012 4.63-.067 1.118-.051 1.724-.238 2.128-.395a3.558 3.558 0 001.318-.856c.38-.37.673-.821.856-1.318.158-.404.344-1.01.395-2.128.055-1.208.067-1.57.067-4.63 0-3.06-.012-3.422-.067-4.63-.05-1.118-.237-1.724-.395-2.128a3.558 3.558 0 00-.856-1.318c-.37-.38-.82-.673-1.318-.856-.404-.158-1.01-.344-2.128-.395zm-6.093 12.86a3.821 3.821 0 004.166-6.236 3.822 3.822 0 10-4.166 6.235zM8.335 8.334a5.89 5.89 0 118.33 8.33 5.89 5.89 0 01-8.33-8.33zm11.36-.848a1.394 1.394 0 00-.975-2.405 1.393 1.393 0 10.976 2.405z"/></svg></svg>