<svg width="78" height="51" viewBox="0 0 78 51" fill="none" xmlns="http://www.w3.org/2000/svg">
<path opacity="0.8" d="M47.5136 9.43878L47.4286 11.3095C48.2789 11.5646 48.7891 12.415 48.7891 13.3503C48.7041 14.2857 48.0238 14.966 47.1735 15.1361L47.0884 17.0068C47.8537 17.3469 48.3639 18.1122 48.2789 19.0476C48.1939 19.898 47.5986 20.5782 46.8333 20.7483L46.7483 22.7041C47.5136 23.0442 48.0238 23.8095 47.9388 24.7449C47.8537 25.5952 47.2585 26.2755 46.4932 26.4456L46.4082 28.4014C47.2585 28.6565 47.8537 29.4218 47.7687 30.4422C47.6837 31.2925 47.0034 32.0578 46.1531 32.2279L46.068 34.0986C46.8333 34.4388 47.3435 35.2041 47.2585 36.0544C47.2585 36.9898 46.5782 37.7551 45.7279 37.9252C45.3027 39.5408 44.4524 40.6463 43.432 40.6463H36.7993C35.6088 40.6463 34.6735 39.2007 34.4184 37.1599C33.398 36.9898 32.6327 36.1395 32.7177 35.034C32.8027 34.1837 33.398 33.5034 34.1633 33.2483L34.0782 31.4626C33.0578 31.2925 32.2925 30.3571 32.3776 29.3367C32.4626 28.4864 33.0578 27.7211 33.9082 27.551L33.8231 25.6803C32.7177 25.5952 31.9524 24.6599 32.0374 23.5544C32.1225 22.7041 32.8027 21.9388 33.568 21.7687L33.483 19.983C32.4626 19.898 31.6973 18.9626 31.6973 17.8571C31.7823 16.9218 32.4626 16.2415 33.3129 16.0714L33.2279 14.2857C32.2075 14.1156 31.5272 13.1803 31.5272 12.1599C31.6122 11.2245 32.2075 10.5442 33.0578 10.3742L32.9728 8.5034C31.9524 8.41837 31.1871 7.48299 31.2721 6.37755C31.2721 5.52721 31.9524 4.7619 32.8027 4.59184C32.8878 2.04081 33.9082 0 35.2687 0H45.3027C46.8333 0 47.9388 2.55102 47.7687 5.44218V5.61224C48.619 5.95238 49.1293 6.71769 49.0442 7.65306C49.0442 8.58844 48.3639 9.26871 47.5136 9.43878Z" fill="#808080"/>
<path opacity="0.6" d="M77.0204 11.6498V40.9866C77.0204 45.9185 73.0238 50.0002 68.0068 50.0002H10.0136C4.9966 50.0002 1 45.9185 1 40.9866V11.6498C1 6.71786 4.9966 2.63623 10.0136 2.63623H31.1871C31.0737 3.03306 30.9887 3.42988 30.932 3.82671C30.8469 4.25188 30.5918 4.59201 30.2517 4.76208C29.4864 5.10222 28.9762 5.69746 28.8912 6.37773C28.8061 7.22807 29.4864 7.99337 30.4218 8.33351C30.7619 8.50358 31.102 8.84371 31.102 9.26888V9.52399C31.1871 9.94916 30.8469 10.3743 30.5068 10.6294C29.8265 10.8845 29.4014 11.4798 29.3163 12.16C29.2313 13.0104 29.8265 13.6907 30.7619 14.1158C31.1871 14.2009 31.4422 14.626 31.4422 15.0512V15.1362C31.5272 15.6464 31.2721 16.0716 30.8469 16.2417C30.0816 16.5818 29.5714 17.177 29.4864 17.8573C29.4864 18.7077 30.0816 19.473 31.017 19.8131C31.4422 19.9832 31.7823 20.3233 31.7823 20.7485L31.8673 20.9185C31.8673 21.4288 31.6122 21.8539 31.1871 22.024C30.5068 22.3641 29.9966 22.9594 29.9116 23.6396C29.8265 24.49 30.5068 25.2553 31.4422 25.5954C31.8673 25.6805 32.1224 26.1056 32.2075 26.5308V26.7009C32.2075 27.126 31.9524 27.5512 31.5272 27.8063C30.8469 28.1464 30.4218 28.6566 30.3367 29.3369C30.2517 30.1872 30.8469 30.9526 31.7823 31.2927C32.2075 31.4628 32.4626 31.8029 32.5476 32.2281V32.4832C32.5476 32.9083 32.2925 33.3335 31.8673 33.5036C31.2721 33.8437 30.8469 34.439 30.7619 35.0342C30.6769 35.9696 31.3571 36.7349 32.2925 37.075C32.6327 37.16 32.8878 37.5002 33.0578 37.8403C33.483 39.7111 34.5884 41.8369 35.8639 41.8369H44.2823C45.3878 41.8369 46.4082 40.0512 46.9184 38.4356C47.0884 38.1805 47.2585 37.9253 47.5986 37.7553C48.449 37.5002 49.0442 36.9049 49.1292 36.0546C49.2143 35.3743 48.7891 34.7791 48.1939 34.3539C47.8537 34.1838 47.5986 33.7587 47.5986 33.3335L47.6837 32.9934C47.6837 32.5682 48.0238 32.2281 48.3639 32.058C49.1292 31.7179 49.7245 31.1226 49.8095 30.4424C49.8095 29.677 49.3844 28.9968 48.7041 28.5716C48.2789 28.4015 48.0238 28.0614 48.1088 27.5512V27.2111C48.1088 26.7859 48.3639 26.4458 48.7041 26.2757C49.3844 25.9355 49.8946 25.4253 49.9796 24.7451C49.9796 24.0648 49.6395 23.3845 49.0442 23.0444C48.7041 22.7893 48.449 22.3641 48.534 21.939V21.5138C48.534 21.0886 48.7891 20.7485 49.2143 20.5784C49.8095 20.2383 50.3197 19.643 50.4048 19.0478C50.4048 18.3675 50.0646 17.6873 49.4694 17.3471C49.1292 17.092 48.8741 16.6668 48.9592 16.3267V15.9015C48.9592 15.4764 49.2993 15.1362 49.6395 14.9662C50.4048 14.626 50.915 14.0308 51 13.3505C51.085 12.5852 50.6599 11.99 49.9796 11.5648C49.5544 11.3947 49.3844 10.8845 49.3844 10.4594V10.2043C49.4694 9.77909 49.7245 9.43895 50.0646 9.26888C50.8299 8.92875 51.3401 8.33351 51.4252 7.65324C51.5102 6.71786 50.7449 5.95256 49.7245 5.61242V5.44235C49.8095 4.42194 49.7245 3.48657 49.4694 2.63623H68.0068C73.0238 2.63623 77.0204 6.71786 77.0204 11.6498Z" fill="white"/>
<path d="M77.0204 11.6498V40.9866C77.0204 45.9185 73.0238 50.0002 68.0068 50.0002H10.0136C4.9966 50.0002 1 45.9185 1 40.9866V11.6498C1 6.71786 4.9966 2.63623 10.0136 2.63623H31.1871C31.0737 3.03306 30.9887 3.42988 30.932 3.82671C30.8469 4.25188 30.5918 4.59201 30.2517 4.76208C29.4864 5.10222 28.9762 5.69746 28.8912 6.37773C28.8061 7.22807 29.4864 7.99337 30.4218 8.33351C30.7619 8.50358 31.102 8.84371 31.102 9.26888V9.52399C31.1871 9.94916 30.8469 10.3743 30.5068 10.6294C29.8265 10.8845 29.4014 11.4798 29.3163 12.16C29.2313 13.0104 29.8265 13.6907 30.7619 14.1158C31.1871 14.2009 31.4422 14.626 31.4422 15.0512V15.1362C31.5272 15.6464 31.2721 16.0716 30.8469 16.2417C30.0816 16.5818 29.5714 17.177 29.4864 17.8573C29.4864 18.7077 30.0816 19.473 31.017 19.8131C31.4422 19.9832 31.7823 20.3233 31.7823 20.7485L31.8673 20.9185C31.8673 21.4288 31.6122 21.8539 31.1871 22.024C30.5068 22.3641 29.9966 22.9594 29.9116 23.6396C29.8265 24.49 30.5068 25.2553 31.4422 25.5954C31.8673 25.6805 32.1224 26.1056 32.2075 26.5308V26.7009C32.2075 27.126 31.9524 27.5512 31.5272 27.8063C30.8469 28.1464 30.4218 28.6566 30.3367 29.3369C30.2517 30.1872 30.8469 30.9526 31.7823 31.2927C32.2075 31.4628 32.4626 31.8029 32.5476 32.2281V32.4832C32.5476 32.9083 32.2925 33.3335 31.8673 33.5036C31.2721 33.8437 30.8469 34.439 30.7619 35.0342C30.6769 35.9696 31.3571 36.7349 32.2925 37.075C32.6327 37.16 32.8878 37.5002 33.0578 37.8403C33.483 39.7111 34.5884 41.8369 35.8639 41.8369H44.2823C45.3878 41.8369 46.4082 40.0512 46.9184 38.4356C47.0884 38.1804 47.2585 37.9253 47.5986 37.7553C48.449 37.5002 49.0442 36.9049 49.1292 36.0546C49.2143 35.3743 48.7891 34.7791 48.1939 34.3539C47.8537 34.1838 47.5986 33.7587 47.5986 33.3335L47.6837 32.9934C47.6837 32.5682 48.0238 32.2281 48.3639 32.058C49.1292 31.7179 49.7245 31.1226 49.8095 30.4424C49.8095 29.677 49.3844 28.9968 48.7041 28.5716C48.2789 28.4015 48.0238 28.0614 48.1088 27.5512V27.2111C48.1088 26.7859 48.3639 26.4458 48.7041 26.2757C49.3844 25.9355 49.8946 25.4253 49.9796 24.7451C49.9796 24.0648 49.6395 23.3845 49.0442 23.0444C48.7041 22.7893 48.449 22.3641 48.534 21.939V21.5138C48.534 21.0886 48.7891 20.7485 49.2143 20.5784C49.8095 20.2383 50.3197 19.643 50.4048 19.0478C50.4048 18.3675 50.0646 17.6873 49.4694 17.3471C49.1293 17.092 48.8742 16.6668 48.9592 16.3267V15.9015C48.9592 15.4764 49.2993 15.1362 49.6395 14.9662C50.4048 14.626 50.915 14.0308 51 13.3505C51.085 12.5852 50.6599 11.99 49.9796 11.5648C49.5544 11.3947 49.3844 10.8845 49.3844 10.4594V10.2043C49.4694 9.77909 49.7245 9.43895 50.0646 9.26888C50.8299 8.92875 51.3401 8.33351 51.4252 7.65324C51.5102 6.71786 50.7449 5.95256 49.7245 5.61242V5.44235C49.8095 4.42194 49.7245 3.48657 49.4694 2.63623H68.0068C73.0238 2.63623 77.0204 6.71786 77.0204 11.6498V11.6498Z" stroke="#989898" stroke-width="0.8"/>
</svg>
