<svg width="33" height="52" viewBox="0 0 33 52" fill="none" xmlns="http://www.w3.org/2000/svg">
<path d="M21.7776 12.9962C20.2515 12.6803 18.5132 11.4167 15.4447 11.4248C12.8005 11.4329 11.8212 12.8261 9.96863 13.5875C8.54045 14.1707 7.61009 18.2773 7.30813 23.5502C7.04697 28.159 11.2989 45.9705 12.3762 50.3849C12.5802 50.5064 12.7843 50.6116 12.9883 50.6926C13.8289 47.1449 12.1884 31.1721 11.4621 24.6113C11.1846 22.1085 12.8332 19.7271 15.3142 19.2411C15.5916 19.1844 15.869 19.1601 16.1547 19.1601C18.6111 19.1601 19.6966 20.3346 20.2842 20.9178C20.3087 20.9421 20.8555 21.7683 20.8718 21.8007C21.696 22.8861 19.4844 47.6066 20.0883 51.0004C20.2516 51.0004 20.4148 50.9842 20.5698 50.9518C21.9409 47.5094 25.0013 24.6194 25.0013 23.2667C25.0258 21.7845 23.467 13.3364 21.7776 12.9962Z" fill="#FF0004"/>
<path d="M21.7776 12.9958C23.2547 12.9958 25.0257 21.7841 25.0257 23.2501C25.0257 24.5542 22.1938 45.7433 20.7574 50.4492C20.6921 50.6598 20.9125 50.8542 21.1166 50.7651C25.0012 48.9751 26.7232 36.6634 28.992 27.4134C30.8527 19.8077 32.3869 15.2394 32.2808 7.52033C32.2237 3.71342 29.653 1 25.1644 1C24.6911 1 24.234 1.0243 23.8097 1.0729C21.802 1.29969 20.4065 3.18694 20.684 5.17139L21.7776 12.9958Z" fill="white" fill-opacity="0.6" stroke="#989898" stroke-width="0.840807" stroke-miterlimit="10"/>
<path d="M9.96858 13.5788C8.78523 13.5788 7.61003 18.2686 7.30807 23.5416C7.06324 27.9478 10.9316 44.4066 12.2129 49.712C12.27 49.955 11.9925 50.1251 11.7966 49.9712C8.03441 46.9824 4.69657 37.3355 3.45609 28.936C2.24825 20.7795 0.713989 15.2312 0.713989 8.28155C0.713989 3.38927 3.72543 1.7288 6.95721 1.54251C6.97353 1.54251 6.9898 1.54251 7.00612 1.54251C9.08719 1.43721 10.7602 3.22726 10.597 5.28461L9.96858 13.5788Z" fill="white" fill-opacity="0.6"/>
<path d="M9.96858 13.5788C8.78523 13.5788 7.61003 18.2686 7.30807 23.5416C7.06324 27.9478 10.9316 44.4066 12.2129 49.712C12.27 49.955 11.9925 50.1251 11.7966 49.9712C8.03441 46.9824 4.69657 37.3355 3.45609 28.936C2.24825 20.7795 0.713989 15.2312 0.713989 8.28155C0.713989 3.38927 3.72543 1.7288 6.95721 1.54251C6.97353 1.54251 6.9898 1.54251 7.00612 1.54251C9.08719 1.43721 10.7602 3.22726 10.597 5.28461L9.96858 13.5788" stroke="#989898" stroke-width="0.840807" stroke-miterlimit="10"/>
<path d="M20.8882 21.7841C20.8718 21.7598 20.3251 20.9255 20.3006 20.9012C19.713 20.318 18.6275 19.1436 16.1711 19.1436C15.8854 19.1436 15.608 19.176 15.3305 19.2246C12.8414 19.7105 11.201 22.0919 11.4785 24.5947C12.164 30.791 13.6656 45.395 13.1188 49.9795C13.0699 50.425 13.38 50.838 13.8288 50.8785C14.0655 50.9028 14.3022 50.8948 14.5307 50.8624C14.9795 50.7895 15.2978 50.3845 15.257 49.9309C14.9796 47.0393 14.4409 33.6584 14.4409 33.6584C14.4409 24.3841 15.2653 23.9305 16.3507 23.9305C17.4361 23.9305 18.399 24.1411 18.399 33.4154C18.399 33.4154 18.6113 46.3832 18.3828 49.1452C18.3093 50.0362 18.9376 50.8461 19.8272 50.9514C19.8354 50.9514 19.8354 50.9514 19.8435 50.9514C19.9333 50.9595 20.0231 50.9677 20.1047 50.9677C19.5008 47.59 21.7124 22.8695 20.8882 21.7841Z" fill="white" fill-opacity="0.6" stroke="#989898" stroke-width="0.840807" stroke-miterlimit="10"/>
</svg>
