<svg width="35" height="55" viewBox="0 0 35 55" fill="none" xmlns="http://www.w3.org/2000/svg">
<g clip-path="url(#clip0_2016_287)">
<path d="M15.0703 16.1477H0.480209C0.908862 21.3247 2.03606 26.1533 2.96481 32.6023C4.45715 43.013 9.08502 55.3276 13.7367 54.5741C14.1812 54.5012 14.4908 54.0961 14.4431 53.6425C14.1732 50.742 13.6493 37.3499 13.6493 37.3499C13.6493 28.0572 14.4511 27.6035 15.5069 27.6035C16.5626 27.6035 17.4993 27.8142 17.4993 37.1068C17.4993 37.1068 17.7057 50.0939 17.4834 52.8647C17.412 53.7559 18.0232 54.566 18.8964 54.6795C18.9043 54.6795 18.9043 54.6795 18.9122 54.6795C23.5877 55.2547 25.3817 41.3116 27.8187 31.0873C28.4141 28.5919 28.9697 26.4207 29.4539 24.3547H15.0703V16.1477Z" fill="white" fill-opacity="0.6" stroke="#989898" stroke-width="0.773346" stroke-miterlimit="10"/>
<path d="M15.0702 2.08303C12.665 1.71035 9.12466 0.14671 6.37811 0.316846C3.23466 0.503185 0.297617 2.16404 0.297617 7.06558C0.297617 8.52389 0.369044 9.91738 0.480176 11.2947H15.0702V2.08303Z" fill="white" fill-opacity="0.6" stroke="#989898" stroke-width="0.773346" stroke-miterlimit="10"/>
<path opacity="0.8" d="M34.9948 7.10615C34.9392 3.29025 32.4307 0.576172 28.0648 0.576172C23.6672 0.576172 21.6668 2.97427 19.9601 2.97427C19.6823 2.97427 19.3727 2.94187 19.0473 2.89326V12.1049V20.3038H33.4309C34.4073 16.0747 35.0662 12.2994 34.9948 7.10615Z" fill="#808080"/>
</g>
<defs>
<clipPath id="clip0_2016_287">
<rect width="35" height="55" fill="white"/>
</clipPath>
</defs>
</svg>
