<svg width="92" height="51" viewBox="0 0 92 51" fill="none" xmlns="http://www.w3.org/2000/svg">
<path opacity="0.6" d="M14.1196 30.7692C14.1196 30.7692 17.0256 30.4273 19.8461 38.5469C19.8461 38.5469 21.2136 41.7093 21.2136 44.3589C21.2136 46.923 18.0512 47.6922 16.7692 47.6922C15.4871 47.6922 14.376 46.6666 14.376 46.3247C14.376 45.9828 12.923 42.9914 12.8376 40.5127C12.6666 38.1196 12.8376 34.3589 12.8376 34.1025C12.8376 34.017 12.6666 30.9401 14.1196 30.7692Z" fill="white"/>
<path d="M14.1196 30.7692C14.1196 30.7692 17.0256 30.4273 19.8461 38.5469C19.8461 38.5469 21.2136 41.7093 21.2136 44.3589C21.2136 46.923 18.0512 47.6922 16.7692 47.6922C15.4871 47.6922 14.376 46.6666 14.376 46.3247C14.376 45.9828 12.923 42.9914 12.8376 40.5127C12.6666 38.1196 12.8376 34.3589 12.8376 34.1025C12.8376 34.017 12.6666 30.9401 14.1196 30.7692Z" stroke="#989898" stroke-width="0.8"/>
<path opacity="0.6" d="M25.0598 33.1623C25.5726 33.2478 29.7606 34.7863 31.0427 39.4017C31.2991 40.3418 31.8119 45.5555 31.3846 47.6922C31.2991 48.4615 30.1025 48.2905 29.5897 48.2905C29.1624 48.2905 23.8632 47.3504 23.0085 46.4102C22.1538 45.5555 21.641 45.0427 21.641 41.4529C21.641 37.7777 22.2393 35.5555 22.4102 35.1281C22.4957 34.8717 23.5213 32.9914 25.0598 33.1623Z" fill="white"/>
<path d="M25.0598 33.1623C25.5726 33.2478 29.7606 34.7863 31.0427 39.4017C31.2991 40.3418 31.8119 45.5555 31.3846 47.6922C31.2991 48.4615 30.1025 48.2905 29.5897 48.2905C29.1624 48.2905 23.8632 47.3504 23.0085 46.4102C22.1538 45.5555 21.641 45.0427 21.641 41.4529C21.641 37.7777 22.2393 35.5555 22.4102 35.1281C22.4957 34.8717 23.5213 32.9914 25.0598 33.1623V33.1623Z" stroke="#989898" stroke-width="0.8"/>
<path opacity="0.6" d="M37.282 31.1113C38.8205 31.1113 40.3589 31.7951 42.8376 34.2737C44.8034 36.325 45.9145 38.8891 46.0854 42.9917C46.0854 42.9917 46.2564 46.8378 46.0854 48.0344C45.9145 48.4618 45.5726 49.8293 43.6068 49.8293C43.6068 49.8293 36.5983 49.8293 35.7436 49.5729C35.7436 49.5729 32.2393 49.5729 32.0683 46.0686C31.8119 40.2566 32.5812 37.0942 32.923 35.8122C33.2649 34.872 35.2307 31.1113 37.282 31.1113Z" fill="white"/>
<path d="M37.282 31.1113C38.8205 31.1113 40.3589 31.7951 42.8376 34.2737C44.8034 36.325 45.9145 38.8891 46.0854 42.9917C46.0854 42.9917 46.2564 46.8378 46.0854 48.0344C45.9145 48.4618 45.5726 49.8293 43.6068 49.8293C43.6068 49.8293 36.5983 49.8293 35.7436 49.5729C35.7436 49.5729 32.2393 49.5729 32.0683 46.0686C31.8119 40.2566 32.5812 37.0942 32.923 35.8122C33.2649 34.872 35.2307 31.1113 37.282 31.1113V31.1113Z" stroke="#989898" stroke-width="0.8"/>
<path opacity="0.6" d="M79.5896 34.2734C79.5896 34.5298 79.6751 38.205 79.5896 40.6836C79.4187 43.1623 78.0512 46.1537 78.0512 46.4956C78.0512 46.752 76.8546 47.8631 75.658 47.8631C74.376 47.8631 71.1281 47.0939 71.1281 44.5298C71.1281 41.8802 72.5811 38.7178 72.5811 38.7178C75.4016 30.5982 78.3076 30.9401 78.3076 30.9401C79.6751 31.111 79.5896 34.1024 79.5896 34.2734Z" fill="white"/>
<path d="M79.5896 34.2734C79.5896 34.5298 79.6751 38.205 79.5896 40.6836C79.4187 43.1623 78.0512 46.1537 78.0512 46.4956C78.0512 46.752 76.8546 47.8631 75.658 47.8631C74.376 47.8631 71.1281 47.0939 71.1281 44.5298C71.1281 41.8802 72.5811 38.7178 72.5811 38.7178C75.4016 30.5982 78.3076 30.9401 78.3076 30.9401C79.6751 31.111 79.5896 34.1024 79.5896 34.2734V34.2734Z" stroke="#989898" stroke-width="0.8"/>
<path opacity="0.6" d="M70.017 35.299C70.1879 35.7264 70.7862 37.9486 70.7862 41.5384C70.7862 45.2136 70.2734 45.6409 69.4187 46.5811C68.4785 47.5213 63.2649 48.4614 62.752 48.4614C62.2392 48.4614 61.1281 48.6324 60.9572 47.7777C60.6153 45.6409 61.1281 40.5127 61.3845 39.5726C62.6666 34.9572 66.8546 33.4187 67.3674 33.3332C68.9059 33.1623 69.9315 35.0426 70.017 35.299Z" fill="white"/>
<path d="M70.017 35.299C70.1879 35.7264 70.7862 37.9486 70.7862 41.5384C70.7862 45.2136 70.2734 45.6409 69.4187 46.5811C68.4785 47.5213 63.2649 48.4614 62.752 48.4614C62.2392 48.4614 61.1281 48.6324 60.9572 47.7777C60.6153 45.6409 61.1281 40.5127 61.3845 39.5726C62.6666 34.9572 66.8546 33.4187 67.3674 33.3332C68.9059 33.1623 69.9315 35.0426 70.017 35.299V35.299Z" stroke="#989898" stroke-width="0.8"/>
<path opacity="0.6" d="M59.4187 35.9831C59.8461 37.1797 60.6153 40.4275 60.3589 46.2395C60.188 49.7438 56.6837 49.7438 56.6837 49.7438C55.7435 50.0002 48.735 50.0002 48.735 50.0002C46.8546 50.0002 46.4273 48.6327 46.3418 48.2053C46.0854 46.9232 46.3418 43.1626 46.3418 43.1626C46.5127 39.06 47.6239 36.4104 49.5042 34.4446C51.9828 31.8805 53.6068 31.2822 55.1452 31.2822C57.1965 31.2822 59.1623 35.0429 59.4187 35.9831Z" fill="white"/>
<path d="M59.4187 35.9831C59.8461 37.1797 60.6153 40.4275 60.3589 46.2395C60.188 49.7438 56.6837 49.7438 56.6837 49.7438C55.7435 50.0002 48.735 50.0002 48.735 50.0002C46.8546 50.0002 46.4273 48.6327 46.3418 48.2053C46.0854 46.9232 46.3418 43.1626 46.3418 43.1626C46.5127 39.06 47.6239 36.4104 49.5042 34.4446C51.9828 31.8805 53.6068 31.2822 55.1452 31.2822C57.1965 31.2822 59.1623 35.0429 59.4187 35.9831V35.9831Z" stroke="#989898" stroke-width="0.8"/>
<path d="M12.1539 40.3421C12.2394 40.9404 12.7522 43.419 13.5214 45.6413C13.0941 47.0088 11.9829 46.0686 11.4701 46.0686C10.7864 46.0686 10.1881 45.043 10.1881 44.7011C10.1881 44.3592 9.41884 42.6498 9.33337 40.2566C9.33337 37.778 9.33337 34.0173 9.33337 33.8464C9.33337 33.6754 9.33338 30.684 10.0171 30.5131C10.0171 30.5131 11.0428 30.2566 12.1539 34.2737C12.1539 35.3848 12.0684 38.2908 12.1539 40.3421Z" fill="white" stroke="#989898" stroke-width="0.8"/>
<path d="M80.1879 34.2737C81.2991 30.2566 82.3247 30.5131 82.3247 30.5131C83.0085 30.5985 83.0085 33.6754 83.0085 33.8464C83.0085 34.0173 83.0085 37.778 83.0085 40.2566C82.923 42.6498 82.1538 44.3592 82.1538 44.7011C82.1538 44.9575 81.5555 46.0686 80.8717 46.0686C80.3589 46.0686 79.3333 46.9233 78.8204 45.6413C79.5897 43.419 80.1879 40.9404 80.1879 40.3421C80.2734 38.2908 80.1879 35.2994 80.1879 34.2737Z" fill="white" stroke="#989898" stroke-width="0.8"/>
<path opacity="0.6" d="M9.58979 44.6154C9.58979 44.6724 9.58979 44.7009 9.58979 44.7009C9.67526 45.2992 9.16243 45.812 8.56414 45.7266C7.96585 45.6411 7.45303 45.2992 7.19662 45.3847C6.51286 45.5556 4.88893 45.983 4.54705 44.1881C4.54705 43.8462 3.86329 42.2223 3.77782 39.7437C3.69235 37.3505 3.52141 34.2736 3.77782 33.3334C4.20517 31.7949 5.05987 29.8291 6.6838 29.7437C6.85474 29.7437 7.02568 29.8291 7.19662 30.0001C7.45303 30.3419 8.05133 31.1966 8.73509 33.6753C8.79207 33.7892 8.82056 33.8747 8.82056 33.9317C8.73509 35.1283 8.73509 37.8633 8.82056 39.8291C8.82056 39.8861 8.82056 39.9146 8.82056 39.9146C8.82056 39.9716 8.82056 40.0001 8.82056 40.0001C8.82056 40.057 8.82056 40.114 8.82056 40.171C8.90603 42.6496 9.58979 44.359 9.58979 44.6154Z" fill="white"/>
<path d="M9.58979 44.6154C9.58979 44.6724 9.58979 44.7009 9.58979 44.7009C9.67526 45.2992 9.16243 45.812 8.56414 45.7266C7.96585 45.6411 7.45303 45.2992 7.19662 45.3847C6.51286 45.5556 4.88893 45.983 4.54705 44.1881C4.54705 43.8462 3.86329 42.2223 3.77782 39.7437C3.69235 37.3505 3.52141 34.2736 3.77782 33.3334C4.20517 31.7949 5.05987 29.8291 6.6838 29.7437C6.85474 29.7437 7.02568 29.8291 7.19662 30.0001C7.45303 30.3419 8.05133 31.1966 8.73509 33.6753C8.79207 33.7892 8.82056 33.8747 8.82056 33.9317C8.73509 35.1283 8.73509 37.8633 8.82056 39.8291C8.82056 39.8861 8.82056 39.9146 8.82056 39.9146C8.82056 39.9716 8.82056 40.0001 8.82056 40.0001C8.82056 40.057 8.82056 40.114 8.82056 40.171C8.90603 42.6496 9.58979 44.359 9.58979 44.6154V44.6154Z" stroke="#989898" stroke-width="0.8"/>
<path opacity="0.6" d="M83.5213 40.4273C83.5213 40.3704 83.5213 40.3134 83.5213 40.2564C83.5213 40.2564 83.5213 40.2279 83.5213 40.1709C83.5213 40.114 83.5213 40.0855 83.5213 40.0855C83.6067 38.1197 83.6067 35.2991 83.5213 34.188C83.5213 34.0741 83.5497 33.9886 83.6067 33.9316C84.2905 31.453 84.8033 30.5128 85.1452 30.1709C85.3161 30.0855 85.4871 30 85.658 30C87.1965 30.0855 88.1366 32.0513 88.564 33.5897C88.8204 34.5299 88.6495 37.5214 88.564 40C88.4785 42.3932 87.7948 44.0171 87.7948 44.4444C87.4529 46.2393 85.829 45.7265 85.1452 45.641C84.8888 45.5556 84.376 45.812 83.7777 45.9829C83.0939 46.0684 82.6666 45.5556 82.6666 44.8718C82.6666 44.5299 83.4358 42.8205 83.5213 40.4273Z" fill="white"/>
<path d="M83.5213 40.4273C83.5213 40.3704 83.5213 40.3134 83.5213 40.2564C83.5213 40.2564 83.5213 40.2279 83.5213 40.1709C83.5213 40.114 83.5213 40.0855 83.5213 40.0855C83.6067 38.1197 83.6067 35.2991 83.5213 34.188C83.5213 34.0741 83.5497 33.9886 83.6067 33.9316C84.2905 31.453 84.8033 30.5128 85.1452 30.1709C85.3161 30.0855 85.4871 30 85.658 30C87.1965 30.0855 88.1366 32.0513 88.564 33.5897C88.8204 34.5299 88.6495 37.5214 88.564 40C88.4785 42.3932 87.7948 44.0171 87.7948 44.4444C87.4529 46.2393 85.829 45.7265 85.1452 45.641C84.8888 45.5556 84.376 45.812 83.7777 45.9829C83.0939 46.0684 82.6666 45.5556 82.6666 44.8718C82.6666 44.5299 83.4358 42.8205 83.5213 40.4273V40.4273Z" stroke="#989898" stroke-width="0.8"/>
<path d="M89.9316 26.9231L90.8718 33.2479C90.8718 33.3048 90.8718 33.3618 90.8718 33.4188C90.7863 34.7009 88.9914 34.6154 88.906 33.4188C88.906 32.735 88.906 32.2222 88.8205 31.9658C88.3931 30.5128 87.453 28.7179 85.9145 28.6325C85.6581 28.6325 85.4872 28.7179 85.4017 28.8034C85.0598 29.1453 84.547 29.9145 83.9487 31.7949C83.8917 31.9088 83.8062 31.9943 83.6923 32.0513C83.4359 32.0513 83.2649 31.8803 83.2649 31.7094C83.2649 30.9402 83.1795 29.6581 82.7521 29.3162C82.6666 29.2308 82.5812 29.2308 82.4102 29.2308C82.0684 29.3162 81.3846 29.9145 80.6154 32.3932C80.5584 32.5071 80.4729 32.5641 80.359 32.5641C80.1025 32.6496 79.9316 32.4786 79.9316 32.3077C79.9316 31.453 79.7607 29.7436 78.6496 29.5726C78.3077 29.5726 75.5726 29.7436 72.8376 36.8376C72.8376 36.9231 72.5812 37.3504 72.3248 38.0342C72.3248 38.2051 72.0683 38.3761 71.8974 38.3761H71.5555C71.2137 38.3761 71.0427 38.1197 71.0427 37.8632C70.8718 35.4701 70.4444 34.0171 70.2735 33.6752C70.188 33.4188 69.1624 31.7094 67.6239 31.8803C67.1111 31.8803 62.8376 33.3333 61.5555 37.6068C61.4986 37.7208 61.4701 37.8348 61.4701 37.9487C61.3846 38.2051 61.2136 38.3761 60.9572 38.3761H60.8718C60.6154 38.3761 60.3589 38.1196 60.3589 37.9487C60.1025 36.0684 59.8461 34.9573 59.5897 34.2735C59.3333 33.4188 57.282 29.9145 55.2307 29.9145C53.6923 29.9145 52.0683 30.5128 49.5897 32.906C48.2222 34.188 47.1965 35.812 46.6837 37.9487C46.6837 38.2051 46.4273 38.3761 46.1709 38.3761C45.9145 38.3761 45.7436 38.2051 45.6581 37.9487C45.2307 35.7265 44.2051 34.1026 42.8376 32.735C40.3589 30.3419 38.735 29.7436 37.1111 29.7436C35.0598 29.7436 33.094 33.2479 32.7521 34.188C32.5812 34.7863 32.2393 35.9829 31.9829 37.9487C31.9829 38.1196 31.7265 38.3761 31.4701 38.3761C31.2136 38.3761 30.9572 38.2051 30.9572 37.9487C30.9003 37.7208 30.8718 37.5783 30.8718 37.5214C29.5042 33.1624 25.3162 31.7094 24.8034 31.7094C23.2649 31.5385 22.2393 33.2479 22.0683 33.5043C21.9829 33.8461 21.4701 35.3846 21.3846 37.8632C21.2991 38.1197 21.1282 38.3761 20.8718 38.3761H20.5299C20.3589 38.3761 20.1025 38.2051 20.1025 38.0342C19.7607 37.2649 19.5897 36.7521 19.5042 36.6667C16.8547 29.5726 14.0342 29.4872 13.7777 29.4872C13.7208 29.4872 13.6923 29.4872 13.6923 29.4872C12.3248 29.6581 12.4102 32.4786 12.4102 32.5641C12.4102 32.5641 12.4102 32.5926 12.4102 32.6496L12.0683 32.5641C11.8974 32.5641 11.8119 32.4786 11.8119 32.3932C10.9572 29.7436 10.188 29.2308 9.93159 29.1453C9.76065 29.0598 9.67518 29.1453 9.58971 29.1453C9.16236 29.5726 9.07689 31.0256 9.07689 31.7949C9.07689 31.9658 8.90595 32.1367 8.64954 32.0513H8.56407C7.79484 29.8291 7.28202 28.9743 6.94014 28.6325C6.85467 28.4615 6.59826 28.4615 6.42732 28.4615C4.80339 28.547 3.86322 30.3419 3.52134 31.7949C3.26493 32.4786 3.35039 34.4444 3.43586 36.3248C3.43586 36.8376 2.92304 37.0085 2.58116 36.6667C1.64099 35.812 1.12817 34.6154 1.12817 33.2479L1.81193 27.094C1.81193 24.2735 7.02561 18.0342 10.1025 18.0342H15.5726C16.0854 18.0342 16.6837 18.2906 17.0256 18.7179L19.4188 21.8803C20.188 22.8205 21.5555 22.8205 22.3248 21.8803L24.8034 18.7179C25.1453 18.2906 25.6581 18.0342 26.1709 18.0342H34.7179C36.2564 18.0342 37.7948 18.547 38.9914 19.5726L42.8376 24.9573C43.0655 25.2991 43.3504 25.584 43.6923 25.812C45.2307 26.7521 47.1966 26.7521 48.6495 25.7265C48.9914 25.4986 49.2763 25.2422 49.5042 24.9573L53.094 19.6581C54.2906 18.6325 55.829 18.0342 57.453 18.0342H65.4872C66.1709 18.0342 66.7692 18.3761 67.1965 18.8889L69.2478 21.5385C70.1025 22.6496 71.8119 22.6496 72.6666 21.5385L74.8034 18.8889C75.1453 18.2906 75.829 18.0342 76.5128 18.0342H81.8119C84.8889 18.0342 89.9316 24.1026 89.9316 26.9231Z" fill="#FFF3FA" stroke="#989898" stroke-width="0.8"/>
<path opacity="0.8" d="M11.8119 11.7946L11.8974 11.2818C11.641 11.1963 11.4701 10.9399 11.4701 10.6835C11.4701 10.4271 11.7265 10.2562 11.8974 10.1707L11.9829 9.65788C11.7265 9.57241 11.641 9.316 11.641 9.05959C11.641 8.88865 11.8119 8.63224 11.9829 8.54677L12.0683 8.03394C11.8119 7.94847 11.7265 7.69207 11.7265 7.52113C11.7265 7.26471 11.8974 7.00831 12.1538 7.00831V6.49548C11.8974 6.41001 11.7265 6.1536 11.7265 5.89719C11.8119 5.64078 11.9829 5.38437 12.2393 5.38437V4.87155C12.0683 4.78608 11.8974 4.52967 11.8974 4.27326C11.8974 4.01685 12.0683 3.84591 12.3248 3.76044C12.4957 3.33309 12.6666 2.99121 13.0085 2.99121H14.8889C15.1453 2.99121 15.4017 3.41856 15.4871 4.01685C15.829 4.01685 16 4.27326 16 4.61514C16 4.78608 15.829 5.04249 15.5726 5.04249V5.55531C15.9145 5.64078 16.0854 5.89719 16.0854 6.1536C16.0854 6.41002 15.9145 6.66642 15.6581 6.66642V7.17924C16 7.26471 16.1709 7.52112 16.1709 7.77753C16.1709 8.03395 16 8.29036 15.7436 8.29036V8.80318C16.0854 8.88865 16.2564 9.14506 16.2564 9.40147C16.2564 9.65788 16.0854 9.91429 15.829 9.91429V10.4271C16.1709 10.4271 16.3418 10.6835 16.3418 11.0254C16.3418 11.2818 16.0854 11.4528 15.9145 11.5382V12.051C16.2564 12.051 16.4273 12.3075 16.4273 12.6493C16.4273 12.9057 16.1709 13.0767 16 13.1622C15.9145 13.8459 15.6581 14.4442 15.3162 14.4442H12.4957C12.0683 14.4442 11.7265 13.675 11.7265 12.9057V12.8203C11.5555 12.7348 11.3846 12.5639 11.3846 12.3074C11.3846 12.051 11.5555 11.7946 11.8119 11.7946Z" fill="#808080"/>
<path opacity="0.8" d="M28.7351 10.9402V10.2564C28.4787 10.1709 28.2222 9.91453 28.3077 9.57265C28.3077 9.23077 28.5641 8.97436 28.8205 8.97436L28.906 8.2906C28.5641 8.20513 28.3932 7.86325 28.4787 7.60684C28.4787 7.26496 28.6496 7.09402 28.906 7.00855L28.9915 6.32478C28.7351 6.15384 28.5641 5.89744 28.5641 5.64102C28.5641 5.29914 28.8205 5.04273 29.0769 4.95726V4.35897C28.8205 4.2735 28.5641 3.93162 28.6496 3.58974C28.6496 3.33333 28.906 3.07692 29.1624 2.99145L29.2479 2.30769C28.9915 2.22222 28.7351 1.96581 28.8205 1.62393C28.8205 1.28205 29.077 1.02564 29.3334 1.02564C29.5043 0.427351 29.7607 0 30.1026 0H32.4958C32.8376 0 33.1795 0.512821 33.265 1.28205C33.6069 1.28205 33.8633 1.62393 33.8633 1.96581C33.8633 2.30769 33.6923 2.5641 33.3505 2.64957L33.4359 3.24786C33.7778 3.33333 34.0342 3.58974 34.0342 4.0171C33.9487 4.27351 33.7778 4.52991 33.4359 4.61538L33.5214 5.21367C33.8633 5.29914 34.1197 5.64103 34.1197 5.98291C34.1197 6.32479 33.8633 6.5812 33.6069 6.66667V7.26496C33.9487 7.26496 34.2906 7.60684 34.2052 8.03419C34.2052 8.2906 33.9487 8.54701 33.6923 8.63248V9.23077C34.0342 9.31624 34.2906 9.65812 34.2906 10C34.2906 10.2564 34.0342 10.5128 33.7778 10.5983V11.2821C34.1197 11.2821 34.4616 11.6239 34.3761 11.9658C34.3761 12.3077 34.1197 12.5641 33.8633 12.6496C33.8633 13.5043 33.4359 14.188 33.0086 14.188H29.5043C28.9915 14.188 28.5641 13.3333 28.6496 12.3077V12.2222C28.3077 12.1368 28.1368 11.8803 28.1368 11.5385C28.2222 11.2821 28.3932 11.0256 28.7351 10.9402Z" fill="#808080"/>
<path opacity="0.8" d="M58.2222 11.1965L58.3076 10.5127C57.9658 10.4273 57.7948 10.1709 57.7948 9.82898C57.8803 9.4871 58.0512 9.23069 58.3931 9.23069V8.54693C58.1367 8.46146 57.9658 8.20505 57.9658 7.86317C58.0512 7.60676 58.2222 7.35035 58.4786 7.26488L58.5641 6.58112C58.3076 6.41018 58.0512 6.15376 58.1367 5.89735C58.1367 5.55547 58.3076 5.29906 58.6495 5.21359V4.6153C58.3076 4.52983 58.1367 4.18795 58.1367 3.84607C58.2222 3.58966 58.3931 3.33325 58.735 3.24778V2.56402C58.4786 2.47855 58.3076 2.22214 58.3076 1.88026C58.3931 1.62385 58.5641 1.36744 58.9059 1.28197C59.0769 0.683679 59.3333 0.341797 59.6752 0.341797H61.9829C62.4102 0.341797 62.7521 0.854619 62.8376 1.53838C63.1794 1.53838 63.4359 1.88026 63.4359 2.22214C63.4359 2.56402 63.1794 2.82043 62.923 2.9059V3.50419C63.2649 3.58966 63.5213 3.93154 63.5213 4.27342C63.5213 4.52983 63.2649 4.78624 63.0085 4.87171V5.55547C63.4359 5.55547 63.6923 5.89735 63.6923 6.23923C63.6068 6.58111 63.4358 6.83752 63.094 6.92299L63.1794 7.52129C63.5213 7.52129 63.7777 7.86317 63.7777 8.29052C63.7777 8.54693 63.5213 8.80334 63.1794 8.88881L63.2649 9.4871C63.6068 9.57257 63.8632 9.91445 63.8632 10.2563C63.7777 10.5982 63.6068 10.7692 63.2649 10.8546L63.3504 11.5384C63.6923 11.5384 63.9487 11.8803 63.9487 12.2221C63.9487 12.564 63.6923 12.8204 63.4359 12.9059C63.3504 13.7606 63.0085 14.4444 62.4957 14.4444H58.9914C58.4786 14.4444 58.1367 13.5897 58.1367 12.564C57.8803 12.3931 57.7094 12.1367 57.7094 11.7948C57.7094 11.5384 57.9658 11.282 58.2222 11.1965Z" fill="#808080"/>
<path opacity="0.8" d="M77.453 11.7946L77.5385 11.2818C77.2821 11.1963 77.1111 11.0254 77.1111 10.769C77.1111 10.5126 77.3675 10.2561 77.5385 10.2561L77.6239 9.74333C77.3675 9.65786 77.282 9.40145 77.282 9.14504C77.282 8.88863 77.453 8.71769 77.6239 8.63222L77.7094 8.1194C77.453 8.03393 77.3675 7.77752 77.3675 7.52111C77.3675 7.35017 77.5385 7.09376 77.7949 7.09376V6.49546C77.5385 6.40999 77.3675 6.23905 77.3675 5.98264C77.453 5.72623 77.6239 5.46982 77.8803 5.46982V4.957C77.6239 4.78606 77.5385 4.61512 77.5385 4.35871C77.5385 4.1023 77.7094 3.93136 77.9658 3.84589C78.1368 3.41854 78.3077 3.07666 78.6496 3.07666H80.5299C80.7863 3.07666 81.0427 3.50401 81.1282 4.01683C81.4701 4.1023 81.641 4.35871 81.641 4.61512C81.641 4.87153 81.4701 5.04247 81.2137 5.12794V5.64076C81.5556 5.72623 81.7265 5.98264 81.7265 6.23905C81.7265 6.49546 81.5555 6.6664 81.2991 6.75187V7.2647C81.641 7.35017 81.812 7.60658 81.812 7.86299C81.812 8.1194 81.641 8.29034 81.3846 8.37581V8.88863C81.7265 8.88863 81.8974 9.14504 81.8974 9.48692C81.8974 9.74333 81.7265 9.91427 81.4701 9.99974V10.5126C81.7265 10.5126 81.9829 10.769 81.9829 11.1109C81.8974 11.3673 81.7265 11.5382 81.5556 11.6237V12.1365C81.812 12.1365 82.0684 12.3929 82.0684 12.7348C81.9829 12.9912 81.812 13.1621 81.641 13.1621C81.5556 13.9314 81.2991 14.4442 80.8718 14.4442H78.0513C77.7094 14.4442 77.3675 13.7604 77.3675 12.9912V12.9057C77.1966 12.8203 77.0256 12.5638 77.0256 12.3074C77.0256 12.051 77.1966 11.8801 77.453 11.7946Z" fill="#808080"/>
</svg>
