<svg width="67" height="52" viewBox="0 0 67 52" fill="none" xmlns="http://www.w3.org/2000/svg">
<path opacity="0.6" d="M64.4661 9.10164C64.8753 10.1655 66.5119 16.0575 66.5119 25.7956C66.5119 35.5337 65.1208 36.7612 62.7476 39.2162C60.3744 41.6712 46.4628 44.0444 45.0717 44.0444C43.7623 44.0444 40.7345 44.6172 40.3253 42.4895C39.3433 36.7612 40.6527 22.9314 41.3892 20.4764C44.8262 8.03782 55.9555 3.94616 57.3466 3.7825C61.4383 3.45516 64.1388 8.28331 64.4661 9.10164Z" fill="white"/>
<path d="M64.4661 9.10164C64.8753 10.1655 66.5119 16.0575 66.5119 25.7956C66.5119 35.5337 65.1208 36.7612 62.7476 39.2162C60.3744 41.6712 46.4628 44.0444 45.0717 44.0444C43.7623 44.0444 40.7345 44.6172 40.3253 42.4895C39.3433 36.7612 40.6527 22.9314 41.3892 20.4764C44.8262 8.03782 55.9555 3.94616 57.3466 3.7825C61.4383 3.45516 64.1388 8.28331 64.4661 9.10164V9.10164Z" stroke="#989898" stroke-width="0.8"/>
<path opacity="0.6" d="M36.3155 13.6023C37.2975 16.8756 39.3433 25.3863 38.6887 40.8527C38.2795 50.1817 28.7869 50.1817 28.7869 50.1817C26.4137 51 7.75577 51 7.75577 51C2.68212 51 1.53646 47.2357 1.29096 46.09C0.636297 42.8985 1.29096 32.6694 1.29096 32.6694C1.61829 21.7038 4.72795 14.8298 9.8016 9.51064C16.3482 2.7185 20.6854 1 24.7771 1C30.178 1 35.4972 11.0655 36.3155 13.6023Z" fill="white"/>
<path d="M36.3155 13.6023C37.2975 16.8756 39.3433 25.3863 38.6887 40.8527C38.2795 50.1817 28.7869 50.1817 28.7869 50.1817C26.4137 51 7.75577 51 7.75577 51C2.68212 51 1.53646 47.2357 1.29096 46.09C0.636297 42.8985 1.29096 32.6694 1.29096 32.6694C1.61829 21.7038 4.72795 14.8298 9.8016 9.51064C16.3482 2.7185 20.6854 1 24.777 1C30.178 1 35.4972 11.0655 36.3155 13.6023V13.6023Z" stroke="#989898" stroke-width="0.8"/>
</svg>
