<svg width="137" height="52" viewBox="0 0 137 52" fill="none" xmlns="http://www.w3.org/2000/svg">
<path d="M134.576 8.69272C134.992 9.62827 136.551 15.5534 136.551 25.3247C136.551 35.096 135.2 36.2395 132.809 38.7343C130.418 41.1251 116.592 43.6199 115.241 43.6199C113.89 43.6199 110.875 44.1397 110.459 41.9567C109.42 36.2395 110.771 22.4141 111.499 20.0233C114.929 7.54927 126.052 3.49522 127.403 3.39127C131.457 2.97547 134.16 7.86112 134.576 8.69272Z" fill="white" stroke="#989898" stroke-width="0.8"/>
<path d="M106.405 13.578C107.445 16.8004 109.42 25.3243 108.796 40.8129C108.38 50.1684 98.921 50.1684 98.921 50.1684C96.5302 51 77.9231 51 77.9231 51C72.8295 51 71.6861 47.1538 71.4782 46.1143C70.7505 42.8919 71.4782 32.7048 71.4782 32.7048C71.79 21.6861 74.9085 14.8254 80.0021 9.52391C86.5509 2.76715 90.8129 1 94.867 1C100.272 1 105.574 11.0832 106.405 13.578Z" fill="white" stroke="#989898" stroke-width="0.8"/>
<path opacity="0.4" d="M10.1476 3.39127C11.499 3.49522 22.6216 7.54927 26.052 20.0233C26.7796 22.4141 28.131 36.2395 27.0915 41.9567C26.7796 44.1397 23.7651 43.6199 22.4137 43.6199C21.0624 43.6199 7.13305 41.1251 4.7422 38.7343C2.35135 36.2395 1 35.096 1 25.3247C1 15.5534 2.6632 9.62827 3.079 8.69272C3.39085 7.86112 6.09355 2.97547 10.1476 3.39127Z" fill="white"/>
<path d="M10.1476 3.39127C11.499 3.49522 22.6216 7.54927 26.052 20.0233C26.7796 22.4141 28.131 36.2395 27.0915 41.9567C26.7796 44.1397 23.7651 43.6199 22.4137 43.6199C21.0624 43.6199 7.13305 41.1251 4.7422 38.7343C2.35135 36.2395 1 35.096 1 25.3247C1 15.5534 2.6632 9.62827 3.079 8.69272C3.39085 7.86112 6.09355 2.97547 10.1476 3.39127V3.39127Z" stroke="#989898" stroke-width="0.8"/>
<path opacity="0.4" d="M42.684 1C46.738 1 51.104 2.76715 57.6528 9.52391C62.7464 14.8254 65.7609 21.6861 66.0728 32.7048C66.0728 32.7048 66.8004 42.8919 66.0728 46.1143C65.8649 47.1538 64.7214 51 59.6279 51C59.6279 51 41.0208 51 38.6299 50.1684C38.6299 50.1684 29.2744 50.1684 28.8586 40.8129C28.131 25.3243 30.21 16.8004 31.1455 13.578C31.9771 11.0832 37.2786 1 42.684 1Z" fill="white"/>
<path d="M42.684 1C46.738 1 51.104 2.76715 57.6528 9.52391C62.7464 14.8254 65.7609 21.6861 66.0728 32.7048C66.0728 32.7048 66.8004 42.8919 66.0728 46.1143C65.8649 47.1538 64.7214 51 59.6279 51C59.6279 51 41.0208 51 38.6299 50.1684C38.6299 50.1684 29.2744 50.1684 28.8586 40.8129C28.131 25.3243 30.21 16.8004 31.1455 13.578C31.9771 11.0832 37.2786 1 42.684 1V1Z" stroke="#989898" stroke-width="0.8"/>
</svg>
