<svg width="75" height="51" viewBox="0 0 75 51" fill="none" xmlns="http://www.w3.org/2000/svg">
<path opacity="0.6" d="M25.1952 20.9823H25.7623C25.1952 23.8178 24.4661 26.5722 23.5749 30.1368C21.4686 38.7243 19.9293 50.4712 15.9597 49.9852C15.2305 49.9042 14.6634 49.175 14.7445 48.4459C14.9065 46.0965 14.7445 35.2407 14.7445 35.2407C14.7445 27.3824 13.9343 27.2203 13.0432 27.2203C12.152 27.2203 11.4229 27.6254 11.4229 35.4027C11.4229 35.4027 11.909 46.6636 12.152 49.094C12.152 49.4991 11.909 49.8231 11.5039 49.9041C7.53425 50.5523 3.56458 40.1825 2.26837 31.4331C1.70127 27.4634 1.05316 24.2228 0.567078 21.0633H1.05316C2.02532 20.9823 2.83546 20.2532 2.83546 19.281L3.15951 13.8531C3.24053 12.8809 4.05066 12.0708 5.02283 12.0708H20.9825C21.9547 12.0708 22.7648 12.7999 22.8458 13.7721L23.3319 19.2C23.4129 20.1722 24.223 20.9013 25.1952 20.9823Z" fill="white"/>
<path d="M25.1952 20.9823H25.7623C25.1952 23.8178 24.4661 26.5722 23.5749 30.1368C21.4686 38.7243 19.9293 50.4712 15.9597 49.9852C15.2305 49.9042 14.6634 49.175 14.7445 48.4459C14.9065 46.0965 14.7445 35.2407 14.7445 35.2407C14.7445 27.3824 13.9343 27.2203 13.0432 27.2203C12.152 27.2203 11.4229 27.6254 11.4229 35.4027C11.4229 35.4027 11.909 46.6636 12.152 49.094C12.152 49.4991 11.909 49.8231 11.5039 49.9041C7.53425 50.5523 3.56458 40.1825 2.26837 31.4331C1.70127 27.4634 1.05316 24.2228 0.567078 21.0633H1.05316C2.02532 20.9823 2.83546 20.2532 2.83546 19.281L3.15951 13.8531C3.24053 12.8809 4.05066 12.0708 5.02283 12.0708H20.9825C21.9547 12.0708 22.7648 12.7999 22.8458 13.7721L23.3319 19.2C23.4129 20.1722 24.223 20.9013 25.1952 20.9823V20.9823Z" stroke="#989898" stroke-width="0.8"/>
<path opacity="0.6" d="M73.2363 20.9823H73.8034C73.2363 23.8178 72.5072 26.5722 71.616 30.1368C69.5097 38.7243 67.9704 50.4712 64.0007 49.9852C63.1906 49.9042 62.7045 49.175 62.7855 48.4459C62.9476 46.0965 62.7855 35.2407 62.7855 35.2407C62.7855 27.3824 61.9754 27.2203 61.0842 27.2203C60.1121 27.2203 59.464 27.6254 59.464 35.4027C59.464 35.4027 59.9501 46.6636 60.1121 49.094C60.1931 49.4991 59.9501 49.8231 59.545 49.9041C55.5753 50.5523 51.6057 40.1825 50.3094 31.4331C49.7423 27.4634 49.0132 24.2228 48.6082 21.0633H49.0942C50.0664 20.9823 50.8765 20.2532 50.8765 19.281L51.2006 13.8531C51.2816 12.8809 52.0917 12.0708 53.0639 12.0708H69.0236C69.9957 12.0708 70.8059 12.7999 70.8869 13.7721L71.373 19.2C71.454 20.1722 72.2641 20.9013 73.2363 20.9823Z" fill="white"/>
<path d="M73.2363 20.9823H73.8034C73.2363 23.8178 72.5072 26.5722 71.616 30.1368C69.5097 38.7243 67.9704 50.4712 64.0007 49.9852C63.1906 49.9042 62.7045 49.175 62.7855 48.4459C62.9476 46.0965 62.7855 35.2407 62.7855 35.2407C62.7855 27.3824 61.9754 27.2203 61.0842 27.2203C60.1121 27.2203 59.464 27.6254 59.464 35.4027C59.464 35.4027 59.9501 46.6636 60.1121 49.094C60.1931 49.4991 59.9501 49.8231 59.545 49.9041C55.5753 50.5523 51.6057 40.1825 50.3094 31.4331C49.7423 27.4634 49.0132 24.2228 48.6082 21.0633H49.0942C50.0664 20.9823 50.8765 20.2532 50.8765 19.281L51.2006 13.8531C51.2816 12.8809 52.0917 12.0708 53.0639 12.0708H69.0236C69.9957 12.0708 70.8059 12.7999 70.8869 13.7721L71.373 19.2C71.454 20.1722 72.2641 20.9013 73.2363 20.9823V20.9823Z" stroke="#989898" stroke-width="0.8"/>
<path opacity="0.8" d="M73.8034 13.0432L73.7224 13.2862C72.7502 13.2862 71.9401 12.5571 71.8591 11.5849L71.373 7.37224C71.292 6.40008 69.9957 5.42791 69.0236 5.42791H53.0639C52.0917 5.42791 50.7955 6.48109 50.7145 7.45325L50.3905 11.666C50.3094 12.6381 49.5803 13.3672 48.6082 13.4483V13.2052C48.3921 11.909 48.2301 10.6128 48.1221 9.31656C48.1221 8.74947 47.393 8.58744 47.0689 8.99251C45.9347 10.6938 44.0714 11.1799 42.8562 12.3951C42.2891 12.9622 41.641 13.2052 40.9119 13.2052H33.6206C32.8915 13.2052 32.2434 12.9622 31.7573 12.4761C30.4611 11.2609 28.5168 10.8558 27.3016 9.07352C26.9775 8.58744 26.2484 8.74947 26.2484 9.31656C26.0864 10.6128 25.9243 11.909 25.7623 13.0432L25.6813 13.2862C24.7091 13.2862 23.899 12.5571 23.818 11.5849L23.4129 7.37224C23.2509 6.40008 21.9547 5.42791 20.9825 5.42791H5.02284C4.05068 5.42791 2.75446 6.48109 2.67345 7.45325L2.34939 11.666C2.34939 12.6381 1.53926 13.3672 0.567093 13.4483V13.2052C0.243038 10.9368 0 8.58744 0 6.15704C0 2.02534 2.51142 0.648111 5.18487 0.486083C7.85832 0.324056 11.4229 2.02534 13.4483 2.02534C14.9065 2.02534 16.6078 0 20.4154 0C22.9268 0 24.7091 1.05318 25.6003 2.75446C25.8433 3.15953 26.4914 3.15953 26.7345 2.67345C27.4636 1.13419 29.0029 0.486082 30.6231 0.405068C32.8105 0.243041 35.808 1.70129 37.4283 1.70129C38.7245 1.70129 40.1017 0 43.2613 0C45.6107 0 47.1499 1.05318 47.879 2.67345C48.0411 3.07852 48.6082 3.07852 48.8512 2.67345C49.8234 1.21521 51.5246 0.567097 53.2259 0.486083C55.8994 0.324056 59.464 2.02534 61.4893 2.02534C62.9476 2.02534 64.6488 0 68.3755 0C72.1831 0 74.2895 2.26838 74.3705 5.50893C74.3705 8.42542 74.2085 10.7748 73.8034 13.0432Z" fill="#808080"/>
</svg>
