<svg width="101" height="55" viewBox="0 0 101 55" fill="none" xmlns="http://www.w3.org/2000/svg">
<g clip-path="url(#clip0_2016_306)">
<path d="M32.2384 35.2578C32.2384 25.34 33.1246 27.1674 34.2767 27.1674C35.4289 27.1674 36.4304 25.0828 36.4304 35.0005C36.4304 35.0005 36.6608 48.857 36.4127 51.8199C36.3329 52.7691 37.0065 53.6384 37.9459 53.7537C37.9548 53.7537 37.9548 53.7537 37.9637 53.7537C43.0597 54.3747 45.0095 39.4803 47.6506 28.5691C49.627 20.4344 51.2489 15.5553 51.1337 7.30535C51.0805 3.23357 48.3508 0.332764 43.5826 0.332764C38.7967 0.332764 36.6165 2.88761 34.7554 2.88761C32.2029 2.88761 27.7006 0.714223 24.3061 0.909385C20.8851 1.10455 17.6857 2.88761 17.6857 8.11261C17.6857 15.5465 19.3076 21.4812 20.5927 30.1924C22.2234 41.3078 27.2486 54.4545 32.3181 53.6473C32.7967 53.5674 33.1335 53.1328 33.0891 52.6537C32.8144 49.5578 32.2384 35.2578 32.2384 35.2578Z" fill="white" fill-opacity="0.6" stroke="#989898" stroke-width="0.846774" stroke-miterlimit="10"/>
<path d="M66.3422 35.2666C66.3422 25.3488 67.0956 28.498 68.2477 28.498C69.3999 28.498 70.5432 25.0915 70.5432 35.0093C70.5432 35.0093 70.7736 48.8657 70.5254 51.8286C70.4457 52.7778 71.1192 53.6472 72.0587 53.7625C72.0675 53.7625 72.0675 53.7625 72.0764 53.7625C77.1725 54.3835 79.1223 39.4891 81.7634 28.5778C83.7398 20.4432 85.3617 15.5641 85.2464 7.31413C85.1933 3.24236 82.4635 0.341553 77.6954 0.341553C72.9095 0.341553 70.7293 2.89638 68.8681 2.89638C66.3156 2.89638 61.8133 0.722999 58.4189 0.91816C54.9978 1.11332 51.7984 2.89638 51.7984 8.12138C51.7984 15.5553 53.4203 21.4899 54.7054 30.2012C56.3362 41.3165 61.3613 54.4633 66.4308 53.6561C66.9094 53.5762 67.2462 53.1416 67.2019 52.6625C66.9094 49.5666 66.3422 35.2666 66.3422 35.2666Z" fill="white" fill-opacity="0.6" stroke="#989898" stroke-width="0.846774" stroke-miterlimit="10"/>
<path d="M88.3928 18.1901C87.1609 16.6997 84.5021 16.7973 83.2968 18.3054C80.2302 22.1465 74.9568 24.6747 68.9479 24.6747C62.7794 24.6747 57.3732 21.9957 54.351 17.9772C53.1899 16.4336 50.3981 16.4336 49.2194 17.9683C46.1972 21.9514 40.8176 24.6038 34.6757 24.6038C28.4274 24.6038 22.9768 21.8627 19.9812 17.7643C18.8024 16.1497 16.0106 16.1231 14.761 17.7022C12.0844 21.0731 7.80372 23.4949 2.80513 24.2401C1.3605 24.453 0.332489 25.4998 0.332489 26.7062V52.1481C0.332489 53.5409 1.70618 54.6675 3.39897 54.6675H97.6013C99.2941 54.6675 100.668 53.5409 100.668 52.1481V26.3691C100.668 25.2425 99.7637 24.2223 98.4254 23.9473C94.2777 23.1135 90.7326 21.0199 88.3928 18.1901Z" fill="#FFF3FA" stroke="#989898" stroke-width="0.846774" stroke-miterlimit="10"/>
</g>
<defs>
<clipPath id="clip0_2016_306">
<rect width="101" height="55" fill="white"/>
</clipPath>
</defs>
</svg>
