<svg width="37" height="51" viewBox="0 0 37 51" fill="none" xmlns="http://www.w3.org/2000/svg">
<path opacity="0.6" d="M11.1507 49.215C11.2152 49.5378 10.957 49.8605 10.6343 49.8605C7.08429 50.4414 3.59883 41.3405 2.50156 33.595C1.59792 27.5923 0.436096 23.4614 0.436096 18.2977C0.436096 14.6832 2.69519 13.4568 5.08338 13.3277C7.40702 13.1986 10.5052 14.6832 12.3125 14.6832C13.6034 14.6832 15.0879 12.9404 18.4443 12.9404C21.7361 12.9404 23.6079 14.9413 23.6725 17.7813C23.737 23.4614 22.6398 26.8823 21.2843 32.4977C19.4125 40.0496 18.057 50.3769 14.507 49.9896C13.8616 49.8605 13.4098 49.2796 13.4743 48.6341C13.6034 46.5687 13.4743 36.9514 13.4743 36.9514C13.4743 30.1095 12.7643 29.9159 11.9252 29.9159C11.1507 29.9159 10.5697 30.2386 10.5697 37.145C10.5697 37.145 10.957 47.0205 11.1507 49.215Z" fill="white"/>
<path d="M11.1507 49.215C11.2152 49.5378 10.957 49.8605 10.6343 49.8605C7.08429 50.4414 3.59883 41.3405 2.50156 33.595C1.59792 27.5923 0.436096 23.4614 0.436096 18.2977C0.436096 14.6832 2.69519 13.4568 5.08338 13.3277C7.40702 13.1986 10.5052 14.6832 12.3125 14.6832C13.6034 14.6832 15.0879 12.9404 18.4443 12.9404C21.7361 12.9404 23.6079 14.9413 23.6725 17.7813C23.737 23.4614 22.6398 26.8823 21.2843 32.4977C19.4125 40.0496 18.057 50.3768 14.507 49.9896C13.8616 49.8605 13.4098 49.2796 13.4743 48.6341C13.6034 46.5687 13.4743 36.9514 13.4743 36.9514C13.4743 30.1095 12.7643 29.9159 11.9252 29.9159C11.1507 29.9159 10.5698 30.2386 10.5698 37.145C10.5698 37.145 10.957 47.0205 11.1507 49.215V49.215Z" stroke="#989898" stroke-width="0.8"/>
<path d="M36.0652 2.74208L16.0561 15.7803C15.7334 16.0385 15.2815 16.103 14.8297 16.0385C14.4425 15.9739 13.9906 16.0385 13.6679 16.2966L5.01881 21.9121C4.50244 22.2348 3.79244 22.1057 3.46971 21.5894C3.14698 21.073 3.27607 20.4276 3.79244 20.1048L34.387 0.160258C34.9034 -0.162469 35.5488 0.0311673 35.8716 0.482986L36.3879 1.25753C36.7107 1.7739 36.5816 2.41935 36.0652 2.74208Z" fill="#808080"/>
<path d="M6.63249 24.9456L5.01885 22.4929C4.95431 22.3638 5.01885 22.1702 5.14794 22.1056L5.21249 22.0411C5.34158 21.912 5.53522 21.9765 5.66431 22.1056L7.2134 24.5583C7.34249 24.6874 7.27794 24.8811 7.14885 24.9456L7.01976 25.0102C6.89067 25.0747 6.69704 25.0747 6.63249 24.9456Z" fill="white" stroke="#989898" stroke-width="0.4"/>
<path d="M11.1506 21.9769L9.60155 19.5241C9.47246 19.395 9.53701 19.2014 9.6661 19.1369L9.79519 19.0723C9.92428 18.9432 10.1179 19.0078 10.1825 19.1369L11.7961 21.5896C11.8607 21.7187 11.7961 21.9123 11.667 21.9769L11.5379 22.0414C11.4088 22.1705 11.2152 22.106 11.1506 21.9769Z" fill="white" stroke="#989898" stroke-width="0.4"/>
<path d="M12.1834 21.3313L10.6343 18.8786C10.5052 18.7495 10.5698 18.5559 10.6989 18.4913L10.828 18.3622C10.9571 18.2977 11.1507 18.3622 11.2152 18.4913L12.8289 20.8795C12.8934 21.0731 12.8289 21.2022 12.6998 21.3313L12.5707 21.3959C12.4416 21.4604 12.3125 21.4604 12.1834 21.3313Z" fill="white" stroke="#989898" stroke-width="0.4"/>
<path d="M10.0533 22.6867L8.43969 20.234C8.37514 20.1049 8.43969 19.9758 8.56878 19.8467L8.69787 19.7821C8.82696 19.7176 8.95605 19.7176 9.08514 19.8467L10.6342 22.2994C10.7633 22.4285 10.6988 22.6221 10.5697 22.6867L10.4406 22.7512C10.3115 22.8803 10.1179 22.8158 10.0533 22.6867Z" fill="white" stroke="#989898" stroke-width="0.4"/>
<path d="M7.79434 24.1711L6.1807 21.7183C6.11616 21.5892 6.11616 21.3956 6.24525 21.3311L6.37434 21.2665C6.50343 21.202 6.69707 21.202 6.82616 21.3311L8.37525 23.7838C8.4398 23.9129 8.4398 24.1065 8.31071 24.1711L8.18161 24.2356C8.05252 24.3647 7.85889 24.3002 7.79434 24.1711Z" fill="white" stroke="#989898" stroke-width="0.4"/>
<path d="M8.89155 23.4612L7.34246 21.0085C7.21337 20.8794 7.27791 20.6858 7.40701 20.6212L7.53609 20.5567C7.66519 20.4276 7.85883 20.4921 7.92337 20.6212L9.53701 23.074C9.60156 23.2031 9.53701 23.3967 9.40792 23.4612L9.27883 23.5258C9.14974 23.5903 9.02065 23.5903 8.89155 23.4612Z" fill="white" stroke="#989898" stroke-width="0.4"/>
</svg>
