<svg width="50" height="52" viewBox="0 0 50 52" fill="none" xmlns="http://www.w3.org/2000/svg">
<path opacity="0.6" d="M22.4541 18.7796C22.2872 18.7796 22.1202 18.7796 22.0367 18.6127C21.6194 18.1953 21.369 17.611 21.202 17.0267C20.2838 13.1035 14.5242 13.3539 14.5242 6.25876C14.4407 2.75292 16.6945 1.50083 18.9483 1.41736C21.2855 1.25042 24.374 2.75292 26.0434 2.75292C27.2955 2.75292 28.798 1 32.0534 1C35.3089 1 37.1453 2.91987 37.1453 5.67446C37.1453 13.187 31.6361 13.02 30.5509 17.1937C30.384 17.8614 30.1336 18.2788 29.6327 18.6962C29.5214 18.7518 29.3823 18.7796 29.2154 18.7796H22.4541Z" fill="white"/>
<path d="M22.4541 18.7796C22.2872 18.7796 22.1202 18.7796 22.0367 18.6127C21.6194 18.1953 21.369 17.611 21.202 17.0267C20.2838 13.1035 14.5242 13.3539 14.5242 6.25876C14.4407 2.75292 16.6945 1.50083 18.9483 1.41736C21.2855 1.25042 24.374 2.75292 26.0434 2.75292C27.2955 2.75292 28.798 1 32.0534 1C35.3089 1 37.1453 2.91987 37.1453 5.67446C37.1453 13.187 31.6361 13.02 30.5509 17.1937C30.384 17.8614 30.1336 18.2788 29.6327 18.6962C29.5214 18.7518 29.3823 18.7796 29.2154 18.7796H22.4541Z" stroke="#989898" stroke-width="0.8"/>
<path opacity="0.8" d="M30.384 25.3743L30.3005 26.5429C30.8848 26.7098 31.2187 27.2107 31.1353 27.795C31.1353 28.3793 30.7179 28.7966 30.2171 28.9636L30.1336 30.1322C30.5509 30.2992 30.8848 30.8 30.8848 31.3843C30.8014 31.8851 30.4675 32.386 29.9666 32.4694L29.8832 33.7215C30.384 33.9719 30.7179 34.4728 30.6344 34.9736C30.6344 35.5579 30.2171 35.9753 29.7162 36.1422L29.6327 37.3108C30.2171 37.4778 30.5509 37.9786 30.5509 38.5629C30.5509 39.1472 30.0501 39.6481 29.5493 39.7315L29.4658 40.9002C29.9666 41.1506 30.3005 41.6514 30.2171 42.1522C30.2171 42.7365 29.7997 43.2374 29.2154 43.3209C28.965 44.406 28.4641 45.0738 27.7964 45.0738H23.5393C22.8715 45.0738 22.2872 44.1556 22.0368 42.9035C21.4524 42.7365 20.9516 42.2357 21.0351 41.5679C21.0351 40.9836 21.4524 40.5663 21.9533 40.3993L21.8698 39.2307C21.202 39.1472 20.7847 38.5629 20.7847 37.8951C20.8681 37.3943 21.202 36.8935 21.7863 36.81L21.7029 35.6414C21.0351 35.5579 20.5343 34.9736 20.6177 34.3058C20.6177 33.7215 21.0351 33.2207 21.5359 33.1372V31.9686C20.8681 31.8851 20.3673 31.3008 20.3673 30.633C20.4508 30.0487 20.8681 29.6314 21.369 29.4644V28.3793C20.7012 28.2958 20.2004 27.7115 20.2838 27.0437C20.2838 26.4594 20.7012 26.0421 21.202 25.8751V24.7065C20.5342 24.623 20.0334 24.0387 20.1169 23.3709C20.1169 22.7866 20.5343 22.3693 21.0351 22.2858C21.1186 20.6998 21.7863 19.3643 22.6211 19.3643H28.965C29.9666 19.3643 30.6344 20.9502 30.5509 22.7866V22.9536C31.0518 23.1205 31.3857 23.6214 31.3857 24.2057C31.3022 24.79 30.8848 25.2073 30.384 25.3743Z" fill="#808080"/>
<path opacity="0.6" d="M49.0818 26.7093V45.2402C49.0818 48.4122 46.4942 50.9998 43.3222 50.9998H6.59434C3.50585 50.9998 0.918213 48.4122 0.918213 45.2402V26.7093C0.918213 23.5374 3.50585 21.0332 6.59434 21.0332H20.0334C19.9778 21.2558 19.9221 21.5062 19.8665 21.7845C19.8665 22.0349 19.6995 22.2853 19.4491 22.3688C18.9483 22.5357 18.6144 22.9531 18.6144 23.3704C18.5309 23.9547 18.9483 24.4556 19.5326 24.6225C19.783 24.706 19.9499 24.9564 20.0334 25.2068V25.3738C20.0334 25.6242 19.8665 25.9581 19.616 26.0416C19.1987 26.292 18.8648 26.6259 18.8648 27.0432C18.7813 27.5441 19.1987 28.0449 19.783 28.2953C20.0334 28.3788 20.2003 28.6292 20.2003 28.8796V28.9631C20.2838 29.2135 20.1169 29.5474 19.783 29.6309C19.3656 29.7978 19.0317 30.2152 19.0317 30.6325C18.9483 31.2168 19.3656 31.7177 19.9499 31.8846C20.2003 31.9681 20.4508 32.2185 20.4508 32.4689V32.5524C20.4508 32.8863 20.2838 33.1367 20.0334 33.3037C19.616 33.4706 19.2822 33.888 19.2822 34.3053C19.1987 34.8062 19.616 35.307 20.2003 35.5574C20.4508 35.6409 20.6177 35.8078 20.7012 36.1417V36.2252C20.7012 36.5591 20.5342 36.8095 20.2838 36.893C19.8665 37.1434 19.5326 37.4773 19.5326 37.8946C19.4491 38.479 19.8665 38.8963 20.4508 39.1467C20.7012 39.2302 20.8681 39.4806 20.8681 39.731V39.898C20.9516 40.1484 20.7847 40.4823 20.4508 40.5658C20.1169 40.8162 19.783 41.1501 19.783 41.5674C19.6995 42.0683 20.1169 42.5691 20.7847 42.8195C20.9516 42.903 21.1185 43.0699 21.202 43.3204C21.5359 44.489 22.2037 45.8245 23.0384 45.8245H28.3806C29.0484 45.8245 29.6327 44.6559 30.0501 43.6542C30.0501 43.4873 30.217 43.3203 30.4675 43.2369C30.9683 43.0699 31.3857 42.6526 31.3857 42.1517C31.4691 41.7344 31.2187 41.317 30.8013 41.0666C30.5509 40.9831 30.4675 40.7327 30.4675 40.4823V40.2319C30.4675 39.9815 30.7179 39.731 30.9683 39.6476C31.3857 39.4806 31.803 39.0633 31.803 38.5624C31.8865 38.1451 31.5526 37.7277 31.1352 37.4773C30.8848 37.3103 30.7179 37.0599 30.7179 36.8095V36.5591C30.8013 36.3087 30.9683 36.0582 31.1352 35.9748C31.5526 35.8078 31.8865 35.3905 31.97 34.9731C31.97 34.5557 31.7195 34.1384 31.3022 33.888C31.1352 33.8045 30.9683 33.5541 30.9683 33.2202L31.0518 32.9698C31.0518 32.7193 31.2187 32.4689 31.4691 32.3855C31.8865 32.135 32.1369 31.8012 32.2204 31.3838C32.2204 30.9664 31.97 30.5491 31.6361 30.2986C31.3857 30.1317 31.3022 29.8813 31.3022 29.6309V29.3804C31.3022 29.13 31.4691 28.9631 31.7195 28.7961C32.2204 28.6292 32.5543 28.2118 32.5543 27.7945C32.6377 27.2936 32.3873 26.9598 31.8865 26.7093C31.6361 26.5424 31.5526 26.292 31.5526 25.9581V25.7911C31.6361 25.5407 31.803 25.2903 31.97 25.2068C32.4708 25.0399 32.8047 24.6225 32.8047 24.2052C32.8882 23.6209 32.4708 23.12 31.803 22.9531V22.7861C31.8865 22.1183 31.803 21.534 31.6361 21.0332H43.3222C46.4942 21.0332 49.0818 23.5374 49.0818 26.7093Z" fill="white"/>
<path d="M49.0818 26.7093V45.2402C49.0818 48.4122 46.4942 50.9998 43.3222 50.9998H6.59434C3.50585 50.9998 0.918213 48.4122 0.918213 45.2402V26.7093C0.918213 23.5374 3.50585 21.0332 6.59434 21.0332H20.0334C19.9778 21.2558 19.9221 21.5062 19.8665 21.7845C19.8665 22.0349 19.6995 22.2853 19.4491 22.3688C18.9483 22.5357 18.6144 22.9531 18.6144 23.3704C18.5309 23.9547 18.9483 24.4556 19.5326 24.6225C19.783 24.706 19.9499 24.9564 20.0334 25.2068V25.3738C20.0334 25.6242 19.8665 25.9581 19.616 26.0416C19.1987 26.292 18.8648 26.6259 18.8648 27.0432C18.7813 27.5441 19.1987 28.0449 19.783 28.2953C20.0334 28.3788 20.2003 28.6292 20.2003 28.8796V28.9631C20.2838 29.2135 20.1169 29.5474 19.783 29.6309C19.3656 29.7978 19.0317 30.2152 19.0317 30.6325C18.9483 31.2168 19.3656 31.7177 19.9499 31.8846C20.2003 31.9681 20.4508 32.2185 20.4508 32.4689V32.5524C20.4508 32.8863 20.2838 33.1367 20.0334 33.3037C19.616 33.4706 19.2822 33.888 19.2822 34.3053C19.1987 34.8062 19.616 35.307 20.2003 35.5574C20.4508 35.6409 20.6177 35.8078 20.7012 36.1417V36.2252C20.7012 36.5591 20.5342 36.8095 20.2838 36.893C19.8665 37.1434 19.5326 37.4773 19.5326 37.8946C19.4491 38.479 19.8665 38.8963 20.4508 39.1467C20.7012 39.2302 20.8681 39.4806 20.8681 39.731V39.898C20.9516 40.1484 20.7847 40.4823 20.4508 40.5658C20.1169 40.8162 19.783 41.1501 19.783 41.5674C19.6995 42.0683 20.1169 42.5691 20.7847 42.8195C20.9516 42.903 21.1185 43.0699 21.202 43.3204C21.5359 44.489 22.2037 45.8245 23.0384 45.8245H28.3806C29.0484 45.8245 29.6327 44.6559 30.0501 43.6542C30.0501 43.4873 30.217 43.3203 30.4675 43.2369C30.9683 43.0699 31.3857 42.6526 31.3857 42.1517C31.4691 41.7344 31.2187 41.317 30.8013 41.0666C30.5509 40.9831 30.4675 40.7327 30.4675 40.4823V40.2319C30.4675 39.9815 30.7179 39.731 30.9683 39.6476C31.3857 39.4806 31.803 39.0633 31.803 38.5624C31.8865 38.1451 31.5526 37.7277 31.1352 37.4773C30.8848 37.3103 30.7179 37.0599 30.7179 36.8095V36.5591C30.8013 36.3087 30.9683 36.0582 31.1352 35.9748C31.5526 35.8078 31.8865 35.3905 31.97 34.9731C31.97 34.5557 31.7195 34.1384 31.3022 33.888C31.1352 33.8045 30.9683 33.5541 30.9683 33.2202L31.0518 32.9698C31.0518 32.7194 31.2187 32.4689 31.4691 32.3855C31.8865 32.135 32.1369 31.8012 32.2204 31.3838C32.2204 30.9664 31.97 30.5491 31.6361 30.2986C31.3857 30.1317 31.3022 29.8813 31.3022 29.6309V29.3804C31.3022 29.13 31.4691 28.9631 31.7195 28.7961C32.2204 28.6292 32.5543 28.2118 32.5543 27.7945C32.6377 27.2936 32.3873 26.9598 31.8865 26.7093C31.6361 26.5424 31.5526 26.292 31.5526 25.9581V25.7911C31.6361 25.5407 31.803 25.2903 31.97 25.2068C32.4708 25.0399 32.8047 24.6225 32.8047 24.2052C32.8882 23.6209 32.4708 23.12 31.803 22.9531V22.7861C31.8865 22.1183 31.803 21.534 31.6361 21.0332H43.3222C46.4942 21.0332 49.0818 23.5374 49.0818 26.7093V26.7093Z" stroke="#989898" stroke-width="0.8"/>
</svg>
