<svg width="32" height="55" viewBox="0 0 32 55" fill="none" xmlns="http://www.w3.org/2000/svg">
<g clip-path="url(#clip0_1856_256)">
<path d="M14.4927 0.303292L8.99929 26.9121C8.71301 28.3153 10.1289 29.4709 11.4984 28.9607L17.9125 26.5669L16.2181 54.6015C16.1871 55.0742 16.9067 55.1568 16.984 54.684L21.8043 23.3477C22.0364 21.9445 20.5896 20.8414 19.2433 21.3892L13.4946 23.7154L15.2509 0.408346C15.2896 -0.0643996 14.5855 -0.16195 14.4927 0.303292Z" fill="#FF0004"/>
<path d="M14.0981 30.8968C14.16 30.0338 13.2702 29.4185 12.4501 29.7262L11.1812 30.2064C9.51769 30.8292 7.58339 28.4205 7.93156 26.7246L11.9007 7.4696C12.0245 6.86179 11.6454 6.25397 11.0187 6.09639C9.57184 5.7287 8.10177 5.43605 6.80966 5.51108C3.69931 5.68367 0.790131 7.25199 0.790131 11.8594C0.790131 18.4103 2.26794 23.6405 3.42851 31.317C4.90632 41.1096 9.48673 52.6956 14.0904 51.9902C14.5236 51.9227 14.8331 51.54 14.7944 51.1123C14.5236 48.3808 14.0053 35.7818 14.0053 35.7818C14.0053 33.358 14.0207 31.9098 14.0981 30.8968Z" fill="white" fill-opacity="0.6" stroke="#989898" stroke-width="0.716281" stroke-miterlimit="10"/>
<path d="M31.205 11.154C31.1508 7.56713 28.6672 5.0083 24.3421 5.0083C19.9938 5.0083 18.0054 7.25947 16.3187 7.25947C15.808 7.25947 16.249 7.28198 15.6069 7.1394L14.6861 20.3613C14.6242 21.2317 15.5218 21.8696 16.3574 21.5469L19.5606 20.3087C21.1931 19.6484 23.4756 21.3143 23.197 23.0102L18.2298 51.7501C18.4232 51.8701 18.9725 52.0652 19.2046 52.0952C19.2124 52.0952 19.2124 52.0952 19.2201 52.0952C23.8547 52.6355 25.6265 39.5187 28.0328 29.8987C29.8278 22.725 31.3056 18.4253 31.205 11.154Z" fill="white" fill-opacity="0.6" stroke="#989898" stroke-width="0.716281" stroke-miterlimit="10"/>
</g>
<defs>
<clipPath id="clip0_1856_256">
<rect width="31" height="55" fill="white" transform="translate(0.5)"/>
</clipPath>
</defs>
</svg>
