<svg width="35" height="51" viewBox="0 0 35 51" fill="none" xmlns="http://www.w3.org/2000/svg">
<path opacity="0.6" d="M13.4028 49.0911C13.4028 49.504 13.1275 49.8482 12.7834 49.917C8.72262 50.5364 4.7307 40.0748 3.423 31.2651C2.45943 24.3136 1.15173 19.6334 1.15173 13.7144C1.15173 9.58481 3.6983 8.13946 6.38253 8.0018C9.13558 7.79533 12.7145 9.58481 14.7105 9.58481C16.2247 9.58481 17.9453 7.52002 21.7308 7.52002C25.5162 7.52002 27.7187 9.86011 27.7187 13.0949C27.8563 19.6334 26.5486 23.4877 24.9656 29.9574C22.832 38.6295 21.3178 50.4676 17.2571 49.9858C16.5 49.8482 15.9494 49.1599 16.0182 48.4028C16.2247 46.0627 16.0182 35.0505 16.0182 35.0505C16.0182 27.2043 15.2611 26.9978 14.2975 26.9978C13.4028 26.9978 12.7145 27.4108 12.7145 35.257C12.7145 35.257 13.1275 46.6133 13.4028 49.0911Z" fill="white"/>
<path d="M13.4028 49.0911C13.4028 49.504 13.1275 49.8482 12.7834 49.917C8.72262 50.5364 4.7307 40.0748 3.423 31.2651C2.45943 24.3136 1.15173 19.6334 1.15173 13.7144C1.15173 9.58481 3.6983 8.13946 6.38253 8.0018C9.13558 7.79533 12.7145 9.58481 14.7105 9.58481C16.2247 9.58481 17.9453 7.52002 21.7308 7.52002C25.5162 7.52002 27.7187 9.86011 27.7187 13.0949C27.8563 19.6334 26.5486 23.4877 24.9656 29.9574C22.832 38.6295 21.3178 50.4676 17.2571 49.9858C16.5 49.8482 15.9494 49.1599 16.0182 48.4028C16.2247 46.0627 16.0182 35.0505 16.0182 35.0505C16.0182 27.2043 15.2611 26.9978 14.2975 26.9978C13.4028 26.9978 12.7145 27.4108 12.7145 35.257C12.7145 35.257 13.1275 46.6133 13.4028 49.0911V49.0911Z" stroke="#989898" stroke-width="0.8"/>
<path d="M5.76309 18.4633C6.24487 18.6698 11.6133 21.2164 14.504 21.767C17.1194 22.2488 20.5607 22.2488 21.5931 20.4593C23.4514 17.4309 31.9171 3.11508 33.5689 0.293207C33.7065 0.0867285 33.9818 -0.0509224 34.2571 0.0179039C34.7389 0.0867301 35.0142 0.63734 34.7389 1.0503C32.4677 4.83574 23.3826 20.5281 22.6943 21.354C21.9373 22.18 20.7672 22.8682 19.666 23.0747C18.083 23.35 16.7065 23.4876 14.3664 22.8682C12.2328 22.3864 6.3137 19.3581 6.03839 19.2204C5.55661 18.9451 5.21248 18.188 5.76309 18.4633Z" fill="#808080"/>
</svg>
