<svg width="466" height="155" viewBox="0 0 466 155" fill="none" xmlns="http://www.w3.org/2000/svg">
<path d="M120.763 119.319C110.564 118.218 100.766 118.018 91.2671 118.518V89.6822C101.766 88.4807 109.964 79.0689 109.964 67.4544C109.964 58.6434 99.6659 34.313 93.4668 20.696C92.6669 18.9939 91.0671 17.8925 89.1674 17.8925C87.2676 17.8925 85.5679 18.9939 84.868 20.696C78.6689 34.4131 68.3703 58.6434 68.3703 67.4544C68.3703 79.0689 76.5692 88.4807 87.0677 89.6822V118.819C64.2709 120.621 44.3737 126.428 29.2759 133.036L29.1759 94.5883C42.8739 93.3868 53.6724 80.9713 53.6724 65.9526C53.6724 53.8374 38.0746 18.0927 31.3756 3.27421C30.5757 1.57208 28.9759 0.470703 27.0762 0.470703C25.1765 0.470703 23.4767 1.57208 22.7768 3.27421C16.0777 18.0927 0.47995 53.7373 0.47995 65.9526C0.47995 81.0714 11.2784 93.3868 24.9765 94.5883L25.0765 134.939C13.1782 140.546 4.67935 146.453 0.979879 150.658C0.179993 151.56 0.279975 152.861 1.17985 153.662C1.57979 154.063 2.07973 154.163 2.57966 154.163C3.17957 154.163 3.77948 153.963 4.17942 153.462C7.77891 149.357 16.0777 143.65 27.8761 138.143C27.976 138.143 28.076 138.043 28.076 138.043C49.573 128.13 82.6683 119.319 120.363 123.525C121.563 123.625 122.563 122.824 122.763 121.622C122.763 120.521 121.963 119.419 120.763 119.319ZM72.5697 67.4544C72.5697 61.6472 78.5689 44.8261 88.6674 22.3981C88.7674 22.1979 88.8674 22.0977 89.0674 22.0977C89.2674 22.0977 89.4673 22.1979 89.4673 22.3981C99.5659 44.8261 105.565 61.6472 105.565 67.4544C105.565 77.4669 98.1661 85.6772 88.9674 85.6772C80.0687 85.6772 72.5697 77.4669 72.5697 67.4544ZM4.67935 65.9526C4.67935 54.338 21.477 16.3906 26.5763 5.07645C26.6762 4.8762 26.7762 4.77609 26.9762 4.77609C27.1762 4.77609 27.3761 4.8762 27.3761 5.07645C32.4754 16.3906 49.273 54.338 49.273 65.9526C49.273 79.4694 39.2744 90.4832 26.8762 90.4832C14.6779 90.4832 4.67935 79.4694 4.67935 65.9526ZM149.859 36.8161C149.859 38.4181 149.559 39.8199 148.959 41.0214C148.359 42.2229 147.559 43.2241 146.659 44.0251C145.659 44.8261 144.559 45.4269 143.26 45.8274C141.96 46.2279 140.56 46.4281 139.06 46.4281H129.462V64.7511H128.262V27.4044H138.36C139.66 27.4044 141.06 27.5045 142.46 27.8049C143.86 28.1052 145.059 28.6059 146.159 29.3068C147.259 30.0076 148.159 31.0089 148.859 32.1102C149.559 33.512 149.859 35.0139 149.859 36.8161ZM148.759 36.8161C148.759 35.2141 148.459 33.9125 147.859 32.9112C147.259 31.8099 146.459 31.0089 145.559 30.4081C144.66 29.8074 143.56 29.3067 142.36 29.0064C141.16 28.706 140.06 28.6059 138.86 28.6059H129.462V45.6271H139.16C140.36 45.6271 141.46 45.4269 142.66 45.1265C143.86 44.8261 144.859 44.3255 145.759 43.6246C146.659 42.9238 147.359 42.0226 147.959 40.9213C148.459 39.7198 148.759 38.318 148.759 36.8161ZM183.454 64.8512L179.055 54.1378H157.458L152.858 64.8512H151.559L167.756 27.5045H169.256L184.754 64.8512H183.454ZM168.456 28.3055L157.858 53.1365H178.655L168.456 28.3055ZM216.549 64.5508C214.15 65.4519 211.65 65.9526 209.25 65.9526C206.451 65.9526 203.851 65.4519 201.551 64.4507C199.252 63.4494 197.252 62.1478 195.552 60.3456C193.853 58.6434 192.553 56.5408 191.653 54.1378C190.753 51.7348 190.253 49.0314 190.253 46.2279C190.253 43.4244 190.753 40.721 191.653 38.318C192.553 35.915 193.853 33.8124 195.552 32.1102C197.252 30.4081 199.252 29.0064 201.551 28.0051C203.851 27.0039 206.451 26.5032 209.25 26.5032C211.55 26.5032 213.85 26.9037 216.049 27.7047C218.249 28.5057 220.149 29.7073 221.649 31.3093L220.949 32.1102C220.249 31.3092 219.349 30.7085 218.449 30.1077C217.549 29.507 216.549 29.0064 215.549 28.706C214.55 28.3055 213.45 28.0051 212.45 27.905C211.35 27.7047 210.35 27.6046 209.35 27.6046C206.651 27.6046 204.251 28.1052 202.051 29.0064C199.852 30.0076 197.952 31.3093 196.452 33.0114C194.952 34.7135 193.653 36.716 192.853 38.9188C191.953 41.2216 191.553 43.6246 191.553 46.2279C191.553 48.8312 191.953 51.2342 192.853 53.537C193.653 55.8399 194.852 57.7423 196.452 59.4444C198.052 61.1465 199.852 62.4482 202.051 63.4494C204.251 64.4507 206.651 64.8512 209.35 64.8512C211.65 64.8512 213.95 64.4507 216.249 63.5496C218.549 62.6484 220.349 61.3468 221.849 59.5445L222.648 60.3456C220.849 62.1478 218.949 63.5496 216.549 64.5508ZM231.647 64.8512V27.5045H232.847V64.8512H231.647ZM246.845 28.6059V45.0264H265.542V46.1278H246.845V64.9513H245.645V27.6046H266.942V28.706H246.845V28.6059ZM276.741 64.8512V27.5045H277.941V64.8512H276.741ZM315.235 64.5508C312.836 65.4519 310.336 65.9526 307.936 65.9526C305.137 65.9526 302.537 65.4519 300.237 64.4507C297.938 63.4494 295.938 62.1478 294.238 60.3456C292.539 58.6434 291.239 56.5408 290.339 54.1378C289.439 51.7348 288.939 49.0314 288.939 46.2279C288.939 43.4244 289.439 40.721 290.339 38.318C291.239 35.915 292.539 33.8124 294.238 32.1102C295.938 30.4081 297.938 29.0064 300.237 28.0051C302.537 27.0039 305.137 26.5032 307.936 26.5032C310.236 26.5032 312.536 26.9037 314.735 27.7047C316.935 28.5057 318.835 29.7073 320.335 31.3093L319.635 32.1102C318.935 31.3092 318.035 30.7085 317.135 30.1077C316.235 29.507 315.235 29.0064 314.235 28.706C313.236 28.3055 312.136 28.0051 311.136 27.905C310.036 27.7047 309.036 27.6046 308.036 27.6046C305.337 27.6046 302.937 28.1052 300.737 29.0064C298.538 30.0076 296.638 31.3093 295.138 33.0114C293.638 34.7135 292.339 36.716 291.539 38.9188C290.639 41.2216 290.239 43.6246 290.239 46.2279C290.239 48.8312 290.639 51.2342 291.539 53.537C292.339 55.8399 293.538 57.7423 295.138 59.4444C296.738 61.1465 298.538 62.4482 300.737 63.4494C302.937 64.4507 305.337 64.8512 308.036 64.8512C310.336 64.8512 312.636 64.4507 314.935 63.5496C317.235 62.6484 319.035 61.3468 320.535 59.5445L321.334 60.3456C319.635 62.1478 317.635 63.5496 315.235 64.5508ZM366.828 36.8161C366.828 38.4181 366.528 39.8199 365.928 41.0214C365.328 42.2229 364.528 43.2241 363.628 44.0251C362.629 44.8261 361.529 45.4269 360.229 45.8274C358.929 46.2279 357.529 46.4281 356.03 46.4281H346.431V64.7511H345.231V27.4044H355.33C356.629 27.4044 358.029 27.5045 359.429 27.8049C360.829 28.1052 362.029 28.6059 363.129 29.3068C364.228 30.0076 365.128 31.0089 365.828 32.1102C366.528 33.512 366.828 35.0139 366.828 36.8161ZM365.728 36.8161C365.728 35.2141 365.428 33.9125 364.828 32.9112C364.228 31.8099 363.428 31.0089 362.529 30.4081C361.629 29.8074 360.529 29.3067 359.329 29.0064C358.129 28.706 357.029 28.6059 355.83 28.6059H346.431V45.6271H356.13C357.329 45.6271 358.429 45.4269 359.629 45.1265C360.829 44.8261 361.829 44.3255 362.729 43.6246C363.628 42.9238 364.328 42.0226 364.928 40.9213C365.428 39.7198 365.728 38.318 365.728 36.8161ZM400.423 64.8512L396.024 54.1378H374.427L369.828 64.8512H368.528L384.725 27.5045H386.225L401.723 64.8512H400.423ZM385.425 28.3055L374.827 53.1365H395.624L385.425 28.3055ZM431.019 64.8512L419.72 46.0276H411.022V64.8512H409.822V27.5045H420.12C421.52 27.5045 422.92 27.6046 424.32 27.905C425.72 28.1052 427.019 28.6059 428.119 29.3068C429.219 30.0076 430.119 30.9087 430.819 32.1102C431.519 33.3117 431.919 34.8136 431.919 36.716C431.919 38.5183 431.619 39.92 430.919 41.1215C430.219 42.323 429.419 43.2241 428.319 43.925C427.219 44.6259 426.12 45.1265 424.82 45.527C423.52 45.8274 422.32 46.0276 421.02 46.0276L432.319 64.8512H431.019ZM430.719 36.716C430.719 35.114 430.419 33.7123 429.819 32.711C429.219 31.6096 428.319 30.8086 427.319 30.2079C426.32 29.6071 425.12 29.2066 423.72 28.9062C422.32 28.706 421.02 28.5057 419.621 28.5057H411.122V45.0264H420.22C423.62 45.0264 426.32 44.3255 428.119 42.8236C429.919 41.3218 430.719 39.4194 430.719 36.716ZM444.017 44.6259L462.714 27.5045H464.414L445.417 44.6259L465.314 64.8512H463.714L444.017 44.6259L443.917 64.8512H442.717V27.5045H443.917L444.017 44.6259ZM167.956 77.3668H185.254V81.5721H172.656V88.9813H184.454V92.9863H172.656V104.2H167.956V77.3668ZM199.652 101.897H199.552C199.052 102.698 198.352 103.399 197.352 103.9C196.352 104.401 195.152 104.701 193.853 104.701C193.153 104.701 192.353 104.601 191.553 104.401C190.753 104.2 190.053 103.9 189.353 103.499C188.653 103.099 188.153 102.498 187.653 101.797C187.253 101.096 186.953 100.195 186.953 99.094C186.953 97.6922 187.353 96.5909 188.153 95.7898C188.953 94.9888 189.953 94.3881 191.153 93.8875C192.353 93.487 193.753 93.1866 195.152 92.9863C196.652 92.8862 198.052 92.7861 199.452 92.7861V92.2855C199.452 91.1841 199.052 90.283 198.252 89.7823C197.452 89.2817 196.452 88.9813 195.352 88.9813C194.352 88.9813 193.453 89.1816 192.553 89.5821C191.653 89.9826 190.953 90.4832 190.353 91.084L187.953 88.2805C188.953 87.2792 190.153 86.5783 191.553 86.0777C192.953 85.5771 194.252 85.3768 195.652 85.3768C197.252 85.3768 198.652 85.5771 199.652 86.0777C200.652 86.5783 201.551 87.079 202.151 87.88C202.751 88.5808 203.151 89.482 203.451 90.3831C203.651 91.2842 203.851 92.1853 203.851 93.0865V104.2H199.652V101.897ZM199.552 95.89H198.552C197.852 95.89 197.052 95.89 196.252 95.9901C195.452 96.0902 194.652 96.1904 194.052 96.3906C193.353 96.5909 192.753 96.8912 192.353 97.2917C191.853 97.6922 191.653 98.1929 191.653 98.8937C191.653 99.2942 191.753 99.6947 191.953 99.9951C192.153 100.295 192.353 100.496 192.653 100.696C192.953 100.896 193.253 100.996 193.653 101.096C194.053 101.197 194.452 101.197 194.752 101.197C196.352 101.197 197.552 100.796 198.352 99.895C199.152 99.094 199.552 97.8925 199.552 96.4907V95.89ZM231.747 85.477C232.947 85.477 233.947 85.6772 234.847 86.0777C235.647 86.4782 236.346 87.079 236.946 87.7798C237.446 88.4807 237.846 89.2817 238.146 90.1828C238.446 91.084 238.546 91.9851 238.546 92.8862V104.2H233.947V94.0877C233.947 93.5871 233.947 92.9864 233.847 92.3856C233.747 91.7849 233.647 91.2842 233.347 90.7836C233.047 90.283 232.747 89.8825 232.347 89.5821C231.947 89.2817 231.347 89.0815 230.547 89.0815C229.847 89.0815 229.247 89.2817 228.748 89.5821C228.248 89.8825 227.848 90.283 227.448 90.7836C227.148 91.2842 226.848 91.7849 226.748 92.3856C226.548 92.9864 226.548 93.5871 226.548 94.1878V104.1H221.949V93.0865C221.949 91.9851 221.649 90.9838 221.149 90.283C220.649 89.5821 219.749 89.1816 218.549 89.1816C217.849 89.1816 217.249 89.2817 216.749 89.5821C216.249 89.8825 215.849 90.283 215.549 90.6835C215.249 91.1841 214.95 91.6847 214.85 92.2855C214.65 92.8862 214.65 93.487 214.65 94.0877V104.1H209.95V85.8775H214.25V88.7811H214.35C214.55 88.2805 214.85 87.88 215.15 87.4795C215.449 87.079 215.849 86.6785 216.349 86.3781C216.849 86.0777 217.349 85.7773 217.949 85.5771C218.549 85.3768 219.249 85.2767 219.949 85.2767C221.349 85.2767 222.548 85.5771 223.448 86.1778C224.348 86.7786 225.148 87.6797 225.648 88.681C226.248 87.5796 227.048 86.6785 228.048 86.0777C229.148 85.7773 230.347 85.477 231.747 85.477ZM243.945 79.7698C243.945 79.0689 244.245 78.3681 244.745 77.8675C245.245 77.3668 245.945 77.0665 246.845 77.0665C247.645 77.0665 248.345 77.3668 248.945 77.8675C249.545 78.3681 249.845 79.069 249.845 79.87C249.845 80.671 249.545 81.2717 248.945 81.8725C248.345 82.3731 247.645 82.6734 246.845 82.6734C246.045 82.6734 245.345 82.3731 244.745 81.8725C244.245 81.1716 243.945 80.5708 243.945 79.7698ZM244.545 85.9776H249.145V104.2H244.545V85.9776ZM255.544 75.5646H260.143V104.2H255.544V75.5646ZM263.643 85.9776H268.642L273.741 99.1941H273.841L278.341 85.9776H283.04L274.441 108.105C274.141 108.906 273.741 109.707 273.341 110.308C272.941 110.909 272.541 111.51 271.941 111.91C271.342 112.311 270.742 112.711 270.042 112.911C269.342 113.112 268.442 113.212 267.442 113.212C267.042 113.212 266.642 113.212 266.242 113.112C265.842 113.112 265.442 113.011 265.042 112.911L265.442 109.006C265.742 109.106 266.042 109.207 266.342 109.207C266.642 109.207 266.942 109.307 267.142 109.307C267.642 109.307 268.042 109.207 268.342 109.106C268.642 109.006 268.942 108.806 269.142 108.606C269.342 108.406 269.542 108.105 269.742 107.705C269.942 107.304 270.142 106.904 270.342 106.403L271.242 104.1L263.643 85.9776ZM297.038 77.3668H306.537C308.236 77.3668 310.036 77.5671 311.836 78.0677C313.636 78.5683 315.235 79.2692 316.635 80.3706C318.035 81.3718 319.235 82.7736 320.135 84.4757C321.034 86.1778 321.434 88.2805 321.434 90.8837C321.434 93.2867 321.034 95.2892 320.135 96.9913C319.235 98.6935 318.135 100.095 316.635 101.197C315.235 102.298 313.636 103.099 311.836 103.6C310.036 104.1 308.336 104.401 306.537 104.401H297.038V77.3668ZM305.837 100.095C307.036 100.095 308.336 99.9951 309.536 99.6947C310.736 99.3943 311.936 98.8937 312.936 98.1928C313.935 97.492 314.735 96.5909 315.335 95.3894C315.935 94.1879 316.235 92.686 316.235 90.8837C316.235 88.9813 315.935 87.3793 315.335 86.1778C314.735 84.9763 313.836 83.9751 312.936 83.3743C311.936 82.6735 310.836 82.1728 309.536 81.9726C308.336 81.6722 307.036 81.5721 305.837 81.5721H301.837V100.195H305.837V100.095ZM343.931 95.3894C343.931 95.5896 343.931 95.7898 343.931 95.9901C343.931 96.1903 343.931 96.3906 343.931 96.5909H330.133C330.233 97.2917 330.333 97.8925 330.633 98.3931C330.933 98.8937 331.333 99.3944 331.833 99.7949C332.333 100.195 332.833 100.496 333.433 100.696C334.033 100.896 334.633 100.996 335.332 100.996C336.432 100.996 337.432 100.796 338.232 100.396C339.032 99.9951 339.632 99.3943 340.132 98.6935L343.131 101.096C341.332 103.499 338.732 104.701 335.332 104.701C333.933 104.701 332.633 104.501 331.433 104C330.233 103.6 329.233 102.899 328.333 102.098C327.434 101.297 326.734 100.295 326.334 99.094C325.834 97.8925 325.634 96.5909 325.634 95.089C325.634 93.5871 325.834 92.2855 326.334 91.084C326.834 89.8825 327.534 88.8812 328.333 87.9801C329.233 87.1791 330.233 86.4782 331.433 85.9776C332.633 85.477 333.833 85.2767 335.232 85.2767C336.532 85.2767 337.632 85.477 338.732 85.8775C339.832 86.278 340.732 86.8787 341.532 87.7798C342.331 88.5808 342.931 89.5821 343.331 90.8837C343.731 92.2855 343.931 93.6872 343.931 95.3894ZM339.432 93.2867C339.432 92.686 339.332 92.1853 339.232 91.5846C339.032 91.084 338.832 90.5833 338.432 90.1828C338.032 89.7823 337.632 89.482 337.132 89.1816C336.632 88.9813 335.932 88.7811 335.232 88.7811C333.833 88.7811 332.733 89.1816 331.733 89.9826C330.833 90.7836 330.233 91.885 330.133 93.1866L339.432 93.2867ZM349.131 85.9776H353.43V88.8812H353.53C353.93 87.9801 354.63 87.1791 355.63 86.4782C356.629 85.7773 357.829 85.477 359.129 85.477C360.329 85.477 361.329 85.6772 362.229 86.0777C363.029 86.4782 363.728 87.079 364.328 87.7798C364.828 88.4807 365.228 89.2817 365.528 90.1828C365.828 91.084 365.928 91.9851 365.928 92.8862V104.2H361.329V94.0877C361.329 93.5871 361.329 92.9864 361.229 92.3856C361.129 91.7849 361.029 91.2842 360.729 90.7836C360.429 90.283 360.129 89.8825 359.729 89.5821C359.329 89.2817 358.729 89.0815 357.929 89.0815C357.229 89.0815 356.529 89.1816 356.03 89.482C355.53 89.7823 355.03 90.1828 354.73 90.5833C354.43 91.084 354.13 91.5846 353.93 92.1853C353.73 92.7861 353.63 93.3868 353.63 93.9876V104H349.031L349.131 85.9776ZM369.328 89.6822V86.0777H372.527V80.7711H377.027V86.0777H381.626V89.6822H377.027V98.1928C377.027 98.9939 377.127 99.6947 377.426 100.195C377.726 100.696 378.326 100.996 379.426 100.996C379.726 100.996 380.026 100.996 380.426 100.896C380.826 100.796 381.126 100.696 381.326 100.596L381.526 104.2C381.126 104.401 380.626 104.501 380.126 104.601C379.526 104.701 379.026 104.701 378.526 104.701C377.327 104.701 376.327 104.501 375.527 104.2C374.727 103.9 374.127 103.399 373.727 102.799C373.327 102.198 373.027 101.497 372.827 100.696C372.627 99.895 372.627 99.094 372.627 98.1928V89.6822H369.328ZM396.924 101.897C396.324 102.698 395.624 103.399 394.624 103.9C393.624 104.401 392.424 104.701 391.125 104.701C390.425 104.701 389.625 104.601 388.825 104.401C388.025 104.2 387.325 103.9 386.625 103.499C385.925 103.099 385.425 102.498 384.925 101.797C384.525 101.096 384.225 100.195 384.225 99.094C384.225 97.6922 384.625 96.5909 385.425 95.7898C386.225 94.9888 387.225 94.3881 388.425 93.8875C389.625 93.487 391.025 93.1866 392.424 92.9863C393.924 92.8862 395.324 92.7861 396.724 92.7861V92.2855C396.724 91.1841 396.324 90.283 395.524 89.7823C394.724 89.2817 393.724 88.9813 392.624 88.9813C391.624 88.9813 390.725 89.1816 389.825 89.5821C388.925 89.9826 388.225 90.4832 387.625 91.084L385.225 88.2805C386.225 87.2792 387.425 86.5783 388.825 86.0777C390.225 85.5771 391.524 85.3768 392.924 85.3768C394.524 85.3768 395.924 85.5771 396.924 86.0777C397.924 86.5783 398.823 87.079 399.423 87.88C400.023 88.5808 400.423 89.482 400.723 90.3831C401.023 91.2842 401.123 92.1853 401.123 93.0865V104.2H396.924V101.897ZM396.824 95.89H395.824C395.124 95.89 394.324 95.89 393.524 95.9901C392.724 96.0902 391.924 96.1904 391.325 96.3906C390.625 96.5909 390.025 96.8912 389.625 97.2917C389.125 97.6922 388.925 98.1929 388.925 98.8937C388.925 99.2942 389.025 99.6947 389.225 99.9951C389.425 100.295 389.625 100.496 389.925 100.696C390.225 100.896 390.525 100.996 390.925 101.096C391.325 101.197 391.724 101.197 392.024 101.197C393.624 101.197 394.824 100.796 395.624 99.895C396.424 99.094 396.824 97.8925 396.824 96.4907V95.89ZM407.322 75.5646H411.922V104.2H407.322V75.5646Z" fill="#010101"/>
</svg>
