<svg width="887" height="750" viewBox="0 0 887 750" fill="none" xmlns="http://www.w3.org/2000/svg">
<g clip-path="url(#clip0_452_8299)">
<path d="M28.2269 546.205V537.176C28.2269 533.664 28.1955 531.125 28.0388 528.46L28.1328 528.429C29.1674 530.717 30.5782 533.131 32.0517 535.483L38.7608 546.205H41.5197V525.074H38.9489V533.915C38.9489 537.207 39.0116 539.778 39.2624 542.599L39.1683 542.631C38.1965 540.467 36.9424 538.241 35.4062 535.765L28.6658 525.074H25.6561V546.205H28.2269ZM57.2015 534.04H49.0189V527.363H57.7031V525.074H46.26V546.205H58.1734V543.916H49.0189V536.298H57.2015V534.04ZM73.3817 546.205H76.0466V525.827H73.6952L69.2434 528.209L69.7764 530.31L73.319 528.397H73.3817V546.205ZM87.2606 535.577C84.7526 536.643 83.2164 538.492 83.2164 541.063C83.2164 544.041 85.7871 546.549 90.0509 546.549C93.9384 546.549 96.9794 544.198 96.9794 540.624C96.9794 538.179 95.4119 536.36 92.8724 535.357V535.263C95.3805 534.103 96.2583 532.222 96.2583 530.498C96.2583 527.927 94.2519 525.482 90.3017 525.482C86.6963 525.482 83.9688 527.676 83.9688 530.905C83.9688 532.661 84.9407 534.417 87.2293 535.483L87.2606 535.577ZM90.1136 544.543C87.5114 544.543 85.9439 542.725 86.0379 540.687C86.0379 538.743 87.3233 537.144 89.706 536.454C92.4649 537.238 94.1892 538.461 94.1892 540.906C94.1892 543.007 92.5903 544.543 90.1136 544.543ZM90.1449 527.457C92.6216 527.457 93.5935 529.15 93.5935 530.78C93.5935 532.63 92.2454 533.884 90.4898 534.479C88.1385 533.852 86.5709 532.755 86.6023 530.717C86.6023 528.962 87.8563 527.457 90.1449 527.457ZM101.045 528.209V531.031H98.6942V533.131H101.045V541.408C101.045 543.195 101.359 544.543 102.111 545.389C102.77 546.111 103.804 546.549 105.09 546.549C106.156 546.549 107.002 546.361 107.535 546.173L107.41 544.073C107.002 544.198 106.563 544.261 105.811 544.261C104.275 544.261 103.742 543.195 103.742 541.314V533.131H107.692V531.031H103.742V527.394L101.045 528.209ZM110.797 546.205H113.556V537.05C113.556 536.549 113.588 536.141 113.744 535.733C114.277 534.26 115.657 533.006 117.444 533.006C120.046 533.006 120.955 535.044 120.955 537.489V546.205H123.714V537.176C123.714 531.971 120.453 530.717 118.416 530.717C117.381 530.717 116.409 530.999 115.594 531.47C114.748 531.94 114.058 532.661 113.619 533.445H113.556V523.945H110.797V546.205ZM133.859 545.17C134.988 545.922 137.214 546.549 139.251 546.549C144.236 546.549 146.619 543.697 146.619 540.436C146.619 537.332 144.832 535.608 141.258 534.229C138.342 533.1 137.057 532.128 137.057 530.153C137.057 528.711 138.154 526.986 141.038 526.986C142.951 526.986 144.362 527.582 145.02 527.99L145.772 525.764C144.863 525.231 143.264 524.729 141.132 524.729C137.026 524.729 134.298 527.175 134.298 530.466C134.298 533.413 136.43 535.232 139.878 536.486C142.731 537.552 143.86 538.712 143.86 540.655C143.86 542.787 142.23 544.261 139.44 544.261C137.558 544.261 135.803 543.665 134.58 542.881L133.859 545.17ZM150.827 528.209V531.031H148.476V533.131H150.827V541.408C150.827 543.195 151.141 544.543 151.893 545.389C152.552 546.111 153.586 546.549 154.872 546.549C155.937 546.549 156.784 546.361 157.317 546.173L157.192 544.073C156.784 544.198 156.345 544.261 155.593 544.261C154.056 544.261 153.523 543.195 153.523 541.314V533.131H157.474V531.031H153.523V527.394L150.827 528.209ZM161.647 546.549C162.807 546.549 163.56 545.703 163.56 544.574C163.56 543.414 162.807 542.599 161.71 542.599C160.613 542.599 159.829 543.446 159.829 544.574C159.829 545.703 160.581 546.549 161.647 546.549Z" fill="black"/>
<path d="M572.239 119.791V110.762C572.239 107.251 572.207 104.711 572.05 102.046L572.145 102.015C573.179 104.304 574.59 106.718 576.063 109.069L582.773 119.791H585.531V98.6605H582.961V107.501C582.961 110.793 583.023 113.364 583.274 116.186L583.18 116.217C582.208 114.054 580.954 111.828 579.418 109.351L572.678 98.6605H569.668V119.791H572.239ZM601.213 107.627H593.031V100.949H601.715V98.6605H590.272V119.791H602.185V117.502H593.031V109.884H601.213V107.627ZM624.416 119.791V117.502H615.293V117.44L616.892 115.935C621.187 111.797 623.914 108.755 623.914 104.993C623.914 102.078 622.065 99.0681 617.676 99.0681C615.356 99.0681 613.318 99.9772 611.938 101.137L612.816 103.081C613.757 102.297 615.293 101.357 617.143 101.357C620.184 101.357 621.156 103.269 621.156 105.338C621.156 108.411 618.773 111.044 613.569 115.998L611.405 118.098V119.791H624.416ZM634.313 99.0681C630.175 99.0681 627.197 102.799 627.197 109.665C627.259 116.405 629.987 120.136 633.969 120.136C638.452 120.136 641.054 116.311 641.054 109.383C641.054 102.893 638.577 99.0681 634.313 99.0681ZM634.125 101.2C637.01 101.2 638.264 104.492 638.264 109.508C638.264 114.712 636.916 118.004 634.125 118.004C631.617 118.004 629.987 114.994 629.987 109.696C629.987 104.147 631.743 101.2 634.125 101.2ZM645.057 101.796V104.617H642.706V106.718H645.057V114.994C645.057 116.781 645.371 118.129 646.123 118.976C646.781 119.697 647.816 120.136 649.101 120.136C650.167 120.136 651.014 119.948 651.547 119.76L651.421 117.659C651.014 117.785 650.575 117.847 649.823 117.847C648.286 117.847 647.753 116.781 647.753 114.9V106.718H651.704V104.617H647.753V100.98L645.057 101.796ZM654.809 119.791H657.568V110.637C657.568 110.135 657.599 109.727 657.756 109.32C658.289 107.846 659.668 106.592 661.455 106.592C664.058 106.592 664.967 108.63 664.967 111.075V119.791H667.726V110.762C667.726 105.558 664.465 104.304 662.427 104.304C661.393 104.304 660.421 104.586 659.606 105.056C658.759 105.526 658.07 106.247 657.631 107.031H657.568V97.5319H654.809V119.791ZM677.871 118.756C678.999 119.509 681.225 120.136 683.263 120.136C688.248 120.136 690.631 117.283 690.631 114.022C690.631 110.919 688.844 109.194 685.27 107.815C682.354 106.686 681.069 105.714 681.069 103.739C681.069 102.297 682.166 100.573 685.05 100.573C686.963 100.573 688.373 101.169 689.032 101.576L689.784 99.3502C688.875 98.8173 687.276 98.3156 685.144 98.3156C681.037 98.3156 678.31 100.761 678.31 104.053C678.31 107 680.442 108.818 683.89 110.072C686.743 111.138 687.872 112.298 687.872 114.242C687.872 116.374 686.241 117.847 683.451 117.847C681.57 117.847 679.815 117.252 678.592 116.468L677.871 118.756ZM694.839 101.796V104.617H692.488V106.718H694.839V114.994C694.839 116.781 695.152 118.129 695.905 118.976C696.563 119.697 697.598 120.136 698.883 120.136C699.949 120.136 700.796 119.948 701.329 119.76L701.203 117.659C700.796 117.785 700.357 117.847 699.604 117.847C698.068 117.847 697.535 116.781 697.535 114.9V106.718H701.485V104.617H697.535V100.98L694.839 101.796ZM705.659 120.136C706.819 120.136 707.571 119.289 707.571 118.161C707.571 117.001 706.819 116.186 705.722 116.186C704.624 116.186 703.841 117.032 703.841 118.161C703.841 119.289 704.593 120.136 705.659 120.136Z" fill="black"/>
<path d="M279.465 20.5916V11.5625C279.465 8.05119 279.434 5.51177 279.277 2.84694L279.371 2.81559C280.406 5.10421 281.816 7.51823 283.29 9.86954L289.999 20.5916H292.758V-0.538955H290.187V8.302C290.187 11.5938 290.25 14.1646 290.501 16.9862L290.407 17.0175C289.435 14.8543 288.181 12.6284 286.645 10.1517L279.904 -0.538955H276.894V20.5916H279.465ZM308.44 8.4274H300.257V1.74966H308.941V-0.538955H297.498V20.5916H309.412V18.3029H300.257V10.6847H308.44V8.4274ZM324.62 20.5916H327.285V0.213466H324.934L320.482 2.59614L321.015 4.69665L324.557 2.78424H324.62V20.5916ZM346.337 -0.100043C345.835 -0.100043 345.145 -0.068692 344.33 0.0567118C341.759 0.370221 339.502 1.4048 337.809 3.0664C335.771 5.07286 334.361 8.2393 334.361 12.2522C334.361 17.5505 337.214 20.9364 341.54 20.9364C345.804 20.9364 348.343 17.4878 348.343 13.7257C348.343 9.77549 345.804 7.14202 342.198 7.14202C339.941 7.14202 338.217 8.20795 337.245 9.52468H337.182C337.652 6.13879 339.91 3.0037 344.267 2.31398C345.051 2.18857 345.772 2.12587 346.337 2.15722V-0.100043ZM341.603 18.8046C338.687 18.8046 337.119 16.2965 337.088 12.9419C337.088 12.4403 337.214 12.0641 337.37 11.7506C338.123 10.2458 339.69 9.24253 341.352 9.24253C343.891 9.24253 345.553 10.9982 345.553 13.9138C345.553 16.8294 343.954 18.8046 341.603 18.8046ZM363.79 20.5916V18.3029H354.666V18.2402L356.265 16.7354C360.56 12.5971 363.288 9.55603 363.288 5.79393C363.288 2.87829 361.438 -0.131393 357.049 -0.131393C354.729 -0.131393 352.691 0.777783 351.312 1.93777L352.19 3.88152C353.13 3.09775 354.666 2.15722 356.516 2.15722C359.557 2.15722 360.529 4.06963 360.529 6.13879C360.529 9.21118 358.146 11.8447 352.942 16.7981L350.779 18.8986V20.5916H363.79ZM367.73 20.5916H370.489V11.4684C370.489 10.9982 370.552 10.5279 370.677 10.1831C371.179 8.64686 372.59 7.36147 374.377 7.36147C376.979 7.36147 377.888 9.39928 377.888 11.8447V20.5916H380.647V11.5625C380.647 6.35824 377.386 5.10421 375.286 5.10421C372.778 5.10421 371.022 6.515 370.27 7.92579H370.207L370.05 5.41772H367.605C367.699 6.67175 367.73 7.92579 367.73 9.52468V20.5916ZM395.466 -1.66759V7.39282H395.403C394.714 6.20149 393.177 5.10421 390.826 5.10421C387.158 5.10421 383.992 8.1766 384.023 13.2241C384.023 17.8327 386.876 20.9364 390.544 20.9364C393.021 20.9364 394.839 19.651 395.654 17.9581H395.748L395.874 20.5916H398.319C398.256 19.557 398.193 18.0208 398.193 16.6727V-1.66759H395.466ZM395.466 14.2273C395.466 14.6662 395.435 15.0424 395.341 15.4187C394.839 17.4565 393.146 18.7105 391.296 18.7105C388.349 18.7105 386.813 16.1711 386.813 13.0987C386.813 9.77549 388.506 7.26742 391.359 7.26742C393.428 7.26742 394.933 8.70956 395.341 10.4339C395.435 10.7787 395.466 11.249 395.466 11.5938V14.2273ZM420.464 13.9452L422.721 20.5916H425.637L418.426 -0.538955H415.166L407.955 20.5916H410.777L412.971 13.9452H420.464ZM413.536 11.8133L415.605 5.69987C416.044 4.41449 416.357 3.09775 416.671 1.87506H416.733C417.047 3.09775 417.36 4.35179 417.831 5.73122L419.931 11.8133H413.536ZM426.102 5.41772L431.87 20.5916H434.504L440.46 5.41772H437.576L434.629 13.9138C434.127 15.3246 433.689 16.5786 433.344 17.8327H433.25C432.936 16.5786 432.529 15.3246 432.027 13.9138L429.049 5.41772H426.102ZM454.966 13.5062C455.028 13.1927 455.06 12.7852 455.06 12.2209C455.06 9.43063 453.774 5.10421 448.79 5.10421C444.369 5.10421 441.673 8.67821 441.673 13.2554C441.673 17.8327 444.463 20.9364 449.135 20.9364C451.549 20.9364 453.241 20.4034 454.213 19.9645L453.712 17.9894C452.709 18.4283 451.486 18.7732 449.511 18.7732C446.721 18.7732 444.369 17.237 444.306 13.5062H454.966ZM444.338 11.5311C444.557 9.61874 445.749 7.07931 448.57 7.07931C451.674 7.07931 452.426 9.80684 452.395 11.5311H444.338ZM459.269 20.9364C460.429 20.9364 461.181 20.0899 461.181 18.9613C461.181 17.8013 460.429 16.9862 459.332 16.9862C458.234 16.9862 457.451 17.8327 457.451 18.9613C457.451 20.0899 458.203 20.9364 459.269 20.9364Z" fill="black"/>
<path d="M704.645 244.423V235.394C704.645 231.883 704.613 229.344 704.457 226.679L704.551 226.647C705.585 228.936 706.996 231.35 708.47 233.701L715.179 244.423H717.938V223.293H715.367V232.134C715.367 235.426 715.43 237.996 715.68 240.818L715.586 240.849C714.614 238.686 713.36 236.46 711.824 233.983L705.084 223.293H702.074V244.423H704.645ZM733.619 232.259H725.437V225.581H734.121V223.293H722.678V244.423H734.591V242.135H725.437V234.516H733.619V232.259ZM749.8 244.423H752.465V224.045H750.113L745.661 226.428L746.194 228.528L749.737 226.616H749.8V244.423ZM771.516 223.732C771.015 223.732 770.325 223.763 769.51 223.888C766.939 224.202 764.682 225.237 762.989 226.898C760.951 228.905 759.54 232.071 759.54 236.084C759.54 241.382 762.393 244.768 766.72 244.768C770.983 244.768 773.523 241.32 773.523 237.557C773.523 233.607 770.983 230.974 767.378 230.974C765.121 230.974 763.396 232.04 762.425 233.356H762.362C762.832 229.971 765.089 226.835 769.447 226.146C770.231 226.02 770.952 225.958 771.516 225.989V223.732ZM766.782 242.636C763.867 242.636 762.299 240.128 762.268 236.774C762.268 236.272 762.393 235.896 762.55 235.582C763.302 234.078 764.87 233.074 766.532 233.074C769.071 233.074 770.733 234.83 770.733 237.746C770.733 240.661 769.134 242.636 766.782 242.636ZM787.088 244.423V238.843H789.941V236.711H787.088V224.045H784.11L775.018 237.056V238.843H784.486V244.423H787.088ZM777.808 236.711V236.648L782.793 229.72C783.357 228.779 783.859 227.901 784.486 226.71H784.58C784.517 227.776 784.486 228.842 784.486 229.908V236.711H777.808ZM793.537 226.428V229.25H791.186V231.35H793.537V239.627C793.537 241.414 793.85 242.762 794.603 243.608C795.261 244.329 796.296 244.768 797.581 244.768C798.647 244.768 799.494 244.58 800.027 244.392L799.901 242.291C799.494 242.417 799.055 242.48 798.302 242.48C796.766 242.48 796.233 241.414 796.233 239.533V231.35H800.183V229.25H796.233V225.613L793.537 226.428ZM803.289 244.423H806.048V235.269C806.048 234.767 806.079 234.36 806.236 233.952C806.769 232.479 808.148 231.225 809.935 231.225C812.537 231.225 813.446 233.262 813.446 235.708V244.423H816.205V235.394C816.205 230.19 812.945 228.936 810.907 228.936C809.872 228.936 808.901 229.218 808.085 229.688C807.239 230.159 806.549 230.88 806.11 231.664H806.048V222.164H803.289V244.423ZM838.327 237.777L840.584 244.423H843.499L836.289 223.293H833.028L825.818 244.423H828.639L830.834 237.777H838.327ZM831.398 235.645L833.467 229.532C833.906 228.246 834.22 226.93 834.533 225.707H834.596C834.909 226.93 835.223 228.184 835.693 229.563L837.794 235.645H831.398ZM843.964 229.25L849.733 244.423H852.366L858.323 229.25H855.439L852.492 237.746C851.99 239.156 851.551 240.41 851.206 241.664H851.112C850.799 240.41 850.391 239.156 849.889 237.746L846.911 229.25H843.964ZM872.828 237.338C872.891 237.025 872.922 236.617 872.922 236.053C872.922 233.262 871.637 228.936 866.652 228.936C862.232 228.936 859.535 232.51 859.535 237.087C859.535 241.664 862.326 244.768 866.997 244.768C869.411 244.768 871.104 244.235 872.076 243.796L871.574 241.821C870.571 242.26 869.348 242.605 867.373 242.605C864.583 242.605 862.232 241.069 862.169 237.338H872.828ZM862.2 235.363C862.42 233.451 863.611 230.911 866.433 230.911C869.536 230.911 870.289 233.639 870.257 235.363H862.2ZM877.131 244.768C878.291 244.768 879.044 243.922 879.044 242.793C879.044 241.633 878.291 240.818 877.194 240.818C876.097 240.818 875.313 241.664 875.313 242.793C875.313 243.922 876.065 244.768 877.131 244.768Z" fill="black"/>
<path d="M715.167 488.459H679.575V295.643C679.575 278.217 693.759 264.033 711.185 264.033C713.397 264.033 715.184 262.246 715.184 260.034C715.184 257.83 713.397 256.035 711.185 256.035C689.351 256.035 671.577 273.801 671.577 295.643V398.462H639.167V326.317C639.167 314.473 629.535 304.841 617.691 304.841H458.51V283.195L465.538 258.775V136.768H708.334C710.547 136.768 712.333 134.981 712.333 132.769C712.333 130.565 710.547 128.77 708.334 128.77H375.677V48.8135C375.677 44.3975 372.095 40.8153 367.679 40.8153C363.263 40.8153 359.681 44.3975 359.681 48.8135V488.451H354.15V47.2309C354.15 42.8149 350.568 39.2327 346.152 39.2327C341.736 39.2327 338.154 42.8149 338.154 47.2309V145.217H188.911C184.01 145.217 179.066 146.306 174.608 148.366L81.5734 191.36C67.1852 198.005 60.4718 214.768 66.2833 229.505L76.5193 255.49C78.6124 260.8 81.9138 265.667 86.0661 269.572L122.866 304.169C123.071 304.364 123.326 304.458 123.556 304.603C122.79 306.347 122.33 308.244 122.33 310.235V420.993C122.33 432.029 131.307 441.014 142.351 441.014H158.314V488.468H8.424C4.00797 488.468 0.425781 492.05 0.425781 496.466C0.425781 500.882 4.00797 504.464 8.424 504.464H338.162V741.576C338.162 745.992 341.745 749.575 346.161 749.575C350.577 749.575 354.159 745.992 354.159 741.576V504.464H359.69V741.576C359.69 745.992 363.272 749.575 367.688 749.575C372.104 749.575 375.686 745.992 375.686 741.576V504.464H715.184C719.6 504.464 723.182 500.882 723.182 496.466C723.182 492.05 719.583 488.459 715.167 488.459ZM293.032 286.632C300.052 286.632 305.77 292.35 305.77 299.37V317.042C305.77 324.062 300.052 329.78 293.032 329.78H272.475V286.632H293.032ZM128.337 298.349L91.5372 263.752C88.2358 260.647 85.6151 256.784 83.9559 252.563L73.7199 226.578C69.4656 215.772 74.3836 203.493 84.9259 198.618L177.96 155.623C181.372 154.049 185.159 153.215 188.911 153.215H198.875V191.249C198.875 193.453 200.661 195.249 202.874 195.249C205.078 195.249 206.873 193.462 206.873 191.249V153.215H288.837V278.634H198.875L132.702 296.621C131.171 297.038 129.758 297.711 128.491 298.57C128.431 298.502 128.405 298.408 128.337 298.349ZM264.477 359.867H232.365V286.632H264.477V359.867ZM301.643 367.865V420.993C301.643 427.622 296.248 433.016 289.62 433.016H263.039V367.865H301.643ZM255.041 367.865V433.016H202.874V367.865H255.041ZM202.874 359.867V286.632H224.375V359.867H202.874ZM166.295 359.867V295.711L194.876 287.883V359.875H166.295V359.867ZM194.876 367.865V433.016H166.295V367.865H194.876ZM158.305 433.008H142.343C135.714 433.008 130.32 427.613 130.32 420.985V367.856H158.305V433.008ZM158.305 359.867H130.32V310.235C130.32 307.487 132.166 305.062 134.821 304.33L158.305 297.898V359.867ZM338.162 488.459H166.295V441.006H289.62C300.656 441.006 309.641 432.029 309.641 420.985V367.856H338.162V488.459ZM338.162 359.867H272.475V337.778H293.032C304.468 337.778 313.768 328.478 313.768 317.051V299.378C313.768 289.244 306.45 280.821 296.827 279.025V153.224H338.162V359.867ZM601.967 312.848H617.699C625.136 312.848 631.177 318.897 631.177 326.325V398.471H601.967V312.848ZM563.159 312.848H593.969V398.471H563.159V312.848ZM519.951 312.848H555.16V408.486L519.951 408.605V312.848ZM555.16 416.475V444.869H455.932C450.639 444.869 446.342 440.563 446.342 435.271V416.841L555.16 416.475ZM484.742 312.848H511.953V408.63L484.742 408.724V312.848ZM476.753 312.848V408.749L446.342 408.852V312.848H476.753ZM414.92 248.751C414.92 246.19 417.004 244.097 419.565 244.097H457.548V257.651L453.234 272.644H419.565C417.004 272.644 414.92 270.559 414.92 267.99V248.751ZM402.105 207.918C401.918 207.408 401.825 206.871 401.825 206.327V169.637C401.825 167.076 403.909 164.983 406.479 164.983H457.548V236.107H419.565C418.834 236.107 418.119 236.201 417.421 236.329L402.105 207.918ZM375.677 136.777H457.548V156.985H406.479C399.502 156.985 393.827 162.66 393.827 169.629V206.318C393.827 207.961 394.141 209.569 394.762 211.092L410.384 240.107C408.257 242.37 406.921 245.399 406.921 248.751V267.99C406.921 274.967 412.597 280.634 419.565 280.634H450.929L450.673 281.527L450.529 304.841H375.669V136.777H375.677ZM558.36 488.459H375.677V312.848H438.344V356.659H393.946C391.733 356.659 389.947 358.446 389.947 360.658C389.947 362.87 391.733 364.657 393.946 364.657H438.344V435.28C438.344 444.979 446.232 452.867 455.932 452.867H558.36V488.459ZM563.159 406.461H585.571V435.28C585.571 440.572 581.265 444.877 575.973 444.877H563.159V406.461ZM671.577 488.459H566.358V452.867H575.973C585.673 452.867 593.569 444.979 593.569 435.28V406.461H671.585V488.459H671.577Z" fill="#FBFBFB" stroke="#7A7A7A" stroke-miterlimit="10"/>
<path d="M550.014 187.735V164.779H533.822V156.976H487.841V272.074H486.445V282.633H547.853V285.467H566.419V290.044H583.896V285.467H628.277V290.044H646.358V285.467H665.639V188.059L625.444 187.956L620.288 182.809L615.361 187.735H550.014Z" fill="#F5F5F6" stroke="#BBBDBF" stroke-width="0.25" stroke-miterlimit="10"/>
<path d="M176.311 266.066L179.485 273.733L139.282 287.747L136.644 280.948L130.313 283.518L101.469 206.565L154.359 185.668L150.13 174.24L163.353 169.28L181.859 219.524L235.277 219.26L235.013 174.24H279.182V259.14L196.145 258.664L176.311 266.066Z" fill="#F5F5F6" stroke="#BBBDBF" stroke-width="0.25" stroke-miterlimit="10"/>
<path d="M405.252 426.677V409.336H425.401V467.689H392.812V426.677H405.252Z" fill="#F5F5F6" stroke="#BBBDBF" stroke-width="0.25" stroke-miterlimit="10"/>
<path d="M587.971 273.817L584.659 261.708H586.149L588.68 271.57H588.798L591.376 261.708H593.032L595.61 271.57H595.728L598.259 261.708H599.749L596.437 273.817H594.924L592.251 264.168H592.157L589.484 273.817H587.971ZM601.386 273.817V264.735H602.782V273.817H601.386ZM602.096 263.222C601.824 263.222 601.589 263.129 601.392 262.944C601.199 262.759 601.103 262.536 601.103 262.276C601.103 262.016 601.199 261.793 601.392 261.608C601.589 261.422 601.824 261.33 602.096 261.33C602.368 261.33 602.6 261.422 602.794 261.608C602.991 261.793 603.089 262.016 603.089 262.276C603.089 262.536 602.991 262.759 602.794 262.944C602.6 263.129 602.368 263.222 602.096 263.222ZM606.733 261.708V273.817H605.337V261.708H606.733ZM612.978 274.006C612.127 274.006 611.393 273.805 610.779 273.403C610.164 273.001 609.691 272.447 609.36 271.742C609.028 271.036 608.863 270.23 608.863 269.324C608.863 268.401 609.032 267.587 609.371 266.882C609.714 266.172 610.191 265.618 610.802 265.22C611.417 264.818 612.135 264.617 612.954 264.617C613.593 264.617 614.168 264.735 614.681 264.972C615.193 265.208 615.613 265.539 615.94 265.965C616.267 266.391 616.47 266.888 616.549 267.455H615.154C615.047 267.041 614.811 266.675 614.444 266.355C614.082 266.032 613.593 265.871 612.978 265.871C612.434 265.871 611.957 266.012 611.547 266.296C611.141 266.576 610.824 266.972 610.595 267.485C610.371 267.993 610.258 268.59 610.258 269.276C610.258 269.978 610.369 270.589 610.589 271.109C610.814 271.629 611.129 272.033 611.535 272.321C611.945 272.609 612.426 272.753 612.978 272.753C613.341 272.753 613.67 272.69 613.965 272.564C614.261 272.438 614.511 272.256 614.716 272.02C614.921 271.783 615.067 271.499 615.154 271.168H616.549C616.47 271.704 616.275 272.187 615.964 272.617C615.656 273.043 615.248 273.382 614.74 273.634C614.235 273.882 613.648 274.006 612.978 274.006ZM622.279 274.006C621.459 274.006 620.739 273.811 620.121 273.421C619.506 273.031 619.025 272.485 618.678 271.783C618.335 271.082 618.163 270.262 618.163 269.324C618.163 268.378 618.335 267.552 618.678 266.846C619.025 266.141 619.506 265.593 620.121 265.202C620.739 264.812 621.459 264.617 622.279 264.617C623.099 264.617 623.816 264.812 624.431 265.202C625.05 265.593 625.531 266.141 625.874 266.846C626.22 267.552 626.394 268.378 626.394 269.324C626.394 270.262 626.22 271.082 625.874 271.783C625.531 272.485 625.05 273.031 624.431 273.421C623.816 273.811 623.099 274.006 622.279 274.006ZM622.279 272.753C622.901 272.753 623.414 272.593 623.816 272.274C624.218 271.955 624.516 271.535 624.709 271.015C624.902 270.494 624.998 269.931 624.998 269.324C624.998 268.716 624.902 268.151 624.709 267.627C624.516 267.102 624.218 266.679 623.816 266.355C623.414 266.032 622.901 265.871 622.279 265.871C621.656 265.871 621.143 266.032 620.741 266.355C620.339 266.679 620.042 267.102 619.849 267.627C619.655 268.151 619.559 268.716 619.559 269.324C619.559 269.931 619.655 270.494 619.849 271.015C620.042 271.535 620.339 271.955 620.741 272.274C621.143 272.593 621.656 272.753 622.279 272.753Z" fill="#231F20"/>
<path d="M198.049 240.595H199.614L203.293 249.582H203.42L207.1 240.595H208.664V251.421H207.438V243.196H207.332L203.949 251.421H202.765L199.381 243.196H199.276V251.421H198.049V240.595ZM214.422 251.591C213.661 251.591 213.006 251.411 212.456 251.051C211.906 250.692 211.483 250.197 211.187 249.566C210.891 248.935 210.743 248.214 210.743 247.404C210.743 246.579 210.895 245.851 211.198 245.22C211.504 244.586 211.931 244.091 212.477 243.735C213.027 243.376 213.668 243.196 214.401 243.196C214.972 243.196 215.487 243.302 215.945 243.513C216.403 243.724 216.778 244.02 217.071 244.401C217.363 244.782 217.545 245.226 217.615 245.733H216.368C216.273 245.363 216.061 245.035 215.734 244.75C215.409 244.461 214.972 244.317 214.422 244.317C213.936 244.317 213.51 244.443 213.143 244.697C212.78 244.947 212.496 245.302 212.292 245.76C212.091 246.214 211.991 246.748 211.991 247.361C211.991 247.989 212.089 248.535 212.287 249C212.488 249.465 212.77 249.827 213.133 250.084C213.499 250.341 213.929 250.47 214.422 250.47C214.747 250.47 215.041 250.413 215.305 250.301C215.57 250.188 215.793 250.026 215.977 249.814C216.16 249.603 216.29 249.349 216.368 249.053H217.615C217.545 249.532 217.371 249.964 217.092 250.348C216.817 250.729 216.452 251.032 215.998 251.258C215.547 251.48 215.022 251.591 214.422 251.591ZM219.608 240.595H221.173L224.852 249.582H224.979L228.659 240.595H230.223V251.421H228.997V243.196H228.891L225.508 251.421H224.324L220.941 243.196H220.835V251.421H219.608V240.595ZM236.087 251.591C235.305 251.591 234.63 251.418 234.063 251.072C233.499 250.724 233.064 250.237 232.757 249.613C232.454 248.986 232.302 248.257 232.302 247.425C232.302 246.593 232.454 245.86 232.757 245.226C233.064 244.588 233.49 244.091 234.036 243.735C234.586 243.376 235.227 243.196 235.96 243.196C236.383 243.196 236.801 243.266 237.213 243.407C237.626 243.548 238.001 243.777 238.339 244.094C238.678 244.408 238.947 244.824 239.148 245.342C239.349 245.86 239.449 246.498 239.449 247.256V247.784H233.19V246.706H238.181C238.181 246.248 238.089 245.839 237.906 245.48C237.726 245.12 237.469 244.836 237.134 244.628C236.803 244.42 236.412 244.317 235.96 244.317C235.464 244.317 235.034 244.44 234.671 244.687C234.311 244.93 234.034 245.247 233.841 245.638C233.647 246.029 233.55 246.449 233.55 246.896V247.615C233.55 248.228 233.656 248.748 233.867 249.175C234.082 249.598 234.38 249.92 234.76 250.142C235.141 250.361 235.583 250.47 236.087 250.47C236.415 250.47 236.711 250.424 236.975 250.332C237.243 250.237 237.474 250.096 237.668 249.909C237.862 249.719 238.012 249.483 238.117 249.201L239.323 249.539C239.196 249.948 238.982 250.308 238.683 250.618C238.383 250.924 238.013 251.164 237.573 251.337C237.132 251.506 236.637 251.591 236.087 251.591ZM242.595 246.537V251.421H241.347V243.302H242.553V244.57H242.658C242.849 244.158 243.138 243.827 243.525 243.576C243.913 243.323 244.413 243.196 245.027 243.196C245.576 243.196 246.057 243.309 246.47 243.534C246.882 243.756 247.203 244.094 247.432 244.549C247.661 245 247.775 245.571 247.775 246.262V251.421H246.528V246.346C246.528 245.709 246.362 245.212 246.031 244.856C245.7 244.496 245.245 244.317 244.667 244.317C244.269 244.317 243.913 244.403 243.599 244.576C243.289 244.748 243.044 245 242.864 245.331C242.685 245.663 242.595 246.065 242.595 246.537ZM252.445 251.612C251.93 251.612 251.463 251.515 251.044 251.321C250.624 251.124 250.291 250.84 250.045 250.47C249.798 250.096 249.675 249.645 249.675 249.117C249.675 248.651 249.766 248.274 249.949 247.985C250.133 247.693 250.378 247.464 250.684 247.298C250.991 247.132 251.329 247.009 251.699 246.928C252.073 246.843 252.448 246.776 252.825 246.727C253.319 246.664 253.719 246.616 254.025 246.584C254.335 246.549 254.561 246.491 254.702 246.41C254.846 246.329 254.919 246.188 254.919 245.987V245.945C254.919 245.423 254.776 245.018 254.49 244.729C254.209 244.44 253.78 244.295 253.206 244.295C252.61 244.295 252.143 244.426 251.805 244.687C251.467 244.947 251.229 245.226 251.091 245.522L249.907 245.099C250.119 244.606 250.401 244.221 250.753 243.946C251.109 243.668 251.497 243.474 251.916 243.365C252.339 243.252 252.755 243.196 253.164 243.196C253.424 243.196 253.724 243.228 254.062 243.291C254.404 243.351 254.734 243.476 255.051 243.666C255.372 243.857 255.638 244.144 255.849 244.528C256.061 244.912 256.166 245.427 256.166 246.072V251.421H254.919V250.322H254.855C254.771 250.498 254.63 250.687 254.432 250.887C254.235 251.088 253.972 251.259 253.645 251.4C253.317 251.541 252.917 251.612 252.445 251.612ZM252.635 250.491C253.128 250.491 253.544 250.394 253.883 250.2C254.224 250.006 254.482 249.756 254.654 249.45C254.831 249.143 254.919 248.82 254.919 248.482V247.34C254.866 247.404 254.75 247.462 254.57 247.515C254.394 247.564 254.189 247.608 253.957 247.647C253.727 247.682 253.504 247.714 253.285 247.742C253.07 247.767 252.896 247.788 252.762 247.806C252.438 247.848 252.135 247.917 251.853 248.012C251.574 248.103 251.349 248.243 251.176 248.429C251.007 248.613 250.922 248.863 250.922 249.18C250.922 249.613 251.083 249.941 251.403 250.163C251.727 250.382 252.138 250.491 252.635 250.491ZM258.443 251.421V243.302H259.649V244.57H259.754C259.924 244.137 260.197 243.8 260.574 243.561C260.951 243.317 261.404 243.196 261.932 243.196C262.468 243.196 262.914 243.317 263.27 243.561C263.629 243.8 263.909 244.137 264.11 244.57H264.195C264.403 244.151 264.715 243.818 265.131 243.571C265.546 243.321 266.045 243.196 266.627 243.196C267.353 243.196 267.946 243.423 268.408 243.878C268.87 244.329 269.101 245.032 269.101 245.987V251.421H267.853V245.987C267.853 245.388 267.689 244.96 267.361 244.702C267.034 244.445 266.648 244.317 266.204 244.317C265.633 244.317 265.191 244.489 264.877 244.835C264.563 245.176 264.406 245.61 264.406 246.135V251.421H263.138V245.86C263.138 245.398 262.988 245.027 262.688 244.745C262.389 244.459 262.003 244.317 261.531 244.317C261.206 244.317 260.903 244.403 260.621 244.576C260.343 244.748 260.117 244.988 259.945 245.294C259.776 245.598 259.691 245.948 259.691 246.346V251.421H258.443ZM271.382 251.421V243.302H272.629V251.421H271.382ZM272.016 241.948C271.773 241.948 271.563 241.865 271.387 241.7C271.214 241.534 271.128 241.335 271.128 241.102C271.128 240.87 271.214 240.671 271.387 240.505C271.563 240.339 271.773 240.257 272.016 240.257C272.259 240.257 272.467 240.339 272.64 240.505C272.816 240.671 272.904 240.87 272.904 241.102C272.904 241.335 272.816 241.534 272.64 241.7C272.467 241.865 272.259 241.948 272.016 241.948ZM276.162 246.537V251.421H274.914V243.302H276.12V244.57H276.225C276.416 244.158 276.705 243.827 277.092 243.576C277.48 243.323 277.98 243.196 278.594 243.196C279.143 243.196 279.625 243.309 280.037 243.534C280.449 243.756 280.77 244.094 280.999 244.549C281.228 245 281.343 245.571 281.343 246.262V251.421H280.095V246.346C280.095 245.709 279.929 245.212 279.598 244.856C279.267 244.496 278.812 244.317 278.234 244.317C277.836 244.317 277.48 244.403 277.166 244.576C276.856 244.748 276.611 245 276.432 245.331C276.252 245.663 276.162 246.065 276.162 246.537ZM289.374 245.12L288.253 245.437C288.183 245.25 288.079 245.069 287.941 244.893C287.807 244.713 287.624 244.565 287.391 244.449C287.159 244.332 286.861 244.274 286.498 244.274C286.001 244.274 285.587 244.389 285.256 244.618C284.928 244.843 284.764 245.131 284.764 245.48C284.764 245.79 284.877 246.035 285.102 246.214C285.328 246.394 285.68 246.544 286.16 246.664L287.365 246.96C288.091 247.136 288.632 247.406 288.988 247.769C289.344 248.128 289.522 248.591 289.522 249.159C289.522 249.624 289.388 250.04 289.12 250.406C288.856 250.773 288.486 251.062 288.01 251.273C287.534 251.485 286.981 251.591 286.35 251.591C285.522 251.591 284.836 251.411 284.294 251.051C283.751 250.692 283.407 250.167 283.263 249.476L284.447 249.18C284.56 249.617 284.773 249.945 285.087 250.163C285.404 250.382 285.818 250.491 286.329 250.491C286.91 250.491 287.372 250.368 287.714 250.121C288.059 249.871 288.232 249.571 288.232 249.222C288.232 248.94 288.133 248.704 287.936 248.514C287.739 248.32 287.436 248.176 287.027 248.08L285.673 247.763C284.93 247.587 284.384 247.314 284.035 246.944C283.689 246.57 283.517 246.103 283.517 245.543C283.517 245.085 283.645 244.68 283.902 244.327C284.163 243.975 284.517 243.698 284.965 243.497C285.416 243.296 285.927 243.196 286.498 243.196C287.302 243.196 287.932 243.372 288.391 243.724C288.852 244.077 289.18 244.542 289.374 245.12Z" fill="#231F20"/>
<path d="M396.13 454.47L394.545 448.674H395.258L396.469 453.394H396.526L397.76 448.674H398.552L399.786 453.394H399.843L401.054 448.674H401.768L400.183 454.47H399.458L398.179 449.851H398.134L396.854 454.47H396.13ZM402.947 451.855V454.47H402.279V450.123H402.924V450.802H402.981C403.083 450.581 403.238 450.404 403.445 450.27C403.653 450.134 403.921 450.066 404.249 450.066C404.543 450.066 404.801 450.127 405.022 450.247C405.242 450.366 405.414 450.547 405.537 450.791C405.659 451.032 405.721 451.338 405.721 451.708V454.47H405.053V451.753C405.053 451.411 404.964 451.145 404.787 450.955C404.609 450.762 404.366 450.666 404.056 450.666C403.843 450.666 403.653 450.712 403.485 450.805C403.319 450.897 403.188 451.032 403.091 451.21C402.995 451.387 402.947 451.602 402.947 451.855ZM408.764 454.561C408.345 454.561 407.984 454.468 407.68 454.283C407.378 454.096 407.145 453.836 406.981 453.502C406.819 453.166 406.737 452.776 406.737 452.33C406.737 451.885 406.819 451.493 406.981 451.153C407.145 450.811 407.373 450.545 407.666 450.355C407.96 450.162 408.303 450.066 408.696 450.066C408.922 450.066 409.146 450.104 409.367 450.179C409.587 450.255 409.788 450.377 409.97 450.547C410.151 450.715 410.295 450.938 410.403 451.215C410.51 451.493 410.564 451.834 410.564 452.24V452.523H407.213V451.945H409.885C409.885 451.7 409.836 451.481 409.737 451.289C409.641 451.096 409.503 450.944 409.324 450.833C409.147 450.722 408.937 450.666 408.696 450.666C408.43 450.666 408.2 450.732 408.005 450.864C407.813 450.994 407.665 451.164 407.561 451.374C407.457 451.583 407.405 451.808 407.405 452.047V452.432C407.405 452.761 407.462 453.039 407.575 453.267C407.69 453.494 407.85 453.666 408.053 453.785C408.257 453.902 408.494 453.961 408.764 453.961C408.939 453.961 409.098 453.936 409.239 453.887C409.383 453.836 409.506 453.761 409.61 453.661C409.714 453.559 409.794 453.432 409.851 453.281L410.496 453.462C410.428 453.681 410.314 453.874 410.153 454.04C409.993 454.204 409.795 454.332 409.559 454.425C409.323 454.515 409.058 454.561 408.764 454.561ZM412.248 451.855V454.47H411.58V450.123H412.225V450.802H412.282C412.384 450.581 412.538 450.404 412.746 450.27C412.954 450.134 413.221 450.066 413.55 450.066C413.844 450.066 414.102 450.127 414.322 450.247C414.543 450.366 414.715 450.547 414.837 450.791C414.96 451.032 415.021 451.338 415.021 451.708V454.47H414.354V451.753C414.354 451.411 414.265 451.145 414.087 450.955C413.91 450.762 413.667 450.666 413.357 450.666C413.144 450.666 412.954 450.712 412.786 450.805C412.62 450.897 412.488 451.032 412.392 451.21C412.296 451.387 412.248 451.602 412.248 451.855ZM417.884 454.561C417.521 454.561 417.201 454.469 416.924 454.286C416.647 454.101 416.43 453.841 416.273 453.505C416.117 453.167 416.038 452.768 416.038 452.308C416.038 451.851 416.117 451.455 416.273 451.119C416.43 450.783 416.648 450.524 416.927 450.341C417.206 450.158 417.529 450.066 417.895 450.066C418.178 450.066 418.401 450.113 418.566 450.208C418.732 450.3 418.858 450.406 418.945 450.525C419.034 450.642 419.102 450.738 419.151 450.813H419.208V448.674H419.876V454.47H419.231V453.802H419.151C419.102 453.881 419.033 453.981 418.942 454.102C418.851 454.221 418.722 454.328 418.554 454.422C418.386 454.514 418.163 454.561 417.884 454.561ZM417.974 453.961C418.242 453.961 418.468 453.891 418.653 453.751C418.838 453.61 418.979 453.414 419.075 453.165C419.171 452.914 419.219 452.625 419.219 452.296C419.219 451.972 419.172 451.688 419.078 451.444C418.984 451.199 418.844 451.009 418.659 450.873C418.474 450.735 418.246 450.666 417.974 450.666C417.691 450.666 417.455 450.739 417.267 450.884C417.08 451.027 416.939 451.223 416.845 451.47C416.752 451.715 416.706 451.991 416.706 452.296C416.706 452.606 416.753 452.887 416.848 453.14C416.944 453.391 417.085 453.591 417.272 453.74C417.461 453.887 417.695 453.961 417.974 453.961ZM421.622 456.1C421.509 456.1 421.408 456.091 421.319 456.072C421.231 456.055 421.169 456.038 421.135 456.021L421.305 455.432C421.468 455.474 421.611 455.489 421.735 455.478C421.86 455.466 421.97 455.411 422.067 455.311C422.165 455.212 422.254 455.053 422.335 454.832L422.46 454.493L420.852 450.123H421.577L422.777 453.587H422.822L424.022 450.123H424.747L422.901 455.104C422.818 455.328 422.716 455.514 422.593 455.661C422.47 455.811 422.328 455.921 422.166 455.993C422.005 456.064 421.824 456.1 421.622 456.1ZM426.497 448.674V449.183C426.497 449.338 426.469 449.503 426.412 449.678C426.358 449.852 426.277 450.021 426.169 450.185C426.063 450.347 425.935 450.489 425.784 450.61L425.422 450.315C425.541 450.145 425.644 449.969 425.73 449.786C425.819 449.601 425.863 449.404 425.863 449.194V448.674H426.497ZM429.844 451.096L429.244 451.266C429.206 451.166 429.151 451.069 429.077 450.975C429.005 450.878 428.907 450.799 428.783 450.737C428.658 450.675 428.499 450.644 428.304 450.644C428.038 450.644 427.817 450.705 427.639 450.827C427.464 450.948 427.376 451.102 427.376 451.289C427.376 451.455 427.436 451.586 427.557 451.682C427.678 451.778 427.867 451.859 428.123 451.923L428.769 452.081C429.157 452.176 429.447 452.32 429.637 452.514C429.828 452.707 429.923 452.955 429.923 453.259C429.923 453.508 429.852 453.73 429.708 453.927C429.567 454.123 429.369 454.278 429.114 454.391C428.859 454.504 428.563 454.561 428.225 454.561C427.782 454.561 427.415 454.464 427.124 454.272C426.834 454.079 426.65 453.798 426.572 453.428L427.206 453.27C427.267 453.504 427.381 453.679 427.549 453.796C427.719 453.913 427.94 453.972 428.214 453.972C428.525 453.972 428.772 453.906 428.955 453.774C429.14 453.64 429.233 453.479 429.233 453.293C429.233 453.142 429.18 453.015 429.074 452.913C428.969 452.81 428.806 452.732 428.587 452.681L427.863 452.511C427.465 452.417 427.172 452.271 426.986 452.073C426.801 451.873 426.708 451.623 426.708 451.323C426.708 451.077 426.777 450.86 426.915 450.672C427.054 450.483 427.244 450.335 427.484 450.227C427.725 450.12 427.999 450.066 428.304 450.066C428.735 450.066 429.072 450.16 429.318 450.349C429.565 450.538 429.74 450.787 429.844 451.096Z" fill="#231F20"/>
<path d="M505.887 138.546C511.384 139.482 515.357 144.187 515.357 149.744C515.357 153.037 512.133 161.622 506.27 173.934C505.836 174.853 504.968 175.398 503.956 175.398C502.943 175.398 502.084 174.853 501.641 173.934C495.779 161.622 492.554 153.037 492.554 149.744C492.554 144.187 496.536 139.482 502.024 138.546H505.887ZM505.955 137.695H501.956C496.145 138.657 491.703 143.66 491.703 149.744C491.703 154.296 497.242 166.676 500.875 174.3C501.497 175.602 502.722 176.248 503.956 176.248C505.189 176.248 506.415 175.602 507.036 174.3C510.669 166.676 516.208 154.296 516.208 149.744C516.208 143.668 511.767 138.657 505.955 137.695Z" fill="#595959"/>
<path d="M503.956 175.823C502.773 175.823 501.769 175.185 501.259 174.113C497.847 166.948 492.129 154.262 492.129 149.744C492.129 143.949 496.29 139.057 502.025 138.112L505.956 138.121C511.622 139.065 515.783 143.949 515.783 149.744C515.783 154.27 510.065 166.957 506.653 174.113C506.143 175.185 505.139 175.823 503.956 175.823Z" fill="#FF0808"/>
</g>
<defs>
<clipPath id="clip0_452_8299">
<rect width="886.225" height="750" fill="white"/>
</clipPath>
</defs>
</svg>
