<svg width="44" height="52" viewBox="0 0 44 52" fill="none" xmlns="http://www.w3.org/2000/svg">
<path opacity="0.6" d="M13.8873 29.6341C13.7285 29.8724 13.4108 29.9518 13.1725 29.7135C10.472 27.8867 13.9667 19.7057 18.0175 13.9075C21.274 9.38018 23.1009 6.04424 26.3574 2.62887C28.6608 0.246061 30.8847 0.80205 32.5527 2.23174C34.1412 3.66143 35.2532 6.60023 36.4446 7.71221C37.2389 8.50648 39.3834 8.34763 41.528 10.4127C43.7519 12.4778 43.6725 15.0195 41.9251 16.8463C38.4303 20.6588 35.4915 22.1679 31.0436 25.0273C25.0865 28.8398 17.6998 34.7969 15.6347 32.2552C15.2376 31.7786 15.317 31.0638 15.7936 30.6667C17.2233 29.4752 23.1803 23.0416 23.1803 23.0416C27.4694 18.5143 27.1516 17.9583 26.5957 17.4817C26.0397 17.0052 25.4837 16.8463 21.1152 21.2943C21.1152 21.2943 15.1582 28.0456 13.8873 29.6341Z" fill="white"/>
<path d="M13.8873 29.6341C13.7285 29.8724 13.4108 29.9518 13.1725 29.7135C10.472 27.8867 13.9667 19.7057 18.0175 13.9075C21.274 9.38018 23.1009 6.04424 26.3574 2.62887C28.6608 0.246061 30.8847 0.80205 32.5527 2.23174C34.1412 3.66143 35.2532 6.60023 36.4446 7.71221C37.2389 8.50648 39.3834 8.34763 41.528 10.4127C43.7519 12.4778 43.6725 15.0195 41.9251 16.8463C38.4303 20.6588 35.4915 22.1679 31.0436 25.0273C25.0865 28.8398 17.6998 34.7969 15.6347 32.2552C15.2376 31.7786 15.317 31.0638 15.7936 30.6667C17.2233 29.4752 23.1803 23.0416 23.1803 23.0416C27.4694 18.5143 27.1516 17.9583 26.5957 17.4817C26.0397 17.0052 25.4837 16.8463 21.1152 21.2943C21.1152 21.2943 15.1582 28.0456 13.8873 29.6341Z" stroke="#989898" stroke-width="0.8"/>
<path d="M20.1621 44.4873C20.3739 44.4344 20.5857 44.4344 20.7975 44.4873L22.2272 44.805C22.2272 44.805 22.2537 44.805 22.3066 44.805C25.4837 45.2816 26.7545 35.8298 28.4225 28.999C28.4225 28.999 28.4225 28.9725 28.4225 28.9196C28.7402 27.7282 29.8522 26.8545 31.123 26.8545H35.0944C37.5566 26.8545 39.5423 28.8402 39.5423 31.3024V46.5524C39.5423 49.0147 37.5566 51.0003 35.0944 51.0003H5.15036C2.76754 51.0003 0.78186 49.0147 0.78186 46.5524V31.3024C0.78186 28.8402 2.76754 26.8545 5.15036 26.8545H7.93031C9.6777 26.8545 11.1074 28.2048 11.3457 29.8727C11.3457 29.9257 11.3457 29.9521 11.3457 29.9521C12.3782 36.9417 15.4759 45.2816 18.7324 44.7256L20.1621 44.4873Z" fill="#FFF3FA" stroke="#989898" stroke-width="0.8"/>
</svg>
