<svg width="140" height="73" viewBox="0 0 140 73" fill="none" xmlns="http://www.w3.org/2000/svg">
<path opacity="0.6" d="M17.8 13.311C17.8 13.311 23.2 12.7005 28.4 27.9621C28.4 27.9621 31 33.965 31 38.8488C31 43.8342 25.1 45.2586 22.7 45.2586C20.4 45.2586 18.2 43.2238 18.2 42.6133C18.2 42.1046 15.7 36.3052 15.4 31.7267C15.2 27.0464 15.4 20.0261 15.4 19.6191C15.4 19.3139 15.2 13.5145 17.8 13.311Z" fill="white"/>
<path d="M17.8 13.311C17.8 13.311 23.2 12.7005 28.4 27.9621C28.4 27.9621 31 33.965 31 38.8488C31 43.8342 25.1 45.2586 22.7 45.2586C20.4 45.2586 18.2 43.2238 18.2 42.6133C18.2 42.1046 15.7 36.3052 15.4 31.7267C15.2 27.0464 15.4 20.0261 15.4 19.6191C15.4 19.3139 15.2 13.5145 17.8 13.311Z" stroke="#989898" stroke-width="0.8"/>
<path opacity="0.6" d="M38.1 21.6538C39 21.7555 46.8 24.6044 49.2 33.4561C49.7 35.1858 50.6 44.9532 49.9 49.023C49.6 50.4474 47.5 50.1422 46.6 50.1422C45.6 50.1422 36 48.4125 34.3 46.6829C32.7 44.9532 31.7 44.0375 31.7 37.2207C31.7 30.3021 32.8 26.1305 33.1 25.3166C33.4 24.8079 35.3 21.3486 38.1 21.6538Z" fill="white"/>
<path d="M38.1 21.6538C39 21.7555 46.8 24.6044 49.2 33.4561C49.7 35.1858 50.6 44.9532 49.9 49.023C49.6 50.4474 47.5 50.1422 46.6 50.1422C45.6 50.1422 36 48.4125 34.3 46.6829C32.7 44.9532 31.7 44.0375 31.7 37.2207C31.7 30.3021 32.8 26.1305 33.1 25.3166C33.4 24.8079 35.3 21.3486 38.1 21.6538V21.6538Z" stroke="#989898" stroke-width="0.8"/>
<g opacity="0.9">
<path opacity="0.6" d="M68.7 37.5261C68.7 43.936 70.6 49.9389 73.8 54.9244C73.4 54.9922 73 55.0261 72.6 55.0261C72.6 55.0261 59.6 55.0261 57.9 54.4156C57.9 54.4156 51.4 54.4156 51.1 47.8023C50.6 36.9156 52 30.811 52.7 28.5726C53.3 26.7412 57 19.6191 60.8 19.6191C63.6 19.6191 66.5 20.8401 71 25.5203C69.6 29.2848 68.7 33.2529 68.7 37.5261Z" fill="white"/>
<path d="M68.7 37.5261C68.7 43.936 70.6 49.9389 73.8 54.9244C73.4 54.9922 73 55.0261 72.6 55.0261C72.6 55.0261 59.6 55.0261 57.9 54.4156C57.9 54.4156 51.4 54.4156 51.1 47.8023C50.6 36.9156 52 30.811 52.7 28.5726C53.3 26.7412 57 19.6191 60.8 19.6191C63.6 19.6191 66.5 20.8401 71 25.5203C69.6 29.2848 68.7 33.2529 68.7 37.5261V37.5261Z" stroke="#989898" stroke-width="0.8"/>
<path opacity="0.6" d="M139.3 32.0324C139.1 36.6109 136.5 42.3086 136.5 42.919C136.5 43.5295 134.3 45.5644 132 45.5644C131.6 45.5644 131.167 45.4966 130.7 45.3609C131.3 42.8512 131.6 40.2398 131.6 37.5266C131.6 32.3376 130.4 27.5557 128.3 23.1807C132.8 13.108 136.9 13.515 136.9 13.515C139.5 13.8202 139.3 19.6196 139.3 19.9248C139.3 20.3318 139.5 27.3522 139.3 32.0324Z" fill="white"/>
<path d="M139.3 32.0324C139.1 36.6109 136.5 42.3086 136.5 42.919C136.5 43.5295 134.3 45.5644 132 45.5644C131.6 45.5644 131.167 45.4966 130.7 45.3609C131.3 42.8512 131.6 40.2398 131.6 37.5266C131.6 32.3376 130.4 27.5557 128.3 23.1807C132.8 13.108 136.9 13.515 136.9 13.515C139.5 13.8202 139.3 19.6196 139.3 19.9248C139.3 20.3318 139.5 27.3522 139.3 32.0324V32.0324Z" stroke="#989898" stroke-width="0.8"/>
<path opacity="0.6" d="M127.3 22.9771C127.6 23.8928 129 29.0817 129 37.73C129 46.2765 127.9 47.3957 125.8 49.5323C123.7 51.6689 111.7 53.8056 110.5 53.8056C109.3 53.8056 106.7 54.3143 106.4 52.3811C105.5 47.3957 106.7 35.1864 107.3 33.0497C110.3 22.0614 119.9 18.3986 121.1 18.2968C124.6 17.9916 127 22.2648 127.3 22.9771Z" fill="white"/>
<path d="M127.3 22.9771C127.6 23.8928 129 29.0817 129 37.73C129 46.2765 127.9 47.3957 125.8 49.5323C123.7 51.6689 111.7 53.8056 110.5 53.8056C109.3 53.8056 106.7 54.3143 106.4 52.3811C105.5 47.3957 106.7 35.1864 107.3 33.0497C110.3 22.0614 119.9 18.3986 121.1 18.2968C124.6 17.9916 127 22.2648 127.3 22.9771V22.9771Z" stroke="#989898" stroke-width="0.8"/>
<path opacity="0.6" d="M102.8 26.9456C103.7 29.7944 105.5 37.3235 104.9 50.9572C104.5 59.1985 96.4 59.1985 96.4 59.1985C94.3 59.9107 78.1 59.9107 78.1 59.9107C73.7 59.9107 72.7 56.6549 72.5 55.6374C71.9 52.7886 72.5 43.8351 72.5 43.8351C72.8 34.0677 75.4 27.963 79.9 23.3845C85.6 17.2799 89.3 15.8555 92.8 15.8555C97.5 15.8555 102.1 24.7072 102.8 26.9456Z" fill="white"/>
<path d="M102.8 26.9456C103.7 29.7944 105.5 37.3235 104.9 50.9572C104.5 59.1985 96.4 59.1985 96.4 59.1985C94.3 59.9107 78.1 59.9107 78.1 59.9107C73.7 59.9107 72.7 56.6549 72.5 55.6374C71.9 52.7886 72.5 43.8351 72.5 43.8351C72.8 34.0677 75.4 27.963 79.9 23.3845C85.6 17.2799 89.3 15.8555 92.8 15.8555C97.5 15.8555 102.1 24.7072 102.8 26.9456Z" stroke="#989898" stroke-width="0.8"/>
</g>
<path d="M131.6 39.0523C131.6 56.6541 117.5 71 100.2 71C82.8 71 68.7 56.6541 68.7 39.0523C68.7 21.3489 82.8 7.00293 100.2 7.00293C117.5 7.00293 131.6 21.3489 131.6 39.0523Z" stroke="#808080" stroke-width="3" stroke-linecap="round" stroke-linejoin="round"/>
<path opacity="0.9" d="M73.4 1H10.7" stroke="#808080"/>
<path opacity="0.9" d="M4 52.5841V9.85156" stroke="#808080"/>
<g opacity="0.9">
<path d="M4 52.5838V51.5664" stroke="#808080" stroke-width="7" stroke-linejoin="round"/>
<path d="M4 32.134V20.5352" stroke="#808080" stroke-width="7" stroke-linejoin="round"/>
<path d="M4 10.869V9.85156" stroke="#808080" stroke-width="7" stroke-linejoin="round"/>
</g>
</svg>
