<svg width="159" height="58" viewBox="0 0 159 58" fill="none" xmlns="http://www.w3.org/2000/svg">
<path opacity="0.6" d="M23.8 23.3C23.8 23.3 28.9 22.8 33.8 37C33.8 37 36.3 42.6 36.3 47.1C36.3 51.6 30.7 53 28.5 53C26.3 53 24.3 51.1 24.3 50.6C24.3 50 21.8 44.7 21.6 40.4C21.4 36.2 21.6 29.6 21.6 29.2C21.6 28.9 21.4 23.6 23.8 23.3Z" fill="white"/>
<path d="M23.8 23.3C23.8 23.3 28.9 22.8 33.8 37C33.8 37 36.3 42.6 36.3 47.1C36.3 51.6 30.7 53 28.5 53C26.3 53 24.3 51.1 24.3 50.6C24.3 50 21.8 44.7 21.6 40.4C21.4 36.2 21.6 29.6 21.6 29.2C21.6 28.9 21.4 23.6 23.8 23.3V23.3Z" stroke="#989898" stroke-width="0.8"/>
<path opacity="0.6" d="M43 27.5999C43.9 27.5999 51.2 30.2999 53.5 38.4999C53.9 40.0999 54.8 49.1999 54.1 52.8999C53.9 54.2999 51.9 53.9999 51 53.9999C50.1 53.9999 41 52.3999 39.4 50.7999C37.9 49.1999 37 48.3999 37 41.9999C37 35.5999 38 31.6999 38.3 30.9999C38.5 30.4999 40.3 27.2999 43 27.5999Z" fill="white"/>
<path d="M43 27.5999C43.9 27.5999 51.2 30.2999 53.5 38.4999C53.9 40.0999 54.8 49.1999 54.1 52.8999C53.9 54.2999 51.9 53.9999 51 53.9999C50.1 53.9999 41 52.3999 39.4 50.7999C37.9 49.1999 37 48.3999 37 41.9999C37 35.5999 38 31.6999 38.3 30.9999C38.5 30.4999 40.3 27.2999 43 27.5999Z" stroke="#989898" stroke-width="0.8"/>
<path opacity="0.6" d="M64.4 23.8999C67.1 23.8999 69.9 25.0999 74.2 29.4999C77.5 32.9999 79.5 37.4999 79.8 44.7999C79.8 44.7999 80.2 51.3999 79.8 53.5999C79.6 54.2999 78.9 56.7999 75.5 56.7999C75.5 56.7999 63.3 56.7999 61.7 56.1999C61.7 56.1999 55.5 56.1999 55.2 50.0999C54.8 39.8999 56.1 34.2999 56.8 32.1999C57.3 30.4999 60.8 23.8999 64.4 23.8999Z" fill="white"/>
<path d="M64.4 23.8999C67.1 23.8999 69.9 25.0999 74.2 29.4999C77.5 32.9999 79.5 37.4999 79.8 44.7999C79.8 44.7999 80.2 51.3999 79.8 53.5999C79.6 54.2999 78.9 56.7999 75.5 56.7999C75.5 56.7999 63.3 56.7999 61.7 56.1999C61.7 56.1999 55.5 56.1999 55.2 50.0999C54.8 39.8999 56.1 34.2999 56.8 32.1999C57.3 30.4999 60.8 23.8999 64.4 23.8999V23.8999Z" stroke="#989898" stroke-width="0.8"/>
<path opacity="0.6" d="M138.5 29.4999C138.5 29.8999 138.7 36.3998 138.5 40.6998C138.2 44.9998 135.8 50.2998 135.8 50.7998C135.8 51.3998 133.8 53.1998 131.6 53.1998C129.3 53.1998 123.8 51.8998 123.8 47.3998C123.8 42.7998 126.2 37.1998 126.2 37.1998C131.1 23.0998 136.2 23.5998 136.2 23.5998C138.7 23.8998 138.5 29.1999 138.5 29.4999Z" fill="white"/>
<path d="M138.5 29.4999C138.5 29.8999 138.7 36.3998 138.5 40.6998C138.2 44.9998 135.8 50.2998 135.8 50.7998C135.8 51.3998 133.8 53.1998 131.6 53.1998C129.3 53.1998 123.8 51.8998 123.8 47.3998C123.8 42.7998 126.2 37.1998 126.2 37.1998C131.1 23.0998 136.2 23.5998 136.2 23.5998C138.7 23.8998 138.5 29.1999 138.5 29.4999V29.4999Z" stroke="#989898" stroke-width="0.8"/>
<path opacity="0.6" d="M121.8 31.3C122 32 123.1 35.8 123.1 42.2C123.1 48.7 122.2 49.5 120.6 51.1C119.1 52.7 109.9 54.3 109.1 54.3C108.2 54.3 106.2 54.6 105.9 53.2C105.3 49.5 106.2 40.4 106.6 38.8C108.9 30.6 116.2 27.9 117.1 27.8C119.8 27.6 121.5 30.8 121.8 31.3Z" fill="white"/>
<path d="M121.8 31.3C122 32 123.1 35.8 123.1 42.2C123.1 48.7 122.2 49.5 120.6 51.1C119.1 52.7 109.9 54.3 109.1 54.3C108.2 54.3 106.2 54.6 105.9 53.2C105.3 49.5 106.2 40.4 106.6 38.8C108.9 30.6 116.2 27.9 117.1 27.8C119.8 27.6 121.5 30.8 121.8 31.3V31.3Z" stroke="#989898" stroke-width="0.8"/>
<path opacity="0.6" d="M103.3 32.5002C103.9 34.6002 105.3 40.2002 104.8 50.4002C104.6 56.5002 98.4 56.5002 98.4 56.5002C96.8 57.0002 84.5 57.0002 84.5 57.0002C81.2 57.0002 80.5 54.6002 80.3 53.8002C79.9 51.7002 80.3 45.0002 80.3 45.0002C80.5 37.8002 82.5 33.3002 85.9 29.8002C90.2 25.3002 93 24.2002 95.7 24.2002C99.3 24.2002 102.7 30.8002 103.3 32.5002Z" fill="white"/>
<path d="M103.3 32.5002C103.9 34.6002 105.3 40.2002 104.8 50.4002C104.6 56.5002 98.4 56.5002 98.4 56.5002C96.8 57.0002 84.5 57.0002 84.5 57.0002C81.2 57.0002 80.5 54.6002 80.3 53.8002C79.9 51.7002 80.3 45.0002 80.3 45.0002C80.5 37.8002 82.5 33.3002 85.9 29.8002C90.2 25.3002 93 24.2002 95.7 24.2002C99.3 24.2002 102.7 30.8002 103.3 32.5002V32.5002Z" stroke="#989898" stroke-width="0.8"/>
<path d="M20.4 40.1002C20.5 41.1002 21.4 45.4002 22.8 49.3002C22 51.7002 20.1 50.1002 19.2 50.1002C18 50.1002 16.9 48.3002 16.9 47.7002C16.9 47.2002 15.7 44.2002 15.5 39.9002C15.4 35.7002 15.5 29.1002 15.5 28.7002C15.5 28.5002 15.4 23.1002 16.7 22.8002C16.7 22.8002 18.4 22.5002 20.4 29.5002C20.4 31.3002 20.3 36.5002 20.4 40.1002Z" fill="white" stroke="#989898" stroke-width="0.8"/>
<path d="M139.6 29.5002C141.6 22.5002 143.3 22.8002 143.3 22.8002C144.6 23.1002 144.5 28.4002 144.5 28.7002C144.5 29.1002 144.6 35.7002 144.5 39.9002C144.3 44.2002 143 47.2002 143 47.7002C143 48.3002 142 50.1002 140.8 50.1002C139.9 50.1002 138 51.7002 137.2 49.3002C138.6 45.4002 139.5 41.1002 139.6 40.1002C139.7 36.5002 139.6 31.3002 139.6 29.5002Z" fill="white" stroke="#989898" stroke-width="0.8"/>
<path opacity="0.6" d="M16 47.6001C16 47.6668 16 47.7001 16 47.7001C16.1 48.8001 15.2 49.7001 14.2 49.5001C13.1 49.4001 12.1 48.8001 11.7 48.9001C10.5 49.2001 7.60001 50.0001 7.10001 46.9001C7.00001 46.2001 5.80002 43.3001 5.70002 39.1001C5.60002 34.8001 5.30002 29.5001 5.70002 27.9001C6.40002 25.2001 8.00002 21.7001 10.8 21.6001C11.1 21.6001 11.5 21.7001 11.7 22.0001C12.2 22.6001 13.2 24.2001 14.5 28.4001C14.5 28.6001 14.5 28.7668 14.5 28.9001C14.5 30.9001 14.4 35.8001 14.5 39.2001C14.5 39.2668 14.5333 39.3334 14.6 39.4001C14.6 39.4668 14.6 39.5334 14.6 39.6001C14.6 39.6668 14.6 39.7334 14.6 39.8001C14.7 44.1001 16 47.1001 16 47.6001Z" fill="white"/>
<path d="M16 47.6001C16 47.6668 16 47.7001 16 47.7001C16.1 48.8001 15.2 49.7001 14.2 49.5001C13.1 49.4001 12.1 48.8001 11.7 48.9001C10.5 49.2001 7.60001 50.0001 7.10001 46.9001C7.00001 46.2001 5.80002 43.3001 5.70002 39.1001C5.60002 34.8001 5.30002 29.5001 5.70002 27.9001C6.40002 25.2001 8.00002 21.7001 10.8 21.6001C11.1 21.6001 11.5 21.7001 11.7 22.0001C12.2 22.6001 13.2 24.2001 14.5 28.4001C14.5 28.6001 14.5 28.7668 14.5 28.9001C14.5 30.9001 14.4 35.8001 14.5 39.2001C14.5 39.2668 14.5333 39.3334 14.6 39.4001C14.6 39.4668 14.6 39.5334 14.6 39.6001C14.6 39.6668 14.6 39.7334 14.6 39.8001C14.7 44.1001 16 47.1001 16 47.6001V47.6001Z" stroke="#989898" stroke-width="0.8"/>
<path opacity="0.6" d="M145.4 40.2C145.4 40.1333 145.4 40.0667 145.4 40C145.4 39.9333 145.4 39.8667 145.4 39.8C145.4 39.7333 145.4 39.6667 145.4 39.6C145.6 36.2 145.5 31.3 145.4 29.3C145.4 29.1667 145.433 29 145.5 28.8C146.7 24.5 147.7 22.9 148.3 22.3C148.5 22.1 148.8 22 149.1 22C151.9 22.1 153.5 25.6 154.2 28.2C154.7 29.8 154.3 35.2 154.2 39.5C154.1 43.7 152.9 46.6 152.8 47.3C152.3 50.4 149.4 49.6 148.3 49.3C147.8 49.2 146.9 49.7 145.8 49.9C144.7 50.1 143.8 49.2 144 48.1C144 48.1 144 48.0667 144 48C144 47.5 145.3 44.5 145.4 40.2Z" fill="white"/>
<path d="M145.4 40.2C145.4 40.1333 145.4 40.0667 145.4 40C145.4 39.9333 145.4 39.8667 145.4 39.8C145.4 39.7333 145.4 39.6667 145.4 39.6C145.6 36.2 145.5 31.3 145.4 29.3C145.4 29.1667 145.433 29 145.5 28.8C146.7 24.5 147.7 22.9 148.3 22.3C148.5 22.1 148.8 22 149.1 22C151.9 22.1 153.5 25.6 154.2 28.2C154.7 29.8 154.3 35.2 154.2 39.5C154.1 43.7 152.9 46.6 152.8 47.3C152.3 50.4 149.4 49.6 148.3 49.3C147.8 49.2 146.9 49.7 145.8 49.9C144.7 50.1 143.8 49.2 144 48.1C144 48.1 144 48.0667 144 48C144 47.5 145.3 44.5 145.4 40.2Z" stroke="#989898" stroke-width="0.8"/>
<path d="M156.7 16.6L158.2 27.7C158.2 27.8333 158.2 27.9333 158.2 28C158.1 30.2 154.9 30.1 154.9 27.9C154.9 26.8 154.8 25.9 154.7 25.4C154 22.9 152.3 19.8 149.5 19.6C149.2 19.6 148.9 19.7 148.6 19.9C148.1 20.5 147.2 21.8 146.1 25.2C146 25.4 145.9 25.5 145.6 25.5C145.3 25.6 145 25.4 145 25C145 23.7 144.8 21.4 144.1 20.7C143.9 20.6 143.7 20.6 143.5 20.6C142.9 20.9 141.7 21.8 140.2 26.1C140.2 26.3 140 26.5 139.8 26.5C139.5 26.6 139.1 26.3 139.1 26C139.1 24.6 138.8 21.5 136.9 21.3C136.9 21.3 136.867 21.3 136.8 21.3C136.3 21.3 131.4 21.5 126.7 33.9C126.7 34.1 126.3 34.9 125.9 36C125.7 36.4 125.4 36.6 125 36.6H124.4C123.9 36.6 123.5 36.2 123.5 35.8C123.2 31.5 122.5 29 122.2 28.4C122 27.9 120.2 25 117.5 25.2C116.6 25.3 109.2 27.8 106.9 35.4C106.833 35.5333 106.8 35.7 106.8 35.9C106.7 36.3 106.3 36.6 105.9 36.6H105.7C105.3 36.6 104.9 36.3 104.8 35.8C104.5 32.7 103.9 30.6 103.5 29.5C103 28 99.5 21.8 95.8 21.8C93.1 21.8 90.3 22.9 85.9 27C83.5 29.3 81.8 32.1 80.9 35.9C80.8 36.3 80.5 36.6 80 36.6C79.6 36.6 79.2 36.3 79.1 35.9C78.3 32 76.6 29.1 74.1 26.8C69.7 22.6 66.9 21.6 64.2 21.6C60.6 21.6 57 27.7 56.5 29.3C56.1 30.4 55.5 32.5 55.2 35.8C55.1 36.3 54.7 36.6 54.3 36.6H54.2C53.8 36.6 53.4 36.3 53.3 35.9C53.2333 35.5667 53.1667 35.3 53.1 35.1C50.8 27.5 43.4 25.1 42.5 25C39.8 24.7 38 27.7 37.8 28.2C37.6 28.7 36.8 31.4 36.5 35.8C36.5 36.2 36.1 36.6 35.6 36.6H35.1C34.7 36.6 34.4 36.4 34.3 36C33.8 34.7 33.4 33.8 33.3 33.7C28.6 21.2 23.7 21 23.2 21.1C23.2 21.1 23.1667 21.1 23.1 21.1C20.7 21.3 20.9 26.3 20.9 26.5C20.9 26.5 20.9 26.5667 20.9 26.7L20.2 26.6C20 26.5 19.8 26.4 19.8 26.2C18.3 21.6 17 20.6 16.4 20.5C16.2 20.4 16 20.4 15.9 20.5C15.1 21.2 15 23.8 15 25.1C15 25.4 14.7 25.7 14.3 25.6H14.1C14.1 25.6 14.1 25.5667 14.1 25.5C12.8 21.6 11.8 20.1 11.3 19.6C11 19.4 10.7 19.2 10.4 19.3C7.6 19.4 6 22.6 5.2 25.1C4.9 26.3 5 29.7 5.2 33.1C5.2 33.9 4.2 34.3 3.6 33.7C2 32.1 1 30 1 27.7L2.3 16.9C2.3 12 11.4 1 16.8 1H26.4C27.4 1 28.3 1.5 28.9 2.2L33.2 7.8C34.4 9.4 36.9 9.4 38.2 7.8L42.5 2.2C43.1 1.5 44 1 45 1H59.9C62.6 1 65.3 2 67.4 3.8L74.1 13.2C74.5 13.7333 75 14.2 75.6 14.6C78.3 16.3 81.7 16.2 84.4 14.5C84.9333 14.1667 85.4 13.7 85.8 13.1L92.1 3.9C94.2 2 96.9 1 99.8 1H113.8C115 1 116.1 1.6 116.8 2.5L120.4 7.1C121.9 9.1 124.9 9.1 126.4 7.1L130.1 2.5C130.8 1.5 131.9 1 133.1 1H142.5C147.8 1 156.7 11.7 156.7 16.6Z" fill="#FFF3FA" stroke="#989898" stroke-width="0.8"/>
</svg>
