<svg width="143" height="52" viewBox="0 0 143 52" fill="none" xmlns="http://www.w3.org/2000/svg">
<path opacity="0.6" d="M38.5681 24.775C39.3848 24.8657 45.9183 27.3158 47.9147 34.6661C48.3684 36.0273 49.1851 44.1942 48.5499 47.5518C48.2777 48.8222 46.5536 48.4592 45.7369 48.4592C44.9202 48.4592 36.7532 47.0981 35.392 45.6462C33.9401 44.1942 33.2142 43.4683 33.2142 37.7514C33.2142 32.0345 34.1216 28.4955 34.3938 27.951C34.5753 27.4066 36.2087 24.5935 38.5681 24.775Z" fill="white"/>
<path d="M38.5681 24.775C39.3848 24.8657 45.9183 27.3158 47.9147 34.6661C48.3684 36.0273 49.1851 44.1942 48.5499 47.5518C48.2777 48.8222 46.5536 48.4592 45.7369 48.4592C44.9202 48.4592 36.7532 47.0981 35.392 45.6462C33.9401 44.1942 33.2142 43.4683 33.2142 37.7514C33.2142 32.0345 34.1216 28.4955 34.3938 27.951C34.5753 27.4066 36.2087 24.5935 38.5681 24.775V24.775Z" stroke="#989898" stroke-width="0.8"/>
<path opacity="0.6" d="M57.715 21.5991C60.1651 21.5991 62.6151 22.5973 66.5171 26.59C69.5117 29.6753 71.3266 33.7588 71.5081 40.2017C71.5081 40.2017 71.871 46.1908 71.5081 48.0964C71.3266 48.7316 70.6914 51.0002 67.6968 51.0002C67.6968 51.0002 56.7168 51.0002 55.3556 50.5465C55.3556 50.5465 49.8202 50.5465 49.548 45.0111C49.185 35.9367 50.3647 30.855 50.9092 28.9494C51.4536 27.4975 54.5389 21.5991 57.715 21.5991Z" fill="white"/>
<path d="M57.715 21.5991C60.1651 21.5991 62.6151 22.5973 66.5171 26.59C69.5117 29.6753 71.3266 33.7588 71.5081 40.2017C71.5081 40.2017 71.871 46.1908 71.5081 48.0964C71.3266 48.7316 70.6914 51.0002 67.6968 51.0002C67.6968 51.0002 56.7168 51.0002 55.3556 50.5465C55.3556 50.5465 49.8202 50.5465 49.548 45.0111C49.185 35.9367 50.3647 30.855 50.9092 28.9494C51.4536 27.4975 54.5389 21.5991 57.715 21.5991V21.5991Z" stroke="#989898" stroke-width="0.8"/>
<path d="M24.5028 33.4863C24.5936 34.3937 26.0455 38.2957 25.6825 43.8311C24.9566 45.9182 17.8785 44.4663 17.0618 44.4663C15.9729 44.4663 15.0654 42.8329 15.0654 42.3792C15.0654 41.8347 13.8858 39.2031 13.795 35.3919C13.7043 31.5806 13.795 25.6823 13.795 25.3193C13.795 25.0471 13.7043 20.3284 14.884 20.0561C14.884 20.0561 17.2433 19.0579 19.6027 24.7748C19.9656 25.6823 20.6008 26.499 21.3268 27.1342C22.8694 28.4953 24.0491 29.8565 24.5028 33.4863Z" fill="white" stroke="#989898" stroke-width="0.8"/>
<path opacity="0.6" d="M14.3395 42.8332C14.521 43.8313 13.7043 44.648 12.7061 44.5573C11.7986 44.3758 10.8912 43.9221 10.5282 44.0128C9.53004 44.1943 6.89846 44.9203 6.44474 42.1072C6.35399 41.472 5.26506 38.9312 5.17432 35.1199C5.08357 31.3087 4.81134 26.4992 5.17432 25.0473C5.80953 22.688 7.26143 19.6027 9.71152 19.5119C10.0745 19.4212 10.3467 19.6027 10.5282 19.7842C10.9819 20.3286 11.8894 21.7805 12.9783 25.5918C13.0388 25.7128 13.0691 25.864 13.0691 26.0455C12.9783 27.8604 12.8876 32.2161 13.0691 35.3014C13.0691 35.3619 13.0691 35.4224 13.0691 35.4829C13.0691 35.4829 13.0691 35.5131 13.0691 35.5736C13.0691 35.6341 13.0691 35.7249 13.0691 35.8459C13.2505 39.6571 14.3395 42.3794 14.3395 42.8332Z" fill="white"/>
<path d="M14.3395 42.8332C14.521 43.8313 13.7043 44.648 12.7061 44.5573C11.7986 44.3758 10.8912 43.9221 10.5282 44.0128C9.53004 44.1943 6.89846 44.9203 6.44474 42.1072C6.35399 41.472 5.26506 38.9312 5.17432 35.1199C5.08357 31.3087 4.81134 26.4992 5.17432 25.0473C5.80953 22.688 7.26143 19.6027 9.71152 19.5119C10.0745 19.4212 10.3467 19.6027 10.5282 19.7842C10.9819 20.3286 11.8894 21.7805 12.9783 25.5918C13.0388 25.7128 13.0691 25.864 13.0691 26.0455C12.9783 27.8604 12.8876 32.2161 13.0691 35.3014C13.0691 35.3619 13.0691 35.4224 13.0691 35.4829C13.0691 35.4829 13.0691 35.5131 13.0691 35.5736C13.0691 35.6341 13.0691 35.7249 13.0691 35.8459C13.2505 39.6571 14.3395 42.3794 14.3395 42.8332V42.8332Z" stroke="#989898" stroke-width="0.8"/>
<path opacity="0.6" d="M130.31 36.2089C130.31 36.0879 130.31 35.9971 130.31 35.9366C130.31 35.8761 130.31 35.8156 130.31 35.7551C130.31 35.6946 130.31 35.6644 130.31 35.6644C130.492 32.5791 130.401 28.1326 130.31 26.4085C130.31 26.227 130.341 26.0758 130.401 25.9548C131.49 22.1435 132.397 20.6916 132.851 20.1472C133.123 19.9657 133.396 19.7842 133.668 19.7842C136.118 19.9657 137.57 23.051 138.205 25.4103C138.568 26.8622 138.296 31.6717 138.205 35.4829C138.114 39.2942 137.025 41.835 136.935 42.4702C136.481 45.2833 133.94 44.5573 132.851 44.2851C132.488 44.1943 131.672 44.7388 130.673 44.8296C129.675 45.011 128.949 44.1943 129.04 43.1962C129.04 42.6517 130.22 40.0201 130.31 36.2089Z" fill="white"/>
<path d="M130.31 36.2089C130.31 36.0879 130.31 35.9971 130.31 35.9366C130.31 35.8761 130.31 35.8156 130.31 35.7551C130.31 35.6946 130.31 35.6644 130.31 35.6644C130.492 32.5791 130.401 28.1326 130.31 26.4085C130.31 26.227 130.341 26.0758 130.401 25.9548C131.49 22.1435 132.397 20.6916 132.851 20.1472C133.123 19.9657 133.396 19.7842 133.668 19.7842C136.118 19.9657 137.57 23.051 138.205 25.4103C138.568 26.8622 138.296 31.6717 138.205 35.4829C138.114 39.2942 137.025 41.835 136.935 42.4702C136.481 45.2833 133.94 44.5573 132.851 44.2851C132.488 44.1943 131.672 44.7388 130.673 44.8296C129.675 45.011 128.949 44.1943 129.04 43.1962C129.04 42.6517 130.22 40.0201 130.31 36.2089V36.2089Z" stroke="#989898" stroke-width="0.8"/>
<path d="M108.623 11.2541C111.345 11.2541 113.795 9.52995 114.793 7.07986L116.608 2.36116C117.243 1.54446 118.241 1 119.24 1H127.679C132.488 1 140.383 10.6189 140.383 15.0653L141.744 24.9564C141.744 25.0169 141.744 25.1077 141.744 25.2287C141.744 27.1343 138.84 27.0436 138.84 25.1379C138.84 24.1397 138.75 23.3231 138.659 22.8693C138.024 20.6915 136.481 17.7877 134.031 17.6969C133.668 17.6969 133.396 17.7877 133.214 17.9691C132.76 18.4229 131.944 19.6933 130.946 22.6878C130.855 22.8693 130.764 22.9601 130.492 22.9601C130.22 23.0508 129.947 22.8693 129.947 22.5971C129.947 21.3267 129.675 19.3303 129.131 18.6951C128.132 17.4247 125.682 18.5136 125.501 18.6044C125.047 18.7858 123.414 19.6933 122.143 23.5953C122.053 23.686 121.871 23.8675 121.69 23.8675C121.417 23.9583 121.145 23.686 121.145 23.4138C121.054 22.1434 120.782 19.4211 119.149 19.2396C119.088 19.2396 119.058 19.2396 119.058 19.2396L85.9365 19.6933C83.4864 19.6933 80.9455 20.6007 77.0436 24.3212C74.8657 26.4083 73.3231 28.9492 72.5971 32.3067C72.5064 32.6697 72.1434 32.9419 71.7804 32.9419C71.3267 32.9419 71.0544 32.6697 70.9637 32.3067C70.147 28.7677 68.6044 26.2269 66.4265 24.1397C62.5245 20.4192 59.9837 19.5118 57.5336 19.5118C54.2668 19.5118 51.1815 24.9564 50.637 26.3176C50.3648 27.3158 49.8203 29.2214 49.4574 32.216C49.4574 32.5789 49.0944 32.9419 48.6407 32.9419C48.1869 32.9419 47.9147 32.6697 47.824 32.3067C47.7635 32.0042 47.703 31.7623 47.6425 31.5808C45.5554 24.775 38.931 22.5971 38.1143 22.5064C35.755 22.2341 34.1216 24.9564 33.9401 25.4102C33.6679 25.8639 32.9419 28.2232 32.7604 32.216C32.7604 32.5789 32.3975 32.9419 31.9437 32.9419H31.49C31.127 32.9419 30.8548 32.6697 30.7641 32.3975C30.3103 31.2178 29.9474 30.4011 29.8566 30.3103C25.6824 19.1488 23.0508 18.9673 22.5971 18.9673C20.3285 19.2396 20.6007 23.686 20.6007 23.8675C20.6007 23.8675 20.6007 23.928 20.6007 24.049L19.9655 23.9583C19.784 23.8675 19.6025 23.7768 19.6025 23.5953C18.2414 19.5118 17.0617 18.6951 16.608 18.4229C16.245 18.2414 15.4283 17.6062 14.2486 18.5136C13.6134 19.1488 13.4319 21.5082 13.4319 22.5971C13.4319 22.9601 13.1597 23.1416 12.8875 23.0508H12.706C12.6455 23.0508 12.6152 23.0508 12.6152 23.0508C11.5263 19.5118 10.6189 18.1506 10.1652 17.6969C9.98366 17.5154 9.62069 17.3339 9.34845 17.3339C6.89836 17.5154 5.35572 20.3285 4.72051 22.5971C4.44827 23.686 4.53902 26.7713 4.72051 29.7659C4.72051 30.4918 3.81307 30.8548 3.2686 30.3103C1.8167 28.9492 1 27.0436 1 24.9564L2.08893 15.3376C2.08893 10.8911 10.2559 1 15.0653 1H23.686C24.5935 1 25.4102 1.45372 25.9546 2.17968L29.7659 7.07986C30.8548 8.62251 33.1234 8.62251 34.2123 7.07986L38.1143 2.08893C38.6588 1.45372 39.4755 1 40.3829 1H53.7223C56.1724 1 58.5318 1.90744 60.4374 3.54084L66.4265 11.98C66.7895 12.464 67.2432 12.8572 67.7877 13.1597C70.147 14.7024 73.2323 14.7024 75.6824 13.1597C75.8034 13.0387 75.9244 12.948 76.0454 12.8875C76.7713 12.2523 77.7695 11.8893 78.7677 11.7985L108.623 11.2541Z" fill="#FFF3FA" stroke="#989898" stroke-width="0.8"/>
<path d="M121.69 26.7714C122.416 26.1362 123.051 25.3195 123.414 24.412C125.773 18.6951 128.223 19.6933 128.223 19.6933C129.312 19.9656 129.221 24.6843 129.221 24.9565C129.221 25.3195 129.312 31.2178 129.221 35.0291C129.131 38.8403 127.951 41.4719 127.951 42.0164C127.951 42.4701 127.044 44.1035 125.955 44.1035C125.138 44.1035 118.06 45.5554 117.334 43.4683C116.971 37.9329 118.423 34.1216 118.514 33.1235C118.967 29.4937 120.147 28.1325 121.69 26.7714Z" fill="white" stroke="#989898" stroke-width="0.8"/>
</svg>
