<svg width="34" height="51" viewBox="0 0 34 51" fill="none" xmlns="http://www.w3.org/2000/svg">
<path opacity="0.6" d="M16.0799 16.5539H30.0372C29.4692 20.2055 28.4955 23.5326 27.4405 27.9145C25.1684 37.4899 23.4643 50.4735 19.0012 49.9866C19.0012 49.9325 19.0012 49.9054 19.0012 49.9054C18.1086 49.8243 17.5406 49.094 17.6217 48.2825C17.8652 45.6858 17.6217 33.5948 17.6217 33.5948C17.6217 24.9121 16.7291 24.6686 15.7553 24.6686C14.7004 24.6686 13.9701 25.1555 13.9701 33.7571C13.9701 33.7571 14.457 46.2538 14.7004 49.0128C14.7816 49.4185 14.457 49.8243 14.0512 49.8243C9.58815 50.5546 5.2062 39.0317 3.82669 29.3752C2.69063 21.7473 1.22998 16.5539 1.22998 10.0621C1.22998 5.51789 4.07013 3.97609 7.07258 3.73265C9.99388 3.57036 13.8078 5.43675 16.0799 5.51789V16.5539Z" fill="white"/>
<path d="M16.0799 16.5539H30.0372C29.4692 20.2055 28.4955 23.5326 27.4405 27.9145C25.1684 37.4899 23.4643 50.4735 19.0012 49.9866C19.0012 49.9325 19.0012 49.9054 19.0012 49.9054C18.1086 49.8243 17.5406 49.094 17.6217 48.2825C17.8652 45.6858 17.6217 33.5948 17.6217 33.5948C17.6217 24.9121 16.7291 24.6686 15.7553 24.6686C14.7004 24.6686 13.9701 25.1555 13.9701 33.7571C13.9701 33.7571 14.457 46.2538 14.7004 49.0128C14.7816 49.4185 14.457 49.8243 14.0512 49.8243C9.58815 50.5546 5.2062 39.0317 3.82669 29.3752C2.69063 21.7473 1.22998 16.5539 1.22998 10.0621C1.22998 5.51789 4.07013 3.97609 7.07258 3.73265C9.99388 3.57036 13.8078 5.43675 16.0799 5.51789V16.5539Z" stroke="#989898" stroke-width="0.8"/>
<path opacity="0.8" d="M33.2831 13.3081H19.3258V2.27212C19.3799 2.27212 19.407 2.27212 19.407 2.27212C21.0299 2.27212 22.9774 0 27.1159 0C31.3356 0 33.6889 2.51556 33.77 6.08604C33.77 8.84505 33.6077 11.1172 33.2831 13.3081Z" fill="#808080"/>
</svg>
