<svg width="95" height="52" viewBox="0 0 95 52" fill="none" xmlns="http://www.w3.org/2000/svg">
<path opacity="0.8" d="M30.6667 25.417L30.5834 26.5837C31.0834 26.7503 31.4167 27.2503 31.4167 27.8337C31.3334 28.417 30.9167 28.8337 30.4167 29.0003L30.3334 30.167C30.8334 30.3337 31.1667 30.8337 31.0834 31.417C31.0834 31.917 30.6667 32.417 30.1667 32.5003V33.7503C30.5834 34.0003 30.9167 34.5003 30.9167 35.0003C30.8334 35.5837 30.5 36.0003 30 36.167L29.9167 37.3337C30.5 37.5003 30.8334 38.0003 30.8334 38.5837C30.75 39.167 30.3334 39.667 29.75 39.7503L29.6667 40.917C30.1667 41.167 30.5 41.667 30.5 42.167C30.4167 42.7503 30 43.2503 29.5 43.3337C29.25 44.417 28.6667 45.0837 28.0834 45.0837H23.8334C23.1667 45.0837 22.5 44.167 22.3334 42.917C21.6667 42.7503 21.25 42.2503 21.25 41.5837C21.3334 41.0003 21.6667 40.5837 22.1667 40.417V39.2503C21.5 39.167 21 38.5837 21.0834 37.917C21.0834 37.417 21.5 36.917 22 36.8337L21.9167 35.667C21.3334 35.5837 20.8334 35.0003 20.8334 34.3337C20.9167 33.7503 21.3334 33.2503 21.8334 33.167L21.75 32.0003C21.0834 31.917 20.5834 31.3337 20.6667 30.667C20.6667 30.0837 21.0834 29.667 21.6667 29.5003L21.5834 28.417C21 28.3337 20.5 27.7503 20.5834 27.0837C20.5834 26.5003 21 26.0837 21.5 25.917L21.4167 24.7503C20.75 24.667 20.3334 24.0837 20.3334 23.417C20.4167 22.8337 20.8334 22.417 21.3334 22.3337C21.3334 20.7503 22.0834 19.417 22.9167 19.417H29.25C30.1667 19.417 30.9167 21.0003 30.8334 22.8337L30.75 23.0003C31.3334 23.167 31.6667 23.667 31.5834 24.2503C31.5834 24.8337 31.1667 25.2503 30.6667 25.417Z" fill="#808080"/>
<path opacity="0.6" d="M51.5 14.75L45.1667 14.5833C44.25 14.5833 43.6667 14.5833 43.1667 13.9167C42 12.4167 39.5 12.75 38.0833 10.3333C37.6667 9.66667 36.75 9.66667 36.4167 10.3333C34.75 13.4167 31.5833 14.1667 30.8333 17.25C30.7222 17.6389 30.5556 17.9722 30.3333 18.25C30.0833 18.6667 29.5833 18.8333 29.0833 18.8333H23.25C22.6667 18.8333 22.0833 18.5833 21.8333 18C21.6667 17.7222 21.5556 17.4167 21.5 17.0833C20.5833 13.1667 14.8333 13.4167 14.75 6.33333C14.75 2.83333 16.9167 1.25 19.25 1.08333C21.5 1 24.5833 2.83333 26.3333 2.83333C27.5833 2.83333 29.0833 1.08333 32.25 1.08333C34.0833 1.08333 35.5 1.75 36.3333 2.75C36.75 3.25 37.5 3.25 37.9167 2.66667C38.75 1.58333 40.0833 1.16667 41.4167 1.08333C43.75 0.916667 46.6667 2.5 48.4167 2.5C49.6667 2.5 51.0833 1 54.3333 1C56.4167 1 58 1.5 58.8333 2.66667C59.1667 3.25 59.9167 3.33333 60.4167 2.91667C61.25 1.91667 62.4167 1.08333 63.75 1.08333C66 0.916667 69.0833 2.83333 70.8333 2.83333C72.0833 2.83333 73.5 1.08333 76.75 1.08333C80 1.08333 81.9167 3 81.9167 5.75C81.9167 13.25 76.4167 13.0833 75.25 17.25C75.1944 17.6389 75.0556 17.9722 74.8333 18.25C74.5833 18.6667 74.0833 18.8333 73.5833 18.8333H67.75C67.1667 18.8333 66.5833 18.5833 66.3333 18C66.1667 17.7222 66.0555 17.4167 66 17.0833C65.25 14.0833 61.8333 13.5 60.1667 10.3333C59.8333 9.66667 58.8333 9.58333 58.4167 10.25C57 12.75 54.3333 11.9167 53.1667 13.75C52.8333 14.3333 52.25 14.75 51.5 14.75Z" fill="white"/>
<path d="M51.5 14.75L45.1667 14.5833C44.25 14.5833 43.6667 14.5833 43.1667 13.9167C42 12.4167 39.5 12.75 38.0833 10.3333C37.6667 9.66667 36.75 9.66667 36.4167 10.3333C34.75 13.4167 31.5833 14.1667 30.8333 17.25C30.7222 17.6389 30.5556 17.9722 30.3333 18.25C30.0833 18.6667 29.5833 18.8333 29.0833 18.8333H23.25C22.6667 18.8333 22.0833 18.5833 21.8333 18C21.6667 17.7222 21.5556 17.4167 21.5 17.0833C20.5833 13.1667 14.8333 13.4167 14.75 6.33333C14.75 2.83333 16.9167 1.25 19.25 1.08333C21.5 1 24.5833 2.83333 26.3333 2.83333C27.5833 2.83333 29.0833 1.08333 32.25 1.08333C34.0833 1.08333 35.5 1.75 36.3333 2.75C36.75 3.25 37.5 3.25 37.9167 2.66667C38.75 1.58333 40.0833 1.16667 41.4167 1.08333C43.75 0.916667 46.6667 2.5 48.4167 2.5C49.6667 2.5 51.0833 1 54.3333 1C56.4167 1 58 1.5 58.8333 2.66667C59.1667 3.25 59.9167 3.33333 60.4167 2.91667C61.25 1.91667 62.4167 1.08333 63.75 1.08333C66 0.916667 69.0833 2.83333 70.8333 2.83333C72.0833 2.83333 73.5 1.08333 76.75 1.08333C80 1.08333 81.9167 3 81.9167 5.75C81.9167 13.25 76.4167 13.0833 75.25 17.25C75.1944 17.6389 75.0556 17.9722 74.8333 18.25C74.5833 18.6667 74.0833 18.8333 73.5833 18.8333H67.75C67.1667 18.8333 66.5833 18.5833 66.3333 18C66.1667 17.7222 66.0555 17.4167 66 17.0833C65.25 14.0833 61.8333 13.5 60.1667 10.3333C59.8333 9.66667 58.8333 9.58333 58.4167 10.25C57 12.75 54.3333 11.9167 53.1667 13.75C52.8333 14.3333 52.25 14.75 51.5 14.75V14.75Z" stroke="#989898" stroke-width="0.8"/>
<path opacity="0.8" d="M75.0833 25.417V26.5837C75.5833 26.7503 75.9166 27.2503 75.9166 27.8337C75.8333 28.417 75.4166 28.8337 74.9166 29.0003L74.8333 30.167C75.3333 30.3337 75.6666 30.8337 75.5833 31.417C75.5833 31.917 75.1666 32.417 74.6666 32.5003L74.5833 33.7503C75.0833 34.0003 75.4166 34.5003 75.4166 35.0003C75.3333 35.5837 75 36.0003 74.5 36.167L74.4166 37.3337C74.9166 37.5003 75.3333 38.0003 75.25 38.5837C75.25 39.167 74.8333 39.667 74.25 39.7503L74.1666 40.917C74.6666 41.167 75 41.667 75 42.167C74.9166 42.7503 74.5 43.2503 73.9166 43.3337C73.6666 44.417 73.1666 45.0837 72.5 45.0837H68.3333C67.5833 45.0837 67 44.167 66.8333 42.917C66.1666 42.7503 65.75 42.2503 65.75 41.5837C65.8333 41.0003 66.1666 40.5837 66.6666 40.417L66.5833 39.2503C66 39.167 65.5 38.5837 65.5833 37.917C65.5833 37.417 66 36.917 66.5 36.8337L66.4166 35.667C65.75 35.5837 65.3333 35.0003 65.3333 34.3337C65.4166 33.7503 65.8333 33.2503 66.3333 33.167L66.25 32.0003C65.5833 31.917 65.0833 31.3337 65.1666 30.667C65.1666 30.0837 65.5833 29.667 66.1666 29.5003L66.0833 28.417C65.4166 28.3337 65 27.7503 65 27.0837C65.0833 26.5003 65.5 26.0837 66 25.917L65.9166 24.7503C65.25 24.667 64.75 24.0837 64.8333 23.417C64.8333 22.8337 65.25 22.417 65.8333 22.3337C65.8333 20.7503 66.5 19.417 67.3333 19.417H73.75C74.6666 19.417 75.4166 21.0003 75.25 22.8337V23.0003C75.75 23.167 76.1666 23.667 76.0833 24.2503C76.0833 24.8337 75.6666 25.2503 75.0833 25.417Z" fill="#808080"/>
<path opacity="0.6" d="M93.75 26.7497V45.2497C93.75 48.4163 91.1667 50.9997 88.0833 50.9997H43.5833H42.25H6.91667C3.75 50.9997 1.25 48.4163 1.25 45.2497V26.7497C1.25 23.583 3.75 21.083 6.91667 21.083H20.3333C20.2222 21.3052 20.1667 21.5552 20.1667 21.833C20.0833 22.083 19.9167 22.333 19.75 22.4163C19.25 22.583 18.9167 22.9997 18.8333 23.4163C18.8333 23.9997 19.25 24.4997 19.8333 24.6663C20.0833 24.7497 20.25 24.9997 20.25 25.2497V25.4163C20.3333 25.6663 20.0833 25.9997 19.8333 26.083C19.4167 26.333 19.1667 26.6663 19.1667 27.083C19.0833 27.583 19.4167 28.083 20 28.333C20.25 28.4163 20.5 28.6663 20.5 28.9163V28.9997C20.5 29.2497 20.3333 29.583 20.0833 29.6663C19.5833 29.833 19.3333 30.2497 19.25 30.6663C19.25 31.2497 19.5833 31.7497 20.25 31.9163C20.5 31.9997 20.6667 32.2497 20.75 32.4997V32.583C20.75 32.9163 20.5833 33.1663 20.25 33.333C19.8333 33.4997 19.5833 33.9163 19.5 34.333C19.5 34.833 19.8333 35.333 20.5 35.583C20.75 35.6663 20.9167 35.833 20.9167 36.1663V36.2497C20.9167 36.583 20.75 36.833 20.5 36.9163C20.0833 37.1663 19.8333 37.4997 19.75 37.9163C19.75 38.4997 20.0833 38.9163 20.6667 39.1663C20.9167 39.2497 21.1667 39.4997 21.1667 39.7497V39.9163C21.1667 40.1663 21 40.4997 20.75 40.583C20.3333 40.833 20.0833 41.1663 20.0833 41.583C20 42.083 20.4167 42.583 21 42.833C21.25 42.9163 21.4167 43.083 21.5 43.333C21.75 44.4997 22.5 45.833 23.25 45.833H28.5833C29.3333 45.833 29.9167 44.6663 30.25 43.6663C30.3333 43.4997 30.5 43.333 30.6667 43.2497C31.25 43.083 31.5833 42.6663 31.6667 42.1663C31.6667 41.7497 31.4167 41.333 31.0833 41.083C30.8333 40.9997 30.6667 40.7497 30.6667 40.4997L30.75 40.2497C30.75 39.9997 30.9167 39.7497 31.1667 39.6663C31.6667 39.4997 32 39.083 32.0833 38.583C32.0833 38.1663 31.8333 37.7497 31.3333 37.4997C31.0833 37.333 31 37.083 31 36.833V36.583C31 36.333 31.1667 36.083 31.4167 35.9997C31.8333 35.833 32.1667 35.4163 32.1667 34.9997C32.25 34.583 32 34.1663 31.5833 33.9163C31.3333 33.833 31.25 33.583 31.25 33.2497V32.9997C31.3333 32.7497 31.4167 32.4997 31.6667 32.4163C32.0833 32.1663 32.4167 31.833 32.4167 31.4163C32.5 30.9997 32.25 30.583 31.8333 30.333C31.6667 30.1663 31.5 29.9163 31.5 29.6663L31.5833 29.4163C31.5833 29.1663 31.75 28.9997 32 28.833C32.4167 28.6663 32.75 28.2497 32.8333 27.833C32.8333 27.333 32.5833 26.9997 32.1667 26.7497C31.9167 26.583 31.75 26.333 31.8333 25.9997V25.833C31.8333 25.583 32 25.333 32.25 25.2497C32.75 25.083 33.0833 24.6663 33.0833 24.2497C33.1667 23.6663 32.6667 23.1663 32 22.9997L32.0833 22.833C32.0833 22.1663 32 21.583 31.8333 21.083H42.25H43.5833H64.8333C64.7222 21.3052 64.6667 21.5552 64.6667 21.833C64.5833 22.083 64.4167 22.333 64.1667 22.4163C63.75 22.583 63.4167 22.9997 63.3333 23.4163C63.3333 23.9997 63.6667 24.4997 64.25 24.6663C64.5833 24.7497 64.75 24.9997 64.75 25.2497V25.4163C64.75 25.6663 64.5833 25.9997 64.3333 26.083C63.9167 26.333 63.6667 26.6663 63.5833 27.083C63.5833 27.583 63.9167 28.083 64.5 28.333C64.75 28.4163 64.9167 28.6663 65 28.9163V28.9997C65 29.2497 64.8333 29.583 64.5833 29.6663C64.0833 29.833 63.75 30.2497 63.75 30.6663C63.6667 31.2497 64.0833 31.7497 64.75 31.9163C65 31.9997 65.1667 32.2497 65.1667 32.4997V32.583C65.25 32.9163 65 33.1663 64.75 33.333C64.3333 33.4997 64 33.9163 64 34.333C63.9167 34.833 64.3333 35.333 64.9167 35.583C65.1667 35.6663 65.4167 35.833 65.4167 36.1663V36.2497C65.4167 36.583 65.25 36.833 65 36.9163C64.5833 37.1663 64.3333 37.4997 64.25 37.9163C64.25 38.4997 64.5833 38.9163 65.1667 39.1663C65.4167 39.2497 65.5833 39.4997 65.6667 39.7497V39.9163C65.6667 40.1663 65.5 40.4997 65.25 40.583C64.8333 40.833 64.5833 41.1663 64.5 41.583C64.5 42.083 64.9167 42.583 65.5 42.833C65.75 42.9163 65.9167 43.083 65.9167 43.333C66.25 44.4997 66.9167 45.833 67.75 45.833H73.0833C73.75 45.833 74.4167 44.6663 74.75 43.6663C74.8333 43.4997 75 43.333 75.1667 43.2497C75.6667 43.083 76.0833 42.6663 76.1667 42.1663C76.1667 41.7497 75.9167 41.333 75.5 41.083C75.3333 40.9997 75.1667 40.7497 75.1667 40.4997V40.2497C75.25 39.9997 75.4167 39.7497 75.6667 39.6663C76.1667 39.4997 76.5 39.083 76.5 38.583C76.5833 38.1663 76.3333 37.7497 75.8333 37.4997C75.5833 37.333 75.4167 37.083 75.5 36.833V36.583C75.5 36.333 75.6667 36.083 75.9167 35.9997C76.3333 35.833 76.5833 35.4163 76.6667 34.9997C76.6667 34.583 76.5 34.1663 76.0833 33.9163C75.8333 33.833 75.75 33.583 75.75 33.2497V32.9997C75.75 32.7497 75.9167 32.4997 76.1667 32.4163C76.5833 32.1663 76.9167 31.833 76.9167 31.4163C77 30.9997 76.75 30.583 76.3333 30.333C76.0833 30.1663 76 29.9163 76 29.6663V29.4163C76.0833 29.1663 76.25 28.9997 76.5 28.833C76.9167 28.6663 77.25 28.2497 77.3333 27.833C77.3333 27.333 77.0833 26.9997 76.6667 26.7497C76.4167 26.583 76.25 26.333 76.25 25.9997L76.3333 25.833C76.3333 25.583 76.5 25.333 76.75 25.2497C77.1667 25.083 77.5 24.6663 77.5833 24.2497C77.5833 23.6663 77.1667 23.1663 76.5 22.9997V22.833C76.5833 22.1663 76.5 21.583 76.3333 21.083H88.0833C91.1667 21.083 93.75 23.583 93.75 26.7497Z" fill="white"/>
<path d="M93.75 26.7497V45.2497C93.75 48.4163 91.1667 50.9997 88.0833 50.9997H43.5833H42.25H6.91667C3.75 50.9997 1.25 48.4163 1.25 45.2497V26.7497C1.25 23.583 3.75 21.083 6.91667 21.083H20.3333C20.2222 21.3052 20.1667 21.5552 20.1667 21.833C20.0833 22.083 19.9167 22.333 19.75 22.4163C19.25 22.583 18.9167 22.9997 18.8333 23.4163C18.8333 23.9997 19.25 24.4997 19.8333 24.6663C20.0833 24.7497 20.25 24.9997 20.25 25.2497V25.4163C20.3333 25.6663 20.0833 25.9997 19.8333 26.083C19.4167 26.333 19.1667 26.6663 19.1667 27.083C19.0833 27.583 19.4167 28.083 20 28.333C20.25 28.4163 20.5 28.6663 20.5 28.9163V28.9997C20.5 29.2497 20.3333 29.583 20.0833 29.6663C19.5833 29.833 19.3333 30.2497 19.25 30.6663C19.25 31.2497 19.5833 31.7497 20.25 31.9163C20.5 31.9997 20.6667 32.2497 20.75 32.4997V32.583C20.75 32.9163 20.5833 33.1663 20.25 33.333C19.8333 33.4997 19.5833 33.9163 19.5 34.333C19.5 34.833 19.8333 35.333 20.5 35.583C20.75 35.6663 20.9167 35.833 20.9167 36.1663V36.2497C20.9167 36.583 20.75 36.833 20.5 36.9163C20.0833 37.1663 19.8333 37.4997 19.75 37.9163C19.75 38.4997 20.0833 38.9163 20.6667 39.1663C20.9167 39.2497 21.1667 39.4997 21.1667 39.7497V39.9163C21.1667 40.1663 21 40.4997 20.75 40.583C20.3333 40.833 20.0833 41.1663 20.0833 41.583C20 42.083 20.4167 42.583 21 42.833C21.25 42.9163 21.4167 43.083 21.5 43.333C21.75 44.4997 22.5 45.833 23.25 45.833H28.5833C29.3333 45.833 29.9167 44.6663 30.25 43.6663C30.3333 43.4997 30.5 43.333 30.6667 43.2497C31.25 43.083 31.5833 42.6663 31.6667 42.1663C31.6667 41.7497 31.4167 41.333 31.0833 41.083C30.8333 40.9997 30.6667 40.7497 30.6667 40.4997L30.75 40.2497C30.75 39.9997 30.9167 39.7497 31.1667 39.6663C31.6667 39.4997 32 39.083 32.0833 38.583C32.0833 38.1663 31.8333 37.7497 31.3333 37.4997C31.0833 37.333 31 37.083 31 36.833V36.583C31 36.333 31.1667 36.083 31.4167 35.9997C31.8333 35.833 32.1667 35.4163 32.1667 34.9997C32.25 34.583 32 34.1663 31.5833 33.9163C31.3333 33.833 31.25 33.583 31.25 33.2497V32.9997C31.3333 32.7497 31.4167 32.4997 31.6667 32.4163C32.0833 32.1663 32.4167 31.833 32.4167 31.4163C32.5 30.9997 32.25 30.583 31.8333 30.333C31.6667 30.1663 31.5 29.9163 31.5 29.6663L31.5833 29.4163C31.5833 29.1663 31.75 28.9997 32 28.833C32.4167 28.6663 32.75 28.2497 32.8333 27.833C32.8333 27.333 32.5833 26.9997 32.1667 26.7497C31.9167 26.583 31.75 26.333 31.8333 25.9997V25.833C31.8333 25.583 32 25.333 32.25 25.2497C32.75 25.083 33.0833 24.6663 33.0833 24.2497C33.1667 23.6663 32.6667 23.1663 32 22.9997L32.0833 22.833C32.0833 22.1663 32 21.583 31.8333 21.083H42.25H43.5833H64.8333C64.7222 21.3052 64.6667 21.5552 64.6667 21.833C64.5833 22.083 64.4167 22.333 64.1667 22.4163C63.75 22.583 63.4167 22.9997 63.3333 23.4163C63.3333 23.9997 63.6667 24.4997 64.25 24.6663C64.5833 24.7497 64.75 24.9997 64.75 25.2497V25.4163C64.75 25.6663 64.5833 25.9997 64.3333 26.083C63.9167 26.333 63.6667 26.6663 63.5833 27.083C63.5833 27.583 63.9167 28.083 64.5 28.333C64.75 28.4163 64.9167 28.6663 65 28.9163V28.9997C65 29.2497 64.8333 29.583 64.5833 29.6663C64.0833 29.833 63.75 30.2497 63.75 30.6663C63.6667 31.2497 64.0833 31.7497 64.75 31.9163C65 31.9997 65.1667 32.2497 65.1667 32.4997V32.583C65.25 32.9163 65 33.1663 64.75 33.333C64.3333 33.4997 64 33.9163 64 34.333C63.9167 34.833 64.3333 35.333 64.9167 35.583C65.1667 35.6663 65.4167 35.833 65.4167 36.1663V36.2497C65.4167 36.583 65.25 36.833 65 36.9163C64.5833 37.1663 64.3333 37.4997 64.25 37.9163C64.25 38.4997 64.5833 38.9163 65.1667 39.1663C65.4167 39.2497 65.5833 39.4997 65.6667 39.7497V39.9163C65.6667 40.1663 65.5 40.4997 65.25 40.583C64.8333 40.833 64.5833 41.1663 64.5 41.583C64.5 42.083 64.9167 42.583 65.5 42.833C65.75 42.9163 65.9167 43.083 65.9167 43.333C66.25 44.4997 66.9167 45.833 67.75 45.833H73.0833C73.75 45.833 74.4167 44.6663 74.75 43.6663C74.8333 43.4997 75 43.333 75.1667 43.2497C75.6667 43.083 76.0833 42.6663 76.1667 42.1663C76.1667 41.7497 75.9167 41.333 75.5 41.083C75.3333 40.9997 75.1667 40.7497 75.1667 40.4997V40.2497C75.25 39.9997 75.4167 39.7497 75.6667 39.6663C76.1667 39.4997 76.5 39.083 76.5 38.583C76.5833 38.1663 76.3333 37.7497 75.8333 37.4997C75.5833 37.333 75.4167 37.083 75.5 36.833V36.583C75.5 36.333 75.6667 36.083 75.9167 35.9997C76.3333 35.833 76.5833 35.4163 76.6667 34.9997C76.6667 34.583 76.5 34.1663 76.0833 33.9163C75.8333 33.833 75.75 33.583 75.75 33.2497V32.9997C75.75 32.7497 75.9167 32.4997 76.1667 32.4163C76.5833 32.1663 76.9167 31.833 76.9167 31.4163C77 30.9997 76.75 30.583 76.3333 30.333C76.0833 30.1663 76 29.9163 76 29.6663V29.4163C76.0833 29.1663 76.25 28.9997 76.5 28.833C76.9167 28.6663 77.25 28.2497 77.3333 27.833C77.3333 27.333 77.0833 26.9997 76.6667 26.7497C76.4167 26.583 76.25 26.333 76.25 25.9997L76.3333 25.833C76.3333 25.583 76.5 25.333 76.75 25.2497C77.1667 25.083 77.5 24.6663 77.5833 24.2497C77.5833 23.6663 77.1667 23.1663 76.5 22.9997V22.833C76.5833 22.1663 76.5 21.583 76.3333 21.083H88.0833C91.1667 21.083 93.75 23.583 93.75 26.7497V26.7497Z" stroke="#989898" stroke-width="0.8"/>
</svg>
