<svg width="78" height="51" viewBox="0 0 78 51" fill="none" xmlns="http://www.w3.org/2000/svg">
<path opacity="0.8" d="M47.5136 9.43878L47.4285 11.3095C48.2789 11.5646 48.7891 12.415 48.7891 13.3503C48.7041 14.2857 48.0238 14.966 47.1734 15.1361L47.0884 17.0068C47.8537 17.3469 48.3639 18.1122 48.2789 19.0476C48.1938 19.898 47.5986 20.5782 46.8333 20.7483L46.7483 22.7041C47.5136 23.0442 48.0238 23.8095 47.9387 24.7449C47.8537 25.5952 47.2585 26.2755 46.4932 26.4456L46.4081 28.4014C47.2585 28.6565 47.8537 29.4218 47.7687 30.4422C47.6836 31.2925 47.0034 32.0578 46.153 32.2279L46.068 34.0986C46.8333 34.4388 47.3435 35.2041 47.2585 36.0544C47.2585 36.9898 46.5782 37.7551 45.7279 37.9252C45.3027 39.5408 44.4524 40.6463 43.4319 40.6463H36.7993C35.6088 40.6463 34.6734 39.2007 34.4183 37.1599C33.3979 36.9898 32.6326 36.1395 32.7177 35.034C32.8027 34.1837 33.3979 33.5034 34.1632 33.2483L34.0782 31.4626C33.0578 31.2925 32.2925 30.3571 32.3775 29.3367C32.4626 28.4864 33.0578 27.7211 33.9081 27.551L33.8231 25.6803C32.7177 25.5952 31.9524 24.6599 32.0374 23.5544C32.1224 22.7041 32.8027 21.9388 33.568 21.7687L33.483 19.983C32.4626 19.898 31.6972 18.9626 31.6972 17.8571C31.7823 16.9218 32.4626 16.2415 33.3129 16.0714L33.2279 14.2857C32.2075 14.1156 31.5272 13.1803 31.5272 12.1599C31.6122 11.2245 32.2075 10.5442 33.0578 10.3742L32.9728 8.5034C31.9524 8.41837 31.187 7.48299 31.2721 6.37755C31.2721 5.52721 31.9524 4.7619 32.8027 4.59184C32.8877 2.04081 33.9081 0 35.2687 0H45.3027C46.8333 0 47.9387 2.55102 47.7687 5.44218V5.61224C48.619 5.95238 49.1292 6.71769 49.0442 7.65306C49.0442 8.58844 48.3639 9.26871 47.5136 9.43878Z" fill="#808080"/>
<path opacity="0.6" d="M77.0204 11.6493V40.9861C77.0204 45.9181 73.0238 49.9997 68.0068 49.9997H10.0136C4.9966 49.9997 1 45.9181 1 40.9861V11.6493C1 6.71738 4.9966 2.63574 10.0136 2.63574H31.1871C31.0737 3.03257 30.9887 3.42939 30.932 3.82622C30.8469 4.25139 30.5918 4.59152 30.2517 4.76159C29.4864 5.10173 28.9762 5.69697 28.8912 6.37724C28.8061 7.22758 29.4864 7.99289 30.4218 8.33302C30.7619 8.50309 31.102 8.84322 31.102 9.26839V9.5235C31.1871 9.94867 30.8469 10.3738 30.5068 10.6289C29.8265 10.884 29.4014 11.4793 29.3163 12.1596C29.2313 13.0099 29.8265 13.6902 30.7619 14.1153C31.1871 14.2004 31.4422 14.6255 31.4422 15.0507V15.1357C31.5272 15.6459 31.2721 16.0711 30.8469 16.2412C30.0816 16.5813 29.5714 17.1766 29.4864 17.8568C29.4864 18.7072 30.0816 19.4725 31.017 19.8126C31.4422 19.9827 31.7823 20.3228 31.7823 20.748L31.8673 20.9181C31.8673 21.4283 31.6122 21.8534 31.1871 22.0235C30.5068 22.3636 29.9966 22.9589 29.9116 23.6391C29.8265 24.4895 30.5068 25.2548 31.4422 25.5949C31.8673 25.68 32.1224 26.1051 32.2075 26.5303V26.7004C32.2075 27.1255 31.9524 27.5507 31.5272 27.8058C30.8469 28.1459 30.4218 28.6561 30.3367 29.3364C30.2517 30.1868 30.8469 30.9521 31.7823 31.2922C32.2075 31.4623 32.4626 31.8024 32.5476 32.2276V32.4827C32.5476 32.9079 32.2925 33.333 31.8673 33.5031C31.2721 33.8432 30.8469 34.4385 30.7619 35.0337C30.6769 35.9691 31.3571 36.7344 32.2925 37.0745C32.6327 37.1596 32.8878 37.4997 33.0578 37.8398C33.483 39.7106 34.5884 41.8364 35.8639 41.8364H44.2823C45.3878 41.8364 46.4082 40.0507 46.9184 38.4351C47.0884 38.18 47.2585 37.9249 47.5986 37.7548C48.449 37.4997 49.0442 36.9044 49.1292 36.0541C49.2143 35.3738 48.7891 34.7786 48.1939 34.3534C47.8537 34.1834 47.5986 33.7582 47.5986 33.333L47.6837 32.9929C47.6837 32.5677 48.0238 32.2276 48.3639 32.0575C49.1292 31.7174 49.7245 31.1221 49.8095 30.4419C49.8095 29.6766 49.3844 28.9963 48.7041 28.5711C48.2789 28.4011 48.0238 28.0609 48.1088 27.5507V27.2106C48.1088 26.7854 48.3639 26.4453 48.7041 26.2752C49.3844 25.9351 49.8946 25.4249 49.9796 24.7446C49.9796 24.0643 49.6395 23.384 49.0442 23.0439C48.7041 22.7888 48.449 22.3636 48.534 21.9385V21.5133C48.534 21.0881 48.7891 20.748 49.2143 20.5779C49.8095 20.2378 50.3197 19.6425 50.4048 19.0473C50.4048 18.367 50.0646 17.6868 49.4694 17.3466C49.1292 17.0915 48.8741 16.6664 48.9592 16.3262V15.9011C48.9592 15.4759 49.2993 15.1357 49.6395 14.9657C50.4048 14.6255 50.915 14.0303 51 13.35C51.085 12.5847 50.6599 11.9895 49.9796 11.5643C49.5544 11.3942 49.3844 10.884 49.3844 10.4589V10.2038C49.4694 9.7786 49.7245 9.43846 50.0646 9.26839C50.8299 8.92826 51.3401 8.33302 51.4252 7.65275C51.5102 6.71738 50.7449 5.95207 49.7245 5.61193V5.44186C49.8095 4.42146 49.7245 3.48608 49.4694 2.63574H68.0068C73.0238 2.63574 77.0204 6.71738 77.0204 11.6493Z" fill="white"/>
<path d="M77.0204 11.6493V40.9861C77.0204 45.9181 73.0238 49.9997 68.0068 49.9997H10.0136C4.9966 49.9997 1 45.9181 1 40.9861V11.6493C1 6.71738 4.9966 2.63574 10.0136 2.63574H31.1871C31.0737 3.03257 30.9887 3.42939 30.932 3.82622C30.8469 4.25139 30.5918 4.59152 30.2517 4.76159C29.4864 5.10173 28.9762 5.69697 28.8912 6.37724C28.8061 7.22758 29.4864 7.99289 30.4218 8.33302C30.7619 8.50309 31.102 8.84322 31.102 9.26839V9.5235C31.1871 9.94867 30.8469 10.3738 30.5068 10.6289C29.8265 10.884 29.4014 11.4793 29.3163 12.1596C29.2313 13.0099 29.8265 13.6902 30.7619 14.1153C31.1871 14.2004 31.4422 14.6255 31.4422 15.0507V15.1357C31.5272 15.6459 31.2721 16.0711 30.8469 16.2412C30.0816 16.5813 29.5714 17.1766 29.4864 17.8568C29.4864 18.7072 30.0816 19.4725 31.017 19.8126C31.4422 19.9827 31.7823 20.3228 31.7823 20.748L31.8673 20.9181C31.8673 21.4283 31.6122 21.8534 31.1871 22.0235C30.5068 22.3636 29.9966 22.9589 29.9116 23.6391C29.8265 24.4895 30.5068 25.2548 31.4422 25.5949C31.8673 25.68 32.1224 26.1051 32.2075 26.5303V26.7004C32.2075 27.1255 31.9524 27.5507 31.5272 27.8058C30.8469 28.1459 30.4218 28.6561 30.3367 29.3364C30.2517 30.1868 30.8469 30.9521 31.7823 31.2922C32.2075 31.4623 32.4626 31.8024 32.5476 32.2276V32.4827C32.5476 32.9079 32.2925 33.333 31.8673 33.5031C31.2721 33.8432 30.8469 34.4385 30.7619 35.0337C30.6769 35.9691 31.3571 36.7344 32.2925 37.0745C32.6327 37.1596 32.8878 37.4997 33.0578 37.8398C33.483 39.7106 34.5884 41.8364 35.8639 41.8364H44.2823C45.3878 41.8364 46.4082 40.0507 46.9184 38.4351C47.0884 38.18 47.2585 37.9249 47.5986 37.7548C48.449 37.4997 49.0442 36.9044 49.1292 36.0541C49.2143 35.3738 48.7891 34.7786 48.1939 34.3534C47.8537 34.1834 47.5986 33.7582 47.5986 33.333L47.6837 32.9929C47.6837 32.5677 48.0238 32.2276 48.3639 32.0575C49.1292 31.7174 49.7245 31.1221 49.8095 30.4419C49.8095 29.6766 49.3844 28.9963 48.7041 28.5711C48.2789 28.4011 48.0238 28.0609 48.1088 27.5507V27.2106C48.1088 26.7854 48.3639 26.4453 48.7041 26.2752C49.3844 25.9351 49.8946 25.4249 49.9796 24.7446C49.9796 24.0643 49.6395 23.384 49.0442 23.0439C48.7041 22.7888 48.449 22.3636 48.534 21.9385V21.5133C48.534 21.0881 48.7891 20.748 49.2143 20.5779C49.8095 20.2378 50.3197 19.6425 50.4048 19.0473C50.4048 18.367 50.0646 17.6868 49.4694 17.3466C49.1293 17.0915 48.8742 16.6664 48.9592 16.3262V15.9011C48.9592 15.4759 49.2993 15.1357 49.6395 14.9657C50.4048 14.6255 50.915 14.0303 51 13.35C51.085 12.5847 50.6599 11.9895 49.9796 11.5643C49.5544 11.3942 49.3844 10.884 49.3844 10.4589V10.2038C49.4694 9.7786 49.7245 9.43846 50.0646 9.26839C50.8299 8.92826 51.3401 8.33302 51.4252 7.65275C51.5102 6.71738 50.7449 5.95207 49.7245 5.61193V5.44186C49.8095 4.42146 49.7245 3.48608 49.4694 2.63574H68.0068C73.0238 2.63574 77.0204 6.71738 77.0204 11.6493V11.6493Z" stroke="#989898" stroke-width="0.8"/>
</svg>
