<svg width="28" height="51" viewBox="0 0 28 51" fill="none" xmlns="http://www.w3.org/2000/svg">
<path opacity="0.6" d="M26.0227 20.9828H26.5898C26.0227 23.8183 25.2936 26.5727 24.4025 30.1373C22.2961 38.7248 20.7568 50.4717 16.7872 49.9857C15.977 49.9046 15.491 49.1755 15.572 48.4464C15.734 46.097 15.572 35.2412 15.572 35.2412C15.572 27.3829 14.7618 27.2208 13.8707 27.2208C12.9795 27.2208 12.2504 27.6259 12.2504 35.4032C12.2504 35.4032 12.7365 46.6641 12.9795 49.0945C12.9795 49.4996 12.7365 49.8236 12.3314 49.9046C8.36176 50.5527 4.39209 40.183 3.09588 31.4335C2.52878 27.4639 1.88067 24.2233 1.39459 21.0638H1.88067C2.85284 20.9828 3.66297 20.2537 3.66297 19.2815L3.98703 13.8536C4.06804 12.8814 4.87817 12.0713 5.85034 12.0713H21.81C22.7822 12.0713 23.5923 12.8004 23.6733 13.7726L24.1594 19.2005C24.2404 20.1726 25.0506 20.9018 26.0227 20.9828Z" fill="white"/>
<path d="M26.0227 20.9828H26.5898C26.0227 23.8183 25.2936 26.5727 24.4025 30.1373C22.2961 38.7248 20.7568 50.4717 16.7872 49.9857C15.977 49.9046 15.491 49.1755 15.572 48.4464C15.734 46.097 15.572 35.2412 15.572 35.2412C15.572 27.3829 14.7618 27.2208 13.8707 27.2208C12.9795 27.2208 12.2504 27.6259 12.2504 35.4032C12.2504 35.4032 12.7365 46.6641 12.9795 49.0945C12.9795 49.4996 12.7365 49.8236 12.3314 49.9046C8.36176 50.5527 4.39209 40.183 3.09588 31.4335C2.52878 27.4639 1.88067 24.2233 1.39459 21.0638H1.88067C2.85284 20.9828 3.66297 20.2537 3.66297 19.2815L3.98703 13.8536C4.06804 12.8814 4.87817 12.0713 5.85034 12.0713H21.81C22.7822 12.0713 23.5923 12.8004 23.6733 13.7726L24.1594 19.2005C24.2404 20.1726 25.0506 20.9018 26.0227 20.9828V20.9828Z" stroke="#989898" stroke-width="0.8"/>
<path opacity="0.8" d="M26.5898 13.0432L26.5088 13.2862C25.5367 13.2862 24.7265 12.5571 24.6455 11.5849L24.1594 7.37224C24.0784 6.40008 22.7822 5.42791 21.81 5.42791H5.85036C4.87819 5.42791 3.58198 6.48109 3.50096 7.45325L3.17691 11.666C3.17691 12.6381 2.36677 13.3672 1.39461 13.4483V13.2052C1.07056 10.9368 0.827515 8.58744 0.827515 6.15704C0.827515 2.02534 3.33894 0.648111 6.01239 0.486083C8.68583 0.324056 12.2504 2.02534 14.2758 2.02534C15.734 2.02534 17.4353 0 21.2429 0C24.9696 0 27.0759 2.26838 27.1569 5.50893C27.2379 8.42542 26.9949 10.7748 26.5898 13.0432Z" fill="#808080"/>
</svg>
