<svg width="121" height="51" viewBox="0 0 121 51" fill="none" xmlns="http://www.w3.org/2000/svg">
<path opacity="0.6" d="M17.8181 24.3032C17.8181 24.3032 21.7379 23.8677 25.4836 34.6691C25.4836 34.6691 27.3999 38.9374 27.3999 42.4217C27.3999 45.906 23.1316 46.9513 21.4766 46.9513C19.7344 46.9513 18.1665 45.4705 18.1665 45.0349C18.1665 44.6865 16.3372 40.5924 16.163 37.3694C15.9888 34.0593 16.163 29.0942 16.163 28.7457C16.163 28.5715 15.9888 24.4774 17.8181 24.3032Z" fill="white"/>
<path d="M17.8181 24.3032C17.8181 24.3032 21.7379 23.8677 25.4836 34.6691C25.4836 34.6691 27.3999 38.9374 27.3999 42.4217C27.3999 45.906 23.1316 46.9513 21.4766 46.9513C19.7344 46.9513 18.1665 45.4705 18.1665 45.0349C18.1665 44.6865 16.3372 40.5924 16.163 37.3694C15.9888 34.0593 16.163 29.0942 16.163 28.7457C16.163 28.5715 15.9888 24.4774 17.8181 24.3032V24.3032Z" stroke="#989898" stroke-width="0.8"/>
<path opacity="0.6" d="M32.4511 27.5264C33.148 27.5264 38.7229 29.617 40.4651 35.8887C40.8135 37.1083 41.5104 43.9898 40.9877 46.8644C40.8135 47.9096 39.3327 47.6483 38.6358 47.6483C37.9389 47.6483 30.9703 46.4288 29.7508 45.2093C28.6184 43.9898 27.9215 43.38 27.9215 38.502C27.9215 33.6239 28.7055 30.6623 28.8797 30.1396C29.0539 29.7041 30.4476 27.265 32.4511 27.5264Z" fill="white"/>
<path d="M32.4511 27.5264C33.148 27.5264 38.7229 29.617 40.4651 35.8887C40.8135 37.1083 41.5104 43.9898 40.9877 46.8644C40.8135 47.9096 39.3327 47.6483 38.6358 47.6483C37.9389 47.6483 30.9703 46.4288 29.7508 45.2093C28.6184 43.9898 27.9215 43.38 27.9215 38.502C27.9215 33.6239 28.7055 30.6623 28.8797 30.1396C29.0539 29.7041 30.4476 27.265 32.4511 27.5264V27.5264Z" stroke="#989898" stroke-width="0.8"/>
<path opacity="0.6" d="M48.827 24.7388C50.9176 24.7388 53.0082 25.6099 56.3183 29.0071C58.8444 31.6203 60.4124 35.1046 60.5866 40.5924C60.5866 40.5924 60.935 45.7318 60.5866 47.3869C60.4995 47.9095 59.8897 49.8259 57.3636 49.8259C57.3636 49.8259 47.9559 49.8259 46.8235 49.3903C46.8235 49.3903 42.0326 49.3903 41.8584 44.6865C41.5099 36.9339 42.5552 32.6656 43.0779 31.0106C43.4263 29.791 46.1266 24.7388 48.827 24.7388Z" fill="white"/>
<path d="M48.827 24.7388C50.9176 24.7388 53.0082 25.6099 56.3183 29.0071C58.8444 31.6203 60.4124 35.1046 60.5866 40.5924C60.5866 40.5924 60.935 45.7318 60.5866 47.3869C60.4995 47.9095 59.8897 49.8259 57.3636 49.8259C57.3636 49.8259 47.9559 49.8259 46.8235 49.3903C46.8235 49.3903 42.0326 49.3903 41.8584 44.6865C41.5099 36.9339 42.5552 32.6656 43.0779 31.0106C43.4263 29.791 46.1267 24.7388 48.827 24.7388V24.7388Z" stroke="#989898" stroke-width="0.8"/>
<path opacity="0.6" d="M105.448 29.0071C105.448 29.2685 105.622 34.2336 105.448 37.5437C105.273 40.7667 103.357 44.8608 103.357 45.2963C103.357 45.7319 101.876 47.1256 100.134 47.1256C98.3918 47.1256 94.2106 46.0803 94.2106 42.596C94.2106 39.1988 96.0398 34.8434 96.0398 34.8434C99.7855 24.042 103.705 24.4775 103.705 24.4775C105.622 24.6517 105.448 28.7458 105.448 29.0071Z" fill="white"/>
<path d="M105.448 29.0071C105.448 29.2685 105.622 34.2336 105.448 37.5437C105.273 40.7667 103.357 44.8608 103.357 45.2963C103.357 45.7319 101.876 47.1256 100.134 47.1256C98.3918 47.1256 94.2106 46.0803 94.2106 42.596C94.2106 39.1988 96.0398 34.8434 96.0398 34.8434C99.7855 24.042 103.705 24.4775 103.705 24.4775C105.622 24.6517 105.448 28.7458 105.448 29.0071V29.0071Z" stroke="#989898" stroke-width="0.8"/>
<path opacity="0.6" d="M92.6418 30.3135C92.9031 30.8362 93.6871 33.7979 93.6871 38.6759C93.6871 43.6411 92.9902 44.2508 91.7707 45.4703C90.6383 46.6898 83.6696 47.9094 82.9728 47.9094C82.2759 47.9094 80.7951 48.1707 80.5338 47.0383C80.0111 44.2508 80.708 37.2822 81.0564 36.0627C82.7986 29.7909 88.3735 27.7874 89.0703 27.7003C91.0738 27.5261 92.4676 29.9651 92.6418 30.3135Z" fill="white"/>
<path d="M92.6418 30.3135C92.9031 30.8362 93.6871 33.7979 93.6871 38.6759C93.6871 43.6411 92.9902 44.2508 91.7707 45.4703C90.6383 46.6898 83.6696 47.9094 82.9728 47.9094C82.2759 47.9094 80.7951 48.1707 80.5338 47.0383C80.0111 44.2508 80.708 37.2822 81.0564 36.0627C82.7986 29.7909 88.3735 27.7874 89.0703 27.7003C91.0738 27.5261 92.4676 29.9651 92.6418 30.3135V30.3135Z" stroke="#989898" stroke-width="0.8"/>
<path opacity="0.6" d="M78.5319 31.2715C79.0545 32.9265 80.0127 37.1948 79.7514 44.9474C79.49 49.5642 74.7862 49.5642 74.7862 49.5642C73.5667 49.9997 64.2461 49.9997 64.2461 49.9997C61.6329 49.9997 61.1103 48.0833 61.0231 47.5607C60.6747 45.9056 61.0231 40.8534 61.0231 40.8534C61.1974 35.3656 62.6782 31.8812 65.2043 29.1809C68.5144 25.7837 70.6921 24.9126 72.6956 24.9126C75.4831 24.9126 78.0963 29.9649 78.5319 31.2715Z" fill="white"/>
<path d="M78.5319 31.2715C79.0545 32.9265 80.0127 37.1948 79.7514 44.9474C79.49 49.5642 74.7862 49.5642 74.7862 49.5642C73.5667 49.9997 64.2461 49.9997 64.2461 49.9997C61.6329 49.9997 61.1103 48.0833 61.0231 47.5607C60.6747 45.9056 61.0231 40.8534 61.0231 40.8534C61.1974 35.3656 62.6782 31.8812 65.2043 29.1809C68.5144 25.7837 70.6921 24.9126 72.6956 24.9126C75.4831 24.9126 78.0963 29.9649 78.5319 31.2715V31.2715Z" stroke="#989898" stroke-width="0.8"/>
<path d="M15.2898 37.1077C15.2898 37.8917 16.0738 41.2018 17.1191 44.1634C16.4223 45.9056 15.0285 44.7732 14.3317 44.7732C13.3735 44.7732 12.5895 43.2924 12.5895 42.9439C12.5895 42.5084 11.6313 40.2436 11.5442 36.9335C11.4571 33.7105 11.5442 28.6582 11.5442 28.3969C11.5442 28.2227 11.4571 24.1286 12.4153 23.8673C12.4153 23.8673 13.7219 23.6059 15.2898 29.0066C15.2027 30.4004 15.1156 34.3202 15.2898 37.1077Z" fill="white" stroke="#989898" stroke-width="0.8"/>
<path d="M106.233 29.0066C107.801 23.6059 109.107 23.8673 109.107 23.8673C110.065 24.1286 109.978 28.1356 109.978 28.3969C109.978 28.6582 110.065 33.7105 109.978 36.9335C109.891 40.2436 108.933 42.5084 108.933 42.8568C108.933 43.2924 108.062 44.7732 107.191 44.7732C106.494 44.7732 105.1 45.9056 104.403 44.1634C105.449 41.1147 106.233 37.8917 106.233 37.1077C106.407 34.3202 106.32 30.4004 106.233 29.0066Z" fill="white" stroke="#989898" stroke-width="0.8"/>
<path opacity="0.6" d="M11.8944 42.8574C11.9815 43.7285 11.2846 44.4254 10.5006 44.2511C9.62954 44.164 8.93268 43.7285 8.58425 43.8156C7.71317 43.9898 5.53547 44.6867 5.09993 42.2477C5.01282 41.725 4.14174 39.5473 4.05463 36.3243C3.96752 33.0142 3.7062 28.9201 4.05463 27.7006C4.57728 25.6971 5.79679 23.0839 7.88739 22.9097C8.14871 22.9097 8.41003 22.9968 8.58425 23.2581C9.01979 23.6936 9.71666 24.9132 10.6748 28.1361C10.7329 28.2523 10.762 28.3975 10.762 28.5717C10.6748 30.0525 10.6748 33.7982 10.762 36.4114C10.762 36.4695 10.762 36.5276 10.762 36.5856C10.762 36.5856 10.762 36.6147 10.762 36.6727C10.762 36.7308 10.762 36.7889 10.762 36.847C10.8491 40.1571 11.8944 42.4219 11.8944 42.8574Z" fill="white"/>
<path d="M11.8944 42.8574C11.9815 43.7285 11.2846 44.4253 10.5006 44.2511C9.62954 44.164 8.93268 43.7285 8.58425 43.8156C7.71317 43.9898 5.53547 44.6867 5.09993 42.2477C5.01282 41.725 4.14174 39.5473 4.05463 36.3243C3.96752 33.0142 3.7062 28.9201 4.05463 27.7006C4.57728 25.6971 5.79679 23.0839 7.88739 22.9097C8.14871 22.9097 8.41003 22.9968 8.58425 23.2581C9.01979 23.6936 9.71666 24.9132 10.6748 28.1361C10.7329 28.2523 10.7619 28.3975 10.7619 28.5717C10.6748 30.0525 10.6748 33.7982 10.7619 36.4114C10.7619 36.4695 10.7619 36.5276 10.7619 36.5856C10.7619 36.5856 10.7619 36.6147 10.7619 36.6727C10.7619 36.7308 10.7619 36.7889 10.7619 36.847C10.8491 40.1571 11.8944 42.4219 11.8944 42.8574V42.8574Z" stroke="#989898" stroke-width="0.8"/>
<path opacity="0.6" d="M110.674 37.1951C110.674 37.137 110.674 37.0499 110.674 36.9338C110.674 36.9338 110.674 36.9047 110.674 36.8467C110.674 36.7886 110.674 36.7305 110.674 36.6724C110.849 34.0592 110.761 30.4007 110.761 28.8327C110.761 28.7166 110.761 28.6004 110.761 28.4843C111.72 25.1742 112.504 23.9547 112.852 23.5191C113.026 23.3449 113.288 23.2578 113.549 23.2578C115.639 23.3449 116.946 25.9582 117.469 28.0488C117.73 29.2683 117.556 33.3623 117.469 36.5853C117.382 39.8954 116.423 41.986 116.336 42.5087C115.988 44.9477 113.81 44.338 112.939 44.1637C112.591 44.0766 111.807 44.4251 111.023 44.5993C110.152 44.7735 109.542 43.9895 109.629 43.2055C109.629 43.1475 109.629 43.1184 109.629 43.1184C109.629 42.77 110.587 40.4181 110.674 37.1951Z" fill="white"/>
<path d="M110.674 37.1951C110.674 37.137 110.674 37.0499 110.674 36.9338C110.674 36.9338 110.674 36.9047 110.674 36.8467C110.674 36.7886 110.674 36.7305 110.674 36.6724C110.849 34.0592 110.761 30.4007 110.761 28.8327C110.761 28.7166 110.761 28.6004 110.761 28.4843C111.72 25.1742 112.504 23.9547 112.852 23.5191C113.026 23.3449 113.288 23.2578 113.549 23.2578C115.639 23.3449 116.946 25.9582 117.469 28.0488C117.73 29.2683 117.556 33.3623 117.469 36.5853C117.382 39.8954 116.423 41.986 116.336 42.5087C115.988 44.9477 113.81 44.338 112.939 44.1637C112.591 44.0766 111.807 44.4251 111.023 44.5993C110.152 44.7735 109.542 43.9895 109.629 43.2055C109.629 43.1475 109.629 43.1184 109.629 43.1184C109.629 42.77 110.587 40.4181 110.674 37.1951V37.1951Z" stroke="#989898" stroke-width="0.8"/>
<path d="M104.402 19.1642C112.765 19.1642 119.821 18.8157 120.43 27.1781L120.517 27.6136C120.517 27.6717 120.517 27.7588 120.517 27.875C120.43 29.53 117.991 29.4429 117.904 27.7879C117.904 26.9168 117.904 26.2199 117.817 25.8715C117.207 23.9551 115.988 21.5161 113.81 21.429C113.636 21.429 113.375 21.5161 113.2 21.6903C112.765 22.1258 112.068 23.084 111.197 25.6973C111.197 25.7844 111.023 25.9586 110.936 25.9586C110.587 25.9586 110.413 25.7844 110.413 25.6102C110.326 24.5649 110.239 22.7356 109.716 22.3001C109.542 22.213 109.368 22.1258 109.28 22.213C108.845 22.3872 107.887 23.1711 106.754 26.3941C106.754 26.5683 106.58 26.6555 106.406 26.6555C106.145 26.7426 105.883 26.5683 105.883 26.307C105.883 25.1746 105.709 22.9098 104.228 22.7356C104.228 22.7356 104.199 22.7356 104.141 22.7356C103.793 22.7356 100.047 22.9098 96.4756 32.3175C96.4756 32.3756 96.4756 32.4046 96.4756 32.4046C96.3885 32.4917 96.1272 33.1015 95.7787 33.9725C95.6916 34.2339 95.4303 34.4081 95.169 34.4081H94.6463C94.2979 34.4081 94.0366 34.1467 93.9494 33.7983C93.7752 30.5753 93.1655 28.5718 92.9913 28.1363C92.817 27.7879 91.4233 25.5231 89.4198 25.6973C88.723 25.7844 83.0609 27.7008 81.3188 33.4499C81.2607 33.566 81.2317 33.7112 81.2317 33.8854C81.1446 34.1467 80.8832 34.4081 80.5348 34.4081H80.3606C80.0122 34.4081 79.7508 34.1467 79.7508 33.7983C79.4024 31.3593 78.9669 29.7913 78.7055 29.0074C78.27 27.7879 75.6568 23.1711 72.8693 23.1711C70.7787 23.1711 68.601 23.9551 65.2909 27.091C63.4616 28.8332 62.155 31.0109 61.4582 33.8854C61.371 34.2339 61.1097 34.4081 60.7613 34.4081C60.5 34.4081 60.1515 34.1467 60.1515 33.8854C59.4547 30.9237 58.148 28.746 56.2317 26.9168C52.9216 23.7809 50.7439 22.9098 48.6533 22.9098C45.9529 22.9098 43.2526 27.6136 42.817 28.8332C42.5557 29.7042 42.1202 31.2722 41.7717 33.7983C41.7717 34.1467 41.5104 34.4081 41.0749 34.4081C40.7264 34.4081 40.4651 34.1467 40.378 33.8854C40.3199 33.5951 40.2619 33.3918 40.2038 33.2757C38.4616 27.5265 32.7996 25.6102 32.1899 25.5231C30.0993 25.3488 28.7055 27.6136 28.5313 27.9621C28.3571 28.3976 27.7474 30.4011 27.5731 33.7983C27.5731 34.1467 27.2247 34.4081 26.8763 34.4081H26.4407C26.1794 34.4081 25.9181 34.2339 25.831 33.9725C25.4825 33.0143 25.1341 32.3175 25.1341 32.2304C25.1341 32.1723 25.1051 32.1433 25.047 32.1433C21.4756 22.6485 17.7299 22.5614 17.3815 22.5614C17.3815 22.5614 17.3525 22.5614 17.2944 22.5614C15.4651 22.7356 15.6393 26.4812 15.6393 26.6555C15.6393 26.7135 15.6393 26.7716 15.6393 26.8297L15.1167 26.7426C14.9425 26.7426 14.8554 26.5683 14.7683 26.4812C13.6359 22.9969 12.6777 22.2129 12.2421 22.0387C12.0679 22.0387 11.8937 22.0387 11.8066 22.1258C11.1968 22.6485 11.1097 24.652 11.1097 25.6102C11.1097 25.8715 10.8484 26.0457 10.5871 26.0457L10.4129 25.9586C9.45467 22.9969 8.6707 21.8645 8.23516 21.429C8.06094 21.2548 7.88673 21.1677 7.6254 21.1677C5.4477 21.2548 4.22819 23.6938 3.70554 25.6102C3.44422 26.4812 3.53132 29.1816 3.61843 31.7948C3.61843 32.3175 2.83446 32.6659 2.39892 32.2304C1.17941 31.0109 0.482544 29.3558 0.482544 27.6136C1.00519 19.1642 7.97383 19.4255 16.5104 19.3384L104.402 19.1642Z" fill="#FFF3FA" stroke="#989898" stroke-width="0.8"/>
<path opacity="0.8" d="M16.0752 15.5052V14.8083C15.8139 14.6341 15.5526 14.3728 15.6397 14.0244C15.6397 13.6759 15.901 13.4146 16.1623 13.3275L16.2494 12.6306C15.9881 12.4564 15.7268 12.1951 15.8139 11.8467C15.8139 11.5853 16.0752 11.324 16.3365 11.2369V10.4529C16.0752 10.3658 15.901 10.1045 15.901 9.75606C15.901 9.40763 16.1623 9.1463 16.4236 9.0592L16.5107 8.36233C16.1623 8.27523 15.9881 7.92679 15.9881 7.57836C15.9881 7.22993 16.2494 6.9686 16.5979 6.8815V6.18463C16.3365 6.09752 16.1623 5.8362 16.1623 5.48777C16.1623 5.13933 16.4236 4.87801 16.7721 4.7909C16.9463 4.18115 17.2076 3.74561 17.6432 3.74561H20.0822C20.5177 3.74561 20.8662 4.26825 21.0404 5.05223C21.3888 5.13933 21.6501 5.48777 21.6501 5.8362C21.6501 6.18463 21.3888 6.44595 21.1275 6.53306V7.22993C21.4759 7.22993 21.8243 7.57836 21.7372 8.0139C21.7372 8.36233 21.4759 8.62365 21.2146 8.71076V9.32052C21.6501 9.40763 21.9114 9.75606 21.9114 10.1916C21.8243 10.4529 21.6501 10.8014 21.3017 10.8014V11.4982C21.7372 11.5853 21.9986 11.9338 21.9986 12.2822C21.9986 12.6306 21.7372 12.8919 21.3888 12.9791L21.4759 13.6759C21.8243 13.763 22.0857 14.1115 22.0857 14.4599C22.0857 14.8083 21.8243 15.0696 21.4759 15.1568L21.563 15.8536C21.9114 15.8536 22.2599 16.2021 22.1728 16.6376C22.1728 16.986 21.9114 17.2473 21.563 17.3345C21.563 18.2055 21.2146 18.9895 20.6919 18.9895H16.8592C16.3365 18.9895 15.901 18.0313 15.9881 16.986V16.8989C15.6397 16.8118 15.4655 16.4634 15.4655 16.1149C15.5526 15.7665 15.7268 15.5052 16.0752 15.5052Z" fill="#808080"/>
<path opacity="0.8" d="M38.6351 14.6344L38.7222 13.7634C38.2866 13.5891 38.0253 13.2407 38.0253 12.8052C38.1124 12.3696 38.3737 12.0212 38.8093 11.9341V11.063C38.4608 10.8888 38.2866 10.5404 38.2866 10.1919C38.2866 9.75639 38.6351 9.40796 38.9835 9.32085V8.44977C38.6351 8.27555 38.4609 7.92712 38.4609 7.49158C38.4609 7.05604 38.7222 6.79472 39.1577 6.70761V5.74942C38.8093 5.66232 38.4609 5.31388 38.548 4.79123C38.548 4.4428 38.8964 4.09437 39.2448 4.00726L39.3319 3.13618C38.9835 2.96197 38.7222 2.61353 38.7222 2.17799C38.8093 1.74245 39.0706 1.39402 39.5061 1.30691C39.6804 0.610048 40.1159 0.0874023 40.5514 0.0874023H43.6873C44.21 0.0874023 44.6455 0.697158 44.7326 1.65535C45.2553 1.74245 45.6037 2.17799 45.5166 2.70064C45.5166 3.04907 45.2553 3.39751 44.9068 3.48461V4.35569C45.4295 4.4428 45.7779 4.87834 45.6908 5.31388C45.6908 5.74942 45.4295 6.09786 44.994 6.18496L45.0811 7.05604C45.5166 7.05604 45.865 7.49158 45.865 8.01423C45.865 8.44977 45.5166 8.7982 45.1682 8.88531V9.66928C45.6908 9.75639 46.0392 10.1919 46.0392 10.7146C45.9521 11.1501 45.6908 11.4985 45.2553 11.5857L45.3424 12.3696C45.7779 12.4567 46.1264 12.8923 46.1264 13.3278C46.0392 13.7634 45.7779 14.1118 45.4295 14.1989V15.07C45.9521 15.1571 46.3006 15.5055 46.2135 16.0282C46.2135 16.4637 45.9521 16.8121 45.5166 16.8992C45.5166 18.0317 44.9939 18.9898 44.3842 18.9898H39.6804C38.9835 18.9898 38.4609 17.8574 38.548 16.4637V16.3766C38.1124 16.2895 37.8511 15.854 37.9382 15.4184C37.9382 15.07 38.2866 14.7215 38.6351 14.6344Z" fill="#808080"/>
<path opacity="0.8" d="M78.1834 14.547L78.2705 13.676C77.835 13.5889 77.5736 13.1533 77.6608 12.7178C77.6608 12.3693 77.9221 12.0209 78.3576 11.9338L78.4447 11.0627C78.0963 10.8885 77.835 10.5401 77.835 10.1045C77.835 9.7561 78.1834 9.40767 78.5318 9.32056V8.36237C78.1834 8.18816 78.0092 7.83972 78.0092 7.49129C78.0092 7.05575 78.2705 6.70732 78.706 6.62021V5.74913C78.3576 5.66202 78.0092 5.22648 78.0963 4.79094C78.0963 4.3554 78.4447 4.00697 78.7932 3.91986L78.8803 3.04878C78.5318 2.96167 78.2705 2.52613 78.2705 2.1777C78.3576 1.74216 78.6189 1.39373 79.0545 1.30662C79.2287 0.522648 79.6642 0 80.0998 0H83.2357C83.7583 0 84.1939 0.696865 84.3681 1.65505C84.8036 1.74216 85.152 2.09059 85.152 2.61324C85.0649 3.04878 84.8036 3.3101 84.4552 3.48432V4.26829C84.9778 4.3554 85.3263 4.79094 85.2391 5.31359C85.2391 5.74913 84.9778 6.01045 84.5423 6.09756L84.6294 6.96864C85.0649 7.05575 85.4134 7.49129 85.4134 8.01394C85.4134 8.36237 85.0649 8.7108 84.7165 8.79791V9.66899C85.2391 9.7561 85.5876 10.1916 85.5876 10.6272C85.5005 11.0627 85.2391 11.4112 84.8036 11.4983L84.8907 12.3693C85.3263 12.4564 85.6747 12.8049 85.6747 13.3275C85.5876 13.7631 85.3263 14.0244 84.9778 14.1986V14.9826C85.5005 15.0697 85.8489 15.5052 85.7618 16.0279C85.7618 16.4634 85.5005 16.7247 85.0649 16.8118C85.0649 18.0314 84.5423 18.9895 83.9325 18.9895H79.2287C78.5318 18.9895 78.0092 17.77 78.0963 16.4634V16.3763C77.6608 16.2021 77.3994 15.8537 77.4865 15.4181C77.4865 14.9826 77.835 14.6341 78.1834 14.547Z" fill="#808080"/>
<path opacity="0.8" d="M103.88 15.4178V14.7209C103.619 14.5467 103.358 14.2854 103.358 13.937C103.445 13.5885 103.706 13.3272 103.967 13.2401L104.055 12.5432C103.706 12.4561 103.532 12.1077 103.619 11.8464C103.619 11.4979 103.793 11.2366 104.142 11.1495V10.3655C103.88 10.2784 103.706 10.0171 103.706 9.66866C103.706 9.32023 103.967 9.0589 104.229 8.97179L104.316 8.27493C103.967 8.18782 103.706 7.83939 103.793 7.49096C103.793 7.14253 104.055 6.8812 104.403 6.79409V6.09723C104.142 6.01012 103.967 5.7488 103.967 5.40036C103.967 5.05193 104.229 4.79061 104.577 4.7035C104.664 4.09374 105.013 3.6582 105.361 3.6582H107.887C108.323 3.6582 108.671 4.18085 108.758 4.96482C109.194 5.05193 109.455 5.40036 109.455 5.7488C109.368 6.09723 109.194 6.35855 108.846 6.44566L108.933 7.14252C109.281 7.22963 109.542 7.49096 109.542 7.9265C109.542 8.27493 109.281 8.53625 109.02 8.62336V9.32022C109.368 9.32022 109.717 9.66866 109.63 10.1042C109.63 10.4526 109.368 10.714 109.107 10.8011V11.4108C109.542 11.4979 109.804 11.8464 109.804 12.2819C109.804 12.5432 109.542 12.8917 109.194 12.8917V13.5885C109.63 13.6756 109.891 14.0241 109.891 14.3725C109.804 14.7209 109.63 14.9822 109.281 15.0694L109.368 15.7662C109.717 15.7662 109.978 16.1147 109.978 16.5502C109.978 16.8986 109.717 17.1599 109.368 17.2471C109.368 18.2052 108.933 18.9021 108.497 18.9021H104.664C104.142 18.9021 103.706 17.9439 103.793 16.8986V16.8115C103.445 16.7244 103.271 16.376 103.271 16.0275C103.271 15.7662 103.532 15.5049 103.88 15.4178Z" fill="#808080"/>
</svg>
