<svg width="92" height="51" viewBox="0 0 92 51" fill="none" xmlns="http://www.w3.org/2000/svg">
<path opacity="0.6" d="M30.4437 48.2621C30.4437 48.6758 30.1954 49.0896 29.699 49.0896C25.1479 49.8343 20.6797 38.0844 19.1902 28.0721C18.0318 20.294 16.6251 14.9983 16.6251 8.29587C16.6251 3.6621 19.4385 2.00718 22.5001 1.84169C25.5617 1.6762 29.6162 3.6621 31.9331 3.6621C33.588 3.6621 35.5739 1.34521 39.794 1.34521C44.0967 1.34521 46.5791 3.91034 46.5791 7.55115C46.7446 14.9983 45.2552 19.3838 43.5175 26.6654C41.1179 36.4294 39.3802 49.7515 34.7465 49.255C33.919 49.0896 33.3398 48.3448 33.4225 47.5174C33.588 44.8695 33.4225 32.3749 33.4225 32.3749C33.4225 23.5211 32.5123 25.4242 31.4366 25.4242C30.4437 25.4242 29.6162 23.7693 29.6162 32.6231C29.6162 32.6231 30.1127 45.4487 30.4437 48.2621Z" fill="white"/>
<path d="M30.4437 48.2621C30.4437 48.6758 30.1954 49.0896 29.699 49.0896C25.1479 49.8343 20.6797 38.0844 19.1902 28.0721C18.0318 20.294 16.6251 14.9983 16.6251 8.29587C16.6251 3.6621 19.4385 2.00718 22.5001 1.84169C25.5617 1.6762 29.6162 3.6621 31.9331 3.6621C33.588 3.6621 35.5739 1.34521 39.794 1.34521C44.0967 1.34521 46.5791 3.91034 46.5791 7.55115C46.7446 14.9983 45.2552 19.3838 43.5175 26.6654C41.1179 36.4294 39.3802 49.7515 34.7465 49.255C33.919 49.0896 33.3398 48.3448 33.4225 47.5174C33.588 44.8695 33.4225 32.3749 33.4225 32.3749C33.4225 23.5211 32.5123 25.4242 31.4366 25.4242C30.4437 25.4242 29.6162 23.7693 29.6162 32.6231C29.6162 32.6231 30.1127 45.4487 30.4437 48.2621V48.2621Z" stroke="#989898" stroke-width="0.8"/>
<path opacity="0.6" d="M60.977 48.2621C61.0597 48.6758 60.7288 49.0896 60.315 49.1723C55.764 49.8343 51.2957 38.0844 49.8063 28.0721C48.6479 20.294 47.1584 14.9983 47.1584 8.29587C47.1584 3.6621 50.0545 2.00718 53.1161 1.84169C56.1777 1.6762 60.2323 3.6621 62.5492 3.6621C64.2041 3.6621 66.1072 1.34521 70.41 1.34521C74.7128 1.34521 77.1124 3.91034 77.1952 7.55115C77.2779 14.9983 75.8712 19.3838 74.0508 26.6654C71.734 36.4294 69.9135 49.7515 65.3625 49.255C64.5351 49.0896 63.8731 48.3448 63.9559 47.5174C64.2041 44.8695 64.0386 32.3749 64.0386 32.3749C64.0386 23.5211 62.9629 26.5827 61.9699 26.5827C60.8942 26.5827 60.2323 23.7693 60.2323 32.6231C60.2323 32.6231 60.7288 45.4487 60.977 48.2621Z" fill="white"/>
<path d="M60.977 48.2621C61.0597 48.6758 60.7288 49.0896 60.315 49.1723C55.764 49.8343 51.2957 38.0844 49.8063 28.0721C48.6479 20.294 47.1584 14.9983 47.1584 8.29587C47.1584 3.6621 50.0545 2.00718 53.1161 1.84169C56.1777 1.6762 60.2323 3.6621 62.5492 3.6621C64.2041 3.6621 66.1072 1.34521 70.41 1.34521C74.7128 1.34521 77.1124 3.91034 77.1952 7.55115C77.2779 14.9983 75.8712 19.3838 74.0508 26.6654C71.734 36.4294 69.9135 49.7515 65.3625 49.255C64.5351 49.0896 63.8731 48.3448 63.9559 47.5174C64.2041 44.8695 64.0386 32.3749 64.0386 32.3749C64.0386 23.5211 62.9629 26.5827 61.9699 26.5827C60.8942 26.5827 60.2323 23.7693 60.2323 32.6231C60.2323 32.6231 60.7288 45.4487 60.977 48.2621V48.2621Z" stroke="#989898" stroke-width="0.8"/>
<path d="M86.711 29.2308C87.8695 29.3963 88.6142 30.0582 88.6142 30.7202V46.4419C88.6142 47.2694 87.4557 47.9313 85.9663 47.9313H4.54441C3.05499 47.9313 1.89655 47.2694 1.89655 46.4419V30.8857C1.89655 30.141 2.80675 29.5618 4.04794 29.3963C8.35072 28.9825 12.0743 27.4931 14.3912 25.4245C15.4669 24.4315 17.8665 24.5143 18.8594 25.4245C21.5073 27.9896 26.2238 29.6445 31.6023 29.6445C36.898 29.6445 41.5318 27.9896 44.1797 25.59C45.1726 24.6798 47.5722 24.6798 48.5652 25.59C51.2131 28.0723 55.8468 29.6445 61.2253 29.6445C66.3555 29.6445 70.9893 28.1551 73.6372 25.7555C74.6301 24.8452 76.947 24.8452 78.0227 25.7555C80.0086 27.4104 83.0702 28.7343 86.711 29.2308Z" fill="#EBEBEB" stroke="#808080" stroke-width="0.5"/>
<path d="M91.0137 31.1338V47.683C91.0137 48.9241 89.7725 49.9998 88.2831 49.9998H3.79962C2.22745 49.9998 0.986267 48.9241 0.986267 47.683V31.1338H91.0137Z" fill="#FFF3FA" stroke="#989898" stroke-width="0.8"/>
<path opacity="0.7" d="M91.0137 37.5882C91.0137 38.6639 90.1863 39.5741 89.0278 39.8223C85.3043 40.567 82.1599 42.3874 80.0085 44.9526C78.9328 46.2765 76.5332 46.1938 75.4575 44.8698C72.7269 41.3945 68.0104 39.1604 62.5492 39.1604C57.0879 39.1604 52.2059 41.56 49.4753 45.1181C48.4824 46.5247 45.9172 46.5247 44.9243 45.1181C42.1937 41.56 37.3117 39.2431 31.8505 39.2431C26.2237 39.2431 21.3417 41.6427 18.6939 45.3663C17.6182 46.773 15.1358 46.773 13.9774 45.3663C11.5777 42.3874 7.68868 40.2361 3.2204 39.4913C1.97922 39.3258 0.986267 38.4156 0.986267 37.34V31.0513H91.0137V37.5882Z" fill="#FFE6F5" stroke="#989898" stroke-width="0.8"/>
<path d="M45.7518 22.1974C46.3311 22.4456 52.7852 25.5072 56.1778 26.1692C59.4049 26.7484 63.4595 26.7484 64.7834 24.597C67.0175 20.9562 77.1953 3.74508 79.1812 0.352506C79.3466 0.104269 79.6776 -0.061221 80.0086 0.0215248C80.5878 0.104271 80.9188 0.766237 80.5878 1.26271C77.8572 5.81373 66.9348 24.6798 66.1073 25.6727C65.1971 26.6657 63.7904 27.4931 62.4665 27.7414C60.5633 28.0724 58.9084 28.2378 56.0951 27.4931C53.53 26.9139 46.3311 23.2731 46.0828 23.1076C45.5036 22.7766 45.0899 21.8664 45.7518 22.1974Z" fill="#808080"/>
</svg>
