<svg width="95" height="52" viewBox="0 0 95 52" fill="none" xmlns="http://www.w3.org/2000/svg">
<path opacity="0.8" d="M30.6667 25.4165L30.5833 26.5832C31.0833 26.7498 31.4167 27.2498 31.4167 27.8332C31.3333 28.4165 30.9167 28.8332 30.4167 28.9998L30.3333 30.1665C30.8333 30.3332 31.1667 30.8332 31.0833 31.4165C31.0833 31.9165 30.6667 32.4165 30.1667 32.4998V33.7498C30.5833 33.9998 30.9167 34.4998 30.9167 34.9998C30.8333 35.5832 30.5 35.9998 30 36.1665L29.9167 37.3332C30.5 37.4998 30.8333 37.9998 30.8333 38.5832C30.75 39.1665 30.3333 39.6665 29.75 39.7498L29.6667 40.9165C30.1667 41.1665 30.5 41.6665 30.5 42.1665C30.4167 42.7498 30 43.2498 29.5 43.3332C29.25 44.4165 28.6667 45.0832 28.0833 45.0832H23.8333C23.1667 45.0832 22.5 44.1665 22.3333 42.9165C21.6667 42.7498 21.25 42.2498 21.25 41.5832C21.3333 40.9998 21.6667 40.5832 22.1667 40.4165V39.2498C21.5 39.1665 21 38.5832 21.0833 37.9165C21.0833 37.4165 21.5 36.9165 22 36.8332L21.9167 35.6665C21.3333 35.5832 20.8333 34.9998 20.8333 34.3332C20.9167 33.7498 21.3333 33.2498 21.8333 33.1665L21.75 31.9998C21.0833 31.9165 20.5833 31.3332 20.6667 30.6665C20.6667 30.0832 21.0833 29.6665 21.6667 29.4998L21.5833 28.4165C21 28.3332 20.5 27.7498 20.5833 27.0832C20.5833 26.4998 21 26.0832 21.5 25.9165L21.4167 24.7498C20.75 24.6665 20.3333 24.0832 20.3333 23.4165C20.4167 22.8332 20.8333 22.4165 21.3333 22.3332C21.3333 20.7498 22.0833 19.4165 22.9167 19.4165H29.25C30.1667 19.4165 30.9167 20.9998 30.8333 22.8332L30.75 22.9998C31.3333 23.1665 31.6667 23.6665 31.5833 24.2498C31.5833 24.8332 31.1667 25.2498 30.6667 25.4165Z" fill="#808080"/>
<path opacity="0.6" d="M51.5 14.75L45.1667 14.5833C44.25 14.5833 43.6667 14.5833 43.1667 13.9167C42 12.4167 39.5 12.75 38.0833 10.3333C37.6667 9.66667 36.75 9.66667 36.4167 10.3333C34.75 13.4167 31.5833 14.1667 30.8333 17.25C30.7222 17.6389 30.5556 17.9722 30.3333 18.25C30.0833 18.6667 29.5833 18.8333 29.0833 18.8333H23.25C22.6667 18.8333 22.0833 18.5833 21.8333 18C21.6667 17.7222 21.5556 17.4167 21.5 17.0833C20.5833 13.1667 14.8333 13.4167 14.75 6.33333C14.75 2.83333 16.9167 1.25 19.25 1.08333C21.5 1 24.5833 2.83333 26.3333 2.83333C27.5833 2.83333 29.0833 1.08333 32.25 1.08333C34.0833 1.08333 35.5 1.75 36.3333 2.75C36.75 3.25 37.5 3.25 37.9167 2.66667C38.75 1.58333 40.0833 1.16667 41.4167 1.08333C43.75 0.916667 46.6667 2.5 48.4167 2.5C49.6667 2.5 51.0833 1 54.3333 1C56.4167 1 58 1.5 58.8333 2.66667C59.1667 3.25 59.9167 3.33333 60.4167 2.91667C61.25 1.91667 62.4167 1.08333 63.75 1.08333C66 0.916667 69.0833 2.83333 70.8333 2.83333C72.0833 2.83333 73.5 1.08333 76.75 1.08333C80 1.08333 81.9167 3 81.9167 5.75C81.9167 13.25 76.4167 13.0833 75.25 17.25C75.1944 17.6389 75.0556 17.9722 74.8333 18.25C74.5833 18.6667 74.0833 18.8333 73.5833 18.8333H67.75C67.1667 18.8333 66.5833 18.5833 66.3333 18C66.1667 17.7222 66.0555 17.4167 66 17.0833C65.25 14.0833 61.8333 13.5 60.1667 10.3333C59.8333 9.66667 58.8333 9.58333 58.4167 10.25C57 12.75 54.3333 11.9167 53.1667 13.75C52.8333 14.3333 52.25 14.75 51.5 14.75Z" fill="white"/>
<path d="M51.5 14.75L45.1667 14.5833C44.25 14.5833 43.6667 14.5833 43.1667 13.9167C42 12.4167 39.5 12.75 38.0833 10.3333C37.6667 9.66667 36.75 9.66667 36.4167 10.3333C34.75 13.4167 31.5833 14.1667 30.8333 17.25C30.7222 17.6389 30.5556 17.9722 30.3333 18.25C30.0833 18.6667 29.5833 18.8333 29.0833 18.8333H23.25C22.6667 18.8333 22.0833 18.5833 21.8333 18C21.6667 17.7222 21.5556 17.4167 21.5 17.0833C20.5833 13.1667 14.8333 13.4167 14.75 6.33333C14.75 2.83333 16.9167 1.25 19.25 1.08333C21.5 1 24.5833 2.83333 26.3333 2.83333C27.5833 2.83333 29.0833 1.08333 32.25 1.08333C34.0833 1.08333 35.5 1.75 36.3333 2.75C36.75 3.25 37.5 3.25 37.9167 2.66667C38.75 1.58333 40.0833 1.16667 41.4167 1.08333C43.75 0.916667 46.6667 2.5 48.4167 2.5C49.6667 2.5 51.0833 1 54.3333 1C56.4167 1 58 1.5 58.8333 2.66667C59.1667 3.25 59.9167 3.33333 60.4167 2.91667C61.25 1.91667 62.4167 1.08333 63.75 1.08333C66 0.916667 69.0833 2.83333 70.8333 2.83333C72.0833 2.83333 73.5 1.08333 76.75 1.08333C80 1.08333 81.9167 3 81.9167 5.75C81.9167 13.25 76.4167 13.0833 75.25 17.25C75.1944 17.6389 75.0556 17.9722 74.8333 18.25C74.5833 18.6667 74.0833 18.8333 73.5833 18.8333H67.75C67.1667 18.8333 66.5833 18.5833 66.3333 18C66.1667 17.7222 66.0555 17.4167 66 17.0833C65.25 14.0833 61.8333 13.5 60.1667 10.3333C59.8333 9.66667 58.8333 9.58333 58.4167 10.25C57 12.75 54.3333 11.9167 53.1667 13.75C52.8333 14.3333 52.25 14.75 51.5 14.75V14.75Z" stroke="#989898" stroke-width="0.8"/>
<path opacity="0.8" d="M75.0833 25.4165V26.5832C75.5833 26.7498 75.9167 27.2498 75.9167 27.8332C75.8333 28.4165 75.4167 28.8332 74.9167 28.9998L74.8333 30.1665C75.3333 30.3332 75.6667 30.8332 75.5833 31.4165C75.5833 31.9165 75.1667 32.4165 74.6667 32.4998L74.5833 33.7498C75.0833 33.9998 75.4167 34.4998 75.4167 34.9998C75.3333 35.5832 75 35.9998 74.5 36.1665L74.4167 37.3332C74.9167 37.4998 75.3333 37.9998 75.25 38.5832C75.25 39.1665 74.8333 39.6665 74.25 39.7498L74.1667 40.9165C74.6667 41.1665 75 41.6665 75 42.1665C74.9167 42.7498 74.5 43.2498 73.9167 43.3332C73.6667 44.4165 73.1667 45.0832 72.5 45.0832H68.3333C67.5833 45.0832 67 44.1665 66.8333 42.9165C66.1667 42.7498 65.75 42.2498 65.75 41.5832C65.8333 40.9998 66.1667 40.5832 66.6667 40.4165L66.5833 39.2498C66 39.1665 65.5 38.5832 65.5833 37.9165C65.5833 37.4165 66 36.9165 66.5 36.8332L66.4167 35.6665C65.75 35.5832 65.3333 34.9998 65.3333 34.3332C65.4167 33.7498 65.8333 33.2498 66.3333 33.1665L66.25 31.9998C65.5833 31.9165 65.0833 31.3332 65.1667 30.6665C65.1667 30.0832 65.5833 29.6665 66.1667 29.4998L66.0833 28.4165C65.4167 28.3332 65 27.7498 65 27.0832C65.0833 26.4998 65.5 26.0832 66 25.9165L65.9167 24.7498C65.25 24.6665 64.75 24.0832 64.8333 23.4165C64.8333 22.8332 65.25 22.4165 65.8333 22.3332C65.8333 20.7498 66.5 19.4165 67.3333 19.4165H73.75C74.6667 19.4165 75.4167 20.9998 75.25 22.8332V22.9998C75.75 23.1665 76.1667 23.6665 76.0833 24.2498C76.0833 24.8332 75.6667 25.2498 75.0833 25.4165Z" fill="#808080"/>
<path opacity="0.6" d="M93.75 26.7502V45.2502C93.75 48.4168 91.1667 51.0002 88.0833 51.0002H43.5833H42.25H6.91667C3.75 51.0002 1.25 48.4168 1.25 45.2502V26.7502C1.25 23.5835 3.75 21.0835 6.91667 21.0835H20.3333C20.2222 21.3057 20.1667 21.5557 20.1667 21.8335C20.0833 22.0835 19.9167 22.3335 19.75 22.4168C19.25 22.5835 18.9167 23.0002 18.8333 23.4168C18.8333 24.0002 19.25 24.5002 19.8333 24.6668C20.0833 24.7502 20.25 25.0002 20.25 25.2502V25.4168C20.3333 25.6668 20.0833 26.0002 19.8333 26.0835C19.4167 26.3335 19.1667 26.6668 19.1667 27.0835C19.0833 27.5835 19.4167 28.0835 20 28.3335C20.25 28.4168 20.5 28.6668 20.5 28.9168V29.0002C20.5 29.2502 20.3333 29.5835 20.0833 29.6668C19.5833 29.8335 19.3333 30.2502 19.25 30.6668C19.25 31.2502 19.5833 31.7502 20.25 31.9168C20.5 32.0002 20.6667 32.2502 20.75 32.5002V32.5835C20.75 32.9168 20.5833 33.1668 20.25 33.3335C19.8333 33.5002 19.5833 33.9168 19.5 34.3335C19.5 34.8335 19.8333 35.3335 20.5 35.5835C20.75 35.6668 20.9167 35.8335 20.9167 36.1668V36.2502C20.9167 36.5835 20.75 36.8335 20.5 36.9168C20.0833 37.1668 19.8333 37.5002 19.75 37.9168C19.75 38.5002 20.0833 38.9168 20.6667 39.1668C20.9167 39.2502 21.1667 39.5002 21.1667 39.7502V39.9168C21.1667 40.1668 21 40.5002 20.75 40.5835C20.3333 40.8335 20.0833 41.1668 20.0833 41.5835C20 42.0835 20.4167 42.5835 21 42.8335C21.25 42.9168 21.4167 43.0835 21.5 43.3335C21.75 44.5002 22.5 45.8335 23.25 45.8335H28.5833C29.3333 45.8335 29.9167 44.6668 30.25 43.6668C30.3333 43.5002 30.5 43.3335 30.6667 43.2502C31.25 43.0835 31.5833 42.6668 31.6667 42.1668C31.6667 41.7502 31.4167 41.3335 31.0833 41.0835C30.8333 41.0002 30.6667 40.7502 30.6667 40.5002L30.75 40.2502C30.75 40.0002 30.9167 39.7502 31.1667 39.6668C31.6667 39.5002 32 39.0835 32.0833 38.5835C32.0833 38.1668 31.8333 37.7502 31.3333 37.5002C31.0833 37.3335 31 37.0835 31 36.8335V36.5835C31 36.3335 31.1667 36.0835 31.4167 36.0002C31.8333 35.8335 32.1667 35.4168 32.1667 35.0002C32.25 34.5835 32 34.1668 31.5833 33.9168C31.3333 33.8335 31.25 33.5835 31.25 33.2502V33.0002C31.3333 32.7502 31.4167 32.5002 31.6667 32.4168C32.0833 32.1668 32.4167 31.8335 32.4167 31.4168C32.5 31.0002 32.25 30.5835 31.8333 30.3335C31.6667 30.1668 31.5 29.9168 31.5 29.6668L31.5833 29.4168C31.5833 29.1668 31.75 29.0002 32 28.8335C32.4167 28.6668 32.75 28.2502 32.8333 27.8335C32.8333 27.3335 32.5833 27.0002 32.1667 26.7502C31.9167 26.5835 31.75 26.3335 31.8333 26.0002V25.8335C31.8333 25.5835 32 25.3335 32.25 25.2502C32.75 25.0835 33.0833 24.6668 33.0833 24.2502C33.1667 23.6668 32.6667 23.1668 32 23.0002L32.0833 22.8335C32.0833 22.1668 32 21.5835 31.8333 21.0835H42.25H43.5833H64.8333C64.7222 21.3057 64.6667 21.5557 64.6667 21.8335C64.5833 22.0835 64.4167 22.3335 64.1667 22.4168C63.75 22.5835 63.4167 23.0002 63.3333 23.4168C63.3333 24.0002 63.6667 24.5002 64.25 24.6668C64.5833 24.7502 64.75 25.0002 64.75 25.2502V25.4168C64.75 25.6668 64.5833 26.0002 64.3333 26.0835C63.9167 26.3335 63.6667 26.6668 63.5833 27.0835C63.5833 27.5835 63.9167 28.0835 64.5 28.3335C64.75 28.4168 64.9167 28.6668 65 28.9168V29.0002C65 29.2502 64.8333 29.5835 64.5833 29.6668C64.0833 29.8335 63.75 30.2502 63.75 30.6668C63.6667 31.2502 64.0833 31.7502 64.75 31.9168C65 32.0002 65.1667 32.2502 65.1667 32.5002V32.5835C65.25 32.9168 65 33.1668 64.75 33.3335C64.3333 33.5002 64 33.9168 64 34.3335C63.9167 34.8335 64.3333 35.3335 64.9167 35.5835C65.1667 35.6668 65.4167 35.8335 65.4167 36.1668V36.2502C65.4167 36.5835 65.25 36.8335 65 36.9168C64.5833 37.1668 64.3333 37.5002 64.25 37.9168C64.25 38.5002 64.5833 38.9168 65.1667 39.1668C65.4167 39.2502 65.5833 39.5002 65.6667 39.7502V39.9168C65.6667 40.1668 65.5 40.5002 65.25 40.5835C64.8333 40.8335 64.5833 41.1668 64.5 41.5835C64.5 42.0835 64.9167 42.5835 65.5 42.8335C65.75 42.9168 65.9167 43.0835 65.9167 43.3335C66.25 44.5002 66.9167 45.8335 67.75 45.8335H73.0833C73.75 45.8335 74.4167 44.6668 74.75 43.6668C74.8333 43.5002 75 43.3335 75.1667 43.2502C75.6667 43.0835 76.0833 42.6668 76.1667 42.1668C76.1667 41.7502 75.9167 41.3335 75.5 41.0835C75.3333 41.0002 75.1667 40.7502 75.1667 40.5002V40.2502C75.25 40.0002 75.4167 39.7502 75.6667 39.6668C76.1667 39.5002 76.5 39.0835 76.5 38.5835C76.5833 38.1668 76.3333 37.7502 75.8333 37.5002C75.5833 37.3335 75.4167 37.0835 75.5 36.8335V36.5835C75.5 36.3335 75.6667 36.0835 75.9167 36.0002C76.3333 35.8335 76.5833 35.4168 76.6667 35.0002C76.6667 34.5835 76.5 34.1668 76.0833 33.9168C75.8333 33.8335 75.75 33.5835 75.75 33.2502V33.0002C75.75 32.7502 75.9167 32.5002 76.1667 32.4168C76.5833 32.1668 76.9167 31.8335 76.9167 31.4168C77 31.0002 76.75 30.5835 76.3333 30.3335C76.0833 30.1668 76 29.9168 76 29.6668V29.4168C76.0833 29.1668 76.25 29.0002 76.5 28.8335C76.9167 28.6668 77.25 28.2502 77.3333 27.8335C77.3333 27.3335 77.0833 27.0002 76.6667 26.7502C76.4167 26.5835 76.25 26.3335 76.25 26.0002L76.3333 25.8335C76.3333 25.5835 76.5 25.3335 76.75 25.2502C77.1667 25.0835 77.5 24.6668 77.5833 24.2502C77.5833 23.6668 77.1667 23.1668 76.5 23.0002V22.8335C76.5833 22.1668 76.5 21.5835 76.3333 21.0835H88.0833C91.1667 21.0835 93.75 23.5835 93.75 26.7502Z" fill="white"/>
<path d="M93.75 26.7502V45.2502C93.75 48.4168 91.1667 51.0002 88.0833 51.0002H43.5833H42.25H6.91667C3.75 51.0002 1.25 48.4168 1.25 45.2502V26.7502C1.25 23.5835 3.75 21.0835 6.91667 21.0835H20.3333C20.2222 21.3057 20.1667 21.5557 20.1667 21.8335C20.0833 22.0835 19.9167 22.3335 19.75 22.4168C19.25 22.5835 18.9167 23.0002 18.8333 23.4168C18.8333 24.0002 19.25 24.5002 19.8333 24.6668C20.0833 24.7502 20.25 25.0002 20.25 25.2502V25.4168C20.3333 25.6668 20.0833 26.0002 19.8333 26.0835C19.4167 26.3335 19.1667 26.6668 19.1667 27.0835C19.0833 27.5835 19.4167 28.0835 20 28.3335C20.25 28.4168 20.5 28.6668 20.5 28.9168V29.0002C20.5 29.2502 20.3333 29.5835 20.0833 29.6668C19.5833 29.8335 19.3333 30.2502 19.25 30.6668C19.25 31.2502 19.5833 31.7502 20.25 31.9168C20.5 32.0002 20.6667 32.2502 20.75 32.5002V32.5835C20.75 32.9168 20.5833 33.1668 20.25 33.3335C19.8333 33.5002 19.5833 33.9168 19.5 34.3335C19.5 34.8335 19.8333 35.3335 20.5 35.5835C20.75 35.6668 20.9167 35.8335 20.9167 36.1668V36.2502C20.9167 36.5835 20.75 36.8335 20.5 36.9168C20.0833 37.1668 19.8333 37.5002 19.75 37.9168C19.75 38.5002 20.0833 38.9168 20.6667 39.1668C20.9167 39.2502 21.1667 39.5002 21.1667 39.7502V39.9168C21.1667 40.1668 21 40.5002 20.75 40.5835C20.3333 40.8335 20.0833 41.1668 20.0833 41.5835C20 42.0835 20.4167 42.5835 21 42.8335C21.25 42.9168 21.4167 43.0835 21.5 43.3335C21.75 44.5002 22.5 45.8335 23.25 45.8335H28.5833C29.3333 45.8335 29.9167 44.6668 30.25 43.6668C30.3333 43.5002 30.5 43.3335 30.6667 43.2502C31.25 43.0835 31.5833 42.6668 31.6667 42.1668C31.6667 41.7502 31.4167 41.3335 31.0833 41.0835C30.8333 41.0002 30.6667 40.7502 30.6667 40.5002L30.75 40.2502C30.75 40.0002 30.9167 39.7502 31.1667 39.6668C31.6667 39.5002 32 39.0835 32.0833 38.5835C32.0833 38.1668 31.8333 37.7502 31.3333 37.5002C31.0833 37.3335 31 37.0835 31 36.8335V36.5835C31 36.3335 31.1667 36.0835 31.4167 36.0002C31.8333 35.8335 32.1667 35.4168 32.1667 35.0002C32.25 34.5835 32 34.1668 31.5833 33.9168C31.3333 33.8335 31.25 33.5835 31.25 33.2502V33.0002C31.3333 32.7502 31.4167 32.5002 31.6667 32.4168C32.0833 32.1668 32.4167 31.8335 32.4167 31.4168C32.5 31.0002 32.25 30.5835 31.8333 30.3335C31.6667 30.1668 31.5 29.9168 31.5 29.6668L31.5833 29.4168C31.5833 29.1668 31.75 29.0002 32 28.8335C32.4167 28.6668 32.75 28.2502 32.8333 27.8335C32.8333 27.3335 32.5833 27.0002 32.1667 26.7502C31.9167 26.5835 31.75 26.3335 31.8333 26.0002V25.8335C31.8333 25.5835 32 25.3335 32.25 25.2502C32.75 25.0835 33.0833 24.6668 33.0833 24.2502C33.1667 23.6668 32.6667 23.1668 32 23.0002L32.0833 22.8335C32.0833 22.1668 32 21.5835 31.8333 21.0835H42.25H43.5833H64.8333C64.7222 21.3057 64.6667 21.5557 64.6667 21.8335C64.5833 22.0835 64.4167 22.3335 64.1667 22.4168C63.75 22.5835 63.4167 23.0002 63.3333 23.4168C63.3333 24.0002 63.6667 24.5002 64.25 24.6668C64.5833 24.7502 64.75 25.0002 64.75 25.2502V25.4168C64.75 25.6668 64.5833 26.0002 64.3333 26.0835C63.9167 26.3335 63.6667 26.6668 63.5833 27.0835C63.5833 27.5835 63.9167 28.0835 64.5 28.3335C64.75 28.4168 64.9167 28.6668 65 28.9168V29.0002C65 29.2502 64.8333 29.5835 64.5833 29.6668C64.0833 29.8335 63.75 30.2502 63.75 30.6668C63.6667 31.2502 64.0833 31.7502 64.75 31.9168C65 32.0002 65.1667 32.2502 65.1667 32.5002V32.5835C65.25 32.9168 65 33.1668 64.75 33.3335C64.3333 33.5002 64 33.9168 64 34.3335C63.9167 34.8335 64.3333 35.3335 64.9167 35.5835C65.1667 35.6668 65.4167 35.8335 65.4167 36.1668V36.2502C65.4167 36.5835 65.25 36.8335 65 36.9168C64.5833 37.1668 64.3333 37.5002 64.25 37.9168C64.25 38.5002 64.5833 38.9168 65.1667 39.1668C65.4167 39.2502 65.5833 39.5002 65.6667 39.7502V39.9168C65.6667 40.1668 65.5 40.5002 65.25 40.5835C64.8333 40.8335 64.5833 41.1668 64.5 41.5835C64.5 42.0835 64.9167 42.5835 65.5 42.8335C65.75 42.9168 65.9167 43.0835 65.9167 43.3335C66.25 44.5002 66.9167 45.8335 67.75 45.8335H73.0833C73.75 45.8335 74.4167 44.6668 74.75 43.6668C74.8333 43.5002 75 43.3335 75.1667 43.2502C75.6667 43.0835 76.0833 42.6668 76.1667 42.1668C76.1667 41.7502 75.9167 41.3335 75.5 41.0835C75.3333 41.0002 75.1667 40.7502 75.1667 40.5002V40.2502C75.25 40.0002 75.4167 39.7502 75.6667 39.6668C76.1667 39.5002 76.5 39.0835 76.5 38.5835C76.5833 38.1668 76.3333 37.7502 75.8333 37.5002C75.5833 37.3335 75.4167 37.0835 75.5 36.8335V36.5835C75.5 36.3335 75.6667 36.0835 75.9167 36.0002C76.3333 35.8335 76.5833 35.4168 76.6667 35.0002C76.6667 34.5835 76.5 34.1668 76.0833 33.9168C75.8333 33.8335 75.75 33.5835 75.75 33.2502V33.0002C75.75 32.7502 75.9167 32.5002 76.1667 32.4168C76.5833 32.1668 76.9167 31.8335 76.9167 31.4168C77 31.0002 76.75 30.5835 76.3333 30.3335C76.0833 30.1668 76 29.9168 76 29.6668V29.4168C76.0833 29.1668 76.25 29.0002 76.5 28.8335C76.9167 28.6668 77.25 28.2502 77.3333 27.8335C77.3333 27.3335 77.0833 27.0002 76.6667 26.7502C76.4167 26.5835 76.25 26.3335 76.25 26.0002L76.3333 25.8335C76.3333 25.5835 76.5 25.3335 76.75 25.2502C77.1667 25.0835 77.5 24.6668 77.5833 24.2502C77.5833 23.6668 77.1667 23.1668 76.5 23.0002V22.8335C76.5833 22.1668 76.5 21.5835 76.3333 21.0835H88.0833C91.1667 21.0835 93.75 23.5835 93.75 26.7502V26.7502Z" stroke="#989898" stroke-width="0.8"/>
</svg>
