<svg width="84" height="55" viewBox="0 0 84 55" fill="none" xmlns="http://www.w3.org/2000/svg">
<g clip-path="url(#clip0_2016_298)">
<path opacity="0.8" d="M51.3531 10.3163L51.2321 12.3442C52.1354 12.6605 52.7593 13.5535 52.6941 14.5581C52.6195 15.5535 51.9026 16.3442 50.9807 16.5395L50.8597 18.6046C51.6792 18.9674 52.2286 19.814 52.1634 20.7628C52.0983 21.693 51.4557 22.4465 50.6083 22.707L50.4781 24.8372C51.3069 25.1907 51.8563 26.0465 51.7912 26.9953C51.726 27.9349 51.0741 28.6884 50.2267 28.9395L50.1056 30.9953C51.0462 31.293 51.6981 32.2047 51.6236 33.2279C51.549 34.2419 50.8041 35.0419 49.8449 35.2279L49.7239 37.2651C50.5713 37.6093 51.1487 38.4744 51.0835 39.4419C51.0089 40.4465 50.2734 41.2465 49.3328 41.4326C48.8951 43.2279 47.9546 44.4558 46.8836 44.4558H39.5641C38.3349 44.4558 37.2919 42.8651 36.9659 40.6326C35.8578 40.4558 35.0569 39.4605 35.1314 38.3256C35.1965 37.386 35.8484 36.6233 36.7145 36.3814L36.6212 34.3628C35.513 34.1953 34.7028 33.1907 34.7773 32.0558C34.8424 31.0977 35.5223 30.3256 36.407 30.093L36.3137 28.1023C35.1776 27.9535 34.3394 26.9488 34.4139 25.786C34.479 24.8093 35.1961 24.0186 36.0995 23.8046L36.0062 21.8233C34.8421 21.7023 33.976 20.6791 34.0598 19.4977C34.1344 18.5023 34.8607 17.7023 35.8013 17.507L35.7079 15.5535C34.6091 15.3767 33.7989 14.3814 33.8827 13.2465C33.9478 12.2884 34.6277 11.5163 35.5031 11.2837L35.4097 9.28372C34.2736 9.12559 33.4448 8.12093 33.5286 6.96744C33.6032 5.98139 34.3108 5.1907 35.2327 4.98605C35.3074 2.23256 36.4807 0 37.9427 0H48.9499C50.5703 0 51.8274 2.76279 51.6411 5.90698L51.6293 6.13023C52.5232 6.44652 53.1379 7.33954 53.0727 8.33488C52.9702 9.33023 52.2625 10.1116 51.3499 10.3163L51.3531 10.3163Z" fill="#808080"/>
<path d="M83.6484 12.7348V44.7721C83.6484 50.2232 79.2158 54.6511 73.7587 54.6511H10.239C4.78195 54.6511 0.349213 50.2232 0.349213 44.7721V12.7348C0.349213 7.28368 4.78195 2.85577 10.239 2.85577H33.4827C33.343 3.27437 33.2404 3.73019 33.1754 4.20461C33.1195 4.64181 32.8403 5.02321 32.4304 5.19066C31.6109 5.53486 31.0242 6.18601 30.9591 6.9767C30.8752 7.91624 31.5457 8.75345 32.5701 9.11623C33.0171 9.28369 33.3524 9.67437 33.3802 10.1488L33.3921 10.3627C33.4296 10.8744 33.1314 11.3209 32.6751 11.5534C31.9673 11.9162 31.4738 12.5302 31.4086 13.2464C31.3248 14.1674 31.9766 14.9953 32.9637 15.3674C33.4201 15.5441 33.746 15.9534 33.7739 16.4371V16.5394C33.8114 17.0418 33.5317 17.5162 33.0662 17.7208C32.2747 18.065 31.7066 18.7162 31.6414 19.479C31.5576 20.4371 32.2653 21.2929 33.3176 21.6464C33.7832 21.8046 34.1278 22.2046 34.1558 22.6883L34.1676 22.8464C34.2051 23.3673 33.8882 23.8232 33.4226 24.0464C32.687 24.3999 32.1561 25.0232 32.1003 25.7673C32.0164 26.7069 32.6963 27.5534 33.7299 27.9162C34.1863 28.0743 34.5122 28.4743 34.5494 28.9487L34.5613 29.1441C34.5881 29.6557 34.2914 30.1115 33.835 30.3348C33.1179 30.6976 32.615 31.3115 32.5592 32.0371C32.4753 32.958 33.1458 33.7953 34.1423 34.1673C34.5893 34.3255 34.9059 34.7162 34.9338 35.1906L34.9516 35.4604C34.9784 35.9534 34.6909 36.4092 34.2439 36.6325C33.5548 36.9952 33.0705 37.5999 33.0147 38.3069C32.9308 39.2743 33.6479 40.1301 34.7188 40.4836C35.1099 40.6138 35.3893 40.9394 35.4918 41.3394C36.0319 43.4232 37.2331 45.7208 38.6114 45.7208H47.8493C49.0506 45.7208 50.1215 43.7394 50.7361 42.0278C50.8571 41.6836 51.1272 41.4045 51.4718 41.2929C52.3937 40.986 53.0829 40.279 53.1574 39.4325C53.2225 38.679 52.8035 37.9906 52.105 37.5627C51.7139 37.3208 51.4718 36.8836 51.509 36.4185L51.5358 36.065C51.5732 35.5906 51.8897 35.1999 52.3367 35.0232C53.1748 34.6883 53.7801 34.0185 53.8453 33.2185C53.9199 32.4092 53.4263 31.6743 52.6348 31.2557C52.225 31.0325 51.955 30.6138 51.9923 30.1394L52.019 29.7208C52.0562 29.2836 52.3171 28.8929 52.7176 28.7069C53.4626 28.3534 53.9841 27.7301 54.0493 26.9859C54.1144 26.2511 53.7047 25.572 53.0342 25.1348C52.6431 24.8929 52.4196 24.4557 52.4568 23.9999L52.4943 23.479C52.5318 23.0418 52.7924 22.6604 53.1927 22.465C53.9284 22.1115 54.4499 21.4883 54.5151 20.7534C54.5802 20.0185 54.18 19.3394 53.5094 18.9022C53.1275 18.651 52.904 18.2231 52.9319 17.7766L52.9587 17.3673C52.9962 16.9115 53.2847 16.5115 53.713 16.3348C54.5325 15.9906 55.1192 15.3394 55.1843 14.5487C55.2498 13.758 54.7841 13.0418 54.0205 12.6138C53.6014 12.372 53.3686 11.8976 53.4059 11.4045L53.4237 11.1348C53.4612 10.679 53.7496 10.279 54.1687 10.1022C54.9788 9.75803 55.5469 9.10688 55.6214 8.32548C55.7148 7.33013 54.9416 6.43711 53.8055 6.12083L53.8233 5.9069C53.9071 4.79993 53.7674 3.74876 53.4601 2.84644H73.789C79.2275 2.85564 83.6508 7.28364 83.6508 12.7348L83.6484 12.7348Z" fill="white" fill-opacity="0.6" stroke="#989898" stroke-width="0.887949" stroke-miterlimit="10"/>
</g>
<defs>
<clipPath id="clip0_2016_298">
<rect width="84" height="55" fill="white"/>
</clipPath>
</defs>
</svg>
