<svg width="28" height="51" viewBox="0 0 28 51" fill="none" xmlns="http://www.w3.org/2000/svg">
<path opacity="0.6" d="M26.0228 20.9823H26.5899C26.0228 23.8178 25.2936 26.5722 24.4025 30.1368C22.2961 38.7243 20.7569 50.4712 16.7872 49.9852C15.9771 49.9042 15.491 49.175 15.572 48.4459C15.734 46.0965 15.572 35.2407 15.572 35.2407C15.572 27.3824 14.7619 27.2203 13.8707 27.2203C12.9796 27.2203 12.2504 27.6254 12.2504 35.4027C12.2504 35.4027 12.7365 46.6636 12.9796 49.094C12.9796 49.4991 12.7365 49.8231 12.3315 49.9041C8.36179 50.5523 4.39212 40.1825 3.09591 31.4331C2.52881 27.4634 1.8807 24.2228 1.39462 21.0633H1.8807C2.85287 20.9823 3.663 20.2532 3.663 19.281L3.98706 13.8531C4.06807 12.8809 4.8782 12.0708 5.85037 12.0708H21.81C22.7822 12.0708 23.5923 12.7999 23.6734 13.7721L24.1594 19.2C24.2405 20.1722 25.0506 20.9013 26.0228 20.9823Z" fill="white"/>
<path d="M26.0228 20.9823H26.5899C26.0228 23.8178 25.2936 26.5722 24.4025 30.1368C22.2961 38.7243 20.7569 50.4712 16.7872 49.9852C15.9771 49.9042 15.491 49.175 15.572 48.4459C15.734 46.0965 15.572 35.2407 15.572 35.2407C15.572 27.3824 14.7619 27.2203 13.8707 27.2203C12.9796 27.2203 12.2504 27.6254 12.2504 35.4027C12.2504 35.4027 12.7365 46.6636 12.9796 49.094C12.9796 49.4991 12.7365 49.8231 12.3315 49.9041C8.36179 50.5523 4.39212 40.1825 3.09591 31.4331C2.52881 27.4634 1.8807 24.2228 1.39462 21.0633H1.8807C2.85287 20.9823 3.663 20.2532 3.663 19.281L3.98706 13.8531C4.06807 12.8809 4.8782 12.0708 5.85037 12.0708H21.81C22.7822 12.0708 23.5923 12.7999 23.6734 13.7721L24.1594 19.2C24.2405 20.1722 25.0506 20.9013 26.0228 20.9823V20.9823Z" stroke="#989898" stroke-width="0.8"/>
<path opacity="0.8" d="M26.5898 13.0432L26.5088 13.2862C25.5367 13.2862 24.7265 12.5571 24.6455 11.5849L24.1594 7.37224C24.0784 6.40008 22.7822 5.42791 21.81 5.42791H5.85036C4.87819 5.42791 3.58198 6.48109 3.50096 7.45325L3.17691 11.666C3.17691 12.6381 2.36677 13.3672 1.39461 13.4483V13.2052C1.07056 10.9368 0.827515 8.58744 0.827515 6.15704C0.827515 2.02534 3.33894 0.648111 6.01239 0.486083C8.68583 0.324056 12.2504 2.02534 14.2758 2.02534C15.734 2.02534 17.4353 0 21.2429 0C24.9696 0 27.0759 2.26838 27.1569 5.50893C27.2379 8.42542 26.9949 10.7748 26.5898 13.0432Z" fill="#808080"/>
</svg>
