<svg width="75" height="51" viewBox="0 0 75 51" fill="none" xmlns="http://www.w3.org/2000/svg">
<path opacity="0.6" d="M74.5851 16.4007V42.3759C74.5851 46.6312 70.8121 50 66.1454 50H8.85463C4.18797 50 0.414917 46.6312 0.414917 42.3759V16.4007C0.414917 12.234 4.18797 8.86523 8.85463 8.86523H14.117C17.3936 8.86523 20.2731 10.9929 20.7695 14.0071C21.1667 16.6667 21.7624 19.3262 22.5568 21.9858C25.6348 21.9858 28.2163 24.2021 28.2163 27.039C28.2163 27.9255 27.9185 28.812 27.422 29.6099C27.8192 29.4917 28.2825 29.4326 28.8121 29.4326C31.1951 29.4326 33.0816 31.117 33.0816 33.2447C33.0816 33.4811 33.0816 33.6879 33.0816 33.8652C34.2731 32.9787 35.7624 32.4468 37.4504 32.4468C40.2305 32.4468 42.5142 33.8652 43.7057 35.9042C43.9043 34.1312 45.4929 32.8014 47.4787 32.8014C47.6111 32.8014 47.7104 32.8014 47.7766 32.8014C48.0414 32.1513 48.3062 31.4421 48.5709 30.6737C47.8759 29.8759 47.4787 28.812 47.4787 27.7482C47.4787 25.7092 48.7695 23.9362 50.7553 23.1383C51.649 19.5035 52.4433 15.7801 53.4362 12.4113C53.4362 12.4113 53.4362 12.3818 53.4362 12.3227C54.0319 10.2837 56.117 8.86523 58.5 8.86523H66.1454C70.8121 8.86523 74.5851 12.234 74.5851 16.4007Z" fill="white"/>
<path d="M74.5851 16.4007V42.3759C74.5851 46.6312 70.8121 50 66.1454 50H8.85463C4.18797 50 0.414917 46.6312 0.414917 42.3759V16.4007C0.414917 12.234 4.18797 8.86523 8.85463 8.86523H14.117C17.3936 8.86523 20.2731 10.9929 20.7695 14.0071C21.1667 16.6667 21.7624 19.3262 22.5568 21.9858C25.6348 21.9858 28.2163 24.2021 28.2163 27.039C28.2163 27.9255 27.9185 28.812 27.422 29.6099C27.8192 29.4917 28.2825 29.4326 28.8121 29.4326C31.1951 29.4326 33.0816 31.117 33.0816 33.2447C33.0816 33.4811 33.0816 33.6879 33.0816 33.8652C34.2731 32.9787 35.7624 32.4468 37.4504 32.4468C40.2305 32.4468 42.5142 33.8652 43.7057 35.9042C43.9043 34.1312 45.4929 32.8014 47.4787 32.8014C47.6111 32.8014 47.7104 32.8014 47.7766 32.8014C48.0414 32.1513 48.3062 31.4421 48.5709 30.6737C47.8759 29.8759 47.4787 28.812 47.4787 27.7482C47.4787 25.7092 48.7695 23.9362 50.7553 23.1383C51.649 19.5035 52.4433 15.7801 53.4362 12.4113C53.4362 12.4113 53.4362 12.3818 53.4362 12.3227C54.0319 10.2837 56.117 8.86523 58.5 8.86523H66.1454C70.8121 8.86523 74.5851 12.234 74.5851 16.4007V16.4007Z" stroke="#989898" stroke-width="0.8"/>
<path opacity="0.8" d="M31.195 7.62391C31.195 8.68774 30.3014 9.48561 29.1099 9.48561C28.0177 9.48561 27.0248 8.68774 27.0248 7.62391C27.0248 6.56008 28.0177 5.76221 29.1099 5.76221C30.3014 5.76221 31.195 6.56008 31.195 7.62391Z" fill="#808080"/>
<path opacity="0.8" d="M53.1382 1.24113C53.1382 1.8617 52.5425 2.39362 51.8475 2.39362C51.0531 2.39362 50.4574 1.8617 50.4574 1.24113C50.4574 0.531913 51.0531 0 51.8475 0C52.5425 0 53.1382 0.531913 53.1382 1.24113Z" fill="#808080"/>
<path opacity="0.8" d="M25.5356 1.24113C25.5356 1.8617 24.9398 2.39362 24.2448 2.39362C23.4505 2.39362 22.8547 1.8617 22.8547 1.24113C22.8547 0.531913 23.4505 0 24.2448 0C24.9398 0 25.5356 0.531913 25.5356 1.24113Z" fill="#808080"/>
<path opacity="0.8" d="M44.5 1.24113C44.5 1.8617 43.9043 2.39362 43.1099 2.39362C42.4149 2.39362 41.8192 1.8617 41.8192 1.24113C41.8192 0.531913 42.4149 0 43.1099 0C43.9043 0 44.5 0.531913 44.5 1.24113Z" fill="#808080"/>
<path opacity="0.8" d="M34.6703 1.24113C34.6703 1.8617 34.0745 2.39362 33.2802 2.39362C32.5852 2.39362 31.9894 1.8617 31.9894 1.24113C31.9894 0.531913 32.5852 0 33.2802 0C34.0745 0 34.6703 0.531913 34.6703 1.24113Z" fill="#808080"/>
<path opacity="0.8" d="M49.7624 7.62391C49.7624 8.68774 48.7695 9.48561 47.6773 9.48561C46.4858 9.48561 45.5922 8.68774 45.5922 7.62391C45.5922 6.56008 46.4858 5.76221 47.6773 5.76221C48.7695 5.76221 49.7624 6.56008 49.7624 7.62391Z" fill="#808080"/>
<path opacity="0.8" d="M40.6277 7.62391C40.6277 8.68774 39.7341 9.48561 38.6419 9.48561C37.4504 9.48561 36.5568 8.68774 36.5568 7.62391C36.5568 6.56008 37.4504 5.76221 38.6419 5.76221C39.7341 5.76221 40.6277 6.56008 40.6277 7.62391Z" fill="#808080"/>
<path opacity="0.8" d="M36.5569 15.6027C36.5569 17.0212 35.1668 18.2623 33.4788 18.2623C31.7909 18.2623 30.5001 17.0212 30.5001 15.6027C30.5001 14.0956 31.7909 12.8545 33.4788 12.8545C35.1668 12.8545 36.5569 14.0956 36.5569 15.6027Z" fill="#808080"/>
<path opacity="0.8" d="M45.9895 15.6027C45.9895 17.0212 44.5994 18.2623 42.9115 18.2623C41.2235 18.2623 39.9327 17.0212 39.9327 15.6027C39.9327 14.0956 41.2235 12.8545 42.9115 12.8545C44.5994 12.8545 45.9895 14.0956 45.9895 15.6027Z" fill="#808080"/>
</svg>
