<svg width="580" height="106" viewBox="0 0 580 106" fill="none" xmlns="http://www.w3.org/2000/svg">
<path d="M59.9009 5.70005L71.7009 29.7C72.5009 31.4 74.1009 32.5001 76.0009 32.8001L102.401 36.6001C107.101 37.3001 108.901 43.0001 105.501 46.3001L86.5009 65.0001C85.2009 66.3001 84.6009 68.2001 84.9009 70.0001L89.4009 96.3001C90.2009 100.9 85.3009 104.5 81.2009 102.3L57.5009 89.9C55.8009 89 53.9009 89 52.2009 89.9L28.5009 102.3C24.3009 104.5 19.5009 101 20.3009 96.3001L24.8009 70.0001C25.1009 68.2001 24.5009 66.3001 23.2009 65.0001L4.10092 46.3001C0.700925 43.0001 2.60093 37.3001 7.20093 36.6001L33.6009 32.8001C35.4009 32.5001 37.0009 31.4 37.9009 29.7L49.7009 5.70005C51.8009 1.50005 57.8009 1.50005 59.9009 5.70005Z" fill="#FABB06" stroke="black" stroke-width="4.3322" stroke-miterlimit="10"/>
<path d="M177.499 5.70005L189.299 29.7C190.099 31.4 191.699 32.5001 193.599 32.8001L219.999 36.6001C224.699 37.3001 226.499 43.0001 223.099 46.3001L204.099 65.0001C202.799 66.3001 202.199 68.2001 202.499 70.0001L206.999 96.3001C207.799 100.9 202.899 104.5 198.799 102.3L175.099 89.9C173.399 89 171.499 89 169.799 89.9L146.099 102.3C141.899 104.5 137.099 101 137.899 96.3001L142.399 70.0001C142.699 68.2001 142.099 66.3001 140.799 65.0001L121.699 46.3001C118.299 43.0001 120.199 37.3001 124.799 36.6001L151.199 32.8001C152.999 32.5001 154.599 31.4 155.499 29.7L167.299 5.70005C169.399 1.50005 175.499 1.50005 177.499 5.70005Z" fill="#FABB06" stroke="black" stroke-width="4.3322" stroke-miterlimit="10"/>
<path d="M295.2 5.70005L307 29.7C307.8 31.4 309.4 32.5001 311.3 32.8001L337.7 36.6001C342.4 37.3001 344.2 43.0001 340.8 46.3001L321.7 65.0001C320.4 66.3001 319.8 68.2001 320.1 70.0001L324.6 96.3001C325.4 100.9 320.5 104.5 316.4 102.3L292.7 89.9C291 89 289.1 89 287.4 89.9L263.7 102.3C259.5 104.5 254.7 101 255.5 96.3001L260 70.0001C260.3 68.2001 259.7 66.3001 258.4 65.0001L239.3 46.3001C235.9 43.0001 237.8 37.3001 242.4 36.6001L268.8 32.8001C270.6 32.5001 272.2 31.4 273.1 29.7L284.9 5.70005C287.1 1.50005 293.1 1.50005 295.2 5.70005Z" fill="#FABB06" stroke="black" stroke-width="4.3322" stroke-miterlimit="10"/>
<path d="M412.802 5.70005L424.602 29.7C425.402 31.4 427.002 32.5001 428.902 32.8001L455.302 36.6001C460.002 37.3001 461.802 43.0001 458.402 46.3001L439.302 65.0001C438.002 66.3001 437.402 68.2001 437.702 70.0001L442.202 96.3001C443.002 100.9 438.102 104.5 434.002 102.3L410.302 89.9C408.602 89 406.702 89 405.002 89.9L381.302 102.3C377.102 104.5 372.302 101 373.102 96.3001L377.602 70.0001C377.902 68.2001 377.302 66.3001 376.002 65.0001L356.902 46.3001C353.502 43.0001 355.402 37.3001 360.002 36.6001L386.402 32.8001C388.202 32.5001 389.802 31.4 390.702 29.7L402.502 5.70005C404.702 1.50005 410.702 1.50005 412.802 5.70005Z" fill="#FABB06" stroke="black" stroke-width="4.3322" stroke-miterlimit="10"/>
<path d="M530.401 5.70005L542.201 29.7C543.001 31.4 544.601 32.5001 546.501 32.8001L572.901 36.6001C577.601 37.3001 579.401 43.0001 576.001 46.3001L557.001 65.0001C555.701 66.3001 555.101 68.2001 555.401 70.0001L559.901 96.3001C560.701 100.9 555.801 104.5 551.701 102.3L528.001 89.9C526.301 89 524.401 89 522.701 89.9L499.001 102.3C494.801 104.5 490.001 101 490.801 96.3001L495.301 70.0001C495.601 68.2001 495.001 66.3001 493.701 65.0001L474.601 46.3001C471.201 43.0001 473.101 37.3001 477.701 36.6001L504.101 32.8001C505.901 32.5001 507.501 31.4 508.401 29.7L520.201 5.70005C522.301 1.50005 528.301 1.50005 530.401 5.70005Z" fill="#FABB06" stroke="black" stroke-width="4.3322" stroke-miterlimit="10"/>
</svg>
