<?xml version="1.0" encoding="utf-8"?>
<!-- Generator: Adobe Illustrator 26.0.3, SVG Export Plug-In . SVG Version: 6.00 Build 0)  -->
<svg version="1.1" id="Layer_1" xmlns="http://www.w3.org/2000/svg" xmlns:xlink="http://www.w3.org/1999/xlink" x="0px" y="0px"
	 viewBox="0 0 32 32" style="enable-background:new 0 0 32 32;" xml:space="preserve">
<style type="text/css">
	.st0{fill:#FABB06;}
</style>
<path class="st0" d="M24.6,30.3c-0.2,0-0.4-0.1-0.6-0.2c-2.6-1.6-5.2-3.2-7.8-4.8c-0.2-0.1-0.3-0.1-0.5,0c-2.6,1.6-5.2,3.2-7.8,4.8
	c-0.7,0.4-1.4,0.1-1.6-0.7c0-0.2,0.1-0.5,0.1-0.7c0.7-2.9,1.4-5.8,2.1-8.7c0.1-0.2,0-0.3-0.2-0.5c-2.3-1.9-4.5-3.9-6.8-5.8
	c-0.1-0.1-0.1-0.1-0.2-0.2C1,13.4,0.9,13,1.1,12.6c0.1-0.4,0.5-0.6,0.9-0.7c0.5,0,1-0.1,1.4-0.1c2.3-0.2,4.5-0.4,6.8-0.5
	c0.3,0,0.6-0.1,0.9-0.1c0.2,0,0.3-0.1,0.4-0.3c1.2-2.8,2.4-5.7,3.5-8.5c0.3-0.6,0.9-0.9,1.5-0.5c0.2,0.1,0.3,0.3,0.4,0.5
	C18,5,19.1,7.5,20.1,10c0.1,0.3,0.3,0.6,0.4,0.9c0,0.1,0.1,0.2,0.2,0.2c2.1,0.2,4.3,0.3,6.4,0.5c0.9,0.1,1.9,0.1,2.8,0.2
	c0.4,0,0.8,0.2,0.9,0.7c0.1,0.4,0,0.8-0.4,1.1c-2.3,2-4.7,4-7,6c-0.2,0.1-0.2,0.3-0.1,0.4c0.7,3,1.4,5.9,2.1,8.9
	C25.8,29.7,25.3,30.3,24.6,30.3z"/>
</svg>
