<?xml version="1.0" encoding="utf-8"?><svg viewBox="0 0 32 33" xmlns="http://www.w3.org/2000/svg" xmlns:xlink="http://www.w3.org/1999/xlink"><style>:root>svg{display:none}:root>svg:target{display:block}</style><svg viewBox="0 0 25 25" id="contacts-icon1" xmlns="http://www.w3.org/2000/svg"><path d="M7.008 2.413l1.73-.52a2.455 2.455 0 012.947 1.344l1.212 2.696a2.455 2.455 0 01-.565 2.804l-1.846 1.72c-.247.234-.06 1.15.844 2.715.905 1.567 1.604 2.187 1.926 2.09l2.418-.739a2.456 2.456 0 012.709.911l1.723 2.388a2.455 2.455 0 01-.303 3.22l-1.332 1.262a3.35 3.35 0 01-3.282.77c-2.791-.854-5.376-3.39-7.79-7.571-2.418-4.188-3.331-7.72-2.695-10.606a3.348 3.348 0 012.304-2.484z"/></svg><svg viewBox="0 0 25 25" id="contacts-icon2" xmlns="http://www.w3.org/2000/svg"><path fill-rule="evenodd" clip-rule="evenodd" d="M7.777 1.11C9 1.054 9.39 1.042 12.501 1.042c3.113 0 3.502.013 4.723.069 1.221.055 2.054.25 2.784.532.763.288 1.456.74 2.029 1.323a5.596 5.596 0 011.32 2.028c.284.729.478 1.562.534 2.781.056 1.224.069 1.614.069 4.725 0 3.113-.014 3.502-.07 4.724-.054 1.219-.25 2.052-.532 2.781a5.622 5.622 0 01-1.321 2.03 5.619 5.619 0 01-2.03 1.321c-.729.284-1.562.477-2.78.534-1.224.056-1.613.068-4.726.068-3.112 0-3.502-.013-4.724-.068-1.218-.056-2.052-.25-2.78-.534a5.62 5.62 0 01-2.031-1.32 5.616 5.616 0 01-1.322-2.03c-.282-.729-.476-1.562-.532-2.78-.057-1.225-.069-1.614-.069-4.726s.014-3.502.069-4.723c.055-1.22.25-2.054.532-2.783a5.62 5.62 0 011.323-2.03 5.617 5.617 0 012.028-1.321c.73-.282 1.563-.476 2.781-.532h.001zm9.354 2.063c-1.208-.055-1.57-.067-4.63-.067-3.06 0-3.422.012-4.63.067-1.118.051-1.724.237-2.128.395a3.558 3.558 0 00-1.318.856c-.38.37-.672.82-.856 1.318-.157.404-.344 1.01-.395 2.128-.055 1.208-.066 1.57-.066 4.63 0 3.06.011 3.422.066 4.63.051 1.118.238 1.724.395 2.128.183.497.476.948.856 1.318.37.38.821.673 1.318.856.404.158 1.01.344 2.128.395 1.208.055 1.57.067 4.63.067 3.06 0 3.422-.012 4.63-.067 1.118-.05 1.724-.237 2.129-.395a3.558 3.558 0 001.317-.856c.38-.37.673-.82.857-1.318.157-.404.343-1.01.394-2.128.056-1.208.067-1.57.067-4.63 0-3.06-.011-3.422-.067-4.63-.05-1.118-.237-1.724-.394-2.128a3.557 3.557 0 00-.857-1.318c-.37-.38-.82-.673-1.317-.856-.405-.158-1.01-.344-2.129-.395zm-6.093 12.86A3.822 3.822 0 1013.789 8.9a3.823 3.823 0 00-2.751 7.131zM8.337 8.334a5.89 5.89 0 118.33 8.33 5.89 5.89 0 01-8.33-8.33zm11.36-.847a1.39 1.39 0 00-.432-2.304 1.392 1.392 0 10.432 2.304z"/></svg><svg viewBox="0 0 30 30" id="contacts-icon3" xmlns="http://www.w3.org/2000/svg"><path d="M16.745 26.246V16.001h3.457l.513-4.011h-3.97V9.435c0-1.158.323-1.95 1.984-1.95h2.105V3.909a27.92 27.92 0 00-3.084-.159c-3.055 0-5.152 1.865-5.152 5.289v2.944H9.164v4.01h3.441v10.253h4.14z"/></svg><svg viewBox="0 0 32 33" id="location" xmlns="http://www.w3.org/2000/svg"><path d="M16 2.5a11.013 11.013 0 00-11 11 10.889 10.889 0 002.216 6.6s.3.395.349.452L16 30.5l8.439-9.953c.044-.053.345-.447.345-.447l.001-.003A10.885 10.885 0 0027 13.5a11.013 11.013 0 00-11-11zm0 15a4 4 0 110-8 4 4 0 010 8z"/></svg><svg viewBox="0 0 30 31" id="phone" xmlns="http://www.w3.org/2000/svg"><path d="M25 14.249h2.5C27.5 7.836 22.66 3 16.239 3v2.5c5.078 0 8.763 3.679 8.763 8.749z"/><path d="M16.25 10.5c2.63 0 3.75 1.121 3.75 3.75h2.5C22.5 10.22 20.282 8 16.25 8v2.5zm4.278 6.804a1.252 1.252 0 00-1.739.054l-2.991 3.076c-.72-.138-2.168-.589-3.658-2.075-1.49-1.491-1.94-2.943-2.075-3.658l3.074-2.992a1.25 1.25 0 00.054-1.739L8.574 4.891a1.25 1.25 0 00-1.739-.108L4.123 7.109a1.25 1.25 0 00-.363.811c-.018.313-.376 7.715 5.364 13.458 5.008 5.006 11.28 5.372 13.008 5.372.252 0 .407-.007.448-.01a1.24 1.24 0 00.81-.364l2.325-2.713a1.25 1.25 0 00-.107-1.74l-5.08-4.62z"/></svg></svg>