<svg width="25" height="25" viewBox="0 0 25 25" fill="none" xmlns="http://www.w3.org/2000/svg">
<path d="M7.00787 2.41348L8.73733 1.89205C9.30812 1.72024 9.92191 1.76193 10.4642 2.00934C11.0065 2.25676 11.4403 2.693 11.6847 3.2367L12.8972 5.93313C13.1076 6.40091 13.1663 6.92286 13.0649 7.42569C12.9635 7.92852 12.7072 8.38698 12.332 8.7367L10.4864 10.4563C10.2391 10.6912 10.4266 11.6063 11.3302 13.1724C12.2347 14.7394 12.9338 15.359 13.2561 15.2626L15.6739 14.5233C16.164 14.3734 16.6888 14.3806 17.1746 14.5439C17.6604 14.7072 18.0829 15.0185 18.3829 15.434L20.1061 17.8224C20.4541 18.3047 20.6153 18.8969 20.5596 19.4891C20.504 20.0813 20.2353 20.6331 19.8034 21.0421L18.4713 22.3037C18.0412 22.7109 17.5108 22.9968 16.9342 23.1322C16.3577 23.2675 15.7555 23.2475 15.1891 23.0742C12.398 22.2197 9.81323 19.684 7.39983 15.5028C4.98108 11.3153 4.06769 7.78313 4.7043 4.89741C4.8327 4.31594 5.11384 3.77923 5.51876 3.34262C5.92368 2.906 6.43771 2.58527 7.00787 2.41348Z" fill="#979697"/>
</svg>
