<svg width="25" height="25" viewBox="0 0 25 25" fill="none" xmlns="http://www.w3.org/2000/svg">
<path fill-rule="evenodd" clip-rule="evenodd" d="M7.77734 1.1105C8.99922 1.05425 9.3888 1.04175 12.5013 1.04175C15.6138 1.04175 16.0034 1.05529 17.2242 1.1105C18.4451 1.16571 19.2784 1.3605 20.0076 1.64279C20.7711 1.93133 21.4638 2.38237 22.0367 2.96571C22.6201 3.53758 23.0701 4.22925 23.3576 4.99383C23.6409 5.723 23.8346 6.55633 23.8909 7.77508C23.9471 8.99904 23.9596 9.38862 23.9596 12.5001C23.9596 15.6126 23.9461 16.0022 23.8909 17.224C23.8357 18.4428 23.6409 19.2761 23.3576 20.0053C23.07 20.77 22.6193 21.4628 22.0367 22.0355C21.4638 22.6188 20.7711 23.0688 20.0076 23.3563C19.2784 23.6397 18.4451 23.8334 17.2263 23.8897C16.0034 23.9459 15.6138 23.9584 12.5013 23.9584C9.3888 23.9584 8.99922 23.9449 7.77734 23.8897C6.55859 23.8345 5.72526 23.6397 4.99609 23.3563C4.23143 23.0688 3.53861 22.6181 2.96589 22.0355C2.38295 21.4633 1.93184 20.7708 1.64401 20.0063C1.36172 19.2772 1.16797 18.4438 1.11172 17.2251C1.05547 16.0011 1.04297 15.6115 1.04297 12.5001C1.04297 9.38758 1.05651 8.998 1.11172 7.77716C1.16693 6.55633 1.36172 5.723 1.64401 4.99383C1.93226 4.22933 2.38372 3.53687 2.96693 2.96466C3.53884 2.38185 4.23096 1.93075 4.99505 1.64279C5.72422 1.3605 6.55755 1.16675 7.7763 1.1105H7.77734ZM17.1315 3.173C15.9232 3.11779 15.5607 3.10633 12.5013 3.10633C9.44193 3.10633 9.07943 3.11779 7.87109 3.173C6.75339 3.22404 6.14714 3.4105 5.74297 3.56779C5.20859 3.77612 4.8263 4.023 4.42526 4.42404C4.0451 4.79388 3.75253 5.24413 3.56901 5.74175C3.41172 6.14591 3.22526 6.75216 3.17422 7.86987C3.11901 9.07821 3.10755 9.44071 3.10755 12.5001C3.10755 15.5595 3.11901 15.922 3.17422 17.1303C3.22526 18.248 3.41172 18.8542 3.56901 19.2584C3.75234 19.7553 4.04505 20.2063 4.42526 20.5761C4.79505 20.9563 5.24609 21.249 5.74297 21.4324C6.14714 21.5897 6.75339 21.7761 7.87109 21.8272C9.07943 21.8824 9.44089 21.8938 12.5013 21.8938C15.5617 21.8938 15.9232 21.8824 17.1315 21.8272C18.2492 21.7761 18.8555 21.5897 19.2596 21.4324C19.794 21.224 20.1763 20.9772 20.5773 20.5761C20.9576 20.2063 21.2503 19.7553 21.4336 19.2584C21.5909 18.8542 21.7773 18.248 21.8284 17.1303C21.8836 15.922 21.8951 15.5595 21.8951 12.5001C21.8951 9.44071 21.8836 9.07821 21.8284 7.86987C21.7773 6.75216 21.5909 6.14591 21.4336 5.74175C21.2253 5.20737 20.9784 4.82508 20.5773 4.42404C20.2075 4.04391 19.7572 3.75134 19.2596 3.56779C18.8555 3.4105 18.2492 3.22404 17.1315 3.173ZM11.0378 16.0324C11.8551 16.3726 12.7652 16.4185 13.6127 16.1623C14.4601 15.906 15.1923 15.3635 15.6842 14.6274C16.1761 13.8913 16.3972 13.0072 16.3097 12.1262C16.2222 11.2452 15.8315 10.4219 15.2044 9.79696C14.8047 9.39745 14.3213 9.09155 13.7891 8.90128C13.257 8.711 12.6892 8.64108 12.1268 8.69656C11.5644 8.75203 11.0213 8.93152 10.5365 9.22209C10.0518 9.51267 9.63749 9.90711 9.32349 10.377C9.00949 10.8469 8.80358 11.3806 8.72059 11.9396C8.6376 12.4987 8.67958 13.0691 8.84353 13.61C9.00748 14.1509 9.2893 14.6486 9.66872 15.0675C10.0481 15.4864 10.5157 15.8159 11.0378 16.0324ZM8.33672 8.3355C8.88362 7.7886 9.53289 7.35477 10.2474 7.05879C10.962 6.76281 11.7279 6.61047 12.5013 6.61047C13.2747 6.61047 14.0406 6.76281 14.7552 7.05879C15.4697 7.35477 16.119 7.7886 16.6659 8.3355C17.2128 8.8824 17.6466 9.53166 17.9426 10.2462C18.2386 10.9608 18.3909 11.7266 18.3909 12.5001C18.3909 13.2735 18.2386 14.0394 17.9426 14.7539C17.6466 15.4685 17.2128 16.1178 16.6659 16.6647C15.5614 17.7692 14.0633 18.3897 12.5013 18.3897C10.9393 18.3897 9.44123 17.7692 8.33672 16.6647C7.2322 15.5601 6.61169 14.0621 6.61169 12.5001C6.61169 10.9381 7.2322 9.44001 8.33672 8.3355ZM19.6971 7.48758C19.8327 7.35974 19.9412 7.206 20.0162 7.03547C20.0912 6.86494 20.1313 6.68109 20.134 6.4948C20.1367 6.30851 20.1021 6.12357 20.032 5.95092C19.962 5.77828 19.858 5.62145 19.7263 5.48971C19.5945 5.35796 19.4377 5.25399 19.265 5.18395C19.0924 5.11391 18.9075 5.07922 18.7212 5.08194C18.5349 5.08465 18.351 5.12472 18.1805 5.19976C18.01 5.27481 17.8562 5.38331 17.7284 5.51883C17.4797 5.7824 17.3436 6.1325 17.3489 6.4948C17.3542 6.8571 17.5005 7.20308 17.7567 7.45929C18.0129 7.71551 18.3589 7.86178 18.7212 7.86706C19.0835 7.87234 19.4336 7.73622 19.6971 7.48758Z" fill="#979697"/>
</svg>
