<svg width="32" height="33" viewBox="0 0 32 33" fill="none" xmlns="http://www.w3.org/2000/svg">
<path d="M16 2.5C13.0837 2.50344 10.2878 3.66347 8.22564 5.72563C6.16348 7.78778 5.00345 10.5837 5.00001 13.5C4.99652 15.8832 5.77499 18.2018 7.21601 20.1C7.21601 20.1 7.51601 20.495 7.56501 20.552L16 30.5L24.439 20.547C24.483 20.494 24.784 20.1 24.784 20.1L24.785 20.097C26.2253 18.1996 27.0034 15.8821 27 13.5C26.9966 10.5837 25.8365 7.78778 23.7744 5.72563C21.7122 3.66347 18.9163 2.50344 16 2.5ZM16 17.5C15.2089 17.5 14.4355 17.2654 13.7777 16.8259C13.1199 16.3864 12.6072 15.7616 12.3045 15.0307C12.0017 14.2998 11.9225 13.4956 12.0769 12.7196C12.2312 11.9437 12.6122 11.231 13.1716 10.6716C13.731 10.1122 14.4437 9.7312 15.2197 9.57686C15.9956 9.42252 16.7998 9.50173 17.5307 9.80448C18.2616 10.1072 18.8864 10.6199 19.3259 11.2777C19.7654 11.9355 20 12.7089 20 13.5C19.9987 14.5605 19.5768 15.5771 18.827 16.327C18.0771 17.0768 17.0605 17.4987 16 17.5Z" fill="black"/>
</svg>
