<svg width="30" height="31" viewBox="0 0 30 31" fill="none" xmlns="http://www.w3.org/2000/svg">
<path d="M25.0008 14.2487H27.5008C27.5008 7.83625 22.6595 3 16.2383 3V5.5C21.3158 5.5 25.0008 9.17875 25.0008 14.2487Z" fill="black"/>
<path d="M16.2504 10.5001C18.8791 10.5001 20.0004 11.6213 20.0004 14.2501H22.5004C22.5004 10.2188 20.2816 8.00005 16.2504 8.00005V10.5001ZM20.5279 17.3038C20.2877 17.0855 19.972 16.9691 19.6476 16.9791C19.3232 16.9891 19.0154 17.1248 18.7891 17.3576L15.7979 20.4338C15.0779 20.2963 13.6304 19.8451 12.1404 18.3588C10.6504 16.8676 10.1991 15.4163 10.0654 14.7013L13.1391 11.7088C13.3721 11.4827 13.508 11.1748 13.5181 10.8503C13.5281 10.5258 13.4115 10.2101 13.1929 9.97005L8.5741 4.8913C8.35541 4.6505 8.05145 4.50443 7.72679 4.48413C7.40214 4.46382 7.08235 4.57088 6.83535 4.78255L4.12285 7.1088C3.90674 7.3257 3.77775 7.61437 3.76035 7.92005C3.7416 8.23255 3.3841 15.6351 9.1241 21.3776C14.1316 26.3838 20.4041 26.7501 22.1316 26.7501C22.3841 26.7501 22.5391 26.7426 22.5804 26.7401C22.886 26.7229 23.1745 26.5934 23.3904 26.3763L25.7154 23.6626C25.9272 23.4157 26.0345 23.096 26.0144 22.7714C25.9943 22.4467 25.8485 22.1427 25.6079 21.9238L20.5279 17.3038Z" fill="black"/>
</svg>
